<?xml version="1.0" encoding="iso-8859-1"?>
<!-- Generator: Adobe Illustrator 15.1.0, SVG Export Plug-In . SVG Version: 6.00 Build 0)  -->
<!DOCTYPE svg PUBLIC "-//W3C//DTD SVG 1.1//EN" "http://www.w3.org/Graphics/SVG/1.1/DTD/svg11.dtd">
<svg version="1.1" xmlns="http://www.w3.org/2000/svg" xmlns:xlink="http://www.w3.org/1999/xlink" x="0px" y="0px" width="792px"
	 height="1224px" viewBox="0 0 792 1224" style="enable-background:new 0 0 792 1224;" xml:space="preserve">
<g id="Layer_1">
	<g>
		<path style="fill:#272525;" d="M161.862,207.881c56.915,0,56.915,153.478,0,153.478h-29.264c0-51.16,0-102.318,0-153.478H161.862z
			 M161.862,358.065c54.435,0,54.435-146.891,0-146.891h-27.404c0,47.646,0,99.244,0,146.891H161.862z"/>
		<path style="fill:#272525;" d="M223.243,230.471c7.936-14.069,19.096-22.596,31.248-22.596c12.275,0,23.312,8.526,31.371,22.596
			c7.936,13.857,13.02,33.042,13.02,54.146s-5.084,40.289-13.02,54.146c-8.06,14.068-19.096,22.596-31.371,22.596
			c-12.152,0-23.312-8.527-31.248-22.596c-7.936-13.857-13.02-33.042-13.02-54.146S215.307,244.328,223.243,230.471z
			 M284.498,233.03c-7.688-13.43-18.352-21.744-30.007-21.744s-22.196,8.313-29.883,21.744c-7.564,13.217-12.4,31.336-12.4,51.587
			s4.835,38.371,12.4,51.587c7.688,13.431,18.228,21.744,29.883,21.744s22.32-8.313,30.007-21.744
			c7.564-13.217,12.276-31.336,12.276-51.587S292.062,246.247,284.498,233.03z"/>
		<path style="fill:#272525;" d="M307.812,318.149V207.881h1.984v110.486c0,26.213,15.128,39.211,28.396,39.211
			c13.268,0,28.396-12.998,28.396-39.429V207.881h1.984v110.486c0,27.946-16.12,42.678-30.38,42.678
			C323.809,361.045,307.812,346.313,307.812,318.149z"/>
		<path style="fill:#272525;" d="M457.356,254.151c-5.952-26.776-20.832-42.843-36.827-42.843c-11.284,0-21.328,8.354-28.768,21.636
			c-7.192,13.281-11.78,31.275-11.78,51.411c0,20.136,4.587,38.344,11.78,51.412c7.44,13.495,17.484,21.635,28.768,21.635
			c17.359,0,35.835-23.778,39.059-55.481h-38.315v-3.427h40.796c-0.249,5.141-0.992,10.068-2.108,14.995
			c-5.704,27.419-23.932,47.556-39.431,47.556c-11.78,0-22.444-8.783-30.132-22.707c-7.564-13.71-12.4-32.775-12.4-53.982
			c0-20.993,4.836-40.058,12.4-53.982c7.688-13.924,18.352-22.493,30.132-22.493c17.111,0,33.23,17.78,38.935,46.271H457.356z"/>
		<path style="fill:#272525;" d="M473.602,357.846h46.624v3.513c-16.244,0-32.363,0-48.607,0V207.881h1.983V357.846z"/>
		<path style="fill:#272525;" d="M581.729,310.558h-43.896l-11.78,50.801h-2.108l34.844-153.483h2.108l34.844,153.483h-2.108
			L581.729,310.558z M538.701,307.315h42.283l-21.204-94.899L538.701,307.315z"/>
		<path style="fill:#272525;" d="M655.138,241.16c-0.743-6.209-2.231-11.562-4.711-16.273c-5.333-9.852-13.889-13.919-21.7-13.705
			c-8.184,0.214-17.484,5.353-22.691,17.131c-3.101,6.638-4.216,14.561-3.844,22.913c2.231,52.463,50.963,11.35,56.914,59.316
			c3.968,31.693-13.515,50.536-30.007,50.536c-12.648,0-28.023-12.42-29.512-36.617l-0.124-1.499l1.983-0.428l0.125,1.499
			c1.363,22.485,15.871,33.834,27.651,33.834c15.128,0,31.495-16.917,27.899-46.682c-5.58-44.541-54.559-3.855-56.791-59.745
			c-0.496-8.994,0.868-17.772,4.092-25.054c12.647-28.266,48.359-24.625,52.575,14.133l0.124,1.713l-1.86,0.642L655.138,241.16z"/>
	</g>
	<g>
		<path style="fill:#272525;" d="M202.499,413.64c-1.75-7.703-4.266-14.574-7.219-20.404c-6.455-12.701-15.424-20.405-25.27-20.405
			s-18.815,7.704-25.269,20.405c-6.454,12.701-10.501,29.981-10.501,48.928c0,19.154,4.047,36.435,10.501,48.928
			c6.454,12.701,15.424,20.612,25.269,20.612s18.815-7.912,25.27-20.612c2.953-5.83,5.469-12.493,7.219-20.197h1.86
			c-1.86,8.537-4.595,16.241-7.876,22.695c-6.782,13.326-16.081,21.445-26.473,21.445s-19.69-8.12-26.472-21.445
			c-6.673-13.117-10.939-31.23-10.939-51.426c0-19.988,4.266-38.103,10.939-51.219c6.782-13.325,16.08-21.444,26.472-21.444
			s19.69,8.12,26.473,21.444c3.281,6.454,6.016,14.157,7.876,22.695H202.499z"/>
		<path style="fill:#272525;" d="M221.097,390.717c7.001-13.342,16.846-21.426,27.566-21.426c10.83,0,20.565,8.084,27.676,21.426
			c7.001,13.139,11.486,31.332,11.486,51.342c0,20.011-4.485,38.204-11.486,51.343c-7.11,13.34-16.846,21.426-27.676,21.426
			c-10.72,0-20.565-8.085-27.566-21.426c-7.001-13.139-11.486-31.332-11.486-51.343
			C209.611,422.049,214.096,403.856,221.097,390.717z M275.135,393.143c-6.782-12.735-16.189-20.618-26.472-20.618
			s-19.581,7.883-26.363,20.618c-6.673,12.533-10.939,29.713-10.939,48.916c0,19.204,4.266,36.384,10.939,48.917
			c6.782,12.735,16.08,20.618,26.363,20.618s19.69-7.883,26.472-20.618c6.673-12.532,10.83-29.713,10.83-48.917
			C285.965,422.856,281.809,405.676,275.135,393.143z"/>
		<path style="fill:#272525;" d="M295.704,473.994V369.291h1.75V474.2c0,24.89,13.346,37.233,25.05,37.233
			c11.706,0,25.051-12.343,25.051-37.438V369.291h1.75V474.2c0,26.536-14.221,40.523-26.801,40.523
			C309.815,514.723,295.704,500.736,295.704,473.994z"/>
		<path style="fill:#272525;" d="M359.807,369.083h0.876h25.597c30.629,0,30.629,90.36,0,90.36h-24.722v55.384h-1.751
			c0-48.096,0-95.983,0-144.079V369.083z M386.28,456.321c28.441,0,28.441-83.906,0-83.906h-24.722v83.906H386.28z"/>
		<path style="fill:#272525;" d="M418.551,511.495h41.132v3.333c-14.33,0-28.551,0-42.881,0V369.291h1.749V511.495z"/>
		<path style="fill:#272525;" d="M513.939,466.519h-38.725l-10.392,48.309h-1.859l30.738-145.952h1.859L526.3,514.828h-1.858
			L513.939,466.519z M475.981,463.436h37.303l-18.707-90.243L475.981,463.436z"/>
		<path style="fill:#272525;" d="M531.99,514.828V368.875l1.531,0.208l50.867,139.915V369.083h1.641v145.744h-1.75l-50.538-139.081
			v139.081H531.99z"/>
		<path style="fill:#272525;" d="M622.02,369.291c50.211,0,50.211,145.537,0,145.537h-25.815c0-48.512,0-97.024,0-145.537H622.02z
			 M622.02,511.705c48.022,0,48.022-139.29,0-139.29h-24.175c0,45.18,0,94.109,0,139.29H622.02z"/>
	</g>
	<g>
		<path style="fill:#272525;" d="M203.202,571.328l-29.324,108.697h-2.386l-39.894-156.934h2.728l38.359,151.155l28.642-105.809
			h3.751l28.641,105.809l38.53-151.155h2.728l-39.894,156.934h-2.387L203.202,571.328z"/>
		<path style="fill:#272525;" d="M293.907,545.889c10.911-14.44,26.254-23.191,42.962-23.191c16.878,0,32.051,8.75,43.133,23.191
			c10.911,14.221,17.901,33.911,17.901,55.57c0,21.659-6.99,41.348-17.901,55.571c-11.082,14.439-26.255,23.19-43.133,23.19
			c-16.708,0-32.051-8.751-42.962-23.19c-10.911-14.223-17.901-33.912-17.901-55.571
			C276.006,579.799,282.996,560.109,293.907,545.889z M378.127,548.513c-10.57-13.783-25.232-22.315-41.257-22.315
			c-16.026,0-30.518,8.532-41.087,22.315c-10.4,13.565-17.049,32.161-17.049,52.945c0,20.787,6.649,39.381,17.049,52.946
			c10.57,13.782,25.062,22.314,41.087,22.314c16.025,0,30.688-8.532,41.257-22.314c10.4-13.564,16.878-32.159,16.878-52.946
			C395.005,580.674,388.527,562.079,378.127,548.513z"/>
		<path style="fill:#272525;" d="M412.229,679.877h-2.558V524.661v-1.794h1.363h39.895c47.736,0,47.736,91.739,0,91.739h-19.266
			l54.897,65.271h-3.922l-54.896-65.271v-3.365h23.187c44.326,0,44.326-84.785,0-84.785h-38.7V679.877z"/>
		<path style="fill:#272525;" d="M502.078,523.091v156.786h-2.558V523.091H502.078z M505.998,599.577l59.33-76.486h3.41
			l-60.353,78.056l67.684,78.729h-3.922l-66.149-76.711V599.577z"/>
		<path style="fill:#272525;" d="M653.643,556.983c-1.022-6.366-3.068-11.853-6.478-16.683
			c-7.332-10.098-19.096-14.269-29.836-14.048c-11.251,0.219-24.038,5.488-31.199,17.561c-4.262,6.805-5.796,14.928-5.284,23.488
			c3.069,53.78,70.069,11.635,78.253,60.805c5.455,32.489-18.583,51.806-41.258,51.806c-17.39,0-38.53-12.73-40.576-37.537
			l-0.17-1.537l2.728-0.439l0.171,1.537c1.875,23.049,21.822,34.685,38.018,34.685c20.8,0,43.304-17.343,38.36-47.854
			c-7.672-45.66-75.014-3.952-78.083-61.245c-0.682-9.22,1.193-18.219,5.627-25.683c17.389-28.975,66.488-25.244,72.285,14.489
			l0.171,1.755l-2.558,0.659L653.643,556.983z"/>
	</g>
	<g>
		<path style="fill:#272525;" d="M134.442,761.695h71.518v-73.384h2.607v152.212h-2.607v-75.562h-71.518v75.562h-2.444V688.312
			h2.444V761.695z"/>
		<path style="fill:#272525;" d="M292.631,790.046h-57.67l-15.477,50.478h-2.769l45.778-152.506h2.77l45.778,152.506h-2.77
			L292.631,790.046z M236.101,786.825h55.553l-27.858-94.296L236.101,786.825z"/>
		<path style="fill:#272525;" d="M321.959,840.523h-2.444V689.835v-1.742h1.303h38.122c45.615,0,45.615,89.063,0,89.063h-18.409
			l52.458,63.367h-3.747l-52.458-63.367v-3.267h22.156c42.357,0,42.357-82.312,0-82.312h-36.981V840.523z"/>
		<path style="fill:#272525;" d="M443.656,688.312c74.777,0,74.777,152.212,0,152.212H405.21c0-50.736,0-101.476,0-152.212H443.656z
			 M443.656,837.257c71.519,0,71.519-145.679,0-145.679h-36.003c0,47.253,0,98.425,0,145.679H443.656z"/>
		<path style="fill:#272525;" d="M514.036,837.257h60.604v3.267h-62.884h-0.326V688.312h62.884v3.267h-60.277v70.988h58.974v3.484
			h-58.974V837.257z"/>
		<path style="fill:#272525;" d="M588.979,840.523h-2.443V689.835v-1.742h1.303h38.122c45.615,0,45.615,89.063,0,89.063h-18.41
			l52.459,63.367h-3.748l-52.457-63.367v-3.267h22.156c42.356,0,42.356-82.312,0-82.312h-36.981V840.523z"/>
	</g>
	<g>
		<path style="fill:#272525;" d="M161.051,1016.41V852.852h-29.052v-3.81h59.906v3.81h-29.053v163.559H161.051z"/>
		<path style="fill:#272525;" d="M200.91,929.512h52.703V849.28h1.921v166.415h-1.921v-82.612H200.91v82.612h-1.801V849.28h1.801
			V929.512z"/>
		<path style="fill:#272525;" d="M317.481,960.457h-42.498l-11.405,55.238h-2.041l33.734-166.891h2.041l33.734,166.891h-2.041
			L317.481,960.457z M275.824,956.932h40.938l-20.529-103.19L275.824,956.932z"/>
		<path style="fill:#272525;" d="M337.293,1015.695V848.805l1.681,0.237l55.824,159.986V849.042h1.801v166.653h-1.921
			L339.214,856.66v159.035H337.293z"/>
		<path style="fill:#272525;" d="M447.264,849.28l29.533,93.802l29.532-93.802h2.281l-30.854,97.609v68.806h-1.92V946.89
			l-30.854-97.609H447.264z"/>
		<path style="fill:#272525;" d="M519.296,873.576c7.684-15.275,18.488-24.534,30.253-24.534c11.885,0,22.57,9.259,30.373,24.534
			c7.684,15.047,12.605,35.878,12.605,58.792c0,22.915-4.922,43.746-12.605,58.791c-7.803,15.277-18.488,24.536-30.373,24.536
			c-11.765,0-22.569-9.259-30.253-24.536c-7.683-15.045-12.605-35.876-12.605-58.791
			C506.69,909.454,511.613,888.623,519.296,873.576z M578.602,876.356c-7.443-14.584-17.768-23.61-29.053-23.61
			c-11.284,0-21.489,9.026-28.933,23.61c-7.323,14.349-12.005,34.024-12.005,56.012c0,21.99,4.682,41.664,12.005,56.015
			c7.443,14.582,17.648,23.608,28.933,23.608c11.285,0,21.609-9.026,29.053-23.608c7.323-14.351,11.885-34.024,11.885-56.015
			C590.486,910.381,585.925,890.705,578.602,876.356z"/>
		<path style="fill:#272525;" d="M601.175,969.09V849.28h1.92v120.045c0,28.481,14.647,42.604,27.492,42.604
			c12.846,0,27.492-14.122,27.492-42.839V849.28H660v120.045c0,30.363-15.607,46.37-29.413,46.37
			C616.661,1015.695,601.175,999.688,601.175,969.09z"/>
	</g>
</g>
<g id="Guides">
</g>
</svg>
