<?xml version="1.0" encoding="iso-8859-1"?>
<!-- Generator: Adobe Illustrator 15.1.0, SVG Export Plug-In . SVG Version: 6.00 Build 0)  -->
<!DOCTYPE svg PUBLIC "-//W3C//DTD SVG 1.1//EN" "http://www.w3.org/Graphics/SVG/1.1/DTD/svg11.dtd">
<svg version="1.1" xmlns="http://www.w3.org/2000/svg" xmlns:xlink="http://www.w3.org/1999/xlink" x="0px" y="0px" width="792px"
	 height="1224px" viewBox="0 0 792 1224" style="enable-background:new 0 0 792 1224;" xml:space="preserve">
<g id="Layer_1">
	<g>
		<path style="fill:#272525;" d="M131.9,360.862v-7.095h9.887V214.994H131.9v-7.095h24.986c28.727,0,41.821,29.841,41.821,77.003
			c0,38.188-6.948,75.96-38.481,75.96H131.9z M193.764,284.902c0-44.867-11.758-69.908-36.877-69.908h-10.155v138.773h13.495
			C187.35,353.767,193.764,322.674,193.764,284.902z"/>
		<path style="fill:#272525;" d="M240.531,361.153c-18.973,0-31.533-29.799-31.533-73.181c0-48.45,14.698-80.073,33.537-80.073
			c19.642,0,31.667,34.056,31.667,80.073C274.203,332.975,259.906,361.153,240.531,361.153z M240.531,354.058
			c15.5,0,28.728-22.906,28.728-66.085c0-45.003-11.224-72.978-26.723-72.978c-15.098,0-28.593,26.15-28.593,72.978
			C213.942,330.34,225.701,354.058,240.531,354.058z"/>
		<path style="fill:#272525;" d="M359.45,214.994h-10.288v138.773h11.357v7.095h-16.301v-71.995
			c-6.28,44.449-29.395,72.204-48.235,72.204V214.994H284.76v-7.095h16.033v145.033c16.167-2.087,43.425-39.232,43.425-104.966
			v-32.972h-9.62v-7.095h24.852V214.994z"/>
		<path style="fill:#272525;" d="M422.518,207.128h4.811v42.484h-4.811v-11.993c0-6.911-5.745-22.969-17.771-22.969
			c-18.839,0-28.326,38.621-28.326,77.648c0,40.451,9.086,61.795,24.185,61.795c9.62,0,22.715-11.994,23.917-36.792V289.25h-15.767
			v-6.911h20.71v77.242h-4.943v-10.772c0.134-3.863,0.267-9.554,0.267-12.196c-3.874,16.262-14.964,24.392-23.917,24.392
			c-23.783,0-29.261-35.776-29.261-69.926c0-42.483,10.957-83.543,33.136-83.543c9.486,0,15.099,7.521,18.038,15.652
			C422.785,219.528,422.518,213.836,422.518,207.128z"/>
		<path style="fill:#272525;" d="M454.453,353.767V214.994h-10.021v-7.095h24.986v7.095h-10.021v138.773h39.417v-14.608h4.943
			v21.703h-59.459v-7.095H454.453z"/>
		<path style="fill:#272525;" d="M531.953,302.125l-11.224,51.803h10.021v6.935h-25.253v-6.935h10.289l29.93-139.094h-10.021v-6.935
			h17.904l31.533,146.028h10.154v6.935h-25.387v-6.935h10.154l-11.224-51.803H531.953z M533.423,295.191h33.804l-16.835-79.337
			L533.423,295.191z"/>
		<path style="fill:#272525;" d="M647.666,210.604h4.81v41.535h-4.81v-10.18c-2.271-18.731-10.154-27.282-19.107-27.282
			c-10.556,0-20.309,9.977-20.309,29.521c0,41.332,51.174,16.899,51.174,73.907c0,26.875-11.758,42.757-29.128,42.757
			c-9.754,0-18.038-6.515-22.982-18.732l0.134,6.108l0.135,11.809h-4.944v-47.032h4.944v14.048
			c2.672,17.713,11.891,26.875,22.714,26.875c14.697,0,24.05-12.826,24.05-35.834c0-50.696-51.04-25.653-51.04-73.907
			c0-24.025,12.693-36.443,25.253-36.443c8.017,0,15.232,6.311,19.24,17.509l-0.133-7.533V210.604z"/>
	</g>
	<g>
		<path style="fill:#272525;" d="M179.784,369.188v40.185h-4.239v-4.421c0-17.497-5.384-29.034-14.892-29.034
			c-12.601,0-24.63,25.188-24.515,74.411c0,30.572,5.728,57.875,20.964,57.875c9.165,0,15.58-10.191,20.162-24.997l3.437,3.27
			c-5.04,16.342-12.601,28.264-23.598,28.264c-9.05,0-25.202-8.653-25.202-64.221c0-62.104,16.381-81.14,28.753-81.14
			c7.561,0,13.174,6.152,15.121,16.343l-0.114-9.614v-6.922H179.784z"/>
		<path style="fill:#272525;" d="M216.901,514.298c-16.267,0-27.035-28.236-27.035-69.341c0-45.907,12.601-75.871,28.753-75.871
			c16.84,0,27.15,32.269,27.15,75.871C245.77,487.599,233.512,514.298,216.901,514.298z M216.901,507.575
			c13.289,0,24.629-21.706,24.629-62.619c0-42.642-9.623-69.149-22.911-69.149c-12.945,0-24.515,24.779-24.515,69.149
			C194.105,485.102,204.186,507.575,216.901,507.575z"/>
		<path style="fill:#272525;" d="M318.857,375.812h-8.821v131.562h9.737v6.727h-13.976v-68.254
			c-5.384,42.139-25.202,68.452-41.355,68.452V375.812h-9.622v-6.726h13.746v137.497c13.862-1.979,37.231-37.193,37.231-99.513
			v-31.258h-8.249v-6.726h21.308V375.812z"/>
		<path style="fill:#272525;" d="M331.459,375.812v-6.726h21.652c16.725,0,27.722,14.639,27.608,42.93
			c-0.23,36.007-20.506,41.745-36.2,42.14v53.219h8.821v6.727h-21.881v-6.727h8.821V375.812H331.459z M376.48,411.62
			c0.114-23.345-8.477-35.809-23.369-35.809h-8.592c0,0,0,57.373,0,71.617C358.495,447.429,376.366,442.482,376.48,411.62z"/>
		<path style="fill:#272525;" d="M396.873,507.374V375.812h-8.591v-6.726h21.422v6.726h-8.592v131.562h33.794v-13.849h4.238v20.576
			h-50.978v-6.727H396.873z"/>
		<path style="fill:#272525;" d="M463.317,458.294l-9.623,49.218h8.592v6.588h-21.651v-6.588h8.821l25.66-132.152h-8.592v-6.589
			h15.351l27.035,138.741h8.706v6.588h-21.766v-6.588h8.706l-9.623-49.218H463.317z M464.577,451.706h28.982l-14.435-75.377
			L464.577,451.706z"/>
		<path style="fill:#272525;" d="M579.364,515.881l-42.5-140.465l0.114,13.65v118.308h8.82v6.727h-21.766v-6.727h8.821V375.812
			h-8.821v-6.726h15.58l39.521,130.375l-0.114-15.629V375.812h-8.82v-6.726h21.536v6.726h-8.592v140.069H579.364z"/>
		<path style="fill:#272525;" d="M602.736,514.101v-6.727h8.478V375.812h-8.478v-6.726h21.422c24.63,0,35.856,28.29,35.856,73.002
			c0,36.204-5.957,72.013-32.992,72.013H602.736z M655.775,442.087c0-42.536-10.08-66.276-31.617-66.276h-8.706v131.562h11.57
			C650.277,507.374,655.775,477.896,655.775,442.087z"/>
	</g>
	<g>
		<path style="fill:#272525;" d="M164.602,529.802h-12.902v142.421c35.393-10.956,47.771-59.624,47.423-147.898h6.276v147.898
			c44.11-11.378,46.726-89.328,47.422-142.421h-12.727v-7.162h32.254v7.162h-13.077c-0.174,57.728-4.881,146.214-60.149,150.427
			l0.174-82.587c-3.661,44.453-21.968,79.848-53.874,82.798V529.802h-13.425v-7.162h32.604V529.802z"/>
		<path style="fill:#272525;" d="M321.52,680.214c-24.757,0-41.146-30.716-41.146-75.431c0-49.938,19.179-82.534,43.761-82.534
			c25.629,0,41.32,35.103,41.32,82.534C365.455,651.17,346.8,680.214,321.52,680.214z M321.52,672.9
			c20.225,0,37.485-23.611,37.485-68.118c0-46.386-14.646-75.221-34.87-75.221c-19.701,0-37.31,26.954-37.31,75.221
			C286.825,648.452,302.167,672.9,321.52,672.9z"/>
		<path style="fill:#272525;" d="M381.148,529.949v-7.309h19.701c24.756,0,35.393,0,45.33,12.039
			c6.45,8.17,9.764,18.704,9.764,30.314c0,19.134-8.891,34.827-23.537,37.837c3.662,0.86,6.625,3.011,9.239,6.234
			c8.195,10.104,9.415,25.8,13.948,63.852h11.16v7.31h-17.086c-2.965-27.734-4.359-56.541-13.078-67.505
			c-4.706-5.591-10.635-6.88-19.527-6.88c-2.266,0-16.213,0-16.213,0v67.075h12.728v7.31h-32.429v-7.31h13.425V529.949H381.148z
			 M400.85,598.745h21.096c18.307,0,27.547-12.899,27.547-33.538c0-9.674-2.439-18.488-7.847-25.153
			c-8.366-10.32-19.525-10.32-40.796-10.105V598.745z"/>
		<path style="fill:#272525;" d="M501.104,594.875c0,0,19.004-0.214,21.095,0.216l25.979-65.142H537.54v-7.309h28.768v7.309h-11.33
			l-26.329,66.646c6.975,2.15,11.858,7.739,15.17,15.479c5.056,8.6,7.672,19.777,18.306,60.841h11.509v7.31h-16.39
			c-11.157-44.718-13.773-55.896-18.307-63.637c-4.708-10.104-11.332-14.404-22.316-14.404h-15.517v70.731h10.983v7.31h-30.511
			v-7.31h13.076V529.949h-13.251v-7.309h30.686v7.309h-10.983V594.875z"/>
		<path style="fill:#272525;" d="M643.55,525.314h6.274v42.881h-6.274v-10.511c-2.967-19.338-13.253-28.166-24.934-28.166
			c-13.774,0-26.501,10.3-26.501,30.479c0,42.67,66.775,17.446,66.775,76.302c0,27.745-15.341,44.141-38.008,44.141
			c-12.727,0-23.539-6.727-29.989-19.338l0.176,6.307l0.174,12.19h-6.45v-48.556h6.45v14.505
			c3.486,18.285,15.518,27.745,29.64,27.745c19.177,0,31.381-13.241,31.381-36.994c0-52.339-66.599-26.485-66.599-76.302
			c0-24.803,16.562-37.625,32.951-37.625c10.459,0,19.876,6.516,25.105,18.077l-0.172-7.777V525.314z"/>
	</g>
	<g>
		<path style="fill:#272525;" d="M159.146,695.478h-10.419v57.067h50.334v-57.067h-10.419v-7.054h27.148v7.054h-11.3v138h11.3v7.056
			h-27.148v-7.056h10.419V759.6h-50.334v73.878h10.419v7.056h-27.148v-7.056h11.299v-138h-11.299v-7.054h27.148V695.478z"/>
		<path style="fill:#272525;" d="M253.067,782.103l-12.327,51.532h11.006v6.898h-27.735v-6.898h11.299l32.871-138.367h-11.006
			v-6.898h19.664l34.633,145.266h11.153v6.898h-27.882v-6.898h11.153l-12.327-51.532H253.067z M254.681,775.205h37.127
			l-18.49-78.924L254.681,775.205z"/>
		<path style="fill:#272525;" d="M330.847,695.478v-7.054h16.582c20.838,0,29.79,0,38.154,11.619
			c5.43,7.887,8.218,18.055,8.218,29.261c0,18.47-7.484,33.618-19.811,36.522c3.082,0.831,5.576,2.906,7.778,6.019
			c6.897,9.753,7.924,24.902,11.739,61.633h9.392v7.056h-14.381c-2.495-26.771-3.669-54.577-11.006-65.161
			c-3.962-5.396-8.951-6.64-16.436-6.64c-1.907,0-13.647,0-13.647,0v64.745h10.712v7.056h-27.294v-7.056h11.299v-138H330.847z
			 M347.429,761.884h17.756c15.409,0,23.187-12.452,23.187-32.373c0-9.338-2.055-17.847-6.604-24.278
			c-7.044-9.963-16.436-9.963-34.339-9.755V761.884z"/>
		<path style="fill:#272525;" d="M415.229,840.533v-7.056h10.859v-138h-10.859v-7.054h27.442c31.551,0,45.932,29.674,45.932,76.573
			c0,37.976-7.631,75.536-42.263,75.536H415.229z M483.173,764.997c0-44.617-12.913-69.52-40.502-69.52h-11.153v138h14.822
			C476.13,833.478,483.173,802.557,483.173,764.997z"/>
		<path style="fill:#272525;" d="M572.545,711.249h-5.43v-15.771h-48.573v57.067h46.226v7.055h-46.226v73.878h48.573v-15.564h5.43
			v22.62H501.96v-7.056h11.152v-138h-11.3v-7.054h70.732V711.249z"/>
		<path style="fill:#272525;" d="M587.369,695.478v-7.054h16.582c20.84,0,29.791,0,38.155,11.619
			c5.43,7.887,8.218,18.055,8.218,29.261c0,18.47-7.483,33.618-19.811,36.522c3.081,0.831,5.576,2.906,7.777,6.019
			c6.896,9.753,7.924,24.902,11.74,61.633h9.392v7.056h-14.381c-2.495-26.771-3.669-54.577-11.007-65.161
			c-3.962-5.396-8.951-6.64-16.436-6.64c-1.907,0-13.648,0-13.648,0v64.745h10.714v7.056h-27.296v-7.056h11.3v-138H587.369z
			 M603.951,761.884h17.757c15.409,0,23.187-12.452,23.187-32.373c0-9.338-2.054-17.847-6.604-24.278
			c-7.044-9.963-16.436-9.963-34.34-9.755V761.884z"/>
	</g>
	<g>
		<path style="fill:#272525;" d="M196.241,848.976v24.554h-4.311v-16.824h-25.748v150.964h8.855v7.729h-21.903v-7.729h8.738V856.705
			h-25.865v16.824h-4.311v-24.554H196.241z"/>
		<path style="fill:#272525;" d="M224.67,856.705h-8.272v62.522h39.962v-62.522h-8.272v-7.729h21.554v7.729h-8.972v151.19h8.972
			v7.73h-21.554v-7.73h8.272v-80.939h-39.962v80.939h8.272v7.73h-21.554v-7.73h8.971v-151.19h-8.971v-7.729h21.554V856.705z"/>
		<path style="fill:#272525;" d="M299.236,951.632l-9.787,56.438h8.738v7.556h-22.02v-7.556h8.971l26.097-151.54h-8.738v-7.555
			h15.612l27.496,159.095h8.854v7.556h-22.136v-7.556h8.854l-9.785-56.438H299.236z M300.518,944.077h29.477l-14.68-86.437
			L300.518,944.077z"/>
		<path style="fill:#272525;" d="M417.259,1017.672L374.036,856.25l0.116,15.688v135.958h8.972v7.73h-22.137v-7.73h8.972v-151.19
			h-8.972v-7.729h15.846l40.194,149.826l-0.116-17.96V856.705h-8.971v-7.729h21.902v7.729h-8.737v160.967H417.259z"/>
		<path style="fill:#272525;" d="M488.333,951.738c-11.419-21.826-20.039-58.428-20.273-95.033h-8.505v-7.729h21.204v7.729h-8.505
			c0.234,32.284,7.457,67.751,18.292,88.669c10.719-20.235,18.059-55.25,18.176-88.669h-8.272v-7.729h21.203v7.729h-8.62
			c-0.117,36.605-8.855,73.207-20.388,95.033v56.157h8.854v7.73h-21.904v-7.73h8.739V951.738z"/>
		<path style="fill:#272525;" d="M554.744,1015.457c-16.545,0-27.496-32.373-27.496-79.497c0-52.632,12.815-86.984,29.243-86.984
			c17.126,0,27.611,36.996,27.611,86.984C584.103,984.847,571.636,1015.457,554.744,1015.457z M554.744,1007.749
			c13.514,0,25.048-24.884,25.048-71.789c0-48.887-9.787-79.276-23.301-79.276c-13.165,0-24.933,28.406-24.933,79.276
			C531.559,981.984,541.811,1007.749,554.744,1007.749z"/>
		<path style="fill:#272525;" d="M658.436,856.705h-8.972v151.19h9.903v7.73h-14.213v-78.438
			c-5.478,48.428-25.633,78.665-42.06,78.665V856.705h-9.787v-7.729h13.981v158.011c14.097-2.273,37.865-42.742,37.865-114.36
			v-35.921h-8.391v-7.729h21.672V856.705z"/>
	</g>
</g>
<g id="Guides">
</g>
</svg>
