<?xml version="1.0" encoding="iso-8859-1"?>
<!-- Generator: Adobe Illustrator 15.1.0, SVG Export Plug-In . SVG Version: 6.00 Build 0)  -->
<!DOCTYPE svg PUBLIC "-//W3C//DTD SVG 1.1//EN" "http://www.w3.org/Graphics/SVG/1.1/DTD/svg11.dtd">
<svg version="1.1" xmlns="http://www.w3.org/2000/svg" xmlns:xlink="http://www.w3.org/1999/xlink" x="0px" y="0px" width="792px"
	 height="1224px" viewBox="0 0 792 1224" style="enable-background:new 0 0 792 1224;" xml:space="preserve">
<g id="Layer_1">
	<g>
		<path style="fill:#272525;" d="M194.52,224.842v119.661c0,9.172-12.101,16.052-31.06,16.052h-31.461V208.791h31.461
			C182.418,208.791,194.52,215.67,194.52,224.842z M163.46,352.424c9.682,0,15.328-3.544,15.328-7.921V224.842
			c0-4.377-5.646-7.921-15.328-7.921h-15.73v135.503H163.46z"/>
		<path style="fill:#272525;" d="M277.207,223.656v120.889c0,8.826-13.311,16.01-31.06,16.01c-17.748,0-31.461-7.184-31.461-16.01
			V223.656c0-8.62,13.311-15.804,31.461-15.804C263.089,207.852,277.207,214.42,277.207,223.656z M261.475,223.656
			c0-4.311-6.454-7.799-15.73-7.799c-8.874,0-15.328,3.489-15.328,7.799v120.889c0,4.516,6.857,8.005,15.73,8.005
			c8.471,0,15.328-3.489,15.328-8.005V223.656z"/>
		<path style="fill:#272525;" d="M359.895,208.791v135.712c0,8.547-13.715,16.052-31.06,16.052c-17.344,0-31.461-6.88-31.461-16.052
			V208.791h15.731v135.712c0,4.377,6.857,8.129,15.73,8.129c8.471,0,15.328-3.752,15.328-8.129V208.791H359.895z"/>
		<path style="fill:#272525;" d="M426.447,231.93v-8.13c0-4.378-6.857-7.921-15.328-7.921s-15.327,3.543-15.327,7.921v120.703
			c0,4.794,6.856,7.921,15.327,7.921s15.328-3.544,15.328-7.921v-72.339h-15.328v-8.13h31.06v80.469
			c0,8.338-13.715,16.052-31.06,16.052c-16.941,0-31.058-6.463-31.058-16.052V223.8c0-8.338,12.504-16.052,31.058-16.052
			c16.539,0,31.06,6.879,31.06,16.052v8.13H426.447z"/>
		<path style="fill:#272525;" d="M579.323,352.632v7.922H462.348V207.748h15.731v144.884H579.323z M579.323,223.592v116.95h-15.328
			v-64.625h-31.463v64.625h-15.327v-116.95c0-8.964,13.715-15.844,31.06-15.844C564.802,207.748,579.323,214.627,579.323,223.592z
			 M563.995,267.995v-44.403c0-4.378-7.26-7.921-15.73-7.921s-15.732,3.543-15.732,7.921v44.403H563.995z"/>
		<path style="fill:#272525;" d="M644.268,224.216V223.8c0-4.378-6.856-7.921-15.73-7.921c-8.471,0-15.327,3.543-15.327,7.921
			v32.312c0,4.378,6.453,7.922,15.327,7.922c17.345,0,31.463,6.462,31.463,16.052v64.417c0,8.964-14.118,16.052-31.463,16.052
			c-16.537,0-31.059-6.671-31.059-16.052v-0.417h15.731v0.417c0,4.377,6.856,8.129,15.327,8.129c8.874,0,15.73-3.752,15.73-8.129
			v-64.417c0-4.378-6.856-7.713-15.327-8.13c-18.554-0.834-31.462-5.629-31.462-16.261V223.8c0-8.547,13.714-16.052,31.059-16.052
			c16.538,0,31.463,6.462,31.463,16.052v0.417H644.268z"/>
	</g>
	<g>
		<path style="fill:#272525;" d="M173.049,391.508v-7.765c0-4.182-6.37-7.566-13.801-7.566s-13.801,3.384-13.801,7.566v115.281
			c0,4.181,6.37,7.566,13.801,7.566s13.801-3.385,13.801-7.566v-7.766h13.449v7.766c0,8.163-11.679,15.331-27.25,15.331
			c-14.864,0-26.896-6.769-27.249-15.331V383.743c0-8.164,12.032-15.331,27.249-15.331c14.863,0,26.896,6.77,27.25,15.331v7.765
			H173.049z"/>
		<path style="fill:#272525;" d="M255.507,383.94v115.176c0,8.409-11.678,15.252-27.25,15.252c-15.571,0-27.603-6.844-27.603-15.252
			V383.94c0-8.213,11.678-15.057,27.603-15.057C243.12,368.883,255.507,375.141,255.507,383.94z M241.704,383.94
			c0-4.107-5.662-7.431-13.801-7.431c-7.786,0-13.448,3.324-13.448,7.431v115.176c0,4.302,6.016,7.627,13.801,7.627
			c7.432,0,13.448-3.325,13.448-7.627V383.94z"/>
		<path style="fill:#272525;" d="M328.052,369.407v129.617c0,8.163-12.033,15.331-27.25,15.331s-27.603-6.57-27.603-15.331V369.407
			h13.801v129.617c0,4.181,6.016,7.765,13.801,7.765c7.432,0,13.448-3.584,13.448-7.765V369.407H328.052z"/>
		<path style="fill:#272525;" d="M398.12,384.54v29.865c0,8.562-12.385,15.729-27.249,15.729h-13.448v84.22h-13.448V369.407h26.896
			C385.735,369.407,398.12,376.376,398.12,384.54z M384.672,384.54c0-3.982-6.016-7.367-13.801-7.367h-13.448v44.997h13.448
			c7.786,0,13.801-3.385,13.801-7.765V384.54z"/>
		<path style="fill:#272525;" d="M514.902,506.789v7.566H412.275V368.412h13.801v138.376H514.902z M514.902,383.544V495.24h-13.447
			v-61.722h-27.604v61.722h-13.448V383.544c0-8.562,12.033-15.132,27.25-15.132C502.162,368.412,514.902,374.982,514.902,383.544z
			 M501.455,425.953v-42.409c0-4.181-6.369-7.565-13.802-7.565c-7.432,0-13.802,3.384-13.802,7.565v42.409H501.455z"/>
		<path style="fill:#272525;" d="M587.454,383.743v130.611h-13.803V383.743c0-4.182-6.016-7.566-13.447-7.566
			c-8.139,0-13.802,3.384-13.802,7.566v130.611h-13.801V368.412h13.801v3.783c3.186-2.19,9.909-3.783,15.218-3.783
			C577.899,368.412,587.454,375.38,587.454,383.743z"/>
		<path style="fill:#272525;" d="M660,384.738v114.286c0,8.76-10.617,15.331-27.25,15.331h-27.603V369.407h27.603
			C649.383,369.407,660,375.979,660,384.738z M632.75,506.59c8.494,0,13.447-3.385,13.447-7.566V384.738
			c0-4.181-4.953-7.565-13.447-7.565h-13.802V506.59H632.75z"/>
	</g>
	<g>
		<path style="fill:#272525;" d="M263.026,522.723v140.42c0,8.846-16.074,16.609-37.505,16.609c-9.742,0-18.998-1.726-28.251-5.607
			c-6.82,3.45-16.562,5.607-27.765,5.607c-20.458,0-36.532-7.118-37.505-16.609v-140.42h18.509v140.42
			c0,4.53,8.28,8.412,18.996,8.412c10.229,0,18.51-3.882,18.51-8.412v-140.42h18.998v140.42c0,4.53,8.28,8.412,18.509,8.412
			c10.716,0,18.996-3.882,18.996-8.412v-140.42H263.026z"/>
		<path style="fill:#272525;" d="M362.88,538.668v124.974c0,9.125-16.074,16.551-37.507,16.551
			c-21.432,0-37.992-7.426-37.992-16.551V538.668c0-8.912,16.074-16.337,37.992-16.337
			C345.831,522.331,362.88,529.121,362.88,538.668z M343.882,538.668c0-4.456-7.793-8.063-18.996-8.063
			c-10.716,0-18.509,3.607-18.509,8.063v124.974c0,4.667,8.28,8.274,18.996,8.274c10.229,0,18.509-3.607,18.509-8.274V538.668z"/>
		<path style="fill:#272525;" d="M462.731,596.708v83.045h-18.997v-83.045c0-4.746-8.281-8.412-18.51-8.412h-18.996v91.457h-18.996
			v-157.03h37.992c22.407,0,37.507,7.118,37.507,16.609v32.355c0,4.745-3.897,8.844-12.664,12.511
			C458.348,587.002,462.245,591.748,462.731,596.708z M425.225,579.883c10.229,0,18.51-3.667,18.51-8.196v-32.355
			c0-4.53-8.281-8.197-18.51-8.197h-18.996v48.748H425.225z"/>
		<path style="fill:#272525;" d="M562.584,596.493v83.26h-18.998v-82.829c0-4.529-8.28-8.628-18.996-8.628h-18.51v91.457h-18.996
			v-157.03h18.996v57.16h18.51c10.716,0,18.996-3.882,18.996-8.412v-48.748h18.998v48.964c0,4.099-2.923,8.413-12.665,12.294
			C560.635,587.865,562.584,592.395,562.584,596.493z"/>
		<path style="fill:#272525;" d="M641.002,538.685v-0.431c0-4.53-8.28-8.197-18.996-8.197c-10.229,0-18.509,3.667-18.509,8.197
			v33.434c0,4.53,7.793,8.196,18.509,8.196c20.945,0,37.994,6.688,37.994,16.609v66.651c0,9.276-17.049,16.609-37.994,16.609
			c-19.97,0-37.505-6.902-37.505-16.609v-0.431h18.996v0.431c0,4.53,8.28,8.412,18.509,8.412c10.716,0,18.996-3.882,18.996-8.412
			v-66.651c0-4.53-8.28-7.981-18.509-8.412c-22.405-0.864-37.992-5.824-37.992-16.825v-33.002c0-8.844,16.561-16.609,37.505-16.609
			c19.972,0,37.994,6.686,37.994,16.609v0.431H641.002z"/>
	</g>
	<g>
		<path style="fill:#272525;" d="M201.617,688.888V840.52h-17.632v-88.314h-34.808v88.314h-17.178V688.888h17.178v55.195h34.808
			v-55.195H201.617z"/>
		<path style="fill:#272525;" d="M294.291,703.883V840.52h-17.632v-88.105h-34.808v88.105h-17.63V703.883
			c0-8.539,15.37-16.037,34.808-16.037C278.016,687.846,294.291,694.302,294.291,703.883z M276.659,744.292v-40.409
			c0-4.373-7.685-7.914-17.63-7.914c-9.494,0-17.178,3.541-17.178,7.914v40.409H276.659z"/>
		<path style="fill:#272525;" d="M386.961,760.329v80.19H369.33v-80.19c0-4.582-7.685-8.124-17.178-8.124h-17.63v88.314h-17.63
			V688.888h35.26c20.796,0,34.81,6.873,34.81,16.037v31.244c0,4.582-3.617,8.539-11.754,12.08
			C382.892,750.957,386.51,755.539,386.961,760.329z M352.151,744.083c9.494,0,17.178-3.541,17.178-7.914v-31.244
			c0-4.374-7.685-7.915-17.178-7.915h-17.63v47.073H352.151z"/>
		<path style="fill:#272525;" d="M479.632,704.925V824.48c0,9.165-13.562,16.039-34.81,16.039h-35.26V688.888h35.26
			C466.069,688.888,479.632,695.761,479.632,704.925z M444.822,832.396c10.851,0,17.179-3.541,17.179-7.916V704.925
			c0-4.374-6.328-7.915-17.179-7.915h-17.63v135.387H444.822z"/>
		<path style="fill:#272525;" d="M570.946,744.083v8.122h-52.439v80.191h52.439v8.123h-69.618V688.888h69.618v8.122h-52.439v47.073
			H570.946z"/>
		<path style="fill:#272525;" d="M660,760.329v80.19h-17.632v-80.19c0-4.582-7.685-8.124-17.178-8.124h-17.63v88.314h-17.63V688.888
			h35.26c20.795,0,34.81,6.873,34.81,16.037v31.244c0,4.582-3.617,8.539-11.754,12.08C655.931,750.957,659.548,755.539,660,760.329z
			 M625.19,744.083c9.493,0,17.178-3.541,17.178-7.914v-31.244c0-4.374-7.685-7.915-17.178-7.915h-17.63v47.073H625.19z"/>
	</g>
	<g>
		<path style="fill:#272525;" d="M186.425,857.874H166.28v157.344h-13.783V857.874h-20.499v-8.906h54.426V857.874z"/>
		<path style="fill:#272525;" d="M253.223,848.968v166.25h-13.784V918.39h-27.212v96.828h-13.43v-166.25h13.43v60.516h27.212
			v-60.516H253.223z"/>
		<path style="fill:#272525;" d="M325.674,866.433v148.785H311.89v-95.94h-27.213v95.94h-13.783V866.433
			c0-9.3,12.016-17.465,27.212-17.465C312.951,848.968,325.674,855.998,325.674,866.433z M311.89,910.433v-44
			c0-4.765-6.008-8.619-13.783-8.619c-7.422,0-13.43,3.854-13.43,8.619v44H311.89z"/>
		<path style="fill:#272525;" d="M398.123,866.361v148.856h-13.784V866.361c0-4.767-6.008-8.623-13.43-8.623
			c-8.128,0-13.783,3.856-13.783,8.623v148.856h-13.783V848.889h13.783v4.311c3.181-2.496,9.895-4.311,15.197-4.311
			C388.581,848.889,398.123,856.831,398.123,866.361z"/>
		<path style="fill:#272525;" d="M501.318,1015.218v-60.061h-13.784c-14.844,0-26.859-7.764-27.566-17.812v-88.378h13.783v88.378
			c0,4.794,6.361,8.906,13.783,8.906h13.784v-97.284h13.782v166.25H501.318z"/>
		<path style="fill:#272525;" d="M587.551,866.124v131.658c0,9.612-11.662,17.436-27.214,17.436
			c-15.55,0-27.565-7.823-27.565-17.436V866.124c0-9.387,11.662-17.211,27.565-17.211
			C575.181,848.913,587.551,856.065,587.551,866.124z M573.767,866.124c0-4.694-5.654-8.493-13.782-8.493
			c-7.775,0-13.43,3.799-13.43,8.493v131.658c0,4.917,6.008,8.717,13.782,8.717c7.422,0,13.43-3.8,13.43-8.717V866.124z"/>
		<path style="fill:#272525;" d="M660,848.968v148.665c0,9.364-12.017,17.585-27.214,17.585s-27.565-7.537-27.565-17.585V848.968
			h13.782v148.665c0,4.796,6.008,8.906,13.783,8.906c7.422,0,13.43-4.11,13.43-8.906V848.968H660z"/>
	</g>
</g>
<g id="Guides">
</g>
</svg>
