<?xml version="1.0" encoding="iso-8859-1"?>
<!-- Generator: Adobe Illustrator 15.1.0, SVG Export Plug-In . SVG Version: 6.00 Build 0)  -->
<!DOCTYPE svg PUBLIC "-//W3C//DTD SVG 1.1//EN" "http://www.w3.org/Graphics/SVG/1.1/DTD/svg11.dtd">
<svg version="1.1" xmlns="http://www.w3.org/2000/svg" xmlns:xlink="http://www.w3.org/1999/xlink" x="0px" y="0px" width="792px"
	 height="1224px" viewBox="0 0 792 1224" style="enable-background:new 0 0 792 1224;" xml:space="preserve">
<g id="Layer_1">
	<g>
		<path style="fill:#272525;" d="M131.999,360.868V207.853h26.752c10.792,0,19.33,3.126,25.616,9.378
			c6.285,6.252,11.283,15.449,14.995,27.586c3.71,12.14,5.566,25.376,5.566,39.707c0,10.239-1.022,20.037-3.067,29.396
			c-2.044,9.361-4.961,17.588-8.747,24.68c-3.862,7.313-8.35,12.834-13.461,16.563c-2.992,2.268-5.737,3.784-8.236,4.552
			c-2.499,0.768-7.27,1.152-14.313,1.152H131.999z M157.558,227.377h-14.199v113.966h14.54c5.68,0,10.091-0.749,13.234-2.249
			c3.142-1.498,5.765-3.4,7.866-5.704c2.102-2.303,4.023-5.136,5.765-8.501c5.604-10.969,8.406-24.825,8.406-41.572
			c0-16.453-2.878-29.871-8.633-40.256c-2.121-3.875-4.554-7.055-7.299-9.542c-2.746-2.485-5.349-4.13-7.81-4.936
			C166.967,227.78,163.01,227.377,157.558,227.377z"/>
		<path style="fill:#272525;" d="M258.091,207.863c12.269,0,22.482,7.305,30.643,21.91c8.16,14.607,12.24,32.918,12.24,54.935
			c0,22.018-4.118,40.24-12.354,54.668c-8.236,14.428-18.621,21.643-31.154,21.643c-11.966,0-21.934-7.214-29.905-21.643
			c-7.971-14.429-11.956-32.507-11.956-54.241c0-22.3,4.013-40.755,12.042-55.362C235.674,215.168,245.822,207.863,258.091,207.863z
			 M258.545,228.17c-9.088,0-16.557,5.344-22.407,16.031c-5.85,10.688-8.775,24.333-8.775,40.934
			c0,16.104,2.934,29.499,8.804,40.187c5.869,10.687,13.214,16.031,22.038,16.031c8.86,0,16.253-5.451,22.18-16.352
			c5.925-10.902,8.889-24.476,8.889-40.72c0-15.818-2.964-29.125-8.889-39.919C274.458,233.567,267.179,228.17,258.545,228.17z"/>
		<path style="fill:#272525;" d="M370.097,207.853h11.417v86.387c0,11.694-0.445,20.518-1.336,26.472
			c-0.889,5.956-1.987,10.912-3.294,14.869c-1.306,3.96-2.905,7.5-4.798,10.622c-6.286,10.386-14.504,15.578-24.65,15.578
			c-10.337,0-18.63-5.156-24.878-15.469c-1.894-3.195-3.493-6.771-4.799-10.73c-1.307-3.957-2.386-8.804-3.238-14.543
			c-0.852-5.735-1.278-14.742-1.278-27.016v-86.169h11.417v86.387c0,14.309,0.852,24.257,2.556,29.849
			c1.705,5.593,4.297,10.076,7.781,13.454c3.483,3.376,7.591,5.065,12.326,5.065c6.739,0,12.231-3.376,16.472-10.13
			c2.234-3.631,3.843-7.915,4.827-12.854c0.984-4.938,1.477-13.399,1.477-25.382V207.853z"/>
		<path style="fill:#272525;" d="M440.129,285.646h26.639v64.021c-9.77,8.076-19.463,12.112-29.081,12.112
			c-13.14,0-23.638-7.299-31.495-21.899c-7.856-14.599-11.785-32.604-11.785-54.017c0-22.565,4.07-41.347,12.211-56.343
			c8.142-14.995,18.346-22.494,30.614-22.494c4.468,0,8.709,0.919,12.723,2.757s9.088,5.209,15.223,10.112v22.061
			c-9.467-10.453-18.857-15.681-28.173-15.681c-8.671,0-15.979,5.624-21.924,16.87s-8.917,25.054-8.917,41.419
			c0,17.159,2.973,31.183,8.917,42.067c5.944,10.888,13.594,16.33,22.946,16.33c4.544,0,9.978-1.981,16.302-5.948l1.079-0.649
			v-31.469h-15.279V285.646z"/>
		<path style="fill:#272525;" d="M483.353,207.853h11.36v133.271h35.726v19.963h-47.086V207.853z"/>
		<path style="fill:#272525;" d="M565.713,206.975h7.984l35.577,154.112h-11.627l-10.575-45.411H553.22l-9.914,45.411h-11.675
			L565.713,206.975z M582.403,296.151l-12.802-55.502l-11.872,55.502H582.403z"/>
		<path style="fill:#272525;" d="M637.617,296.661l-8.634-9.884c-5.415-6.231-9.268-12.359-11.558-18.39
			c-2.292-6.029-3.437-12.967-3.437-20.818c0-11.773,2.167-21.332,6.504-28.683c4.335-7.348,9.968-11.024,16.896-11.024
			c6.626,0,12.703,3.505,18.232,10.516v24.295c-5.718-10.364-11.871-15.545-18.459-15.545c-3.712,0-6.76,1.616-9.145,4.851
			c-2.386,3.234-3.579,7.374-3.579,12.419c0,4.478,0.879,8.673,2.636,12.58c1.758,3.91,4.583,8.014,8.478,12.313l8.676,9.675
			c9.679,10.893,14.518,24.758,14.518,41.596c0,11.987-2.13,21.727-6.391,29.218c-4.259,7.492-9.797,11.238-16.612,11.238
			c-7.839,0-14.977-4.539-21.413-13.619v-27.186c6.134,14.646,13.233,21.968,21.299,21.968c3.559,0,6.522-1.866,8.889-5.599
			c2.367-3.732,3.551-8.407,3.551-14.024C648.068,313.459,644.584,304.826,637.617,296.661z"/>
	</g>
	<g>
		<path style="fill:#272525;" d="M191.922,480.386v22.648c-7.1,8.236-15.295,12.354-24.588,12.354
			c-7.551,0-13.957-3.225-19.215-9.677c-5.26-6.45-9.423-15.339-12.488-26.663c-3.066-11.324-4.598-23.574-4.598-36.75
			c0-20.931,3.509-38.534,10.527-52.81c7.018-14.273,15.674-21.413,25.968-21.413c7.098,0,14.988,3.948,23.668,11.839v22.133
			c-7.906-9.607-15.634-14.412-23.185-14.412c-7.744,0-14.174,5.199-19.288,15.596c-5.115,10.397-7.672,23.42-7.672,39.067
			c0,15.785,2.517,28.756,7.551,38.913c5.034,10.157,11.471,15.235,19.312,15.235C176.111,496.445,184.113,491.092,191.922,480.386z
			"/>
		<path style="fill:#272525;" d="M237.033,369.647c10.455,0,19.159,6.915,26.113,20.742c6.953,13.829,10.431,31.164,10.431,52.008
			c0,20.843-3.509,38.095-10.527,51.754c-7.019,13.659-15.869,20.489-26.548,20.489c-10.197,0-18.692-6.83-25.484-20.489
			c-6.793-13.66-10.188-30.775-10.188-51.35c0-21.112,3.42-38.584,10.261-52.413C217.93,376.562,226.578,369.647,237.033,369.647z
			 M237.42,388.872c-7.744,0-14.109,5.058-19.095,15.178c-4.985,10.118-7.478,23.036-7.478,38.752c0,15.245,2.5,27.926,7.502,38.044
			c5.001,10.118,11.261,15.177,18.78,15.177c7.551,0,13.851-5.16,18.901-15.48c5.05-10.321,7.575-23.171,7.575-38.55
			c0-14.975-2.525-27.572-7.575-37.792C250.98,393.981,244.777,388.872,237.42,388.872z"/>
		<path style="fill:#272525;" d="M332.481,369.025h9.729v81.723c0,11.062-0.379,19.41-1.138,25.042
			c-0.758,5.634-1.693,10.323-2.807,14.067c-1.113,3.746-2.476,7.095-4.089,10.048c-5.357,9.826-12.36,14.737-21.007,14.737
			c-8.809,0-15.876-4.877-21.2-14.634c-1.614-3.021-2.977-6.404-4.09-10.15c-1.113-3.744-2.033-8.33-2.759-13.758
			c-0.726-5.426-1.089-13.946-1.089-25.557v-81.517h9.729v81.723c0,13.536,0.726,22.947,2.178,28.237
			c1.452,5.291,3.662,9.532,6.631,12.728c2.969,3.194,6.469,4.792,10.504,4.792c5.742,0,10.422-3.195,14.037-9.584
			c1.904-3.435,3.274-7.488,4.113-12.161c0.839-4.671,1.259-12.676,1.259-24.012V369.025z"/>
		<path style="fill:#272525;" d="M355.084,514.85V368.816h21.442c6.454,0,11.6,3.758,15.44,11.273
			c3.84,7.516,5.76,17.607,5.76,30.271c0,8.492-0.985,16.007-2.953,22.547c-1.968,6.542-4.664,11.292-8.083,14.249
			c-3.42,2.958-8.325,4.437-14.714,4.437h-7.163v63.256H355.084z M374.833,387.396h-10.019v45.616h10.6c3.937,0,6.97-2,9.1-6.002
			c2.13-4.001,3.194-9.724,3.194-17.171C387.707,394.878,383.416,387.396,374.833,387.396z"/>
		<path style="fill:#272525;" d="M406.148,369.025h9.681v126.827h30.444v18.998h-40.125V369.025z"/>
		<path style="fill:#272525;" d="M476.334,368.189h6.803l30.318,146.66h-9.908l-9.012-43.214h-28.848l-8.449,43.214h-9.948
			L476.334,368.189z M490.556,453.054l-10.909-52.818l-10.117,52.818H490.556z"/>
		<path style="fill:#272525;" d="M574.587,369.025h9.196V514.85h-8.325l-45.207-112.308V514.85h-9.1V369.025h7.841l45.595,113.262
			V369.025z"/>
		<path style="fill:#272525;" d="M598.352,514.641V369.025h22.798c9.196,0,16.473,2.975,21.829,8.925
			c5.355,5.95,9.615,14.702,12.778,26.252c3.162,11.553,4.743,24.149,4.743,37.788c0,9.744-0.871,19.068-2.613,27.975
			c-1.743,8.909-4.229,16.738-7.454,23.486c-3.292,6.96-7.115,12.213-11.472,15.762c-2.549,2.158-4.889,3.601-7.018,4.332
			c-2.13,0.73-6.196,1.096-12.197,1.096H598.352z M620.133,387.605h-12.101v108.456h12.391c4.841,0,8.6-0.712,11.278-2.14
			c2.678-1.425,4.913-3.236,6.703-5.428c1.791-2.192,3.429-4.888,4.913-8.09c4.775-10.438,7.163-23.625,7.163-39.562
			c0-15.658-2.452-28.427-7.356-38.309c-1.808-3.688-3.881-6.715-6.22-9.082c-2.34-2.365-4.558-3.93-6.655-4.697
			C628.15,387.989,624.779,387.605,620.133,387.605z"/>
	</g>
	<g>
		<path style="fill:#272525;" d="M273.75,523.074h14.623l-41.407,157.148h-3.221l-33.486-127.242l-33.833,127.242h-3.148
			l-41.279-157.148h14.773l28.224,107.864l28.413-107.864h13.861l28.545,107.864L273.75,523.074z"/>
		<path style="fill:#272525;" d="M344.016,523.074c15.835,0,29.019,7.464,39.552,22.385c10.531,14.924,15.799,33.631,15.799,56.126
			c0,22.494-5.316,41.113-15.946,55.852c-10.63,14.743-24.035,22.113-40.211,22.113c-15.445,0-28.311-7.37-38.599-22.113
			c-10.289-14.739-15.432-33.211-15.432-55.415c0-22.784,5.18-41.639,15.542-56.563
			C315.082,530.538,328.181,523.074,344.016,523.074z M344.603,543.822c-11.73,0-21.37,5.459-28.921,16.379
			c-7.551,10.92-11.327,24.86-11.327,41.822c0,16.451,3.787,30.138,11.363,41.057c7.575,10.92,17.056,16.379,28.445,16.379
			c11.437,0,20.979-5.567,28.628-16.706c7.648-11.138,11.473-25.006,11.473-41.604c0-16.161-3.825-29.755-11.473-40.784
			C365.141,549.336,355.746,543.822,344.603,543.822z"/>
		<path style="fill:#272525;" d="M417.768,679.551V523.074h25.658c10.362,0,18.585,3.921,24.67,11.761
			c6.084,7.841,9.127,18.445,9.127,31.811c0,9.111-1.491,16.988-4.472,23.634c-2.981,6.647-7.258,11.611-12.829,14.897
			c3.273,3.287,6.476,7.767,9.604,13.44c3.127,5.676,7.525,15.569,13.196,29.684c3.566,8.888,6.426,15.569,8.577,20.049
			l5.425,11.201h-17.448l-4.466-10.312c-0.146-0.371-0.439-1.007-0.879-1.905l-2.855-6.163l-4.54-11.431l-4.905-12.215
			c-3.026-6.425-5.799-11.539-8.319-15.341c-2.52-3.802-4.797-6.541-6.826-8.219c-2.031-1.677-5.443-2.516-10.237-2.516h-3.817
			v68.101H417.768z M436.828,542.116h-4.398v49.396h5.571c7.429,0,12.523-0.97,15.286-2.913c2.761-1.941,4.911-4.872,6.451-8.793
			c1.539-3.918,2.31-8.381,2.31-13.384c0-4.929-0.855-9.389-2.566-13.385c-1.712-3.994-4.118-6.813-7.221-8.457
			C449.156,542.939,444.013,542.116,436.828,542.116z"/>
		<path style="fill:#272525;" d="M565.936,523.074h18.322l-44.423,74.262l55.347,82.214h-20.014l-52.345-77.286v77.286H508.16
			V523.074h14.663v71.574L565.936,523.074z"/>
		<path style="fill:#272525;" d="M631.838,613.97l-11.144-10.082c-6.99-6.357-11.963-12.61-14.919-18.76
			c-2.958-6.151-4.436-13.229-4.436-21.237c0-12.011,2.798-21.764,8.395-29.262c5.596-7.496,12.865-11.246,21.81-11.246
			c8.552,0,16.396,3.575,23.533,10.728v24.785c-7.38-10.573-15.322-15.859-23.826-15.859c-4.791,0-8.724,1.649-11.804,4.949
			c-3.078,3.3-4.618,7.522-4.618,12.669c0,4.568,1.134,8.848,3.401,12.834c2.27,3.989,5.916,8.176,10.942,12.561l11.198,9.871
			c12.492,11.112,18.738,25.256,18.738,42.435c0,12.229-2.749,22.164-8.248,29.807c-5.497,7.643-12.646,11.465-21.443,11.465
			c-10.117,0-19.33-4.629-27.639-13.895V638c7.918,14.942,17.082,22.409,27.492,22.409c4.594,0,8.418-1.903,11.473-5.71
			c3.055-3.809,4.583-8.577,4.583-14.309C645.327,631.106,640.829,622.302,631.838,613.97z"/>
	</g>
	<g>
		<path style="fill:#272525;" d="M199.163,688.755H212.8v152.051h-13.638v-66.175h-53.527v66.175h-13.637V688.755h13.637v65.74
			h53.527V688.755z"/>
		<path style="fill:#272525;" d="M264.216,687.885h9.584l42.712,152.921h-13.958l-12.696-45.06h-40.641l-11.902,45.06h-14.015
			L264.216,687.885z M284.253,776.373l-15.369-55.074l-14.252,55.074H284.253z"/>
		<path style="fill:#272525;" d="M327.354,840.806V688.755h23.865c9.637,0,17.286,3.81,22.946,11.429
			c5.658,7.618,8.488,17.923,8.488,30.911c0,8.854-1.388,16.507-4.159,22.965c-2.773,6.46-6.751,11.283-11.933,14.476
			c3.045,3.194,6.023,7.548,8.933,13.062c2.907,5.515,6.999,15.129,12.273,28.843c3.317,8.636,5.977,15.128,7.977,19.482
			l5.045,10.884h-16.228l-4.153-10.02c-0.137-0.36-0.409-0.979-0.818-1.852l-2.655-5.989l-4.224-11.107l-4.561-11.869
			c-2.815-6.242-5.395-11.212-7.738-14.906c-2.344-3.693-4.461-6.356-6.349-7.986c-1.889-1.63-5.063-2.445-9.523-2.445h-3.55v66.175
			H327.354z M345.083,707.259h-4.091v47.998h5.183c6.909,0,11.648-0.941,14.217-2.83c2.567-1.886,4.568-4.733,6-8.544
			c1.432-3.809,2.148-8.145,2.148-13.006c0-4.789-0.796-9.124-2.387-13.005c-1.592-3.883-3.83-6.622-6.716-8.219
			C356.549,708.059,351.766,707.259,345.083,707.259z"/>
		<path style="fill:#272525;" d="M411.429,840.588V688.755h32.116c12.955,0,23.206,3.102,30.752,9.307
			c7.545,6.202,13.546,15.329,18.002,27.373c4.454,12.045,6.682,25.18,6.682,39.4c0,10.16-1.227,19.882-3.682,29.17
			s-5.956,17.451-10.501,24.488c-4.637,7.257-10.023,12.734-16.16,16.436c-3.591,2.25-6.887,3.756-9.888,4.516
			c-3,0.763-8.728,1.144-17.183,1.144H411.429z M442.113,708.129h-17.047v113.085h17.455c6.819,0,12.114-0.742,15.888-2.232
			c3.773-1.485,6.922-3.372,9.443-5.659c2.524-2.283,4.831-5.097,6.922-8.434c6.727-10.884,10.092-24.634,10.092-41.251
			c0-16.326-3.455-29.641-10.364-39.944c-2.547-3.846-5.467-7.002-8.762-9.47c-3.297-2.466-6.422-4.099-9.376-4.897
			C453.408,708.528,448.659,708.129,442.113,708.129z"/>
		<path style="fill:#272525;" d="M516.027,688.755h54.005v19.374h-40.367v46.366h39.003v19.482h-39.003v47.236h41.662v19.374h-55.3
			V688.755z"/>
		<path style="fill:#272525;" d="M586.261,840.806V688.755h23.865c9.637,0,17.285,3.81,22.945,11.429
			c5.658,7.618,8.488,17.923,8.488,30.911c0,8.854-1.387,16.507-4.159,22.965c-2.772,6.46-6.75,11.283-11.933,14.476
			c3.045,3.194,6.023,7.548,8.933,13.062c2.908,5.515,7,15.129,12.273,28.843c3.317,8.636,5.977,15.128,7.979,19.482l5.045,10.884
			h-16.229l-4.153-10.02c-0.137-0.36-0.409-0.979-0.817-1.852l-2.656-5.989l-4.223-11.107l-4.562-11.869
			c-2.814-6.242-5.394-11.212-7.737-14.906c-2.344-3.693-4.461-6.356-6.349-7.986c-1.89-1.63-5.063-2.445-9.522-2.445h-3.551v66.175
			H586.261z M603.989,707.259h-4.092v47.998h5.183c6.909,0,11.648-0.941,14.218-2.83c2.567-1.886,4.567-4.733,6-8.544
			c1.431-3.809,2.147-8.145,2.147-13.006c0-4.789-0.796-9.124-2.387-13.005c-1.592-3.883-3.83-6.622-6.716-8.219
			C615.455,708.059,610.671,707.259,603.989,707.259z"/>
	</g>
	<g>
		<path style="fill:#272525;" d="M131.476,848.542h61.629v21.238h-25.718v145.687h-10.615V869.78h-25.296V848.542z"/>
		<path style="fill:#272525;" d="M255.104,848.781h10.562v166.686h-10.562v-72.545h-41.456v72.545h-10.562V848.781h10.562v72.067
			h41.456V848.781z"/>
		<path style="fill:#272525;" d="M305.487,847.826h7.423l33.08,167.641H335.18l-9.833-49.397h-31.476l-9.218,49.397h-10.854
			L305.487,847.826z M321.005,944.83l-11.903-60.373l-11.038,60.373H321.005z"/>
		<path style="fill:#272525;" d="M412.689,848.781h10.034v166.686h-9.084l-49.324-128.374v128.374h-9.928V848.781h8.555
			l49.747,129.466V848.781z"/>
		<path style="fill:#272525;" d="M496.722,848.781h12.821l-27.25,78.51v88.176h-10.826v-88.176l-27.25-78.51h12.751l19.743,57.467
			L496.722,848.781z"/>
		<path style="fill:#272525;" d="M545.243,848.542c11.406,0,20.903,7.962,28.49,23.882c7.587,15.923,11.381,35.885,11.381,59.884
			c0,24.001-3.828,43.865-11.486,59.592c-7.657,15.729-17.313,23.592-28.966,23.592c-11.126,0-20.395-7.863-27.805-23.592
			c-7.411-15.727-11.116-35.435-11.116-59.125c0-24.31,3.73-44.428,11.195-60.351C524.4,856.504,533.836,848.542,545.243,848.542z
			 M545.665,870.678c-8.449,0-15.394,5.825-20.834,17.476c-5.438,11.649-8.158,26.523-8.158,44.621
			c0,17.553,2.728,32.154,8.186,43.805c5.457,11.65,12.286,17.475,20.49,17.475c8.238,0,15.112-5.94,20.622-17.824
			s8.265-26.68,8.265-44.388c0-17.243-2.755-31.748-8.265-43.514C560.461,876.56,553.692,870.678,545.665,870.678z"/>
		<path style="fill:#272525;" d="M649.384,848.781h10.615v93.547c0,12.662-0.414,22.219-1.241,28.665
			c-0.827,6.448-1.848,11.817-3.063,16.102c-1.214,4.287-2.701,8.122-4.462,11.502c-5.844,11.248-13.484,16.87-22.92,16.87
			c-9.611,0-17.321-5.584-23.13-16.751c-1.762-3.46-3.249-7.334-4.463-11.621c-1.215-4.284-2.218-9.534-3.011-15.747
			c-0.791-6.212-1.188-15.965-1.188-29.256v-93.311h10.614v93.547c0,15.494,0.793,26.267,2.377,32.322
			c1.584,6.057,3.995,10.912,7.235,14.568c3.238,3.659,7.058,5.485,11.459,5.485c6.267,0,11.372-3.656,15.315-10.97
			c2.077-3.934,3.572-8.57,4.488-13.92c0.916-5.349,1.373-14.51,1.373-27.486V848.781z"/>
	</g>
</g>
<g id="Guides">
</g>
</svg>
