<?xml version="1.0" encoding="iso-8859-1"?>
<!-- Generator: Adobe Illustrator 15.1.0, SVG Export Plug-In . SVG Version: 6.00 Build 0)  -->
<!DOCTYPE svg PUBLIC "-//W3C//DTD SVG 1.1//EN" "http://www.w3.org/Graphics/SVG/1.1/DTD/svg11.dtd">
<svg version="1.1" xmlns="http://www.w3.org/2000/svg" xmlns:xlink="http://www.w3.org/1999/xlink" x="0px" y="0px" width="792px"
	 height="1224px" viewBox="0 0 792 1224" style="enable-background:new 0 0 792 1224;" xml:space="preserve">
<g id="Layer_1">
	<g>
		<path style="fill:#272525;" d="M131.999,354.992h7.95V214.049h-7.95v-6.128h24.551c5.612,0,10.911,1.788,15.9,5.361
			c4.987,3.578,9.353,8.683,13.094,15.321c3.741,6.64,6.702,14.701,8.885,24.183c2.181,9.486,3.273,20.064,3.273,31.735
			c0,8.61-0.8,17.437-2.396,26.481c-1.599,9.049-4.19,17.29-7.775,24.731c-3.586,7.441-8.243,13.535-13.971,18.275
			c-5.729,4.743-12.725,7.112-20.986,7.112h-20.577V354.992z M143.222,214.049v140.943h10.732c7.075,0,13.16-2.105,18.253-6.326
			c5.093-4.219,9.292-9.673,12.599-16.363c3.305-6.688,5.734-14.215,7.291-22.58c1.555-8.364,2.333-16.763,2.333-25.203
			c0-10.762-0.992-20.508-2.976-29.235c-1.984-8.727-4.686-16.148-8.107-22.255c-3.421-6.107-7.408-10.799-11.956-14.072
			c-4.549-3.272-9.39-4.91-14.521-4.91H143.222z"/>
		<path style="fill:#272525;" d="M205.886,284.735c0-10.555,1.091-20.504,3.273-29.849c2.181-9.34,5.162-17.471,8.943-24.392
			c3.78-6.917,8.202-12.411,13.27-16.475c5.065-4.066,10.482-6.1,16.25-6.1c5.767,0,11.204,2.034,16.31,6.1
			c5.104,4.063,9.546,9.558,13.328,16.475c3.779,6.92,6.78,15.051,9.002,24.392c2.221,9.344,3.332,19.294,3.332,29.849
			c0,10.557-1.111,20.47-3.332,29.741c-2.222,9.274-5.223,17.369-9.002,24.285c-3.782,6.921-8.225,12.376-13.328,16.368
			c-5.106,3.995-10.542,5.991-16.31,5.991c-5.769,0-11.185-1.997-16.25-5.991c-5.068-3.992-9.49-9.447-13.27-16.368
			c-3.781-6.917-6.762-15.011-8.943-24.285C206.977,305.205,205.886,295.292,205.886,284.735z M209.159,284.948
			c0,9.669,1.012,18.772,3.04,27.304c2.026,8.533,4.753,15.965,8.184,22.293c3.429,6.329,7.462,11.34,12.1,15.038
			c4.636,3.697,9.605,5.546,14.906,5.546c5.3,0,10.307-1.849,15.023-5.546c4.715-3.698,8.845-8.746,12.393-15.144
			c3.546-6.399,6.352-13.868,8.418-22.4c2.064-8.532,3.098-17.632,3.098-27.304c0-9.668-1.014-18.806-3.04-27.412
			c-2.028-8.605-4.793-16.107-8.301-22.506c-3.507-6.398-7.619-11.48-12.334-15.251c-4.717-3.768-9.724-5.654-15.023-5.654
			c-5.301,0-10.288,1.886-14.964,5.654c-4.677,3.771-8.75,8.853-12.218,15.251c-3.469,6.399-6.216,13.901-8.242,22.506
			C210.171,265.93,209.159,275.136,209.159,284.948z"/>
		<path style="fill:#272525;" d="M297.778,207.921h21.98v6.059h-9.704v95.78c0,7.336,0.584,13.808,1.754,19.417
			c1.169,5.609,2.806,10.319,4.91,14.129c2.104,3.811,4.598,6.722,7.482,8.737c2.883,2.014,6.039,3.019,9.47,3.019
			c3.429,0,6.585-1.004,9.47-3.019c2.882-2.015,5.377-4.926,7.482-8.737c2.104-3.81,3.759-8.52,4.969-14.129
			c1.208-5.608,1.812-12.08,1.812-19.417v-95.78h-9.704v-6.059h21.979v6.059h-9.002v96.581c0,8.214-0.684,15.488-2.046,21.825
			c-1.365,6.337-3.255,11.631-5.67,15.882c-2.417,4.249-5.281,7.454-8.593,9.614c-3.314,2.158-6.88,3.24-10.698,3.24
			c-3.898,0-7.482-1.082-10.756-3.24c-3.274-2.16-6.1-5.365-8.476-9.614c-2.378-4.25-4.249-9.545-5.612-15.882
			c-1.365-6.336-2.046-13.611-2.046-21.825v-96.581h-9.002V207.921z"/>
		<path style="fill:#272525;" d="M440.878,294.828v55.299c-3.117,3.284-6.45,5.892-9.995,7.82c-3.548,1.93-7.308,2.895-11.283,2.895
			c-5.769,0-11.185-1.996-16.25-5.982c-5.067-3.986-9.49-9.433-13.27-16.343c-3.782-6.907-6.763-14.988-8.944-24.249
			c-2.183-9.256-3.273-19.154-3.273-29.695c0-10.54,1.091-20.473,3.273-29.803c2.181-9.327,5.162-17.445,8.944-24.354
			c3.78-6.907,8.202-12.391,13.27-16.45c5.065-4.06,10.481-6.088,16.25-6.088c3.976,0,7.735,0.927,11.283,2.776
			c3.545,1.853,6.916,4.487,10.112,7.906l-1.871,4.913c-5.846-6.408-12.354-9.614-19.524-9.614c-5.301,0-10.288,1.883-14.965,5.646
			c-4.676,3.766-8.75,8.839-12.217,15.229c-3.468,6.389-6.216,13.879-8.242,22.471c-2.028,8.594-3.04,17.787-3.04,27.583
			c0,9.653,1.012,18.743,3.04,27.262c2.026,8.519,4.753,15.94,8.184,22.259c3.429,6.319,7.462,11.322,12.101,15.015
			c4.637,3.692,9.605,5.538,14.906,5.538c6.548,0,12.627-2.837,18.239-8.512V300.81h-18.473v-5.982H440.878z"/>
		<path style="fill:#272525;" d="M449.061,354.992h8.535V214.049h-8.535v-6.128h21.512v6.128h-9.703v140.943h43.023v-27.575h3.273
			v33.704h-58.105V354.992z"/>
		<path style="fill:#272525;" d="M515.466,355.258h8.826c5.846-24.667,11.671-49.199,17.479-73.589
			c5.806-24.39,11.633-48.99,17.479-73.799c5.846,24.809,11.671,49.409,17.479,73.799c5.805,24.39,11.632,48.921,17.478,73.589
			h8.944v5.862h-21.395v-5.862h9.177c-2.348-9.734-4.674-19.47-6.981-29.205c-2.309-9.736-4.637-19.54-6.981-29.416h-35.439
			c-2.347,9.876-4.675,19.68-6.981,29.416c-2.31,9.735-4.637,19.471-6.982,29.205h9.295v5.862h-21.395V355.258z M560.305,226.486
			l-1.056-5.636c-0.078,0.281-0.157,0.696-0.236,1.252c-0.078,0.557-0.195,1.185-0.351,1.878l-0.469,2.505
			c-2.113,9.742-4.539,20.177-7.276,31.309c-2.738,11.136-5.398,22.127-7.979,32.981h32.622L560.305,226.486z"/>
		<path style="fill:#272525;" d="M611.917,344.375v-22.169h3.273v19.247c2.176,3.846,4.876,7.092,8.102,9.729
			c3.227,2.636,7.094,3.955,11.602,3.955c2.797,0,5.518-0.821,8.161-2.468c2.641-1.645,4.974-3.968,6.994-6.972
			c2.021-3.003,3.633-6.686,4.839-11.05c1.203-4.362,1.807-9.262,1.807-14.7c0-6.436-0.585-11.764-1.754-15.983
			c-1.169-4.221-2.729-7.653-4.677-10.301c-1.948-2.644-4.149-4.789-6.605-6.437c-2.455-1.645-4.988-3.148-7.599-4.513
			c-2.612-1.363-5.165-2.798-7.658-4.305c-2.495-1.506-4.755-3.478-6.781-5.919c-2.027-2.437-3.683-5.595-4.969-9.47
			c-1.285-3.874-2.007-8.824-2.162-14.85c-0.157-4.735,0.135-9.504,0.877-14.312c0.739-4.806,1.947-9.148,3.624-13.022
			c1.675-3.873,3.838-6.995,6.488-9.362c2.648-2.367,5.846-3.551,9.587-3.551c1.324,0,2.747,0.145,4.268,0.432
			c1.52,0.288,3.078,0.79,4.677,1.505c1.596,0.72,3.175,1.723,4.734,3.014c1.559,1.291,3.04,3.014,4.442,5.165v23.891h-3.272v-20.72
			c-1.55-1.99-3.561-3.698-6.036-5.125c-2.477-1.423-5.454-2.135-8.937-2.135c-2.864,0-5.378,0.895-7.545,2.68
			c-2.166,1.79-3.965,4.184-5.397,7.183c-1.432,3.003-2.495,6.434-3.191,10.294c-0.697,3.861-1.045,7.862-1.045,12.006
			c0,5.434,0.601,9.899,1.807,13.4c1.205,3.505,2.778,6.363,4.722,8.58c1.944,2.216,4.158,4.042,6.646,5.474
			c2.487,1.437,5.051,2.872,7.694,4.305c2.643,1.437,5.228,3.088,7.753,4.95c2.526,1.867,4.781,4.305,6.764,7.318
			c1.981,3.012,3.595,6.887,4.838,11.622c1.242,4.736,1.904,10.62,1.982,17.648c0.077,6.316-0.526,12.054-1.812,17.219
			c-1.285,5.165-3.06,9.578-5.318,13.236c-2.263,3.659-4.911,6.457-7.95,8.394c-3.04,1.937-6.237,2.906-9.587,2.906
			c-3.118,0-5.944-0.575-8.477-1.723c-2.533-1.146-4.775-2.583-6.722-4.304c-1.95-1.722-3.606-3.551-4.969-5.488
			C613.768,347.712,612.695,345.956,611.917,344.375z"/>
	</g>
	<g>
		<path style="fill:#272525;" d="M182.426,401.716v-19.171c-4.654-5.381-9.765-8.071-15.332-8.071c-4.457,0-8.65,1.791-12.583,5.372
			c-3.932,3.583-7.356,8.412-10.271,14.491c-2.917,6.08-5.227,13.209-6.93,21.385c-1.704,8.177-2.555,16.924-2.555,26.248
			c0,9.188,0.853,17.836,2.561,25.945c1.707,8.106,4.004,15.168,6.895,21.181c2.888,6.014,6.287,10.775,10.194,14.289
			c3.905,3.514,8.091,5.271,12.558,5.271c3.02,0,5.909-0.794,8.667-2.386s5.383-3.847,7.879-6.763l1.576,4.676
			c-2.627,3.119-5.434,5.591-8.421,7.42c-2.988,1.83-6.156,2.745-9.504,2.745c-4.86,0-9.423-1.896-13.69-5.692
			c-4.27-3.793-7.995-8.978-11.179-15.553c-3.186-6.574-5.697-14.263-7.534-23.076c-1.839-8.809-2.758-18.227-2.758-28.26
			c0-10.028,0.919-19.482,2.758-28.361c1.837-8.875,4.349-16.602,7.534-23.177c3.185-6.573,6.91-11.792,11.179-15.654
			c4.267-3.863,8.83-5.794,13.69-5.794c3.349,0,6.516,0.883,9.504,2.643c2.987,1.763,5.826,4.27,8.52,7.522v22.771H182.426z"/>
		<path style="fill:#272525;" d="M192.076,441.987c0-10.048,0.919-19.521,2.758-28.417c1.837-8.893,4.349-16.634,7.534-23.223
			c3.185-6.585,6.91-11.815,11.179-15.685c4.267-3.871,8.83-5.806,13.69-5.806c4.858,0,9.438,1.935,13.739,5.806
			c4.3,3.87,8.042,9.1,11.228,15.685c3.184,6.589,5.712,14.33,7.584,23.223c1.871,8.896,2.807,18.369,2.807,28.417
			c0,10.052-0.936,19.489-2.807,28.315c-1.872,8.83-4.4,16.536-7.584,23.122c-3.186,6.588-6.928,11.783-11.228,15.583
			c-4.301,3.803-8.881,5.704-13.739,5.704c-4.86,0-9.423-1.901-13.69-5.704c-4.27-3.8-7.995-8.995-11.179-15.583
			c-3.186-6.586-5.697-14.292-7.534-23.122C192.995,461.477,192.076,452.04,192.076,441.987z M194.834,442.191
			c0,9.205,0.853,17.872,2.561,25.995c1.707,8.123,4.004,15.199,6.895,21.223c2.888,6.026,6.287,10.797,10.194,14.317
			c3.906,3.521,8.091,5.28,12.558,5.28c4.464,0,8.683-1.76,12.656-5.28c3.972-3.521,7.452-8.327,10.44-14.418
			c2.987-6.093,5.351-13.204,7.091-21.326c1.739-8.123,2.61-16.786,2.61-25.995c0-9.205-0.854-17.903-2.561-26.097
			c-1.708-8.192-4.038-15.335-6.993-21.427c-2.955-6.092-6.419-10.93-10.391-14.52c-3.974-3.587-8.192-5.383-12.656-5.383
			c-4.466,0-8.667,1.795-12.607,5.383c-3.939,3.59-7.371,8.428-10.292,14.52c-2.922,6.092-5.236,13.235-6.943,21.427
			C195.687,424.084,194.834,432.849,194.834,442.191z"/>
		<path style="fill:#272525;" d="M269.489,368.857h18.517v5.768h-8.175v91.188c0,6.984,0.492,13.145,1.477,18.485
			c0.985,5.339,2.364,9.824,4.137,13.451c1.773,3.628,3.874,6.4,6.303,8.318c2.429,1.918,5.088,2.874,7.978,2.874
			c2.889,0,5.547-0.956,7.978-2.874c2.428-1.918,4.53-4.69,6.303-8.318c1.773-3.627,3.167-8.112,4.186-13.451
			c1.018-5.34,1.527-11.501,1.527-18.485v-91.188h-8.175v-5.768h18.516v5.768h-7.583v91.951c0,7.819-0.576,14.746-1.724,20.777
			c-1.15,6.033-2.743,11.073-4.777,15.12c-2.036,4.046-4.449,7.098-7.238,9.154c-2.792,2.054-5.796,3.084-9.012,3.084
			c-3.284,0-6.303-1.03-9.061-3.084c-2.758-2.057-5.139-5.108-7.141-9.154c-2.004-4.047-3.58-9.086-4.728-15.12
			c-1.149-6.032-1.724-12.958-1.724-20.777v-91.951h-7.584V368.857z"/>
		<path style="fill:#272525;" d="M336.956,508.903h6.5V374.692h-6.5v-5.835h20.782c1.97,0,4.136,0.697,6.5,2.083
			c2.364,1.391,4.58,3.579,6.648,6.565c2.069,2.989,3.792,6.876,5.171,11.671c1.379,4.793,2.068,10.524,2.068,17.193
			c0,11.811-1.807,21.189-5.417,28.134c-3.612,6.949-8.799,10.42-15.562,10.42h-10.933v63.979h9.258v5.836h-18.516V508.903z
			 M346.213,439.089h10.736c3.61,0,6.599-1.036,8.962-3.107s4.25-4.728,5.663-7.971c1.411-3.244,2.396-6.764,2.955-10.561
			c0.557-3.796,0.837-7.489,0.837-11.077c0-4.142-0.46-8.144-1.378-12.01c-0.921-3.865-2.201-7.248-3.842-10.146
			c-1.642-2.898-3.579-5.21-5.811-6.937c-2.233-1.726-4.663-2.589-7.289-2.589h-10.834V439.089z"/>
		<path style="fill:#272525;" d="M385.018,508.903h7.19V374.692h-7.19v-5.835h18.122v5.835h-8.174v134.211h36.245v-26.258h2.758
			v32.094h-48.95V508.903z"/>
		<path style="fill:#272525;" d="M440.959,509.152h7.436c4.925-23.506,9.833-46.883,14.725-70.125
			c4.891-23.242,9.8-46.684,14.725-70.325c4.925,23.641,9.832,47.083,14.725,70.325c4.891,23.242,9.799,46.619,14.724,70.125h7.535
			v5.587h-18.024v-5.587h7.731c-1.978-9.276-3.938-18.553-5.881-27.83c-1.945-9.278-3.906-18.619-5.882-28.031h-29.855
			c-1.978,9.412-3.938,18.753-5.882,28.031c-1.945,9.277-3.905,18.554-5.882,27.83h7.83v5.587h-18.023V509.152z M478.733,386.441
			l-0.89-5.371c-0.066,0.268-0.133,0.664-0.199,1.194c-0.065,0.53-0.164,1.128-0.295,1.79l-0.396,2.387
			c-1.78,9.284-3.824,19.228-6.13,29.836c-2.307,10.611-4.547,21.085-6.722,31.428h27.481L478.733,386.441z"/>
		<path style="fill:#272525;" d="M521.622,508.903h7.78V374.692h-7.78v-5.835h10.44l53.104,127.126l1.871,5.419l-0.296-6.659
			l0.08-120.05h-7.583v-5.835h18.517v5.835h-8.176l-0.08,140.047l-55.764-132.961l-1.772-4.585l0.196,5.826v125.885h7.979v5.836
			h-18.517V508.903z"/>
		<path style="fill:#272525;" d="M604.648,508.903h6.697V374.692h-6.697v-5.835h20.683c4.729,0,9.192,1.703,13.396,5.106
			c4.201,3.406,7.879,8.268,11.03,14.587c3.152,6.325,5.646,14,7.485,23.029c1.838,9.033,2.758,19.105,2.758,30.219
			c0,8.199-0.674,16.604-2.02,25.216c-1.346,8.617-3.529,16.464-6.549,23.55c-3.021,7.085-6.943,12.889-11.77,17.402
			c-4.826,4.517-10.721,6.773-17.679,6.773h-17.335V508.903z M614.104,374.692v134.211h9.041c5.961,0,11.086-2.005,15.377-6.023
			s7.828-9.212,10.614-15.582c2.784-6.369,4.83-13.536,6.142-21.501c1.31-7.965,1.965-15.963,1.965-23.999
			c0-10.249-0.836-19.528-2.507-27.838c-1.671-8.31-3.947-15.376-6.829-21.192c-2.883-5.815-6.24-10.283-10.072-13.4
			c-3.832-3.116-7.91-4.675-12.233-4.675H614.104z"/>
	</g>
	<g>
		<path style="fill:#272525;" d="M131.544,522.482h26.929v6.037h-11.017c6.262,22.245,12.502,44.378,18.716,66.403
			c6.215,22.026,12.551,44.09,19.009,66.186l1.3,5.811c3.551-15.091,7.536-29.927,11.953-44.516
			c4.415-14.585,8.688-29.283,12.816-44.086c-2.304-8.3-4.633-16.562-6.984-24.791c-2.354-8.226-4.729-16.563-7.128-25.007h-11.737
			v-6.037h26.929v6.037h-11.161c6.262,22.245,12.477,44.378,18.645,66.403c6.167,22.026,12.529,44.09,19.081,66.186l1.301,5.811
			l1.3-5.811c6.264-22.24,12.526-44.338,18.791-66.292c6.264-21.956,12.526-44.051,18.791-66.296H269.07v-6.037h26.929v6.037H283.11
			c-7.2,25.546-14.354,50.875-21.457,75.99c-7.105,25.114-14.256,50.374-21.457,75.774l-25.489-89.895l-1.44-5.39
			c-4.129,15.952-8.497,31.871-13.104,47.75c-4.608,15.882-9.169,31.727-13.681,47.534c-7.2-25.4-14.378-50.66-21.528-75.774
			c-7.153-25.115-14.329-50.444-21.529-75.99h-11.88V522.482z"/>
		<path style="fill:#272525;" d="M305.934,601.725c0-10.856,1.343-21.089,4.032-30.699c2.687-9.607,6.358-17.969,11.016-25.086
			c4.656-7.114,10.103-12.764,16.345-16.944c6.239-4.181,12.911-6.272,20.016-6.272c7.104,0,13.8,2.091,20.089,6.272
			c6.287,4.18,11.758,9.831,16.416,16.944c4.656,7.117,8.354,15.479,11.089,25.086c2.736,9.61,4.104,19.843,4.104,30.699
			c0,10.857-1.368,21.053-4.104,30.587c-2.735,9.538-6.433,17.862-11.089,24.977c-4.658,7.117-10.129,12.729-16.416,16.833
			c-6.289,4.109-12.985,6.162-20.089,6.162c-7.105,0-13.777-2.053-20.016-6.162c-6.242-4.104-11.689-9.716-16.345-16.833
			c-4.658-7.114-8.33-15.438-11.016-24.977C307.277,622.777,305.934,612.582,305.934,601.725z M309.966,601.943
			c0,9.944,1.247,19.306,3.744,28.082c2.495,8.774,5.854,16.418,10.081,22.928c4.223,6.509,9.191,11.663,14.904,15.465
			c5.71,3.805,11.831,5.704,18.361,5.704c6.527,0,12.695-1.899,18.504-5.704c5.808-3.802,10.895-8.994,15.264-15.576
			c4.369-6.58,7.824-14.262,10.369-23.037c2.543-8.773,3.815-18.133,3.815-28.079c0-9.945-1.249-19.342-3.744-28.192
			c-2.498-8.851-5.903-16.567-10.223-23.148c-4.32-6.581-9.386-11.807-15.193-15.686c-5.81-3.875-11.978-5.814-18.505-5.814
			c-6.529,0-12.672,1.939-18.432,5.814c-5.76,3.878-10.778,9.105-15.049,15.686c-4.273,6.581-7.657,14.297-10.152,23.148
			C311.212,582.383,309.966,591.851,309.966,601.943z"/>
		<path style="fill:#272525;" d="M419.121,673.958h9.505V528.794h-9.505v-6.312h30.386c2.88,0,6.049,0.754,9.504,2.254
			c3.456,1.501,6.696,3.867,9.721,7.097s5.545,7.436,7.561,12.616c2.016,5.185,3.024,11.379,3.024,18.585
			c0,10.666-1.851,19.526-5.545,26.585c-3.697,7.058-9.098,11.714-16.2,13.968l21.167,70.371h12.386v6.312h-14.545l-23.041-76.189
			c-2.223,0.451-4.446,0.677-6.668,0.677h-14.213v69.201h13.538v6.312h-27.074V673.958z M432.657,598.445h15.698
			c5.278,0,9.646-1.12,13.103-3.359c3.458-2.241,6.216-5.115,8.28-8.624c2.064-3.507,3.505-7.314,4.32-11.421
			c0.815-4.106,1.225-8.101,1.225-11.982c0-4.48-0.674-8.809-2.016-12.989c-1.347-4.18-3.218-7.84-5.616-10.975
			c-2.402-3.135-5.233-5.635-8.496-7.501c-3.267-1.867-6.817-2.8-10.657-2.8h-15.841V598.445z"/>
		<path style="fill:#272525;" d="M563.413,673.958h9.218c-7.2-14.077-14.329-28.154-21.385-42.236
			c-7.056-14.077-14.139-28.232-21.241-42.461l-13.825,20.231c0,10.784,0.023,21.526,0.072,32.233
			c0.048,10.707,0.072,21.452,0.072,32.233h11.952v6.312h-27.072v-6.312h11.087V528.794h-11.087v-6.312H527.7v6.312h-11.376v67.419
			c0,1.198-0.024,2.285-0.072,3.258c-0.049,0.974-0.12,2.06-0.216,3.257l2.593-4.495l46.513-69.44h-8.352v-6.312h26.353v6.312
			h-12.529l-37.872,56.419c7.582,14.98,15.096,29.809,22.536,44.488c7.438,14.679,14.905,29.429,22.394,44.257h12.241v6.312h-26.499
			V673.958z"/>
		<path style="fill:#272525;" d="M600.854,662.934v-22.818h4.031v19.812c2.68,3.961,6.006,7.301,9.979,10.016
			c3.974,2.713,8.738,4.07,14.29,4.07c3.444,0,6.795-0.846,10.052-2.543c3.254-1.69,6.126-4.083,8.614-7.175
			c2.49-3.091,4.476-6.882,5.961-11.375c1.483-4.489,2.226-9.533,2.226-15.131c0-6.625-0.72-12.109-2.16-16.454
			c-1.439-4.344-3.361-7.878-5.76-10.602c-2.4-2.721-5.111-4.931-8.136-6.627c-3.024-1.691-6.146-3.239-9.36-4.644
			c-3.218-1.402-6.362-2.88-9.434-4.431c-3.073-1.552-5.856-3.58-8.352-6.093c-2.498-2.509-4.536-5.761-6.12-9.749
			c-1.585-3.988-2.474-9.083-2.665-15.287c-0.193-4.874,0.167-9.782,1.08-14.733c0.911-4.946,2.398-9.415,4.465-13.403
			c2.062-3.987,4.727-7.201,7.991-9.637c3.263-2.437,7.2-3.656,11.81-3.656c1.631,0,3.385,0.149,5.256,0.443
			c1.873,0.297,3.791,0.813,5.76,1.55c1.967,0.741,3.912,1.773,5.834,3.102c1.918,1.33,3.742,3.102,5.471,5.318v24.591h-4.031
			V536.15c-1.908-2.049-4.386-3.808-7.435-5.276c-3.051-1.464-6.718-2.198-11.009-2.198c-3.526,0-6.622,0.921-9.293,2.759
			c-2.668,1.842-4.884,4.307-6.648,7.394c-1.763,3.092-3.073,6.623-3.931,10.596c-0.858,3.974-1.286,8.093-1.286,12.358
			c0,5.594,0.739,10.191,2.224,13.795c1.485,3.607,3.425,6.55,5.817,8.83c2.394,2.282,5.122,4.161,8.187,5.637
			c3.062,1.477,6.221,2.956,9.477,4.431c3.255,1.477,6.438,3.177,9.55,5.095c3.112,1.921,5.889,4.43,8.33,7.534
			c2.441,3.101,4.428,7.09,5.959,11.963c1.53,4.873,2.346,10.931,2.441,18.166c0.096,6.503-0.646,12.408-2.231,17.724
			c-1.584,5.319-3.769,9.86-6.551,13.628c-2.786,3.766-6.049,6.645-9.794,8.638c-3.744,1.996-7.682,2.992-11.807,2.992
			c-3.843,0-7.322-0.592-10.441-1.772c-3.121-1.181-5.882-2.658-8.279-4.431c-2.402-1.772-4.442-3.655-6.121-5.65
			C603.133,666.369,601.812,664.562,600.854,662.934z"/>
	</g>
	<g>
		<path style="fill:#272525;" d="M196.603,688.317h25.885v6.089h-10.658v140.036h10.658v6.089h-25.885v-6.089h11.35v-67.409h-61.874
			v67.409h11.489v6.089h-26.023v-6.089h10.658V694.406h-10.658v-6.089h26.023v6.089h-11.489v66.539h61.874v-66.539h-11.35V688.317z"
			/>
		<path style="fill:#272525;" d="M232.314,834.709h10.451c6.921-24.501,13.818-48.866,20.694-73.093
			c6.874-24.226,13.773-48.658,20.694-73.299c6.921,24.641,13.818,49.073,20.694,73.299c6.874,24.227,13.773,48.592,20.694,73.093
			h10.589v5.822h-25.331v-5.822h10.866c-2.779-9.67-5.535-19.34-8.267-29.009c-2.733-9.667-5.489-19.406-8.266-29.216h-41.959
			c-2.779,9.81-5.535,19.549-8.267,29.216c-2.733,9.669-5.489,19.339-8.267,29.009h11.005v5.822h-25.331V834.709z M285.403,706.807
			l-1.25-5.597c-0.093,0.278-0.186,0.691-0.28,1.243c-0.093,0.553-0.231,1.177-0.415,1.866l-0.555,2.487
			c-2.502,9.676-5.375,20.04-8.615,31.099c-3.241,11.06-6.391,21.977-9.447,32.757h38.624L285.403,706.807z"/>
		<path style="fill:#272525;" d="M345.68,834.442h9.136V694.406h-9.136v-6.089h29.207c2.769,0,5.814,0.728,9.135,2.175
			c3.323,1.446,6.438,3.73,9.344,6.846c2.907,3.116,5.329,7.172,7.267,12.171c1.938,5.001,2.907,10.977,2.907,17.929
			c0,10.288-1.777,18.836-5.329,25.646c-3.553,6.808-8.744,11.3-15.573,13.475l20.348,67.885h11.905v6.089H400.91l-22.147-73.498
			c-2.137,0.435-4.273,0.652-6.411,0.652h-13.66v66.757h13.012v6.089H345.68V834.442z M358.692,761.597h15.088
			c5.074,0,9.274-1.079,12.596-3.24c3.323-2.161,5.974-4.934,7.959-8.318c1.983-3.383,3.367-7.056,4.152-11.019
			c0.783-3.96,1.177-7.814,1.177-11.559c0-4.321-0.646-8.497-1.938-12.53c-1.293-4.033-3.092-7.562-5.399-10.587
			c-2.307-3.023-5.03-5.436-8.166-7.236c-3.139-1.801-6.553-2.701-10.244-2.701h-15.226V761.597z"/>
		<path style="fill:#272525;" d="M424.579,834.442h9.414V694.406h-9.414v-6.089h29.069c6.644,0,12.918,1.776,18.826,5.327
			c5.903,3.555,11.073,8.627,15.502,15.221c4.43,6.6,7.935,14.607,10.52,24.028c2.583,9.426,3.876,19.935,3.876,31.53
			c0,8.556-0.947,17.325-2.838,26.312c-1.893,8.989-4.961,17.178-9.204,24.57c-4.246,7.394-9.76,13.449-16.541,18.157
			c-6.783,4.713-15.067,7.067-24.847,7.067h-24.363V834.442z M437.868,694.406v140.036h12.707c8.376,0,15.58-2.092,21.61-6.285
			c6.03-4.192,11.002-9.611,14.917-16.258c3.913-6.646,6.79-14.124,8.632-22.435c1.841-8.311,2.762-16.655,2.762-25.041
			c0-10.692-1.175-20.376-3.522-29.047c-2.349-8.669-5.548-16.042-9.599-22.111c-4.052-6.067-8.771-10.729-14.155-13.98
			c-5.386-3.252-11.117-4.879-17.192-4.879H437.868z"/>
		<path style="fill:#272525;" d="M512.061,834.442h10.658V694.406h-10.658v-6.089h67.41v33.486h-3.876v-27.397h-49v66.539h47.478
			v6.088h-47.478v67.409h50.938v-27.397h3.876v33.486h-69.349V834.442z"/>
		<path style="fill:#272525;" d="M591.098,834.442h9.133V694.406h-9.133v-6.089h29.197c2.767,0,5.811,0.728,9.131,2.175
			c3.321,1.446,6.436,3.73,9.34,6.846c2.906,3.116,5.328,7.172,7.266,12.171c1.938,5.001,2.905,10.977,2.905,17.929
			c0,10.288-1.777,18.836-5.327,25.646c-3.553,6.808-8.741,11.3-15.566,13.475l20.34,67.885h11.899v6.089h-13.976l-22.139-73.498
			c-2.136,0.435-4.271,0.652-6.407,0.652h-13.656v66.757h13.007v6.089h-26.014V834.442z M604.104,761.597h15.083
			c5.071,0,9.271-1.079,12.59-3.24c3.322-2.161,5.973-4.934,7.957-8.318c1.982-3.383,3.367-7.056,4.151-11.019
			c0.783-3.96,1.177-7.814,1.177-11.559c0-4.321-0.647-8.497-1.937-12.53c-1.295-4.033-3.093-7.562-5.397-10.587
			c-2.308-3.023-5.029-5.436-8.164-7.236c-3.137-1.801-6.55-2.701-10.239-2.701h-15.221V761.597z"/>
	</g>
	<g>
		<path style="fill:#272525;" d="M149.652,1008.834h7.76V855.693h-22.698v29.962h-2.716v-36.62h53.642v36.62h-2.716v-29.962h-22.795
			v153.141h7.76v6.659h-18.236V1008.834z"/>
		<path style="fill:#272525;" d="M238.019,849.035h18.139v6.658h-7.469v153.141h7.469v6.659h-18.139v-6.659h7.954v-73.717h-43.359
			v73.717h8.051v6.659h-18.236v-6.659h7.469V855.693h-7.469v-6.658h18.236v6.658h-8.051v72.766h43.359v-72.766h-7.954V849.035z"/>
		<path style="fill:#272525;" d="M263.043,1009.122h7.324c4.851-26.812,9.684-53.478,14.501-79.986
			c4.817-26.513,9.652-53.251,14.502-80.215c4.85,26.964,9.683,53.702,14.501,80.215c4.817,26.509,9.652,53.174,14.502,79.986h7.42
			v6.371h-17.75v-6.371h7.614c-1.948-10.581-3.877-21.163-5.792-31.745c-1.916-10.58-3.847-21.236-5.792-31.972h-29.403
			c-1.947,10.735-3.878,21.392-5.792,31.972c-1.916,10.582-3.847,21.164-5.793,31.745h7.712v6.371h-17.751V1009.122z
			 M300.246,869.155l-0.876-6.126c-0.065,0.305-0.131,0.758-0.196,1.361s-0.162,1.288-0.291,2.042l-0.389,2.723
			c-1.754,10.588-3.767,21.931-6.037,34.032c-2.272,12.102-4.479,24.048-6.621,35.846h27.065L300.246,869.155z"/>
		<path style="fill:#272525;" d="M342.486,1008.834h7.663V855.693h-7.663v-6.658h10.282l51.861,145.019l1.843,6.184l-0.292-7.599
			l0.519-136.945h-7.468v-6.658h18.235v6.658h-8.05l-0.519,159.762l-54.482-151.678l-1.746-5.23l0.194,6.647v143.64h7.857v6.659
			h-18.235V1008.834z"/>
		<path style="fill:#272525;" d="M476.537,1008.834h7.373v-56.183c-4.011-16.278-7.972-32.438-11.883-48.477
			c-3.913-16.042-7.874-32.2-11.882-48.481h-6.791v-6.658h18.237v6.658h-8.149c3.492,14.39,6.984,28.584,10.477,42.576
			c3.492,13.993,6.951,28.183,10.379,42.569l1.164,6.407h0.097l1.067-6.407l20.758-85.146h-7.954v-6.658h18.14v6.658h-6.888
			c-3.945,16.281-7.89,32.481-11.834,48.6s-7.891,32.319-11.834,48.595v55.946h7.663v6.659h-18.14V1008.834z"/>
		<path style="fill:#272525;" d="M524.358,932.42c0-11.473,0.905-22.288,2.716-32.446c1.81-10.153,4.283-18.992,7.421-26.515
			c3.136-7.52,6.806-13.49,11.01-17.909c4.202-4.419,8.696-6.629,13.483-6.629c4.783,0,9.294,2.21,13.53,6.629
			c4.234,4.419,7.921,10.39,11.059,17.909c3.136,7.522,5.626,16.361,7.469,26.515c1.843,10.158,2.765,20.974,2.765,32.446
			c0,11.479-0.922,22.253-2.765,32.331c-1.843,10.082-4.333,18.88-7.469,26.398c-3.138,7.524-6.824,13.452-11.059,17.793
			c-4.236,4.343-8.747,6.513-13.53,6.513c-4.787,0-9.281-2.17-13.483-6.513c-4.204-4.341-7.874-10.269-11.01-17.793
			c-3.138-7.519-5.611-16.316-7.421-26.398C525.264,954.673,524.358,943.898,524.358,932.42z M527.074,932.652
			c0,10.512,0.84,20.407,2.521,29.681c1.681,9.275,3.945,17.354,6.79,24.234c2.846,6.878,6.191,12.326,10.04,16.347
			c3.847,4.02,7.97,6.028,12.367,6.028c4.396,0,8.552-2.009,12.465-6.028c3.911-4.021,7.338-9.507,10.282-16.464
			c2.942-6.955,5.27-15.075,6.983-24.35c1.713-9.273,2.571-19.166,2.571-29.681c0-10.509-0.841-20.441-2.521-29.797
			c-1.683-9.354-3.978-17.509-6.888-24.466c-2.91-6.953-6.321-12.478-10.233-16.579c-3.914-4.094-8.067-6.145-12.464-6.145
			c-4.4,0-8.537,2.051-12.417,6.145c-3.88,4.102-7.26,9.626-10.137,16.579c-2.878,6.957-5.158,15.112-6.839,24.466
			C527.914,911.979,527.074,921.986,527.074,932.652z"/>
		<path style="fill:#272525;" d="M600.6,849.035h18.236v6.583h-8.051v104.069c0,7.971,0.485,15.002,1.456,21.099
			c0.969,6.093,2.327,11.21,4.072,15.351c1.747,4.14,3.816,7.302,6.209,9.493c2.392,2.189,5.011,3.28,7.856,3.28
			s5.464-1.091,7.857-3.28c2.392-2.191,4.462-5.354,6.207-9.493c1.747-4.141,3.12-9.258,4.123-15.351
			c1.003-6.097,1.504-13.128,1.504-21.099V855.618h-8.052v-6.583h18.237v6.583h-7.47v104.939c0,8.924-0.566,16.83-1.697,23.714
			c-1.132,6.885-2.7,12.637-4.705,17.254c-2.005,4.618-4.381,8.102-7.128,10.449c-2.75,2.343-5.71,3.519-8.877,3.519
			c-3.233,0-6.208-1.176-8.923-3.519c-2.718-2.348-5.062-5.831-7.033-10.449c-1.974-4.617-3.524-10.369-4.657-17.254
			c-1.131-6.884-1.697-14.79-1.697-23.714V855.618H600.6V849.035z"/>
	</g>
</g>
<g id="Guides">
</g>
</svg>
