<?xml version="1.0" encoding="iso-8859-1"?>
<!-- Generator: Adobe Illustrator 15.1.0, SVG Export Plug-In . SVG Version: 6.00 Build 0)  -->
<!DOCTYPE svg PUBLIC "-//W3C//DTD SVG 1.1//EN" "http://www.w3.org/Graphics/SVG/1.1/DTD/svg11.dtd">
<svg version="1.1" xmlns="http://www.w3.org/2000/svg" xmlns:xlink="http://www.w3.org/1999/xlink" x="0px" y="0px" width="792px"
	 height="1224px" viewBox="0 0 792 1224" style="enable-background:new 0 0 792 1224;" xml:space="preserve">
<g id="Layer_1">
	<g>
		<path style="fill:#272525;" d="M132.268,349.207c3.69,0,5.988-0.625,6.895-1.881c0.905-1.253,1.444-2.592,1.619-4.016
			c0.173-1.423,0.261-3.151,0.261-5.185v-107.96c0-4.405-0.383-7.149-1.149-8.234c-1.393-1.896-3.936-2.847-7.625-2.847v-11.182
			h28.048c22.494,0,36.021,14.369,40.584,43.103c1.392,8.946,2.089,18.553,2.089,28.82c0,10.268-0.522,19.282-1.567,27.042
			c-1.044,7.761-2.507,14.623-4.387,20.585c-3.587,11.319-8.506,19.638-14.755,24.957c-6.25,5.322-13.224,7.98-20.918,7.98h-29.093
			V349.207z M162.509,349.105c17.897,0,26.847-22.703,26.847-68.111c0-19.381-2.473-34.716-7.417-46
			c-4.945-11.284-12.31-16.926-22.094-16.926h-7.051v131.038H162.509z"/>
		<path style="fill:#272525;" d="M211.137,284.146c0-12.541,1.009-23.681,3.029-33.418c2.019-9.736,4.735-17.774,8.148-24.111
			c6.72-12.476,15.304-18.714,25.75-18.714s19.029,6.14,25.75,18.417c7.451,13.533,11.178,32.643,11.178,57.331
			c0,24.689-3.421,43.651-10.264,56.886c-6.842,13.236-15.73,19.853-26.664,19.853c-10.899,0-19.778-6.699-26.638-20.1
			C214.566,326.889,211.137,308.174,211.137,284.146z M248.221,347.517c6.093,0,11.212-4.291,15.356-12.873
			c5.223-10.825,7.835-27.294,7.835-49.41c0-22.113-2.229-38.385-6.686-48.816c-4.458-10.429-10.063-15.645-16.818-15.645
			c-6.721,0-12.266,5.199-16.636,15.595c-4.37,10.397-6.555,25.993-6.555,46.786c0,29.903,4.317,49.608,12.953,59.114
			C240.838,345.768,244.355,347.517,248.221,347.517z"/>
		<path style="fill:#272525;" d="M331.634,345.742c13.823,0,20.735-16.485,20.735-49.458v-66.412c0-4.347-0.383-7.056-1.149-8.126
			c-1.393-1.872-3.935-2.809-7.626-2.809v-11.035h26.534v11.035c-3.308,0-5.467,0.62-6.477,1.855
			c-1.01,1.239-1.653,2.559-1.932,3.963c-0.28,1.404-0.418,3.11-0.418,5.116l0.052,65.308c0,32.839-6.059,53.305-18.177,61.396
			c-3.865,2.541-7.591,3.812-11.177,3.812c-3.587,0-6.59-0.486-9.01-1.455c-2.419-0.968-4.744-2.523-6.972-4.665
			c-4.876-4.681-8.758-11.771-11.648-21.269c-2.891-9.495-4.335-21.769-4.335-36.817v-66.312c0-4.279-0.384-6.988-1.149-8.126
			c-1.289-1.872-3.656-2.809-7.104-2.809v-11.035h29.249v11.035c-3.517,0-5.806,0.62-6.868,1.855
			c-1.062,1.239-1.742,2.559-2.037,3.963c-0.296,1.404-0.444,3.11-0.444,5.116v68.418c0,16.119,1.897,28.057,5.693,35.814
			C321.17,341.864,325.922,345.742,331.634,345.742z"/>
		<path style="fill:#272525;" d="M382.403,328.904c-1.742-5.678-3.1-12.218-4.074-19.624c-0.975-7.404-1.462-14.975-1.462-22.712
			c0-7.736,0.322-14.726,0.967-20.969c0.644-6.242,1.626-12.218,2.951-17.931c2.82-12.153,7.121-21.866,12.901-29.138
			c5.78-7.272,12.883-10.908,21.31-10.908s15.442,3.984,21.05,11.953c5.606,7.97,8.409,17.7,8.409,29.188
			c0,7.837-1.638,13.117-4.91,15.839c-1.01,0.864-2.089,1.294-3.238,1.294c-2.229,0-4.04-1.327-5.432-3.984
			c-1.393-2.655-2.09-5.743-2.09-9.264c0-7.039,1.48-11.887,4.44-14.544c-1.394-5.579-3.761-9.977-7.104-13.199
			c-3.343-3.22-6.773-4.831-10.29-4.831c-7.417,0-13.467,5.279-18.149,15.838c-4.685,10.559-7.026,26.383-7.026,47.466
			c0,21.086,2.437,37.142,7.312,48.165c4.875,11.024,10.794,16.536,17.759,16.536c5.676,0,10.072-2.722,13.189-8.168
			c3.115-5.445,4.674-11.438,4.674-17.98c0-6.54-0.783-10.659-2.351-12.353c-1.566-1.693-5.153-2.54-10.76-2.54v-13.249h23.922
			v65.248h-6.999l-1.932-11.954c-2.996,5.977-7.626,10.161-13.894,12.552c-2.299,0.929-4.91,1.395-7.835,1.395
			s-5.894-0.615-8.906-1.843c-3.012-1.228-5.894-3.138-8.644-5.728c-2.751-2.59-5.301-5.91-7.652-9.961
			C386.19,339.448,384.145,334.583,382.403,328.904z"/>
		<path style="fill:#272525;" d="M457.303,349.207c3.309,0,5.467-0.625,6.477-1.881c1.01-1.253,1.653-2.592,1.933-4.016
			c0.278-1.423,0.418-3.151,0.418-5.185l-0.052-107.96c0-4.405-0.384-7.149-1.149-8.234c-1.393-1.896-3.936-2.847-7.626-2.847
			v-11.182h29.406v11.182c-3.309,0-5.467,0.628-6.477,1.881c-1.011,1.255-1.654,2.592-1.933,4.016
			c-0.279,1.423-0.418,3.151-0.418,5.185v118.431h18.02c5.571,0,9.402-5.929,11.491-17.79l2.089-11.487l7.208,0.102l-3.604,40.968
			h-55.783V349.207z"/>
		<path style="fill:#272525;" d="M519.615,349.207c2.89,0,5.074-0.864,6.555-2.592c1.479-1.729,2.619-4.557,3.421-8.489
			l28.205-130.224h8.932l25.802,130.224c0.94,4.338,1.985,7.269,3.134,8.793c1.149,1.525,3.396,2.288,6.738,2.288v11.182h-32.227
			v-11.182c4.597,0,7.32-0.61,8.174-1.83c0.853-1.22,1.253-2.542,1.202-3.965c-0.053-1.423-0.288-3.184-0.706-5.286l-4.7-25.516
			h-30.347l-5.38,25.516c-0.802,4.066-0.557,6.931,0.731,8.59c1.287,1.662,4.3,2.491,9.036,2.491v11.182h-28.57V349.207z
			 M572.107,301.427l-12.118-65.875l-13.841,65.875H572.107z"/>
		<path style="fill:#272525;" d="M646.642,226.715c-1.812-4.619-5.686-6.931-11.622-6.931c-5.938,0-10.037,3.762-12.3,11.288
			c-0.767,2.575-1.149,5.743-1.149,9.506c0,6.931,1.637,13.268,4.909,19.011c2.159,3.829,5.146,7.757,8.958,11.783
			c3.813,4.027,7.025,7.625,9.637,10.792c9.854,11.882,14.781,24.888,14.781,39.013c0,12.543-2.428,22.214-7.286,29.012
			c-4.857,6.8-11.143,10.199-18.855,10.199s-13.894-2.887-18.542-8.664c-4.648-5.775-6.973-12.409-6.973-19.902
			c0-7.491,1.584-12.558,4.753-15.199c0.975-0.856,2.037-1.287,3.186-1.287c2.194,0,3.996,1.386,5.406,4.158
			c1.411,2.773,2.115,6.272,2.115,10.497c0,4.225-1.011,7.822-3.029,10.793c2.716,5.149,7.217,7.723,13.502,7.723
			s10.595-4.026,12.927-12.08c0.836-2.773,1.254-6.006,1.254-9.704c0-6.402-1.741-12.343-5.223-17.824
			c-1.811-2.836-4.867-6.518-9.167-11.041c-4.301-4.52-7.687-8.3-10.159-11.337c-9.088-11.09-13.632-24.16-13.632-39.211
			c0-11.749,2.341-21.254,7.024-28.517c4.684-7.261,10.481-10.892,17.394-10.892c6.911,0,12.587,2.806,17.027,8.417
			c4.439,5.612,6.659,12.443,6.659,20.497c0,4.357-0.704,8.005-2.115,10.941c-1.41,2.938-3.194,4.407-5.354,4.407
			c-3.309,0-5.607-2.739-6.895-8.219c-0.384-1.649-0.574-3.399-0.574-5.248C643.299,233.614,644.413,229.621,646.642,226.715z"/>
	</g>
	<g>
		<path style="fill:#272525;" d="M163.977,502.161c9.412,0,15.357-9.108,17.838-27.326h6.454c0,4.899-0.627,9.722-1.882,14.464
			c-1.255,4.745-3.019,8.968-5.289,12.674c-5.02,8.292-11.474,12.438-19.362,12.438c-7.889,0-14.642-5.526-20.259-16.583
			c-6.514-12.752-9.771-31.41-9.771-55.973c0-19.599,2.51-36.12,7.53-49.564c3.555-9.61,8.292-16.302,14.208-20.071
			c3.048-1.945,6.394-2.92,10.04-2.92c7.201,0,13.117,3.472,17.749,10.412c4.631,6.942,6.947,15.659,6.947,26.149
			c0,7.854-1.465,13.131-4.393,15.831c-0.867,0.818-1.808,1.225-2.824,1.225c-3.137,0-5.244-2.794-6.319-8.386
			c-0.329-1.758-0.493-3.848-0.493-6.266c0-2.417,0.329-4.806,0.986-7.162c0.657-2.356,1.524-4.161,2.6-5.418
			c-2.42-9.736-6.753-14.605-12.998-14.605c-6.245,0-11.324,4.98-15.238,14.935c-3.915,9.958-5.872,24.909-5.872,44.854
			c0,19.946,1.987,35.147,5.961,45.607C153.563,496.931,158.359,502.161,163.977,502.161z"/>
		<path style="fill:#272525;" d="M198.533,441.91c0-11.886,0.866-22.442,2.6-31.671c1.732-9.227,4.063-16.844,6.992-22.851
			c5.766-11.823,13.132-17.735,22.096-17.735s16.329,5.818,22.096,17.454c6.394,12.825,9.591,30.937,9.591,54.334
			c0,23.398-2.936,41.369-8.807,53.911c-5.871,12.544-13.498,18.814-22.88,18.814c-9.353,0-16.972-6.349-22.858-19.049
			C201.475,482.418,198.533,464.682,198.533,441.91z M230.354,501.967c5.229,0,9.621-4.065,13.177-12.199
			c4.482-10.26,6.723-25.868,6.723-46.826c0-20.957-1.913-36.377-5.737-46.264c-3.825-9.883-8.636-14.827-14.432-14.827
			c-5.767,0-10.525,4.927-14.275,14.78c-3.75,9.853-5.625,24.633-5.625,44.339c0,28.339,3.705,47.015,11.115,56.022
			C224.02,500.31,227.038,501.967,230.354,501.967z"/>
		<path style="fill:#272525;" d="M301.931,500.286c11.862,0,17.794-15.623,17.794-46.872v-62.94c0-4.119-0.33-6.686-0.986-7.702
			c-1.195-1.772-3.377-2.662-6.543-2.662v-10.458h22.768v10.458c-2.84,0-4.691,0.587-5.558,1.76
			c-0.868,1.173-1.42,2.424-1.659,3.755c-0.239,1.33-0.359,2.947-0.359,4.848l0.046,61.894c0,31.122-5.199,50.517-15.597,58.186
			c-3.317,2.407-6.515,3.612-9.591,3.612c-3.078,0-5.656-0.46-7.732-1.378c-2.077-0.917-4.072-2.392-5.983-4.421
			c-4.184-4.436-7.515-11.155-9.995-20.156c-2.48-8.999-3.72-20.63-3.72-34.893v-62.844c0-4.055-0.33-6.622-0.986-7.702
			c-1.106-1.772-3.137-2.662-6.095-2.662v-10.458h25.099v10.458c-3.019,0-4.983,0.587-5.894,1.76
			c-0.912,1.173-1.495,2.424-1.748,3.755c-0.254,1.33-0.381,2.947-0.381,4.848v64.841c0,15.276,1.628,26.59,4.885,33.942
			C292.951,496.61,297.03,500.286,301.931,500.286z"/>
		<path style="fill:#272525;" d="M340.52,503.569c3.137,0,5.094-0.592,5.872-1.783c0.776-1.188,1.239-2.457,1.389-3.806
			c0.149-1.349,0.224-2.986,0.224-4.913V390.752c0-4.174-0.329-6.775-0.986-7.804c-1.195-1.797-3.377-2.698-6.543-2.698v-10.597
			h24.516c12.251,0,20.214,7.321,23.889,21.966c1.464,5.78,2.196,12.766,2.196,20.955s-0.762,15.27-2.286,21.243
			c-4.153,16.058-12.431,24.086-24.83,24.086c-0.568,0-1.136-0.031-1.703-0.096h-4.168v30.444c0,3.275,0.082,5.91,0.247,7.9
			c0.164,1.992,0.754,3.726,1.77,5.203c1.015,1.478,4.153,2.216,9.412,2.216v10.597H340.52V503.569z M363.064,448.172
			c5.558,0,9.815-2.97,12.773-8.912c2.958-5.94,4.438-14.917,4.438-26.928c0-14.644-2.839-24.438-8.516-29.384
			c-2.032-1.797-4.497-2.698-7.395-2.698h-6.274v67.922H363.064z"/>
		<path style="fill:#272525;" d="M397.396,503.569c2.839,0,4.69-0.592,5.558-1.783c0.866-1.188,1.419-2.457,1.658-3.806
			c0.239-1.349,0.358-2.986,0.358-4.913l-0.044-102.315c0-4.174-0.33-6.775-0.986-7.804c-1.195-1.797-3.377-2.698-6.544-2.698
			v-10.597h25.233v10.597c-2.839,0-4.691,0.595-5.558,1.783c-0.867,1.189-1.419,2.457-1.658,3.806
			c-0.239,1.348-0.358,2.986-0.358,4.913V502.99h15.463c4.779,0,8.067-5.619,9.859-16.859l1.793-10.886l6.186,0.096l-3.093,38.825
			h-47.867V503.569z"/>
		<path style="fill:#272525;" d="M450.865,503.569c2.479,0,4.354-0.819,5.625-2.457c1.27-1.638,2.248-4.319,2.936-8.044
			l24.202-123.414h7.664l22.141,123.414c0.807,4.111,1.703,6.888,2.689,8.334c0.986,1.445,2.913,2.167,5.781,2.167v10.597H494.25
			v-10.597c3.944,0,6.282-0.579,7.014-1.734c0.732-1.156,1.076-2.409,1.032-3.757c-0.046-1.349-0.247-3.018-0.605-5.01
			l-4.034-24.182h-26.04L467,493.067c-0.688,3.854-0.479,6.568,0.628,8.141c1.104,1.575,3.689,2.361,7.753,2.361v10.597h-24.516
			V503.569z M495.908,458.288l-10.397-62.429l-11.878,62.429H495.908z"/>
		<path style="fill:#272525;" d="M525.221,503.376c2.928,0,4.824-0.609,5.691-1.831c0.867-1.219,1.427-2.519,1.681-3.902
			c0.254-1.38,0.381-3.035,0.381-4.961V391.137c0-4.174-0.358-6.807-1.075-7.9c-1.195-1.862-3.422-2.794-6.678-2.794v-10.79h15.462
			l38.455,104.917v-83.433c0-4.239-0.344-6.872-1.03-7.9c-1.195-1.862-3.406-2.794-6.634-2.794v-10.79h22.589v10.79
			c-2.929,0-4.825,0.611-5.691,1.83c-0.867,1.221-1.428,2.522-1.681,3.902c-0.255,1.382-0.382,3.034-0.382,4.961v123.029h-5.513
			l-40.65-110.89v89.406c0,4.176,0.358,6.809,1.075,7.9c1.194,1.864,3.436,2.794,6.723,2.794v10.79h-22.723V503.376z"/>
		<path style="fill:#272525;" d="M599.396,503.569c3.166,0,5.139-0.592,5.916-1.783c0.776-1.188,1.239-2.457,1.39-3.806
			c0.149-1.349,0.224-2.986,0.224-4.913V390.752c0-4.174-0.329-6.775-0.986-7.804c-1.194-1.797-3.377-2.698-6.543-2.698v-10.597
			h24.067c19.302,0,30.91,13.617,34.825,40.849c1.194,8.479,1.793,17.582,1.793,27.313s-0.448,18.274-1.345,25.627
			c-0.896,7.355-2.151,13.859-3.765,19.509c-3.078,10.728-7.299,18.611-12.662,23.652c-5.363,5.043-11.347,7.562-17.95,7.562
			h-24.964V503.569z M625.347,503.473c15.357,0,23.037-21.517,23.037-64.549c0-18.369-2.122-32.901-6.364-43.595
			c-4.243-10.694-10.562-16.041-18.959-16.041h-6.05v124.186H625.347z"/>
	</g>
	<g>
		<path style="fill:#272525;" d="M142.974,545.779c-1.036-4.386-2.26-7.378-3.677-8.981c-1.417-1.601-3.947-2.402-7.591-2.402
			v-11.488h39.472v11.488c-5.938,0-9.424,0.626-10.458,1.879c-1.036,1.253-1.53,2.611-1.484,4.073
			c0.044,1.462,0.292,3.273,0.742,5.43l19.027,96.602l24.426-119.472h8.839l24.898,119.054l18.555-96.184
			c0.225-1.253,0.337-2.731,0.337-4.438c0-1.705-0.821-3.29-2.463-4.752c-1.643-1.462-5.072-2.193-10.29-2.193v-11.488h34.884
			v11.488c-3.374,0-5.961,0.854-7.759,2.559c-1.8,1.707-3.127,4.647-3.981,8.824l-27.664,133.78h-8.771l-24.965-114.355
			L181.029,679.56h-7.895L142.974,545.779z"/>
		<path style="fill:#272525;" d="M280.417,601.146c0-12.897,1.304-24.354,3.914-34.369c2.608-10.013,6.117-18.28,10.526-24.797
			c8.681-12.831,19.77-19.246,33.265-19.246c13.495,0,24.582,6.314,33.264,18.941c9.625,13.918,14.439,33.572,14.439,58.962
			c0,25.392-4.419,44.892-13.258,58.504c-8.839,13.613-20.321,20.418-34.445,20.418c-14.08,0-25.551-6.89-34.412-20.672
			C284.847,645.105,280.417,625.858,280.417,601.146z M328.324,666.321c7.871,0,14.483-4.413,19.837-13.238
			c6.747-11.134,10.121-28.071,10.121-50.815c0-22.744-2.879-39.477-8.637-50.205c-5.759-10.726-13-16.09-21.727-16.09
			c-8.682,0-15.846,5.346-21.49,16.039c-5.646,10.693-8.468,26.731-8.468,48.117c0,30.755,5.577,51.02,16.734,60.795
			C318.787,664.524,323.331,666.321,328.324,666.321z"/>
		<path style="fill:#272525;" d="M467.859,666.609c3.509,0,5.264-6.266,5.264-18.798h6.478c0.494,2.506,0.742,4.699,0.742,6.58
			c0,1.879-0.023,3.917-0.067,6.108c-0.046,2.194-0.585,5.064-1.62,8.616c-2.474,8.354-7.107,12.532-13.899,12.532
			s-11.571-2.646-14.339-7.938c-2.765-5.289-4.733-10.669-5.903-16.136c-1.17-5.464-2.115-10.249-2.834-14.358
			c-2.069-11.21-3.734-18.521-4.993-21.932c-2.294-6.543-5.421-9.816-9.378-9.816h-14.845v39.998c0,3.551,0.111,6.406,0.337,8.563
			c0.226,2.158,1.023,4.038,2.396,5.64c1.372,1.603,5.566,2.401,12.584,2.401v11.488h-41.766v-11.488
			c4.723,0,7.668-0.643,8.839-1.933c1.169-1.286,1.866-2.662,2.091-4.124c0.225-1.462,0.337-3.237,0.337-5.326V545.779
			c0-4.524-0.496-7.344-1.484-8.459c-1.799-1.948-5.084-2.924-9.851-2.924v-11.488h41.429c22.131,0,34.434,10.584,36.907,31.748
			c0.405,3.482,0.607,7.555,0.607,12.219c0,10.025-2.035,18.572-6.106,25.639c-4.071,7.066-9.614,12.166-16.632,15.299
			c6.072,2.855,10.594,10.375,13.562,22.558c0.988,3.968,2.068,9.086,3.238,15.352s2.114,10.584,2.834,12.95
			C463.361,663.964,465.386,666.609,467.859,666.609z M427.511,601.025c7.691,0,13.134-2.872,16.328-8.617
			c3.194-5.742,4.791-14.027,4.791-24.854c0-10.825-1.867-19.059-5.601-24.698c-3.734-5.639-10.279-8.459-19.635-8.459h-10.931
			v66.629H427.511z"/>
		<path style="fill:#272525;" d="M541.068,668.071c9.761-0.348,12.506-5.604,8.232-15.77l-20.715-51.276l-16.599,24.96l0.067,30.703
			c0,4.527,0.495,7.347,1.484,8.459c1.71,1.949,4.948,2.924,9.717,2.924v11.488h-37.785v-11.488c4.273,0,7.061-0.643,8.366-1.933
			c1.305-1.286,2.136-2.662,2.497-4.124c0.359-1.462,0.539-3.237,0.539-5.326l-0.067-110.909c0-4.524-0.495-7.344-1.484-8.459
			c-1.799-1.948-5.084-2.924-9.851-2.924v-11.488h37.785v11.488c-4.274,0-7.041,0.645-8.3,1.932
			c-1.259,1.29-2.069,2.663-2.429,4.125c-0.36,1.462-0.54,3.237-0.54,5.326v62.452l40.147-62.243
			c2.473-3.689,2.788-6.543,0.944-8.563c-1.846-2.018-4.903-3.028-9.177-3.028v-11.488h36.099v11.488
			c-3.014,0.279-5.499,1.167-7.455,2.663c-1.958,1.498-4.061,3.986-6.31,7.467l-27.731,41.669l27.934,66.315
			c2.249,5.571,4.645,9.557,7.187,11.958c2.541,2.402,5.499,3.603,8.872,3.603c0.314,0,0.607,0,0.878,0v11.488h-42.307V668.071z"/>
		<path style="fill:#272525;" d="M642.684,542.526c-2.339-4.768-7.344-7.154-15.013-7.154c-7.67,0-12.966,3.884-15.89,11.651
			c-0.99,2.658-1.484,5.928-1.484,9.812c0,7.155,2.114,13.696,6.342,19.624c2.789,3.952,6.647,8.008,11.572,12.163
			c4.926,4.157,9.075,7.871,12.449,11.141c12.729,12.266,19.095,25.69,19.095,40.271c0,12.948-3.137,22.931-9.413,29.946
			c-6.274,7.02-14.395,10.529-24.357,10.529c-9.964,0-17.947-2.979-23.954-8.942c-6.004-5.964-9.007-12.812-9.007-20.546
			c0-7.733,2.047-12.964,6.14-15.688c1.259-0.885,2.632-1.33,4.116-1.33c2.834,0,5.162,1.432,6.983,4.294
			c1.822,2.862,2.733,6.475,2.733,10.834c0,4.36-1.306,8.074-3.914,11.141c3.509,5.314,9.322,7.973,17.442,7.973
			c8.118,0,13.686-4.154,16.699-12.47c1.08-2.862,1.619-6.199,1.619-10.016c0-6.608-2.25-12.741-6.747-18.398
			c-2.339-2.929-6.287-6.729-11.841-11.396c-5.557-4.668-9.931-8.57-13.124-11.704c-11.74-11.448-17.611-24.939-17.611-40.475
			c0-12.128,3.025-21.941,9.075-29.437c6.05-7.495,13.54-11.243,22.47-11.243c8.928,0,16.26,2.897,21.996,8.688
			c5.734,5.793,8.603,12.846,8.603,21.157c0,4.498-0.91,8.264-2.733,11.295c-1.82,3.033-4.126,4.548-6.915,4.548
			c-4.274,0-7.243-2.827-8.907-8.484c-0.495-1.701-0.742-3.508-0.742-5.417C638.365,549.648,639.805,545.526,642.684,542.526z"/>
	</g>
	<g>
		<path style="fill:#272525;" d="M131.706,828.822c3.73,0,6.164-0.623,7.304-1.871c1.138-1.244,1.864-2.576,2.179-3.99
			c0.313-1.415,0.471-3.134,0.471-5.155l-0.059-107.325c0-4.379-0.433-7.107-1.296-8.186c-1.571-1.886-4.438-2.83-8.599-2.83
			v-11.117h33.102v11.117c-3.731,0-6.165,0.624-7.303,1.87c-1.14,1.246-1.866,2.577-2.18,3.991
			c-0.315,1.415-0.471,3.133-0.471,5.154v45.174h43.88V710.48c0-4.379-0.433-7.107-1.296-8.186c-1.571-1.886-4.438-2.83-8.599-2.83
			v-11.117h33.102v11.117c-3.731,0-6.165,0.624-7.304,1.87c-1.139,1.246-1.865,2.577-2.179,3.991
			c-0.315,1.415-0.471,3.133-0.471,5.154l0.059,107.325c0,4.381,0.432,7.109,1.296,8.187c1.57,1.886,4.437,2.83,8.599,2.83v11.115
			h-33.102v-11.115c3.73,0,6.164-0.623,7.304-1.871c1.138-1.244,1.864-2.576,2.179-3.99c0.313-1.415,0.471-3.134,0.471-5.155
			l-0.059-49.014h-43.88l0.059,49.014c0,4.381,0.432,7.109,1.296,8.187c1.57,1.886,4.437,2.83,8.599,2.83v11.115h-33.102V828.822z"
			/>
		<path style="fill:#272525;" d="M225.474,828.822c3.259,0,5.722-0.86,7.392-2.577c1.668-1.72,2.954-4.531,3.858-8.439
			l31.806-129.458h10.072l29.097,129.458c1.06,4.312,2.238,7.228,3.534,8.741c1.296,1.517,3.829,2.275,7.598,2.275v11.115h-36.341
			v-11.115c5.183,0,8.255-0.607,9.218-1.819c0.962-1.213,1.414-2.526,1.355-3.941c-0.059-1.415-0.324-3.167-0.795-5.256
			l-5.301-25.366h-34.221l-6.067,25.366c-0.904,4.042-0.628,6.891,0.825,8.539c1.452,1.652,4.849,2.478,10.19,2.478v11.115h-32.218
			V828.822z M284.668,781.324l-13.665-65.487l-15.608,65.487H284.668z"/>
		<path style="fill:#272525;" d="M394.987,827.407c3.062,0,4.594-6.063,4.594-18.191h5.654c0.433,2.426,0.649,4.548,0.649,6.367
			s-0.021,3.79-0.061,5.911c-0.039,2.124-0.51,4.901-1.413,8.338c-2.16,8.085-6.204,12.128-12.133,12.128
			s-10.101-2.561-12.517-7.681c-2.414-5.12-4.132-10.324-5.153-15.615c-1.021-5.287-1.846-9.918-2.474-13.895
			c-1.806-10.848-3.259-17.921-4.358-21.223c-2.002-6.332-4.732-9.499-8.187-9.499h-12.958v38.706c0,3.435,0.097,6.199,0.293,8.286
			c0.196,2.088,0.894,3.907,2.091,5.457c1.198,1.551,4.859,2.325,10.985,2.325v11.115h-36.458v-11.115
			c4.123,0,6.694-0.623,7.716-1.871c1.021-1.244,1.629-2.576,1.826-3.99c0.196-1.415,0.294-3.134,0.294-5.155V710.48
			c0-4.379-0.433-7.107-1.296-8.186c-1.571-1.886-4.438-2.83-8.599-2.83v-11.117h36.164c19.319,0,30.059,10.242,32.219,30.723
			c0.354,3.37,0.529,7.312,0.529,11.824c0,9.701-1.776,17.973-5.331,24.811c-3.553,6.839-8.392,11.773-14.518,14.805
			c5.301,2.764,9.247,10.04,11.838,21.829c0.864,3.841,1.806,8.792,2.827,14.855s1.845,10.242,2.474,12.532
			C391.061,824.847,392.828,827.407,394.987,827.407z M359.765,763.94c6.714,0,11.466-2.778,14.253-8.337
			c2.788-5.558,4.183-13.575,4.183-24.053c0-10.475-1.63-18.443-4.89-23.9s-8.973-8.186-17.139-8.186h-9.542v64.476H359.765z"/>
		<path style="fill:#272525;" d="M410.36,828.822c4.162,0,6.753-0.623,7.775-1.871c1.021-1.244,1.629-2.576,1.825-3.99
			c0.197-1.415,0.295-3.134,0.295-5.155V710.48c0-4.379-0.433-7.107-1.296-8.186c-1.57-1.886-4.438-2.83-8.6-2.83v-11.117h31.63
			c25.365,0,40.62,14.285,45.765,42.85c1.57,8.894,2.356,18.444,2.356,28.65c0,10.209-0.589,19.169-1.768,26.882
			c-1.178,7.715-2.827,14.538-4.947,20.465c-4.045,11.253-9.592,19.522-16.64,24.811c-7.048,5.29-14.911,7.933-23.589,7.933H410.36
			V828.822z M444.464,828.721c20.182,0,30.274-22.57,30.274-67.711c0-19.267-2.789-34.513-8.364-45.729
			c-5.575-11.219-13.88-16.827-24.914-16.827h-7.951v130.267H444.464z"/>
		<path style="fill:#272525;" d="M498.887,828.822c3.809,0,6.264-0.607,7.363-1.819c1.099-1.213,1.805-2.509,2.12-3.893
			c0.313-1.379,0.471-3.081,0.471-5.103V710.48c0-4.177-0.727-7.057-2.179-8.642c-1.453-1.581-4.025-2.374-7.716-2.374v-11.117
			h64.083l2.297,36.685l-8.541,0.102l-1.59-11.42c-0.786-5.457-1.591-8.893-2.415-10.308c-1.453-2.492-3.907-3.74-7.362-3.74
			h-23.324v58.817h11.427c4.437,0,7.156-0.505,8.157-1.516c1.002-1.01,1.688-2.459,2.062-4.346c0.373-1.885,0.56-4.613,0.56-8.186
			h7.657v39.11h-7.657c0-6.267-0.717-10.157-2.15-11.672c-1.434-1.518-4.309-2.275-8.628-2.275h-11.427v59.223h25.032
			c4.555,0,7.577-2.628,9.07-7.884c0.472-1.616,0.942-3.3,1.414-5.052l2.65-12.431h8.54l-2.297,36.481h-67.617V828.822z"/>
		<path style="fill:#272525;" d="M649.199,827.407c3.062,0,4.594-6.063,4.594-18.191h5.655c0.432,2.426,0.647,4.548,0.647,6.367
			s-0.021,3.79-0.059,5.911c-0.039,2.124-0.511,4.901-1.414,8.338c-2.159,8.085-6.205,12.128-12.133,12.128
			c-5.93,0-10.102-2.561-12.517-7.681c-2.414-5.12-4.133-10.324-5.153-15.615c-1.022-5.287-1.847-9.918-2.475-13.895
			c-1.806-10.848-3.26-17.921-4.358-21.223c-2.002-6.332-4.732-9.499-8.187-9.499h-12.958v38.706c0,3.435,0.097,6.199,0.294,8.286
			c0.196,2.088,0.894,3.907,2.091,5.457c1.197,1.551,4.859,2.325,10.985,2.325v11.115h-36.459v-11.115
			c4.123,0,6.694-0.623,7.716-1.871c1.021-1.244,1.629-2.576,1.826-3.99c0.196-1.415,0.294-3.134,0.294-5.155V710.48
			c0-4.379-0.433-7.107-1.296-8.186c-1.57-1.886-4.438-2.83-8.599-2.83v-11.117h36.164c19.319,0,30.059,10.242,32.218,30.723
			c0.354,3.37,0.53,7.312,0.53,11.824c0,9.701-1.777,17.973-5.33,24.811c-3.554,6.839-8.394,11.773-14.519,14.805
			c5.301,2.764,9.247,10.04,11.839,21.829c0.862,3.841,1.805,8.792,2.827,14.855c1.021,6.063,1.845,10.242,2.474,12.532
			C645.272,824.847,647.04,827.407,649.199,827.407z M613.978,763.94c6.714,0,11.465-2.778,14.253-8.337
			c2.788-5.558,4.183-13.575,4.183-24.053c0-10.475-1.63-18.443-4.889-23.9c-3.26-5.457-8.974-8.186-17.14-8.186h-9.542v64.476
			H613.978z"/>
	</g>
	<g>
		<path style="fill:#272525;" d="M148.544,1003.339c3.471,0,5.775-0.686,6.913-2.059c1.136-1.369,1.874-2.834,2.212-4.391
			c0.337-1.558,0.507-3.448,0.507-5.673V861.662h-9.448c-5.069,0-7.973,6.487-8.71,19.462l-1.337,22.574l-6.682-0.111l2.028-54.825
			h58.667l2.027,54.825l-6.682,0.111l-1.336-22.574c-0.338-6.006-0.999-10.27-1.981-12.79c-1.782-4.447-4.026-6.672-6.729-6.672
			h-9.448v129.555c0,4.672,0.637,7.858,1.913,9.565c1.274,1.706,3.848,2.557,7.719,2.557v12.233h-29.633V1003.339z"/>
		<path style="fill:#272525;" d="M198.409,1003.339c2.918,0,4.823-0.686,5.714-2.059c0.891-1.369,1.458-2.834,1.705-4.391
			c0.245-1.558,0.369-3.448,0.369-5.673l-0.046-118.1c0-4.82-0.339-7.823-1.014-9.009c-1.229-2.075-3.472-3.113-6.728-3.113v-12.233
			h25.9v12.233c-2.919,0-4.824,0.687-5.715,2.059c-0.891,1.37-1.459,2.834-1.705,4.391c-0.247,1.558-0.369,3.447-0.369,5.673v49.708
			h34.334v-49.708c0-4.82-0.339-7.823-1.014-9.009c-1.229-2.075-3.473-3.113-6.729-3.113v-12.233h25.9v12.233
			c-2.919,0-4.824,0.687-5.714,2.059c-0.892,1.37-1.46,2.834-1.706,4.391c-0.247,1.558-0.369,3.447-0.369,5.673l0.046,118.1
			c0,4.821,0.338,7.824,1.014,9.009c1.229,2.076,3.472,3.113,6.729,3.113v12.233h-25.9v-12.233c2.918,0,4.823-0.686,5.714-2.059
			c0.891-1.369,1.459-2.834,1.706-4.391c0.246-1.558,0.369-3.448,0.369-5.673l-0.046-53.935H216.52l0.046,53.935
			c0,4.821,0.338,7.824,1.014,9.009c1.228,2.076,3.471,3.113,6.729,3.113v12.233h-25.9V1003.339z"/>
		<path style="fill:#272525;" d="M271.777,1003.339c2.55,0,4.478-0.945,5.784-2.834c1.306-1.893,2.312-4.986,3.019-9.288
			l24.886-142.455h7.88l22.767,142.455c0.83,4.745,1.751,7.952,2.765,9.619c1.014,1.67,2.996,2.503,5.945,2.503v12.233h-28.435
			v-12.233c4.056,0,6.459-0.668,7.212-2.002s1.106-2.78,1.061-4.336c-0.047-1.558-0.254-3.484-0.623-5.784l-4.147-27.912h-26.776
			l-4.747,27.912c-0.707,4.449-0.492,7.582,0.645,9.397c1.136,1.817,3.794,2.725,7.973,2.725v12.233h-25.208V1003.339z
			 M318.093,951.072l-10.692-72.062l-12.212,72.062H318.093z"/>
		<path style="fill:#272525;" d="M348.232,1003.116c3.011,0,4.961-0.704,5.854-2.112c0.891-1.407,1.466-2.909,1.728-4.503
			s0.392-3.504,0.392-5.729V873.561c0-4.818-0.369-7.856-1.106-9.119c-1.229-2.149-3.518-3.224-6.867-3.224v-12.456h15.9
			l39.542,121.104v-96.306c0-4.893-0.354-7.933-1.061-9.119c-1.229-2.149-3.502-3.224-6.82-3.224v-12.456h23.228v12.456
			c-3.012,0-4.962,0.705-5.854,2.112c-0.892,1.409-1.467,2.911-1.728,4.503c-0.262,1.596-0.392,3.504-0.392,5.728v142.012h-5.669
			l-41.8-128v103.2c0,4.821,0.369,7.859,1.106,9.12c1.229,2.15,3.533,3.224,6.913,3.224v12.456h-23.366V1003.116z"/>
		<path style="fill:#272525;" d="M470.452,1003.339c3.472,0,5.768-0.686,6.89-2.059c1.121-1.369,1.844-2.834,2.167-4.391
			c0.321-1.558,0.483-3.448,0.483-5.673l-0.046-31.582l-19.265-86.518c-1.044-4.522-2.104-7.451-3.181-8.786
			c-1.812-2.225-4.116-3.336-6.912-3.336v-12.233h26.684v12.233c-2.949,0-4.678,0.891-5.185,2.669s-0.284,4.931,0.668,9.453
			l13.688,67.836l14.379-67.836c0.983-4.522,1.183-7.413,0.6-8.676c-1.045-2.295-3.58-3.446-7.604-3.446v-12.233h23.827v12.233
			c-2.275,0-4.141,0.928-5.6,2.78c-1.461,1.853-2.682,4.967-3.664,9.342l-18.527,82.181v35.919c0,4.672,0.615,7.858,1.844,9.565
			c1.229,1.706,3.779,2.557,7.65,2.557v12.233h-28.896V1003.339z"/>
		<path style="fill:#272525;" d="M519.165,932.187c0-13.697,0.891-25.863,2.672-36.497c1.782-10.635,4.178-19.413,7.19-26.334
			c5.929-13.624,13.502-20.437,22.72-20.437s16.79,6.704,22.72,20.113c6.574,14.779,9.863,35.65,9.863,62.612
			c0,26.965-3.02,47.674-9.057,62.126c-6.037,14.456-13.879,21.683-23.526,21.683c-9.617,0-17.451-7.315-23.503-21.953
			C522.189,978.866,519.165,958.429,519.165,932.187z M551.886,1001.396c5.376,0,9.893-4.686,13.548-14.059
			c4.609-11.822,6.914-29.81,6.914-53.96c0-24.152-1.967-41.923-5.899-53.314c-3.933-11.39-8.879-17.086-14.84-17.086
			c-5.929,0-10.822,5.679-14.679,17.031c-3.855,11.355-5.783,28.388-5.783,51.097c0,32.657,3.81,54.178,11.43,64.56
			C545.371,999.486,548.475,1001.396,551.886,1001.396z"/>
		<path style="fill:#272525;" d="M625.484,999.442c12.196,0,18.296-18.022,18.296-54.065v-72.598c0-4.753-0.339-7.715-1.014-8.884
			c-1.229-2.046-3.473-3.07-6.729-3.07v-12.063h23.411v12.063c-2.92,0-4.823,0.677-5.715,2.03c-0.892,1.352-1.459,2.795-1.704,4.33
			c-0.247,1.536-0.37,3.399-0.37,5.594l0.047,71.393c0,35.897-5.346,58.27-16.037,67.115c-3.411,2.776-6.699,4.166-9.863,4.166
			c-3.165,0-5.814-0.53-7.95-1.591c-2.135-1.059-4.187-2.757-6.152-5.1c-4.302-5.114-7.727-12.867-10.277-23.248
			c-2.55-10.381-3.825-23.798-3.825-40.247v-72.488c0-4.678-0.338-7.64-1.014-8.884c-1.137-2.046-3.226-3.07-6.268-3.07v-12.063
			h25.809v12.063c-3.104,0-5.124,0.677-6.06,2.03c-0.938,1.352-1.538,2.795-1.798,4.33c-0.263,1.536-0.393,3.399-0.393,5.594v74.792
			c0,17.618,1.675,30.67,5.023,39.15C616.251,995.204,620.445,999.442,625.484,999.442z"/>
	</g>
</g>
<g id="Guides">
</g>
</svg>
