<?xml version="1.0" encoding="iso-8859-1"?>
<!-- Generator: Adobe Illustrator 15.1.0, SVG Export Plug-In . SVG Version: 6.00 Build 0)  -->
<!DOCTYPE svg PUBLIC "-//W3C//DTD SVG 1.1//EN" "http://www.w3.org/Graphics/SVG/1.1/DTD/svg11.dtd">
<svg version="1.1" xmlns="http://www.w3.org/2000/svg" xmlns:xlink="http://www.w3.org/1999/xlink" x="0px" y="0px" width="792px"
	 height="1224px" viewBox="0 0 792 1224" style="enable-background:new 0 0 792 1224;" xml:space="preserve">
<g id="Layer_1">
	<g>
		<path style="fill:#272525;" d="M132.706,209.42v-1.17h40.325c12.998,0,24.385,1.17,34.157,36.089
			c3.132,11.314,4.65,25.944,4.65,40.575c0,16.972-1.993,33.749-5.314,45.647c-8.445,30.237-20.685,30.433-31.88,30.433h-41.938
			v-1.17h0.664c10.057,0,10.626-5.853,10.626-22.629V232.049c0-16.775-0.569-22.629-10.626-22.629H132.706z M165.82,209.42v127.774
			c0,18.337,0.57,22.629,7.4,22.629c3.321,0,7.117-1.367,8.35-2.537c6.072-6.047,6.452-25.944,6.452-74.324
			c0-35.503-0.095-51.89-3.985-63.399c-3.131-9.363-8.445-10.145-12.714-10.145H165.82z"/>
		<path style="fill:#272525;" d="M253.792,361.202c-20.685,0-36.909-35.112-36.909-76.489c0-41.375,16.224-76.487,36.909-76.487
			s37.004,35.112,37.004,76.487C290.795,326.089,274.476,361.202,253.792,361.202z M267.36,271.998
			c0-28.851-0.854-62.636-13.664-62.636c-12.808,0-13.662,33.785-13.662,62.636v12.714v12.717c0,28.66,0.854,62.253,13.662,62.253
			c12.81,0,13.664-33.594,13.664-62.253v-12.717V271.998z"/>
		<path style="fill:#272525;" d="M346.185,353.867c-4.269,5.008-10.248,7.127-16.319,7.127c-7.401,0-14.896-3.081-19.64-8.476
			c-8.541-9.63-9.014-20.995-9.014-37.175v-83.595c0-16.564-0.569-22.344-10.627-22.344h-0.664v-1.155h44.405v1.155h-0.57
			c-10.058,0-10.722,5.78-10.722,22.344v88.412c0,19.455,0.19,24.655,4.364,29.47c2.277,2.503,6.357,4.044,10.342,4.044
			c3.701,0,7.497-1.348,9.773-3.851c5.978-6.936,6.546-14.255,6.546-33.709v-72.231c0-22.151-0.474-34.479-11.955-34.479v-1.155
			h24.669v1.155c-11.481,0-11.955,12.328-11.955,34.479v73C354.819,336.147,354.534,344.044,346.185,353.867z"/>
		<path style="fill:#272525;" d="M435.654,360.237c-0.568-5.802-1.896-15.663-9.392-15.663c-8.825,0-12.431,18.37-25.619,18.37
			c-14.327,0-35.865-23.978-35.865-70.58c0-18.37,3.132-44.668,12.714-62.652c7.685-14.502,15.845-22.044,24.763-22.044
			c13.663,0,16.604,13.149,22.013,13.149c3.226,0,6.737-4.06,7.021-12.762h0.76v61.49h-0.569
			c-0.19-23.204-11.291-60.331-27.042-60.331c-1.991,0-3.984,0.773-5.406,2.707c-8.92,11.796-10.532,41.575-10.532,81.023
			c0,26.877,0.189,56.657,9.107,66.325c1.141,1.161,2.943,1.741,4.744,1.741c9.869,0,12.146-11.409,12.146-28.813v-26.684
			c0-14.502-1.613-18.757-10.627-18.757v-1.354h41.179v1.354h-1.232c-6.834,0-7.495,6.574-7.495,18.757v54.723H435.654z"/>
		<path style="fill:#272525;" d="M490.436,356.507c10.154-9.364,16.321-22.629,17.176-63.204h0.664v67.691h-65.184v-1.17h0.568
			c10.058,0,10.721-5.853,10.721-22.629V232.049c0-16.775-0.663-22.629-10.721-22.629h-0.568v-1.17h44.403v1.17h-0.663
			c-10.058,0-10.626,5.854-10.626,22.629v105.146c0,20.483,0.378,22.433,4.743,22.433
			C484.745,359.627,488.255,358.652,490.436,356.507z"/>
		<path style="fill:#272525;" d="M557.08,359.627c3.605,0,5.692-1.561,5.692-7.997c0-4.488-1.043-10.145-1.896-15.607l-5.978-38.429
			h-20.4c-1.992,12.29-4.27,25.358-4.27,36.868c0,5.854,0.57,11.314,2.089,15.996c3.035,9.365,8.253,9.365,12.236,9.365v1.17
			h-32.922v-1.17c11.29,0,15.466-21.068,19.071-43.698l17.362-107.876h15.751l22.202,138.309
			c1.708,10.533,3.985,13.265,9.109,13.265v1.17h-42.223v-1.17h4.079L557.08,359.627z M554.612,296.035l-9.486-64.766
			l-10.438,64.766H554.612z"/>
		<path style="fill:#272525;" d="M600.089,357.786h-0.568v-65.618h0.568c0,18.965,4.84,37.359,11.575,49.688
			c5.313,9.861,11.859,15.93,18.218,15.93c9.867,0,12.43-16.12,12.43-26.171c0-19.914-10.152-25.412-16.319-28.827l-5.503-3.033
			c-10.059-5.501-21.538-16.499-21.538-43.81c0-7.207,0.947-14.793,2.846-21.429c3.604-12.708,15.371-26.931,25.616-26.931
			c4.462,0,7.309,1.707,9.68,3.604c2.847,2.276,5.124,4.551,8.823,4.551c2.941,0,5.884-0.948,6.168-8.535h0.664v54.43h-0.568
			c0-11.758-1.803-22.758-7.875-37.361c-4.746-11.568-10.816-15.361-15.941-15.361c-3.984,0-6.927,1.896-9.678,9.861
			c-1.043,3.225-1.518,7.965-1.518,12.329c0,22.568,11.289,26.55,14.896,28.256l4.461,2.087c5.692,2.654,23.244,9.103,23.244,45.894
			c0,11.949-2.181,24.844-7.589,35.085c-6.547,12.516-11.956,16.878-20.59,16.878c-11.195,0-21.159-10.242-26.093-10.242
			C603.126,349.062,601.038,350.959,600.089,357.786z"/>
	</g>
	<g>
		<path style="fill:#272525;" d="M183.672,381.463c5.127,0,5.789-7.1,6.286-10.557h0.496v68.623h-0.496
			c-0.662-16.382-7.278-55.152-16.542-64.984c-1.323-1.457-4.714-3.821-7.857-3.821c-1.571,0-3.143,0.544-4.301,2.365
			c-7.443,11.469-8.27,41.866-8.27,59.341v21.48c0,24.393,2.481,60.07,16.292,60.07c3.97,0,8.105-2.733,11-6.373
			c9.925-12.742,11.249-36.404,12.489-51.512h0.497c-1.406,20.567-3.474,41.319-13.233,53.151c-3.639,4.369-8.519,6.37-13.564,6.37
			c-6.947,0-14.308-3.64-19.353-10.009c-11.331-14.38-15.218-39.504-15.218-58.436c0-21.476,4.962-51.331,16.292-66.257
			c2.895-3.824,9.925-11.466,16.541-11.466C174.822,369.449,178.13,381.463,183.672,381.463z"/>
		<path style="fill:#272525;" d="M229.852,514.667c-18.03,0-32.172-33.333-32.172-72.615c0-39.275,14.143-72.611,32.172-72.611
			s32.254,33.335,32.254,72.611C262.106,481.334,247.882,514.667,229.852,514.667z M241.679,429.982
			c0-27.387-0.745-59.46-11.909-59.46c-11.165,0-11.91,32.073-11.91,59.46v12.07v12.076c0,27.206,0.745,59.098,11.91,59.098
			c11.165,0,11.909-31.892,11.909-59.098v-12.076V429.982z"/>
		<path style="fill:#272525;" d="M310.387,507.503c-3.722,4.753-8.932,6.762-14.225,6.762c-6.451,0-12.984-2.925-17.12-8.042
			c-7.443-9.138-7.856-19.918-7.856-35.271V391.64c0-15.72-0.497-21.203-9.263-21.203h-0.579v-1.095h38.706v1.095h-0.496
			c-8.767,0-9.346,5.483-9.346,21.203v83.883c0,18.459,0.166,23.394,3.804,27.962c1.985,2.375,5.542,3.837,9.015,3.837
			c3.226,0,6.534-1.282,8.519-3.655c5.21-6.581,5.707-13.522,5.707-31.981V403.15c0-21.014-0.414-32.713-10.42-32.713v-1.095h21.503
			v1.095c-10.007,0-10.42,11.699-10.42,32.713v69.265C317.914,490.692,317.666,498.185,310.387,507.503z"/>
		<path style="fill:#272525;" d="M369.403,514.254v1.12h-38.706v-1.12h0.496c8.767,0,9.346-5.593,9.346-21.631V392.097
			c0-16.042-1.158-21.638-9.346-21.638h-0.496v-1.118h33.661c8.105,0,16.707,0.747,22.661,21.447
			c1.654,5.97,2.647,13.428,2.647,20.89c0,22.192-9.511,38.42-19.104,40.469c-1.902,0.374-3.474,0.561-4.963,0.561
			c-2.15,0-3.97-0.373-6.12-0.935v40.849c0,16.038,0.579,21.631,9.346,21.631H369.403z M371.222,399.367
			c-0.083-10.628-0.248-19.396-2.729-24.428c-1.406-2.8-3.639-4.479-7.029-4.479h-1.985v80.011c1.406,0.374,2.895,0.747,4.218,0.747
			c2.067,0,3.639-0.93,4.796-2.985c2.15-3.728,2.729-10.63,2.729-20.517V399.367z"/>
		<path style="fill:#272525;" d="M428.526,511.085c8.851-8.952,14.227-21.635,14.97-60.427h0.58v64.716h-56.819v-1.12h0.496
			c8.767,0,9.347-5.593,9.347-21.631V392.097c0-16.042-0.58-21.638-9.347-21.638h-0.496v-1.118h38.705v1.118h-0.578
			c-8.767,0-9.263,5.595-9.263,21.638v100.526c0,19.582,0.329,21.445,4.136,21.445C423.564,514.068,426.624,513.138,428.526,511.085
			z"/>
		<path style="fill:#272525;" d="M486.616,514.068c3.144,0,4.963-1.492,4.963-7.646c0-4.29-0.909-9.699-1.654-14.92l-5.209-36.741
			h-17.783c-1.736,11.747-3.722,24.245-3.722,35.247c0,5.595,0.498,10.819,1.82,15.293c2.646,8.952,7.194,8.952,10.67,8.952v1.12
			h-28.699v-1.12c9.842,0,13.481-20.142,16.623-41.775l15.135-103.137h13.73l19.351,132.232c1.489,10.072,3.475,12.68,7.941,12.68
			v1.12h-36.805v-1.12h3.557L486.616,514.068z M484.467,453.268l-8.271-61.918l-9.097,61.918H484.467z"/>
		<path style="fill:#272525;" d="M522.667,370.459v-1.118h30.271l23.984,105.935v-70.875c0-24.245-1.737-33.943-9.676-33.943h-0.829
			v-1.118h21.587v1.118h-0.909c-7.941,0-9.511,9.698-9.511,33.943v110.972H562.53l-29.359-128.312v93.249
			c0,24.245,1.57,33.943,9.511,33.943h0.91v1.12h-21.587v-1.12h0.828c7.939,0,9.676-9.698,9.676-33.943v-88.213
			c0-16.042-0.496-21.638-9.264-21.638H522.667z"/>
		<path style="fill:#272525;" d="M590.334,370.459v-1.118h35.148c11.332,0,21.256,1.118,29.775,34.502
			c2.728,10.819,4.053,24.806,4.053,38.794c0,16.228-1.738,32.266-4.633,43.641c-7.361,28.91-18.03,29.095-27.788,29.095h-36.556
			v-1.12h0.578c8.769,0,9.264-5.593,9.264-21.631V392.097c0-16.042-0.495-21.638-9.264-21.638H590.334z M619.197,370.459v122.164
			c0,17.53,0.496,21.631,6.452,21.631c2.895,0,6.202-1.304,7.278-2.422c5.292-5.783,5.623-24.806,5.623-71.06
			c0-33.941-0.082-49.61-3.473-60.615c-2.73-8.952-7.361-9.698-11.083-9.698H619.197z"/>
	</g>
	<g>
		<path style="fill:#272525;" d="M171.465,532.004c0,3.197,0.625,6.793,1.751,13.389l14.26,85.321l8.63-49.954l-5.754-40.764
			c-1.751-12.188-2.501-15.186-7.88-15.785v-1.201h43.281v1.201c-3.127,0.199-7.13,0.199-7.13,6.596c0,3.194,0.75,7.99,1.5,13.385
			l13.509,87.123l9.757-57.35c2.001-11.587,3.127-20.382,3.127-27.573c0-7.796-1.376-13.589-4.503-18.584
			c-0.501-0.8-2.877-3.597-8.131-3.597v-1.201h29.521v1.201c-10.758,1.199-14.135,19.78-17.012,36.966l-20.014,118.297h-15.261
			l-14.635-95.917l-16.387,95.917h-13.634L143.07,537.6c-1.626-9.594-2.502-13.389-11.258-13.389v-1.201h46.407v1.201
			C172.967,524.211,171.465,528.807,171.465,532.004z"/>
		<path style="fill:#272525;" d="M305.029,680.284c-27.269,0-48.659-36.056-48.659-78.545c0-42.491,21.39-78.547,48.659-78.547
			s48.784,36.056,48.784,78.547C353.813,644.229,332.298,680.284,305.029,680.284z M322.917,588.681
			c0-29.627-1.126-64.319-18.013-64.319c-16.886,0-18.012,34.692-18.012,64.319v13.058v13.06c0,29.43,1.126,63.927,18.012,63.927
			c16.887,0,18.013-34.497,18.013-63.927v-13.06V588.681z"/>
		<path style="fill:#272525;" d="M448.339,672.278c4.502,0,7.38-14.387,7.38-33.568c0-2.799-0.127-5.396-0.376-7.595h0.876
			c0.249,1.8,0.374,4.595,0.374,7.795c0,0.201,0,17.183-2.751,26.774c-1.751,6.194-4.629,15.784-17.762,15.784
			c-5.131,0-10.633-1.994-15.262-7.39c-4.503-5.395-5.88-14.786-5.88-27.178c0-5.196,0.625-17.98,0.625-24.577
			c0-22.582-4.753-24.378-13.635-24.378h-5.377v57.148c0,17.184,1.625,23.181,11.884,23.181h1.499v1.199h-57.038v-1.199h0.876
			c13.259,0,14.009-5.997,14.009-23.181V547.39c0-17.184-0.75-23.179-14.009-23.179h-0.876v-1.201h49.534
			c10.633,0,30.522,0.601,39.652,21.182c2.377,5.196,3.378,10.991,3.378,16.587c0,3.195-0.376,6.394-1.001,9.19
			c-4.755,20.182-19.765,24.38-27.52,27.778c5.004,1.995,13.76,4.395,19.765,10.987c7.629,8.392,8.256,22.38,8.256,33.973v19.38
			C444.961,668.885,445.586,672.278,448.339,672.278z M402.055,596.748c8.007,0,12.635-1.401,14.886-12.392
			c0.376-2.194,0.751-9.391,0.751-17.583c0-13.389-0.751-29.972-3.127-34.969c-3.127-6.994-7.63-7.593-13.635-7.593h-4.378v72.537
			H402.055z"/>
		<path style="fill:#272525;" d="M456.391,524.211v-1.201h57.162v1.201h-0.874c-11.258,0-12.76,5.995-12.76,23.179v47.357
			l16.136-24.777c8.507-12.985,14.637-21.979,14.637-32.37c0-6.793-2.002-13.189-10.758-13.389v-1.201h42.154v1.201
			c-16.638,0.799-31.146,23.579-43.531,44.36l37.902,91.318c5.253,12.589,7.13,18.386,17.637,18.386h0.251v1.199h-57.164v-1.199
			h0.625c4.503,0,6.254-4.196,6.254-7.794c0-5.395-2.752-13.39-5.254-19.783l-18.889-46.758v51.154
			c0,17.184,1.252,23.181,13.009,23.181h0.625v1.199h-57.162v-1.199h0.749c13.26,0,14.134-5.997,14.134-23.181V547.39
			c0-17.184-0.874-23.179-14.134-23.179H456.391z"/>
		<path style="fill:#272525;" d="M581.047,677.923h-0.75v-68.014h0.75c0,19.657,6.381,38.725,15.261,51.501
			c7.006,10.222,15.636,16.513,24.016,16.513c13.011,0,16.389-16.71,16.389-27.127c0-20.642-13.386-26.34-21.518-29.878
			l-7.253-3.145c-13.26-5.7-28.394-17.102-28.394-45.406c0-7.471,1.25-15.331,3.75-22.212c4.755-13.169,20.265-27.911,33.773-27.911
			c5.879,0,9.633,1.766,12.76,3.733c3.752,2.358,6.755,4.717,11.634,4.717c3.877,0,7.755-0.983,8.131-8.843h0.874v56.413h-0.749
			c0-12.187-2.378-23.59-10.384-38.725c-6.254-11.988-14.259-15.92-21.015-15.92c-5.252,0-9.131,1.965-12.758,10.22
			c-1.377,3.343-2.002,8.257-2.002,12.777c0,23.391,14.886,27.52,19.639,29.288l5.88,2.164c7.505,2.75,30.646,9.435,30.646,47.565
			c0,12.386-2.878,25.751-10.006,36.365c-8.632,12.974-15.762,17.494-27.145,17.494c-14.761,0-27.895-10.613-34.399-10.613
			C585.05,668.88,582.299,670.843,581.047,677.923z"/>
	</g>
	<g>
		<path style="fill:#272525;" d="M167.519,712.13v43.143h27.13V712.13c0-16.712-0.513-22.541-11.407-22.541h-0.308v-1.168h47.582
			v1.168h-0.719c-10.894,0-11.613,5.829-11.613,22.541v104.744c0,16.712,0.719,22.543,11.613,22.543h0.719v1.167h-47.582v-1.167
			h0.308c10.894,0,11.407-5.831,11.407-22.543v-60.048h-27.13v60.048c0,16.712,0.411,22.543,11.304,22.543h0.412v1.167h-47.582
			v-1.167h0.719c10.893,0,11.51-5.831,11.51-22.543V712.13c0-16.712-0.617-22.541-11.51-22.541h-0.719v-1.168h47.582v1.168h-0.412
			C167.93,689.589,167.519,695.418,167.519,712.13z"/>
		<path style="fill:#272525;" d="M282.502,839.224c3.906,0,6.167-1.558,6.167-7.967c0-4.472-1.131-10.105-2.056-15.548
			l-6.474-38.283h-22.095c-2.158,12.243-4.625,25.26-4.625,36.728c0,5.831,0.616,11.271,2.261,15.937
			c3.288,9.327,8.941,9.327,13.257,9.327v1.167h-35.66v-1.167c12.229,0,16.751-20.989,20.656-43.529l18.806-107.467h17.06
			l24.048,137.783c1.85,10.492,4.316,13.213,9.866,13.213v1.167H277.98v-1.167h4.419L282.502,839.224z M279.83,775.873
			l-10.276-64.518l-11.305,64.518H279.83z"/>
		<path style="fill:#272525;" d="M404.938,833.586c3.701,0,6.064-13.99,6.064-32.646c0-2.722-0.104-5.246-0.309-7.385h0.72
			c0.204,1.75,0.308,4.469,0.308,7.581c0,0.194,0,16.708-2.261,26.039c-1.438,6.023-3.802,15.35-14.593,15.35
			c-4.214,0-8.735-1.94-12.538-7.188c-3.7-5.247-4.831-14.379-4.831-26.43c0-5.054,0.514-17.487,0.514-23.902
			c0-21.962-3.905-23.708-11.201-23.708h-4.419v55.577c0,16.712,1.336,22.543,9.763,22.543h1.233v1.167h-46.862v-1.167h0.719
			c10.893,0,11.51-5.831,11.51-22.543V712.13c0-16.712-0.617-22.541-11.51-22.541h-0.719v-1.168h40.696
			c8.735,0,25.076,0.584,32.577,20.599c1.952,5.054,2.775,10.689,2.775,16.132c0,3.107-0.309,6.219-0.823,8.937
			c-3.904,19.629-16.237,23.711-22.608,27.016c4.11,1.939,11.304,4.273,16.237,10.688c6.269,8.162,6.783,21.764,6.783,33.036v18.849
			C402.164,830.284,402.678,833.586,404.938,833.586z M366.914,760.131c6.577,0,10.38-1.362,12.23-12.051
			c0.308-2.135,0.616-9.133,0.616-17.1c0-13.019-0.616-29.147-2.569-34.009c-2.569-6.801-6.269-7.383-11.201-7.383h-3.597v70.542
			H366.914z"/>
		<path style="fill:#272525;" d="M411.225,689.589v-1.168H454.9c14.078,0,26.412,1.168,36.997,35.951
			c3.39,11.274,5.036,25.847,5.036,40.423c0,16.904-2.161,33.617-5.756,45.475c-9.147,30.12-22.405,30.314-34.53,30.314h-45.423
			v-1.167h0.719c10.894,0,11.51-5.831,11.51-22.543V712.13c0-16.712-0.616-22.541-11.51-22.541H411.225z M447.09,689.589v127.285
			c0,18.27,0.617,22.543,8.017,22.543c3.597,0,7.707-1.362,9.043-2.526c6.578-6.023,6.987-25.845,6.987-74.042
			c0-35.366-0.101-51.689-4.315-63.155c-3.391-9.328-9.146-10.104-13.771-10.104H447.09z"/>
		<path style="fill:#272525;" d="M538.365,839.224c4.933,0,9.969-0.973,12.435-3.107c10.996-9.331,17.575-22.546,18.601-62.968
			h0.618v67.436h-73.377v-1.167h0.618c10.893,0,11.611-5.831,11.611-22.543V712.13c0-16.712-0.719-22.541-11.611-22.541h-0.618
			v-1.168h69.676v58.3h-0.614c0-16.323-3.495-34.977-13.154-48c-5.756-7.771-10.688-9.132-20.041-9.132v69.374
			c9.765,0,14.799-6.025,18.188-22.345c0.31-1.751,1.028-8.747,1.028-15.158h0.721v76.563h-0.721c0-6.218-0.719-13.408-1.028-14.964
			c-3.39-16.515-8.424-22.735-18.188-22.735v56.55C532.508,837.666,533.33,839.224,538.365,839.224z"/>
		<path style="fill:#272525;" d="M653.402,833.586c3.697,0,6.061-13.99,6.061-32.646c0-2.722-0.102-5.246-0.308-7.385h0.72
			c0.205,1.75,0.309,4.469,0.309,7.581c0,0.194,0,16.708-2.261,26.039c-1.44,6.023-3.804,15.35-14.594,15.35
			c-4.214,0-8.733-1.94-12.538-7.188c-3.697-5.247-4.829-14.379-4.829-26.43c0-5.054,0.514-17.487,0.514-23.902
			c0-21.962-3.906-23.708-11.202-23.708h-4.418v55.577c0,16.712,1.335,22.543,9.762,22.543h1.234v1.167h-46.863v-1.167h0.72
			c10.895,0,11.511-5.831,11.511-22.543V712.13c0-16.712-0.616-22.541-11.511-22.541h-0.72v-1.168h40.697
			c8.736,0,25.073,0.584,32.578,20.599c1.952,5.054,2.774,10.689,2.774,16.132c0,3.107-0.308,6.219-0.822,8.937
			c-3.906,19.629-16.238,23.711-22.611,27.016c4.113,1.939,11.307,4.273,16.238,10.688c6.27,8.162,6.784,21.764,6.784,33.036v18.849
			C650.627,830.284,651.139,833.586,653.402,833.586z M615.377,760.131c6.578,0,10.379-1.362,12.228-12.051
			c0.309-2.135,0.618-9.133,0.618-17.1c0-13.019-0.618-29.147-2.569-34.009c-2.569-6.801-6.268-7.383-11.202-7.383h-3.596v70.542
			H615.377z"/>
	</g>
	<g>
		<g>
			<path style="fill:#272525;" d="M184.354,1013.799v1.273h-41.317v-1.273h0.53c9.357,0,9.977-6.365,9.977-24.621V850.139
				c-7.24,0.638-13.332,15.283-17.217,30.994c-3.178,12.52-4.149,23.562-4.149,37.147h-0.529v-69.414h64.094v69.414h-0.53
				c0-13.586-1.059-24.628-4.149-37.147c-3.884-15.711-10.065-30.356-17.215-30.994v139.039c0,18.256,0.529,24.621,9.888,24.621
				H184.354z"/>
			<path style="fill:#272525;" d="M229.756,874.764v47.123h23.308v-47.123c0-18.256-0.441-24.625-9.799-24.625h-0.266v-1.272h40.876
				v1.272h-0.618c-9.358,0-9.976,6.369-9.976,24.625v114.414c0,18.256,0.618,24.621,9.976,24.621h0.618v1.273h-40.876v-1.273h0.266
				c9.358,0,9.799-6.365,9.799-24.621v-65.592h-23.308v65.592c0,18.256,0.354,24.621,9.711,24.621h0.354v1.273h-40.875v-1.273h0.617
				c9.358,0,9.888-6.365,9.888-24.621V874.764c0-18.256-0.529-24.625-9.888-24.625h-0.617v-1.272h40.875v1.272h-0.354
				C230.11,850.139,229.756,856.508,229.756,874.764z"/>
			<path style="fill:#272525;" d="M328.535,1013.588c3.355,0,5.297-1.699,5.297-8.703c0-4.88-0.971-11.038-1.765-16.981
				l-5.562-41.82h-18.981c-1.854,13.374-3.973,27.598-3.973,40.123c0,6.366,0.53,12.31,1.942,17.403
				c2.825,10.189,7.68,10.189,11.389,10.189v1.273h-30.635v-1.273c10.506,0,14.39-22.923,17.746-47.549l16.155-117.384h14.655
				l20.658,150.498c1.59,11.464,3.708,14.435,8.476,14.435v1.273h-39.287v-1.273h3.796L328.535,1013.588z M326.241,944.388
				l-8.83-70.473l-9.711,70.473H326.241z"/>
			<path style="fill:#272525;" d="M367.018,850.139v-1.272h32.31l25.604,120.569v-80.665c0-27.595-1.855-38.632-10.33-38.632h-0.883
				v-1.272h23.042v1.272h-0.972c-8.477,0-10.15,11.037-10.15,38.632v126.302H409.57l-31.34-146.04v106.136
				c0,27.594,1.677,38.631,10.152,38.631h0.972v1.273h-23.043v-1.273h0.883c8.476,0,10.329-11.037,10.329-38.631V874.764
				c0-18.256-0.529-24.625-9.887-24.625H367.018z"/>
		</g>
		<g>
			<path style="fill:#272525;" d="M462.801,864.576c-3-11.252-6.266-14.015-9.888-14.438v-1.272h41.317v1.272
				c-5.299,0-7.414,1.487-7.414,7.219c0,4.456,1.233,11.25,3.088,19.317l10.328,45.851l4.593-20.591
				c2.208-9.767,5.386-23.353,5.386-34.39c0-15.496-5.914-16.346-8.477-17.406v-1.272h24.454v1.272
				c-6.621,1.272-10.77,7.856-16.331,32.688l-9.183,41.186v65.165c0,18.256,0.62,24.621,9.976,24.621h0.53v1.273h-41.316v-1.273
				h0.619c9.356,0,9.975-6.365,9.975-24.621v-59.439L462.801,864.576z"/>
			<path style="fill:#272525;" d="M554.307,1015.248c-19.246,0-34.344-38.188-34.344-83.19c0-45.004,15.098-83.191,34.344-83.191
				c19.244,0,34.431,38.188,34.431,83.191C588.737,977.06,573.551,1015.248,554.307,1015.248z M566.931,918.227
				c0-31.378-0.794-68.12-12.712-68.12c-11.919,0-12.714,36.742-12.714,68.12v13.831v13.83c0,31.172,0.795,67.711,12.714,67.711
				c11.918,0,12.712-36.539,12.712-67.711v-13.83V918.227z"/>
			<path style="fill:#272525;" d="M640.273,1007.365c-3.972,5.451-9.534,7.758-15.185,7.758c-6.888,0-13.86-3.354-18.276-9.224
				c-7.946-10.48-8.387-22.853-8.387-40.464v-90.991c0-18.031-0.529-24.321-9.886-24.321h-0.619v-1.257h41.316v1.257h-0.53
				c-9.356,0-9.975,6.29-9.975,24.321v96.234c0,21.171,0.177,26.833,4.061,32.077c2.118,2.727,5.914,4.4,9.623,4.4
				c3.443,0,6.974-1.465,9.094-4.192c5.562-7.545,6.091-15.513,6.091-36.689v-78.623c0-24.107-0.44-37.528-11.123-37.528v-1.257
				h22.953v1.257c-10.683,0-11.124,13.421-11.124,37.528v79.463C648.307,988.077,648.042,996.674,640.273,1007.365z"/>
		</g>
	</g>
</g>
<g id="Guides">
</g>
</svg>
