<?xml version="1.0" encoding="iso-8859-1"?>
<!-- Generator: Adobe Illustrator 15.1.0, SVG Export Plug-In . SVG Version: 6.00 Build 0)  -->
<!DOCTYPE svg PUBLIC "-//W3C//DTD SVG 1.1//EN" "http://www.w3.org/Graphics/SVG/1.1/DTD/svg11.dtd">
<svg version="1.1" xmlns="http://www.w3.org/2000/svg" xmlns:xlink="http://www.w3.org/1999/xlink" x="0px" y="0px" width="792px"
	 height="1224px" viewBox="0 0 792 1224" style="enable-background:new 0 0 792 1224;" xml:space="preserve">
<g id="Layer_1">
	<g>
		<path style="fill:#272525;" d="M195.312,338.62c-8.158,14.988-17.898,22.37-29.344,22.37h-33.97V207.981h33.97
			c11.446,0,21.186,7.605,29.344,22.593c8.158,14.987,12.298,32.883,12.298,53.911S203.471,323.632,195.312,338.62z
			 M181.798,284.709c0-7.382-1.461-14.093-4.383-20.133c-2.8-6.04-6.697-8.947-11.446-8.947h-8.157v57.937h2.557
			c5.966,0.223,11.932,0.448,16.803-8.501C180.458,299.025,181.798,291.867,181.798,284.709z"/>
		<path style="fill:#272525;" d="M287.242,338.632c-8.645,14.868-19.116,22.406-31.414,22.406c-12.297,0-22.769-7.538-31.535-22.406
			c-8.645-15.077-13.028-33.085-13.028-54.234c0-21.149,4.383-39.157,13.028-54.025c8.767-15.076,19.238-22.615,31.535-22.615
			c12.298,0,22.769,7.539,31.414,22.615c8.767,14.868,13.15,32.876,13.15,54.025C300.392,305.547,296.008,323.556,287.242,338.632z
			 M268.978,261.783c-3.653-6.281-8.036-9.422-13.15-9.422c-5.235,0-9.619,3.141-13.271,9.422
			c-3.653,6.283-5.479,13.821-5.479,22.616c0,9.005,1.826,16.542,5.479,22.824c3.653,6.283,8.036,9.423,13.271,9.423
			c5.114,0,9.497-3.141,13.15-9.423c3.775-6.282,5.601-13.819,5.601-22.824C274.579,275.604,272.753,268.065,268.978,261.783z"/>
		<path style="fill:#272525;" d="M371.137,299.785c0,16.952-3.288,31.264-9.984,43.372c-6.696,11.889-14.732,17.833-24.108,17.833
			c-9.254,0-17.898-6.605-24.108-17.833c-6.21-11.228-10.106-26.42-10.106-43.372v-92.027h25.812v92.027
			c0,3.742,0.974,7.705,2.436,10.348c1.583,2.642,3.652,4.403,5.966,4.403c4.505,0,8.158-6.604,8.158-14.75v-92.027h25.935V299.785z
			"/>
		<path style="fill:#272525;" d="M432.869,269.083c-3.044-9.537-8.645-15.39-14.976-15.39c-4.749,0-8.767,3.035-12.176,8.887
			c-3.409,5.853-5.114,13.223-5.114,21.676s1.705,15.607,5.114,21.675c3.409,6.07,7.427,9.105,12.176,9.105h2.801h2.8v-33.165
			h25.812v79.117h-31.413c-11.811,0-22.038-7.587-30.439-22.543c-8.401-14.956-12.663-33.164-12.663-54.189
			c0-21.026,4.262-39.234,12.663-54.19c8.401-14.957,18.629-22.544,30.439-22.544c7.671,0,14.854,3.469,21.551,10.405
			c6.697,6.936,12.055,16.257,15.829,28.179L432.869,269.083z"/>
		<path style="fill:#272525;" d="M497.039,360.989h-43.59V207.981h25.813v105.584h17.776V360.989z"/>
		<path style="fill:#272525;" d="M573.139,360.989l-4.384-12.008h-37.623l-4.14,12.008h-29.953l52.965-153.467l52.966,153.467
			H573.139z M553.9,305.628l-3.896-11.399l-3.896,11.399H553.9z"/>
		<path style="fill:#272525;" d="M658.252,316.356c-1.582,9.755-4.626,18.424-8.888,26.229
			c-7.062,12.572-15.464,18.858-25.448,18.858c-9.862,0-18.264-6.287-25.325-18.858l18.386-32.732
			c1.948,3.469,4.262,5.203,6.939,5.203c2.801,0,5.114-1.734,7.062-5.203c1.826-3.467,2.801-7.586,2.801-12.355
			c0-6.069-0.487-18.208-13.272-22.326c-12.906-3.903-16.803-21.894-16.803-31.431c0-19.943,9.011-35.983,20.212-35.983h22.77
			v40.535c0.974,1.3,1.826,2.601,2.557,4.118c7.062,12.572,10.593,27.529,10.593,45.086
			C659.835,304.001,659.349,310.288,658.252,316.356z"/>
	</g>
	<g>
		<path style="fill:#272525;" d="M196.588,493.372c-0.103,0.199-0.206,0.399-0.309,0.599c-7.405,14.374-16.25,21.361-26.638,21.361
			c-10.285,0-19.233-6.987-26.535-21.361c-7.405-14.374-11.108-31.542-11.108-51.706c0-20.163,3.703-37.332,11.108-51.705
			c7.302-14.374,16.25-21.361,26.535-21.361c10.388,0,19.233,6.987,26.638,21.361c0.103,0.2,0.206,0.4,0.309,0.599l-15.53,29.945
			c-0.103-0.199-0.103-0.199-0.206-0.399c-3.085-5.989-6.891-8.984-11.21-8.984s-8.125,2.995-11.211,8.984
			c-3.085,5.989-4.628,13.176-4.628,21.561c0,8.585,1.543,15.771,4.628,21.761c3.086,5.988,6.891,8.982,11.211,8.982
			s8.125-2.995,11.21-8.982c0.103-0.2,0.206-0.399,0.309-0.6L196.588,493.372z"/>
		<path style="fill:#272525;" d="M254.7,493.409c-7.302,14.148-16.147,21.321-26.535,21.321c-10.388,0-19.233-7.173-26.638-21.321
			c-7.302-14.346-11.005-31.482-11.005-51.608c0-20.125,3.703-37.262,11.005-51.41c7.405-14.347,16.25-21.521,26.638-21.521
			c10.388,0,19.233,7.173,26.535,21.521c7.405,14.148,11.108,31.285,11.108,51.41C265.808,461.926,262.105,479.063,254.7,493.409z
			 M239.273,420.279c-3.085-5.977-6.788-8.966-11.107-8.966c-4.423,0-8.125,2.989-11.211,8.966
			c-3.085,5.979-4.628,13.152-4.628,21.521c0,8.568,1.542,15.742,4.628,21.719c3.085,5.979,6.788,8.968,11.211,8.968
			c4.319,0,8.022-2.989,11.107-8.968c3.188-5.978,4.731-13.151,4.731-21.719C244.004,433.432,242.461,426.258,239.273,420.279z"/>
		<path style="fill:#272525;" d="M325.566,456.667c0,16.063-2.777,29.624-8.434,41.097c-5.656,11.265-12.444,16.898-20.364,16.898
			c-7.817,0-15.119-6.259-20.364-16.898c-5.246-10.639-8.537-25.034-8.537-41.097v-87.201h21.804v87.201
			c0,3.546,0.823,7.302,2.057,9.805c1.337,2.503,3.085,4.172,5.04,4.172c3.805,0,6.891-6.258,6.891-13.977v-87.201h21.907V456.667z"
			/>
		<path style="fill:#272525;" d="M384.707,475.661c-5.863,12.083-13.062,18.23-21.393,18.23H350.56v20.772h-21.907V369.466h34.661
			c8.331,0,15.53,6.147,21.393,18.229c5.862,12.081,8.845,26.919,8.845,44.089C393.552,448.953,390.569,463.579,384.707,475.661z
			 M363.314,414.615H350.56v34.338h12.754c4.628,0,8.331-7.842,8.331-17.168C371.645,422.246,367.942,414.615,363.314,414.615z"/>
		<path style="fill:#272525;" d="M432.43,514.663h-36.82V369.678h21.805v100.048h15.016V514.663z"/>
		<path style="fill:#272525;" d="M496.711,514.663l-3.702-11.408h-31.781l-3.497,11.408H432.43l44.739-145.793l44.74,145.793
			H496.711z M480.461,462.07l-3.292-10.828l-3.291,10.828H480.461z"/>
		<path style="fill:#272525;" d="M592.775,514.729l-48.957-62.384v62.318h-21.906V368.919l48.956,70.284v-69.736h21.907V514.729z"/>
		<path style="fill:#272525;" d="M649.447,493.466c-6.892,14.202-15.119,21.197-24.787,21.197h-28.695V369.678h28.695
			c9.668,0,17.896,7.207,24.787,21.409c6.891,14.202,10.388,31.159,10.388,51.084C659.835,462.095,656.338,479.265,649.447,493.466z
			 M638.031,442.383c0-6.995-1.234-13.354-3.703-19.077c-2.365-5.723-5.656-8.478-9.668-8.478h-6.891v54.898h2.159
			c5.04,0.212,10.08,0.424,14.193-8.054C636.899,455.948,638.031,449.166,638.031,442.383z"/>
	</g>
	<g>
		<path style="fill:#272525;" d="M302.005,522.737l-59.696,158.176l-25.308-68.915l-25.456,68.915l-59.547-158.176h36.026
			l23.224,61.914l25.754-62.139l25.604,62.139l23.373-61.914H302.005z"/>
		<path style="fill:#272525;" d="M381.507,657.299c-10.57,15.312-23.372,23.077-38.408,23.077s-27.838-7.766-38.557-23.077
			c-10.569-15.528-15.929-34.075-15.929-55.855c0-21.782,5.359-40.328,15.929-55.641c10.719-15.527,23.521-23.291,38.557-23.291
			s27.838,7.764,38.408,23.291c10.718,15.312,16.078,33.858,16.078,55.641C397.585,623.224,392.225,641.771,381.507,657.299z
			 M359.177,578.151c-4.466-6.469-9.826-9.704-16.078-9.704c-6.401,0-11.761,3.235-16.227,9.704
			c-4.465,6.471-6.699,14.233-6.699,23.292c0,9.273,2.233,17.037,6.699,23.507c4.466,6.47,9.826,9.705,16.227,9.705
			c6.252,0,11.611-3.235,16.078-9.705c4.615-6.47,6.848-14.233,6.848-23.507C366.024,592.385,363.792,584.622,359.177,578.151z"/>
		<path style="fill:#272525;" d="M476.937,686.407c-1.043,0-1.936-0.229-2.978-0.46c-2.085,0-4.169-0.459-6.253-0.918
			c-1.936-0.459-4.02-1.38-5.955-2.299c-5.358-1.839-10.569-5.058-15.482-9.195c-5.061-4.366-9.527-9.425-13.844-15.63h-0.298
			v22.526h-31.56v-157.92l50.168,0.46c12.058,0,22.33,6.666,30.965,19.769c8.484,13.102,12.802,28.962,12.802,47.812
			c0,9.195-1.19,17.701-3.424,25.975c-2.233,8.046-5.358,14.942-9.229,21.148c6.848,0,11.588-1.454,15.16-3.98l-16.947,52.941
			C479.02,686.638,477.979,686.407,476.937,686.407z M450.735,571.934h-18.608v37.239h18.608c3.274,0,6.252-1.839,8.485-5.517
			c2.381-3.679,3.572-8.045,3.572-13.103c0-5.288-1.191-9.655-3.572-13.333C456.987,573.772,454.01,571.934,450.735,571.934z"/>
		<path style="fill:#272525;" d="M589.779,649.15l-22.529,31.763l-36.869-54.501v53.974h-31.56V523.061h31.56v52.135l37.119-52.684
			l22.279,29.947l-31.263,48.23L589.779,649.15z"/>
		<path style="fill:#272525;" d="M658.559,633.915c-1.935,9.965-5.656,18.823-10.867,26.798
			c-8.634,12.844-18.905,19.265-31.113,19.265c-12.058,0-22.33-6.421-30.965-19.265l22.479-33.442
			c2.383,3.544,5.211,5.314,8.485,5.314c3.425,0,6.253-1.771,8.635-5.314c2.232-3.544,3.424-7.75,3.424-12.623
			c0-6.201-0.596-18.604-16.227-22.811c-15.78-3.987-20.544-22.368-20.544-32.112c0-20.375,11.017-36.763,24.712-36.763h27.839
			v41.413c1.19,1.329,2.232,2.658,3.126,4.208c8.635,12.845,12.951,28.126,12.951,46.064
			C660.494,621.291,659.899,627.714,658.559,633.915z"/>
	</g>
	<g>
		<path style="fill:#272525;" d="M208.026,840.664h-28.41v-52.432h-19.207v52.432h-28.411V688.479h28.411v52.431h19.207v-52.431
			h28.41V840.664z"/>
		<path style="fill:#272525;" d="M290.592,840.664l-4.802-11.908h-41.215l-4.535,11.908h-32.812l58.021-152.185l58.021,152.185
			H290.592z M269.518,785.764l-4.268-11.302l-4.269,11.302H269.518z"/>
		<path style="fill:#272525;" d="M391.7,846.439c-0.934,0-1.734-0.222-2.667-0.444c-1.868,0-3.735-0.444-5.602-0.888
			c-1.734-0.444-3.602-1.333-5.335-2.222c-4.802-1.777-9.47-4.888-13.872-8.887c-4.536-4.222-8.537-9.108-12.405-15.107h-0.267
			v21.772h-28.277V688.035l44.95,0.444c10.804,0,20.007,6.441,27.744,19.105c7.602,12.663,11.471,27.993,11.471,46.212
			c0,8.887-1.067,17.106-3.068,25.104c-2.001,7.776-4.801,14.441-8.27,20.44c6.135,0,11.471-1.778,14.672-4.223l-16.272,51.543
			C393.567,846.662,392.634,846.439,391.7,846.439z M368.225,735.801h-16.672v35.992h16.672c2.935,0,5.602-1.779,7.603-5.332
			c2.134-3.556,3.201-7.776,3.201-12.664c0-5.11-1.067-9.332-3.201-12.887C373.827,737.577,371.159,735.801,368.225,735.801z"/>
		<path style="fill:#272525;" d="M480.668,818.447c-8.937,14.885-19.607,22.217-32.145,22.217h-37.215V688.702h37.215
			c12.537,0,23.208,7.554,32.145,22.438c8.937,14.887,13.472,32.659,13.472,53.543C494.14,785.567,489.604,803.562,480.668,818.447z
			 M465.862,764.905c0-7.332-1.601-13.997-4.802-19.996c-3.067-5.998-7.336-8.887-12.537-8.887h-8.938v57.542h2.801
			c6.536,0.223,13.072,0.444,18.407-8.441C464.395,779.124,465.862,772.016,465.862,764.905z"/>
		<path style="fill:#272525;" d="M526.686,793.564h38.549v47.1h-67.092V688.702h67.092v47.32h-38.549v5.11h38.549v47.321h-38.549
			V793.564z"/>
		<path style="fill:#272525;" d="M637.662,846.439c-0.935,0-1.734-0.222-2.668-0.444c-1.868,0-3.735-0.444-5.603-0.888
			c-1.733-0.444-3.601-1.333-5.335-2.222c-4.802-1.777-9.471-4.888-13.872-8.887c-4.535-4.222-8.536-9.108-12.404-15.107h-0.267
			v21.772h-28.277V688.035l44.95,0.444c10.804,0,20.007,6.441,27.743,19.105c7.603,12.663,11.471,27.993,11.471,46.212
			c0,8.887-1.066,17.106-3.067,25.104c-2.001,7.776-4.802,14.441-8.271,20.44c6.136,0,14.672-4.223,17.874-6.666l-19.474,53.986
			C639.529,846.662,638.596,846.439,637.662,846.439z M614.187,735.801h-16.673v35.992h16.673c2.934,0,5.602-1.779,7.603-5.332
			c2.134-3.556,3.201-7.776,3.201-12.664c0-5.11-1.067-9.332-3.201-12.887C619.788,737.577,617.12,735.801,614.187,735.801z"/>
	</g>
	<g>
		<path style="fill:#272525;" d="M186.419,900.357H170.52v115.045h-22.622V900.357h-15.899v-51.564h54.42V900.357z"/>
		<path style="fill:#272525;" d="M250.445,1015.402h-22.729v-57.4h-15.366v57.4h-22.729V848.793h22.729v57.4h15.366v-57.4h22.729
			V1015.402z"/>
		<path style="fill:#272525;" d="M316.498,1015.402l-3.842-13.037h-32.972l-3.628,13.037h-26.25l46.417-166.609l46.418,166.609
			H316.498z M299.639,955.302l-3.415-12.377l-3.415,12.377H299.639z"/>
		<path style="fill:#272525;" d="M416.165,1015.451l-50.792-71.557v71.508h-22.729V848.793l50.793,80.022v-80.022h22.728V1015.451z"
			/>
		<path style="fill:#272525;" d="M529.704,848.793l-26.036,103.129v63.48h-22.622v-63.48l-26.037-103.129h26.144l11.204,44.267
			l11.205-44.267H529.704z"/>
		<path style="fill:#272525;" d="M586.475,991.047c-7.575,16.16-16.753,24.355-27.529,24.355c-10.778,0-19.954-8.195-27.637-24.355
			c-7.576-16.387-11.418-35.962-11.418-58.95c0-22.99,3.842-42.562,11.418-58.723c7.683-16.388,16.858-24.581,27.637-24.581
			c10.776,0,19.954,8.193,27.529,24.581c7.684,16.16,11.525,35.732,11.525,58.723C598,955.085,594.158,974.66,586.475,991.047z
			 M570.47,907.516c-3.201-6.83-7.043-10.242-11.524-10.242c-4.588,0-8.43,3.412-11.631,10.242
			c-3.202,6.828-4.803,15.021-4.803,24.581c0,9.787,1.601,17.979,4.803,24.809c3.201,6.83,7.043,10.243,11.631,10.243
			c4.481,0,8.323-3.413,11.524-10.243c3.309-6.829,4.909-15.021,4.909-24.809C575.379,922.537,573.778,914.344,570.47,907.516z"/>
		<path style="fill:#272525;" d="M660,948.853c0,18.434-2.882,33.993-8.751,47.159c-5.868,12.927-12.911,19.391-21.127,19.391
			c-8.11,0-15.686-7.183-21.128-19.391c-5.442-12.209-8.856-28.726-8.856-47.159v-100.06h22.622v100.06
			c0,4.071,0.853,8.38,2.134,11.251c1.387,2.874,3.201,4.788,5.229,4.788c3.947,0,7.148-7.183,7.148-16.039v-100.06H660V948.853z"/>
	</g>
</g>
<g id="Guides">
</g>
</svg>
