<?xml version="1.0" encoding="iso-8859-1"?>
<!-- Generator: Adobe Illustrator 15.1.0, SVG Export Plug-In . SVG Version: 6.00 Build 0)  -->
<!DOCTYPE svg PUBLIC "-//W3C//DTD SVG 1.1//EN" "http://www.w3.org/Graphics/SVG/1.1/DTD/svg11.dtd">
<svg version="1.1" xmlns="http://www.w3.org/2000/svg" xmlns:xlink="http://www.w3.org/1999/xlink" x="0px" y="0px" width="792px"
	 height="1224px" viewBox="0 0 792 1224" style="enable-background:new 0 0 792 1224;" xml:space="preserve">
<g id="Layer_1">
	<g>
		<path style="fill:#272525;" d="M207.222,316.305c-2.473,9.392-5.632,17.431-9.479,24.12
			c-8.065,14.016-17.911,21.024-29.538,21.024h-36.481l0.583-9.178c0.14-2.206,0.775-3.521,1.906-3.948l6.448-2.455l7.732-121.771
			c-3.447-1.352-5.492-2.17-6.136-2.455c-1.077-0.427-1.545-1.743-1.405-3.949l0.583-9.178h36.481
			c11.664,0,20.62,7.008,26.868,21.024c6.276,14.158,8.688,32.657,7.238,55.497C211.295,296.49,209.695,306.913,207.222,316.305z
			 M200.652,259.848c-0.854-7.399-2.333-13.661-4.437-18.783c-4.299-10.531-10.753-15.795-19.363-15.795h-17.771l-7.583,119.424
			h17.771c8.573,0,15.696-5.265,21.369-15.795c5.75-10.601,9.218-25.222,10.401-43.863
			C201.636,275.643,201.507,267.248,200.652,259.848z"/>
		<path style="fill:#272525;" d="M291.606,315.761c-2.484,9.406-5.656,17.502-9.516,24.286c-3.86,6.785-8.312,12.047-13.355,15.789
			c-5.043,3.742-10.472,5.613-16.285,5.613s-10.991-1.871-15.533-5.613c-4.542-3.742-8.304-9.004-11.288-15.789
			c-2.983-6.784-5.11-14.879-6.378-24.286c-1.269-9.407-1.54-19.741-0.812-31c0.728-11.26,2.333-21.593,4.817-31
			c2.484-9.407,5.657-17.52,9.52-24.338c3.862-6.82,8.307-12.117,13.334-15.894c5.027-3.777,10.447-5.666,16.261-5.666
			s10.999,1.889,15.557,5.666c4.558,3.776,8.327,9.074,11.309,15.894c2.981,6.819,5.106,14.932,6.375,24.338
			c1.269,9.407,1.54,19.74,0.812,31C295.697,296.021,294.091,306.355,291.606,315.761z M285.06,259.897
			c-0.85-7.343-2.326-13.55-4.427-18.621c-2.101-5.071-4.792-8.97-8.075-11.697c-3.283-2.728-7.058-4.091-11.326-4.091
			c-4.231,0-8.165,1.363-11.799,4.091c-3.635,2.727-6.84,6.627-9.614,11.697c-2.774,5.07-5.061,11.277-6.86,18.621
			c-1.799,7.344-2.997,15.631-3.593,24.863c-0.596,9.232-0.468,17.502,0.384,24.811c0.853,7.309,2.338,13.499,4.458,18.569
			c2.12,5.07,4.821,8.952,8.106,11.645s7.043,4.039,11.274,4.039c4.268,0,8.218-1.346,11.851-4.039
			c3.633-2.693,6.827-6.575,9.583-11.645s5.032-11.26,6.829-18.569c1.796-7.309,2.993-15.579,3.589-24.811
			S285.91,267.242,285.06,259.897z"/>
		<path style="fill:#272525;" d="M382.076,207.874l-0.583,9.081c-0.141,2.183-0.795,3.485-1.961,3.907l-6.448,2.428l-4.913,76.555
			c-1.143,17.81-4.875,32.382-11.194,43.716c-6.522,11.615-14.585,17.423-24.188,17.423c-9.566,0-16.884-5.808-21.952-17.423
			c-4.902-11.333-6.782-25.906-5.639-43.716l4.913-76.555c-3.446-1.337-5.491-2.147-6.136-2.428
			c-1.077-0.423-1.545-1.725-1.405-3.907l0.583-9.081h27.651l-0.583,9.081c-0.14,2.183-0.794,3.485-1.961,3.907
			c-0.565,0.211-3.064,1.021-7.496,2.428l-4.906,76.45c-0.827,12.882,0.349,23.23,3.526,31.043
			c3.271,8.096,8.125,12.144,14.564,12.144s11.811-4.012,16.116-12.037c4.144-7.814,6.629-18.163,7.456-31.045l4.913-76.555
			c-4.214-1.409-6.591-2.218-7.129-2.428c-1.114-0.423-1.601-1.725-1.46-3.907l0.583-9.081h8.997h10.652H382.076z"/>
		<path style="fill:#272525;" d="M438.824,336.125l2.142-33.249h-12.253c-0.699,0-1.235-0.386-1.608-1.158
			c-0.374-0.771-0.524-1.718-0.452-2.84l0.746-11.574h24.283l-3.727,57.869c-8.611,10.873-18.987,16.309-31.13,16.309
			c-11.479,0-20.403-7.12-26.771-21.359c-6.396-14.379-8.862-32.933-7.398-55.66c1.491-23.148,6.331-41.736,14.52-55.765
			c8.312-14.239,18.614-21.359,30.903-21.359c8.572,0,17.648,3.613,27.229,10.837l-2.264,35.143h-5.298
			c-1.288,0-1.984-1.193-2.088-3.578c-0.006-1.052,0.127-7.4,0.398-19.044c-1.661-1.054-3.008-1.86-4.038-2.42
			c-4.018-2.174-8.704-3.262-14.058-3.262s-9.922,1.386-13.706,4.156c-3.784,2.771-7.111,6.717-9.979,11.837
			c-5.953,10.732-9.517,25.217-10.691,43.455c-1.211,18.799,0.538,33.634,5.247,44.507c4.611,10.662,11.223,15.992,19.832,15.992
			C425.874,344.962,432.595,342.017,438.824,336.125z"/>
		<path style="fill:#272525;" d="M509.85,360.984h-2.52h-1.002h-43.923h-7.964c0,0,0.465-7.3,0.585-9.184
			c0.12-1.884,0.94-3.562,1.932-3.933c0.991-0.373,6.437-2.411,6.437-2.411l7.732-121.415c0,0-5.185-2.038-6.129-2.41
			c-0.944-0.371-1.551-2.049-1.431-3.933s0.585-9.184,0.585-9.184h7.964h10.693h0.014h7.949c0,0-0.465,7.3-0.585,9.184
			c-0.119,1.884-0.939,3.562-1.931,3.933c-0.977,0.366-6.267,2.348-6.422,2.406l-7.618,119.602h28.534
			c0.644-6.081,1.22-11.379,1.358-12.208c0.349-2.092,1.422-3.631,2.517-3.631l5.338-0.001L509.85,360.984z"/>
		<path style="fill:#272525;" d="M594.614,352.096l-0.535,8.402h-22.684l0.535-8.402c0.122-1.914,0.695-3.12,1.721-3.616
			l4.682-2.446l-4.224-30.737h-34.107l-8.14,30.737l4.369,2.446c0.962,0.496,1.382,1.702,1.26,3.616l-0.535,8.402h-22.684
			l0.535-8.402c0.122-1.914,0.675-3.084,1.659-3.51l4.577-2.552l37.434-137.944h10.873l19.8,137.944l4.252,2.552
			C594.333,349.012,594.736,350.182,594.614,352.096z M572.078,300.407l-7.974-58.496c-0.565-3.829-1.052-8.614-1.458-14.358
			c-1.28,6.24-2.36,11.061-3.239,14.465l-15.477,58.389H572.078z"/>
		<path style="fill:#272525;" d="M655.002,314.101c-0.922,13.682-4.069,24.852-9.441,33.508
			c-5.712,9.144-12.82,13.717-21.326,13.717c-3.562,0-7.281-0.663-11.157-1.99c-3.876-1.326-6.88-2.652-9.014-3.979l-3.134-2.094
			l2.533-37.591h5.574c1.303,0,2.008,1.186,2.116,3.561c0.054,0.907,0.003,4.363-0.152,10.366c-0.156,6.003-0.236,9.041-0.24,9.11
			c5.41,3.839,9.917,5.759,13.519,5.759s6.481-0.663,8.64-1.989c2.158-1.327,4.048-3.211,5.668-5.655
			c3.284-4.956,5.204-11.552,5.758-19.79c0.537-7.958-1.099-14.101-4.906-18.429c-1.707-1.954-3.683-3.63-5.926-5.026
			c-7.001-4.118-11.626-7.137-13.871-9.057c-2.246-1.92-4.188-4.381-5.824-7.382c-3.647-6.702-5.069-16.021-4.265-27.958
			c0.752-11.169,3.598-20.698,8.535-28.586c5.281-8.447,11.686-12.67,19.215-12.67c7.527,0,15.025,2.862,22.494,8.587l-2.321,34.45
			h-5.574c-1.342,0-2.047-1.186-2.116-3.56c-0.049-0.419,0.062-6.632,0.336-18.639c-4.955-2.653-9.386-3.979-13.294-3.979
			c-4.828,0-8.773,2.269-11.838,6.806c-2.887,4.188-4.562,9.703-5.022,16.544c-0.494,7.33,1.182,13.159,5.028,17.487
			c1.708,1.954,3.718,3.664,6.033,5.13c6.613,4.188,11.208,7.365,13.782,9.529C652.664,287.12,656.06,298.394,655.002,314.101z"/>
	</g>
	<g>
		<path style="fill:#272525;" d="M193.42,379.393l-0.675,11.095l-1.339,21.993h-4.764c-1.114,0-1.716-1.123-1.809-3.368
			c-0.05-0.793-0.015-3.798,0.106-9.015c0.12-5.217,0.186-8.189,0.199-8.916c-14.098-9.378-25.346-6.142-33.744,9.708
			c-5.399,10.171-8.62,23.809-9.661,40.914c-1.045,17.171,0.476,30.909,4.564,41.211c3.854,9.84,9.334,14.761,16.439,14.761
			c4.093,0,7.235-0.792,9.427-2.377c3.354-2.377,6.464-5.878,9.333-10.501c0.617-0.991,1.188-1.486,1.711-1.486
			c0.523,0,0.973,0.43,1.346,1.288l3.232,8.222c-6.958,14.266-15.841,21.398-26.646,21.398c-10.084,0-17.794-6.736-23.13-20.209
			c-5.311-13.341-7.311-30.776-6-52.306c1.307-21.464,5.644-38.932,13.013-52.405c7.369-13.473,16.456-20.209,27.261-20.209
			C177.85,369.189,184.895,372.591,193.42,379.393z"/>
		<path style="fill:#272525;" d="M259.1,471.126c-2.147,8.883-4.89,16.527-8.227,22.934s-7.186,11.376-11.546,14.909
			c-4.36,3.534-9.053,5.3-14.079,5.3s-9.502-1.767-13.428-5.3c-3.926-3.533-7.179-8.503-9.758-14.909
			c-2.58-6.406-4.418-14.051-5.515-22.934c-1.097-8.883-1.331-18.64-0.702-29.273c0.629-10.633,2.017-20.391,4.165-29.273
			s4.891-16.544,8.23-22.983c3.339-6.439,7.182-11.442,11.528-15.009c4.346-3.566,9.032-5.349,14.058-5.349
			s9.509,1.783,13.449,5.349c3.94,3.567,7.199,8.569,9.776,15.009c2.578,6.439,4.415,14.1,5.512,22.983
			c1.097,8.883,1.331,18.641,0.702,29.273C262.636,452.486,261.248,462.244,259.1,471.126z M253.44,418.375
			c-0.735-6.935-2.011-12.796-3.827-17.584c-1.816-4.789-4.143-8.47-6.981-11.046s-6.102-3.864-9.792-3.864
			c-3.658,0-7.058,1.288-10.201,3.864s-5.913,6.257-8.312,11.046c-2.398,4.788-4.375,10.649-5.93,17.584
			c-1.556,6.934-2.591,14.76-3.106,23.478s-0.405,16.527,0.332,23.429c0.737,6.902,2.021,12.747,3.854,17.534
			c1.832,4.788,4.168,8.454,7.008,10.997c2.839,2.542,6.088,3.814,9.747,3.814c3.69,0,7.105-1.271,10.246-3.814
			c3.141-2.543,5.902-6.208,8.285-10.997c2.382-4.788,4.351-10.632,5.904-17.534c1.553-6.901,2.587-14.711,3.103-23.429
			S254.175,425.31,253.44,418.375z"/>
		<path style="fill:#272525;" d="M336.924,369.312l-0.504,8.604c-0.122,2.068-0.688,3.302-1.696,3.702l-5.574,2.301l-4.248,72.538
			c-0.988,16.875-4.214,30.682-9.678,41.421c-5.638,11.006-12.609,16.508-20.911,16.508c-8.271,0-14.596-5.502-18.978-16.508
			c-4.238-10.739-5.863-24.545-4.875-41.421l4.248-72.538c-2.979-1.267-4.748-2.034-5.305-2.301c-0.931-0.4-1.336-1.634-1.215-3.702
			l0.504-8.604h23.905l-0.504,8.604c-0.121,2.069-0.686,3.303-1.696,3.702c-0.489,0.2-2.649,0.967-6.48,2.301l-4.242,72.438
			c-0.715,12.206,0.301,22.011,3.049,29.415c2.827,7.67,7.024,11.505,12.591,11.505c5.567,0,10.211-3.802,13.933-11.406
			c3.583-7.403,5.731-17.208,6.446-29.415l4.248-72.538c-3.644-1.334-5.698-2.102-6.164-2.301c-0.963-0.4-1.384-1.634-1.262-3.702
			l0.504-8.604h7.777h9.209H336.924z"/>
		<path style="fill:#272525;" d="M390.854,414.459c-0.797,13.818-3.612,24.86-8.447,33.124
			c-5.045,8.604-11.607,12.905-19.687,12.905h-9.686l-2.285,39.627c0.589,0.271,2.357,1.05,5.305,2.337
			c0.931,0.406,1.335,1.66,1.214,3.76l-0.504,8.738h-22.95l0.504-8.738c0.121-2.101,0.67-3.354,1.648-3.76l5.574-2.337
			l6.685-115.935c-2.979-1.287-4.748-2.066-5.305-2.337c-0.931-0.406-1.335-1.659-1.214-3.759l0.503-8.739h25.766
			c4.326,0.001,8.035,1.051,11.126,3.15C388.183,378.862,392.101,392.851,390.854,414.459z M378.82,392.715
			c-2.387-5.216-6.3-7.824-11.74-7.824h-9.686l-3.457,59.949h9.686c5.153,0,9.304-2.761,12.454-8.281s4.991-12.904,5.524-22.15
			C382.134,405.162,381.207,397.931,378.82,392.715z"/>
		<path style="fill:#272525;" d="M437.349,514.95h-2.179h-0.866h-37.972h-6.885c0,0,0.402-6.972,0.506-8.771
			c0.104-1.799,0.813-3.401,1.67-3.755c0.857-0.356,5.564-2.302,5.564-2.302l6.686-115.949c0,0-4.483-1.946-5.299-2.302
			c-0.816-0.354-1.341-1.957-1.237-3.756c0.104-1.799,0.506-8.771,0.506-8.771h6.885h9.244h0.013h6.872c0,0-0.401,6.972-0.505,8.771
			c-0.104,1.799-0.813,3.402-1.67,3.756c-0.845,0.351-5.417,2.242-5.552,2.298l-6.586,114.217h24.668
			c0.557-5.806,1.055-10.866,1.175-11.658c0.302-1.998,1.229-3.467,2.176-3.467l4.614-0.001L437.349,514.95z"/>
		<path style="fill:#272525;" d="M510.622,506.896l-0.463,8.053h-19.61l0.463-8.053c0.105-1.835,0.602-2.991,1.487-3.467
			l4.048-2.345l-3.651-29.461h-29.487l-7.037,29.461l3.778,2.345c0.831,0.476,1.194,1.631,1.089,3.467l-0.463,8.053h-19.61
			l0.463-8.053c0.105-1.835,0.583-2.957,1.434-3.365l3.958-2.447l32.362-132.222h9.399l17.117,132.222l3.677,2.447
			C510.379,503.939,510.729,505.061,510.622,506.896z M491.14,457.351l-6.894-56.069c-0.488-3.67-0.909-8.258-1.261-13.763
			c-1.107,5.981-2.041,10.603-2.801,13.864l-13.379,55.967H491.14z"/>
		<path style="fill:#272525;" d="M571.292,472.202l5.091-88.871c-3.644-1.365-5.714-2.149-6.211-2.353
			c-0.931-0.409-1.336-1.67-1.215-3.784l0.504-8.795h7.777h8.111h6.919l-0.504,8.795c-0.122,2.114-0.688,3.375-1.695,3.784
			l-5.574,2.353l-7.54,131.619h-4.676c-1.305,0-2.334-1.193-3.088-3.579l-33.233-110.347c-0.072,3.477-0.19,6.647-0.354,9.511
			l-5.126,89.484c3.676,1.364,5.746,2.148,6.211,2.353c0.932,0.409,1.336,1.67,1.215,3.784l-0.504,8.795h-22.76l0.504-8.795
			c0.121-2.114,0.671-3.375,1.648-3.784l5.574-2.353l6.685-116.688c-2.979-1.296-4.748-2.08-5.305-2.353
			c-0.931-0.409-1.336-1.67-1.215-3.784l0.504-8.795h11.643c0.827,0,1.427,0.222,1.799,0.665s0.773,1.347,1.205,2.71l33.275,110.449
			C570.966,479.292,571.077,475.952,571.292,472.202z"/>
		<path style="fill:#272525;" d="M654.054,471.923c-2.138,8.951-4.869,16.614-8.195,22.988
			c-6.972,13.359-15.483,20.039-25.536,20.039h-31.539l0.504-8.748c0.121-2.103,0.671-3.357,1.648-3.764l5.574-2.34l6.685-116.059
			c-2.979-1.289-4.748-2.068-5.305-2.339c-0.931-0.407-1.336-1.661-1.215-3.764l0.504-8.748h31.539
			c10.084,0,17.826,6.679,23.229,20.038c5.425,13.495,7.511,31.125,6.258,52.893C657.575,453.038,656.191,462.972,654.054,471.923z
			 M648.373,418.115c-0.738-7.052-2.018-13.02-3.835-17.902c-3.717-10.036-9.297-15.054-16.74-15.054h-15.363l-6.556,113.821h15.363
			c7.412,0,13.569-5.018,18.474-15.054c4.972-10.104,7.97-24.039,8.993-41.806C649.224,433.169,649.112,425.167,648.373,418.115z"/>
	</g>
	<g>
		<path style="fill:#272525;" d="M292.226,522.692l-0.774,9.428c-0.186,2.266-1.03,3.618-2.532,4.057l-7.539,2.521l-41.06,141.093
			h-12.757l-16.774-119.825c-0.352-2.266-0.625-4.897-0.818-7.893c-0.352,1.315-0.697,2.686-1.034,4.111
			c-0.337,1.425-0.672,2.686-1.007,3.782l-36.6,119.825h-12.757l-17.815-141.093c-3.942-1.389-6.342-2.229-7.198-2.521
			c-1.431-0.438-2.053-1.791-1.867-4.057l0.774-9.428h35.632l-0.774,9.428c-0.186,2.267-1.03,3.619-2.533,4.057
			c-5.111,1.535-7.966,2.375-8.565,2.521l11.437,98.229c0.365,3.288,0.656,7.783,0.872,13.484c1.414-6.506,2.516-11,3.307-13.484
			l33.674-109.191c0.395-1.242,1.064-2.394,2.006-3.454s2.024-1.589,3.247-1.589h4.105c2.444,0,3.919,1.681,4.425,5.043
			l15.595,109.191c0.568,3.801,0.994,8.148,1.275,13.046c0.488-2.339,0.945-4.623,1.369-6.853c0.43-2.229,0.917-4.294,1.462-6.193
			l27.642-98.229c-0.575-0.148-3.268-0.988-8.078-2.521c-1.48-0.438-2.126-1.791-1.939-4.057l0.774-9.428h28.594H292.226z"/>
		<path style="fill:#272525;" d="M386.777,632.945c-3.259,9.641-7.42,17.935-12.484,24.886c-5.064,6.952-10.904,12.346-17.52,16.179
			c-6.616,3.834-13.737,5.752-21.364,5.752s-14.419-1.918-20.376-5.752c-5.958-3.833-10.894-9.227-14.808-16.179
			c-3.914-6.951-6.704-15.245-8.368-24.886c-1.665-9.638-2.02-20.227-1.065-31.766c0.954-11.538,3.061-22.126,6.32-31.766
			c3.259-9.639,7.421-17.952,12.488-24.939s10.898-12.416,17.493-16.286c6.595-3.87,13.706-5.805,21.332-5.805
			s14.429,1.935,20.408,5.805c5.979,3.87,10.924,9.299,14.835,16.286s6.699,15.301,8.363,24.939
			c1.665,9.639,2.02,20.228,1.066,31.766C392.143,612.718,390.036,623.308,386.777,632.945z M378.189,575.703
			c-1.116-7.525-3.051-13.886-5.807-19.082c-2.756-5.195-6.287-9.191-10.593-11.986s-9.259-4.192-14.858-4.192
			c-5.551,0-10.711,1.397-15.479,4.192c-4.769,2.795-8.973,6.791-12.612,11.986c-3.639,5.196-6.639,11.557-8.999,19.082
			c-2.36,7.524-3.931,16.017-4.713,25.477s-0.614,17.935,0.504,25.424c1.119,7.488,3.068,13.832,5.848,19.027
			c2.78,5.195,6.325,9.173,10.634,11.932c4.309,2.76,9.239,4.139,14.79,4.139c5.599,0,10.782-1.379,15.547-4.139
			c4.765-2.759,8.956-6.736,12.571-11.932c3.616-5.195,6.602-11.539,8.959-19.027c2.357-7.489,3.926-15.964,4.709-25.424
			C379.471,591.72,379.305,583.228,378.189,575.703z"/>
		<path style="fill:#272525;" d="M483.529,670.344c-0.157,1.938-0.768,9.447-0.768,9.447h-2.58h-7.867h-4.585
			c-2.559,0-4.319-1.496-5.282-4.49l-22.383-56.045c-0.678-1.749-1.47-3.006-2.372-3.773c-0.902-0.766-2.32-1.15-4.25-1.15h-9.247
			l-4.019,49.487c0.07,0.021,6.802,2.097,8.034,2.479c1.238,0.38,2.034,2.105,1.876,4.046c-0.157,1.938-0.767,9.447-0.767,9.447
			h-10.44h-0.007h-13.968h-10.447c0,0,0.61-7.51,0.767-9.447c0.158-1.939,1.232-3.665,2.534-4.046
			c1.301-0.384,8.443-2.48,8.443-2.48l10.145-124.91c0,0-6.803-2.096-8.041-2.48c-1.238-0.382-2.033-2.108-1.876-4.046
			c0.157-1.938,0.768-9.448,0.768-9.448h10.448h27.928c6.564,0,12.154,1.003,16.77,3.01c4.615,2.009,8.326,4.911,11.132,8.704
			c2.805,3.793,4.738,8.373,5.8,13.736c1.059,5.364,1.319,11.367,0.78,18.006c-0.451,5.546-1.45,10.727-2.999,15.542
			c-1.55,4.816-3.58,9.14-6.086,12.972c-2.508,3.831-5.452,7.096-8.833,9.796c-3.382,2.701-7.131,4.745-11.25,6.128
			c1.614,1.533,2.978,3.759,4.093,6.678l18.755,46.348c0.88,0.271,6.774,2.089,7.92,2.443
			C482.893,666.679,483.687,668.403,483.529,670.344z M449.758,596.655c3.234-1.495,6.013-3.612,8.334-6.349
			c2.323-2.738,4.169-6.002,5.54-9.797c1.368-3.792,2.24-7.99,2.614-12.589c0.758-9.338-0.709-16.381-4.402-21.125
			c-3.694-4.743-9.571-7.115-17.632-7.115h-13.953l-4.81,59.218h13.302C442.854,598.898,446.522,598.152,449.758,596.655z"/>
		<path style="fill:#272525;" d="M581.47,671.409l-0.72,8.906h-34.03l0.712-8.797c0.172-2.126,0.951-3.41,2.338-3.849
			c0.543-0.147,2.816-0.809,6.821-1.98l-25.807-52.452c-1.464-2.786-2.824-4.325-4.079-4.618c-1.256-0.295-2.463-0.442-3.621-0.44
			h-6.371l-4.534,56.081c1.552,0.516,4.234,1.356,8.05,2.528c1.461,0.441,2.099,1.797,1.915,4.07l-0.765,9.457H486.48l0.765-9.457
			c0.184-2.273,1.018-3.629,2.501-4.07l8.459-2.528l10.144-125.469c-4.521-1.393-7.205-2.235-8.05-2.529
			c-1.412-0.44-2.026-1.796-1.843-4.069l0.765-9.457h34.897l-0.765,9.457c-0.184,2.272-1.041,3.63-2.573,4.069
			c-4.505,1.394-7.324,2.237-8.458,2.529l-4.285,53.002h5.285c3.234,0,5.845-1.539,7.831-4.619l33.069-49.923
			c-3.344-1.026-5.393-1.65-6.147-1.869c-1.316-0.441-1.888-1.724-1.716-3.849l0.711-8.797h32.653l-0.458,8.357
			c-0.184,2.274-1.018,3.63-2.501,4.068c-0.845,0.294-3.157,1.138-6.938,2.531l-35.119,52.892c-2.414,3.592-4.514,5.975-6.298,7.148
			c2.041,1.026,4.072,3.665,6.094,7.917L572.5,665.03c3.954,1.246,6.33,2.017,7.127,2.31
			C581.039,667.779,581.653,669.135,581.47,671.409z"/>
		<path style="fill:#272525;" d="M654.303,631.42c-1.138,14.051-5.022,25.521-11.654,34.41
			c-7.051,9.391-15.825,14.088-26.324,14.088c-4.398,0-8.989-0.683-13.773-2.044c-4.785-1.363-8.493-2.724-11.126-4.087
			l-3.869-2.149l3.127-38.604h6.881c1.608,0,2.479,1.219,2.612,3.656c0.066,0.932,0.004,4.48-0.188,10.646
			c-0.192,6.164-0.291,9.283-0.296,9.354c6.679,3.944,12.242,5.915,16.688,5.915s8.001-0.682,10.664-2.043
			c2.664-1.363,4.997-3.298,6.997-5.807c4.054-5.09,6.424-11.864,7.108-20.324c0.662-8.171-1.357-14.479-6.058-18.926
			c-2.106-2.008-4.546-3.727-7.313-5.161c-8.643-4.229-14.352-7.33-17.123-9.301c-2.773-1.971-5.169-4.498-7.189-7.581
			c-4.503-6.882-6.258-16.452-5.265-28.711c0.929-11.47,4.44-21.255,10.535-29.356c6.521-8.674,14.426-13.011,23.719-13.011
			c9.294,0,18.549,2.939,27.768,8.817l-2.865,35.377h-6.881c-1.655,0-2.527-1.218-2.613-3.656c-0.06-0.43,0.079-6.81,0.416-19.141
			c-6.116-2.724-11.587-4.086-16.411-4.086c-5.959,0-10.829,2.33-14.611,6.99c-3.563,4.301-5.631,9.964-6.2,16.989
			c-0.609,7.527,1.459,13.513,6.207,17.958c2.106,2.007,4.59,3.764,7.447,5.269c8.164,4.301,13.835,7.563,17.013,9.785
			C651.416,603.713,655.609,615.291,654.303,631.42z"/>
	</g>
	<g>
		<path style="fill:#272525;" d="M225.109,703.809l-8.881,121.486c4,1.35,6.495,2.201,7.483,2.556
			c0.988,0.354,1.401,1.633,1.241,3.833l-0.669,9.156h-30.68l0.669-9.156c0.161-2.2,0.891-3.514,2.189-3.939l7.405-2.449
			l3.938-53.875h-48.934l-3.938,53.875c5.935,2.059,8.821,4.188,8.661,6.389l-0.669,9.156h-30.616l0.669-9.156
			c0.161-2.2,0.891-3.514,2.189-3.939l7.405-2.449l8.88-121.486c-3.958-1.35-6.431-2.202-7.419-2.557s-1.402-1.633-1.241-3.833
			l0.669-9.156h30.615l-0.669,9.156c-0.161,2.201-0.707,3.462-1.639,3.78c-0.932,0.319-3.584,1.188-7.956,2.609l-3.837,52.491
			h48.935l3.837-52.491c-3.958-1.35-6.432-2.202-7.419-2.557c-0.989-0.354-1.402-1.633-1.241-3.833l0.669-9.156h30.679l-0.669,9.156
			c-0.162,2.201-0.913,3.515-2.253,3.939L225.109,703.809z"/>
		<path style="fill:#272525;" d="M324.112,832.447l-0.625,8.393h-26.472l0.625-8.393c0.143-1.912,0.812-3.116,2.008-3.612
			l5.463-2.442l-4.928-30.703H260.38l-9.499,30.703l5.1,2.442c1.122,0.496,1.612,1.7,1.47,3.612l-0.625,8.393h-26.471l0.625-8.393
			c0.143-1.912,0.788-3.08,1.936-3.505l5.342-2.55l43.685-137.79h12.688l23.106,137.79l4.962,2.55
			C323.784,829.367,324.255,830.535,324.112,832.447z M297.813,780.816l-9.305-58.43c-0.66-3.825-1.227-8.605-1.702-14.343
			c-1.495,6.233-2.755,11.049-3.781,14.449l-18.061,58.323H297.813z"/>
		<path style="fill:#272525;" d="M408.652,831.671c-0.141,1.881-0.683,9.169-0.683,9.169h-2.296h-6.998h-4.079
			c-2.276,0-3.842-1.451-4.699-4.357l-19.911-54.393c-0.604-1.699-1.307-2.92-2.11-3.666c-0.803-0.742-2.064-1.115-3.78-1.115
			h-8.226l-3.575,48.03c0.062,0.021,6.051,2.034,7.147,2.404c1.102,0.369,1.809,2.046,1.669,3.928
			c-0.14,1.881-0.683,9.169-0.683,9.169h-9.288h-0.006H338.71h-9.293c0,0,0.542-7.289,0.683-9.169
			c0.14-1.881,1.096-3.558,2.253-3.928c1.158-0.372,7.512-2.406,7.512-2.406l9.024-121.231c0,0-6.051-2.035-7.153-2.405
			c-1.102-0.371-1.809-2.046-1.669-3.928c0.14-1.88,0.683-9.17,0.683-9.17h9.294h24.844c5.839,0,10.812,0.974,14.918,2.922
			c4.106,1.95,7.407,4.766,9.903,8.447c2.495,3.681,4.214,8.126,5.158,13.331c0.942,5.206,1.174,11.032,0.694,17.477
			c-0.4,5.383-1.289,10.412-2.668,15.084c-1.378,4.675-3.184,8.871-5.413,12.591c-2.231,3.717-4.85,6.888-7.857,9.508
			c-3.008,2.621-6.344,4.603-10.007,5.948c1.436,1.486,2.648,3.647,3.64,6.48l16.685,44.982c0.782,0.264,6.025,2.027,7.045,2.37
			C408.086,828.113,408.792,829.789,408.652,831.671z M378.61,760.152c2.877-1.451,5.349-3.505,7.414-6.161
			c2.067-2.657,3.708-5.825,4.928-9.51c1.217-3.68,1.993-7.754,2.326-12.217c0.675-9.064-0.631-15.898-3.916-20.503
			c-3.287-4.603-8.514-6.906-15.685-6.906h-12.413l-4.278,57.475h11.833C372.468,762.33,375.732,761.605,378.61,760.152z"/>
		<path style="fill:#272525;" d="M502.026,795.902c-2.886,9.35-6.573,17.352-11.062,24.009
			c-9.411,13.953-20.901,20.929-34.47,20.929h-42.573l0.68-9.136c0.164-2.196,0.905-3.506,2.225-3.931l7.524-2.443l9.023-121.217
			c-4.021-1.345-6.408-2.158-7.16-2.443c-1.257-0.424-1.803-1.734-1.64-3.931l0.68-9.137h42.573
			c13.611,0,24.063,6.976,31.354,20.929c7.324,14.095,10.14,32.509,8.447,55.244C506.779,776.177,504.912,786.553,502.026,795.902z
			 M494.358,739.703c-0.997-7.366-2.724-13.599-5.178-18.697c-5.017-10.483-12.548-15.724-22.596-15.724h-20.739l-8.85,118.879
			h20.739c10.005,0,18.317-5.24,24.937-15.723c6.711-10.554,10.758-25.108,12.139-43.663
			C495.507,755.426,495.355,747.068,494.358,739.703z"/>
		<path style="fill:#272525;" d="M586.468,688.476l-2.736,36.788h-6.183c-1.503,0-2.312-1.24-2.429-3.72
			c-0.039-0.639,0.063-6.061,0.309-16.269h-34.522l-3.765,50.61h34.008l-1.202,16.162h-34.008l-3.867,51.993h34.587
			c1.174-9.428,1.827-14.46,1.96-15.098c0.48-2.411,1.472-3.616,2.975-3.616h6.183l-2.641,35.513h-66.146l0.68-9.144
			c0.164-2.197,0.905-3.509,2.225-3.935l7.524-2.444l9.023-121.318c-4.021-1.346-6.408-2.161-7.16-2.445
			c-1.257-0.425-1.803-1.736-1.64-3.935l0.68-9.144H586.468z"/>
		<path style="fill:#272525;" d="M660.074,831.67c-0.137,1.882-0.665,9.17-0.665,9.17h-2.237h-6.818h-3.975
			c-2.219,0-3.744-1.451-4.578-4.357l-19.401-54.394c-0.588-1.699-1.274-2.919-2.057-3.664c-0.782-0.743-2.011-1.116-3.684-1.116
			h-8.015l-3.484,48.03c0.062,0.021,5.896,2.034,6.964,2.404c1.073,0.369,1.764,2.045,1.626,3.927
			c-0.136,1.882-0.665,9.17-0.665,9.17h-9.049h-0.006h-12.107h-9.056c0,0,0.529-7.289,0.665-9.17s1.068-3.557,2.196-3.927
			c1.128-0.372,7.318-2.406,7.318-2.406l8.794-121.231c0,0-5.897-2.034-6.97-2.406c-1.074-0.37-1.763-2.045-1.627-3.927
			c0.137-1.882,0.665-9.17,0.665-9.17h9.057h24.208c5.689,0,10.535,0.974,14.536,2.922c4.001,1.95,7.217,4.766,9.649,8.447
			c2.431,3.681,4.105,8.127,5.026,13.332c0.918,5.205,1.144,11.031,0.677,17.476c-0.391,5.383-1.257,10.411-2.601,15.084
			c-1.343,4.675-3.102,8.871-5.274,12.591c-2.174,3.716-4.727,6.887-7.656,9.507c-2.932,2.621-6.182,4.604-9.752,5.948
			c1.399,1.487,2.582,3.648,3.548,6.48l16.257,44.982c0.763,0.264,5.872,2.028,6.865,2.371
			C659.522,828.113,660.211,829.788,660.074,831.67z M630.802,760.152c2.803-1.45,5.211-3.505,7.224-6.161
			c2.014-2.657,3.613-5.825,4.801-9.509c1.187-3.681,1.943-7.755,2.267-12.218c0.658-9.063-0.614-15.898-3.815-20.504
			c-3.202-4.603-8.297-6.905-15.283-6.905h-12.096l-4.168,57.475h11.53C624.816,762.33,627.996,761.606,630.802,760.152z"/>
	</g>
	<g>
		<path style="fill:#272525;" d="M198.024,849.213l-2.122,36.656h-5.289c-1.272,0-1.934-0.811-1.986-2.429
			c-0.052-1.619-0.064-6.745-0.036-15.38h-18.373l-7.524,129.973c0.037,0,0.479,0.191,1.33,0.578
			c2.731,1.155,4.478,1.908,5.239,2.255s1.073,1.715,0.935,4.104l-0.576,9.944H143.29l0.576-9.944
			c0.139-2.39,0.832-3.854,2.081-4.394c1.249-0.54,3.306-1.389,6.172-2.544l7.524-129.973h-18.428
			c-1.013,8.712-1.638,13.858-1.875,15.438c-0.237,1.582-0.973,2.372-2.208,2.371h-5.289l2.122-36.656h58.825h3.762H198.024z"/>
		<path style="fill:#272525;" d="M267.081,866.011l-6.946,132.012c3.129,1.466,5.08,2.391,5.853,2.777
			c0.773,0.386,1.097,1.773,0.971,4.165l-0.523,9.95H242.44l0.523-9.95c0.126-2.392,0.697-3.818,1.712-4.28l5.792-2.662l3.08-58.544
			h-38.272l-3.08,58.544c4.642,2.237,6.899,4.551,6.773,6.942l-0.523,9.95H194.5l0.524-9.95c0.125-2.392,0.696-3.818,1.712-4.28
			l5.792-2.662l6.945-132.012c-3.096-1.466-5.03-2.392-5.803-2.776c-0.773-0.387-1.097-1.775-0.971-4.166l0.523-9.95h23.945
			l-0.523,9.95c-0.126,2.393-0.553,3.762-1.282,4.107c-0.729,0.348-2.803,1.292-6.222,2.835l-3.001,57.039h38.272l3.001-57.039
			c-3.096-1.466-5.03-2.392-5.803-2.776c-0.773-0.387-1.097-1.775-0.971-4.166l0.523-9.95h23.995l-0.523,9.95
			c-0.127,2.393-0.714,3.819-1.762,4.281L267.081,866.011z"/>
		<path style="fill:#272525;" d="M343.402,1005.795l-0.481,9.12h-20.376l0.481-9.12c0.11-2.077,0.625-3.385,1.546-3.924l4.205-2.655
			l-3.793-33.36h-30.638l-7.312,33.36l3.925,2.655c0.864,0.539,1.241,1.847,1.132,3.924l-0.481,9.12h-20.375l0.481-9.12
			c0.109-2.077,0.606-3.347,1.49-3.809l4.112-2.771l33.625-149.717h9.767l17.785,149.717l3.82,2.771
			C343.149,1002.448,343.512,1003.718,343.402,1005.795z M323.159,949.695l-7.162-63.488c-0.508-4.156-0.945-9.35-1.31-15.584
			c-1.15,6.771-2.121,12.005-2.91,15.699l-13.901,63.373H323.159z"/>
		<path style="fill:#272525;" d="M406.435,966.604l5.29-100.438c-3.786-1.542-5.938-2.428-6.454-2.659
			c-0.967-0.462-1.388-1.887-1.262-4.276l0.523-9.939h8.081h8.428h7.188l-0.523,9.939c-0.127,2.391-0.714,3.815-1.762,4.276
			l-5.792,2.659l-7.834,148.749h-4.858c-1.355,0-2.425-1.349-3.208-4.045l-34.53-124.71c-0.075,3.93-0.197,7.513-0.368,10.749
			l-5.326,101.131c3.819,1.541,5.97,2.427,6.454,2.658c0.967,0.463,1.388,1.888,1.262,4.277l-0.523,9.939h-23.647l0.523-9.939
			c0.126-2.39,0.697-3.814,1.712-4.277l5.792-2.658l6.945-131.874c-3.096-1.464-4.933-2.351-5.512-2.659
			c-0.967-0.462-1.388-1.887-1.262-4.276l0.523-9.939h12.097c0.859,0,1.482,0.251,1.869,0.752s0.804,1.521,1.251,3.062
			l34.574,124.824C406.096,974.617,406.212,970.841,406.435,966.604z"/>
		<path style="fill:#272525;" d="M513.393,849.054l-0.523,9.954c-0.126,2.393-0.62,3.781-1.483,4.167
			c-0.863,0.385-2.655,1.312-5.376,2.777l-26.029,82.989l-2.581,49.075c0.45,0.231,2.288,1.118,5.512,2.662
			c0.967,0.462,1.388,1.89,1.262,4.282l-0.523,9.954h-7.139h-9.568h-7.139l0.523-9.954c0.126-2.393,0.696-3.82,1.712-4.282
			l5.792-2.662l2.581-49.075l-17.251-82.989c-2.372-1.389-4.01-2.295-4.913-2.719c-0.903-0.425-1.292-1.833-1.166-4.226l0.523-9.954
			h23.896l-0.523,9.954c-0.126,2.393-0.713,3.82-1.762,4.282c-3.457,1.62-5.371,2.509-5.742,2.662l10.511,52.779
			c0.83,4.321,1.53,9.222,2.102,14.699c1.201-5.864,2.4-10.764,3.6-14.699l16.062-52.779c-0.389-0.156-2.226-1.044-5.512-2.662
			c-0.967-0.463-1.388-1.89-1.262-4.282l0.523-9.954H513.393z"/>
		<path style="fill:#272525;" d="M578.175,966.15c-2.231,10.164-5.081,18.91-8.549,26.24c-3.467,7.331-7.466,13.017-11.996,17.06
			c-4.53,4.044-9.406,6.064-14.628,6.064s-9.873-2.021-13.952-6.064c-4.08-4.043-7.459-9.729-10.14-17.06
			c-2.68-7.33-4.59-16.076-5.729-26.24c-1.14-10.165-1.383-21.329-0.729-33.496c0.653-12.166,2.096-23.331,4.327-33.496
			c2.231-10.164,5.082-18.928,8.551-26.297c3.47-7.367,7.462-13.093,11.978-17.173c4.516-4.081,9.385-6.121,14.606-6.121
			c5.223,0,9.88,2.04,13.975,6.121c4.094,4.08,7.479,9.806,10.157,17.173c2.679,7.369,4.587,16.134,5.728,26.297
			c1.14,10.165,1.383,21.33,0.729,33.496C581.849,944.821,580.406,955.986,578.175,966.15z M572.294,905.79
			c-0.764-7.935-2.089-14.642-3.977-20.12c-1.887-5.479-4.305-9.691-7.253-12.638c-2.948-2.948-6.34-4.422-10.174-4.422
			c-3.801,0-7.334,1.474-10.599,4.422c-3.265,2.946-6.144,7.16-8.636,12.638c-2.492,5.479-4.546,12.186-6.162,20.12
			c-1.615,7.935-2.691,16.89-3.228,26.864c-0.535,9.976-0.42,18.91,0.346,26.807c0.766,7.898,2.101,14.586,4.004,20.064
			s4.331,9.673,7.281,12.581c2.95,2.911,6.326,4.365,10.127,4.365c3.834,0,7.382-1.454,10.646-4.365
			c3.263-2.908,6.132-7.103,8.607-12.581s4.521-12.166,6.135-20.064c1.613-7.896,2.688-16.831,3.224-26.807
			C573.172,922.68,573.058,913.725,572.294,905.79z"/>
		<path style="fill:#272525;" d="M659.425,848.506l-0.523,9.872c-0.127,2.374-0.714,3.789-1.763,4.247l-5.791,2.641l-4.413,83.224
			c-1.027,19.36-4.379,35.203-10.056,47.523c-5.858,12.627-13.102,18.94-21.728,18.94c-8.593,0-15.165-6.313-19.718-18.94
			c-4.403-12.32-6.092-28.163-5.065-47.523l4.413-83.224c-3.096-1.453-4.933-2.334-5.512-2.641
			c-0.967-0.459-1.388-1.875-1.262-4.247l0.523-9.872h24.838l-0.523,9.872c-0.126,2.374-0.714,3.789-1.763,4.247
			c-0.508,0.229-2.752,1.11-6.733,2.641l-4.407,83.108c-0.742,14.004,0.313,25.254,3.168,33.748
			c2.938,8.802,7.299,13.202,13.082,13.202c5.784,0,10.609-4.362,14.477-13.087c3.722-8.494,5.955-19.744,6.697-33.748l4.413-83.224
			c-3.785-1.531-5.92-2.411-6.404-2.641c-1-0.459-1.438-1.875-1.312-4.247l0.523-9.872h8.081h9.568H659.425z"/>
	</g>
</g>
<g id="Guides">
</g>
</svg>
