<?xml version="1.0" encoding="iso-8859-1"?>
<!-- Generator: Adobe Illustrator 15.1.0, SVG Export Plug-In . SVG Version: 6.00 Build 0)  -->
<!DOCTYPE svg PUBLIC "-//W3C//DTD SVG 1.1//EN" "http://www.w3.org/Graphics/SVG/1.1/DTD/svg11.dtd">
<svg version="1.1" xmlns="http://www.w3.org/2000/svg" xmlns:xlink="http://www.w3.org/1999/xlink" x="0px" y="0px" width="792px"
	 height="1224px" viewBox="0 0 792 1224" style="enable-background:new 0 0 792 1224;" xml:space="preserve">
<g id="Layer_1">
	<g>
		<path style="fill:#272525;" d="M131.999,208.015h29.995c3.573,0,7,0.908,10.282,2.724c3.28,1.816,6.339,4.374,9.174,7.668
			c2.834,3.297,5.412,7.249,7.73,11.855c2.319,4.608,4.304,9.737,5.953,15.387c1.649,5.65,2.92,11.739,3.814,18.262
			c0.893,6.525,1.34,13.318,1.34,20.38c0,7.063-0.447,13.858-1.34,20.381c-0.894,6.525-2.165,12.63-3.814,18.312
			c-1.649,5.686-3.633,10.864-5.953,15.538c-2.319,4.677-4.896,8.677-7.73,12.006c-2.834,3.33-5.894,5.902-9.174,7.719
			c-3.282,1.816-6.709,2.724-10.282,2.724h-29.995v-27.645h6.236v-97.566h-6.236V208.015z M155.345,235.761v97.566h6.545
			c2.783,0,5.412-1.277,7.886-3.834c2.474-2.555,4.621-6.036,6.442-10.442c1.821-4.405,3.264-9.585,4.33-15.539
			c1.064-5.953,1.598-12.359,1.598-19.221c0-6.792-0.533-13.149-1.598-19.069c-1.065-5.918-2.509-11.063-4.33-15.437
			c-1.821-4.372-3.968-7.802-6.442-10.292c-2.474-2.487-5.103-3.733-7.886-3.733H155.345z"/>
		<path style="fill:#272525;" d="M244.61,360.972c-3.539,0-6.924-0.91-10.153-2.728c-3.23-1.819-6.245-4.386-9.045-7.699
			c-2.801-3.313-5.343-7.292-7.627-11.939c-2.286-4.645-4.235-9.809-5.85-15.495c-1.616-5.685-2.869-11.776-3.762-18.273
			c-0.894-6.496-1.34-13.285-1.34-20.369c0-7.081,0.446-13.888,1.34-20.417c0.893-6.53,2.146-12.636,3.762-18.322
			c1.614-5.685,3.564-10.85,5.85-15.496c2.285-4.643,4.827-8.625,7.627-11.938c2.8-3.313,5.815-5.879,9.045-7.699
			c3.229-1.818,6.614-2.729,10.153-2.729c3.538,0,6.932,0.911,10.179,2.729c3.247,1.82,6.27,4.386,9.071,7.699
			c2.8,3.313,5.342,7.295,7.628,11.938c2.284,4.646,4.243,9.812,5.875,15.496c1.632,5.686,2.894,11.792,3.788,18.322
			c0.893,6.529,1.34,13.336,1.34,20.417c0,7.017-0.447,13.79-1.34,20.319c-0.894,6.529-2.156,12.638-3.788,18.323
			c-1.632,5.686-3.591,10.85-5.875,15.495c-2.286,4.646-4.828,8.625-7.628,11.939c-2.801,3.313-5.824,5.88-9.071,7.699
			C251.542,360.062,248.148,360.972,244.61,360.972z M244.61,330.371c2.989,0,5.729-1.218,8.22-3.654
			c2.491-2.437,4.63-5.75,6.417-9.941c1.786-4.191,3.17-9.063,4.149-14.618c0.979-5.555,1.469-11.452,1.469-17.688
			c0-6.301-0.499-12.246-1.495-17.835c-0.997-5.586-2.396-10.477-4.2-14.667s-3.943-7.504-6.417-9.939
			c-2.474-2.437-5.188-3.655-8.143-3.655c-2.956,0-5.669,1.218-8.143,3.655c-2.474,2.436-4.605,5.749-6.391,9.939
			c-1.787,4.191-3.188,9.082-4.201,14.667c-1.014,5.589-1.52,11.534-1.52,17.835c0,6.237,0.506,12.133,1.52,17.688
			c1.013,5.555,2.414,10.427,4.201,14.618c1.786,4.19,3.917,7.504,6.391,9.941C238.94,329.153,241.654,330.371,244.61,330.371z"/>
		<path style="fill:#272525;" d="M289.551,208.015h31.336V235.4h-7.165v62.637c0,5.71,0.335,10.556,1.004,14.538
			c0.671,3.983,1.607,7.237,2.809,9.76c1.203,2.523,2.629,4.366,4.279,5.527c1.649,1.163,3.452,1.742,5.411,1.742
			c2.027,0,3.875-0.498,5.54-1.494c1.667-0.996,3.092-2.704,4.278-5.128c1.185-2.422,2.096-5.659,2.731-9.709
			c0.636-4.048,0.954-9.126,0.954-15.235V235.4h-8.297v-27.385h31.335V235.4h-6.237v58.753c0,10.623-0.791,20.066-2.371,28.331
			c-1.58,8.266-3.753,15.253-6.52,20.962c-2.766,5.71-6.013,10.058-9.74,13.045c-3.729,2.987-7.723,4.481-11.983,4.481
			c-4.226,0-8.178-1.479-11.854-4.431c-3.677-2.953-6.88-7.235-9.611-12.846c-2.732-5.609-4.889-12.43-6.468-20.464
			c-1.581-8.031-2.371-17.128-2.371-27.285V235.4h-7.061V208.015z"/>
		<path style="fill:#272525;" d="M429.839,359.868v-25.604c-2.131,7.156-4.209,12.408-6.235,15.757
			c-2.028,3.347-4.321,6.041-6.881,8.075c-2.561,2.034-5.987,3.019-10.282,2.954c-2.131-0.065-4.26-0.542-6.391-1.428
			c-2.131-0.885-4.192-2.132-6.185-3.742c-1.993-1.607-3.943-3.545-5.849-5.81c-1.908-2.265-3.634-4.875-5.18-7.829
			c-3.813-7.352-6.777-15.87-8.891-25.555c-2.112-9.684-3.169-20.237-3.169-31.661c0-7.024,0.446-13.819,1.34-20.385
			c0.894-6.563,2.146-12.703,3.762-18.416c1.615-5.712,3.564-10.914,5.85-15.608c2.284-4.693,4.827-8.716,7.627-12.063
			c2.8-3.349,5.815-5.941,9.044-7.78c3.229-1.837,6.614-2.757,10.153-2.757c4.054,0,7.576,1.034,10.565,3.102
			s6.202,5.925,9.638,11.571h11.545v33.287h-15.926c-1.58-4.661-3.066-8.042-4.458-10.144c-1.392-2.101-2.903-3.84-4.536-5.22
			c-1.632-1.379-3.908-2.068-6.828-2.068c-2.886,0-5.566,1.249-8.04,3.742c-2.474,2.496-4.613,5.859-6.416,10.094
			c-1.805,4.234-3.222,9.225-4.252,14.969c-1.031,5.745-1.546,11.637-1.546,17.676c0,5.976,0.464,11.655,1.392,17.037
			c0.928,5.384,2.336,10.227,4.226,14.525c1.889,4.301,4.089,7.6,6.597,9.897c2.508,2.299,5.188,3.447,8.04,3.447
			c3.642,0,6.82-2.033,9.535-6.105c2.713-4.07,4.672-9.618,5.875-16.643h-14.895V280.2h36.18v79.668H429.839z"/>
		<path style="fill:#272525;" d="M457.516,208.015h33.448v27.746h-8.246v97.566h17.008c0.445,0,0.884-0.252,1.313-0.757
			c0.43-0.504,0.808-1.16,1.134-1.967s0.593-1.68,0.799-2.623c0.207-0.941,0.31-1.849,0.31-2.724v-20.482h16.698v56.199h-62.464
			v-27.645h8.091v-97.566h-8.091V208.015z"/>
		<path style="fill:#272525;" d="M567.086,333.327h7.782l-3.505-21.995h-24.017l-3.505,21.995h8.246v27.645h-29.635v-27.645h5.824
			l21.285-125.312h20.667l20.821,125.312h5.67v27.645h-29.635V333.327z M551.418,285.503h15.771l-7.937-49.742L551.418,285.503z"/>
		<path style="fill:#272525;" d="M641.301,253.26c-0.172-2.243-0.592-4.359-1.263-6.348c-0.669-1.986-1.529-3.702-2.577-5.145
			c-1.048-1.443-2.233-2.58-3.556-3.415c-1.323-0.832-2.706-1.25-4.148-1.25c-1.307,0-2.525,0.257-3.659,0.769
			c-1.134,0.514-2.122,1.298-2.964,2.356c-0.842,1.058-1.512,2.421-2.01,4.087c-0.499,1.667-0.747,3.654-0.747,5.962
			c0,2.885,0.335,5.178,1.004,6.876c0.671,1.7,1.529,3.095,2.577,4.184c1.048,1.091,2.208,1.957,3.479,2.596
			c1.271,0.642,2.508,1.347,3.711,2.116l14.173,8.848c1.958,1.283,3.796,3.046,5.515,5.29c1.718,2.245,3.203,4.969,4.457,8.174
			c1.255,3.208,2.243,6.893,2.964,11.06c0.722,4.169,1.083,8.848,1.083,14.042c0,7.054-0.695,13.498-2.088,19.33
			c-1.391,5.835-3.342,10.836-5.85,15.002c-2.508,4.169-5.515,7.405-9.019,9.713c-3.505,2.308-7.389,3.462-11.648,3.462
			c-2.989,0-5.815-0.625-8.478-1.875c-2.663-1.25-5.095-3.062-7.293-5.434c-2.199-2.371-4.123-5.208-5.772-8.511
			c-1.649-3.301-2.938-7.036-3.865-11.204h-5.309V305h18.657v5.962c0,2.886,0.249,5.547,0.747,7.983
			c0.498,2.438,1.245,4.553,2.242,6.347c0.996,1.795,2.25,3.19,3.763,4.184c1.512,0.995,3.28,1.49,5.308,1.49
			c3.093,0,5.445-1.33,7.062-3.991c1.614-2.66,2.422-6.363,2.422-11.108c0-2.436-0.284-4.472-0.85-6.106
			c-0.568-1.636-1.298-3.013-2.191-4.136c-0.894-1.121-1.89-2.068-2.989-2.837s-2.183-1.474-3.247-2.115l-11.802-7.117
			c-2.234-1.282-4.39-3.078-6.468-5.386c-2.079-2.308-3.917-5.193-5.516-8.655c-1.597-3.462-2.869-7.517-3.813-12.166
			c-0.945-4.648-1.417-9.954-1.417-15.917c0-6.924,0.688-13.094,2.062-18.513c1.374-5.417,3.299-9.985,5.772-13.705
			c2.474-3.717,5.411-6.539,8.812-8.462c3.402-1.923,7.13-2.885,11.185-2.885c3.195,0,6.149,0.69,8.864,2.067
			c2.714,1.38,5.145,3.222,7.292,5.53c2.147,2.308,3.97,4.953,5.464,7.934c1.495,2.981,2.637,6.076,3.427,9.28h5.154v29.044h-18.657
			V253.26z"/>
	</g>
	<g>
		<path style="fill:#272525;" d="M177.717,414.202c-1.642-4.956-3.121-8.471-4.44-10.548c-1.319-2.074-2.741-3.561-4.264-4.461
			c-1.524-0.897-3.121-1.347-4.792-1.347c-2.462,0-4.748,1.162-6.858,3.485c-2.11,2.323-3.935,5.483-5.473,9.479
			c-1.539,3.996-2.747,8.642-3.626,13.94c-0.879,5.296-1.319,10.919-1.319,16.866c0,6.01,0.432,11.663,1.297,16.96
			c0.864,5.297,2.059,9.93,3.583,13.894c1.523,3.965,3.341,7.109,5.451,9.432c2.11,2.323,4.425,3.485,6.946,3.485
			c1.758,0,3.399-0.604,4.923-1.812c1.523-1.208,2.908-2.803,4.154-4.787c1.245-1.981,2.336-4.259,3.275-6.83
			c0.938-2.57,1.67-5.251,2.198-8.039l14.155,8.364c-0.909,6.073-2.242,11.695-4,16.868c-1.758,5.173-3.876,9.65-6.352,13.428
			c-2.477,3.78-5.261,6.753-8.353,8.922c-3.092,2.167-6.425,3.252-10,3.252c-3.019,0-5.906-0.869-8.66-2.602
			c-2.755-1.734-5.327-4.182-7.715-7.343c-2.389-3.159-4.558-6.969-6.506-11.43c-1.949-4.46-3.612-9.4-4.989-14.822
			c-1.378-5.42-2.447-11.244-3.209-17.471c-0.763-6.226-1.143-12.716-1.143-19.469c0-10.097,0.835-19.562,2.506-28.39
			c1.67-8.828,3.956-16.542,6.857-23.14c2.901-6.599,6.309-11.803,10.221-15.613c3.913-3.81,8.125-5.715,12.639-5.715
			c3.604,0,6.638,0.945,9.1,2.835s5.172,5.622,8.132,11.198h9.847v31.411H177.717z"/>
		<path style="fill:#272525;" d="M232.535,514.754c-3.019,0-5.906-0.868-8.66-2.601c-2.755-1.733-5.327-4.18-7.715-7.338
			c-2.389-3.158-4.558-6.95-6.506-11.378c-1.949-4.426-3.612-9.348-4.989-14.768c-1.378-5.417-2.447-11.222-3.209-17.415
			c-0.763-6.192-1.143-12.663-1.143-19.413c0-6.749,0.38-13.236,1.143-19.459c0.762-6.223,1.831-12.042,3.209-17.461
			c1.377-5.418,3.04-10.34,4.989-14.768c1.949-4.426,4.117-8.221,6.506-11.377c2.388-3.159,4.96-5.604,7.715-7.337
			c2.754-1.734,5.641-2.602,8.66-2.602c3.018,0,5.913,0.868,8.682,2.602s5.348,4.179,7.737,7.337
			c2.388,3.157,4.557,6.951,6.506,11.377c1.949,4.428,3.619,9.35,5.012,14.768c1.391,5.419,2.468,11.239,3.231,17.461
			c0.762,6.223,1.143,12.71,1.143,19.459c0,6.688-0.381,13.143-1.143,19.366c-0.763,6.223-1.84,12.044-3.231,17.461
			c-1.393,5.42-3.063,10.342-5.012,14.768c-1.949,4.428-4.118,8.22-6.506,11.378c-2.389,3.159-4.967,5.605-7.737,7.338
			C238.447,513.886,235.553,514.754,232.535,514.754z M232.535,485.589c2.55,0,4.886-1.162,7.012-3.483
			c2.124-2.322,3.949-5.481,5.473-9.474c1.523-3.995,2.704-8.639,3.539-13.932c0.835-5.295,1.252-10.914,1.252-16.858
			c0-6.005-0.425-11.671-1.274-16.997c-0.851-5.325-2.044-9.985-3.583-13.979c-1.539-3.995-3.363-7.152-5.473-9.474
			c-2.11-2.322-4.426-3.484-6.946-3.484c-2.521,0-4.835,1.162-6.946,3.484c-2.11,2.322-3.928,5.479-5.451,9.474
			c-1.524,3.994-2.719,8.654-3.583,13.979c-0.865,5.326-1.297,10.992-1.297,16.997c0,5.945,0.432,11.563,1.297,16.858
			c0.864,5.293,2.059,9.938,3.583,13.932c1.523,3.993,3.341,7.151,5.451,9.474C227.699,484.428,230.014,485.589,232.535,485.589z"/>
		<path style="fill:#272525;" d="M270.868,369.119h26.728v26.055h-6.111v59.595c0,5.434,0.286,10.043,0.857,13.833
			c0.572,3.791,1.371,6.886,2.396,9.286c1.026,2.401,2.243,4.154,3.649,5.258c1.407,1.106,2.945,1.658,4.615,1.658
			c1.729,0,3.305-0.474,4.725-1.422c1.422-0.947,2.638-2.573,3.649-4.879c1.011-2.305,1.788-5.384,2.329-9.237
			c0.543-3.852,0.814-8.684,0.814-14.497v-59.595h-7.077v-26.055h26.728v26.055h-5.32v55.9c0,10.107-0.674,19.091-2.022,26.955
			c-1.348,7.864-3.202,14.513-5.561,19.944c-2.359,5.434-5.129,9.569-8.308,12.412c-3.18,2.843-6.587,4.264-10.221,4.264
			c-3.605,0-6.975-1.407-10.111-4.217c-3.136-2.809-5.869-6.884-8.198-12.222c-2.33-5.337-4.169-11.827-5.517-19.471
			c-1.348-7.641-2.022-16.296-2.022-25.96v-57.606h-6.022V369.119z"/>
		<path style="fill:#272525;" d="M342.215,369.119h30.771c3.429,0,6.579,1.168,9.452,3.503c2.872,2.337,5.348,5.488,7.429,9.456
			c2.081,3.969,3.707,8.544,4.879,13.728c1.172,5.184,1.758,10.593,1.758,16.223c0,6.785-0.462,13.137-1.384,19.055
			c-0.924,5.921-2.352,11.057-4.287,15.408c-1.934,4.353-4.381,7.792-7.341,10.319c-2.96,2.529-6.462,3.792-10.506,3.792h-9.275
			v27.742h6.11v26.304h-27.606v-26.304h6.901v-92.828h-6.901V369.119z M363.711,395.518v39.071h6.022
			c3.341,0,5.993-1.537,7.957-4.608s2.945-7.934,2.945-14.591c0-6.207-0.923-11.071-2.769-14.592
			c-1.847-3.519-4.558-5.28-8.133-5.28H363.711z"/>
		<path style="fill:#272525;" d="M403.759,369.119h28.529v26.398h-7.033v92.828h14.507c0.38,0,0.754-0.24,1.12-0.719
			c0.366-0.48,0.688-1.104,0.968-1.872c0.278-0.769,0.506-1.599,0.682-2.496c0.176-0.896,0.264-1.76,0.264-2.592v-19.488h14.242
			v53.471h-53.278v-26.304h6.901v-92.828h-6.901V369.119z"/>
		<path style="fill:#272525;" d="M497.217,488.346h6.638l-2.989-20.927H480.38l-2.989,20.927h7.034v26.304h-25.277v-26.304h4.968
			l18.155-119.227h17.628l17.76,119.227h4.836v26.304h-25.277V488.346z M483.854,442.844h13.451l-6.77-47.327L483.854,442.844z"/>
		<path style="fill:#272525;" d="M570.586,369.119h25.32v26.398H590.5v119.132h-14.595l-27.739-94.077v67.773h5.583v26.304h-25.276
			v-26.304h5.494v-92.828h-5.406v-26.398h20.133l27.563,95.324v-68.926h-5.671V369.119z"/>
		<path style="fill:#272525;" d="M601.753,369.119h25.585c3.048,0,5.971,0.863,8.77,2.592c2.799,1.728,5.408,4.161,7.825,7.295
			c2.418,3.136,4.616,6.897,6.594,11.279c1.979,4.384,3.671,9.264,5.077,14.64c1.407,5.376,2.491,11.168,3.254,17.375
			c0.762,6.208,1.143,12.671,1.143,19.391s-0.381,13.186-1.143,19.391c-0.763,6.208-1.847,12.017-3.254,17.423
			c-1.406,5.41-3.099,10.337-5.077,14.783c-1.978,4.45-4.176,8.256-6.594,11.424c-2.417,3.168-5.026,5.616-7.825,7.343
			s-5.722,2.592-8.77,2.592h-25.585v-26.304h5.319v-92.828h-5.319V369.119z M621.667,395.518v92.828h5.583
			c2.374,0,4.615-1.214,6.726-3.647c2.11-2.432,3.941-5.743,5.495-9.936c1.554-4.19,2.784-9.12,3.692-14.783
			c0.908-5.665,1.363-11.76,1.363-18.288c0-6.463-0.455-12.511-1.363-18.144c-0.908-5.63-2.139-10.526-3.692-14.688
			c-1.554-4.159-3.385-7.423-5.495-9.791c-2.11-2.367-4.352-3.552-6.726-3.552H621.667z"/>
	</g>
	<g>
		<path style="fill:#272525;" d="M237.445,522.772h41.028v28.598h-8.661L247.75,680.423h-27.31l-14.477-98.375l-14.793,98.375
			h-27.057L141.671,551.37h-9.672v-28.598h41.091v28.598h-9.988l14.097,84.96l17.005-113.246h23.517l16.689,113.246l14.161-84.96
			h-11.126V522.772z"/>
		<path style="fill:#272525;" d="M330.248,680.423c-4.341,0-8.493-0.938-12.454-2.812c-3.962-1.873-7.66-4.521-11.095-7.936
			c-3.436-3.414-6.554-7.515-9.356-12.305c-2.803-4.786-5.195-10.108-7.175-15.968c-1.981-5.857-3.52-12.136-4.615-18.831
			c-1.097-6.694-1.644-13.693-1.644-20.992c0-7.297,0.547-14.313,1.644-21.041c1.095-6.729,2.633-13.023,4.615-18.883
			c1.98-5.858,4.372-11.181,7.175-15.969c2.802-4.786,5.92-8.889,9.356-12.303c3.435-3.415,7.133-6.06,11.095-7.935
			c3.961-1.874,8.113-2.812,12.454-2.812c4.34,0,8.502,0.938,12.485,2.812c3.982,1.875,7.69,4.52,11.126,7.935
			c3.435,3.415,6.554,7.517,9.357,12.303c2.802,4.788,5.204,10.111,7.207,15.969c2.001,5.86,3.548,12.153,4.646,18.883
			c1.096,6.728,1.644,13.743,1.644,21.041c0,7.231-0.548,14.21-1.644,20.942c-1.098,6.728-2.645,13.023-4.646,18.881
			c-2.003,5.859-4.405,11.182-7.207,15.968c-2.804,4.79-5.923,8.891-9.357,12.305c-3.436,3.415-7.144,6.062-11.126,7.936
			C338.75,679.484,334.588,680.423,330.248,680.423z M330.248,648.885c3.667,0,7.027-1.254,10.083-3.767
			c3.055-2.509,5.679-5.924,7.871-10.243c2.191-4.317,3.888-9.34,5.089-15.066c1.201-5.724,1.802-11.8,1.802-18.228
			c0-6.494-0.611-12.62-1.833-18.38c-1.223-5.758-2.939-10.796-5.152-15.116c-2.213-4.318-4.836-7.733-7.871-10.245
			c-3.035-2.51-6.364-3.766-9.988-3.766c-3.625,0-6.954,1.255-9.988,3.766c-3.035,2.512-5.648,5.926-7.839,10.245
			c-2.192,4.319-3.91,9.358-5.152,15.116c-1.244,5.76-1.865,11.886-1.865,18.38c0,6.428,0.622,12.504,1.865,18.228
			c1.242,5.727,2.96,10.749,5.152,15.066c2.19,4.319,4.804,7.734,7.839,10.243C323.294,647.631,326.623,648.885,330.248,648.885z"/>
		<path style="fill:#272525;" d="M389.293,522.772h50.7c4.932,0,9.335,1.214,13.213,3.64c3.877,2.427,7.144,5.667,9.799,9.723
			c2.655,4.055,4.688,8.771,6.1,14.143c1.412,5.373,2.118,10.971,2.118,16.794c0,5.34-0.348,10.019-1.042,14.039
			c-0.696,4.021-1.708,7.591-3.035,10.711c-1.328,3.12-2.962,5.876-4.899,8.267c-1.938,2.394-4.151,4.561-6.638,6.5
			c2.149,1.804,4.046,4.559,5.689,8.267c1.644,3.71,2.886,8.512,3.729,14.403l3.225,20.485h7.902l0.126,30.678h-27.815
			l-3.793-37.437c-0.38-4.436-0.959-8.267-1.739-11.492c-0.779-3.223-1.823-5.855-3.129-7.903c-1.307-2.044-2.897-3.551-4.772-4.522
			c-1.876-0.971-4.1-1.456-6.67-1.456h-8.154v34.317h8.787v28.493h-39.701V651.93h9.925V551.37h-9.925V522.772z M420.207,551.37
			v38.165h12.58c2.402,0,4.562-0.363,6.479-1.093c1.918-0.727,3.562-1.872,4.932-3.43c1.369-1.561,2.423-3.519,3.16-5.876
			c0.738-2.356,1.107-5.164,1.107-8.423c0-6.1-1.328-10.849-3.982-14.247c-2.655-3.396-6.554-5.096-11.695-5.096H420.207z"/>
		<path style="fill:#272525;" d="M486.016,522.772h41.028v28.598h-10.115v45.86l30.661-43.988v-30.47h32.683v30.678h-7.144
			l-31.925,45.132l30.598,50.956h7.775v30.885h-31.798v-30.885l-30.851-50.748v53.14h10.115v28.493h-41.028V651.93h9.925V551.37
			h-9.925V522.772z"/>
		<path style="fill:#272525;" d="M636.726,569.418c-0.212-2.312-0.727-4.492-1.549-6.542c-0.821-2.046-1.876-3.815-3.161-5.303
			c-1.285-1.486-2.739-2.659-4.361-3.518c-1.623-0.857-3.319-1.289-5.089-1.289c-1.603,0-3.098,0.265-4.489,0.793
			c-1.391,0.53-2.603,1.338-3.635,2.428c-1.033,1.09-1.854,2.495-2.465,4.212c-0.612,1.719-0.917,3.766-0.917,6.145
			c0,2.973,0.411,5.336,1.232,7.085c0.822,1.752,1.875,3.189,3.161,4.312c1.285,1.125,2.708,2.017,4.268,2.676
			c1.558,0.66,3.075,1.388,4.551,2.181l17.385,9.118c2.402,1.323,4.656,3.138,6.765,5.451c2.107,2.314,3.93,5.121,5.468,8.424
			c1.538,3.306,2.75,7.104,3.636,11.398c0.885,4.295,1.327,9.117,1.327,14.469c0,7.271-0.853,13.911-2.561,19.923
			c-1.706,6.013-4.099,11.166-7.175,15.462c-3.076,4.295-6.765,7.632-11.062,10.01c-4.299,2.378-9.062,3.567-14.287,3.567
			c-3.667,0-7.134-0.644-10.399-1.934c-3.267-1.286-6.249-3.154-8.945-5.599c-2.697-2.442-5.058-5.368-7.08-8.771
			c-2.023-3.402-3.604-7.251-4.742-11.548h-6.511V622.74h22.885v6.145c0,2.974,0.305,5.717,0.916,8.227
			c0.611,2.513,1.527,4.692,2.75,6.542c1.223,1.849,2.76,3.287,4.615,4.31c1.854,1.025,4.023,1.538,6.512,1.538
			c3.793,0,6.679-1.37,8.66-4.114c1.981-2.741,2.972-6.556,2.972-11.447c0-2.511-0.349-4.609-1.043-6.293
			c-0.696-1.687-1.592-3.104-2.688-4.263c-1.097-1.154-2.317-2.131-3.666-2.923c-1.35-0.793-2.678-1.52-3.982-2.181l-14.478-7.334
			c-2.74-1.321-5.384-3.171-7.933-5.55c-2.551-2.378-4.805-5.352-6.766-8.919c-1.959-3.568-3.52-7.747-4.678-12.539
			c-1.159-4.788-1.738-10.257-1.738-16.402c0-7.136,0.843-13.494,2.528-19.078c1.686-5.583,4.046-10.291,7.081-14.124
			c3.034-3.831,6.638-6.739,10.81-8.722c4.173-1.981,8.745-2.973,13.719-2.973c3.919,0,7.544,0.711,10.873,2.131
			c3.328,1.422,6.311,3.32,8.944,5.699c2.635,2.379,4.869,5.104,6.701,8.177c1.834,3.072,3.234,6.261,4.205,9.564h6.321v29.931
			h-22.885V569.418z"/>
	</g>
	<g>
		<path style="fill:#272525;" d="M190.599,688.177h37.527v27.637h-9.237v97.179h9.237v27.536h-37.527v-27.536h9.122V774h-39.49
			v38.992h9.237v27.536h-37.469v-27.536h9.064v-97.179h-9.064v-27.637h37.469v27.637h-9.237v31.656h39.49v-31.656h-9.122V688.177z"
			/>
		<path style="fill:#272525;" d="M286.148,812.992h8.718l-3.926-21.908h-26.904l-3.926,21.908h9.237v27.536h-33.197v-27.536h6.524
			l23.844-124.815h23.151l23.324,124.815h6.351v27.536h-33.197V812.992z M268.597,765.357h17.667l-8.891-49.544L268.597,765.357z"/>
		<path style="fill:#272525;" d="M327.197,688.177H373.5c4.503,0,8.525,1.173,12.067,3.518c3.541,2.346,6.523,5.477,8.948,9.396
			c2.425,3.918,4.282,8.477,5.572,13.668c1.288,5.192,1.934,10.602,1.934,16.229c0,5.16-0.317,9.682-0.952,13.566
			c-0.636,3.887-1.56,7.337-2.771,10.352c-1.214,3.015-2.705,5.679-4.476,7.989c-1.771,2.312-3.791,4.406-6.062,6.28
			c1.963,1.744,3.695,4.406,5.196,7.989c1.501,3.585,2.636,8.226,3.405,13.919l2.945,19.798h7.216l0.115,29.646h-25.403
			l-3.464-36.179c-0.346-4.287-0.876-7.988-1.587-11.105c-0.713-3.113-1.666-5.66-2.857-7.637c-1.193-1.976-2.646-3.433-4.358-4.372
			c-1.713-0.938-3.744-1.406-6.092-1.406h-7.447v33.163h8.024v27.536h-36.257v-27.536h9.064v-97.179h-9.064V688.177z
			 M355.43,715.813v36.882h11.488c2.194,0,4.166-0.352,5.918-1.057c1.75-0.702,3.252-1.808,4.503-3.314
			c1.25-1.509,2.212-3.401,2.887-5.679c0.673-2.276,1.01-4.99,1.01-8.14c0-5.895-1.211-10.485-3.636-13.768
			s-5.986-4.925-10.682-4.925H355.43z"/>
		<path style="fill:#272525;" d="M413.741,688.177h33.601c4.003,0,7.842,0.905,11.518,2.714s7.103,4.355,10.277,7.638
			c3.176,3.283,6.062,7.22,8.66,11.809c2.599,4.59,4.821,9.697,6.668,15.324c1.848,5.629,3.271,11.693,4.272,18.19
			c1.001,6.499,1.501,13.266,1.501,20.3c0,7.035-0.5,13.803-1.501,20.301s-2.425,12.579-4.272,18.239
			c-1.847,5.662-4.069,10.821-6.668,15.476c-2.598,4.658-5.484,8.643-8.66,11.96c-3.175,3.314-6.602,5.878-10.277,7.688
			c-3.676,1.809-7.515,2.714-11.518,2.714h-33.601v-27.536h6.985v-97.179h-6.985V688.177z M439.895,715.813v97.179h7.332
			c3.118,0,6.062-1.271,8.834-3.819c2.771-2.545,5.176-6.013,7.217-10.4c2.039-4.389,3.656-9.548,4.85-15.476
			c1.192-5.931,1.789-12.312,1.789-19.146c0-6.767-0.597-13.098-1.789-18.993c-1.193-5.895-2.811-11.021-4.85-15.376
			c-2.041-4.354-4.446-7.771-7.217-10.25c-2.771-2.479-5.716-3.719-8.834-3.719H439.895z"/>
		<path style="fill:#272525;" d="M500.284,688.177h69.628v51.956H551.09v-21.605h-22.458v30.047h17.378v29.145h-17.378v35.273
			h22.458v-27.033h18.822v54.569h-69.628v-27.536h9.18v-94.465h-9.18V688.177z"/>
		<path style="fill:#272525;" d="M579.957,688.177h46.303c4.504,0,8.525,1.173,12.066,3.518c3.541,2.346,6.524,5.477,8.949,9.396
			c2.425,3.918,4.281,8.477,5.57,13.668c1.29,5.192,1.935,10.602,1.935,16.229c0,5.16-0.317,9.682-0.952,13.566
			c-0.636,3.887-1.56,7.337-2.771,10.352c-1.214,3.015-2.705,5.679-4.476,7.989c-1.771,2.312-3.791,4.406-6.062,6.28
			c1.963,1.744,3.694,4.406,5.196,7.989c1.501,3.585,2.636,8.226,3.406,13.919l2.944,19.798h7.217l0.115,29.646h-25.403
			l-3.464-36.179c-0.347-4.287-0.876-7.988-1.588-11.105c-0.712-3.113-1.665-5.66-2.857-7.637c-1.193-1.976-2.646-3.433-4.358-4.372
			c-1.714-0.938-3.744-1.406-6.092-1.406h-7.447v33.163h8.025v27.536h-36.258v-27.536h9.064v-97.179h-9.064V688.177z
			 M608.189,715.813v36.882h11.489c2.193,0,4.166-0.352,5.917-1.057c1.751-0.702,3.252-1.808,4.503-3.314
			c1.251-1.509,2.214-3.401,2.887-5.679c0.674-2.276,1.011-4.99,1.011-8.14c0-5.895-1.212-10.485-3.637-13.768
			s-5.985-4.925-10.681-4.925H608.189z"/>
	</g>
	<g>
		<path style="fill:#272525;" d="M148.153,985.562h7.186V878.196h-8.421v21.538h-14.919v-50.662h63.108v50.662h-15.01v-21.538
			h-9.565v107.366h7.322v30.112h-29.701V985.562z"/>
		<path style="fill:#272525;" d="M248.147,849.072h29.746v30.222h-7.322v106.269h7.322v30.112h-29.746v-30.112h7.23v-42.639h-31.302
			v42.639h7.322v30.112h-29.701v-30.112h7.185V879.294h-7.185v-30.222h29.701v30.222h-7.322v34.617h31.302v-34.617h-7.23V849.072z"
			/>
		<path style="fill:#272525;" d="M323.886,985.562h6.91l-3.111-23.956h-21.326l-3.112,23.956h7.322v30.112h-26.313v-30.112h5.171
			l18.9-136.49h18.351l18.488,136.49h5.034v30.112h-26.314V985.562z M309.974,933.473h14.004l-7.048-54.179L309.974,933.473z"/>
		<path style="fill:#272525;" d="M400.266,849.072h26.359v30.222h-5.628v136.381h-15.194l-28.877-107.698v77.586h5.812v30.112
			h-26.314v-30.112h5.72V879.294h-5.629v-30.222h20.96l28.694,109.127v-78.905h-5.903V849.072z"/>
		<path style="fill:#272525;" d="M449.873,849.072h29.7v30.222h-5.812l9.29,38.244l9.839-38.244h-6.635v-30.222h29.7v30.222h-5.126
			l-20.64,67.257v39.012h8.421v30.112h-30.937v-30.112h7.688v-39.451l-19.403-66.817h-6.087V849.072z"/>
		<path style="fill:#272525;" d="M554.58,1015.675c-3.143,0-6.148-0.992-9.015-2.972c-2.868-1.981-5.546-4.777-8.032-8.386
			c-2.486-3.61-4.744-7.942-6.772-13.005c-2.03-5.057-3.761-10.683-5.194-16.873c-1.435-6.191-2.548-12.826-3.341-19.902
			c-0.794-7.075-1.19-14.472-1.19-22.185c0-7.711,0.396-15.126,1.19-22.235c0.793-7.113,1.906-13.764,3.341-19.955
			c1.434-6.19,3.164-11.817,5.194-16.877c2.028-5.059,4.286-9.394,6.772-13.003s5.164-6.403,8.032-8.386
			c2.866-1.979,5.872-2.972,9.015-2.972s6.155,0.992,9.039,2.972c2.882,1.982,5.567,4.776,8.054,8.386s4.744,7.944,6.773,13.003
			c2.028,5.06,3.768,10.687,5.217,16.877c1.449,6.191,2.569,12.842,3.363,19.955c0.794,7.109,1.19,14.524,1.19,22.235
			c0,7.642-0.396,15.019-1.19,22.132c-0.794,7.109-1.914,13.764-3.363,19.955c-1.449,6.19-3.188,11.816-5.217,16.873
			c-2.029,5.062-4.287,9.395-6.773,13.005c-2.486,3.608-5.172,6.404-8.054,8.386C560.735,1014.683,557.723,1015.675,554.58,1015.675
			z M554.58,982.346c2.654,0,5.087-1.326,7.3-3.981c2.211-2.651,4.111-6.26,5.697-10.826c1.586-4.562,2.815-9.869,3.684-15.921
			c0.87-6.049,1.305-12.471,1.305-19.265c0-6.862-0.442-13.337-1.327-19.424c-0.885-6.086-2.128-11.411-3.73-15.974
			c-1.601-4.565-3.5-8.175-5.696-10.826c-2.197-2.656-4.607-3.981-7.231-3.981s-5.034,1.325-7.229,3.981
			c-2.197,2.651-4.09,6.261-5.676,10.826c-1.586,4.562-2.829,9.888-3.729,15.974c-0.9,6.087-1.351,12.562-1.351,19.424
			c0,6.794,0.45,13.216,1.351,19.265c0.9,6.052,2.144,11.359,3.729,15.921c1.586,4.566,3.479,8.175,5.676,10.826
			C549.546,981.02,551.956,982.346,554.58,982.346z"/>
		<path style="fill:#272525;" d="M594.486,849.072h27.824V878.9h-6.361v68.225c0,6.22,0.298,11.497,0.893,15.836
			s1.426,7.882,2.494,10.629c1.068,2.75,2.334,4.756,3.798,6.02c1.465,1.267,3.066,1.898,4.806,1.898c1.8,0,3.439-0.541,4.919-1.626
			c1.479-1.086,2.746-2.947,3.8-5.586c1.051-2.639,1.859-6.165,2.425-10.576c0.563-4.409,0.847-9.941,0.847-16.595V878.9h-7.368
			v-29.828h27.824V878.9h-5.538v63.994c0,11.568-0.702,21.856-2.104,30.857c-1.403,9.004-3.333,16.614-5.789,22.833
			c-2.456,6.22-5.339,10.955-8.648,14.209c-3.312,3.253-6.858,4.881-10.641,4.881c-3.753,0-7.261-1.61-10.526-4.827
			c-3.265-3.218-6.109-7.882-8.535-13.991c-2.425-6.11-4.34-13.54-5.742-22.29c-1.403-8.748-2.105-18.656-2.105-29.719V878.9h-6.27
			V849.072z"/>
	</g>
</g>
<g id="Guides">
</g>
</svg>
