<?xml version="1.0" encoding="iso-8859-1"?>
<!-- Generator: Adobe Illustrator 15.1.0, SVG Export Plug-In . SVG Version: 6.00 Build 0)  -->
<!DOCTYPE svg PUBLIC "-//W3C//DTD SVG 1.1//EN" "http://www.w3.org/Graphics/SVG/1.1/DTD/svg11.dtd">
<svg version="1.1" xmlns="http://www.w3.org/2000/svg" xmlns:xlink="http://www.w3.org/1999/xlink" x="0px" y="0px" width="792px"
	 height="1224px" viewBox="0 0 792 1224" style="enable-background:new 0 0 792 1224;" xml:space="preserve">
<g id="Layer_1">
	<g>
		<path style="fill:#272525;" d="M168.976,207.95c4.072,0,7.867,1.556,11.385,4.662c3.517,3.109,6.571,7.821,9.164,14.13
			c2.591,6.314,4.627,14.277,6.109,23.891c1.48,9.614,2.221,20.932,2.221,33.942c0,13.016-0.741,24.329-2.221,33.942
			c-1.482,9.615-3.518,17.582-6.109,23.892c-2.593,6.313-5.647,11.025-9.164,14.13c-3.518,3.109-7.313,4.661-11.385,4.661H132.1
			v-5.245c1.703,0,2.554-1.748,2.554-5.244V218.439c0-3.496-0.852-5.245-2.554-5.245v-5.244H168.976z M164.533,336.145
			c3.479,0,6.515-0.773,9.108-2.331c2.591-1.552,4.738-4.32,6.442-8.303c1.703-3.979,2.98-9.274,3.832-15.878
			c0.851-6.601,1.277-14.955,1.277-25.057c0-10.097-0.427-18.45-1.277-25.056c-0.852-6.602-2.129-11.896-3.832-15.878
			c-1.704-3.979-3.851-6.747-6.442-8.304c-2.593-1.552-5.628-2.331-9.108-2.331h-17.216v103.138H164.533z"/>
		<path style="fill:#272525;" d="M247.28,208.01c4.072,0,8.22,1.574,12.44,4.724s8.07,7.873,11.551,14.172
			c3.48,6.298,6.331,14.27,8.553,23.905c2.221,9.64,3.332,21.044,3.332,34.212c0,13.17-1.111,24.578-3.332,34.213
			c-2.222,9.641-5.073,17.607-8.553,23.905c-3.481,6.298-7.331,10.88-11.551,13.742c-4.221,2.864-8.369,4.295-12.44,4.295
			c-4.073,0-8.219-1.432-12.44-4.295c-4.221-2.862-8.072-7.444-11.551-13.742c-3.482-6.298-6.332-14.264-8.553-23.905
			c-2.221-9.635-3.332-21.043-3.332-34.213c0-13.168,1.111-24.572,3.332-34.212c2.222-9.635,5.071-17.607,8.553-23.905
			c3.479-6.299,7.331-11.022,11.551-14.172S243.207,208.01,247.28,208.01z M247.28,234.349c-2.815,0-5.628,1.145-8.441,3.435
			c-2.815,2.292-5.351,5.584-7.608,9.878c-2.26,4.295-4.092,9.591-5.498,15.889c-1.408,6.3-2.11,13.457-2.11,21.473
			c0,8.017,0.703,15.174,2.11,21.472c1.406,6.3,3.238,11.595,5.498,15.891c2.258,4.294,4.793,7.586,7.608,9.877
			c2.813,2.29,5.626,3.435,8.441,3.435c2.813,0,5.626-1.145,8.442-3.435c2.813-2.291,5.349-5.583,7.608-9.877
			c2.258-4.295,4.09-9.591,5.498-15.891c1.406-6.298,2.11-13.455,2.11-21.472c0-8.016-0.705-15.173-2.11-21.473
			c-1.408-6.298-3.24-11.594-5.498-15.889c-2.26-4.294-4.795-7.586-7.608-9.878C252.907,235.494,250.094,234.349,247.28,234.349z"/>
		<path style="fill:#272525;" d="M316.035,213.164c-1.629,0-2.443,1.739-2.443,5.214v86.897c0,12.165,1.5,20.52,4.498,25.055
			c3,4.54,7.386,6.807,13.163,6.807c5.775,0,10.163-2.267,13.162-6.807c2.999-4.535,4.498-12.89,4.498-25.055v-86.897
			c0-3.476-1.111-5.214-3.332-5.214v-5.213h17.771v5.213c-1.777,0-2.666,1.739-2.666,5.214v85.449c0,11.396-0.63,20.81-1.889,28.242
			c-1.26,7.435-3.148,13.374-5.665,17.813c-2.518,4.444-5.646,7.436-9.385,8.979c-3.74,1.544-8.053,2.318-12.939,2.318
			c-4.889,0-9.203-0.774-12.94-2.318c-3.74-1.543-6.87-4.535-9.386-8.979c-2.518-4.44-4.406-10.378-5.665-17.813
			c-1.26-7.432-1.888-16.846-1.888-28.242v-85.449c0-3.476-1.038-5.214-3.11-5.214v-5.213h18.216V213.164z"/>
		<path style="fill:#272525;" d="M433.437,256.107l-2.222-1.718c0.148-1.146,0.223-2.291,0.223-3.435c0-2.863-0.686-5.44-2.055-7.73
			c-1.371-2.29-3.11-4.245-5.221-5.868c-2.11-1.621-4.406-2.815-6.887-3.58c-2.481-0.76-4.831-1.145-7.053-1.145
			c-2.74,0-5.462,1.001-8.164,3.005c-2.704,2.004-5.109,5.109-7.22,9.305c-2.11,4.202-3.814,9.64-5.109,16.32
			c-1.296,6.683-1.944,14.792-1.944,24.335c0,9.354,0.648,17.419,1.944,24.191c1.295,6.778,3,12.267,5.109,16.462
			c2.11,4.201,4.516,7.301,7.22,9.305c2.702,2.004,5.424,3.006,8.164,3.006c4.221,0,8.015-0.904,11.385-2.72
			c3.369-1.812,6.237-3.767,8.608-5.869v-24.622h-14.218c-1.037,0-1.815,0.573-2.332,1.717c-0.519,1.146-0.853,3.628-1,7.444h-1.999
			v-36.646h1.999c0.147,3.248,0.481,5.297,1,6.156c0.517,0.859,1.295,1.29,2.332,1.29h27.769v5.152
			c-1.482,0.573-2.407,1.244-2.776,2.004c-0.372,0.764-0.556,2.389-0.556,4.867v32.352c0,1.91,0.222,3.149,0.666,3.721
			c0.444,0.573,0.962,1.245,1.556,2.005v4.58c-2.443,4.393-5.019,8.017-7.72,10.879c-2.704,2.863-5.443,5.109-8.22,6.729
			c-2.777,1.623-5.554,2.625-8.33,3.005c-2.777,0.38-5.498,0.573-8.164,0.573c-5.184,0-9.904-1.669-14.162-5.011
			c-4.259-3.337-7.905-8.302-10.941-14.887c-3.037-6.584-5.387-14.601-7.054-24.049c-1.666-9.448-2.499-20.184-2.499-32.208
			c0-12.024,0.833-22.761,2.499-32.209c1.667-9.447,4.017-17.508,7.054-24.191c3.036-6.678,6.682-11.784,10.941-15.317
			c4.257-3.529,8.978-5.296,14.162-5.296c3.257,0,6.367,0.572,9.33,1.718c2.96,1.145,5.59,2.433,7.887,3.864
			c2.293,1.432,4.201,2.77,5.72,4.009c1.517,1.243,2.461,1.861,2.832,1.861c0.666,0,1.185-0.381,1.555-1.146
			c0.37-0.76,0.74-1.431,1.111-2.004l1.333,2.004L433.437,256.107z"/>
		<path style="fill:#272525;" d="M514.629,366.737c0-2.913-0.352-4.567-1.055-4.954c-0.704-0.391-1.61-0.583-2.722-0.583h-52.87
			v-5.245c2.221,0,3.332-1.748,3.332-5.244V218.439c0-3.496-1.111-5.245-3.332-5.245v-5.244h19.104v5.244
			c-2.074,0-3.11,1.749-3.11,5.245v115.958h36.876c1.111,0,2.018-0.679,2.722-2.041c0.703-1.356,1.055-3.204,1.055-5.536h2v39.916
			H514.629z"/>
		<path style="fill:#272525;" d="M521.07,355.956c0.962-0.387,1.722-1.647,2.277-3.787c0.555-2.135,1.092-4.562,1.61-7.284
			l20.549-113.336c0.517-2.521,0.98-4.853,1.389-6.992c0.405-2.135,0.61-3.979,0.61-5.536c0-1.939-0.261-3.301-0.777-4.079
			c-0.519-0.774-1.074-1.357-1.666-1.749v-5.244h18.771v5.244c-0.52,0.392-1.039,0.924-1.556,1.603
			c-0.519,0.683-0.777,2.089-0.777,4.225c0,1.557,0.129,3.11,0.389,4.662c0.259,1.557,0.647,3.597,1.166,6.118l23.104,118.579
			c0.369,2.14,0.87,3.692,1.5,4.662c0.628,0.975,1.35,1.943,2.165,2.913v5.245h-19.549v-5.245c0.295,0,0.667-0.292,1.111-0.874
			c0.444-0.583,0.666-1.457,0.666-2.622c0-1.939-0.296-4.466-0.889-7.575l-4.221-21.56h-27.102l-3.999,20.686
			c-0.74,4.079-1.11,6.993-1.11,8.741c0,2.14,0.703,3.205,2.11,3.205v5.245H521.07V355.956z M562.945,301.765l-9.331-54.191
			l-10.44,54.191H562.945z"/>
		<path style="fill:#272525;" d="M606.707,313.051l1.11,1.433c0,1.72,0.147,3.252,0.444,4.586c0.518,2.293,1.536,4.541,3.055,6.735
			c1.517,2.199,3.258,4.156,5.221,5.875c1.961,1.72,4.016,3.107,6.164,4.156c2.146,1.052,4.072,1.577,5.776,1.577
			c1.258,0,2.888-0.238,4.887-0.717c1.999-0.475,3.961-1.479,5.887-3.01c1.925-1.525,3.591-3.627,4.999-6.305
			c1.405-2.674,2.109-6.207,2.109-10.604c0-4.393-0.648-7.64-1.943-9.745c-1.297-2.1-2.999-3.627-5.109-4.584
			c-2.11-0.955-4.518-1.577-7.22-1.864c-2.704-0.287-5.462-0.716-8.275-1.29c-2.814-0.573-5.572-1.526-8.274-2.866
			c-2.704-1.334-5.109-3.583-7.22-6.735c-2.11-3.153-3.814-7.451-5.109-12.897c-1.296-5.445-1.943-12.561-1.943-21.352
			c0-5.92,0.536-11.75,1.61-17.483c1.072-5.732,2.721-10.792,4.942-15.19c2.222-4.394,5.034-7.976,8.442-10.748
			c3.404-2.767,7.403-4.155,11.995-4.155c3.924,0,7.331,0.766,10.219,2.292c2.888,1.533,5.387,3.153,7.498,4.874
			c2.109,1.72,3.888,3.345,5.331,4.872c1.443,1.533,2.646,2.294,3.609,2.294c1.036,0,1.777-0.574,2.222-1.721l1.333,2.293
			l-7.664,35.825l-1.111-1.146c-0.148-2.673-0.443-4.873-0.889-6.592c-0.593-2.293-1.573-4.537-2.942-6.736
			c-1.371-2.194-2.981-4.155-4.832-5.874c-1.852-1.72-3.851-3.105-5.998-4.156c-2.148-1.048-4.295-1.576-6.442-1.576
			c-1.629,0-3.314,0.335-5.054,1.002c-1.741,0.672-3.315,1.675-4.721,3.01c-1.407,1.339-2.573,3.108-3.499,5.302
			c-0.927,2.199-1.388,4.922-1.388,8.168c0,4.586,0.647,8.026,1.943,10.318c1.295,2.293,2.999,4.013,5.109,5.16
			c2.11,1.146,4.516,1.912,7.22,2.292c2.702,0.385,5.46,0.86,8.275,1.433c2.812,0.574,5.571,1.577,8.274,3.009
			c2.702,1.434,5.11,3.726,7.22,6.878c2.11,3.154,3.813,7.407,5.109,12.754c1.295,5.352,1.944,12.325,1.944,20.922
			c0,9.937-1.019,18.056-3.055,24.362c-2.038,6.305-4.573,11.276-7.608,14.903c-3.037,3.632-6.313,6.068-9.83,7.308
			c-3.518,1.241-6.795,1.864-9.83,1.864c-4.221,0-7.758-0.623-10.607-1.864c-2.852-1.24-5.221-2.767-7.108-4.585
			c-1.889-1.814-3.388-3.439-4.499-4.873c-1.11-1.434-2.073-2.15-2.888-2.15c-0.519,0-0.999,0.766-1.444,2.293l-1.555-2.293
			L606.707,313.051z"/>
	</g>
	<g>
		<path style="fill:#272525;" d="M187.439,494.397c-0.19,0-0.365-0.043-0.522-0.137c-0.159-0.089-0.333-0.136-0.523-0.136
			c-0.38,0-1.284,1.091-2.71,3.273c-1.426,2.181-3.233,4.635-5.42,7.363c-2.187,2.728-4.676,5.093-7.464,7.091
			c-2.791,2.003-5.706,3.001-8.748,3.001c-3.994,0-7.83-1.453-11.506-4.364c-3.677-2.906-6.927-7.407-9.747-13.5
			c-2.822-6.09-5.056-13.681-6.704-22.774c-1.649-9.091-2.472-19.727-2.472-31.912c0-12,0.823-22.59,2.472-31.773
			c1.648-9.18,3.882-16.864,6.704-23.047c2.82-6.179,6.069-10.816,9.747-13.91c3.676-3.09,7.512-4.637,11.506-4.637
			c3.233,0,6.164,0.728,8.795,2.181c2.63,1.458,4.928,3,6.894,4.637c1.964,1.636,3.518,3.183,4.659,4.636
			c1.141,1.458,1.838,2.183,2.092,2.183c0.316,0,0.585-0.452,0.808-1.363c0.221-0.908,0.395-1.638,0.523-2.183l1.426,3.273
			l-7.417,33.002l-0.951-1.909c0-0.545-0.017-1.092-0.047-1.637c-0.033-0.544-0.081-1.18-0.143-1.908
			c-0.127-2-0.761-4.045-1.901-6.137c-1.142-2.088-2.553-3.956-4.232-5.591c-1.68-1.637-3.456-3-5.325-4.092
			c-1.871-1.091-3.599-1.636-5.182-1.636c-2.663,0-5.215,1.091-7.655,3.273c-2.441,2.182-4.564,5.365-6.371,9.545
			c-1.807,4.186-3.25,9.321-4.327,15.411c-1.079,6.094-1.616,13.049-1.616,20.865c0,7.819,0.538,14.773,1.616,20.864
			c1.077,6.095,2.52,11.229,4.327,15.41c1.807,4.185,3.93,7.364,6.371,9.545c2.44,2.182,4.992,3.274,7.655,3.274
			c2.028,0,4.151-0.683,6.371-2.046c2.218-1.363,4.247-3.089,6.086-5.182c1.838-2.089,3.375-4.454,4.612-7.091
			c1.236-2.635,1.854-5.136,1.854-7.5c0-1.271-0.127-2.361-0.38-3.273l1.332-2.182l6.276,28.911L187.439,494.397z"/>
		<path style="fill:#272525;" d="M232.13,369.248c3.485,0,7.037,1.487,10.65,4.464s6.909,7.441,9.889,13.395
			c2.979,5.952,5.42,13.486,7.322,22.593c1.902,9.111,2.853,19.888,2.853,32.334c0,12.448-0.951,23.229-2.853,32.336
			c-1.902,9.111-4.343,16.641-7.322,22.593c-2.98,5.953-6.276,10.283-9.889,12.988c-3.613,2.707-7.165,4.06-10.65,4.06
			c-3.487,0-7.037-1.353-10.65-4.06c-3.613-2.706-6.91-7.035-9.889-12.988c-2.981-5.952-5.42-13.482-7.322-22.593
			c-1.902-9.107-2.853-19.888-2.853-32.336c0-12.446,0.951-23.223,2.853-32.334c1.902-9.107,4.341-16.641,7.322-22.593
			c2.979-5.954,6.275-10.417,9.889-13.395C225.093,370.735,228.643,369.248,232.13,369.248z M232.13,394.142
			c-2.41,0-4.819,1.083-7.227,3.247c-2.41,2.165-4.581,5.276-6.514,9.335c-1.934,4.059-3.503,9.064-4.707,15.017
			c-1.205,5.954-1.807,12.718-1.807,20.294c0,7.578,0.602,14.341,1.807,20.294c1.203,5.954,2.772,10.959,4.707,15.018
			c1.933,4.059,4.104,7.17,6.514,9.335c2.408,2.165,4.817,3.248,7.227,3.248c2.408,0,4.816-1.083,7.227-3.248
			c2.409-2.165,4.579-5.276,6.514-9.335c1.933-4.059,3.502-9.064,4.707-15.018c1.204-5.953,1.806-12.717,1.806-20.294
			c0-7.576-0.603-14.34-1.806-20.294c-1.205-5.953-2.774-10.958-4.707-15.017c-1.935-4.059-4.105-7.17-6.514-9.335
			C236.946,395.224,234.538,394.142,232.13,394.142z"/>
		<path style="fill:#272525;" d="M290.99,374.173c-1.395,0-2.092,1.643-2.092,4.926v82.096c0,11.494,1.284,19.387,3.851,23.671
			c2.568,4.289,6.323,6.431,11.268,6.431c4.944,0,8.701-2.143,11.269-6.431c2.566-4.284,3.851-12.177,3.851-23.671V379.1
			c0-3.283-0.951-4.926-2.853-4.926v-4.925h15.214v4.925c-1.521,0-2.282,1.643-2.282,4.926v80.728c0,10.767-0.54,19.66-1.617,26.682
			c-1.078,7.025-2.695,12.635-4.85,16.83c-2.156,4.199-4.833,7.025-8.034,8.483c-3.202,1.458-6.894,2.19-11.078,2.19
			c-4.185,0-7.878-0.731-11.078-2.19c-3.202-1.458-5.881-4.284-8.035-8.483c-2.156-4.195-3.772-9.805-4.85-16.83
			c-1.079-7.021-1.617-15.915-1.617-26.682V379.1c0-3.283-0.889-4.926-2.663-4.926v-4.925h15.595V374.173z"/>
		<path style="fill:#272525;" d="M344.999,514.941v-4.986c2.344,0,3.518-1.662,3.518-4.985v-125.75c0-3.323-1.174-4.986-3.518-4.986
			v-4.985h33.471c6.085,0,10.872,3.28,14.358,9.833c3.486,6.556,5.23,17.684,5.23,33.376c0,15.697-1.744,26.824-5.23,33.377
			c-3.486,6.557-8.272,9.833-14.358,9.833h-19.113v49.303c0,3.323,1.014,4.985,3.043,4.985v4.986H344.999z M379.611,430.185
			c2.092,0,3.882-1.199,5.372-3.601c1.489-2.397,2.235-7.106,2.235-14.126c0-7.015-0.746-11.724-2.235-14.126
			c-1.49-2.397-3.28-3.601-5.372-3.601h-20.254v35.455H379.611z"/>
		<path style="fill:#272525;" d="M455.776,520.204c0-2.77-0.302-4.342-0.903-4.709c-0.603-0.372-1.379-0.553-2.329-0.553h-45.263
			v-4.986c1.901,0,2.853-1.662,2.853-4.985v-125.75c0-3.323-0.951-4.986-2.853-4.986v-4.985h16.355v4.985
			c-1.775,0-2.662,1.663-2.662,4.986v110.24h31.569c0.95,0,1.727-0.646,2.329-1.939c0.602-1.29,0.903-3.046,0.903-5.263h1.712
			v37.947H455.776z"/>
		<path style="fill:#272525;" d="M461.291,509.955c0.823-0.368,1.474-1.566,1.949-3.6c0.475-2.03,0.935-4.337,1.379-6.925
			l17.592-107.747c0.442-2.397,0.839-4.613,1.188-6.647c0.347-2.03,0.522-3.783,0.522-5.263c0-1.843-0.223-3.137-0.666-3.877
			c-0.443-0.735-0.919-1.291-1.426-1.663v-4.985h16.07v4.985c-0.444,0.372-0.889,0.879-1.332,1.524
			c-0.443,0.649-0.665,1.986-0.665,4.016c0,1.48,0.11,2.957,0.333,4.433c0.221,1.479,0.554,3.418,0.998,5.817l19.778,112.73
			c0.316,2.035,0.745,3.51,1.284,4.433c0.538,0.926,1.155,1.848,1.854,2.77v4.986h-16.735v-4.986c0.253,0,0.57-0.277,0.951-0.83
			c0.38-0.555,0.57-1.386,0.57-2.494c0-1.844-0.254-4.246-0.761-7.201l-3.613-20.497h-23.201l-3.424,19.666
			c-0.634,3.877-0.951,6.648-0.951,8.309c0,2.034,0.602,3.047,1.808,3.047v4.986h-13.503V509.955z M497.14,458.436l-7.988-51.518
			l-8.938,51.518H497.14z"/>
		<path style="fill:#272525;" d="M531.371,509.955c1.203,0,1.807-1.662,1.807-4.985v-125.75c0-3.323-0.604-4.986-1.807-4.986v-4.985
			h16.26v4.985c-0.509,0-0.761,0.927-0.761,2.77c0,1.481,0.633,4.065,1.901,7.756l27.291,82.542v-88.082
			c0-3.323-0.824-4.986-2.473-4.986v-4.985h14.359v4.985c-1.206,0-1.808,1.663-1.808,4.986v125.75c0,3.323,0.602,4.985,1.808,4.985
			v4.986h-15.405v-4.986c0.823,0,1.236-0.83,1.236-2.492c0-1.291-0.509-3.416-1.521-6.371l-29.002-88.081v91.958
			c0,3.323,0.729,4.985,2.187,4.985v4.986h-14.072V509.955z"/>
		<path style="fill:#272525;" d="M635.303,369.248c3.486,0,6.735,1.479,9.747,4.432c3.01,2.956,5.625,7.435,7.845,13.433
			c2.219,6.003,3.961,13.573,5.23,22.714c1.267,9.14,1.901,19.899,1.901,32.268c0,12.374-0.635,23.129-1.901,32.269
			c-1.27,9.141-3.012,16.714-5.23,22.713c-2.22,6.002-4.835,10.481-7.845,13.434c-3.012,2.955-6.261,4.432-9.747,4.432h-31.569
			v-4.986c1.458,0,2.187-1.662,2.187-4.985v-125.75c0-3.323-0.729-4.986-2.187-4.986v-4.985H635.303z M631.5,491.121
			c2.979,0,5.577-0.735,7.797-2.216c2.218-1.476,4.057-4.107,5.516-7.894c1.457-3.782,2.55-8.817,3.28-15.095
			c0.728-6.275,1.093-14.217,1.093-23.821c0-9.599-0.365-17.541-1.093-23.821c-0.73-6.275-1.823-11.308-3.28-15.095
			c-1.459-3.783-3.298-6.415-5.516-7.894c-2.22-1.476-4.818-2.216-7.797-2.216h-14.739v98.052H631.5z"/>
	</g>
	<g>
		<path style="fill:#272525;" d="M153.822,528.04c-1.435,0-2.152,1.908-2.152,5.715c0,1.005,0.072,2.208,0.215,3.609
			c0.143,1.404,0.502,3.712,1.076,6.918l15.352,83.605h0.287l15.208-84.811c0.477-2.602,0.79-4.557,0.933-5.863
			c0.144-1.302,0.215-2.454,0.215-3.459c0-3.807-0.624-5.715-1.866-5.715v-5.412h24.534v5.412c-0.67,0-1.147,0.504-1.435,1.504
			c-0.287,1.007-0.43,2.106-0.43,3.31c0,2.005,0.478,5.414,1.435,10.224l15.351,84.811h0.287l15.495-86.613
			c0.668-3.007,1.004-5.715,1.004-8.121c0-1.203-0.24-2.354-0.717-3.458c-0.48-1.1-1.054-1.655-1.721-1.655v-5.412h21.234v5.412
			c-1.054,0-1.843,1.204-2.368,3.61c-0.527,2.405-1.125,5.413-1.793,9.021l-20.66,114.886c-0.574,3.21-1.076,6.015-1.506,8.419
			c-0.43,2.406-0.645,4.413-0.645,6.016c0,1.406,0.237,2.661,0.717,3.759c0.477,1.105,1.148,1.655,2.008,1.655v5.413H211.21v-5.413
			c0.574-0.4,1.17-1.001,1.793-1.805c0.621-0.799,0.933-1.901,0.933-3.309c0-1.602-0.168-3.406-0.502-5.413
			c-0.336-2.001-0.885-4.812-1.649-8.422l-16.5-88.72h-0.287l-15.638,86.916c-1.435,7.819-2.152,12.735-2.152,14.737
			c0,3.208,0.621,5.215,1.865,6.015v5.413h-22.238v-5.413c0.574,0,1.148-0.3,1.722-0.902c0.574-0.602,0.861-1.603,0.861-3.007
			c0-1.603-0.168-3.308-0.502-5.114c-0.336-1.803-0.695-3.705-1.076-5.713l-22.955-124.208c-0.384-2.204-0.79-4.06-1.22-5.563
			c-0.431-1.504-1.125-2.453-2.081-2.858v-5.412h22.238V528.04z"/>
		<path style="fill:#272525;" d="M318.381,522.799c5.259,0,10.617,1.618,16.068,4.855c5.453,3.238,10.424,8.092,14.921,14.566
			c4.494,6.476,8.177,14.668,11.047,24.572c2.87,9.909,4.304,21.63,4.304,35.165c0,13.539-1.435,25.262-4.304,35.165
			c-2.87,9.908-6.553,18.099-11.047,24.572c-4.497,6.475-9.469,11.183-14.921,14.126c-5.452,2.942-10.809,4.414-16.068,4.414
			c-5.262,0-10.617-1.472-16.069-4.414c-5.452-2.943-10.426-7.651-14.92-14.126c-4.497-6.474-8.178-14.664-11.047-24.572
			c-2.87-9.902-4.304-21.626-4.304-35.165c0-13.535,1.435-25.256,4.304-35.165c2.869-9.904,6.55-18.096,11.047-24.572
			c4.495-6.474,9.469-11.328,14.92-14.566C307.764,524.417,313.12,522.799,318.381,522.799z M318.381,549.872
			c-3.636,0-7.27,1.176-10.904,3.531c-3.636,2.354-6.912,5.738-9.828,10.152c-2.918,4.414-5.286,9.859-7.102,16.333
			c-1.818,6.474-2.726,13.83-2.726,22.07c0,8.241,0.908,15.597,2.726,22.07c1.816,6.474,4.184,11.919,7.102,16.333
			c2.917,4.414,6.192,7.797,9.828,10.152c3.634,2.354,7.268,3.529,10.904,3.529c3.634,0,7.267-1.175,10.904-3.529
			c3.634-2.355,6.909-5.738,9.828-10.152c2.917-4.414,5.284-9.859,7.102-16.333c1.816-6.473,2.726-13.829,2.726-22.07
			c0-8.24-0.91-15.596-2.726-22.07c-1.818-6.474-4.186-11.918-7.102-16.333c-2.918-4.414-6.194-7.797-9.828-10.152
			C325.648,551.048,322.015,549.872,318.381,549.872z"/>
		<path style="fill:#272525;" d="M434.735,522.628c4.593,0,8.753,0.854,12.483,2.556c3.729,1.705,6.935,4.412,9.613,8.12
			c2.675,3.712,4.733,8.525,6.168,14.436c1.436,5.917,2.152,13.185,2.152,21.804c0,13.231-1.865,23.358-5.595,30.375
			c-3.73,7.02-8.752,11.729-15.064,14.134l19.081,57.144c0.668,2.006,1.457,3.208,2.367,3.607c0.907,0.404,1.744,0.602,2.51,0.602
			v5.413h-26.827v-5.413c0.86,0,1.6-0.3,2.223-0.902c0.622-0.602,0.932-1.401,0.932-2.405c0-1.003-0.191-2.154-0.573-3.459
			c-0.383-1.303-0.957-3.056-1.721-5.265l-15.781-46.914h-20.518v53.531c0,1.806,0.311,3.158,0.933,4.061
			c0.621,0.902,1.744,1.354,3.371,1.354v5.413H385.67v-5.413c2.772,0,4.16-1.805,4.16-5.414V533.455c0-3.608-1.388-5.415-4.16-5.415
			v-5.412H434.735z M431.007,593.002c3.443,0,6.312-0.55,8.608-1.654c2.294-1.1,4.109-2.655,5.451-4.662
			c1.338-2.001,2.296-4.36,2.869-7.066c0.574-2.708,0.861-5.662,0.861-8.874c0-3.204-0.287-6.164-0.861-8.872
			c-0.573-2.707-1.531-5.062-2.869-7.067c-1.342-2.002-3.157-3.557-5.451-4.662c-2.296-1.1-5.165-1.654-8.608-1.654h-24.821v44.51
			H431.007z"/>
		<path style="fill:#272525;" d="M507.76,669.992c0,1.806,0.289,3.158,0.861,4.061c0.574,0.902,1.243,1.354,2.009,1.354v5.413
			h-22.381v-5.413c2.102,0,3.156-1.805,3.156-5.414V533.455c0-3.608-1.055-5.415-3.156-5.415v-5.412h22.381v5.412
			c-0.766,0-1.435,0.452-2.009,1.354c-0.572,0.901-0.861,2.255-0.861,4.06v57.141l29.699-49.021c1.338-2.406,2.39-4.36,3.156-5.864
			c0.765-1.504,1.148-2.754,1.148-3.759c0-1.4-0.216-2.407-0.646-3.007c-0.43-0.602-0.933-0.903-1.506-0.903v-5.412h30.129v5.412
			c-1.723,0-3.443,1.504-5.165,4.512l-32.998,55.037l30.129,73.082c1.241,3.007,2.701,5.968,4.375,8.871
			c1.673,2.911,3.323,4.864,4.951,5.865v5.413h-26.543v-5.413c1.242,0,1.866-0.699,1.866-2.105c0-1.001-0.672-3.205-2.01-6.615
			l-24.533-59.248l-12.053,19.548V669.992z"/>
		<path style="fill:#272525;" d="M591.403,630.801l1.435,1.472c0,1.769,0.191,3.339,0.574,4.712
			c0.668,2.353,1.983,4.662,3.945,6.917c1.959,2.26,4.208,4.268,6.743,6.035c2.533,1.765,5.188,3.192,7.962,4.268
			c2.773,1.082,5.26,1.618,7.461,1.618c1.626,0,3.729-0.241,6.313-0.734c2.582-0.488,5.116-1.519,7.604-3.092
			c2.486-1.568,4.638-3.726,6.456-6.476c1.816-2.746,2.726-6.376,2.726-10.891s-0.837-7.85-2.511-10.012
			c-1.675-2.155-3.873-3.726-6.599-4.708c-2.727-0.979-5.836-1.621-9.326-1.915c-3.493-0.293-7.055-0.736-10.688-1.325
			c-3.636-0.588-7.199-1.568-10.689-2.943c-3.492-1.37-6.599-3.68-9.326-6.917c-2.725-3.239-4.927-7.655-6.598-13.247
			c-1.675-5.595-2.512-12.902-2.512-21.933c0-6.079,0.692-12.069,2.081-17.957c1.385-5.887,3.515-11.085,6.384-15.602
			c2.87-4.513,6.503-8.192,10.904-11.04c4.397-2.842,9.562-4.268,15.494-4.268c5.069,0,9.469,0.786,13.2,2.354
			c3.729,1.574,6.958,3.238,9.685,5.005c2.726,1.767,5.021,3.436,6.886,5.004c1.865,1.573,3.418,2.356,4.663,2.356
			c1.338,0,2.296-0.59,2.868-1.768l1.724,2.356l-9.901,36.797l-1.435-1.176c-0.191-2.746-0.572-5.006-1.147-6.771
			c-0.766-2.355-2.033-4.66-3.802-6.919c-1.771-2.253-3.851-4.268-6.241-6.035c-2.392-1.765-4.974-3.187-7.747-4.268
			c-2.775-1.075-5.548-1.62-8.321-1.62c-2.104,0-4.281,0.345-6.528,1.031c-2.249,0.69-4.281,1.721-6.098,3.092
			c-1.817,1.374-3.324,3.19-4.519,5.444c-1.198,2.26-1.793,5.056-1.793,8.391c0,4.711,0.836,8.243,2.51,10.598
			c1.673,2.354,3.874,4.121,6.601,5.298c2.726,1.179,5.832,1.964,9.325,2.354c3.49,0.397,7.053,0.885,10.688,1.473
			c3.634,0.588,7.196,1.62,10.688,3.091c3.491,1.472,6.601,3.828,9.326,7.064c2.726,3.239,4.925,7.609,6.601,13.102
			c1.671,5.496,2.51,12.656,2.51,21.488c0,10.207-1.316,18.546-3.945,25.021c-2.633,6.478-5.906,11.585-9.828,15.311
			c-3.923,3.729-8.155,6.231-12.697,7.504c-4.544,1.275-8.777,1.915-12.697,1.915c-5.452,0-10.021-0.64-13.701-1.915
			c-3.684-1.272-6.743-2.842-9.182-4.709c-2.44-1.861-4.376-3.531-5.811-5.004c-1.436-1.472-2.679-2.206-3.731-2.206
			c-0.67,0-1.29,0.784-1.865,2.353l-2.009-2.353L591.403,630.801z"/>
	</g>
	<g>
		<path style="fill:#272525;" d="M190.339,699.028c0-3.466-0.942-5.2-2.821-5.2v-5.199h19.746v5.199c-0.599,0-1.134,0.435-1.603,1.3
			c-0.471,0.867-0.706,2.167-0.706,3.9v131.146c0,1.734,0.234,3.034,0.706,3.9c0.469,0.866,1.003,1.3,1.603,1.3v5.199h-19.746
			v-5.199c1.879,0,2.821-1.732,2.821-5.2v-54.306h-41.287v54.306c0,1.734,0.234,3.034,0.705,3.9c0.469,0.866,1.004,1.3,1.603,1.3
			v5.199h-19.361v-5.199c1.623,0,2.437-1.732,2.437-5.2V699.028c0-3.466-0.814-5.2-2.437-5.2v-5.199h19.361v5.199
			c-0.599,0-1.134,0.435-1.603,1.3c-0.471,0.867-0.705,2.167-0.705,3.9v49.107h41.287V699.028z"/>
		<path style="fill:#272525;" d="M222.266,835.374c1.11-0.384,1.988-1.635,2.628-3.756c0.642-2.117,1.26-4.521,1.859-7.223
			l23.721-112.368c0.597-2.501,1.132-4.811,1.603-6.933c0.469-2.117,0.705-3.944,0.705-5.488c0-1.922-0.3-3.272-0.897-4.044
			c-0.599-0.768-1.24-1.345-1.923-1.734v-5.199h21.669v5.199c-0.599,0.39-1.198,0.916-1.795,1.59
			c-0.599,0.677-0.897,2.072-0.897,4.188c0,1.544,0.148,3.082,0.448,4.622c0.298,1.545,0.748,3.566,1.347,6.064l26.669,117.572
			c0.427,2.12,1.004,3.658,1.731,4.619c0.725,0.967,1.559,1.929,2.5,2.89v5.199h-22.567v-5.199c0.341,0,0.77-0.288,1.283-0.867
			c0.513-0.577,0.769-1.445,0.769-2.599c0-1.923-0.342-4.428-1.026-7.513l-4.872-21.375h-31.286l-4.616,20.511
			c-0.855,4.044-1.282,6.932-1.282,8.666c0,2.122,0.812,3.177,2.437,3.177v5.199h-18.208V835.374z M270.605,781.645l-10.771-53.729
			l-12.053,53.729H270.605z"/>
		<path style="fill:#272525;" d="M359.203,688.629c4.104,0,7.822,0.821,11.156,2.456c3.334,1.638,6.198,4.239,8.592,7.799
			c2.391,3.566,4.23,8.188,5.512,13.866c1.283,5.684,1.923,12.664,1.923,20.942c0,12.709-1.666,22.437-5,29.176
			c-3.334,6.743-7.822,11.266-13.463,13.577l17.052,54.886c0.598,1.927,1.302,3.082,2.116,3.466
			c0.811,0.387,1.559,0.577,2.244,0.577v5.199h-23.976v-5.199c0.769,0,1.431-0.288,1.987-0.867c0.556-0.577,0.833-1.345,0.833-2.31
			c0-0.963-0.172-2.068-0.513-3.323c-0.342-1.251-0.855-2.934-1.538-5.055l-14.104-45.062h-18.336v51.417
			c0,1.734,0.276,3.034,0.833,3.9c0.555,0.866,1.559,1.3,3.014,1.3v5.199h-22.182v-5.199c2.479,0,3.718-1.732,3.718-5.2V699.028
			c0-3.466-1.24-5.2-3.718-5.2v-5.199H359.203z M355.871,756.225c3.077,0,5.641-0.528,7.693-1.59
			c2.05-1.056,3.673-2.549,4.872-4.477c1.195-1.922,2.052-4.189,2.564-6.788c0.513-2.601,0.77-5.439,0.77-8.522
			c0-3.077-0.257-5.92-0.77-8.521c-0.512-2.599-1.369-4.861-2.564-6.787c-1.199-1.925-2.821-3.418-4.872-4.478
			c-2.052-1.058-4.616-1.589-7.693-1.589h-22.183v42.752H355.871z"/>
		<path style="fill:#272525;" d="M449.725,688.629c4.7,0,9.082,1.543,13.144,4.622c4.059,3.083,7.584,7.755,10.578,14.011
			c2.99,6.259,5.341,14.154,7.052,23.688c1.709,9.533,2.564,20.752,2.564,33.651c0,12.906-0.855,24.121-2.564,33.655
			c-1.711,9.531-4.062,17.429-7.052,23.687c-2.994,6.26-6.52,10.933-10.578,14.009c-4.062,3.084-8.443,4.622-13.144,4.622h-42.569
			v-5.199c1.966,0,2.949-1.732,2.949-5.2V699.028c0-3.466-0.983-5.2-2.949-5.2v-5.199H449.725z M444.597,815.73
			c4.017,0,7.521-0.768,10.514-2.31c2.991-1.54,5.47-4.284,7.438-8.233c1.964-3.946,3.439-9.195,4.423-15.743
			c0.981-6.545,1.475-14.827,1.475-24.844c0-10.01-0.493-18.292-1.475-24.841c-0.983-6.544-2.459-11.795-4.423-15.745
			c-1.968-3.943-4.446-6.688-7.438-8.231c-2.993-1.541-6.497-2.311-10.514-2.311h-19.874V815.73H444.597z"/>
		<path style="fill:#272525;" d="M564.608,719.827c0-2.116-0.365-3.706-1.091-4.766c-0.727-1.058-1.986-1.589-3.781-1.589h-41.544
			v35.817h25.131c1.709,0,3.034-0.525,3.976-1.586c0.94-1.058,1.41-3.801,1.41-8.233h2.308v45.063h-2.308
			c0-4.429-0.47-7.268-1.41-8.523c-0.941-1.249-2.267-1.877-3.976-1.877h-25.131v39.864h42.825c1.282,0,2.329-0.674,3.142-2.021
			c0.812-1.347,1.219-3.178,1.219-5.49h2.307v39.575h-2.307c0-2.89-0.407-4.527-1.219-4.911c-0.812-0.387-1.859-0.577-3.142-0.577
			h-59.749v-5.199c0.597,0,1.132-0.434,1.602-1.3c0.469-0.866,0.705-2.166,0.705-3.9V699.028c0-1.733-0.236-3.033-0.705-3.9
			c-0.47-0.865-1.005-1.3-1.602-1.3v-5.199h58.468c1.795,0,3.055-0.623,3.781-1.878c0.726-1.25,1.091-2.933,1.091-5.055h2.308
			v38.131H564.608z"/>
		<path style="fill:#272525;" d="M629.871,688.629c4.104,0,7.821,0.821,11.155,2.456c3.334,1.638,6.197,4.239,8.591,7.799
			c2.393,3.566,4.231,8.188,5.513,13.866c1.283,5.684,1.924,12.664,1.924,20.942c0,12.709-1.666,22.437-5.001,29.176
			c-3.333,6.743-7.821,11.266-13.462,13.577l17.054,54.886c0.597,1.927,1.302,3.082,2.115,3.466
			c0.811,0.387,1.559,0.577,2.243,0.577v5.199h-23.977v-5.199c0.77,0,1.431-0.288,1.987-0.867c0.556-0.577,0.833-1.345,0.833-2.31
			c0-0.963-0.172-2.068-0.513-3.323c-0.343-1.251-0.855-2.934-1.538-5.055l-14.104-45.062h-18.336v51.417
			c0,1.734,0.277,3.034,0.834,3.9c0.555,0.866,1.559,1.3,3.013,1.3v5.199h-22.182v-5.199c2.479,0,3.717-1.732,3.717-5.2V699.028
			c0-3.466-1.238-5.2-3.717-5.2v-5.199H629.871z M626.537,756.225c3.077,0,5.643-0.528,7.693-1.59
			c2.052-1.056,3.674-2.549,4.872-4.477c1.197-1.922,2.052-4.189,2.565-6.788c0.513-2.601,0.77-5.439,0.77-8.522
			c0-3.077-0.257-5.92-0.77-8.521c-0.514-2.599-1.368-4.861-2.565-6.787c-1.198-1.925-2.82-3.418-4.872-4.478
			c-2.051-1.058-4.616-1.589-7.693-1.589h-22.182v42.752H626.537z"/>
	</g>
	<g>
		<path style="fill:#272525;" d="M165.109,1004.604c0,3.619,0.751,5.428,2.255,5.428v5.426h-15.787v-5.426
			c0.477,0,0.905-0.451,1.281-1.356c0.375-0.905,0.564-2.26,0.564-4.071V884.63h-16.914c-0.616,0-1.214,0.502-1.794,1.507
			c-0.582,1.008-0.872,2.915-0.872,5.727h-1.845v-42.202h1.845c0,2.816,0.29,4.724,0.872,5.726c0.58,1.009,1.178,1.509,1.794,1.509
			h45.515c0.615,0,1.212-0.5,1.794-1.509c0.58-1.002,0.872-2.909,0.872-5.726h1.845v42.202h-1.845c0-2.812-0.292-4.719-0.872-5.727
			c-0.582-1.005-1.179-1.507-1.794-1.507h-16.915V1004.604z"/>
		<path style="fill:#272525;" d="M247.015,860.491c0-3.794-0.753-5.692-2.255-5.692v-5.692h15.786v5.692
			c-0.479,0-0.906,0.475-1.281,1.423c-0.376,0.949-0.563,2.372-0.563,4.27v143.58c0,1.899,0.187,3.322,0.563,4.271
			c0.375,0.95,0.803,1.423,1.281,1.423v5.693H244.76v-5.693c1.502,0,2.255-1.896,2.255-5.693v-59.454h-33.008v59.454
			c0,1.899,0.187,3.322,0.563,4.271c0.375,0.95,0.803,1.423,1.281,1.423v5.693h-15.479v-5.693c1.297,0,1.948-1.896,1.948-5.693
			v-143.58c0-3.794-0.65-5.692-1.948-5.692v-5.692h15.479v5.692c-0.479,0-0.906,0.475-1.281,1.423
			c-0.376,0.949-0.563,2.372-0.563,4.27v53.765h33.008V860.491z"/>
		<path style="fill:#272525;" d="M272.541,1009.765c0.887-0.42,1.589-1.789,2.102-4.11c0.513-2.318,1.007-4.951,1.486-7.907
			l18.964-123.023c0.478-2.738,0.905-5.267,1.282-7.59c0.375-2.319,0.564-4.319,0.564-6.01c0-2.105-0.24-3.583-0.718-4.427
			c-0.479-0.84-0.992-1.473-1.538-1.898v-5.692h17.325v5.692c-0.479,0.426-0.958,1.003-1.436,1.74
			c-0.478,0.74-0.717,2.269-0.717,4.585c0,1.69,0.119,3.374,0.359,5.061c0.238,1.69,0.597,3.904,1.076,6.641l21.322,128.718
			c0.342,2.323,0.803,4.008,1.384,5.059c0.581,1.059,1.247,2.112,1.999,3.163v5.693h-18.042v-5.693c0.272,0,0.615-0.314,1.025-0.949
			c0.41-0.632,0.615-1.582,0.615-2.845c0-2.104-0.274-4.848-0.821-8.224l-3.895-23.402h-25.013l-3.69,22.455
			c-0.684,4.427-1.025,7.59-1.025,9.487c0,2.322,0.649,3.478,1.948,3.478v5.693h-14.557V1009.765z M311.187,950.942l-8.61-58.824
			l-9.636,58.824H311.187z"/>
		<path style="fill:#272525;" d="M348.091,1009.765c1.297,0,1.947-1.896,1.947-5.693v-143.58c0-3.794-0.65-5.692-1.947-5.692v-5.692
			h17.529v5.692c-0.548,0-0.82,1.059-0.82,3.162c0,1.69,0.683,4.641,2.05,8.855l29.421,94.246V860.491
			c0-3.794-0.889-5.692-2.666-5.692v-5.692h15.479v5.692c-1.299,0-1.948,1.898-1.948,5.692v143.58c0,3.798,0.649,5.693,1.948,5.693
			v5.693h-16.607v-5.693c0.888,0,1.333-0.949,1.333-2.846c0-1.472-0.548-3.897-1.64-7.273l-31.266-100.569v104.995
			c0,3.798,0.785,5.693,2.357,5.693v5.693h-15.171V1009.765z"/>
		<path style="fill:#272525;" d="M472.231,849.106v5.692c-0.615,0-1.196,0.268-1.743,0.791c-0.548,0.528-0.82,1.85-0.82,3.952
			c0,1.268,0.495,4.271,1.487,9.015c0.989,4.744,2.152,10.119,3.485,16.128c1.332,6.009,2.716,12.177,4.151,18.502
			s2.597,11.7,3.485,16.131l11.993-50.92c0.547-2.529,0.991-4.531,1.333-6.007c0.341-1.475,0.513-2.849,0.513-4.112
			c0-1.473-0.325-2.421-0.974-2.848c-0.65-0.421-1.248-0.632-1.794-0.632v-5.692h17.939v5.692c-0.548,0-1.061,0.158-1.538,0.475
			c-0.479,0.316-0.974,1.057-1.486,2.214c-0.512,1.161-1.06,2.846-1.64,5.06c-0.582,2.215-1.281,5.219-2.102,9.014l-17.428,76.22
			v56.291c0,3.798,0.785,5.693,2.358,5.693v5.693h-16.197v-5.693c0.615,0,1.128-0.473,1.538-1.423
			c0.41-0.948,0.615-2.371,0.615-4.271V947.78l-19.785-85.39c-0.479-2.107-1.214-3.899-2.203-5.379
			c-0.992-1.472-1.829-2.213-2.512-2.213v-5.692H472.231z"/>
		<path style="fill:#272525;" d="M552.291,848.92c3.758,0,7.586,1.713,11.482,5.135c3.895,3.427,7.447,8.562,10.66,15.409
			c3.212,6.85,5.844,15.517,7.894,25.992c2.05,10.483,3.075,22.882,3.075,37.199c0,14.319-1.025,26.723-3.075,37.199
			c-2.05,10.48-4.682,19.145-7.894,25.992c-3.213,6.849-6.766,11.829-10.66,14.942c-3.896,3.113-7.725,4.669-11.482,4.669
			c-3.759,0-7.585-1.556-11.48-4.669c-3.896-3.113-7.45-8.094-10.661-14.942c-3.214-6.848-5.843-15.512-7.894-25.992
			c-2.05-10.477-3.075-22.88-3.075-37.199c0-14.317,1.025-26.716,3.075-37.199c2.051-10.476,4.68-19.143,7.894-25.992
			c3.211-6.847,6.765-11.982,10.661-15.409C544.706,850.633,548.532,848.92,552.291,848.92z M552.291,877.557
			c-2.598,0-5.194,1.245-7.79,3.737c-2.599,2.491-4.938,6.068-7.022,10.739c-2.086,4.67-3.776,10.429-5.074,17.274
			c-1.299,6.85-1.947,14.633-1.947,23.348c0,8.716,0.648,16.499,1.947,23.348c1.298,6.847,2.988,12.606,5.074,17.274
			c2.084,4.672,4.424,8.249,7.022,10.741c2.596,2.489,5.192,3.733,7.79,3.733c2.597,0,5.193-1.244,7.791-3.733
			c2.597-2.492,4.937-6.069,7.022-10.741c2.084-4.668,3.774-10.428,5.074-17.274c1.298-6.849,1.947-14.632,1.947-23.348
			c0-8.715-0.649-16.498-1.947-23.348c-1.3-6.846-2.99-12.604-5.074-17.274c-2.086-4.671-4.426-8.248-7.022-10.739
			C557.484,878.802,554.888,877.557,552.291,877.557z"/>
		<path style="fill:#272525;" d="M615.746,854.767c-1.504,0-2.255,1.888-2.255,5.66v94.337c0,13.207,1.383,22.28,4.151,27.2
			c2.768,4.93,6.816,7.39,12.147,7.39c5.33,0,9.38-2.46,12.147-7.39c2.768-4.92,4.152-13.993,4.152-27.2v-94.337
			c0-3.772-1.025-5.66-3.075-5.66v-5.66h16.401v5.66c-1.641,0-2.461,1.888-2.461,5.66v92.765c0,12.371-0.581,22.591-1.742,30.66
			c-1.163,8.072-2.906,14.52-5.229,19.336c-2.324,4.827-5.212,8.075-8.662,9.751c-3.451,1.675-7.432,2.516-11.942,2.516
			s-8.492-0.841-11.942-2.516c-3.452-1.676-6.34-4.924-8.662-9.751c-2.324-4.816-4.066-11.264-5.228-19.336
			c-1.164-8.069-1.743-18.289-1.743-30.66v-92.765c0-3.772-0.958-5.66-2.87-5.66v-5.66h16.812V854.767z"/>
	</g>
</g>
<g id="Guides">
</g>
</svg>
