<?xml version="1.0" encoding="iso-8859-1"?>
<!-- Generator: Adobe Illustrator 15.1.0, SVG Export Plug-In . SVG Version: 6.00 Build 0)  -->
<!DOCTYPE svg PUBLIC "-//W3C//DTD SVG 1.1//EN" "http://www.w3.org/Graphics/SVG/1.1/DTD/svg11.dtd">
<svg version="1.1" xmlns="http://www.w3.org/2000/svg" xmlns:xlink="http://www.w3.org/1999/xlink" x="0px" y="0px" width="792px"
	 height="1224px" viewBox="0 0 792 1224" style="enable-background:new 0 0 792 1224;" xml:space="preserve">
<g id="Layer_1">
	<g>
		<path style="fill:#272525;" d="M195.28,284.153c0,1.38-0.041,3.507-0.118,6.387c-0.551,17.281-2.751,31.183-6.599,41.704
			c-2.672,7.139-6.522,13.337-11.549,18.597c-6.363,6.64-15.124,9.957-26.279,9.957c-5.107,0-11.312-0.502-18.619-1.503h-0.118
			v-150.47h1.768c1.807,0,4.752-0.217,8.838-0.657c4.083-0.437,6.794-0.658,8.131-0.658c11.391,0,20.151,3.32,26.279,9.957
			c5.263,5.762,9.113,11.834,11.549,18.221c3.927,10.144,6.127,24.171,6.599,42.079C195.239,280.649,195.28,282.776,195.28,284.153z
			 M189.152,284.153c0-2.503,0-4.068,0-4.695c-0.707-16.908-2.79-29.932-6.246-39.074c-2.121-5.509-5.5-10.77-10.134-15.779
			c-4.872-5.383-11.784-8.077-20.74-8.077c-3.064,0-7.777,0.375-14.141,1.126v82.654v50.533c6.364,0.628,11.077,0.939,14.141,0.939
			c8.562,0,15.438-2.692,20.623-8.078c4.635-4.884,8.013-10.079,10.134-15.592c3.535-9.139,5.657-22.227,6.363-39.261
			C189.152,288.225,189.152,286.659,189.152,284.153z"/>
		<path style="fill:#272525;" d="M278.24,230.445c7.855,14.731,11.784,32.833,11.784,54.303c0,21.346-3.929,39.387-11.784,54.115
			c-8.092,14.981-18.148,22.471-30.167,22.471c-11.864,0-21.527-7.49-28.989-22.471c-7.307-14.479-10.959-32.517-10.959-54.115
			c0-21.721,3.653-39.82,10.959-54.303c7.462-14.981,17.125-22.471,28.989-22.471C260.092,207.974,270.147,215.464,278.24,230.445z
			 M273.88,332.777c6.834-13.168,10.252-29.178,10.252-48.029c0-18.974-3.417-35.016-10.252-48.124
			c-6.835-13.108-15.438-19.661-25.808-19.661c-10.293,0-18.62,6.618-24.983,19.848c-6.05,12.61-9.074,28.589-9.074,47.937
			c0,19.225,3.023,35.203,9.074,47.937c6.363,13.234,14.69,19.848,24.983,19.848C258.442,352.532,267.044,345.95,273.88,332.777z"/>
		<path style="fill:#272525;" d="M367.916,308.18c0,35.232-10.058,52.849-30.168,52.849c-20.191,0-30.285-17.616-30.285-52.849
			V207.974h6.599v99.259c0,13.513,1.491,23.742,4.478,30.686c3.771,8.714,10.173,13.071,19.208,13.071
			c9.033,0,15.438-4.357,19.208-13.071c2.906-6.944,4.36-17.173,4.36-30.686v-99.259h6.6V308.18z"/>
		<path style="fill:#272525;" d="M451.701,292.289v67.421l-4.007,0.565c-4.949,0.5-11.195,0.753-18.736,0.753
			c-11.157,0-19.642-3.325-25.454-9.982c-5.107-5.899-8.838-11.987-11.195-18.268c-3.614-10.043-5.696-24.041-6.246-41.997h-0.117
			c0-0.25,0-1.379,0-3.39c0-1.379,0-2.383,0-3.013v-6.403h0.117c0.55-17.953,2.632-31.951,6.246-41.997
			c2.357-6.277,6.088-12.365,11.195-18.268c5.812-6.654,14.297-9.981,25.454-9.981c3.927,0,9.663,0.504,17.204,1.506v9.229
			c-8.171-1.13-14.376-1.695-18.618-1.695c-8.329,0-14.811,2.701-19.444,8.098c-4.637,5.399-7.896,10.734-9.781,16.007
			c-3.299,8.917-5.303,21.846-6.01,38.795c-0.079,0.63-0.117,2.199-0.117,4.708c0,2.512,0.038,4.02,0.117,4.52
			c0.707,17.076,2.71,30.07,6.01,38.984c1.886,5.149,5.145,10.452,9.781,15.914c4.634,5.462,11.115,8.192,19.444,8.192
			c5.577,0,11.587-0.312,18.029-0.942v-58.758H421.77v-9.417h29.932V292.289z"/>
		<path style="fill:#272525;" d="M519.459,351.881v9.453h-47.372V207.395h5.892v93.751v50.734H519.459z"/>
		<path style="fill:#272525;" d="M581.09,306.934h-36.885l-11.784,54.592h-6.245l33.113-153.938h6.128l33.938,153.938h-6.245
			L581.09,306.934z M578.969,297.289l-16.616-75.233l-16.144,75.233H578.969z"/>
		<path style="fill:#272525;" d="M633.41,361.587c-2.2,0-4.359-0.314-6.481-0.939c-6.757-2.128-12.217-5.821-16.38-11.081v-10.142
			c5.892,6.264,12.097,10.457,18.619,12.583c1.963,0.628,3.848,0.939,5.656,0.939c10.055,0,16.184-8.199,18.384-24.603
			c0.156-1.377,0.235-2.753,0.235-4.133c0-6.385-2.162-13.02-6.481-19.907c-2.2-3.503-6.796-9.326-13.787-17.466
			c-8.8-10.265-13.788-16.274-14.967-18.03c-4.792-7.386-7.188-15.4-7.188-24.039c0-2.254,0.156-4.569,0.471-6.95
			c1.414-10.892,4.556-18.968,9.428-24.228c3.927-4.132,8.603-6.197,14.023-6.197c2.277,0,4.634,0.375,7.07,1.127
			c4.634,1.502,9.074,4.759,13.316,9.765v9.767c-4.242-5.883-8.997-9.64-14.259-11.268c-2.2-0.752-4.243-1.127-6.128-1.127
			c-3.771,0-6.993,1.441-9.663,4.319c-4.007,4.258-6.561,10.831-7.66,19.72c-0.314,2.254-0.471,4.197-0.471,5.822
			c0,4.258,1.138,8.452,3.417,12.583c2.277,4.132,6.718,10.08,13.316,17.842c10.447,12.396,17.243,21.288,20.387,26.669
			c3.612,6.262,5.421,12.835,5.421,19.72c0,2.629-0.197,5.761-0.589,9.39c-1.179,10.518-4.087,18.03-8.721,22.538
			C645.508,359.145,639.852,361.587,633.41,361.587z"/>
	</g>
	<g>
		<path style="fill:#272525;" d="M142.193,399.982c-2.733,8.564-4.397,20.997-4.998,37.293c0,0.477,0,1.935,0,4.372
			c0,2.439,0,3.956,0,4.55c0.6,16.179,2.265,28.55,4.998,37.115c1.599,4.997,4.313,10.082,8.146,15.257
			c3.831,5.175,9.211,7.762,16.141,7.762c3.531,0,8.661-0.594,15.392-1.784v8.922c-6.264,1.07-11.028,1.606-14.292,1.606
			c-9.195,0-16.226-3.213-21.088-9.636c-4.265-5.59-7.331-11.42-9.195-17.487c-3.066-9.635-4.798-23.018-5.197-40.149h-0.1
			c0-0.117,0-1.188,0-3.212c0-1.308,0-2.258,0-2.855v-6.246h0.1c0.399-17.13,2.131-30.514,5.197-40.148
			c1.864-5.948,4.93-11.778,9.195-17.487c4.863-6.305,11.894-9.458,21.088-9.458c3.264,0,8.028,0.478,14.292,1.428v8.922
			c-6.73-1.188-11.861-1.784-15.392-1.784c-6.93,0-12.328,2.618-16.191,7.852C146.423,390.05,143.725,395.105,142.193,399.982z"/>
		<path style="fill:#272525;" d="M252.331,390.237c6.662,14.009,9.994,31.225,9.994,51.642c0,20.301-3.332,37.458-9.994,51.464
			c-6.863,14.247-15.392,21.369-25.586,21.369c-10.062,0-18.257-7.123-24.586-21.369c-6.197-13.77-9.295-30.923-9.295-51.464
			c0-20.657,3.098-37.869,9.295-51.642c6.329-14.246,14.524-21.369,24.586-21.369C236.939,368.868,245.468,375.991,252.331,390.237z
			 M248.633,487.554c5.796-12.523,8.695-27.748,8.695-45.676c0-18.044-2.898-33.3-8.695-45.764
			c-5.797-12.466-13.093-18.699-21.888-18.699c-8.729,0-15.792,6.294-21.188,18.876c-5.131,11.992-7.696,27.187-7.696,45.587
			c0,18.284,2.564,33.479,7.696,45.588c5.397,12.584,12.459,18.875,21.188,18.875C235.54,506.341,242.836,500.082,248.633,487.554z"
			/>
		<path style="fill:#272525;" d="M328.387,464.464c0,33.499-8.53,50.248-25.586,50.248c-17.125,0-25.686-16.749-25.686-50.248
			v-95.273h5.597v94.373c0,12.848,1.265,22.573,3.798,29.176c3.198,8.284,8.628,12.426,16.291,12.426
			c7.662,0,13.093-4.142,16.291-12.426c2.465-6.603,3.699-16.328,3.699-29.176v-94.373h5.596V464.464z"/>
		<path style="fill:#272525;" d="M397.35,417.037c-0.067,1.671-0.101,2.981-0.101,3.934c-0.734,13.351-4.165,24.258-10.294,32.72
			c-5.531,7.51-11.828,11.265-18.89,11.265c-3.333,0-8.195-0.476-14.592-1.431v51.137h-4.997V371.086
			c10.727-1.548,17.256-2.326,19.589-2.326c7.996-1.072,14.625,2.267,19.889,10.014c2.931,4.29,5.03,8.344,6.296,12.158
			c1.799,5.246,2.798,11.741,2.999,19.489c0,1.43,0.033,2.385,0.101,2.86C397.35,414.238,397.35,415.489,397.35,417.037z
			 M392.152,411.673c-0.4-10.728-2.698-19.189-6.896-25.39c-4.597-6.673-9.961-9.654-16.091-8.939
			c-4.198,0-9.429,0.597-15.691,1.788v39.693c0,0.715,0,1.134,0,1.252c-0.067,1.67-0.067,3.338,0,5.005c0,0.599,0,1.073,0,1.431
			v28.071c8.595,1.193,13.825,1.788,15.691,1.788c5.063,0.599,10.06-2.74,14.992-10.012c4.263-6.079,6.829-14.125,7.696-24.138
			c0.132-1.787,0.233-3.335,0.3-4.648C392.218,414.713,392.218,412.746,392.152,411.673z"/>
		<path style="fill:#272525;" d="M453.717,505.867v8.933h-40.178V369.334h4.998v88.591v47.941H453.717z"/>
		<path style="fill:#272525;" d="M505.988,463.395h-31.283l-9.994,51.587h-5.298l28.085-145.466h5.197l28.784,145.466h-5.297
			L505.988,463.395z M504.188,454.28l-14.092-71.092l-13.692,71.092H504.188z"/>
		<path style="fill:#272525;" d="M588.041,368.969L587.94,514.8h-4.896h-0.101l-43.575-128.513V514.8h-4.997V368.969h4.997
			l43.676,128.695V368.969H588.041z"/>
		<path style="fill:#272525;" d="M660,442.058c0,1.307-0.034,3.321-0.1,6.047c-0.467,16.363-2.333,29.523-5.597,39.484
			c-2.267,6.758-5.532,12.627-9.795,17.607c-5.397,6.286-12.827,9.427-22.288,9.427c-4.332,0-9.595-0.476-15.791-1.423h-0.1V370.738
			h1.499c1.531,0,4.03-0.205,7.496-0.622c3.463-0.415,5.762-0.623,6.896-0.623c9.661,0,17.091,3.143,22.288,9.426
			c4.463,5.455,7.729,11.205,9.795,17.252c3.33,9.603,5.196,22.884,5.597,39.839C659.966,438.74,660,440.755,660,442.058z
			 M654.803,442.058c0-2.37,0-3.852,0-4.446c-0.6-16.007-2.365-28.338-5.297-36.994c-1.799-5.217-4.665-10.197-8.595-14.94
			c-4.133-5.096-9.995-7.647-17.591-7.647c-2.599,0-6.597,0.355-11.993,1.067v78.256v47.843c5.396,0.594,9.395,0.889,11.993,0.889
			c7.262,0,13.093-2.548,17.49-7.647c3.931-4.625,6.797-9.543,8.596-14.762c2.998-8.654,4.797-21.045,5.396-37.172
			C654.803,445.913,654.803,444.432,654.803,442.058z"/>
	</g>
	<g>
		<path style="fill:#272525;" d="M271.152,522.837l-32.828,157.076h-7.843h-0.146l-28.76-138.179L172.67,679.913h-7.844
			l-32.828-157.076h7.844l28.906,138.376l28.905-138.376h7.844l28.906,138.376l28.906-138.376H271.152z"/>
		<path style="fill:#272525;" d="M372.83,546.09c9.682,15.098,14.525,33.651,14.525,55.656c0,21.879-4.844,40.368-14.525,55.464
			c-9.975,15.354-22.369,23.03-37.185,23.03c-14.624,0-26.534-7.677-35.732-23.03c-9.006-14.842-13.509-33.328-13.509-55.464
			c0-22.262,4.502-40.813,13.509-55.656c9.198-15.353,21.109-23.03,35.732-23.03C350.461,523.06,362.855,530.737,372.83,546.09z
			 M367.456,650.973c8.424-13.497,12.637-29.907,12.637-49.227c0-19.447-4.212-35.888-12.637-49.322
			c-8.425-13.434-19.029-20.151-31.811-20.151c-12.687,0-22.95,6.783-30.794,20.343c-7.457,12.924-11.184,29.3-11.184,49.13
			c0,19.705,3.727,36.081,11.184,49.132c7.844,13.562,18.107,20.341,30.794,20.341C348.427,671.219,359.031,664.473,367.456,650.973
			z"/>
		<path style="fill:#272525;" d="M487.288,679.527h-9.586c-15.785-22.951-31.716-44.537-47.79-64.766
			c-2.904-0.126-6.778-0.517-11.62-1.166v66.515h-7.263V525.104c10.07-1.684,18.252-2.398,24.549-2.14
			c15.299,0.651,26.193,5.576,32.682,14.781c5.034,7.263,7.601,17.698,7.699,31.312v0.195c0,0.129,0,0.261,0,0.388
			c-0.97,14.523-4.286,25.253-9.95,32.188c-5.665,6.938-14.162,11.12-25.492,12.544C456.3,634.862,471.892,656.576,487.288,679.527z
			 M418.292,604.065c3.582,0.39,6.828,0.651,9.733,0.779c0.676-0.128,1.354-0.128,2.032,0c11.716,0,20.481-2.14,26.292-6.418
			c7.746-5.446,11.715-15.233,11.91-29.367c0-10.891-2.131-19.061-6.392-24.506c-5.519-7.26-15.203-11.149-29.051-11.669
			c-4.262-0.128-9.103,0.131-14.525,0.778V604.065z"/>
		<path style="fill:#272525;" d="M584.607,680.11h-9.587c-19.659-29.001-39.509-55.835-59.555-80.506v80.506h-7.263V523.035h7.263
			v66.531l55.343-66.531h10.894l-59.264,71.254C543.548,620.537,564.271,649.142,584.607,680.11z"/>
		<path style="fill:#272525;" d="M627.603,680.197c-2.713,0-5.374-0.319-7.989-0.959c-8.329-2.174-15.059-5.951-20.191-11.324
			v-10.365c7.264,6.399,14.912,10.684,22.951,12.86c2.42,0.642,4.743,0.959,6.972,0.959c12.395,0,19.948-8.378,22.66-25.145
			c0.193-1.408,0.29-2.813,0.29-4.223c0-6.526-2.664-13.308-7.988-20.348c-2.713-3.582-8.378-9.531-16.995-17.851
			c-10.847-10.492-16.995-16.633-18.448-18.427c-5.907-7.548-8.859-15.74-8.859-24.569c0-2.304,0.193-4.67,0.58-7.103
			c1.743-11.132,5.616-19.386,11.621-24.762c4.841-4.222,10.604-6.333,17.285-6.333c2.808,0,5.712,0.384,8.716,1.151
			c5.712,1.536,11.185,4.865,16.413,9.981v9.981c-5.229-6.013-11.089-9.853-17.575-11.517c-2.712-0.768-5.229-1.151-7.554-1.151
			c-4.648,0-8.62,1.472-11.911,4.415c-4.938,4.352-8.087,11.07-9.441,20.155c-0.388,2.304-0.581,4.289-0.581,5.951
			c0,4.352,1.402,8.638,4.212,12.861c2.808,4.222,8.28,10.303,16.414,18.234c12.878,12.669,21.255,21.756,25.13,27.258
			c4.453,6.398,6.682,13.118,6.682,20.154c0,2.688-0.243,5.888-0.727,9.598c-1.452,10.748-5.036,18.426-10.749,23.034
			C642.514,677.703,635.541,680.197,627.603,680.197z"/>
	</g>
	<g>
		<path style="fill:#272525;" d="M202.274,688.539v151.835h-6.859v-78.108h-56.417v78.108h-7V688.539h7v64.201h56.417v-64.201
			H202.274z"/>
		<path style="fill:#272525;" d="M282.209,786.46h-43.817l-14,53.914h-7.419l39.337-152.025h7.28l40.317,152.025h-7.419
			L282.209,786.46z M279.689,776.935l-19.739-74.298l-19.179,74.298H279.689z"/>
		<path style="fill:#272525;" d="M395.601,839.81h-9.239c-15.213-22.232-30.566-43.145-46.057-62.737
			c-2.8-0.124-6.534-0.501-11.2-1.131v64.433h-7V690.22c9.705-1.631,17.591-2.323,23.659-2.073
			c14.745,0.631,25.244,5.401,31.498,14.32c4.852,7.035,7.325,17.143,7.42,30.331v0.188c0,0.126,0,0.252,0,0.377
			c-0.934,14.067-4.13,24.462-9.59,31.18c-5.459,6.721-13.649,10.771-24.569,12.151C365.734,796.542,380.762,817.577,395.601,839.81
			z M329.104,766.709c3.452,0.378,6.58,0.631,9.379,0.756c0.652-0.125,1.306-0.125,1.96,0c11.292,0,19.739-2.074,25.338-6.218
			c7.466-5.276,11.291-14.757,11.479-28.449c0-10.55-2.054-18.463-6.16-23.738c-5.319-7.033-14.652-10.802-27.998-11.304
			c-4.108-0.124-8.774,0.127-14,0.753V766.709z"/>
		<path style="fill:#272525;" d="M489.254,764.565c0,1.367-0.049,3.476-0.14,6.329c-0.654,17.125-3.269,30.898-7.84,41.322
			c-3.174,7.072-7.748,13.215-13.72,18.427c-7.559,6.578-17.967,9.865-31.218,9.865c-6.067,0-13.439-0.498-22.118-1.489h-0.141
			V689.926h2.1c2.146,0,5.646-0.216,10.5-0.65c4.852-0.435,8.071-0.652,9.659-0.652c13.531,0,23.938,3.289,31.218,9.864
			c6.252,5.709,10.826,11.727,13.72,18.056c4.665,10.051,7.279,23.949,7.84,41.693C489.205,761.092,489.254,763.2,489.254,764.565z
			 M481.975,764.565c0-2.479,0-4.03,0-4.653c-0.841-16.752-3.314-29.657-7.42-38.716c-2.521-5.459-6.534-10.671-12.039-15.635
			c-5.788-5.334-13.999-8.004-24.639-8.004c-3.641,0-9.24,0.371-16.799,1.117v81.898v50.07c7.559,0.622,13.158,0.93,16.799,0.93
			c10.171,0,18.339-2.668,24.498-8.003c5.506-4.839,9.52-9.987,12.04-15.45c4.2-9.056,6.719-22.024,7.56-38.901
			C481.975,768.599,481.975,767.049,481.975,764.565z"/>
		<path style="fill:#272525;" d="M515.011,752.74h49.138v9.525h-49.138v18.479v50.484l48.997-0.19v9.335h-55.996V688.349h6.999
			h49.138v9.524h-49.138V752.74z"/>
		<path style="fill:#272525;" d="M660.042,839.811h-9.239c-15.213-22.133-30.566-42.953-46.058-62.459
			c-2.8-0.123-6.533-0.498-11.199-1.126v64.148h-7V690.883c9.706-1.624,17.592-2.312,23.659-2.063
			c14.745,0.628,25.244,5.377,31.498,14.256c4.852,7.004,7.325,17.067,7.42,30.197v0.188c0,0.125,0,0.251,0,0.374
			c-0.934,14.007-4.13,24.354-9.59,31.043c-5.459,6.69-13.648,10.725-24.568,12.098
			C630.176,796.736,645.203,817.678,660.042,839.811z M593.546,767.034c3.452,0.376,6.58,0.629,9.38,0.752
			c0.652-0.123,1.306-0.123,1.96,0c11.291,0,19.739-2.063,25.339-6.19c7.465-5.252,11.29-14.69,11.479-28.323
			c0-10.504-2.054-18.38-6.16-23.633c-5.318-7.002-14.652-10.753-27.998-11.254c-4.107-0.123-8.773,0.126-13.999,0.75V767.034z"/>
	</g>
	<g>
		<path style="fill:#272525;" d="M180.188,859.169h-21.509v156.845h-5.17V859.169h-21.509v-10.47h48.189V859.169z"/>
		<path style="fill:#272525;" d="M245.646,849.118v166.896h-5.067v-85.856h-41.674v85.856h-5.17V849.118h5.17v70.568h41.674v-70.568
			H245.646z"/>
		<path style="fill:#272525;" d="M304.692,956.751h-32.367l-10.341,59.263h-5.481l29.058-167.106h5.377l29.782,167.106h-5.481
			L304.692,956.751z M302.831,946.281l-14.581-81.668l-14.167,81.668H302.831z"/>
		<path style="fill:#272525;" d="M389.589,848.678l-0.104,167.126h-5.067h-0.104l-45.086-147.279v147.279h-5.17V848.678h5.17
			l45.19,147.489V848.678H389.589z"/>
		<path style="fill:#272525;" d="M483.896,935.182v80.622h-5.17v-81.248l-26.68-85.856h6.102l23.163,74.965l23.164-74.965h6.101
			l-26.266,85.017L483.896,935.182z"/>
		<path style="fill:#272525;" d="M581.307,873.092c6.894,16.027,10.342,35.722,10.342,59.08c0,23.227-3.448,42.854-10.342,58.878
			c-7.101,16.298-15.924,24.447-26.473,24.447c-10.41,0-18.89-8.149-25.438-24.447c-6.411-15.755-9.617-35.38-9.617-58.878
			c0-23.631,3.206-43.323,9.617-59.08c6.549-16.299,15.028-24.448,25.438-24.448C565.383,848.644,574.206,856.793,581.307,873.092z
			 M577.481,984.428c5.997-14.327,8.996-31.746,8.996-52.256c0-20.645-2.999-38.096-8.996-52.357
			c-5.998-14.262-13.547-21.392-22.647-21.392c-9.032,0-16.338,7.201-21.923,21.595c-5.309,13.721-7.962,31.104-7.962,52.154
			c0,20.917,2.653,38.301,7.962,52.155c5.585,14.397,12.891,21.594,21.923,21.594C563.935,1005.921,571.483,998.759,577.481,984.428
			z"/>
		<path style="fill:#272525;" d="M660,958.095c0,38.244-8.825,57.367-26.473,57.367c-17.719,0-26.576-19.123-26.576-57.367v-108.77
			h5.791v107.743c0,14.668,1.309,25.773,3.93,33.309c3.309,9.46,8.927,14.188,16.855,14.188c7.927,0,13.547-4.728,16.855-14.188
			c2.55-7.535,3.826-18.641,3.826-33.309V849.325H660V958.095z"/>
	</g>
</g>
<g id="Guides">
</g>
</svg>
