<?xml version="1.0" encoding="iso-8859-1"?>
<!-- Generator: Adobe Illustrator 15.1.0, SVG Export Plug-In . SVG Version: 6.00 Build 0)  -->
<!DOCTYPE svg PUBLIC "-//W3C//DTD SVG 1.1//EN" "http://www.w3.org/Graphics/SVG/1.1/DTD/svg11.dtd">
<svg version="1.1" xmlns="http://www.w3.org/2000/svg" xmlns:xlink="http://www.w3.org/1999/xlink" x="0px" y="0px" width="792px"
	 height="1224px" viewBox="0 0 792 1224" style="enable-background:new 0 0 792 1224;" xml:space="preserve">
<g id="Layer_1">
	<g>
		<path style="fill:#272525;" d="M131.999,207.867h64.4l5.366,11.609v129.95l-5.366,11.61h-64.4l5.367-11.61v-129.95
			L131.999,207.867z M156.148,224.907v119.09h26.833v-119.09H156.148z"/>
		<path style="fill:#272525;" d="M221.578,361.037l-5.367-11.61v-129.95l5.367-11.609h53.667l5.367,11.609v129.95l-5.367,11.61
			H221.578z M234.995,224.907v119.09h26.833v-119.09H234.995z"/>
		<path style="fill:#272525;" d="M336.55,219.477l-5.366-11.609H360.7l-5.366,11.609v129.95l-5.367,11.61h-48.3l-5.367-11.61
			v-129.95l-5.367-11.609h29.517l-5.367,11.609v124.521h21.466V219.477z"/>
		<path style="fill:#272525;" d="M426.338,207.867v21.908l-12.797-4.869h-23.737v119.09h23.118v-47.936l-5.161-11.61h23.944v64.975
			l-5.367,11.61h-49.951l-5.367-11.61v-129.95l5.367-11.609H426.338z"/>
		<path style="fill:#272525;" d="M466.177,219.477v124.521h23.736l12.798-4.869l-5.366,21.908h-55.318l5.367-11.61v-129.95
			l-5.367-11.609h29.517L466.177,219.477z"/>
		<path style="fill:#272525;" d="M506.841,361.037l7.637-11.61l26.008-135.193l-4.128-6.366h29.309l-4.128,6.366l26.008,135.193
			l7.637,11.61h-29.517l3.304-11.61l-9.289-47.936h-17.338l-9.082,47.936l3.097,11.61H506.841z M556.378,284.452l-5.366-27.9
			l-5.366,27.9H556.378z"/>
		<path style="fill:#272525;" d="M641.217,267.412h-36.535l-5.366-11.609v-36.326l5.366-11.609h49.951v21.908l-12.798-4.869h-23.736
			v25.465h36.534l5.367,11.61v87.445l-5.367,11.61h-49.951l-5.366-11.61v-64.975h24.149l-5.366,11.61v47.936h23.118V267.412z"/>
	</g>
	<g>
		<path style="fill:#272525;" d="M183.638,368.904v20.855l-10.89-4.634h-24.766v113.369h24.766l10.89-4.634l-4.567,20.855h-42.506
			l-4.567-11.052V379.956l4.567-11.051H183.638z"/>
		<path style="fill:#272525;" d="M196.989,514.715l-4.567-11.052V379.956l4.567-11.051h45.668l4.566,11.051v123.708l-4.566,11.052
			H196.989z M208.406,385.125v113.369h22.833V385.125H208.406z"/>
		<path style="fill:#272525;" d="M294.825,379.956l-4.566-11.051h25.117l-4.567,11.051v123.708l-4.566,11.052h-41.101l-4.567-11.052
			V379.956l-4.567-11.051h25.118l-4.567,11.051v118.539h18.267V379.956z"/>
		<path style="fill:#272525;" d="M344.709,503.663l4.567,11.052h-25.117l4.567-11.052V379.956l-4.567-11.051h54.802l4.566,11.051
			v34.582l-4.566,11.051h-34.251V503.663z M344.709,385.125v24.242h22.834v-24.242H344.709z"/>
		<path style="fill:#272525;" d="M412.859,379.956v118.539h20.2l10.89-4.634l-4.567,20.855h-47.073l4.567-11.052V379.956
			l-4.567-11.051h25.118L412.859,379.956z"/>
		<path style="fill:#272525;" d="M447.464,514.715l6.499-11.052l22.131-128.698l-3.513-6.061h24.941l-3.513,6.061l22.131,128.698
			l6.499,11.052h-25.117l2.811-11.052l-7.904-45.632h-14.754l-7.729,45.632l2.635,11.052H447.464z M489.618,441.81l-4.566-26.56
			l-4.566,26.56H489.618z"/>
		<path style="fill:#272525;" d="M550.221,375.678l21.078,79.144v-74.866l-4.567-11.051h25.117l-4.566,11.051v123.708l4.566,11.052
			h-25.117l2.811-6.773l-21.078-78.966v74.688l4.567,11.052h-25.117l4.566-11.052V379.956l-4.566-11.051h25.117L550.221,375.678z"/>
		<path style="fill:#272525;" d="M600.632,368.904h54.801L660,379.956v123.708l-4.567,11.052h-54.801l4.565-11.052V379.956
			L600.632,368.904z M621.182,385.125v113.369h22.835V385.125H621.182z"/>
	</g>
	<g>
		<path style="fill:#272525;" d="M233.151,638.047l19.924-103.41l-4.342-11.939h36.271l-8.94,11.939L250.521,668.28l4.598,11.939
			h-36.527l4.342-5.969l-14.305-40.247l-14.56,40.247l4.598,5.969H162.14l4.342-11.939l-25.543-133.644l-8.94-11.939h36.528
			l-4.342,11.939l19.668,103.41l24.777-68.94L233.151,638.047z"/>
		<path style="fill:#272525;" d="M299.315,680.22l-6.641-11.939V534.637l6.641-11.939h66.414l6.641,11.939V668.28l-6.641,11.939
			H299.315z M315.919,540.222v122.475h33.207V540.222H315.919z"/>
		<path style="fill:#272525;" d="M462.288,668.28l9.195,11.939h-36.527l4.087-11.939l-17.625-84.346h-6.386v84.346l6.641,11.939
			h-36.527l6.642-11.939V534.637l-6.642-11.939h79.697l6.641,11.939v37.359l-6.641,11.939h-20.18L462.288,668.28z M415.032,540.222
			v26.189h33.206v-26.189H415.032z"/>
		<path style="fill:#272525;" d="M514.142,534.637v44.291l26.055-44.291l0.511-11.939h36.527l-13.794,11.939l-28.098,47.565
			l30.907,86.078l10.984,11.939h-36.271l2.298-11.939l-22.223-61.622l-6.896,11.746v49.876l6.642,11.939h-36.527l6.641-11.939
			V534.637l-6.641-11.939h36.527L514.142,534.637z"/>
		<path style="fill:#272525;" d="M636.755,583.935h-45.214l-6.641-11.939v-37.359l6.641-11.939h61.816v22.53l-15.837-5.006h-29.375
			v26.189h45.212L660,578.35v89.93l-6.643,11.939h-61.816L584.9,668.28v-66.822h29.886l-6.641,11.94v49.298h28.609V583.935z"/>
	</g>
	<g>
		<path style="fill:#272525;" d="M158.715,699.903v30.693H188.4v-30.693l-5.937-11.534h32.654l-5.937,11.534v129.096l5.937,11.534
			h-32.654l5.937-11.534v-81.476h-29.685v81.476l5.937,11.534h-32.654l5.937-11.534V699.903l-5.937-11.534h32.654L158.715,699.903z"
			/>
		<path style="fill:#272525;" d="M221.97,840.533l8.449-11.534l28.772-134.305l-4.567-6.325h32.425l-4.566,6.325l28.771,134.305
			l8.449,11.534h-32.654l3.654-11.534l-10.275-47.62h-19.181l-10.047,47.62l3.425,11.534H221.97z M276.773,764.451l-5.937-27.716
			l-5.937,27.716H276.773z"/>
		<path style="fill:#272525;" d="M395.521,828.999l8.22,11.534h-32.653l3.654-11.534l-15.756-81.476h-5.709v81.476l5.937,11.534
			H326.56l5.937-11.534V699.903l-5.937-11.534h71.244l5.938,11.534v36.087l-5.938,11.533h-18.039L395.521,828.999z M353.277,705.297
			v25.3h29.685v-25.3H353.277z"/>
		<path style="fill:#272525;" d="M415.159,688.369h71.244l5.937,11.534v129.096l-5.937,11.534h-71.244l5.937-11.534V699.903
			L415.159,688.369z M441.876,705.297v118.309h29.685V705.297H441.876z"/>
		<path style="fill:#272525;" d="M503.758,840.533l5.938-11.534V699.903l-5.938-11.534h67.135v21.765l-14.158-4.837h-26.26v25.3
			h22.149l14.158-4.837v26.602l-14.158-4.838h-22.149v76.082h26.26l14.158-4.836l-5.938,21.764H503.758z"/>
		<path style="fill:#272525;" d="M651.271,828.999l8.222,11.534h-32.654l3.653-11.534l-15.756-81.476h-5.709v81.476l5.938,11.534
			h-32.653l5.937-11.534V699.903l-5.937-11.534h71.244l5.938,11.534v36.087l-5.938,11.533h-18.04L651.271,828.999z M609.026,705.297
			v25.3h29.687v-25.3H609.026z"/>
	</g>
	<g>
		<path style="fill:#272525;" d="M170.41,1002.832l4.667,12.622h-25.667l4.667-12.622V867.446h-10.949l-11.129,5.294v-23.82h60.668
			v23.82l-11.308-5.294H170.41V1002.832z"/>
		<path style="fill:#272525;" d="M222.642,861.542v33.592h23.333v-33.592l-4.667-12.622h25.667l-4.667,12.622v141.29l4.667,12.622
			h-25.667l4.667-12.622V913.66h-23.333v89.172l4.667,12.622h-25.667l4.667-12.622v-141.29l-4.667-12.622h25.667L222.642,861.542z"
			/>
		<path style="fill:#272525;" d="M272.363,1015.454l6.642-12.622l22.616-146.989l-3.59-6.923h25.487l-3.589,6.923l22.616,146.989
			l6.641,12.622h-25.667l2.872-12.622l-8.077-52.118h-15.078l-7.897,52.118l2.692,12.622H272.363z M315.441,932.188l-4.667-30.334
			l-4.667,30.334H315.441z"/>
		<path style="fill:#272525;" d="M377.371,856.657l21.539,90.393v-85.508l-4.667-12.622h25.667l-4.666,12.622v141.29l4.666,12.622
			h-25.667l2.872-7.736l-21.539-90.189v85.304l4.667,12.622h-25.667l4.667-12.622v-141.29l-4.667-12.622h25.667L377.371,856.657z"/>
		<path style="fill:#272525;" d="M505.53,1002.832l4.665,12.622h-25.667l4.667-12.622v-70.645l-16.692-70.646l-7.717-12.622h25.667
			l-1.615,12.622l8.615,36.441l8.615-36.441l-1.615-12.622h25.668l-7.718,12.622l-16.873,70.646V1002.832z"/>
		<path style="fill:#272525;" d="M538.378,1015.454l-4.667-12.622v-141.29l4.667-12.622h46.667l4.668,12.622v141.29l-4.668,12.622
			H538.378z M550.045,867.446v129.482h23.333V867.446H550.045z"/>
		<path style="fill:#272525;" d="M638.357,861.542l-4.668-12.622h25.668l-4.668,12.622v141.29l-4.665,12.622h-42.002l-4.667-12.622
			v-141.29l-4.665-12.622h25.667l-4.667,12.622v135.387h18.667V861.542z"/>
	</g>
</g>
<g id="Guides">
</g>
</svg>
