<?xml version="1.0" encoding="iso-8859-1"?>
<!-- Generator: Adobe Illustrator 15.1.0, SVG Export Plug-In . SVG Version: 6.00 Build 0)  -->
<!DOCTYPE svg PUBLIC "-//W3C//DTD SVG 1.1//EN" "http://www.w3.org/Graphics/SVG/1.1/DTD/svg11.dtd">
<svg version="1.1" xmlns="http://www.w3.org/2000/svg" xmlns:xlink="http://www.w3.org/1999/xlink" x="0px" y="0px" width="792px"
	 height="1224px" viewBox="0 0 792 1224" style="enable-background:new 0 0 792 1224;" xml:space="preserve">
<g id="Layer_1">
	<g>
		<path style="fill:#272525;" d="M131.999,207.937h18.667c5.125,0,9.739,0.272,13.841,0.815c3.146,0.408,5.948,1.089,8.406,2.04
			c2.457,0.954,4.958,2.585,7.504,4.895c5.267,4.76,9.483,11.574,12.648,20.445c3.163,8.872,5.293,18.712,6.39,29.521
			c0.565,5.915,0.849,12.102,0.849,18.559c0,3.06-0.053,6.154-0.159,9.279c-0.424,9.858-1.557,18.865-3.394,27.023
			c-1.309,5.506-2.793,10.298-4.455,14.378c-3.253,8.023-7.178,14.209-11.773,18.559c-1.945,1.77-4.066,3.23-6.364,4.386
			c-0.284,0.341-1.521,0.833-3.712,1.478c-2.192,0.647-3.783,0.969-4.772,0.969c-3.572,0.545-7.478,0.816-11.72,0.816h-21.955
			V207.937z M148.597,331.425h7.795c2.864,0,5.374-0.204,7.531-0.612c1.909-0.27,3.553-0.747,4.932-1.427
			c2.58-1.359,4.754-3.5,6.523-6.424v-0.102c2.934-4.826,4.966-10.605,6.099-17.335c1.131-6.73,1.697-13.767,1.697-21.108
			s-0.566-14.361-1.697-21.058c-1.132-6.695-3.165-12.492-6.099-17.387c-1.733-2.786-3.598-4.724-5.595-5.812
			c-1.998-1.086-4.163-1.8-6.497-2.142c-2.121-0.339-4.517-0.525-7.186-0.561c-2.67-0.033-5.17-0.051-7.504-0.051V331.425z"/>
		<path style="fill:#272525;" d="M294.804,284.42c0,10.265-1.061,20.105-3.182,29.522c-1.026,4.418-2.333,8.769-3.924,13.057
			c-4.844,12.926-11.243,22.345-19.197,28.254c-5.233,3.897-10.572,5.846-16.016,5.846c-2.793,0-5.621-0.521-8.485-1.559
			c-5.657-2.014-10.748-5.812-15.273-11.399c-2.121-2.468-4.261-5.618-6.417-9.452c-4.066-7.209-7.142-15.425-9.228-24.649
			c-2.157-9.354-3.235-19.097-3.235-29.229c0-2.597,0.07-5.196,0.212-7.794c0.671-12.925,2.97-24.65,6.894-35.173
			c3.146-8.443,7.088-15.523,11.826-21.24v-0.098c7-8.378,14.866-12.568,23.599-12.568c8.555,0,16.387,4.19,23.493,12.568
			c4.702,5.717,8.644,12.862,11.826,21.436C292.435,254.802,294.804,268.963,294.804,284.42z M277.622,284.42
			c0-6.559-0.636-12.666-1.909-18.317c-2.757-12.21-7.301-20.816-13.629-25.819c-3.288-2.533-6.559-3.8-9.811-3.8
			c-3.218,0-6.435,1.235-9.652,3.703c-0.53,0.455-1.282,1.169-2.254,2.144c-0.973,0.974-1.67,1.753-2.095,2.338
			c-1.238,1.495-2.511,3.444-3.818,5.846v0.097c-1.167,2.143-2.228,4.516-3.182,7.113c-0.884,2.469-1.662,5.229-2.333,8.281
			c-1.273,5.846-1.909,11.953-1.909,18.317c0,1.559,0.035,3.118,0.106,4.677c0.389,8.055,1.767,15.395,4.136,22.02
			c2.898,8.121,6.682,13.998,11.349,17.634c3.394,2.665,6.717,3.995,9.97,3.995c4.737,0,9.315-2.826,13.735-8.477
			C273.856,314.756,277.622,301.505,277.622,284.42z"/>
		<path style="fill:#272525;" d="M320.789,207.937v89.83c0,10.877,1.264,19.298,3.792,25.267c2.528,5.97,6.796,8.954,12.808,8.954
			c5.973,0,10.216-2.999,12.727-9.003c2.51-6.001,3.765-14.407,3.765-25.217v-89.83h16.652v92.018
			c0,40.721-11.049,61.081-33.144,61.081c-22.027,0-33.039-20.359-33.039-61.081v-92.018H320.789z"/>
		<path style="fill:#272525;" d="M459.358,278.454v22.397c0,7.369-0.725,14.767-2.174,22.2c-3.43,16.757-9.811,28.102-19.145,34.034
			c-3.642,2.216-7.637,3.521-11.985,3.912c-1.166,0.13-2.315,0.196-3.446,0.196c-3.147,0-6.17-0.425-9.068-1.272
			c-14.884-4.367-25.013-19.364-30.387-44.988c-2.016-9.389-3.023-19.56-3.023-30.513c-0.036-0.063-0.053-0.129-0.053-0.195
			c0-10.821,1.061-20.895,3.182-30.22c2.05-9.389,5.091-17.668,9.121-24.841c3.853-6.975,8.397-12.323,13.629-16.039
			c5.161-3.585,10.765-5.411,16.811-5.477h0.159c5.974,0,11.473,2.12,16.492,6.357c2.652,2.347,5.003,5.053,7.054,8.117
			c1.625,2.413,2.987,4.711,4.083,6.895c1.096,2.186,2.298,4.711,3.606,7.58l-12.409,17.31c-0.884-1.824-1.688-3.454-2.413-4.89
			c-0.726-1.433-1.617-2.934-2.678-4.499c-3.818-5.477-8.451-8.215-13.895-8.215c-7.53,0-13.664,4.435-18.401,13.3
			c-4.738,8.738-7.106,20.279-7.106,34.621c0,14.736,2.368,26.538,7.106,35.403c4.737,8.934,10.905,13.398,18.508,13.398
			c2.757,0,5.452-0.57,8.087-1.711c2.634-1.139,4.976-3.243,7.026-6.309c3.182-4.758,4.896-11.212,5.145-19.364h-18.031v-27.188
			H459.358z"/>
		<path style="fill:#272525;" d="M468.904,207.937h16.651v123.692h27.364V361.1h-44.016V207.937z"/>
		<path style="fill:#272525;" d="M583.875,358.725l-8.007-32.401h-26.94l-8.75,34.776h-17.712l39.879-153.452l39.88,153.452h-17.766
			L583.875,358.725z M555.397,300.289h14.213l-7.106-28.98L555.397,300.289z"/>
		<path style="fill:#272525;" d="M619.513,311.37c0.954,6.364,2.377,11.395,4.269,15.096c1.891,3.701,4.853,5.551,8.883,5.551
			c2.758,0,5.064-1.363,6.921-4.09c1.855-2.727,2.784-6.881,2.784-12.466c0-5.649-1.981-10.338-5.939-14.073
			c-3.96-3.732-7.213-6.866-9.758-9.398c-4.809-4.609-9.068-10.226-12.781-16.849c-3.535-6.233-5.303-14.543-5.303-24.933v-1.752
			c0.212-11.493,2.723-21.231,7.53-29.217c4.667-7.726,10.11-11.59,16.334-11.59h0.636c5.197,0.195,9.573,1.997,13.125,5.406
			c3.554,3.408,6.709,9.237,9.467,17.481l-11.243,18.31c-1.272-3.701-2.793-7.012-4.561-9.934c-1.696-2.791-3.783-4.187-6.258-4.187
			h-0.317c-2.051,0.194-3.863,1.494-5.437,3.895c-1.573,2.403-2.359,5.682-2.359,9.837c0,3.961,1.344,7.645,4.03,11.054
			c2.687,3.409,5.197,6.25,7.53,8.522c5.728,5.648,10.906,11.849,15.538,18.601c4.525,6.623,6.788,16.493,6.788,29.606v0.584
			c-0.071,12.921-2.572,23.311-7.504,31.166c-4.933,7.856-11.075,12.205-18.429,13.05c-0.53,0.063-1.078,0.098-1.644,0.098
			c-4.879,0-9.511-2.372-13.894-7.109c-4.915-5.259-8.485-12.954-10.713-23.082L619.513,311.37z"/>
	</g>
	<g>
		<path style="fill:#272525;" d="M189.224,411.115c-5.768-9.634-12.195-14.454-19.279-14.454c-6.74,0-12.21,4.205-16.411,12.613
			c-4.201,8.411-6.301,19.396-6.301,32.96c0,13.073,2.053,23.845,6.16,32.314c4.074,8.348,9.216,12.521,15.423,12.521
			c5.548,0,10.721-2.914,15.517-8.746c1.504-1.842,2.875-3.775,4.114-5.801c1.238-2.025,2.531-4.173,3.879-6.444v34.249
			l-0.799,1.104c-3.229,4.481-6.6,7.704-10.11,9.667c-3.762,2.147-7.634,3.222-11.614,3.222c-2.539,0-5.142-0.43-7.806-1.289
			c-10.314-3.437-18.26-13.41-23.84-29.921c-4.107-12.03-6.16-25.717-6.16-41.062c0-15.283,2.069-28.939,6.207-40.97
			c4.2-12.274,9.764-21.05,16.692-26.331c4.577-3.559,9.31-5.34,14.201-5.34c2.1,0,4.247,0.338,6.442,1.013
			c5.831,1.782,11.379,6.2,16.646,13.258l0.894,1.196l-0.847,31.21L189.224,411.115z"/>
		<path style="fill:#272525;" d="M276.872,441.959c0,9.754-0.94,19.107-2.821,28.058c-0.91,4.199-2.069,8.334-3.479,12.408
			c-4.295,12.285-9.969,21.237-17.022,26.854c-4.64,3.705-9.374,5.556-14.2,5.556c-2.477,0-4.984-0.495-7.523-1.481
			c-5.016-1.914-9.53-5.524-13.542-10.834c-1.881-2.345-3.778-5.338-5.689-8.981c-3.605-6.853-6.333-14.662-8.182-23.428
			c-1.913-8.89-2.868-18.149-2.868-27.78c0-2.467,0.062-4.938,0.188-7.408c0.595-12.283,2.633-23.427,6.113-33.429
			c2.79-8.024,6.285-14.753,10.486-20.186v-0.093c6.207-7.963,13.181-11.945,20.924-11.945c7.586,0,14.53,3.982,20.831,11.945
			c4.168,5.434,7.665,12.224,10.486,20.372C274.771,413.808,276.872,427.267,276.872,441.959z M261.637,441.959
			c0-6.234-0.564-12.038-1.693-17.41c-2.445-11.604-6.474-19.784-12.084-24.539c-2.915-2.407-5.815-3.611-8.699-3.611
			c-2.853,0-5.706,1.174-8.558,3.52c-0.47,0.432-1.137,1.111-1.999,2.037c-0.863,0.927-1.481,1.667-1.857,2.222
			c-1.098,1.422-2.226,3.274-3.385,5.557v0.093c-1.035,2.037-1.975,4.292-2.821,6.76c-0.784,2.347-1.474,4.97-2.069,7.871
			c-1.129,5.556-1.693,11.359-1.693,17.408c0,1.482,0.031,2.963,0.094,4.445c0.345,7.655,1.567,14.631,3.668,20.928
			c2.57,7.718,5.925,13.304,10.062,16.76c3.009,2.533,5.956,3.797,8.84,3.797c4.201,0,8.26-2.686,12.179-8.057
			C258.298,470.79,261.637,458.195,261.637,441.959z"/>
		<path style="fill:#272525;" d="M299.913,369.196v85.453c0,10.348,1.12,18.358,3.362,24.036c2.241,5.678,6.026,8.517,11.355,8.517
			c5.298,0,9.06-2.854,11.285-8.564c2.226-5.709,3.339-13.706,3.339-23.989v-85.453h14.765v87.535
			c0,38.736-9.797,58.104-29.389,58.104c-19.53,0-29.294-19.367-29.294-58.104v-87.535H299.913z"/>
		<path style="fill:#272525;" d="M366.542,453.069v61.766h-14.06V369.196h18.385c4.953,0,8.683,0.582,11.191,1.745
			c1.347,0.713,2.523,1.521,3.526,2.424c0.188,0.131,0.713,0.695,1.575,1.697c0.862,1.003,1.387,1.665,1.575,1.988
			c1.253,2.07,2.32,4.169,3.198,6.303c2.884,7.628,4.326,16.743,4.326,27.343c0,1.746-0.031,3.524-0.094,5.333
			c-0.564,12.994-3.041,22.755-7.43,29.283c-1.692,2.521-3.487,4.3-5.383,5.333c-1.897,1.035-3.911,1.713-6.042,2.037
			c-1.63,0.194-3.394,0.307-5.291,0.339C370.123,453.055,368.297,453.069,366.542,453.069z M367.247,426.696
			c1.787,0,3.903-0.161,6.348-0.485c2.445-0.323,4.263-1.292,5.455-2.909c1.411-1.874,2.116-5.493,2.116-10.86
			c0-3.167-0.204-5.784-0.611-7.854c-0.784-3.554-2.633-5.915-5.548-7.078c-1.881-0.71-4.467-1.067-7.759-1.067V426.696z"/>
		<path style="fill:#272525;" d="M404.724,369.196h14.765v117.616h24.263v28.022h-39.027V369.196z"/>
		<path style="fill:#272525;" d="M506.666,512.575l-7.101-30.812h-23.887l-7.759,33.071h-15.705l35.36-145.928l35.36,145.928
			h-15.752L506.666,512.575z M481.415,457.006h12.603l-6.302-27.56L481.415,457.006z"/>
		<path style="fill:#272525;" d="M531.399,368.851l44.247,81.657v-81.657h14.718v145.514l-44.2-85.031v85.5h-14.765V368.851z"/>
		<path style="fill:#272525;" d="M598.828,369.196h16.552c4.544,0,8.636,0.259,12.272,0.776c2.79,0.388,5.273,1.035,7.452,1.939
			c2.179,0.906,4.397,2.457,6.654,4.654c4.671,4.525,8.408,11.005,11.214,19.441c2.806,8.435,4.694,17.792,5.667,28.07
			c0.501,5.624,0.752,11.507,0.752,17.647c0,2.909-0.047,5.851-0.142,8.824c-0.376,9.374-1.379,17.938-3.009,25.695
			c-1.16,5.236-2.477,9.793-3.95,13.672c-2.885,7.628-6.364,13.511-10.438,17.647c-1.724,1.683-3.604,3.071-5.643,4.17
			c-0.251,0.324-1.348,0.792-3.292,1.405c-1.943,0.616-3.354,0.921-4.231,0.921c-3.167,0.519-6.63,0.776-10.392,0.776h-19.467
			V369.196z M613.546,486.619h6.912c2.539,0,4.765-0.194,6.677-0.582c1.693-0.258,3.15-0.711,4.373-1.357
			c2.288-1.292,4.216-3.329,5.783-6.109v-0.097c2.603-4.589,4.404-10.084,5.408-16.484c1.003-6.399,1.504-13.089,1.504-20.071
			c0-6.982-0.501-13.655-1.504-20.023c-1.004-6.366-2.806-11.878-5.408-16.532c-1.535-2.649-3.189-4.492-4.96-5.527
			c-1.771-1.033-3.691-1.712-5.761-2.037c-1.881-0.322-4.005-0.5-6.371-0.533c-2.367-0.032-4.585-0.049-6.653-0.049V486.619z"/>
	</g>
	<g>
		<path style="fill:#272525;" d="M154.386,535.676l23.071,74.477l26.294-87.345l27.686,86.905l22.632-74.037h23.291l-44.604,144.106
			l-28.711-87.521l-28.271,87.433l-44.531-144.019H154.386z"/>
		<path style="fill:#272525;" d="M390.958,601.46c0,10.556-1.464,20.675-4.394,30.36c-1.417,4.543-3.223,9.017-5.42,13.426
			c-6.69,13.293-15.527,22.979-26.514,29.056c-7.227,4.009-14.601,6.013-22.119,6.013c-3.858,0-7.764-0.535-11.719-1.604
			c-7.813-2.07-14.844-5.978-21.094-11.723c-2.93-2.538-5.885-5.777-8.862-9.718c-5.616-7.417-9.864-15.865-12.744-25.351
			c-2.979-9.619-4.468-19.638-4.468-30.058c0-2.67,0.097-5.344,0.293-8.016c0.927-13.291,4.102-25.35,9.521-36.17
			c4.345-8.682,9.789-15.964,16.333-21.843v-0.1c9.668-8.616,20.532-12.925,32.593-12.925c11.816,0,22.632,4.309,32.446,12.925
			c6.493,5.878,11.938,13.226,16.333,22.043C387.687,571.001,390.958,585.565,390.958,601.46z M367.228,601.46
			c0-6.746-0.879-13.025-2.637-18.835c-3.809-12.558-10.083-21.407-18.823-26.553c-4.541-2.604-9.058-3.907-13.55-3.907
			c-4.444,0-8.888,1.27-13.33,3.808c-0.732,0.468-1.771,1.202-3.113,2.204c-1.344,1.002-2.307,1.804-2.893,2.404
			c-1.71,1.538-3.468,3.542-5.273,6.012v0.101c-1.611,2.203-3.076,4.643-4.395,7.313c-1.221,2.541-2.296,5.378-3.223,8.517
			c-1.758,6.012-2.637,12.291-2.637,18.837c0,1.603,0.048,3.206,0.146,4.809c0.537,8.283,2.441,15.832,5.713,22.644
			c4.003,8.353,9.229,14.396,15.674,18.137c4.688,2.739,9.276,4.107,13.77,4.107c6.542,0,12.865-2.905,18.97-8.719
			C362.028,632.655,367.228,619.03,367.228,601.46z"/>
		<path style="fill:#272525;" d="M426.042,618.899v61.404h-21.899V523.183h26.66c3.856,0,7.751,0.28,11.682,0.836
			c3.931,0.56,7.581,1.92,10.95,4.081c8.35,5.51,13.55,15.413,15.601,29.708c0.537,3.907,0.806,7.742,0.806,11.507
			c0,5.581-0.586,10.984-1.758,16.214c-2.93,13.739-9.547,22.351-19.849,25.838c3.955,0.907,7.287,3.803,9.998,8.683
			c2.709,4.882,5.334,10.723,7.873,17.521c2.538,6.801,5.225,14.018,8.057,21.655c2.831,7.635,6.372,14.662,10.62,21.078h-26.147
			c-3.321-4.394-6.031-9.745-8.13-16.057c-2.1-6.312-4.212-12.536-6.335-18.674c-2.125-6.134-4.554-11.679-7.288-16.632
			C434.146,623.989,430.534,620.643,426.042,618.899z M427.141,586.471c2.49,0,5.395-0.209,8.716-0.627
			c3.32-0.418,5.761-1.428,7.324-3.034c2.148-2.16,3.223-6.276,3.223-12.344c0-3.416-0.342-6.381-1.025-8.892
			c-1.124-3.975-3.809-6.59-8.057-7.846c-2.49-0.766-5.885-1.151-10.181-1.151V586.471z"/>
		<path style="fill:#272525;" d="M497.966,523.183h22.925v54.187l33.032-54.187h28.784l-44.019,70.506l48.413,86.615h-29.59
			l-36.621-67.576v67.576h-22.925V523.183z"/>
		<path style="fill:#272525;" d="M604.313,629.078c1.318,6.552,3.283,11.731,5.896,15.542c2.611,3.81,6.701,5.715,12.268,5.715
			c3.809,0,6.994-1.404,9.559-4.212c2.562-2.807,3.845-7.084,3.845-12.833c0-5.815-2.735-10.645-8.203-14.487
			c-5.469-3.846-9.961-7.071-13.477-9.677c-6.641-4.746-12.524-10.528-17.651-17.347c-4.883-6.417-7.324-14.972-7.324-25.668v-1.804
			c0.293-11.832,3.76-21.858,10.4-30.08c6.445-7.954,13.964-11.932,22.559-11.932h0.879c7.178,0.201,13.221,2.056,18.127,5.565
			c4.908,3.509,9.266,9.51,13.074,17.998l-15.527,18.85c-1.758-3.811-3.857-7.219-6.299-10.227
			c-2.344-2.873-5.226-4.312-8.643-4.312h-0.439c-2.832,0.2-5.335,1.539-7.508,4.011c-2.173,2.474-3.259,5.85-3.259,10.126
			c0,4.078,1.855,7.871,5.566,11.38c3.71,3.509,7.178,6.434,10.4,8.773c7.91,5.816,15.062,12.2,21.46,19.151
			c6.25,6.818,9.375,16.98,9.375,30.481v0.602c-0.099,13.303-3.553,23.998-10.363,32.085c-6.812,8.088-15.297,12.567-25.452,13.437
			c-0.732,0.065-1.49,0.1-2.271,0.1c-6.738,0-13.136-2.441-19.189-7.318c-6.787-5.415-11.719-13.337-14.795-23.765L604.313,629.078z
			"/>
	</g>
	<g>
		<path style="fill:#272525;" d="M131.84,688.312h20.635v53.003h40.611v-53.003h20.635v152.22h-20.635v-69.928h-40.611v69.928
			H131.84V688.312z"/>
		<path style="fill:#272525;" d="M301.93,838.175l-9.955-32.141h-33.491l-10.877,34.497h-22.02l49.577-152.22l49.576,152.22h-22.085
			L301.93,838.175z M266.527,780.209h17.668l-8.834-28.748L266.527,780.209z"/>
		<path style="fill:#272525;" d="M356.319,781.042v59.489h-19.712v-152.22h23.998c3.471,0,6.977,0.27,10.514,0.811
			c3.539,0.542,6.825,1.859,9.857,3.952c7.515,5.338,12.195,14.933,14.041,28.782c0.484,3.785,0.726,7.5,0.726,11.148
			c0,5.406-0.527,10.642-1.582,15.709c-2.637,13.311-8.593,21.653-17.867,25.031c3.56,0.878,6.559,3.684,8.999,8.411
			c2.438,4.729,4.801,10.389,7.087,16.975c2.285,6.589,4.703,13.58,7.251,20.98c2.55,7.396,5.736,14.204,9.561,20.42h-23.537
			c-2.989-4.257-5.429-9.441-7.317-15.556c-1.89-6.114-3.792-12.146-5.703-18.091c-1.913-5.943-4.098-11.315-6.559-16.113
			C363.614,785.974,360.362,782.73,356.319,781.042z M357.308,749.625c2.241,0,4.855-0.203,7.846-0.608
			c2.988-0.405,5.184-1.383,6.592-2.938c1.934-2.094,2.901-6.081,2.901-11.959c0-3.31-0.308-6.182-0.923-8.614
			c-1.013-3.851-3.428-6.385-7.252-7.601c-2.242-0.743-5.297-1.115-9.164-1.115V749.625z"/>
		<path style="fill:#272525;" d="M421.059,688.312h23.206c6.372,0,12.108,0.27,17.207,0.811c3.912,0.405,7.395,1.081,10.449,2.027
			c3.055,0.947,6.164,2.569,9.329,4.864c6.549,4.729,11.789,11.502,15.723,20.32c3.934,8.816,6.582,18.596,7.944,29.338
			c0.702,5.879,1.055,12.026,1.055,18.445c0,3.041-0.065,6.116-0.197,9.223c-0.527,9.796-1.935,18.749-4.22,26.856
			c-1.626,5.473-3.472,10.235-5.537,14.29c-4.045,7.972-8.924,14.122-14.636,18.444c-2.418,1.758-5.055,3.209-7.911,4.357
			c-0.353,0.34-1.891,0.828-4.615,1.471c-2.726,0.642-4.703,0.962-5.934,0.962c-4.439,0.542-9.295,0.811-14.569,0.811h-27.294
			V688.312z M441.694,811.04h9.69c3.561,0,6.681-0.203,9.361-0.608c2.374-0.269,4.418-0.743,6.132-1.418
			c3.207-1.352,5.91-3.48,8.108-6.385v-0.103c3.648-4.796,6.175-10.539,7.582-17.228c1.406-6.689,2.109-13.682,2.109-20.979
			c0-7.296-0.703-14.271-2.109-20.928c-1.407-6.653-3.934-12.414-7.582-17.278c-2.153-2.771-4.472-4.695-6.954-5.776
			c-2.484-1.08-5.176-1.79-8.077-2.128c-2.637-0.339-5.615-0.523-8.932-0.559c-3.319-0.033-6.429-0.051-9.329-0.051V811.04z"/>
		<path style="fill:#272525;" d="M517.839,688.312h57.686v28.275h-37.051v27.565h37.051v28.984h-37.051v38.106h37.051v29.288
			h-57.686V688.312z"/>
		<path style="fill:#272525;" d="M607.103,781.042v59.489h-19.712v-152.22h23.997c3.472,0,6.978,0.27,10.515,0.811
			c3.538,0.542,6.824,1.859,9.856,3.952c7.516,5.338,12.196,14.933,14.043,28.782c0.483,3.785,0.725,7.5,0.725,11.148
			c0,5.406-0.527,10.642-1.582,15.709c-2.637,13.311-8.593,21.653-17.866,25.031c3.561,0.878,6.56,3.684,9,8.411
			c2.438,4.729,4.801,10.389,7.086,16.975c2.285,6.589,4.703,13.58,7.252,20.98c2.549,7.396,5.736,14.204,9.56,20.42h-23.536
			c-2.989-4.257-5.429-9.441-7.317-15.556c-1.89-6.114-3.791-12.146-5.702-18.091c-1.913-5.943-4.099-11.315-6.561-16.113
			S611.146,782.73,607.103,781.042z M608.092,749.625c2.241,0,4.855-0.203,7.845-0.608s5.186-1.383,6.593-2.938
			c1.934-2.094,2.901-6.081,2.901-11.959c0-3.31-0.308-6.182-0.924-8.614c-1.012-3.851-3.428-6.385-7.251-7.601
			c-2.242-0.743-5.298-1.115-9.164-1.115V749.625z"/>
	</g>
	<g>
		<path style="fill:#272525;" d="M166.723,880.051v135.414h-15.729V880.051h-18.996l3.166-30.893h47.287l3.166,30.893H166.723z"/>
		<path style="fill:#272525;" d="M194.663,849.158h15.729v57.908h30.956v-57.908h15.729v166.307h-15.729v-76.398h-30.956v76.398
			h-15.729V849.158z"/>
		<path style="fill:#272525;" d="M324.314,1012.88l-7.589-35.269h-25.528l-8.292,37.854h-16.784l37.79-167.031l37.79,167.031
			h-16.835L324.314,1012.88z M297.329,949.273h13.468l-6.734-31.546L297.329,949.273z"/>
		<path style="fill:#272525;" d="M350.747,849.409l47.287,93.338v-93.832h15.729v166.825l-47.237-97.195v96.904h-15.779V849.409z"/>
		<path style="fill:#272525;" d="M473.765,940.284l-25.729-91.126h17.086l0.604,2.216l14.975,53.257l1.106,4.429l1.406-5.204
			l15.93-54.697h16.482l-26.231,91.126v75.181h-15.628V940.284z"/>
		<path style="fill:#272525;" d="M589.24,932.083c0,11.163-1.005,21.863-3.015,32.104c-0.973,4.804-2.211,9.535-3.719,14.197
			c-4.591,14.057-10.653,24.298-18.191,30.725c-4.958,4.239-10.019,6.356-15.176,6.356c-2.647,0-5.327-0.566-8.041-1.694
			c-5.36-2.188-10.185-6.321-14.473-12.396c-2.01-2.684-4.037-6.107-6.081-10.276c-3.853-7.84-6.768-16.775-8.744-26.805
			c-2.043-10.172-3.064-20.768-3.064-31.785c0-2.824,0.067-5.65,0.201-8.477c0.635-14.054,2.814-26.804,6.532-38.247
			c2.982-9.18,6.717-16.881,11.206-23.097v-0.105c6.634-9.112,14.088-13.667,22.363-13.667c8.107,0,15.527,4.555,22.261,13.667
			c4.456,6.216,8.191,13.985,11.207,23.31C586.996,899.876,589.24,915.275,589.24,932.083z M572.959,932.083
			c0-7.132-0.604-13.772-1.81-19.917c-2.613-13.279-6.918-22.636-12.915-28.077c-3.116-2.755-6.214-4.132-9.296-4.132
			c-3.049,0-6.099,1.343-9.146,4.026c-0.502,0.495-1.215,1.272-2.136,2.33c-0.922,1.061-1.583,1.908-1.984,2.545
			c-1.174,1.624-2.38,3.743-3.618,6.355v0.106c-1.105,2.33-2.111,4.91-3.016,7.734c-0.837,2.686-1.576,5.686-2.211,9.005
			c-1.206,6.357-1.809,12.996-1.809,19.92c0,1.694,0.031,3.389,0.1,5.084c0.369,8.76,1.676,16.74,3.92,23.945
			c2.746,8.829,6.332,15.221,10.754,19.176c3.217,2.898,6.364,4.345,9.447,4.345c4.489,0,8.827-3.073,13.016-9.219
			C569.391,965.071,572.959,950.662,572.959,932.083z"/>
		<path style="fill:#272525;" d="M612.863,849.158v97.58c0,11.816,1.196,20.964,3.593,27.447c2.395,6.484,6.44,9.727,12.136,9.727
			c5.661,0,9.682-3.26,12.061-9.779c2.378-6.521,3.568-15.652,3.568-27.395v-97.58H660v99.957c0,44.235-10.47,66.35-31.408,66.35
			c-20.872,0-31.307-22.114-31.307-66.35v-99.957H612.863z"/>
	</g>
</g>
<g id="Guides">
</g>
</svg>
