<?xml version="1.0" encoding="iso-8859-1"?>
<!-- Generator: Adobe Illustrator 15.1.0, SVG Export Plug-In . SVG Version: 6.00 Build 0)  -->
<!DOCTYPE svg PUBLIC "-//W3C//DTD SVG 1.1//EN" "http://www.w3.org/Graphics/SVG/1.1/DTD/svg11.dtd">
<svg version="1.1" xmlns="http://www.w3.org/2000/svg" xmlns:xlink="http://www.w3.org/1999/xlink" x="0px" y="0px" width="792px"
	 height="1224px" viewBox="0 0 792 1224" style="enable-background:new 0 0 792 1224;" xml:space="preserve">
<g id="Layer_1">
	<g>
		<path style="fill:#272525;" d="M169.278,207.936c23.488,0,39.494,30.717,39.494,76.804c0,45.995-16.006,76.669-39.494,76.669
			H132.05l0.018-2.191h1.391c3.845,0,6.964-6.136,7.044-13.76V222.634c0-7.051-3.367-12.546-7.005-12.546h-1.391l-0.018-2.173
			L169.278,207.936z M147.665,354.746h21.614c18.849,0,31.247-28.003,31.247-70.007c0-42.131-12.508-70.217-31.247-70.217h-21.614
			V354.746z"/>
		<path style="fill:#272525;" d="M300.949,284.643c0,46.059-16.14,76.766-39.526,76.766s-39.526-30.707-39.526-76.766
			c0-46.059,16.14-76.766,39.526-76.766S300.949,238.584,300.949,284.643z M292.519,284.645c0-42.273-12.438-70.456-31.096-70.456
			s-31.096,28.182-31.096,70.456c0,42.271,12.438,70.454,31.096,70.454S292.519,326.916,292.519,284.645z"/>
		<path style="fill:#272525;" d="M385.548,207.906v2.151h-1.793c-3.091,0-5.614,4.229-5.806,10.153v85.015
			c0,33.71-11.857,56.184-29.642,56.184c-18.299,0-30.497-22.324-30.497-55.809v-84.897c-0.06-6.182-2.637-10.645-5.814-10.645
			h-1.791v-2.151h22.335v2.151h-1.792c-3.121,0-5.664,4.307-5.798,10.323v82.061c0,31.318,9.34,52.197,23.35,52.197
			c14.69,0,24.484-19.77,24.51-49.424v-84.806c-0.138-6.029-2.684-10.35-5.809-10.35h-1.793v-2.15L385.548,207.906z"/>
		<path style="fill:#272525;" d="M472.814,289.823c-3.556,0-5.556,3.441-5.505,9.538v34.874
			c-5.015,12.779-15.29,27.163-31.804,27.163c-23.384-0.211-39.524-30.865-39.524-76.761c0-46.056,16.14-76.761,39.493-76.761
			c12.096,0,20.195,6.265,26.656,14.241l2.219,29.785h-0.914c-3.342-24.134-13.406-37.708-27.928-37.708
			c-18.64,0-31.277,28.18-31.277,70.451c0,42.082,12.638,70.262,31.277,70.449c9.558,0,18.473-7.05,24.813-18.29v-37.366
			c0-6.16-2.106-9.621-5.656-9.621h-1.734v-2.108h21.54v2.108L472.814,289.823z"/>
		<path style="fill:#272525;" d="M532.991,325.982l-6.41,35.42h-45.588l0.018-2.193h1.391c3.85,0,6.973-6.15,7.043-13.788V223.9
			c-0.072-7.637-3.196-13.787-7.045-13.787h-1.391l-0.019-2.193h24.059l-0.017,2.193h-1.392c-3.849,0-6.972,6.15-7.044,13.787
			v130.792h15.771c11.652,0,16.127-12.019,19.521-28.713L532.991,325.982z"/>
		<path style="fill:#272525;" d="M605.116,345.711c2.225,9.57,6.292,13.537,9.66,13.537h0.919v2.15h-24.762v-2.131h0.967
			c2.839,0,5.784-4.892,4.178-13.496l-7.033-36.623h-29.62l-7.366,36.751c-1.552,8.523,1.379,13.367,4.204,13.367h0.967v2.131
			h-22.134v-2.15h0.989c3.344,0,7.409-3.962,9.633-13.522l24.938-115.704c0,0,4.072-17.418,4.072-22.146h0.99L605.116,345.711z
			 M587.806,302.699l-13.254-69.01l-13.833,69.01H587.806z"/>
		<path style="fill:#272525;" d="M654.939,296.263c4.396,7.784,5.523,17.191,5.523,25.71c0,23.326-7.945,39.436-20.592,39.436
			c-5.389,0-14.296-2.953-18.617-11.523c-0.819-6.511-0.404-19.945,1.271-29.4h0.968c-1.105,21.733,6.068,35.638,15.855,34.596
			c8.028-0.855,14.736-11.406,14.736-28.261c0-8.242-1.567-14.762-4.315-19.652l-21.064-37.518c-4.448-7.786-5.96-17.97-5.96-26.133
			c0-17.776,6.79-35.64,19.326-35.64c2.887,0,6.511,0.942,9.431,2.164h4.357v2.503v23.373H654.8
			c0.026-13.491-5.521-21.715-12.373-21.715c-8.103,0-13.525,11.4-13.525,24.252c0,5.498,0.963,13.288,4.428,19.443L654.939,296.263
			z"/>
	</g>
	<g>
		<path style="fill:#272525;" d="M191.926,453.635l-1.123,31.499c-4.856,17.288-13.099,29.891-25.895,29.891
			c-19.271-0.201-32.909-28.899-32.909-73.252c0-43.55,13.177-72.852,33.45-72.852c9.031,0,16.402,5.82,21.796,13.553l1.859,28.346
			h-0.766c-2.8-23.428-11.831-35.872-22.906-35.886c-16.201,0-26.521,26.692-26.521,66.63c0,40.339,10.505,66.629,25.998,67.446
			c13.084-0.084,24.155-14.272,26.25-55.372L191.926,453.635z"/>
		<path style="fill:#272525;" d="M269.198,441.819c0,43.743-13.525,72.906-33.121,72.906s-33.121-29.163-33.121-72.906
			s13.525-72.905,33.121-72.905S269.198,398.076,269.198,441.819z M262.134,441.82c0-40.147-10.423-66.912-26.057-66.912
			c-15.634,0-26.057,26.765-26.057,66.912c0,40.146,10.423,66.911,26.057,66.911C251.711,508.731,262.134,481.966,262.134,441.82z"
			/>
		<path style="fill:#272525;" d="M340.089,369.099v2.04h-1.502c-2.59,0-4.705,4.011-4.865,9.631v80.653
			c0,31.979-9.936,53.301-24.839,53.301c-15.333,0-25.555-21.179-25.555-52.946v-80.541c-0.05-5.865-2.21-10.099-4.872-10.099
			h-1.501v-2.04h18.716v2.04h-1.501c-2.615,0-4.747,4.087-4.858,9.793v77.85c0,29.712,7.826,49.52,19.566,49.52
			c12.31,0,20.517-18.756,20.539-46.888v-80.455c-0.115-5.719-2.249-9.818-4.868-9.818h-1.502v-2.04L340.089,369.099z"/>
		<path style="fill:#272525;" d="M373.062,369.106c11.781,0,19.002,15.303,19.002,40.272c0,31.783-15.245,48.706-26.807,34.917
			l-0.011-1.971c0,0,15.16,7.4,19.318-22.466c0.409-2.936,0.645-7.967,0.589-12.578c-0.23-19.152-4.585-31.92-12.424-31.92h-10.623
			v124.515c0.06,7.263,2.677,13.112,5.902,13.112h1.167l0.014,2.085h-20.171l0.014-2.085h1.167c3.225,0,5.842-5.849,5.906-13.112
			V383.19c-0.3-6.747-2.812-12.017-5.874-12.017h-1.166l-0.015-2.073L373.062,369.106z"/>
		<path style="fill:#272525;" d="M445.306,481.384l-5.372,33.684h-38.201l0.016-2.085h1.165c3.226,0,5.842-5.848,5.901-13.111
			V384.308c-0.061-7.262-2.679-13.112-5.902-13.112h-1.167l-0.014-2.085h20.159l-0.015,2.085h-1.165
			c-3.226,0-5.842,5.85-5.903,13.112v124.377h13.216c9.765,0,13.515-11.429,16.358-27.305L445.306,481.384z"/>
		<path style="fill:#272525;" d="M505.743,500.167c1.864,9.089,5.272,12.856,8.095,12.856h0.771v2.042h-20.75v-2.023h0.81
			c2.38,0,4.848-4.646,3.502-12.817l-5.893-34.779h-24.821l-6.173,34.901c-1.301,8.095,1.156,12.695,3.523,12.695h0.81v2.023
			h-18.548v-2.042h0.829c2.803,0,6.209-3.764,8.073-12.842l20.897-109.879c0,0,3.411-16.542,3.411-21.031h0.83L505.743,500.167z
			 M491.238,459.319l-11.106-65.536l-11.593,65.536H491.238z"/>
		<path style="fill:#272525;" d="M586.982,369.099l-0.015,2.086h-1.7c-3.084,0-5.59,5.544-5.687,12.464l0.001,104.473
			c0,13.435,0.84,26.604,0.84,26.604h-0.836l-49.967-115.1l-0.29,100.886c0.096,6.925,2.603,12.476,5.687,12.476h1.701l0.013,2.085
			h-18.98l0.013-2.085h1.701c3.108,0,5.629-5.632,5.689-12.628l0.29-105.396c0-14.236-0.85-26.05-0.85-26.05h0.909l49.894,115.056
			l-0.001-100.149c-0.059-7-2.58-12.639-5.688-12.639h-1.7l-0.014-2.084L586.982,369.099z"/>
		<path style="fill:#272525;" d="M626.905,369.126c19.682,0,33.095,29.211,33.095,73.038c0,43.739-13.413,72.911-33.095,72.911
			h-31.196l0.016-2.085h1.165c3.222,0,5.836-5.834,5.903-13.084v-116.8c0-6.707-2.822-11.932-5.87-11.932h-1.166l-0.015-2.067
			L626.905,369.126z M608.794,508.738h18.111c15.794,0,26.183-26.631,26.183-66.574c0-40.065-10.48-66.774-26.183-66.774h-18.111
			V508.738z"/>
	</g>
	<g>
		<path style="fill:#272525;" d="M282.354,522.507v2.207h-1.318c-4.578,0-10.856,3.929-13.161,13.673l-24.837,116.695
			c0,0-3.049,14.018-3.279,24.524h-1.416L207.67,553.435L184.946,655.08c0,0-2.897,13.682-3.145,24.526h-1.416l-34.04-141.438
			c-2.487-9.586-8.551-13.457-13.147-13.457h-1.2v-2.207h33.333v2.187h-1.319c-3.835,0-7.623,4.883-5.857,13.557l22.689,107.389
			l27.929-126.585l1.396,0.071l29.581,122.052l20.085-103.321c1.489-8.469-1.727-13.164-5.808-13.164h-1.318v-2.186L282.354,522.507
			z"/>
		<path style="fill:#272525;" d="M395.37,601.284c0,46.994-22.015,78.323-53.912,78.323c-31.898,0-53.913-31.329-53.913-78.323
			s22.015-78.323,53.913-78.323C373.355,522.961,395.37,554.29,395.37,601.284z M383.872,601.287
			c0-43.132-16.966-71.886-42.414-71.886c-25.448,0-42.414,28.754-42.414,71.886c0,43.129,16.966,71.882,42.414,71.882
			C366.906,673.169,383.872,644.416,383.872,601.287z"/>
		<path style="fill:#272525;" d="M449.206,522.545c18.176,0,29.316,16.052,29.316,42.239c0,21.758-11.057,42.853-25.481,42.853
			c3.218,2.226,7.828,9.666,10.735,15.816c0,0,12.931,27.667,18.737,37.169c6.034,9.876,11.586,16.892,20.399,16.997v2.254h-8.229
			c-13.959,0-21.454-11.266-26.17-19.704c-1.704-3.049-18.606-39.9-19.759-42.069c-3.921-7.381-8.296-15.166-13.775-15.166v-2.08
			c0,0,3.411,0.11,7.926-0.074c7.78-0.316,19.154-3.095,23.411-23.335c0.661-3.149,1.044-8.533,0.954-13.459
			c-0.369-20.326-7.439-33.345-18.606-34.263c-7.647-0.627-16.727-0.07-18.673-0.175v133.954c0.097,7.827,4.357,14.132,9.606,14.132
			h1.897l0.024,2.248h-32.768l0.023-2.248h1.897c5.227,0,9.471-6.247,9.603-14.025V538.916c-0.099-7.828-4.358-14.133-9.608-14.133
			h-1.897l-0.023-2.233L449.206,522.545z"/>
		<path style="fill:#272525;" d="M527.082,663.967c0.097,7.854,4.357,14.181,9.606,14.181h1.897l0.024,2.255h-32.817l0.024-2.255
			h1.897c5.249,0,9.509-6.326,9.608-14.181V538.871c-0.131-7.812-4.377-14.087-9.605-14.087h-1.897l-0.024-2.255h32.812
			l-0.023,2.255h-1.897c-5.219,0-9.459,6.251-9.605,14.042V663.967z M582.78,668.924c4.104,6.169,8.071,8.974,14.169,9.205v2.241
			h-6.342c-4.221-0.02-15.712-0.689-22.602-12.774l-36.102-65.712l35.377-66.69c2.55-5.031,0.509-10.653-3.611-10.653h-1.449v-1.993
			h31.684v2.034h-0.657c-6.435,0.022-12.286,4.03-16.159,10.552l-35.34,61.313L582.78,668.924z"/>
		<path style="fill:#272525;" d="M650.51,613.254c5.996,7.99,7.534,17.649,7.534,26.393c0,23.948-10.837,40.486-28.087,40.486
			c-7.35,0-19.499-3.03-25.394-11.829c-1.117-6.683-0.551-20.474,1.733-30.182h1.319c-1.508,22.31,8.277,36.586,21.627,35.518
			c10.95-0.88,20.1-11.711,20.1-29.015c0-8.461-2.138-15.155-5.886-20.176l-28.731-38.516c-6.067-7.994-8.13-18.449-8.13-26.829
			c0-18.25,9.262-36.59,26.361-36.59c3.938,0,8.88,0.967,12.863,2.222h5.943v2.57v23.995h-1.444
			c0.036-13.85-7.53-22.293-16.876-22.293c-11.052,0-18.448,11.704-18.448,24.897c0,5.645,1.312,13.643,6.039,19.962L650.51,613.254
			z"/>
	</g>
	<g>
		<path style="fill:#272525;" d="M192.345,840.434l0.02-2.17h1.61c4.42,0,8.013-5.998,8.146-13.479v-56.196h-52.065v56.03
			c0.083,7.557,3.696,13.645,8.149,13.645h1.609l0.021,2.17h-27.837l0.021-2.17h1.609c4.453,0,8.066-6.088,8.15-13.645V704.237
			c-0.111-7.517-3.712-13.558-8.148-13.558h-1.609l-0.021-2.162h27.833l-0.021,2.162h-1.609c-4.426,0-8.023,6.017-8.148,13.512
			v57.887h52.065v-58.026c-0.167-7.432-3.746-13.375-8.146-13.375h-1.609l-0.021-2.162h27.833l-0.02,2.162h-1.61
			c-4.453,0-8.066,6.088-8.148,13.646v120.293c0.083,7.559,3.696,13.645,8.149,13.645h1.609l0.021,2.17L192.345,840.434z"/>
		<path style="fill:#272525;" d="M307.546,824.828c2.573,9.518,7.279,13.464,11.176,13.464h1.063v2.138h-28.649v-2.118h1.118
			c3.285,0,6.692-4.865,4.834-13.423l-8.138-36.422h-34.269l-8.523,36.55c-1.795,8.476,1.595,13.295,4.864,13.295h1.118v2.118
			h-25.609v-2.138h1.145c3.869,0,8.573-3.942,11.145-13.448l28.853-115.073c0,0,4.712-17.321,4.712-22.025h1.146L307.546,824.828z
			 M287.518,782.051l-15.335-68.633l-16.004,68.633H287.518z"/>
		<path style="fill:#272525;" d="M360.349,688.523c15.417,0,24.867,15.498,24.867,40.783c0,21.008-9.377,41.376-21.614,41.376
			c2.729,2.149,6.64,9.332,9.106,15.271c0,0,10.968,26.714,15.894,35.888c5.118,9.535,9.828,16.309,17.303,16.411v2.176h-6.979
			c-11.841,0-18.198-10.878-22.198-19.024c-1.445-2.944-15.783-38.525-16.76-40.619c-3.326-7.127-7.037-14.643-11.685-14.643v-2.008
			c0,0,2.894,0.106,6.723-0.072c6.599-0.305,16.247-2.988,19.858-22.53c0.561-3.041,0.885-8.238,0.809-12.995
			c-0.313-19.626-6.31-32.196-15.782-33.082c-6.487-0.604-14.188-0.067-15.839-0.17v129.337c0.083,7.558,3.696,13.646,8.149,13.646
			h1.609l0.021,2.171h-27.794l0.021-2.171h1.609c4.433,0,8.033-6.031,8.145-13.542V704.33c-0.084-7.559-3.697-13.646-8.15-13.646
			h-1.609l-0.021-2.158L360.349,688.523z"/>
		<path style="fill:#272525;" d="M451.42,688.554c27.175,0,45.692,30.4,45.692,76.01c0,45.519-18.518,75.878-45.692,75.878h-43.073
			l0.021-2.17h1.609c4.447,0,8.058-6.072,8.149-13.617V703.103c0-6.979-3.896-12.418-8.104-12.418h-1.609l-0.021-2.15
			L451.42,688.554z M426.412,833.846h25.008c21.807,0,36.15-27.712,36.15-69.282c0-41.694-14.471-69.491-36.15-69.491h-25.008
			V833.846z"/>
		<path style="fill:#272525;" d="M561.235,840.434h-52.744l0.021-2.17h1.609c4.453,0,8.066-6.086,8.15-13.645V703.111
			c-0.434-6.984-3.894-12.429-8.105-12.429h-1.609l-0.021-2.157h37.181c5.483-0.089,12.808-2.25,15.167-3.947v6.354v3.622v17.425
			l-1.286-0.032v-3.866c0-6.885-3.148-12.505-7.123-12.916h-25.938v67.088h21.501c3.409-0.107,6.154-4.848,6.154-10.689v-3.196
			l1.243-0.027v34.343l-1.243-0.027v-3.195c0-5.77-2.674-10.463-6.021-10.688h-21.634v65.021h18.247
			c13.481,0,18.658-11.895,22.585-28.417h1.272L561.235,840.434z"/>
		<path style="fill:#272525;" d="M614.944,688.523c15.417,0,24.867,15.498,24.867,40.783c0,21.008-9.379,41.376-21.614,41.376
			c2.729,2.149,6.64,9.332,9.105,15.271c0,0,10.969,26.714,15.894,35.888c5.119,9.535,9.828,16.309,17.304,16.411v2.176h-6.979
			c-11.841,0-18.198-10.878-22.198-19.024c-1.445-2.944-15.782-38.525-16.76-40.619c-3.326-7.127-7.037-14.643-11.685-14.643v-2.008
			c0,0,2.894,0.106,6.723-0.072c6.6-0.305,16.247-2.988,19.857-22.53c0.562-3.041,0.886-8.238,0.81-12.995
			c-0.312-19.626-6.311-32.196-15.782-33.082c-6.487-0.604-14.188-0.067-15.839-0.17v129.337c0.082,7.558,3.696,13.646,8.148,13.646
			h1.609l0.021,2.171h-27.794l0.02-2.171h1.609c4.434,0,8.033-6.031,8.146-13.542V704.33c-0.084-7.559-3.697-13.646-8.15-13.646
			h-1.609l-0.02-2.158L614.944,688.523z"/>
	</g>
	<g>
		<path style="fill:#272525;" d="M176.832,853.062c4.229-0.054,9.951-2.381,11.784-4.204v29.052l-0.984-0.034v-4.118
			c0-7.411-2.476-13.443-5.579-13.763h-18.546v138.41c0.105,7.965,2.867,14.346,6.266,14.346h1.237l0.016,2.312h-21.421l0.016-2.312
			h1.238c3.371,0,6.117-6.28,6.263-14.155V859.994h-18.558c-3.104,0.319-5.579,6.352-5.579,13.763v4.118l-0.984,0.034v-29.052
			c1.833,1.823,7.555,4.15,11.784,4.204H176.832z"/>
		<path style="fill:#272525;" d="M242.792,1015.057l0.016-2.374h1.238c3.399,0,6.163-6.564,6.265-14.755v-61.506H210.27v61.323
			c0.064,8.271,2.843,14.936,6.268,14.936h1.238l0.016,2.375h-21.408l0.016-2.375h1.238c3.425,0,6.204-6.664,6.268-14.936V865.987
			c-0.085-8.227-2.855-14.837-6.266-14.837H196.4l-0.016-2.367h21.405l-0.016,2.367h-1.238c-3.404,0-6.17,6.585-6.267,14.788v63.357
			h40.042v-63.512c-0.128-8.133-2.88-14.637-6.264-14.637h-1.238l-0.016-2.368h21.405l-0.016,2.368h-1.238
			c-3.425,0-6.204,6.663-6.267,14.935v131.66c0.064,8.272,2.843,14.935,6.268,14.935h1.238l0.016,2.375L242.792,1015.057z"/>
		<path style="fill:#272525;" d="M331.39,998.062c1.979,10.363,5.598,14.661,8.595,14.661h0.818v2.328H318.77v-2.308h0.86
			c2.527,0,5.147-5.298,3.718-14.618l-6.258-39.662h-26.356l-6.555,39.803c-1.381,9.23,1.227,14.478,3.741,14.478h0.86v2.308
			h-19.695v-2.328h0.88c2.976,0,6.593-4.293,8.571-14.646l22.19-125.312c0,0,3.623-18.865,3.623-23.986h0.881L331.39,998.062z
			 M315.987,951.477l-11.794-74.74l-12.308,74.74H315.987z"/>
		<path style="fill:#272525;" d="M417.651,848.792l-0.015,2.376h-1.806c-3.274,0-5.936,6.314-6.038,14.197l0.148,119.785
			c0,15.302,0.892,30.301,0.892,30.301h-0.888l-53.241-131.561l-0.272,114.586c0.102,7.888,2.764,14.21,6.039,14.21h1.806
			l0.015,2.375h-20.156l0.015-2.375h1.807c3.299,0,5.976-6.414,6.04-14.383l0.272-119.722c0-16.215-0.901-29.672-0.901-29.672h0.965
			l53.163,131.512l-0.148-114.86c-0.062-7.976-2.739-14.397-6.041-14.397h-1.805l-0.015-2.375L417.651,848.792z"/>
		<path style="fill:#272525;" d="M512.211,848.792v2.379h-1.37c-4.078,0-7.725,6.528-9.814,13.793l-19.348,75.916v56.867
			c0.063,8.273,2.843,14.936,6.268,14.936h1.237l0.016,2.374h-21.404l0.016-2.374h1.238c3.406,0,6.172-6.59,6.266-14.798V940.64
			l-18.63-75.602c-1.896-7.294-5.747-13.879-9.839-13.879h-1.333v-2.367h24.062v2.367h-1.232c-2.864,0-4.865,8.005-3.427,14.748
			l14.662,66.468l15.594-66.49l0.052-0.221c1.522-6.69-0.845-14.495-3.481-14.495h-1.233v-2.38L512.211,848.792z"/>
		<path style="fill:#272525;" d="M584.934,932.115c0,50.002-14.361,83.336-35.169,83.336c-20.809,0-35.169-33.334-35.169-83.336
			c0-50.003,14.36-83.336,35.169-83.336C570.572,848.779,584.934,882.112,584.934,932.115z M577.433,932.118
			c0-45.894-11.067-76.487-27.668-76.487s-27.669,30.594-27.669,76.487c0,45.891,11.068,76.484,27.669,76.484
			S577.433,978.009,577.433,932.118z"/>
		<path style="fill:#272525;" d="M660.209,848.792v2.335h-1.595c-2.751,0-4.996,4.59-5.166,11.022v92.302
			c0,36.6-10.551,61-26.376,61c-16.281,0-27.136-24.237-27.136-60.594v-92.173c-0.053-6.714-2.347-11.558-5.173-11.558h-1.594
			v-2.335h19.873v2.335h-1.594c-2.777,0-5.04,4.677-5.159,11.207v89.096c0,34.002,8.311,56.671,20.776,56.671
			c13.071,0,21.785-21.463,21.809-53.659v-92.077c-0.123-6.543-2.389-11.236-5.169-11.236h-1.595v-2.334L660.209,848.792z"/>
	</g>
</g>
<g id="Guides">
</g>
</svg>
