<?xml version="1.0" encoding="iso-8859-1"?>
<!-- Generator: Adobe Illustrator 15.1.0, SVG Export Plug-In . SVG Version: 6.00 Build 0)  -->
<!DOCTYPE svg PUBLIC "-//W3C//DTD SVG 1.1//EN" "http://www.w3.org/Graphics/SVG/1.1/DTD/svg11.dtd">
<svg version="1.1" id="Layer_1" xmlns="http://www.w3.org/2000/svg" xmlns:xlink="http://www.w3.org/1999/xlink" x="0px" y="0px"
	 width="400px" height="250px" viewBox="0 0 400 250" style="enable-background:new 0 0 400 250;" xml:space="preserve">
<g>
	<path d="M40.667,235.989c-4.304,14.196-10.258,14.55-15.662,14.55H0V0.002h27.753c1.557,0,8.976,1.775,13.189,20.582
		c3.481,15.615,3.298,35.132,3.298,41.521c0,19.163-0.917,29.454-2.29,36.907c-2.749,14.904-7.694,19.518-8.793,20.582
		c2.015,1.419,4.029,2.838,5.862,6.387c5.679,10.647,6.412,32.294,6.412,54.295C45.431,200.857,44.972,221.439,40.667,235.989z
		 M26.654,65.299c0-13.84-1.374-17.034-4.763-17.034h-4.03v51.81h4.03c3.48,0,4.763-4.613,4.763-18.807V65.299z M27.112,166.436
		c0-14.55-1.191-19.163-5.038-19.163h-4.213v55.36h4.03c3.938,0,5.221-3.549,5.221-19.163V166.436z"/>
	<path d="M49.828,250.539V0.002h18.044v202.985h16.761v47.552H49.828z"/>
	<path d="M117.975,250.539l-2.015-56.424h-11.083l-2.198,56.424H84.543L99.565,0.002h21.799l14.655,250.537H117.975z
		 M110.464,48.976l-3.939,100.427h7.786L110.464,48.976z"/>
	<path d="M166.246,250.539V150.467h-8.518v100.072H139.41V0.002h18.318v98.654h8.518V0.002h18.136v250.537H166.246z"/>
	<path d="M256.285,235.989c-4.305,14.196-10.259,14.55-15.662,14.55h-25.006V0.002h27.754c1.556,0,8.976,1.775,13.188,20.582
		c3.481,15.615,3.298,35.132,3.298,41.521c0,19.163-0.916,29.454-2.29,36.907c-2.748,14.904-7.694,19.518-8.793,20.582
		c2.015,1.419,4.03,2.838,5.862,6.387c5.679,10.647,6.411,32.294,6.411,54.295C261.048,200.857,260.59,221.439,256.285,235.989z
		 M242.271,65.299c0-13.84-1.375-17.034-4.763-17.034h-4.03v51.81h4.03c3.48,0,4.763-4.613,4.763-18.807V65.299z M242.729,166.436
		c0-14.55-1.19-19.163-5.038-19.163h-4.213v55.36h4.03c3.938,0,5.221-3.549,5.221-19.163V166.436z"/>
	<path d="M265.446,250.539V0.002h18.043v202.985h16.762v47.552H265.446z"/>
	<path d="M333.593,250.539l-2.016-56.424h-11.083l-2.198,56.424h-18.135L315.182,0.002h21.8l14.655,250.537H333.593z
		 M326.082,48.976l-3.938,100.427h7.785L326.082,48.976z"/>
	<path d="M381.864,250.539V150.467h-8.518v100.072h-18.319V0.002h18.319v98.654h8.518V0.002H400v250.537H381.864z"/>
</g>
</svg>
