<?xml version="1.0" encoding="iso-8859-1"?>
<!-- Generator: Adobe Illustrator 15.1.0, SVG Export Plug-In . SVG Version: 6.00 Build 0)  -->
<!DOCTYPE svg PUBLIC "-//W3C//DTD SVG 1.1//EN" "http://www.w3.org/Graphics/SVG/1.1/DTD/svg11.dtd">
<svg version="1.1" xmlns="http://www.w3.org/2000/svg" xmlns:xlink="http://www.w3.org/1999/xlink" x="0px" y="0px" width="792px"
	 height="1224px" viewBox="0 0 792 1224" style="enable-background:new 0 0 792 1224;" xml:space="preserve">
<g id="Layer_1">
	<g>
		<path style="fill:#272525;" d="M196.609,283.892c0,11.793-0.892,22.438-2.672,31.944c-1.783,9.506-4.331,17.575-7.644,24.207
			c-3.315,6.632-7.355,11.755-12.119,15.364c-4.766,3.613-10.089,5.416-15.972,5.416h-26.475V207.403h26.475
			c5.966,0,11.33,1.734,16.096,5.195c4.764,3.465,8.804,8.477,12.119,15.032c3.313,6.56,5.842,14.59,7.582,24.096
			S196.609,271.954,196.609,283.892z M192.01,283.892c0-21.958-2.942-38.832-8.825-50.625
			c-5.885-11.789-14.212-17.685-24.983-17.685h-21.876v137.061h21.876c5.302,0,10.046-1.582,14.231-4.753
			c4.184-3.167,7.726-7.699,10.627-13.595c2.899-5.893,5.116-13.077,6.65-21.554C191.243,304.268,192.01,294.652,192.01,283.892z"/>
		<path style="fill:#272525;" d="M248.196,207.877c5.966,0,11.538,1.991,16.718,5.964c5.178,3.978,9.674,9.411,13.486,16.297
			c3.811,6.89,6.815,15.018,9.012,24.392c2.194,9.373,3.294,19.458,3.294,30.25c0,10.651-1.119,20.664-3.356,30.037
			s-5.283,17.542-9.136,24.498c-3.854,6.96-8.349,12.462-13.486,16.509c-5.139,4.049-10.648,6.072-16.531,6.072
			c-5.885,0-11.416-2.023-16.593-6.072c-5.18-4.047-9.695-9.549-13.548-16.509c-3.853-6.956-6.898-15.125-9.136-24.498
			s-3.356-19.386-3.356-30.037s1.119-20.627,3.356-29.931c2.237-9.299,5.283-17.432,9.136-24.392
			c3.853-6.957,8.369-12.461,13.548-16.509C236.781,209.901,242.312,207.877,248.196,207.877z M248.196,354.014
			c5.22,0,10.149-1.811,14.791-5.431c4.64-3.623,8.658-8.591,12.057-14.913c3.397-6.318,6.091-13.667,8.08-22.048
			c1.989-8.378,2.983-17.327,2.983-26.842c0-9.656-0.975-18.709-2.921-27.161c-1.948-8.448-4.642-15.764-8.079-21.942
			c-3.439-6.178-7.458-11.041-12.057-14.592c-4.599-3.549-9.551-5.326-14.854-5.326c-5.22,0-10.151,1.811-14.791,5.432
			c-4.642,3.622-8.682,8.558-12.119,14.805c-3.439,6.251-6.152,13.564-8.141,21.942c-1.989,8.381-2.983,17.329-2.983,26.842
			c0,9.66,0.995,18.677,2.983,27.055c1.989,8.381,4.702,15.694,8.141,21.942c3.438,6.25,7.478,11.183,12.119,14.806
			C238.045,352.203,242.976,354.014,248.196,354.014z"/>
		<path style="fill:#272525;" d="M332.467,360.565c-3.978,0-7.728-1.335-11.249-4.001c-3.523-2.666-6.588-6.271-9.198-10.813
			c-2.61-4.542-4.682-9.875-6.215-16.004c-1.534-6.127-2.299-12.652-2.299-19.572V207.879h4.599v102.296
			c0,5.913,0.641,11.428,1.926,16.544c1.284,5.12,3.024,9.591,5.221,13.409c2.194,3.822,4.764,6.85,7.706,9.083
			c2.94,2.237,6.11,3.352,9.509,3.352c3.313,0,6.463-1.115,9.446-3.352c2.983-2.234,5.593-5.262,7.831-9.083
			c2.238-3.818,3.997-8.289,5.283-13.409c1.284-5.116,1.927-10.631,1.927-16.544V207.879h4.599v102.296
			c0,6.92-0.767,13.445-2.299,19.572c-1.534,6.129-3.604,11.462-6.215,16.004c-2.61,4.542-5.698,8.147-9.26,10.813
			C340.214,359.23,336.444,360.565,332.467,360.565z"/>
		<path style="fill:#272525;" d="M458.875,287.111c0,11.016-0.994,21.079-2.984,30.188c-1.988,9.109-4.828,16.915-8.514,23.409
			c-3.688,6.498-8.1,11.513-13.236,15.041c-5.139,3.529-10.814,5.296-17.029,5.296c-5.885,0-11.416-2.013-16.594-6.038
			c-5.179-4.025-9.695-9.497-13.548-16.418c-3.853-6.918-6.898-15.042-9.136-24.363c-2.237-9.321-3.356-19.278-3.356-29.87
			c0-10.593,1.119-20.513,3.358-29.765c2.237-9.249,5.285-17.335,9.142-24.257c3.855-6.918,8.375-12.394,13.556-16.419
			c5.182-4.024,10.715-6.037,16.604-6.037c4.725,0,9.182,1.132,13.369,3.39c4.188,2.261,8,5.508,11.441,9.745
			s6.445,9.395,9.018,15.464c2.568,6.075,4.6,12.854,6.094,20.337h-4.852c-2.9-12.85-7.441-22.913-13.617-30.188
			c-6.178-7.272-13.33-10.911-21.455-10.911c-5.225,0-10.158,1.801-14.801,5.402c-4.645,3.602-8.686,8.511-12.127,14.724
			c-3.441,6.216-6.156,13.488-8.145,21.82c-1.991,8.335-2.985,17.232-2.985,26.694c0,9.605,0.995,18.573,2.987,26.904
			c1.993,8.335,4.709,15.607,8.155,21.82c3.445,6.217,7.49,11.122,12.141,14.724c4.646,3.602,9.586,5.402,14.814,5.402
			c5.395,0,10.312-1.483,14.754-4.449c4.439-2.966,8.279-7.167,11.518-12.605c3.234-5.435,5.787-12.002,7.654-19.702
			c1.869-7.696,2.928-16.207,3.176-25.527h-36.17v-7.839h40.77V287.111z"/>
		<path style="fill:#272525;" d="M475.53,317.32c0,5.3,0.476,10.123,1.429,14.464c0.952,4.344,2.3,8.061,4.04,11.151
			c1.74,3.092,3.832,5.486,6.276,7.178c2.443,1.694,5.158,2.539,8.142,2.539h23.865v8.17h-23.865c-3.647,0-6.96-1.066-9.943-3.202
			c-2.983-2.132-5.553-5.114-7.706-8.943c-2.156-3.827-3.834-8.392-5.034-13.691c-1.202-5.3-1.803-11.187-1.803-17.666V207.569h4.6
			V317.32z"/>
		<path style="fill:#272525;" d="M533.451,360.823h-4.599V258c0-6.883,0.766-13.37,2.3-19.468
			c1.532-6.093,3.604-11.401,6.215-15.917c2.61-4.517,5.675-8.101,9.197-10.756c3.521-2.652,7.271-3.979,11.249-3.979
			s7.747,1.328,11.311,3.979c3.562,2.655,6.65,6.239,9.261,10.756c2.609,4.517,4.68,9.824,6.215,15.917
			c1.532,6.098,2.299,12.584,2.299,19.468v102.823H582.3v-59.801h-48.849V360.823z M582.3,258c0-5.734-0.643-11.186-1.927-16.349
			c-1.285-5.162-3.025-9.643-5.221-13.444c-2.196-3.798-4.785-6.81-7.769-9.035c-2.982-2.221-6.174-3.334-9.57-3.334
			c-3.398,0-6.568,1.113-9.509,3.334c-2.942,2.225-5.512,5.237-7.706,9.035c-2.196,3.801-3.937,8.282-5.221,13.444
			c-1.285,5.163-1.927,10.615-1.927,16.349v35.063H582.3V258z"/>
		<path style="fill:#272525;" d="M660.48,215.681c-4.145,0-7.977,1.178-11.497,3.529c-3.523,2.354-6.525,5.663-9.012,9.926
			c-3.398,5.59-5.801,12.611-7.209,21.065c-1.41,8.458-2.113,19.742-2.113,33.859c0,15.296-0.829,27.759-2.486,37.389
			c-1.658,9.633-4.393,17.684-8.203,24.153c-2.983,5.001-6.525,8.823-10.627,11.471c-4.102,2.646-8.515,3.895-13.237,3.75v-8.162
			c4.143,0,7.974-1.103,11.497-3.309c3.521-2.206,6.606-5.439,9.26-9.706c1.656-2.792,3.064-5.917,4.227-9.375
			c1.159-3.453,2.112-7.423,2.858-11.911c0.746-4.483,1.284-9.52,1.616-15.11c0.33-5.586,0.497-11.983,0.497-19.19
			c0-7.645,0.206-14.52,0.621-20.624c0.414-6.101,1.057-11.581,1.927-16.434c0.87-4.853,1.968-9.227,3.294-13.125
			c1.324-3.895,2.94-7.462,4.848-10.698c2.982-5.146,6.504-9.044,10.564-11.691c4.06-2.647,8.452-3.971,13.176-3.971V215.681z"/>
	</g>
	<g>
		<path style="fill:#272525;" d="M203.365,468.62c-1.356,6.846-3.175,13.122-5.458,18.826c-2.284,5.707-4.905,10.64-7.865,14.799
			c-2.961,4.163-6.225,7.384-9.791,9.665c-3.568,2.281-7.276,3.423-11.129,3.423c-5.066,0-9.828-1.913-14.285-5.739
			c-4.459-3.826-8.346-9.025-11.664-15.604c-3.317-6.575-5.939-14.296-7.865-23.155c-1.926-8.859-2.889-18.322-2.889-28.39
			c0-10.067,0.963-19.496,2.889-28.29c1.926-8.79,4.548-16.476,7.865-23.054c3.317-6.575,7.205-11.779,11.664-15.604
			c4.458-3.826,9.219-5.738,14.285-5.738c3.995,0,7.793,1.142,11.396,3.423c3.601,2.284,6.883,5.471,9.844,9.564
			c2.959,4.097,5.564,8.995,7.812,14.698c2.247,5.707,4.013,11.98,5.297,18.827h-4.28c-1.214-5.77-2.819-11.074-4.815-15.907
			c-1.998-4.832-4.298-8.959-6.902-12.382c-2.604-3.423-5.457-6.072-8.56-7.953c-3.104-1.878-6.367-2.819-9.792-2.819
			c-4.494,0-8.739,1.711-12.733,5.134c-3.996,3.423-7.474,8.088-10.433,13.994c-2.961,5.908-5.297,12.82-7.009,20.739
			c-1.712,7.922-2.568,16.378-2.568,25.37c0,9.13,0.856,17.652,2.568,25.571c1.712,7.922,4.048,14.833,7.009,20.739
			c2.959,5.909,6.437,10.571,10.433,13.994c3.994,3.422,8.239,5.134,12.733,5.134c3.353,0,6.562-0.972,9.631-2.919
			c3.066-1.944,5.885-4.631,8.454-8.054c2.568-3.423,4.869-7.551,6.902-12.383c2.033-4.832,3.691-10.133,4.976-15.906H203.365z"/>
		<path style="fill:#272525;" d="M247.129,369.758c5.137,0,9.934,1.874,14.393,5.614c4.458,3.743,8.328,8.856,11.61,15.338
			c3.281,6.485,5.867,14.135,7.758,22.957c1.889,8.822,2.835,18.314,2.835,28.471c0,10.025-0.963,19.449-2.889,28.271
			s-4.548,16.51-7.865,23.058c-3.317,6.55-7.188,11.729-11.61,15.538c-4.424,3.81-9.167,5.714-14.232,5.714
			c-5.066,0-9.828-1.905-14.285-5.714c-4.459-3.81-8.346-8.988-11.664-15.538c-3.317-6.548-5.939-14.236-7.865-23.058
			c-1.926-8.822-2.889-18.245-2.889-28.271c0-10.025,0.963-19.414,2.889-28.17c1.926-8.753,4.548-16.407,7.865-22.957
			c3.317-6.547,7.205-11.729,11.664-15.539C237.301,371.663,242.063,369.758,247.129,369.758z M247.129,507.3
			c4.495,0,8.738-1.704,12.734-5.112c3.995-3.408,7.454-8.086,10.379-14.035c2.924-5.946,5.244-12.863,6.956-20.751
			c1.712-7.885,2.568-16.306,2.568-25.263c0-9.088-0.839-17.609-2.515-25.563c-1.677-7.952-3.996-14.837-6.956-20.652
			c-2.961-5.814-6.42-10.391-10.379-13.734c-3.959-3.339-8.223-5.012-12.788-5.012c-4.494,0-8.739,1.705-12.733,5.113
			c-3.996,3.408-7.474,8.054-10.433,13.935c-2.961,5.883-5.297,12.766-7.009,20.651c-1.712,7.889-2.568,16.309-2.568,25.263
			c0,9.091,0.856,17.578,2.568,25.463c1.712,7.888,4.048,14.771,7.009,20.651c2.959,5.883,6.437,10.526,10.433,13.935
			C238.39,505.596,242.635,507.3,247.129,507.3z"/>
		<path style="fill:#272525;" d="M319.678,514.586c-3.424,0-6.653-1.269-9.684-3.805c-3.033-2.536-5.671-5.964-7.918-10.283
			s-4.031-9.389-5.35-15.218c-1.321-5.826-1.979-12.031-1.979-18.612v-97.275h3.959v97.275c0,5.624,0.552,10.868,1.659,15.732
			c1.105,4.868,2.603,9.12,4.494,12.751c1.889,3.634,4.102,6.513,6.634,8.637c2.532,2.127,5.26,3.188,8.186,3.188
			c2.853,0,5.564-1.06,8.132-3.188c2.568-2.124,4.815-5.003,6.742-8.637c1.926-3.631,3.441-7.883,4.548-12.751
			c1.105-4.865,1.658-10.109,1.658-15.732v-97.275h3.959v97.275c0,6.581-0.661,12.786-1.979,18.612
			c-1.321,5.829-3.104,10.899-5.351,15.218s-4.905,7.747-7.972,10.283C326.347,513.317,323.102,514.586,319.678,514.586z"/>
		<path style="fill:#272525;" d="M411.702,417.964c0,6.945-0.642,13.347-1.926,19.201c-1.284,5.856-3.087,10.896-5.404,15.115
			c-2.318,4.223-5.119,7.526-8.4,9.907c-3.282,2.384-6.885,3.575-10.808,3.575h-21.401v49.227h-3.959v-97.024
			c0-6.67,0.677-12.97,2.033-18.894c1.354-5.924,3.21-11.062,5.564-15.422c2.354-4.357,5.118-7.829,8.293-10.417
			c3.173-2.585,6.544-3.881,10.112-3.881c3.566,0,6.918,1.296,10.059,3.881c3.139,2.588,5.886,6.061,8.239,10.417
			c2.354,4.359,4.209,9.498,5.564,15.422C411.023,404.994,411.702,411.293,411.702,417.964z M407.743,418.066
			c0-5.732-0.572-11.088-1.712-16.073c-1.143-4.982-2.712-9.316-4.709-13.002c-1.998-3.687-4.333-6.622-7.009-8.806
			c-2.675-2.183-5.511-3.278-8.507-3.278c-3.068,0-5.939,1.095-8.614,3.278c-2.675,2.184-5.013,5.119-7.009,8.806
			c-1.998,3.687-3.568,8.021-4.708,13.002c-1.142,4.985-1.712,10.341-1.712,16.073v40.137h21.401c3.424,0,6.527-0.99,9.31-2.968
			c2.782-1.979,5.153-4.746,7.116-8.295c1.962-3.549,3.478-7.781,4.548-12.696S407.743,423.938,407.743,418.066z"/>
		<path style="fill:#272525;" d="M425.934,473.552c0,5.048,0.409,9.643,1.23,13.777c0.819,4.138,1.979,7.677,3.478,10.622
			s3.299,5.226,5.404,6.835c2.103,1.614,4.44,2.419,7.009,2.419H463.6v7.782h-20.545c-3.141,0-5.992-1.016-8.561-3.05
			c-2.568-2.031-4.78-4.871-6.635-8.519c-1.855-3.645-3.3-7.993-4.334-13.041s-1.551-10.654-1.551-16.827V369.016h3.959V473.552z"/>
		<path style="fill:#272525;" d="M475.798,514.988h-3.96v-98.359c0-6.585,0.659-12.791,1.979-18.623
			c1.319-5.829,3.104-10.906,5.351-15.227s4.886-7.749,7.919-10.289c3.031-2.537,6.26-3.807,9.684-3.807s6.67,1.27,9.737,3.807
			c3.066,2.54,5.726,5.967,7.973,10.289s4.029,9.398,5.35,15.227c1.319,5.832,1.979,12.038,1.979,18.623v98.359h-3.959v-57.205
			h-42.053V514.988z M517.851,416.629c0-5.485-0.554-10.701-1.658-15.639c-1.107-4.938-2.605-9.224-4.494-12.86
			c-1.892-3.634-4.12-6.514-6.688-8.643c-2.568-2.125-5.314-3.189-8.239-3.189c-2.926,0-5.654,1.063-8.186,3.189
			c-2.533,2.129-4.745,5.009-6.635,8.643c-1.891,3.636-3.389,7.922-4.494,12.86c-1.106,4.938-1.658,10.154-1.658,15.639v33.541
			h42.053V416.629z"/>
		<path style="fill:#272525;" d="M562.364,368.427c3.425,0,6.67,1.272,9.737,3.813c3.066,2.545,5.726,5.978,7.973,10.307
			c2.247,4.329,4.029,9.415,5.35,15.253c1.319,5.842,1.98,12.059,1.98,18.655v98.532h-3.96v-98.532
			c0-5.495-0.553-10.719-1.658-15.666c-1.107-4.947-2.622-9.241-4.548-12.883c-1.926-3.64-4.173-6.525-6.741-8.658
			c-2.568-2.129-5.28-3.195-8.133-3.195c-2.926,0-5.654,1.065-8.186,3.195c-2.533,2.132-4.745,5.018-6.635,8.658
			c-1.891,3.643-3.389,7.936-4.494,12.883c-1.106,4.947-1.658,10.171-1.658,15.666v98.532h-3.96v-98.532
			c0-6.596,0.659-12.812,1.98-18.655c1.318-5.839,3.103-10.925,5.35-15.253c2.247-4.329,4.886-7.762,7.919-10.307
			C555.712,369.7,558.94,368.427,562.364,368.427z"/>
		<path style="fill:#272525;" d="M659.847,441.95c0,11.196-0.768,21.303-2.301,30.328c-1.535,9.025-3.729,16.685-6.581,22.982
			c-2.854,6.296-6.331,11.16-10.433,14.586c-4.104,3.43-8.687,5.142-13.751,5.142h-22.792V369.333h22.792
			c5.137,0,9.755,1.646,13.857,4.932c4.102,3.289,7.579,8.048,10.434,14.271c2.853,6.228,5.029,13.852,6.527,22.877
			S659.847,430.617,659.847,441.95z M655.888,441.95c0-20.847-2.533-36.866-7.598-48.062c-5.066-11.192-12.235-16.79-21.509-16.79
			h-18.833v130.125h18.833c4.564,0,8.649-1.502,12.253-4.512c3.602-3.007,6.65-7.31,9.148-12.908
			c2.496-5.595,4.404-12.416,5.725-20.463C655.227,461.295,655.888,452.166,655.888,441.95z"/>
	</g>
	<g>
		<path style="fill:#272525;" d="M199.969,648.887c-1.259,4.431-2.99,8.53-5.193,12.296c-2.204,3.767-4.697,7.017-7.476,9.747
			c-2.781,2.735-5.851,4.875-9.207,6.426c-3.359,1.552-6.873,2.326-10.544,2.326c-4.827,0-9.392-1.295-13.692-3.877
			c-4.304-2.582-8.054-6.127-11.253-10.633c-3.202-4.506-5.72-9.784-7.555-15.842c-1.837-6.055-2.754-12.479-2.754-19.274V523.269
			h5.823v106.787c0,5.76,0.76,11.153,2.282,16.173c1.52,5.022,3.62,9.415,6.295,13.182c2.676,3.767,5.796,6.723,9.364,8.861
			c3.565,2.144,7.397,3.214,11.489,3.214c4.092,0,7.92-1.07,11.489-3.214c3.566-2.139,6.688-5.095,9.364-8.861
			c2.675-3.767,4.8-8.159,6.374-13.182c1.574-5.02,2.361-10.413,2.361-16.173V523.269h5.823v106.787
			c0,5.76,0.76,11.153,2.282,16.173c1.52,5.022,3.62,9.415,6.295,13.182s5.796,6.723,9.364,8.861
			c3.565,2.144,7.397,3.214,11.489,3.214c4.091,0,7.92-1.07,11.489-3.214c3.565-2.139,6.688-5.095,9.364-8.861
			c2.676-3.767,4.801-8.159,6.375-13.182c1.574-5.02,2.361-10.413,2.361-16.173V523.269h5.823v106.787
			c0,6.795-0.92,13.22-2.754,19.274c-1.837,6.058-4.382,11.336-7.633,15.842c-3.253,4.506-7.031,8.051-11.332,10.633
			c-4.303,2.582-8.867,3.877-13.692,3.877c-7.451,0-14.062-2.88-19.831-8.641C206.788,665.28,202.59,657.897,199.969,648.887z"/>
		<path style="fill:#272525;" d="M337.658,523.269c7.501,0,14.507,2.029,21.02,6.079c6.51,4.054,12.163,9.59,16.957,16.608
			c4.791,7.022,8.568,15.306,11.331,24.858c2.759,9.552,4.141,19.831,4.141,30.828c0,10.855-1.406,21.06-4.219,30.611
			c-2.813,9.553-6.642,17.877-11.487,24.967c-4.845,7.093-10.498,12.701-16.957,16.826c-6.461,4.124-13.389,6.187-20.786,6.187
			c-7.399,0-14.354-2.062-20.864-6.187c-6.513-4.125-12.19-9.733-17.035-16.826c-4.845-7.09-8.674-15.414-11.487-24.967
			c-2.813-9.552-4.22-19.756-4.22-30.611c0-10.854,1.407-21.021,4.22-30.503c2.813-9.478,6.642-17.765,11.487-24.858
			c4.845-7.09,10.522-12.7,17.035-16.825C323.304,525.332,330.259,523.269,337.658,523.269z M337.658,672.201
			c6.564,0,12.761-1.846,18.598-5.537c5.833-3.689,10.886-8.754,15.159-15.196c4.271-6.438,7.658-13.929,10.158-22.471
			c2.5-8.537,3.751-17.656,3.751-27.354c0-9.84-1.226-19.067-3.673-27.681c-2.449-8.609-5.836-16.065-10.158-22.361
			c-4.325-6.295-9.377-11.252-15.159-14.871c-5.783-3.616-12.009-5.428-18.676-5.428c-6.564,0-12.764,1.846-18.598,5.537
			c-5.836,3.69-10.916,8.721-15.238,15.088c-4.324,6.37-7.736,13.823-10.236,22.361c-2.5,8.542-3.75,17.66-3.75,27.354
			c0,9.845,1.25,19.034,3.75,27.573c2.5,8.54,5.912,15.994,10.236,22.36c4.322,6.371,9.401,11.398,15.238,15.088
			C324.894,670.355,331.094,672.201,337.658,672.201z"/>
		<path style="fill:#272525;" d="M475.027,680.624h-5.783v-42.05c0-3.099-0.416-5.976-1.25-8.631
			c-0.834-2.656-1.953-5.015-3.359-7.082c-1.406-2.065-3.047-3.687-4.924-4.868c-1.875-1.18-3.906-1.772-6.094-1.772h-41.104v64.403
			h-5.781V573.95c0-7.376,0.883-14.164,2.656-20.361c1.771-6.197,4.221-11.543,7.346-16.045c3.125-4.499,6.85-8.002,11.174-10.513
			c4.322-2.507,9.037-3.762,14.145-3.762c4.895,0,9.479,1.217,13.752,3.645c4.271,2.431,8.021,5.744,11.252,9.942
			c3.229,4.197,5.756,9.129,7.58,14.8c1.822,5.671,2.734,11.674,2.734,18.002c0,9.87-1.434,18.266-4.297,25.189
			c-2.867,6.923-7.008,12.075-12.424,15.46c4.375,1.923,7.865,5.438,10.471,10.537c2.602,5.104,3.906,10.979,3.906,17.633V680.624z
			 M443.146,608.033c8.959,0,15.939-3.382,20.941-10.149c5-6.768,7.502-16.184,7.502-28.249c0-5.294-0.781-10.26-2.346-14.895
			c-1.562-4.633-3.672-8.679-6.328-12.137s-5.783-6.179-9.377-8.165c-3.596-1.985-7.424-2.981-11.486-2.981
			c-4.377,0-8.361,1.031-11.957,3.091c-3.594,2.061-6.695,4.966-9.299,8.715c-2.605,3.752-4.637,8.24-6.094,13.462
			c-1.461,5.222-2.189,10.924-2.189,17.104v34.204H443.146z"/>
		<path style="fill:#272525;" d="M553.167,601.749c4.688,2.57,8.307,6.763,10.861,12.579c2.552,5.816,3.829,13.028,3.829,21.638
			v44.187h-5.783v-44.123c0-6.184-0.703-11.235-2.109-15.16c-1.406-3.921-3.23-6.977-5.47-9.164
			c-2.242-2.186-4.742-3.694-7.502-4.525c-2.762-0.827-5.445-1.245-8.048-1.245h-36.102v74.217h-5.782V522.894h5.782v74.668h36.102
			c2.603,0,5.286-0.413,8.048-1.244c2.76-0.827,5.26-2.375,7.502-4.639c2.239-2.263,4.063-5.353,5.47-9.277
			c1.406-3.921,2.109-8.973,2.109-15.161v-44.348h5.783v44.348c0,8.599-1.277,15.804-3.829,21.609
			C561.474,594.66,557.855,598.959,553.167,601.749z"/>
		<path style="fill:#272525;" d="M659.666,531.212c-5.125,0-9.863,1.21-14.218,3.622c-4.356,2.415-8.07,5.811-11.144,10.186
			c-4.203,5.736-7.174,12.94-8.915,21.616c-1.744,8.679-2.613,20.258-2.613,34.745c0,15.695-1.024,28.484-3.073,38.365
			c-2.052,9.886-5.434,18.147-10.146,24.786c-3.688,5.133-8.069,9.054-13.142,11.771c-5.073,2.716-10.529,3.997-16.37,3.849v-8.375
			c5.123,0,9.861-1.133,14.218-3.396c4.354-2.263,8.171-5.58,11.452-9.959c2.048-2.864,3.789-6.072,5.226-9.62
			c1.434-3.544,2.612-7.618,3.534-12.222c0.923-4.603,1.588-9.77,1.999-15.506c0.408-5.734,0.614-12.298,0.614-19.692
			c0-7.845,0.255-14.9,0.769-21.164c0.512-6.26,1.307-11.884,2.383-16.863s2.434-9.468,4.074-13.468
			c1.637-3.997,3.635-7.657,5.994-10.979c3.688-5.28,8.043-9.28,13.064-11.996c5.02-2.716,10.452-4.074,16.293-4.074V531.212z"/>
	</g>
	<g>
		<path style="fill:#272525;" d="M204.356,840.144h-5.709v-75.919h-60.643v75.919h-5.709V687.867h5.709v68.239h60.643v-68.239h5.709
			V840.144z"/>
		<path style="fill:#272525;" d="M234.136,840.144h-5.709V737.77c0-6.854,0.95-13.312,2.854-19.382
			c1.902-6.067,4.475-11.353,7.715-15.849c3.24-4.499,7.045-8.066,11.419-10.709c4.371-2.641,9.027-3.963,13.965-3.963
			c4.938,0,9.618,1.322,14.042,3.963c4.422,2.643,8.255,6.21,11.496,10.709c3.241,4.496,5.811,9.781,7.715,15.849
			c1.902,6.069,2.855,12.527,2.855,19.382v102.374h-5.709v-59.541h-60.643V840.144z M294.779,737.77
			c0-5.709-0.798-11.137-2.392-16.277c-1.596-5.141-3.756-9.601-6.48-13.385c-2.727-3.782-5.941-6.78-9.645-8.996
			c-3.703-2.211-7.665-3.32-11.881-3.32c-4.22,0-8.154,1.109-11.805,3.32c-3.653,2.216-6.843,5.214-9.567,8.996
			c-2.727,3.784-4.887,8.244-6.481,13.385c-1.596,5.141-2.392,10.568-2.392,16.277v34.91h60.643V737.77z"/>
		<path style="fill:#272525;" d="M389.677,840.144h-5.709v-40.564c0-2.988-0.412-5.765-1.234-8.327
			c-0.825-2.562-1.929-4.836-3.318-6.831c-1.389-1.992-3.009-3.557-4.86-4.696c-1.852-1.139-3.858-1.709-6.018-1.709h-40.583v62.128
			h-5.709V737.238c0-7.116,0.873-13.664,2.624-19.643c1.748-5.978,4.166-11.135,7.252-15.479c3.086-4.34,6.763-7.719,11.033-10.141
			c4.268-2.418,8.923-3.629,13.965-3.629c4.834,0,9.36,1.174,13.579,3.516c4.217,2.346,7.92,5.54,11.11,9.591
			c3.188,4.05,5.683,8.807,7.484,14.277c1.798,5.471,2.7,11.262,2.7,17.367c0,9.521-1.415,17.62-4.243,24.298
			c-2.831,6.679-6.92,11.648-12.268,14.915c4.321,1.854,7.766,5.244,10.338,10.165c2.57,4.923,3.858,10.591,3.858,17.01V840.144z
			 M358.198,770.117c8.846,0,15.74-3.264,20.677-9.792c4.938-6.528,7.407-15.611,7.407-27.25c0-5.107-0.771-9.898-2.314-14.368
			s-3.626-8.372-6.25-11.709c-2.623-3.336-5.709-5.96-9.258-7.876c-3.549-1.915-7.33-2.875-11.342-2.875
			c-4.32,0-8.255,0.993-11.804,2.981c-3.549,1.989-6.611,4.79-9.182,8.406c-2.572,3.62-4.579,7.95-6.018,12.987
			c-1.442,5.037-2.161,10.538-2.161,16.499v32.996H358.198z"/>
		<path style="fill:#272525;" d="M491.981,764.405c0,11.609-1.107,22.091-3.318,31.448c-2.213,9.358-5.376,17.303-9.489,23.831
			c-4.116,6.529-9.131,11.572-15.045,15.127c-5.917,3.557-12.525,5.332-19.829,5.332h-32.867V689.103H444.3
			c7.407,0,14.066,1.708,19.983,5.114c5.914,3.411,10.929,8.345,15.045,14.801c4.113,6.457,7.252,14.362,9.412,23.722
			C490.9,742.098,491.981,752.652,491.981,764.405z M486.271,764.405c0-21.617-3.652-38.229-10.956-49.839
			c-7.305-11.605-17.644-17.41-31.016-17.41h-27.158v134.935H444.3c6.582,0,12.473-1.558,17.668-4.679
			c5.193-3.118,9.592-7.581,13.193-13.386c3.6-5.801,6.351-12.875,8.256-21.219C485.319,784.466,486.271,774.998,486.271,764.405z"
			/>
		<path style="fill:#272525;" d="M513.272,760.514h54.162v7.636h-54.162v29.017c0,4.945,0.617,9.563,1.852,13.853
			c1.234,4.292,2.956,8,5.17,11.127c2.211,3.129,4.834,5.562,7.869,7.308c3.033,1.746,6.3,2.618,9.799,2.618h36.107v8.072h-36.107
			c-4.32,0-8.333-1.092-12.036-3.272c-3.703-2.182-6.92-5.198-9.645-9.054c-2.727-3.853-4.86-8.399-6.403-13.635
			c-1.543-5.237-2.314-10.909-2.314-17.017v-65.449c0-6.109,0.771-11.815,2.314-17.126c1.543-5.308,3.677-9.853,6.403-13.635
			c2.725-3.781,5.941-6.763,9.645-8.946c3.703-2.181,7.716-3.271,12.036-3.271h36.107v8.072h-36.107
			c-3.499,0-6.766,0.872-9.799,2.617c-3.035,1.745-5.658,4.183-7.869,7.309c-2.214,3.13-3.936,6.838-5.17,11.127
			c-1.234,4.291-1.852,8.91-1.852,13.854V760.514z"/>
		<path style="fill:#272525;" d="M657.283,840.144h-5.491v-40.564c0-2.988-0.396-5.765-1.187-8.327
			c-0.793-2.562-1.855-4.836-3.19-6.831c-1.336-1.992-2.895-3.557-4.676-4.696c-1.78-1.139-3.71-1.709-5.787-1.709h-39.031v62.128
			h-5.49V737.238c0-7.116,0.839-13.664,2.522-19.643c1.682-5.978,4.007-11.135,6.975-15.479c2.969-4.34,6.505-7.719,10.611-10.141
			c4.104-2.418,8.582-3.629,13.431-3.629c4.649,0,9.002,1.174,13.06,3.516c4.056,2.346,7.618,5.54,10.686,9.591
			c3.065,4.05,5.465,8.807,7.197,14.277c1.729,5.471,2.598,11.262,2.598,17.367c0,9.521-1.362,17.62-4.082,24.298
			c-2.722,6.679-6.654,11.648-11.798,14.915c4.155,1.854,7.47,5.244,9.943,10.165c2.472,4.923,3.71,10.591,3.71,17.01V840.144z
			 M627.009,770.117c8.508,0,15.137-3.264,19.887-9.792c4.748-6.528,7.123-15.611,7.123-27.25c0-5.107-0.742-9.898-2.227-14.368
			c-1.483-4.47-3.487-8.372-6.01-11.709c-2.523-3.336-5.491-5.96-8.904-7.876c-3.413-1.915-7.05-2.875-10.908-2.875
			c-4.155,0-7.939,0.993-11.354,2.981c-3.413,1.989-6.357,4.79-8.829,8.406c-2.475,3.62-4.404,7.95-5.788,12.987
			c-1.387,5.037-2.078,10.538-2.078,16.499v32.996H627.009z"/>
	</g>
	<g>
		<path style="fill:#272525;" d="M163.729,857.407v157.405h-4.418V857.407h-27.823v-8.864h60.184v8.864H163.729z"/>
		<path style="fill:#272525;" d="M256.597,1014.812h-4.32v-82.748h-45.893v82.748h-4.321V848.838h4.321v74.378h45.893v-74.378h4.32
			V1014.812z"/>
		<path style="fill:#272525;" d="M279.134,1014.812h-4.321V903.031c0-7.483,0.719-14.536,2.161-21.164
			c1.439-6.624,3.386-12.395,5.838-17.306c2.453-4.91,5.332-8.806,8.642-11.693c3.308-2.882,6.831-4.325,10.568-4.325
			s7.278,1.443,10.626,4.325c3.347,2.888,6.248,6.783,8.7,11.693c2.452,4.911,4.397,10.682,5.838,17.306
			c1.44,6.628,2.161,13.681,2.161,21.164v111.781h-4.321v-65.012h-45.893V1014.812z M325.026,903.031
			c0-6.234-0.604-12.161-1.81-17.773c-1.208-5.612-2.843-10.482-4.905-14.615c-2.063-4.129-4.496-7.404-7.298-9.822
			c-2.802-2.415-5.8-3.625-8.992-3.625c-3.193,0-6.171,1.21-8.933,3.625c-2.764,2.418-5.178,5.693-7.24,9.822
			c-2.063,4.133-3.698,9.003-4.904,14.615c-1.208,5.612-1.81,11.539-1.81,17.773v38.118h45.893V903.031z"/>
		<path style="fill:#272525;" d="M373.604,848.543c3.737,0,7.278,1.443,10.626,4.325c3.346,2.888,6.248,6.783,8.7,11.693
			c2.452,4.911,4.397,10.682,5.838,17.306c1.439,6.628,2.16,13.681,2.16,21.164v111.781h-4.32V903.031
			c0-6.234-0.604-12.161-1.81-17.773c-1.208-5.612-2.861-10.482-4.963-14.615c-2.102-4.129-4.554-7.404-7.357-9.822
			c-2.802-2.415-5.762-3.625-8.875-3.625c-3.193,0-6.171,1.21-8.934,3.625c-2.764,2.418-5.178,5.693-7.24,9.822
			c-2.064,4.133-3.699,9.003-4.905,14.615c-1.208,5.612-1.81,11.539-1.81,17.773v111.781h-4.321V903.031
			c0-7.483,0.719-14.536,2.161-21.164c1.439-6.624,3.386-12.395,5.839-17.306c2.452-4.91,5.332-8.806,8.641-11.693
			C366.344,849.986,369.867,848.543,373.604,848.543z"/>
		<path style="fill:#272525;" d="M504.042,892.926c0,7.314-0.643,14.192-1.927,20.633c-1.285,6.439-3.077,12.164-5.372,17.173
			c-2.297,5.01-4.963,9.102-7.999,12.276c-3.036,3.176-6.306,5.006-9.81,5.494v66.311h-4.32v-66.311
			c-3.503-0.488-6.772-2.318-9.809-5.494c-3.036-3.175-5.704-7.267-8-12.276c-2.297-5.009-4.087-10.733-5.371-17.173
			c-1.284-6.44-1.927-13.318-1.927-20.633v-43.89h4.32v43.89c0,6.521,0.603,12.604,1.811,18.246
			c1.206,5.647,2.841,10.578,4.904,14.79c2.062,4.215,4.476,7.555,7.24,10.018c2.763,2.468,5.74,3.696,8.933,3.696
			c3.113,0,6.072-1.229,8.875-3.696c2.803-2.463,5.255-5.803,7.357-10.018c2.102-4.212,3.755-9.143,4.963-14.79
			c1.206-5.643,1.81-11.725,1.81-18.246v-43.89h4.321V892.926z"/>
		<path style="fill:#272525;" d="M553.67,849.036c5.604,0,10.84,2.15,15.706,6.444c4.864,4.298,9.088,10.167,12.67,17.608
			c3.58,7.443,6.402,16.227,8.466,26.354c2.062,10.128,3.095,21.023,3.095,32.684c0,11.509-1.051,22.326-3.152,32.453
			c-2.103,10.127-4.964,18.952-8.583,26.469c-3.62,7.52-7.845,13.465-12.671,17.838c-4.827,4.372-10.004,6.559-15.53,6.559
			c-5.529,0-10.726-2.187-15.59-6.559c-4.866-4.373-9.108-10.318-12.729-17.838c-3.62-7.517-6.481-16.342-8.583-26.469
			s-3.153-20.944-3.153-32.453s1.052-22.286,3.153-32.339c2.102-10.048,4.963-18.833,8.583-26.354
			c3.62-7.516,7.862-13.464,12.729-17.838C542.944,851.223,548.141,849.036,553.67,849.036z M553.67,1006.929
			c4.904,0,9.535-1.956,13.896-5.868c4.359-3.913,8.135-9.282,11.327-16.112c3.191-6.825,5.723-14.766,7.591-23.822
			c1.868-9.052,2.803-18.718,2.803-29c0-10.434-0.916-20.216-2.744-29.347c-1.83-9.127-4.361-17.032-7.591-23.707
			c-3.231-6.674-7.007-11.928-11.327-15.765c-4.32-3.835-8.974-5.755-13.954-5.755c-4.905,0-9.538,1.957-13.896,5.869
			c-4.361,3.913-8.156,9.246-11.386,15.996c-3.231,6.754-5.78,14.656-7.648,23.708c-1.869,9.056-2.803,18.723-2.803,29
			c0,10.437,0.934,20.178,2.803,29.229c1.868,9.056,4.417,16.959,7.648,23.708c3.229,6.754,7.024,12.084,11.386,15.997
			C544.132,1004.973,548.765,1006.929,553.67,1006.929z"/>
		<path style="fill:#272525;" d="M632.841,1014.494c-3.736,0-7.26-1.445-10.568-4.334c-3.31-2.89-6.188-6.797-8.641-11.716
			c-2.452-4.922-4.399-10.701-5.839-17.341c-1.441-6.639-2.16-13.71-2.16-21.209V849.06h4.32v110.835
			c0,6.41,0.603,12.384,1.81,17.928c1.206,5.546,2.842,10.391,4.905,14.528c2.062,4.141,4.476,7.422,7.239,9.842
			c2.763,2.423,5.74,3.632,8.934,3.632c3.113,0,6.072-1.209,8.875-3.632c2.803-2.42,5.255-5.701,7.356-9.842
			c2.103-4.138,3.756-8.982,4.963-14.528c1.207-5.544,1.811-11.518,1.811-17.928V849.06h4.32v110.835
			c0,7.499-0.721,14.57-2.16,21.209c-1.441,6.64-3.387,12.419-5.839,17.341c-2.452,4.919-5.354,8.826-8.699,11.716
			C640.119,1013.049,636.578,1014.494,632.841,1014.494z"/>
	</g>
</g>
<g id="Guides">
</g>
</svg>
