<?xml version="1.0" encoding="iso-8859-1"?>
<!-- Generator: Adobe Illustrator 15.1.0, SVG Export Plug-In . SVG Version: 6.00 Build 0)  -->
<!DOCTYPE svg PUBLIC "-//W3C//DTD SVG 1.1//EN" "http://www.w3.org/Graphics/SVG/1.1/DTD/svg11.dtd">
<svg version="1.1" xmlns="http://www.w3.org/2000/svg" xmlns:xlink="http://www.w3.org/1999/xlink" x="0px" y="0px" width="792px"
	 height="1224px" viewBox="0 0 792 1224" style="enable-background:new 0 0 792 1224;" xml:space="preserve">
<g id="Layer_1">
	<g>
		<path style="fill:#272525;" d="M164.895,207.726c24.387,0,42.087,32.114,42.087,76.51c0,44.396-17.7,76.51-42.087,76.51h-33.15
			v-1.511h2.306c7.898,0,8.648-2.718,8.648-5.637V214.27c0-3.12-1.038-5.034-8.648-5.034h-2.306v-1.51H164.895z M144.14,358.732
			h20.467c23.753,0,40.934-31.309,40.934-74.496c0-43.188-17.181-74.497-40.934-74.497h-20.409L144.14,358.732z"/>
		<path style="fill:#272525;" d="M216.784,284.236c0-44.698,15.509-77.014,36.898-77.014s36.898,32.315,36.898,77.014
			c0,44.698-15.509,77.014-36.898,77.014S216.784,328.934,216.784,284.236z M289.138,284.236c0-43.49-14.875-75-35.457-75
			s-35.457,31.51-35.457,75c0,43.49,14.875,75,35.457,75S289.138,327.726,289.138,284.236z"/>
		<path style="fill:#272525;" d="M318.774,207.726v1.51h-4.324c-7.899,0-8.648,2.618-8.648,5.537v97.148
			c0,27.282,10.724,47.315,26.232,47.315c15.97,0,27.673-19.631,27.673-47.315v-97.148c0-2.919-0.75-5.537-8.648-5.537h-4.323v-1.51
			h23.925v1.51h-1.153c-7.898,0-8.647,2.618-8.647,5.537v97.148c0,28.792-12.28,49.329-28.827,49.329
			c-16.143,0-27.673-20.94-27.673-49.329v-97.148c0-2.919-0.75-5.537-8.648-5.537h-2.306v-1.51H318.774z"/>
		<path style="fill:#272525;" d="M430.162,206.006l0.809,38.183c0,0.502-0.174,0.805-0.404,0.805c-0.288,0-0.461-0.302-0.461-0.805
			c-0.635-25.522-15.566-34.666-21.908-34.666c-20.236,0-33.727,29.843-33.727,74.659c0,43.509,13.202,75.06,31.42,75.06
			c7.956,0,15.971-8.54,21.735-16.579c1.903-2.713,4.267-6.531,5.362-8.744v-39.388c0-3.115-1.038-5.125-8.648-5.125h-11.53v-2.008
			h30.556v2.008h-1.211c-7.091,0-8.014,2.211-8.014,5.125v66.72c0,0.302-0.173,1.005-0.576,1.005c-0.231,0-0.576-0.301-0.576-1.005
			V346.38c0-3.315-0.116-5.527-1.096-5.527c-0.691,0-1.73,1.005-3.517,3.316c-5.938,8.24-14.24,17.082-22.485,17.082
			c-19.083,0-32.862-32.355-32.862-77.07c0-46.021,14.067-76.668,35.168-76.668c4.612,0,13.49,4.521,18.795,16.278
			c0.634,1.306,1.096,1.808,1.498,1.808c0.98,0,1.097-2.812,1.097-3.516v-3.316l-0.288-12.761H430.162z"/>
		<path style="fill:#272525;" d="M468.506,207.726v1.51h-2.019c-7.61,0-8.648,2.215-8.648,5.336v144.161h46.526
			c5.246,0,6.977-3.221,7.321-11.778l0.923-25.57l1.153,0.201l-1.441,38.255c0,0.705-0.403,0.906-0.577,0.906h-66.3v-1.511h2.306
			c7.898,0,8.647-2.718,8.647-5.637V214.572c0-3.121-1.037-5.336-8.647-5.336h-2.306v-1.51H468.506z"/>
		<path style="fill:#272525;" d="M518.088,359.236h0.288c4.958,0,6.631-2.013,7.726-7.449l29.403-143.356
			c0.115-0.503,0.346-0.705,0.519-0.705h1.557c0.403,0,0.577,0.604,0.577,1.006c0,2.014,0.288,4.934,1.441,10.47l27.038,131.678
			c1.327,6.342,2.998,8.355,7.553,8.355h2.307v1.511h-22.484v-1.511h5.766c4.669,0,6.11-0.705,6.11-3.422
			c0-1.107-0.23-2.618-0.635-4.531l-8.013-38.859h-41.856l-8.244,39.967c-0.173,1.007-0.288,1.812-0.288,2.517
			c0,3.624,2.536,4.329,8.475,4.329h2.364v1.511h-19.603V359.236z M576.836,310.41l-18.564-90.604
			c-1.037-5.034-1.152-6.242-1.21-6.745h-1.326l-19.947,97.349H576.836z"/>
		<path style="fill:#272525;" d="M607.684,237.682c0,24.295,15.509,32.494,25.079,42.192c10.262,10.398,27.5,20.496,27.5,49.491
			c0,18.496-11.876,31.894-28.249,31.894c-8.879,0-18.737-4.699-24.618-14.598c-1.384-2.599-2.536-4.699-3.344-4.699
			c-0.75,0-1.152,1.7-1.211,6.399l-0.288,14.397h-0.864l0.749-37.994h0.864v1.1c0,22.096,15.105,33.194,28.712,33.194
			c15.738,0,26.808-12.398,26.808-29.695c0-27.496-16.143-36.694-26.636-47.291c-9.166-9.299-25.943-18.397-25.943-44.393
			c0-17.397,10.205-29.395,23.465-29.395c6.169,0,14.471,3.799,19.66,14.097c0.979,2,1.729,2.899,2.19,2.899
			c0.634,0,0.864-1.499,0.864-4.599c0-1.6-0.23-8.399-0.288-13.897h0.923l0.865,37.993c0,0.4-0.174,0.699-0.462,0.699
			s-0.461-0.299-0.461-0.699l-0.173-2.9c-1.441-23.795-14.24-31.394-23.119-31.394C616.735,210.487,607.684,221.885,607.684,237.682
			z"/>
	</g>
	<g>
		<path style="fill:#272525;" d="M182.13,367.158l0.697,36.371c0,0.479-0.149,0.766-0.349,0.766c-0.249,0-0.399-0.287-0.399-0.766
			c-0.548-24.311-13.454-33.021-18.935-33.021c-17.64,0-29.4,28.428-29.4,71.116c0,41.923,11.062,71.498,29.4,71.498
			c8.82,0,15.397-7.37,19.783-15.697l0.697,1.34c-4.534,8.519-11.361,16.271-20.48,16.271c-19.035,0-30.396-30.916-30.396-73.413
			c0-43.837,12.158-73.03,30.396-73.03c3.986,0,11.66,4.307,16.245,15.506c0.548,1.244,0.947,1.722,1.295,1.722
			c0.847,0,0.947-2.679,0.947-3.35v-3.158l-0.249-12.156H182.13z"/>
		<path style="fill:#272525;" d="M189.606,441.815c0-42.498,13.404-73.222,31.891-73.222s31.891,30.724,31.891,73.222
			c0,42.497-13.404,73.221-31.891,73.221S189.606,484.312,189.606,441.815z M252.143,441.815c0-41.349-12.856-71.308-30.646-71.308
			c-17.789,0-30.646,29.958-30.646,71.308c0,41.348,12.856,71.306,30.646,71.306C239.287,513.121,252.143,483.163,252.143,441.815z"
			/>
		<path style="fill:#272525;" d="M277.757,369.072v1.436h-3.737c-6.827,0-7.475,2.489-7.475,5.264v92.364
			c0,25.939,9.269,44.985,22.673,44.985c13.803,0,23.918-18.664,23.918-44.985v-92.364c0-2.775-0.648-5.264-7.475-5.264h-3.737
			v-1.436h20.679v1.436h-0.997c-6.827,0-7.474,2.489-7.474,5.264v92.364c0,27.375-10.614,46.9-24.915,46.9
			c-13.952,0-23.918-19.909-23.918-46.9v-92.364c0-2.775-0.648-5.264-7.475-5.264h-1.993v-1.436H277.757z"/>
		<path style="fill:#272525;" d="M356.989,369.072c21.128,0,28.403,30.533,28.403,49.771c0,19.622-7.474,49.771-28.403,49.771
			h-19.683v39.243c0,2.776,0.648,5.264,7.475,5.264h1.744v1.436h-19.932v-1.436h1.993c6.827,0,7.475-2.488,7.475-5.264V375.293
			c0-2.967-0.897-4.786-7.475-4.786h-1.993v-1.436H356.989z M356.84,466.7c20.331,0,27.306-29.001,27.306-47.857
			c0-18.472-6.776-47.857-27.306-47.857h-19.484l-0.05,95.714H356.84z"/>
		<path style="fill:#272525;" d="M409.861,369.072v1.436h-1.744c-6.577,0-7.475,2.105-7.475,5.073v137.062h40.213
			c4.534,0,6.029-3.063,6.328-11.198l0.797-24.311l0.997,0.191l-1.246,36.372c0,0.669-0.349,0.861-0.498,0.861h-57.304v-1.436h1.994
			c6.826,0,7.474-2.584,7.474-5.36V375.58c0-2.967-0.896-5.073-7.474-5.073h-1.994v-1.436H409.861z"/>
		<path style="fill:#272525;" d="M452.716,513.121h0.249c4.285,0,5.731-1.914,6.678-7.083l25.413-136.297
			c0.1-0.479,0.299-0.67,0.448-0.67h1.346c0.349,0,0.498,0.574,0.498,0.957c0,1.915,0.25,4.691,1.246,9.955l23.37,125.194
			c1.146,6.03,2.591,7.944,6.528,7.944h1.993v1.436h-19.435v-1.436h4.983c4.036,0,5.282-0.669,5.282-3.254
			c0-1.053-0.199-2.489-0.549-4.307l-6.926-36.946h-36.177l-7.126,37.999c-0.148,0.958-0.249,1.723-0.249,2.393
			c0,3.446,2.192,4.115,7.325,4.115h2.043v1.436h-16.942V513.121z M503.493,466.7l-16.046-86.142
			c-0.896-4.786-0.996-5.935-1.046-6.413h-1.146l-17.24,92.555H503.493z"/>
		<path style="fill:#272525;" d="M535.387,369.072c0.199,0,0.349,0.287,0.398,0.478l44.349,136.585
			c0.349,1.148,0.748,1.722,1.047,1.722c0.349,0,0.598-0.861,0.598-2.488V375.771c0-2.967-0.896-5.264-7.475-5.264h-1.993v-1.436
			h18.936v1.436h-0.996c-6.578,0-7.476,2.297-7.476,5.264v138.786h-1.046c-0.149,0-0.349-0.096-0.448-0.479l-46.491-143.093h-0.448
			c0.448,3.446,0.598,5.265,0.598,10.624v126.247c0,2.776,0.647,5.264,7.475,5.264h1.744v1.436h-19.683v-1.436h1.993
			c6.826,0,7.474-2.488,7.474-5.264V381.515c0-10.146-3.389-11.007-9.368-11.007h-0.598v-1.436H535.387z"/>
		<path style="fill:#272525;" d="M623.887,369.072c21.078,0,36.376,30.533,36.376,72.743c0,42.21-15.298,72.742-36.376,72.742
			h-28.652v-1.436h1.993c6.827,0,7.475-2.584,7.475-5.36V375.293c0-2.967-0.896-4.786-7.475-4.786h-1.993v-1.436H623.887z
			 M605.948,512.643h17.689c20.529,0,35.379-29.767,35.379-70.828c0-41.062-14.85-70.829-35.379-70.829h-17.64L605.948,512.643z"/>
	</g>
	<g>
		<path style="fill:#272525;" d="M161.203,523.205v1.542h-5.196h-1.684c-6.953,0-9.881,0.104-9.881,3.602
			c0,0.823,0.146,1.749,0.439,2.88l33.889,140.021c0.512,2.264,1.098,3.293,1.61,3.293s1.025-1.029,1.537-3.189l26.203-108.437
			l-7.539-31.071c-1.391-5.658-5.123-7.099-11.199-7.099v-1.542h29.205v1.542h-5.197h-1.683c-6.954,0-9.882,0.104-9.882,3.602
			c0,0.823,0.147,1.749,0.439,2.88l33.889,140.021c0.512,2.264,1.098,3.293,1.61,3.293s1.024-1.029,1.537-3.189l33.889-140.125
			c0.293-1.132,0.439-2.058,0.439-2.778c0-3.498-3.001-3.704-10.028-3.704h-1.683h-5.05v-1.542h28.838v1.542
			c-6.075,0-9.809,1.441-11.199,7.099l-35.792,148.046h-2.342l-27.521-113.786l-27.521,113.786h-2.342l-35.792-148.046
			c-1.391-5.658-5.124-7.099-11.199-7.099v-1.542H161.203z"/>
		<path style="fill:#272525;" d="M286.079,601.394c0-45.679,19.688-78.703,46.844-78.703c27.155,0,46.844,33.024,46.844,78.703
			c0,45.68-19.689,78.704-46.844,78.704C305.767,680.098,286.079,647.073,286.079,601.394z M377.936,601.394
			c0-44.444-18.884-76.646-45.014-76.646c-26.13,0-45.015,32.202-45.015,76.646c0,44.446,18.884,76.646,45.015,76.646
			C359.052,678.04,377.936,645.84,377.936,601.394z"/>
		<path style="fill:#272525;" d="M429.688,523.205c24.227,0,41.72,19.033,41.72,45.268c0,24.692-15.443,43.003-37.401,45.062
			c11.491,4.115,16.542,15.329,21.519,34.568c3.294,12.86,7.539,29.526,16.322,29.526c2.781,0,4.025-1.338,6.147-3.704
			c0.294-0.308,0.732-0.514,1.025-0.514c0.438,0,0.878,0.31,1.171,0.926c0.22,0.413,0.365,0.927,0.365,1.338
			c0,0.616-0.219,1.233-0.658,1.646c-2.488,2.675-4.758,3.808-8.417,3.808c-10.32,0-14.199-20.269-17.347-32.408
			c-6.368-24.794-12.37-34.979-32.498-34.979h-19.03v58.642c0,2.983,0.951,5.658,10.979,5.658h2.562v1.544H386.87v-1.544h2.928
			c10.027,0,10.979-2.675,10.979-5.658V529.891c0-3.188-1.317-5.144-10.979-5.144h-2.928v-1.542H429.688z M402.606,611.682h19.03
			h7.831c23.349,0,40.11-18.106,40.11-43.21c0-25.103-16.762-43.21-40.11-43.21h-26.789L402.606,611.682z"/>
		<path style="fill:#272525;" d="M518.986,523.205v1.542h-4.026c-9.661,0-10.979,2.264-10.979,5.453v67.078h12.224
			c1.61,0,3.952-2.057,4.977-3.806l34.914-62.037c1.099-1.955,1.684-3.292,1.684-4.321c0-1.646-1.61-2.367-5.271-2.367h-8.051
			v-1.542h27.96v1.542h-1.099c-3.513,0-9.734,0.309-14.053,7.922l-36.889,65.638l37.255,66.565
			c4.684,8.334,8.49,13.065,11.784,13.065c2.781,0,4.025-1.337,6.148-3.703c0.293-0.31,0.659-0.514,0.951-0.514
			c0.732,0,1.391,0.822,1.391,1.954c0,0.616-0.219,1.233-0.658,1.646c-1.977,2.16-4.393,3.808-6.954,3.808
			c-5.416,0-8.417-4.631-14.199-15.021l-35.279-63.066c-0.805-1.543-3.001-3.704-4.611-3.704H503.98v73.046
			c0,2.983,0.952,5.658,10.979,5.658h4.026v1.544h-30.742v-1.544h2.928c10.027,0,10.979-2.675,10.979-5.658V530.2
			c0-3.189-1.316-5.453-10.979-5.453h-2.928v-1.542H518.986z"/>
		<path style="fill:#272525;" d="M592.841,552.937c0,25,19.688,33.437,31.839,43.415c13.028,10.7,34.913,21.092,34.913,50.927
			c0,19.032-15.078,32.818-35.864,32.818c-11.272,0-23.788-4.834-31.254-15.02c-1.756-2.675-3.22-4.837-4.245-4.837
			c-0.951,0-1.464,1.75-1.537,6.585l-0.365,14.815h-1.099l0.951-39.095h1.099v1.132c0,22.736,19.177,34.155,36.45,34.155
			c19.981,0,34.034-12.756,34.034-30.555c0-28.292-20.494-37.758-33.815-48.663c-11.637-9.567-32.937-18.93-32.937-45.679
			c0-17.901,12.956-30.247,29.79-30.247c7.831,0,18.371,3.909,24.959,14.505c1.244,2.058,2.196,2.983,2.781,2.983
			c0.806,0,1.098-1.542,1.098-4.732c0-1.646-0.292-8.642-0.366-14.3h1.172l1.098,39.094c0,0.412-0.22,0.72-0.586,0.72
			s-0.585-0.308-0.585-0.72l-0.22-2.983c-1.83-24.485-18.079-32.305-29.351-32.305C604.332,524.953,592.841,536.681,592.841,552.937
			z"/>
	</g>
	<g>
		<path style="fill:#272525;" d="M161.035,687.557v1.505h-4.822c-8.808,0-9.643,2.309-9.643,5.219v63.528h59.788V694.28
			c0-2.91-0.835-5.219-9.644-5.219h-4.821v-1.505h28.287v1.505h-2.572c-8.807,0-9.643,2.309-9.643,5.219v138.597
			c0,2.91,0.836,5.721,9.643,5.721h2.572v1.505h-28.287v-1.505h4.821c8.808,0,9.644-2.811,9.644-5.721v-73.062H146.57v73.062
			c0,2.91,0.835,5.721,9.643,5.721h4.822v1.505h-28.287v-1.505h2.571c8.808,0,9.644-2.811,9.644-5.721V694.28
			c0-2.91-0.836-5.219-9.644-5.219h-2.571v-1.505H161.035z"/>
		<path style="fill:#272525;" d="M224.684,838.598h0.321c5.529,0,7.393-2.008,8.614-7.427l32.787-142.913
			c0.129-0.502,0.386-0.701,0.579-0.701h1.736c0.45,0,0.643,0.603,0.643,1.003c0,2.008,0.322,4.918,1.607,10.438l30.151,131.27
			c1.479,6.322,3.343,8.33,8.422,8.33h2.571v1.505h-25.072v-1.505h6.429c5.207,0,6.814-0.703,6.814-3.412
			c0-1.105-0.257-2.609-0.707-4.518l-8.936-38.737H243.97l-9.193,39.843c-0.193,1.004-0.321,1.806-0.321,2.509
			c0,3.612,2.829,4.315,9.45,4.315h2.636v1.505h-21.857V838.598z M290.192,789.923l-20.7-90.324
			c-1.158-5.017-1.286-6.221-1.351-6.723h-1.478l-22.244,97.047H290.192z"/>
		<path style="fill:#272525;" d="M354.227,687.557c21.279,0,36.644,18.566,36.644,44.157c0,24.087-13.564,41.95-32.851,43.957
			c10.093,4.015,14.529,14.954,18.9,33.722c2.893,12.546,6.622,28.804,14.336,28.804c2.443,0,3.535-1.306,5.399-3.614
			c0.258-0.3,0.643-0.502,0.901-0.502c0.385,0,0.771,0.303,1.028,0.904c0.193,0.402,0.321,0.903,0.321,1.305
			c0,0.602-0.192,1.203-0.578,1.605c-2.186,2.609-4.179,3.714-7.393,3.714c-9.065,0-12.472-19.771-15.236-31.614
			c-5.594-24.186-10.865-34.121-28.544-34.121H330.44v57.204c0,2.911,0.835,5.521,9.643,5.521h2.25v1.505h-25.715v-1.505h2.571
			c8.808,0,9.644-2.609,9.644-5.521V694.08c0-3.112-1.157-5.019-9.644-5.019h-2.571v-1.505H354.227z M330.44,773.865h16.715h6.878
			c20.508,0,35.23-17.662,35.23-42.151c0-24.487-14.722-42.15-35.23-42.15h-23.529L330.44,773.865z"/>
		<path style="fill:#272525;" d="M442.624,687.557c27.194,0,46.931,32.015,46.931,76.272c0,44.259-19.736,76.273-46.931,76.273
			h-36.965v-1.505h2.571c8.808,0,9.643-2.71,9.643-5.621V694.08c0-3.112-1.156-5.019-9.643-5.019h-2.571v-1.505H442.624z
			 M419.48,838.096h22.822c26.486,0,45.645-31.213,45.645-74.267c0-43.053-19.158-74.266-45.645-74.266h-22.758L419.48,838.096z"/>
		<path style="fill:#272525;" d="M564.584,687.557c0.449,0,0.642,0.603,0.642,0.903l1.607,38.137l-1.286,0.199l-1.027-25.49
			c-0.387-8.832-2.508-11.742-8.165-11.742h-46.673l-0.064,74.266h25.394c2.571,0,2.571-18.867,2.571-27.097v-6.021h1.286v68.244
			h-1.286v-6.021c0-8.832,0-27.098-2.571-27.098h-25.394v72.26h51.88c5.851,0,7.779-3.211,8.164-11.742l1.029-25.491l1.286,0.2
			l-1.607,38.137c0,0.702-0.45,0.903-0.644,0.903h-73.931v-1.505h2.572c8.807,0,9.643-2.71,9.643-5.621V694.08
			c0-3.112-1.157-5.019-9.643-5.019h-2.572v-1.505H564.584z"/>
		<path style="fill:#272525;" d="M616.336,687.557c21.28,0,36.645,18.566,36.645,44.157c0,24.087-13.564,41.95-32.852,43.957
			c10.094,4.015,14.529,14.954,18.9,33.722c2.894,12.546,6.622,28.804,14.337,28.804c2.442,0,3.536-1.306,5.4-3.614
			c0.257-0.3,0.643-0.502,0.899-0.502c0.386,0,0.772,0.303,1.029,0.904c0.192,0.402,0.321,0.903,0.321,1.305
			c0,0.602-0.193,1.203-0.578,1.605c-2.187,2.609-4.18,3.714-7.394,3.714c-9.064,0-12.473-19.771-15.236-31.614
			c-5.593-24.186-10.865-34.121-28.544-34.121H592.55v57.204c0,2.911,0.836,5.521,9.644,5.521h2.25v1.505h-25.715v-1.505h2.571
			c8.808,0,9.643-2.609,9.643-5.521V694.08c0-3.112-1.156-5.019-9.643-5.019h-2.571v-1.505H616.336z M592.55,773.865h16.715h6.879
			c20.508,0,35.229-17.662,35.229-42.151c0-24.487-14.722-42.15-35.229-42.15h-23.529L592.55,773.865z"/>
	</g>
	<g>
		<path style="fill:#272525;" d="M192.812,849.641c0.153,0,0.511,0.218,0.511,0.982l1.074,34.909l-0.818,0.219l-0.614-20.292
			c-0.358-10.363-1.841-13.636-7.007-13.636h-21.993v156.001c0,3.164,0.665,6.001,7.672,6.001h1.79v1.637h-20.458v-1.637h2.046
			c7.007,0,7.672-2.837,7.672-6.001V851.823h-22.249c-5.166,0-6.649,3.272-7.008,13.636l-0.613,20.292l-0.818-0.219l1.074-34.909
			c0-0.765,0.358-0.982,0.512-0.982H192.812z"/>
		<path style="fill:#272525;" d="M221.764,849.641v1.637h-3.836c-7.007,0-7.672,2.509-7.672,5.672v69.057h47.567v-69.057
			c0-3.163-0.665-5.672-7.672-5.672h-3.836v-1.637h22.504v1.637h-2.046c-7.007,0-7.672,2.509-7.672,5.672v150.658
			c0,3.163,0.665,6.218,7.672,6.218h2.046v1.637h-22.504v-1.637h3.836c7.007,0,7.672-3.055,7.672-6.218v-79.42h-47.567v79.42
			c0,3.163,0.665,6.218,7.672,6.218h3.836v1.637H199.26v-1.637h2.045c7.007,0,7.672-3.055,7.672-6.218V856.949
			c0-3.163-0.665-5.672-7.672-5.672h-2.045v-1.637H221.764z"/>
		<path style="fill:#272525;" d="M272.402,1013.825h0.256c4.399,0,5.882-2.183,6.854-8.073l26.085-155.349
			c0.102-0.545,0.307-0.763,0.46-0.763h1.381c0.358,0,0.511,0.655,0.511,1.092c0,2.182,0.256,5.346,1.279,11.345l23.988,142.693
			c1.176,6.872,2.66,9.055,6.7,9.055h2.046v1.637h-19.947v-1.637h5.115c4.143,0,5.422-0.765,5.422-3.709
			c0-1.201-0.205-2.837-0.562-4.91l-7.11-42.109h-37.132l-7.314,43.311c-0.154,1.091-0.256,1.963-0.256,2.728
			c0,3.926,2.25,4.69,7.519,4.69h2.097v1.637h-17.39V1013.825z M324.52,960.915l-16.469-98.184c-0.92-5.454-1.023-6.764-1.074-7.309
			h-1.176l-17.697,105.492H324.52z"/>
		<path style="fill:#272525;" d="M357.257,849.641c0.205,0,0.358,0.327,0.41,0.546l45.52,155.675
			c0.357,1.308,0.768,1.963,1.074,1.963c0.357,0,0.613-0.981,0.613-2.837v-147.71c0-3.382-0.92-6-7.671-6h-2.046v-1.637h19.436
			v1.637h-1.023c-6.751,0-7.672,2.618-7.672,6v158.185h-1.074c-0.153,0-0.357-0.11-0.46-0.546l-47.72-163.093h-0.46
			c0.46,3.926,0.613,5.999,0.613,12.108v143.893c0,3.164,0.666,6.001,7.672,6.001h1.79v1.637h-20.203v-1.637h2.046
			c7.007,0,7.671-2.837,7.671-6.001V863.822c0-11.563-3.478-12.545-9.616-12.545h-0.613v-1.637H357.257z"/>
		<path style="fill:#272525;" d="M478.223,849.641v1.637h-7.263c-3.223,0-5.064,0.546-5.064,3.6c0,0.981,0.205,2.292,0.563,3.818
			l24.243,94.584l24.243-94.584c0.358-1.526,0.562-2.837,0.562-3.818c0-3.054-1.841-3.6-5.063-3.6h-7.263v-1.637h20.868v1.637
			h-1.842c-1.739,0-4.245,0.217-6.342,8.51l-24.551,95.674v52.363c0,3.164,0.665,6.001,7.672,6.001h1.79v1.637h-20.458v-1.637h2.046
			c7.007,0,7.672-2.837,7.672-6.001v-51.491l-0.204-0.872l-24.551-95.674c-2.097-8.293-4.604-8.51-6.343-8.51h-1.381v-1.637H478.223
			z"/>
		<path style="fill:#272525;" d="M524.104,932.551c0-48.437,13.759-83.455,32.734-83.455c18.975,0,32.733,35.019,32.733,83.455
			c0,48.438-13.759,83.456-32.733,83.456C537.862,1016.007,524.104,980.988,524.104,932.551z M588.293,932.551
			c0-47.128-13.196-81.273-31.455-81.273c-18.26,0-31.455,34.146-31.455,81.273c0,47.129,13.195,81.274,31.455,81.274
			C575.097,1013.825,588.293,979.68,588.293,932.551z"/>
		<path style="fill:#272525;" d="M614.584,849.641v1.637h-3.836c-7.007,0-7.672,2.835-7.672,6v105.274
			c0,29.563,9.513,51.273,23.271,51.273c14.168,0,24.551-21.273,24.551-51.273V857.277c0-3.165-0.665-6-7.672-6h-3.836v-1.637
			h21.226v1.637h-1.022c-7.008,0-7.673,2.835-7.673,6v105.274c0,31.2-10.894,53.455-25.573,53.455
			c-14.32,0-24.551-22.691-24.551-53.455V857.277c0-3.165-0.664-6-7.672-6h-2.046v-1.637H614.584z"/>
	</g>
</g>
<g id="Guides">
</g>
</svg>
