<?xml version="1.0" encoding="iso-8859-1"?>
<!-- Generator: Adobe Illustrator 15.1.0, SVG Export Plug-In . SVG Version: 6.00 Build 0)  -->
<!DOCTYPE svg PUBLIC "-//W3C//DTD SVG 1.1//EN" "http://www.w3.org/Graphics/SVG/1.1/DTD/svg11.dtd">
<svg version="1.1" xmlns="http://www.w3.org/2000/svg" xmlns:xlink="http://www.w3.org/1999/xlink" x="0px" y="0px" width="792px"
	 height="1224px" viewBox="0 0 792 1224" style="enable-background:new 0 0 792 1224;" xml:space="preserve">
<g id="Layer_1">
	<g>
		<path style="fill:#272525;" d="M152.879,207.535c5.864,0,11.359,2.022,16.481,6.067s9.607,9.558,13.46,16.536
			c3.852,6.981,6.895,15.108,9.127,24.387c2.232,9.279,3.349,19.234,3.349,29.859c0,10.628-1.116,20.58-3.349,29.859
			c-2.233,9.279-5.276,17.41-9.127,24.387c-3.854,6.982-8.339,12.491-13.46,16.536c-5.122,4.044-10.617,6.066-16.481,6.066h-8.274
			c-3.502,0-6.479-2.219-8.93-6.661c-2.452-4.439-3.677-9.833-3.677-16.179V230.613c0-6.501,1.225-11.974,3.677-16.416
			c2.45-4.439,5.427-6.662,8.93-6.662H152.879z M152.879,338.392c4.114,0,7.965-1.427,11.556-4.283
			c3.589-2.854,6.741-6.698,9.456-11.539c2.712-4.836,4.836-10.546,6.369-17.13c1.531-6.579,2.298-13.599,2.298-21.056
			c0-7.454-0.768-14.432-2.298-20.937c-1.533-6.501-3.657-12.212-6.369-17.13c-2.715-4.915-5.866-8.762-9.456-11.54
			c-3.591-2.772-7.442-4.164-11.556-4.164h-8.274v107.778H152.879z"/>
		<path style="fill:#272525;" d="M247.825,361.232c-6.129,0-11.908-2.008-17.335-6.016c-5.43-4.008-10.157-9.496-14.183-16.459
			c-4.028-6.959-7.202-15.132-9.521-24.519c-2.321-9.383-3.48-19.372-3.48-29.967c0-10.592,1.159-20.546,3.48-29.854
			c2.319-9.308,5.493-17.442,9.521-24.405c4.026-6.96,8.753-12.448,14.183-16.459c5.427-4.008,11.206-6.017,17.335-6.017
			c6.127,0,11.905,2.009,17.334,6.017c5.428,4.011,10.155,9.499,14.183,16.459c4.026,6.963,7.2,15.097,9.521,24.405
			c2.318,9.308,3.479,19.262,3.479,29.854c0,10.595-1.161,20.584-3.479,29.967c-2.321,9.387-5.496,17.56-9.521,24.519
			c-4.028,6.964-8.755,12.451-14.183,16.459C259.73,359.224,253.952,361.232,247.825,361.232z M247.825,229.33
			c-4.379,0-8.493,1.44-12.345,4.314c-3.854,2.877-7.223,6.811-10.112,11.805c-2.889,4.995-5.167,10.822-6.829,17.481
			c-1.664,6.661-2.495,13.774-2.495,21.341c0,7.569,0.831,14.721,2.495,21.454c1.662,6.736,3.94,12.6,6.829,17.595
			c2.89,4.994,6.259,8.931,10.112,11.805c3.852,2.877,7.965,4.314,12.345,4.314c4.376,0,8.491-1.437,12.344-4.314
			c3.852-2.874,7.223-6.811,10.112-11.805c2.889-4.995,5.165-10.858,6.829-17.595c1.662-6.732,2.495-13.884,2.495-21.454
			c0-7.567-0.833-14.68-2.495-21.341c-1.664-6.659-3.94-12.486-6.829-17.481c-2.89-4.995-6.261-8.928-10.112-11.805
			C256.316,230.77,252.202,229.33,247.825,229.33z"/>
		<path style="fill:#272525;" d="M351.964,230.298c0-6.189,1.225-11.452,3.677-15.787c2.45-4.331,5.427-6.5,8.929-6.5v22.288v67.092
			c0,8.821-0.832,17.103-2.494,24.84c-1.664,7.74-3.919,14.51-6.763,20.313c-2.846,5.803-6.195,10.371-10.046,13.697
			c-3.854,3.326-7.968,4.991-12.345,4.991c-4.379,0-8.493-1.665-12.345-4.991c-3.854-3.327-7.202-7.894-10.046-13.697
			c-2.846-5.804-5.101-12.573-6.763-20.313c-1.665-7.738-2.495-16.019-2.495-24.84v-67.092v-22.288c1.75,0,3.392,0.581,4.924,1.741
			c1.531,1.161,2.889,2.75,4.071,4.759c1.182,2.013,2.101,4.375,2.758,7.082c0.656,2.708,0.985,5.611,0.985,8.706v67.092
			c0,5.728,0.48,11.107,1.445,16.134c0.962,5.031,2.298,9.442,4.005,13.233c1.708,3.794,3.721,6.772,6.041,8.938
			c2.319,2.17,4.793,3.25,7.42,3.25s5.076-1.081,7.354-3.25c2.276-2.165,4.268-5.143,5.976-8.938
			c1.708-3.791,3.063-8.202,4.071-13.233c1.005-5.027,1.51-10.406,1.51-16.134L351.964,230.298z"/>
		<path style="fill:#272525;" d="M417.492,230.535c-4.202,0-8.164,1.434-11.885,4.294c-3.722,2.866-6.96,6.733-9.717,11.607
			c-2.758,4.875-4.948,10.603-6.566,17.179c-1.621,6.58-2.43,13.58-2.43,21.008c0,7.429,0.809,14.473,2.43,21.125
			c1.619,6.656,3.808,12.42,6.566,17.295c2.757,4.875,5.996,8.745,9.717,11.607c3.721,2.865,7.683,4.294,11.885,4.294
			c4.203,0,8.186-1.429,11.951-4.294c3.763-2.862,7.046-6.732,9.85-11.607c2.801-4.875,4.989-10.639,6.566-17.295
			c1.575-6.653,2.363-13.696,2.363-21.125v-1.857h-24.426h-12.608c0-6.188,1.226-11.451,3.678-15.786c2.45-4.33,5.428-6.5,8.931-6.5
			h24.426c3.501,0,6.478,2.169,8.93,6.5c2.45,4.335,3.678,9.598,3.678,15.786v1.857c0,10.526-1.14,20.429-3.415,29.715
			c-2.277,9.285-5.384,17.411-9.323,24.375c-3.94,6.964-8.536,12.46-13.789,16.482c-5.253,4.022-10.857,6.036-16.811,6.036
			c-5.954,0-11.557-2.013-16.81-6.036c-5.252-4.022-9.849-9.518-13.789-16.482c-3.94-6.964-7.048-15.09-9.324-24.375
			c-2.277-9.286-3.415-19.189-3.415-29.715c0-10.522,1.137-20.428,3.415-29.714c2.275-9.286,5.384-17.371,9.324-24.26
			c3.939-6.884,8.536-12.339,13.789-16.366c5.253-4.022,10.855-6.036,16.81-6.036h43.338c0,6.191-1.228,11.455-3.678,15.786
			c-2.452,4.335-5.429,6.5-8.93,6.5H417.492z"/>
		<path style="fill:#272525;" d="M508.761,338.154c3.5,0,6.478,2.223,8.929,6.662c2.451,4.442,3.678,9.837,3.678,16.179h-12.606
			h-25.215c-1.752,0-3.394-0.595-4.925-1.784c-1.532-1.189-2.889-2.814-4.07-4.878c-1.183-2.06-2.102-4.479-2.759-7.256
			c-0.656-2.773-0.984-5.747-0.984-8.922V230.852v-22.841c3.589,0,6.609,2.224,9.062,6.662c2.449,4.442,3.677,9.836,3.677,16.179
			v107.302H508.761z"/>
		<path style="fill:#272525;" d="M588.343,232.618c3.151,7.429,5.581,15.903,7.288,25.42c1.708,9.519,2.562,19.54,2.562,30.062
			l-0.132,50.143c0,6.348-1.248,11.725-3.742,16.135c-2.496,4.411-5.539,6.616-9.127,6.616v-22.751v-27.392h-45.045v50.143
			c-3.591,0-6.632-2.205-9.127-6.616s-3.743-9.787-3.743-16.135V288.1c0-10.522,0.831-20.543,2.495-30.062
			c1.662-9.517,4.071-17.991,7.223-25.42c3.415-8.045,7.31-14.161,11.688-18.339c4.377-4.179,9.062-6.269,14.052-6.269
			s9.673,2.09,14.052,6.269C581.162,218.458,585.014,224.573,588.343,232.618z M585.191,288.1c0-7.736-0.592-15.088-1.773-22.053
			c-1.182-6.964-2.803-13.036-4.858-18.223c-2.059-5.184-4.445-9.322-7.157-12.42c-2.716-3.094-5.604-4.642-8.668-4.642
			c-3.066,0-5.955,1.548-8.668,4.642c-2.715,3.098-5.101,7.237-7.157,12.42c-2.058,5.187-3.699,11.258-4.924,18.223
			c-1.228,6.965-1.839,14.317-1.839,22.053H585.191z"/>
		<path style="fill:#272525;" d="M634.305,230.852c-1.752,0-3.414,0.557-4.991,1.665c-1.575,1.111-2.954,2.58-4.136,4.401
			c-1.182,1.826-2.102,4.008-2.759,6.543c-0.656,2.54-0.984,5.235-0.984,8.089c0,2.855,0.328,5.513,0.984,7.971
			c0.657,2.461,1.577,4.64,2.759,6.543s2.561,3.372,4.136,4.401c1.577,1.034,3.239,1.547,4.991,1.547v0.238
			c3.414,0.16,6.587,1.428,9.521,3.807c2.933,2.379,5.516,5.554,7.749,9.517c2.232,3.966,3.982,8.606,5.253,13.918
			c1.268,5.316,1.904,10.985,1.904,17.012c0,6.186-0.657,11.978-1.97,17.368c-1.313,5.394-3.109,10.111-5.385,14.157
			c-2.278,4.044-4.947,7.219-8.011,9.517c-3.065,2.301-6.304,3.449-9.719,3.449h-12.213h-12.606c0-6.342,1.225-11.736,3.677-16.179
			c2.45-4.438,5.428-6.662,8.93-6.662h12.213c1.662,0,3.261-0.553,4.794-1.666c1.53-1.107,2.866-2.654,4.005-4.639
			c1.138-1.981,2.036-4.283,2.692-6.9c0.656-2.617,0.985-5.432,0.985-8.446c0-3.011-0.329-5.83-0.985-8.446
			c-0.656-2.618-1.555-4.878-2.692-6.781c-1.139-1.904-2.475-3.409-4.005-4.521c-1.533-1.107-3.132-1.665-4.794-1.665v-0.238
			c-3.413-0.156-6.632-1.387-9.651-3.688c-3.021-2.298-5.647-5.391-7.88-9.279c-2.233-3.884-4.005-8.446-5.318-13.68
			s-1.97-10.785-1.97-16.655c0-6.025,0.677-11.695,2.035-17.011c1.356-5.313,3.172-9.912,5.45-13.8
			c2.275-3.884,4.967-6.978,8.076-9.279c3.106-2.298,6.412-3.45,9.915-3.45h6.566h5.778h12.738c0,3.175-0.328,6.149-0.985,8.922
			c-0.656,2.777-1.575,5.198-2.758,7.257c-1.182,2.063-2.54,3.688-4.07,4.877c-1.533,1.189-3.175,1.785-4.925,1.785H634.305z"/>
	</g>
	<g>
		<path style="fill:#272525;" d="M183.652,492.919c3.187,0,5.898,2.115,8.13,6.338c2.231,4.227,3.348,9.359,3.348,15.393h-11.478
			H173.25c-5.739,0-11.102-1.885-16.082-5.659c-4.982-3.771-9.347-8.941-13.093-15.506c-3.748-6.565-6.696-14.297-8.848-23.203
			c-2.152-8.903-3.228-18.336-3.228-28.296c0-9.961,1.076-19.391,3.228-28.296c2.152-8.904,5.101-16.639,8.848-23.203
			c3.746-6.566,8.11-11.772,13.093-15.621c4.98-3.848,10.343-5.772,16.082-5.772h10.402h11.478c0,6.189-1.117,11.396-3.348,15.619
			c-2.232,4.227-4.943,6.339-8.13,6.339H173.25c-4.146,0-8.032,1.322-11.658,3.961c-3.628,2.642-6.776,6.302-9.446,10.979
			c-2.671,4.679-4.783,10.111-6.337,16.298c-1.554,6.189-2.332,12.755-2.332,19.695c0,7.096,0.777,13.734,2.332,19.919
			c1.554,6.19,3.666,11.584,6.337,16.186c2.67,4.605,5.818,8.228,9.446,10.866c3.626,2.642,7.512,3.961,11.658,3.961H183.652z"/>
		<path style="fill:#272525;" d="M228.011,514.65c-5.581,0-10.842-1.907-15.783-5.715c-4.943-3.808-9.248-9.021-12.913-15.636
			c-3.667-6.612-6.558-14.376-8.668-23.293c-2.113-8.913-3.169-18.403-3.169-28.468c0-10.062,1.056-19.519,3.169-28.361
			c2.111-8.843,5.001-16.569,8.668-23.184c3.666-6.612,7.97-11.825,12.913-15.637c4.941-3.807,10.203-5.715,15.783-5.715
			c5.578,0,10.839,1.908,15.783,5.715c4.942,3.812,9.246,9.025,12.914,15.637c3.666,6.615,6.556,14.341,8.669,23.184
			c2.111,8.842,3.168,18.299,3.168,28.361c0,10.065-1.057,19.555-3.168,28.468c-2.113,8.917-5.003,16.681-8.669,23.293
			c-3.667,6.615-7.972,11.828-12.914,15.636C238.851,512.744,233.589,514.65,228.011,514.65z M228.011,389.346
			c-3.987,0-7.733,1.368-11.239,4.098c-3.509,2.733-6.576,6.469-9.207,11.214c-2.63,4.746-4.704,10.282-6.217,16.607
			c-1.516,6.328-2.272,13.086-2.272,20.273c0,7.191,0.756,13.985,2.272,20.381c1.513,6.399,3.587,11.97,6.217,16.714
			c2.631,4.745,5.698,8.485,9.207,11.214c3.506,2.733,7.252,4.098,11.239,4.098c3.985,0,7.731-1.365,11.239-4.098
			c3.507-2.729,6.576-6.469,9.207-11.214c2.63-4.745,4.702-10.315,6.217-16.714c1.513-6.396,2.272-13.189,2.272-20.381
			c0-7.188-0.759-13.945-2.272-20.273c-1.515-6.325-3.587-11.861-6.217-16.607c-2.631-4.745-5.7-8.481-9.207-11.214
			C235.742,390.714,231.996,389.346,228.011,389.346z"/>
		<path style="fill:#272525;" d="M322.828,390.267c0-5.879,1.116-10.879,3.348-14.997c2.23-4.114,4.941-6.175,8.13-6.175v21.172
			v63.735c0,8.381-0.758,16.248-2.271,23.599c-1.515,7.353-3.568,13.783-6.158,19.297c-2.592,5.514-5.641,9.852-9.147,13.012
			c-3.508,3.16-7.254,4.741-11.239,4.741c-3.987,0-7.732-1.581-11.239-4.741c-3.509-3.161-6.558-7.499-9.147-13.012
			c-2.591-5.514-4.645-11.944-6.158-19.297c-1.515-7.351-2.272-15.218-2.272-23.599v-63.735v-21.172
			c1.594,0,3.088,0.551,4.484,1.653c1.394,1.103,2.63,2.613,3.707,4.521c1.076,1.913,1.913,4.156,2.511,6.727
			c0.598,2.573,0.897,5.33,0.897,8.27v63.735c0,5.442,0.438,10.552,1.315,15.328c0.876,4.779,2.093,8.969,3.646,12.571
			c1.555,3.604,3.388,6.434,5.5,8.49c2.111,2.061,4.364,3.088,6.756,3.088s4.622-1.027,6.696-3.088
			c2.072-2.057,3.886-4.886,5.44-8.49c1.555-3.602,2.789-7.792,3.707-12.571c0.916-4.776,1.375-9.886,1.375-15.328L322.828,390.267z
			"/>
		<path style="fill:#272525;" d="M372.446,368.863c3.587,0,6.953,1.252,10.104,3.755c3.148,2.506,5.918,5.964,8.31,10.382
			c2.392,4.417,4.264,9.536,5.62,15.352c1.355,5.819,2.033,12.038,2.033,18.666c0,6.626-0.678,12.887-2.033,18.775
			c-1.356,5.891-3.228,11.01-5.62,15.352c-2.391,4.345-5.162,7.77-8.31,10.271c-3.15,2.506-6.517,3.755-10.104,3.755
			c-5.581,0-10.443-2.723-14.588-8.173v36.447c0,5.891-1.117,10.899-3.347,15.021c-2.233,4.124-4.944,6.185-8.131,6.185v-21.205
			v-76.428c0-6.627,0.676-12.846,2.033-18.666c1.354-5.816,3.208-10.934,5.56-15.352c2.351-4.418,5.121-7.876,8.311-10.382
			C365.47,370.115,368.859,368.863,372.446,368.863z M372.446,443.965c1.991,0,3.886-0.697,5.68-2.097
			c1.793-1.399,3.347-3.313,4.663-5.744c1.315-2.43,2.35-5.264,3.109-8.504c0.757-3.237,1.136-6.771,1.136-10.602
			c0-3.68-0.379-7.142-1.136-10.382c-0.759-3.237-1.793-6.075-3.109-8.504c-1.315-2.43-2.869-4.342-4.663-5.743
			c-1.794-1.398-3.688-2.099-5.68-2.099c-2.074,0-3.987,0.701-5.739,2.099c-1.755,1.401-3.288,3.313-4.604,5.743
			c-1.314,2.429-2.352,5.267-3.108,8.504c-0.759,3.241-1.137,6.703-1.137,10.382v0.221c0,3.682,0.377,7.145,1.137,10.381
			c0.756,3.241,1.793,6.075,3.108,8.504c1.316,2.431,2.849,4.345,4.604,5.744C368.459,443.269,370.373,443.965,372.446,443.965z"/>
		<path style="fill:#272525;" d="M441.436,492.919c3.187,0,5.897,2.115,8.13,6.338c2.23,4.227,3.348,9.359,3.348,15.393h-11.478
			h-22.958c-1.595,0-3.09-0.566-4.483-1.697c-1.396-1.132-2.631-2.678-3.706-4.641c-1.077-1.959-1.914-4.262-2.512-6.904
			c-0.598-2.639-0.896-5.468-0.896-8.489V390.827v-21.732c3.268,0,6.018,2.115,8.25,6.338c2.23,4.227,3.348,9.359,3.348,15.394
			v102.092H441.436z"/>
		<path style="fill:#272525;" d="M513.893,392.127c2.869,7.091,5.082,15.178,6.637,24.262c1.555,9.083,2.331,18.649,2.331,28.691
			l-0.12,47.857c0,6.059-1.136,11.189-3.407,15.399s-5.042,6.314-8.31,6.314v-21.713v-26.144h-41.012v47.856
			c-3.27,0-6.038-2.104-8.31-6.314c-2.272-4.209-3.408-9.34-3.408-15.399V445.08c0-10.042,0.757-19.608,2.271-28.691
			c1.513-9.084,3.707-17.171,6.576-24.262c3.109-7.678,6.655-13.515,10.642-17.503c3.985-3.988,8.25-5.982,12.794-5.982
			s8.808,1.995,12.794,5.982C507.355,378.612,510.862,384.449,513.893,392.127z M511.023,445.08c0-7.383-0.538-14.401-1.614-21.048
			c-1.076-6.647-2.552-12.442-4.424-17.393c-1.874-4.946-4.047-8.896-6.517-11.854c-2.472-2.953-5.103-4.431-7.892-4.431
			c-2.791,0-5.422,1.478-7.892,4.431c-2.472,2.957-4.645,6.907-6.517,11.854c-1.874,4.951-3.368,10.746-4.483,17.393
			c-1.117,6.646-1.674,13.665-1.674,21.048H511.023z"/>
		<path style="fill:#272525;" d="M533.499,429.61c0-8.395,0.757-16.271,2.271-23.637c1.514-7.362,3.567-13.806,6.158-19.328
			c2.59-5.522,5.62-9.865,9.087-13.033c3.468-3.165,7.193-4.749,11.18-4.749c3.985,0,7.712,1.584,11.181,4.749
			c3.467,3.168,6.516,7.511,9.146,13.033c2.63,5.522,4.702,11.966,6.217,19.328c1.514,7.366,2.272,15.242,2.272,23.637l0.119,64.06
			v21.207c-3.189,0-5.899-2.06-8.131-6.185c-2.232-4.122-3.389-9.129-3.467-15.021l-0.12-64.06c0-5.446-0.459-10.566-1.375-15.353
			c-0.917-4.784-2.152-8.946-3.707-12.481c-1.554-3.534-3.368-6.33-5.439-8.394c-2.073-2.06-4.305-3.093-6.696-3.093
			c-2.391,0-4.623,1.033-6.695,3.093c-2.074,2.064-3.887,4.86-5.44,8.394c-1.555,3.535-2.791,7.697-3.707,12.481
			c-0.917,4.787-1.374,9.907-1.374,15.353v64.06c0,5.893-1.118,10.9-3.349,15.021c-2.232,4.125-4.943,6.185-8.131,6.185V493.67
			V429.61z"/>
		<path style="fill:#272525;" d="M621.38,368.642c5.34,0,10.343,1.924,15.006,5.773c4.663,3.848,8.747,9.093,12.255,15.732
			c3.507,6.642,6.277,14.375,8.311,23.203c2.033,8.829,3.049,18.301,3.049,28.41c0,10.112-1.016,19.58-3.049,28.409
			c-2.033,8.828-4.804,16.564-8.311,23.203c-3.508,6.643-7.592,11.885-12.255,15.733c-4.663,3.848-9.666,5.772-15.006,5.772h-7.532
			c-3.189,0-5.901-2.111-8.131-6.338c-2.232-4.224-3.349-9.355-3.349-15.394V390.6c0-6.187,1.116-11.393,3.349-15.619
			c2.229-4.224,4.941-6.339,8.131-6.339H621.38z M621.38,493.145c3.745,0,7.252-1.358,10.521-4.075
			c3.269-2.716,6.138-6.373,8.608-10.979c2.471-4.602,4.404-10.035,5.8-16.298c1.394-6.261,2.093-12.939,2.093-20.034
			c0-7.092-0.699-13.731-2.093-19.921c-1.396-6.186-3.329-11.619-5.8-16.298c-2.471-4.677-5.34-8.337-8.608-10.98
			c-3.27-2.638-6.776-3.961-10.521-3.961h-7.532v102.545H621.38z"/>
	</g>
	<g>
		<path style="fill:#272525;" d="M260.665,545.547c0-6.377,1.557-11.801,4.673-16.267c3.113-4.463,6.952-6.698,11.515-6.698v22.965
			v77.267c0,7.976-1.059,15.47-3.171,22.484c-2.115,7.02-5.006,13.12-8.678,18.3c-3.671,5.185-7.955,9.293-12.85,12.321
			c-4.896,3.027-10.07,4.544-15.52,4.544c-6.675,0-12.795-2.074-18.357-6.219c-5.564-4.146-10.18-9.809-13.851-16.985
			c-3.672,7.177-8.29,12.839-13.852,16.985c-5.564,4.145-11.682,6.219-18.357,6.219c-5.564,0-10.764-1.517-15.604-4.544
			c-4.84-3.028-9.069-7.137-12.683-12.321c-3.617-5.18-6.482-11.28-8.595-18.3c-2.115-7.015-3.17-14.509-3.17-22.484l-0.167-77.267
			v-22.965c2.224,0,4.31,0.598,6.258,1.794c1.945,1.196,3.671,2.834,5.173,4.904c1.502,2.075,2.67,4.508,3.504,7.296
			c0.834,2.792,1.252,5.782,1.252,8.971v77.267c0,4.783,0.639,9.29,1.919,13.514c1.278,4.228,3.004,7.896,5.173,11.005
			c2.17,3.108,4.699,5.543,7.594,7.295c2.892,1.758,6.007,2.632,9.345,2.632c3.337,0,6.479-0.874,9.429-2.632
			c2.947-1.752,5.507-4.187,7.677-7.295c2.169-3.109,3.893-6.777,5.173-11.005c1.277-4.224,1.919-8.73,1.919-13.514v-22.726v-23.205
			c2.225,0,4.311,0.597,6.258,1.793c1.945,1.196,3.643,2.872,5.09,5.024c1.445,2.152,2.586,4.627,3.421,7.416
			c0.834,2.792,1.251,5.782,1.251,8.971v22.726c0,4.783,0.639,9.29,1.919,13.514c1.278,4.228,3.004,7.896,5.173,11.005
			c2.169,3.108,4.728,5.543,7.677,7.295c2.947,1.758,6.091,2.632,9.429,2.632c3.337,0,6.452-0.874,9.346-2.632
			c2.892-1.752,5.424-4.187,7.593-7.295c2.17-3.109,3.894-6.777,5.173-11.005c1.278-4.224,1.919-8.73,1.919-13.514V545.547z"/>
		<path style="fill:#272525;" d="M347.776,680.624c-7.789,0-15.132-2.063-22.029-6.183c-6.9-4.121-12.907-9.762-18.023-16.918
			c-5.119-7.154-9.152-15.557-12.099-25.203c-2.949-9.646-4.422-19.912-4.422-30.803c0-10.889,1.473-21.119,4.422-30.687
			c2.947-9.567,6.98-17.929,12.099-25.084c5.116-7.154,11.123-12.795,18.023-16.918c6.897-4.121,14.24-6.185,22.029-6.185
			c7.786,0,15.129,2.064,22.028,6.185c6.897,4.124,12.905,9.764,18.023,16.918c5.116,7.156,9.15,15.518,12.1,25.084
			c2.946,9.568,4.422,19.798,4.422,30.687c0,10.892-1.476,21.158-4.422,30.803c-2.95,9.646-6.984,18.049-12.1,25.203
			c-5.119,7.156-11.126,12.797-18.023,16.918C362.905,678.561,355.562,680.624,347.776,680.624z M347.776,545.044
			c-5.565,0-10.793,1.481-15.687,4.434c-4.897,2.958-9.179,7.001-12.85,12.134c-3.671,5.134-6.566,11.126-8.678,17.969
			c-2.115,6.849-3.171,14.159-3.171,21.936c0,7.78,1.056,15.131,3.171,22.052c2.112,6.925,5.006,12.951,8.678,18.085
			c3.671,5.133,7.953,9.181,12.85,12.134c4.894,2.958,10.122,4.435,15.687,4.435c5.562,0,10.79-1.477,15.687-4.435
			c4.895-2.953,9.179-7.001,12.851-12.134c3.671-5.134,6.562-11.16,8.677-18.085c2.112-6.921,3.171-14.272,3.171-22.052
			c0-7.777-1.059-15.087-3.171-21.936c-2.115-6.843-5.006-12.835-8.677-17.969c-3.672-5.133-7.956-9.176-12.851-12.134
			C358.566,546.525,353.338,545.044,347.776,545.044z"/>
		<path style="fill:#272525;" d="M476.608,657.426l11.348,16.258c-1.559,2.233-3.338,3.908-5.339,5.021
			c-2.004,1.115-4.035,1.673-6.094,1.673c-2.06,0-4.061-0.558-6.006-1.673c-1.949-1.113-3.7-2.788-5.259-5.021l-34.211-49.01v32.752
			c0,6.377-1.558,11.798-4.672,16.258c-3.115,4.464-6.899,6.694-11.348,6.694v-22.952V576.38v-1.435
			c0-7.172,0.944-13.903,2.837-20.201c1.891-6.295,4.507-11.834,7.844-16.616c3.338-4.782,7.201-8.525,11.598-11.236
			c4.394-2.709,9.096-4.065,14.103-4.065c5.006,0,9.734,1.356,14.185,4.065c4.448,2.711,8.344,6.454,11.682,11.236
			c3.338,4.781,5.95,10.321,7.845,16.616c1.891,6.298,2.836,13.029,2.836,20.201c0,6.694-0.835,13.071-2.504,19.125
			c-1.669,6.06-3.979,11.398-6.925,16.02c-2.949,4.624-6.399,8.407-10.348,11.356c-3.95,2.95-8.205,4.744-12.766,5.38
			L476.608,657.426z M431.048,574.946c0,4.146,0.528,7.972,1.587,11.475c1.056,3.509,2.503,6.576,4.339,9.206
			c1.836,2.629,4.005,4.702,6.508,6.215c2.504,1.517,5.146,2.272,7.928,2.272c2.778,0,5.423-0.755,7.927-2.272
			c2.503-1.514,4.697-3.586,6.593-6.215c1.891-2.63,3.363-5.739,4.422-9.325c1.056-3.585,1.584-7.369,1.584-11.355
			c0-3.982-0.528-7.77-1.584-11.355c-1.059-3.585-2.531-6.694-4.422-9.324c-1.896-2.63-4.09-4.699-6.593-6.216
			c-2.504-1.513-5.148-2.271-7.927-2.271c-2.782,0-5.424,0.758-7.928,2.271c-2.503,1.517-4.672,3.586-6.508,6.216
			c-1.836,2.629-3.283,5.738-4.339,9.324C431.576,567.176,431.048,570.964,431.048,574.946z"/>
		<path style="fill:#272525;" d="M583.246,657.064v23.56c-4.451,0-8.177-2.29-11.181-6.872c-3.004-4.578-4.618-10.142-4.84-16.688
			l-0.167-0.736c-0.224-8.669-0.809-15.951-1.752-21.841c-0.946-5.891-2.587-10.798-4.923-14.725
			c-5.23-8.835-14.297-13.497-27.202-13.987h-2.504H518.83v51.289c0,6.546-1.561,12.109-4.673,16.688
			c-3.116,4.582-6.9,6.872-11.349,6.872v-23.56V546.387v-23.559c4.448,0,8.232,2.293,11.349,6.87
			c3.112,4.583,4.673,10.147,4.673,16.688v36.319h11.848h2.504c7.23-0.162,12.959-1.35,17.188-3.558
			c4.227-2.208,7.398-4.988,9.513-8.343c2.111-3.352,3.447-7.118,4.006-11.29c0.555-4.171,0.834-8.382,0.834-12.638v-0.491
			c0-3.271,0.417-6.338,1.252-9.203c0.834-2.861,1.973-5.357,3.42-7.486c1.445-2.123,3.143-3.803,5.09-5.03
			c1.946-1.227,4.032-1.84,6.259-1.84v23.559v0.491c0,21.925-5.286,37.792-15.854,47.608c6.23,5.889,10.708,13.95,13.435,24.173
			c2.725,10.226,4.365,22.783,4.923,37.669V657.064z"/>
		<path style="fill:#272525;" d="M627.303,546.142c-2.227,0-4.338,0.575-6.342,1.717c-2.002,1.146-3.755,2.661-5.256,4.54
			c-1.502,1.883-2.671,4.134-3.506,6.749c-0.834,2.62-1.251,5.399-1.251,8.344c0,2.944,0.417,5.686,1.251,8.222
			c0.835,2.537,2.004,4.785,3.506,6.748c1.501,1.962,3.254,3.477,5.256,4.54c2.004,1.065,4.115,1.596,6.342,1.596v0.244
			c4.34,0.165,8.37,1.474,12.099,3.927c3.727,2.455,7.009,5.729,9.847,9.816c2.837,4.092,5.062,8.877,6.676,14.355
			c1.611,5.483,2.42,11.331,2.42,17.548c0,6.38-0.835,12.355-2.504,17.915c-1.669,5.562-3.95,10.43-6.843,14.602
			c-2.894,4.171-6.286,7.447-10.179,9.816c-3.896,2.372-8.011,3.558-12.35,3.558h-15.521h-16.021c0-6.541,1.557-12.106,4.673-16.688
			c3.113-4.578,6.897-6.872,11.348-6.872h15.521c2.111,0,4.144-0.57,6.092-1.717c1.944-1.144,3.642-2.738,5.089-4.785
			c1.444-2.044,2.587-4.418,3.421-7.117c0.835-2.699,1.252-5.603,1.252-8.712c0-3.105-0.417-6.012-1.252-8.713
			c-0.834-2.699-1.977-5.03-3.421-6.994c-1.447-1.962-3.145-3.515-5.089-4.662c-1.948-1.142-3.98-1.717-6.092-1.717v-0.246
			c-4.339-0.161-8.428-1.43-12.266-3.804c-3.839-2.369-7.176-5.56-10.013-9.57c-2.838-4.006-5.091-8.712-6.759-14.11
			c-1.669-5.399-2.504-11.124-2.504-17.178c0-6.216,0.86-12.063,2.587-17.547c1.724-5.479,4.031-10.223,6.926-14.232
			c2.892-4.007,6.312-7.198,10.263-9.571c3.948-2.371,8.148-3.559,12.6-3.559h8.344h7.344h16.188c0,3.275-0.417,6.343-1.252,9.203
			c-0.834,2.864-2.002,5.361-3.505,7.485c-1.501,2.129-3.228,3.804-5.173,5.031c-1.947,1.227-4.033,1.841-6.258,1.841H627.303z"/>
	</g>
	<g>
		<path style="fill:#272525;" d="M212.401,817.7v22.662c-4.458,0-8.249-2.202-11.367-6.609c-3.121-4.403-4.681-9.757-4.681-16.053
			v-49.336h-48.308V817.7c0,6.296-1.562,11.649-4.681,16.053c-3.121,4.407-6.911,6.609-11.367,6.609V817.7V711.238v-22.663
			c4.456,0,8.246,2.205,11.367,6.61c3.119,4.407,4.681,9.759,4.681,16.053v34.229h48.308v-34.229c0-6.294,1.56-11.646,4.681-16.053
			c3.118-4.405,6.908-6.61,11.367-6.61v22.663V817.7z"/>
		<path style="fill:#272525;" d="M305.506,713.146c4.012,7.361,7.104,15.758,9.277,25.188c2.173,9.434,3.259,19.364,3.259,29.793
			l-0.167,49.689c0,6.29-1.588,11.618-4.764,15.988c-3.176,4.372-7.05,6.557-11.618,6.557v-22.545v-27.146H244.16v49.69
			c-4.57,0-8.441-2.185-11.617-6.557c-3.176-4.37-4.764-9.698-4.764-15.988v-49.689c0-10.429,1.058-20.359,3.176-29.793
			c2.115-9.431,5.182-17.827,9.193-25.188c4.346-7.973,9.303-14.033,14.877-18.174c5.571-4.142,11.534-6.211,17.886-6.211
			s12.312,2.069,17.885,6.211C296.367,699.113,301.269,705.174,305.506,713.146z M301.494,768.128
			c0-7.668-0.752-14.954-2.257-21.854c-1.504-6.901-3.568-12.918-6.185-18.059c-2.62-5.139-5.657-9.238-9.11-12.309
			c-3.455-3.065-7.133-4.601-11.032-4.601c-3.902,0-7.58,1.535-11.032,4.601c-3.456,3.07-6.493,7.17-9.11,12.309
			c-2.62,5.141-4.709,11.157-6.269,18.059c-1.562,6.9-2.34,14.187-2.34,21.854H301.494z"/>
		<path style="fill:#272525;" d="M393.763,818.182l11.366,15.711c-1.562,2.159-3.343,3.777-5.349,4.854
			c-2.006,1.078-4.04,1.616-6.102,1.616c-2.063,0-4.069-0.538-6.018-1.616c-1.951-1.076-3.706-2.694-5.265-4.854l-34.267-47.364
			v31.653c0,6.163-1.562,11.401-4.68,15.711c-3.121,4.314-6.911,6.47-11.367,6.47v-22.181v-78.324v-1.387
			c0-6.932,0.946-13.436,2.842-19.523c1.894-6.082,4.513-11.437,7.856-16.058c3.343-4.62,7.214-8.238,11.617-10.858
			c4.4-2.617,9.11-3.928,14.125-3.928c5.015,0,9.75,1.311,14.208,3.928c4.456,2.62,8.358,6.238,11.701,10.858
			c3.343,4.621,5.96,9.976,7.856,16.058c1.894,6.088,2.842,12.592,2.842,19.523c0,6.469-0.835,12.632-2.507,18.483
			c-1.672,5.855-3.985,11.016-6.937,15.481c-2.954,4.469-6.409,8.126-10.364,10.975c-3.957,2.853-8.219,4.585-12.787,5.199
			L393.763,818.182z M348.129,738.471c0,4.007,0.528,7.704,1.588,11.09c1.058,3.391,2.507,6.355,4.346,8.896
			c1.839,2.541,4.012,4.545,6.52,6.007c2.507,1.466,5.153,2.196,7.94,2.196c2.784,0,5.432-0.73,7.939-2.196
			c2.507-1.462,4.707-3.466,6.603-6.007c1.894-2.541,3.369-5.546,4.43-9.012c1.058-3.466,1.588-7.122,1.588-10.975
			c0-3.848-0.53-7.509-1.588-10.976c-1.061-3.465-2.536-6.467-4.43-9.01c-1.896-2.541-4.095-4.541-6.603-6.007
			c-2.507-1.463-5.155-2.195-7.939-2.195c-2.787,0-5.433,0.732-7.94,2.195c-2.507,1.466-4.681,3.466-6.52,6.007
			c-1.838,2.543-3.288,5.545-4.346,9.01C348.657,730.962,348.129,734.623,348.129,738.471z"/>
		<path style="fill:#272525;" d="M446.415,688.104c7.466,0,14.458,2.007,20.978,6.02c6.521,4.014,12.229,9.482,17.133,16.406
			c4.904,6.926,8.776,14.99,11.618,24.196c2.843,9.206,4.262,19.084,4.262,29.626c0,10.545-1.419,20.419-4.262,29.625
			c-2.842,9.206-6.714,17.273-11.618,24.196c-4.903,6.927-10.612,12.394-17.133,16.406c-6.52,4.014-13.512,6.021-20.978,6.021
			h-10.53c-4.459,0-8.249-2.203-11.367-6.61c-3.121-4.405-4.681-9.756-4.681-16.053V711.001c0-6.45,1.56-11.88,4.681-16.287
			c3.118-4.405,6.908-6.61,11.367-6.61H446.415z M446.415,817.937c5.236,0,10.138-1.417,14.709-4.249
			c4.568-2.832,8.579-6.647,12.036-11.448c3.452-4.799,6.155-10.464,8.107-16.997c1.948-6.529,2.925-13.493,2.925-20.891
			c0-7.396-0.977-14.318-2.925-20.773c-1.952-6.452-4.655-12.116-8.107-16.996c-3.457-4.877-7.468-8.694-12.036-11.449
			c-4.571-2.752-9.473-4.132-14.709-4.132h-10.53v106.936H446.415z"/>
		<path style="fill:#272525;" d="M563.086,817.7c4.456,0,8.245,2.207,11.366,6.61c3.119,4.407,4.681,9.76,4.681,16.052h-16.047
			h-32.261c-4.458,0-8.249-2.202-11.366-6.609c-3.121-4.403-4.681-9.757-4.681-16.053V711.238c0-6.452,1.56-11.882,4.681-16.29
			c3.117-4.402,6.908-6.607,11.366-6.607h32.261h16.047c0,6.454-1.562,11.882-4.681,16.287c-3.121,4.407-6.91,6.61-11.366,6.61
			h-32.261v36.117h16.214c4.455,0,8.246,2.205,11.367,6.608c3.117,4.407,4.68,9.838,4.68,16.289h-16.047h-16.214V817.7H563.086z"/>
		<path style="fill:#272525;" d="M648.5,818.216l11.367,15.688c-1.562,2.154-3.343,3.771-5.349,4.845
			c-2.007,1.076-4.041,1.614-6.102,1.614c-2.063,0-4.069-0.538-6.018-1.614c-1.951-1.074-3.706-2.69-5.266-4.845l-34.268-47.291
			v31.604c0,6.153-1.562,11.384-4.681,15.688c-3.121,4.307-6.91,6.459-11.365,6.459v-22.146v-78.201v-1.387
			c0-6.92,0.944-13.414,2.842-19.491c1.894-6.074,4.513-11.42,7.855-16.033c3.344-4.613,7.215-8.226,11.617-10.842
			c4.401-2.613,9.11-3.921,14.125-3.921s9.75,1.308,14.208,3.921c4.456,2.616,8.357,6.229,11.701,10.842
			c3.343,4.613,5.96,9.959,7.856,16.033c1.894,6.077,2.842,12.571,2.842,19.491c0,6.46-0.836,12.614-2.508,18.456
			c-1.671,5.847-3.986,10.998-6.938,15.458c-2.953,4.461-6.408,8.112-10.363,10.957c-3.957,2.848-8.22,4.577-12.787,5.189
			L648.5,818.216z M602.866,738.628c0,4.002,0.528,7.693,1.588,11.074c1.058,3.385,2.508,6.345,4.347,8.882s4.012,4.537,6.519,5.998
			c2.508,1.464,5.154,2.192,7.94,2.192c2.784,0,5.433-0.729,7.939-2.192c2.508-1.461,4.707-3.461,6.604-5.998
			c1.894-2.537,3.369-5.538,4.43-8.997c1.058-3.461,1.587-7.111,1.587-10.959c0-3.841-0.529-7.496-1.587-10.957
			c-1.061-3.461-2.536-6.457-4.43-8.996c-1.896-2.538-4.096-4.534-6.604-5.998c-2.507-1.459-5.155-2.191-7.939-2.191
			c-2.786,0-5.433,0.732-7.94,2.191c-2.507,1.464-4.68,3.46-6.519,5.998c-1.839,2.539-3.289,5.535-4.347,8.996
			C603.395,731.132,602.866,734.787,602.866,738.628z"/>
	</g>
	<g>
		<path style="fill:#272525;" d="M191.075,848.91c0,7.068-1.145,13.013-3.432,17.836c-2.289,4.826-5.107,7.238-8.457,7.238H167.42
			v116.583c0,6.896-1.146,12.758-3.432,17.58c-2.289,4.826-5.067,7.237-8.334,7.237v-24.817V873.984h-11.889
			c-3.269,0-6.048-2.412-8.334-7.238c-2.289-4.823-3.432-10.768-3.432-17.836h11.766h35.421H191.075z"/>
		<path style="fill:#272525;" d="M256.891,990.567v24.817c-3.269,0-6.048-2.411-8.334-7.237c-2.289-4.822-3.432-10.685-3.432-17.58
			v-54.025h-35.421v54.025c0,6.896-1.146,12.758-3.432,17.58c-2.289,4.826-5.067,7.237-8.335,7.237v-24.817V873.984v-24.816
			c3.268,0,6.046,2.414,8.335,7.237c2.286,4.828,3.432,10.688,3.432,17.579v37.483h35.421v-37.483
			c0-6.892,1.143-12.751,3.432-17.579c2.287-4.823,5.065-7.237,8.334-7.237v24.816V990.567z"/>
		<path style="fill:#272525;" d="M325.159,875.557c2.941,8.091,5.209,17.321,6.802,27.688s2.39,21.283,2.39,32.745l-0.123,54.616
			c0,6.914-1.165,12.769-3.493,17.571c-2.329,4.807-5.169,7.208-8.519,7.208v-24.779v-29.839h-42.04v54.618
			c-3.351,0-6.189-2.401-8.519-7.208c-2.329-4.803-3.493-10.657-3.493-17.571v-54.616c0-11.462,0.775-22.379,2.329-32.745
			c1.551-10.366,3.799-19.597,6.741-27.688c3.187-8.764,6.821-15.424,10.908-19.975c4.085-4.553,8.457-6.827,13.114-6.827
			s9.028,2.274,13.114,6.827C318.458,860.133,322.053,866.793,325.159,875.557z M322.217,935.989c0-8.429-0.551-16.435-1.654-24.021
			c-1.103-7.585-2.616-14.199-4.535-19.85c-1.921-5.646-4.148-10.153-6.68-13.528c-2.534-3.37-5.23-5.057-8.089-5.057
			c-2.861,0-5.558,1.687-8.089,5.057c-2.534,3.375-4.761,7.882-6.68,13.528c-1.921,5.65-3.453,12.265-4.596,19.85
			c-1.145,7.587-1.716,15.593-1.716,24.021H322.217z"/>
		<path style="fill:#272525;" d="M345.257,918.324c0-9.58,0.776-18.569,2.329-26.976c1.551-8.402,3.656-15.758,6.313-22.061
			c2.654-6.304,5.76-11.26,9.313-14.877c3.556-3.61,7.373-5.42,11.46-5.42c4.085,0,7.906,1.81,11.46,5.42
			c3.554,3.617,6.681,8.573,9.376,14.877c2.697,6.303,4.822,13.658,6.375,22.061c1.551,8.406,2.328,17.396,2.328,26.976
			l0.123,73.115v24.205c-3.271,0-6.049-2.353-8.335-7.06c-2.289-4.704-3.473-10.42-3.554-17.146l-0.123-73.115
			c0-6.215-0.471-12.057-1.409-17.521c-0.94-5.461-2.206-10.212-3.8-14.245c-1.593-4.034-3.452-7.226-5.576-9.58
			c-2.125-2.352-4.413-3.53-6.864-3.53s-4.74,1.179-6.864,3.53c-2.125,2.354-3.983,5.546-5.576,9.58
			c-1.593,4.033-2.862,8.784-3.8,14.245c-0.94,5.465-1.409,11.307-1.409,17.521v73.115c0,6.726-1.146,12.441-3.432,17.146
			c-2.288,4.707-5.068,7.06-8.335,7.06v-24.205V918.324z"/>
		<path style="fill:#272525;" d="M502.384,901.128c0,6.895-0.593,13.4-1.777,19.517c-1.185,6.119-2.839,11.633-4.963,16.543
			c-2.126,4.91-4.638,9.049-7.538,12.408c-2.901,3.361-6.067,5.646-9.499,6.85v34.122c0,6.896-1.146,12.758-3.433,17.58
			c-2.288,4.826-5.066,7.237-8.334,7.237v-24.817v-34.379c-3.351-1.379-6.435-3.75-9.253-7.109
			c-2.819-3.36-5.271-7.451-7.354-12.277c-2.084-4.823-3.72-10.297-4.902-16.416c-1.187-6.116-1.778-12.539-1.778-19.258v-27.144
			v-24.816c3.267,0,6.046,2.414,8.334,7.237c2.287,4.828,3.433,10.688,3.433,17.579v27.144c0,4.31,0.448,8.401,1.349,12.277
			c0.896,3.878,2.145,7.239,3.737,10.082s3.473,5.085,5.639,6.721c2.164,1.64,4.474,2.456,6.925,2.456s4.759-0.816,6.925-2.456
			c2.164-1.636,4.045-3.878,5.638-6.721s2.838-6.204,3.738-10.082c0.898-3.876,1.348-7.968,1.348-12.277v-27.144
			c0-6.892,1.145-12.751,3.434-17.579c2.285-4.823,5.065-7.237,8.333-7.237v24.816V901.128z"/>
		<path style="fill:#272525;" d="M551.042,1015.385c-5.72,0-11.112-2.176-16.178-6.522c-5.069-4.346-9.479-10.295-13.238-17.844
			c-3.759-7.546-6.722-16.408-8.886-26.583c-2.166-10.171-3.248-21.002-3.248-32.488c0-11.484,1.082-22.275,3.248-32.367
			c2.164-10.09,5.127-18.908,8.886-26.459c3.759-7.543,8.169-13.494,13.238-17.843c5.065-4.348,10.458-6.523,16.178-6.523
			c5.718,0,11.112,2.176,16.179,6.523c5.065,4.349,9.479,10.3,13.236,17.843c3.759,7.551,6.721,16.369,8.886,26.459
			c2.164,10.092,3.248,20.883,3.248,32.367c0,11.486-1.084,22.317-3.248,32.488c-2.165,10.175-5.127,19.037-8.886,26.583
			c-3.758,7.549-8.171,13.498-13.236,17.844C562.154,1013.209,556.76,1015.385,551.042,1015.385z M551.042,872.384
			c-4.088,0-7.927,1.562-11.521,4.676c-3.597,3.12-6.741,7.385-9.438,12.799c-2.696,5.415-4.821,11.734-6.373,18.952
			c-1.553,7.223-2.328,14.934-2.328,23.137c0,8.206,0.775,15.96,2.328,23.26c1.552,7.302,3.677,13.659,6.373,19.074
			c2.696,5.414,5.841,9.683,9.438,12.799c3.595,3.12,7.434,4.678,11.521,4.678c4.085,0,7.925-1.558,11.521-4.678
			c3.596-3.116,6.741-7.385,9.438-12.799c2.697-5.415,4.82-11.772,6.375-19.074c1.551-7.3,2.328-15.054,2.328-23.26
			c0-8.203-0.777-15.914-2.328-23.137c-1.555-7.218-3.678-13.537-6.375-18.952c-2.696-5.414-5.842-9.679-9.438-12.799
			C558.967,873.945,555.127,872.384,551.042,872.384z"/>
		<path style="fill:#272525;" d="M648.235,873.346c0-6.715,1.143-12.424,3.431-17.127c2.287-4.699,5.065-7.051,8.334-7.051v24.178
			v72.782c0,9.57-0.777,18.553-2.328,26.946c-1.553,8.397-3.658,15.74-6.312,22.036c-2.655,6.296-5.781,11.252-9.375,14.86
			c-3.598,3.608-7.438,5.414-11.521,5.414c-4.087,0-7.927-1.806-11.522-5.414c-3.595-3.608-6.722-8.564-9.376-14.86
			c-2.655-6.296-4.76-13.639-6.312-22.036c-1.553-8.394-2.328-17.376-2.328-26.946v-72.782v-24.178c1.633,0,3.165,0.629,4.596,1.889
			c1.429,1.258,2.696,2.982,3.8,5.162c1.104,2.185,1.96,4.746,2.573,7.682c0.612,2.939,0.919,6.089,0.919,9.445v72.782
			c0,6.214,0.448,12.049,1.349,17.503c0.898,5.457,2.145,10.243,3.739,14.356c1.593,4.114,3.471,7.344,5.637,9.694
			c2.164,2.353,4.475,3.527,6.926,3.527s4.737-1.175,6.862-3.527c2.124-2.351,3.983-5.58,5.578-9.694
			c1.593-4.113,2.858-8.899,3.8-14.356c0.938-5.454,1.409-11.289,1.409-17.503L648.235,873.346z"/>
	</g>
</g>
<g id="Guides">
</g>
</svg>
