<?xml version="1.0" encoding="iso-8859-1"?>
<!-- Generator: Adobe Illustrator 15.1.0, SVG Export Plug-In . SVG Version: 6.00 Build 0)  -->
<!DOCTYPE svg PUBLIC "-//W3C//DTD SVG 1.1//EN" "http://www.w3.org/Graphics/SVG/1.1/DTD/svg11.dtd">
<svg version="1.1" xmlns="http://www.w3.org/2000/svg" xmlns:xlink="http://www.w3.org/1999/xlink" x="0px" y="0px" width="792px"
	 height="1224px" viewBox="0 0 792 1224" style="enable-background:new 0 0 792 1224;" xml:space="preserve">
<g id="Layer_1">
	<g>
		<path style="fill:#272525;" d="M165.495,360.954h-28.266c-2.448,0-5.23-0.409-5.23-6.339c0-2.863,1.001-4.703,2.448-5.521
			c3.895-2.25,3.784-3.477,3.784-11.043V230.899c0-3.068,0.223-8.589-1.892-9.816c-2.226-1.432-4.34-2.045-4.34-7.158
			c0-5.316,2.782-5.93,5.008-5.93h28.489V360.954z M170.503,207.996c18.918-0.409,34.721,23.721,36.057,76.479
			c1.224,48.055-17.583,76.479-36.057,76.479v-11.86c6.788-1.636,7.122-13.292,7.122-21.062v-87.112
			c0-7.771-0.334-19.427-7.122-21.062V207.996z"/>
		<path style="fill:#272525;" d="M247.069,219.304c-5.23,3.357-5.675,9.281-5.675,14.218v102.293c0,4.938,0.445,10.862,5.675,14.219
			v11.454c-23.592-3.752-34.609-37.521-34.609-76.819c0-39.298,11.017-73.067,34.609-76.819V219.304z M252.078,350.034
			c5.23-3.357,5.675-9.281,5.675-14.219V233.522c0-4.937-0.445-10.861-5.675-14.218V207.85
			c23.592,3.752,34.609,37.521,34.609,76.819c0,39.298-11.017,73.067-34.609,76.819V350.034z"/>
		<path style="fill:#272525;" d="M334.877,361.049c-8.791,0-15.58-0.2-23.259-7.823c-10.016-10.03-11.351-17.653-11.351-27.682
			v-95.081c0-7.422,0.111-8.626-3.784-10.832c-1.447-0.803-2.448-2.608-2.448-5.417c0-5.818,3.672-6.218,4.118-6.218h31.494
			c0.445,0,4.117,0.4,4.117,6.218c0,2.809-1.001,4.614-2.448,5.417c-3.895,2.206-3.785,3.41-3.785,10.832v96.485
			c0,2.006-1.001,17.853,7.345,22.266V361.049z M354.797,239.689c-1.781-25.074-8.903-17.251-8.903-25.876
			c0-6.218,4.563-5.817,5.786-5.817h12.687c1.225,0,5.788-0.401,5.788,5.817c0,8.625-7.122,0.803-8.903,25.876v75.625
			c-0.89,33.097-14.133,45.133-21.367,45.333v-11.835c10.238-5.616,14.245-16.047,14.913-33.9V239.689z"/>
		<path style="fill:#272525;" d="M405.102,331.01c0,7.082,0.89,15.344,5.341,18.099v11.411
			c-19.363-0.983-34.275-34.429-34.275-76.528c0-42.297,14.913-75.742,34.275-76.529v11.411c-4.451,2.753-5.341,10.82-5.341,17.902
			V331.01z M415.45,349.108c4.896-2.557,5.12-9.246,5.12-12.591v-35.411c0-4.329-0.111-5.312-4.563-6.689
			c-1.78-0.787-2.894-2.558-2.894-5.902c0-5.312,3.896-5.509,4.451-5.509h26.599c0.556,0,3.895-0.59,3.895,5.902
			c0,3.344-1.003,4.721-2.004,5.901c-2.337,2.558-2.003,4.919-2.003,5.903v38.953c-7.79,12.394-18.027,20.46-28.601,20.854V349.108z
			 M415.45,207.462c11.686,1.771,17.695,7.279,18.92,7.279c3.337,0,3.004-7.279,6.565-7.279c3.337,0,3.115,5.312,3.115,6.295v43.871
			c0,0.984,0,7.082-3.45,7.082c-2.894,0-3.672-3.738-4.229-7.869c-3.45-25.182-11.907-37.182-20.922-37.969V207.462z"/>
		<path style="fill:#272525;" d="M489.012,360.954h-29.379c-0.444,0-4.116-0.409-4.116-6.339c0-2.863,1.001-4.703,2.447-5.521
			c3.896-2.25,3.783-3.477,3.783-11.043V230.899c0-7.566,0.112-8.793-3.783-11.043c-1.446-0.818-2.447-2.658-2.447-5.521
			c0-5.931,3.672-6.339,4.116-6.339h31.495c0.444,0,4.116,0.409,4.116,6.339c0,2.863-1.001,4.703-2.447,5.521
			c-3.895,2.25-3.785,3.477-3.785,11.043V360.954z M494.021,349.094c9.015-2.25,14.134-16.563,16.47-35.582
			c0.557-4.499,1.893-5.726,4.23-5.726c2.559,0,2.78,3.886,2.78,7.771v45.397h-23.48V349.094z"/>
		<path style="fill:#272525;" d="M544.99,259.732l-10.461,69.935c-1.781,12.474-0.222,15.95,3.562,19.018
			c1.78,1.431,3.339,2.657,3.339,6.748c0,5.726-3.562,5.521-5.787,5.521h-12.797c-2.227,0-6.232-0.205-6.232-6.135
			c0-4.908,1.891-4.703,4.34-6.953c2.337-2.25,5.341-6.953,7.455-21.472l13.355-89.771h0.333L544.99,259.732z M556.897,321.283
			H540.65l1.558-11.86h13.576l-11.239-90.385l1.446-11.042h24.595l16.693,129.237c0.668,5.726,0.778,9.611,3.895,12.065
			c1.559,1.227,2.782,2.658,2.782,6.339c0,5.521-4.007,5.317-6.12,5.317h-27.711c-2.225,0-5.453-0.409-5.453-5.726
			c0-3.272,0.668-4.295,2.115-5.726c2.893-3.067,3.338-4.5,2.336-12.475L556.897,321.283z"/>
		<path style="fill:#272525;" d="M628.012,218.905c-4.229,2.564-7.9,8.089-7.9,16.178c0,9.667,3.004,15.586,16.247,24.662
			c19.697,13.415,24.148,31.96,24.148,50.111c0,30.58-14.355,50.506-30.826,51.099v-11.443c5.342-2.959,9.904-7.3,10.128-18.151
			c0.222-12.429-8.014-17.559-13.354-21.702c-14.021-10.457-27.043-21.703-27.043-52.678c0-29.987,12.241-48.533,28.601-49.52
			V218.905z M599.411,313.802c0-4.143,0.446-9.667,3.562-9.667c2.226,0,3.783,3.156,4.117,6.51
			c1.559,15.783,7.79,35.315,17.583,38.866v11.443c-9.682-0.395-11.796-7.3-15.803-7.3c-3.56,0-3.227,6.51-6.009,6.51
			c-3.45,0-3.45-7.3-3.45-8.286V313.802z M657.502,250.077c0,4.538-0.445,9.47-3.672,9.47c-2.671,0-3.672-3.749-4.007-7.695
			c-1.224-14.6-8.124-29.593-16.804-32.947v-11.443c7.011,0.197,14.468,7.694,15.69,7.694c2.894,0,2.673-7.102,5.564-7.102
			c3.45,0,3.228,6.708,3.228,8.286V250.077z"/>
	</g>
	<g>
		<path style="fill:#272525;" d="M162.768,515.236c-20.893-0.75-30.77-32.043-30.77-70.458c0-43.286,12.346-74.018,30.77-75.33
			v10.868c-4.559,1.874-6.078,9.557-6.078,17.426v88.823c0,7.87,1.52,15.554,6.078,17.801V515.236z M167.042,369.449
			c3.514,0.188,10.826,7.495,13.295,7.495c1.424,0,1.994-1.125,2.564-3.56c0.57-2.438,1.234-3.936,2.564-3.936
			c3.039,0,3.039,5.81,3.039,6.747v43.474c0,0.937,0,6.746-3.039,6.746c-1.994,0-3.134-3.186-3.514-6.746
			c-1.614-15.178-6.078-34.667-14.91-39.352V369.449z M185.75,471.763c1.804,0,2.849,2.998,2.849,6.371
			c-0.19,15.366-11.681,37.852-21.558,37.103v-10.869c7.312-3.185,13.485-12.742,15.574-26.609
			C183.186,474.573,183.755,471.763,185.75,471.763z"/>
		<path style="fill:#272525;" d="M223.833,379.996c-4.463,3.18-4.843,8.79-4.843,13.464v96.866c0,4.675,0.38,10.285,4.843,13.464
			v10.846c-20.133-3.554-29.535-35.531-29.535-72.744c0-37.212,9.402-69.189,29.535-72.742V379.996z M228.107,503.79
			c4.463-3.179,4.843-8.79,4.843-13.464v-96.866c0-4.674-0.379-10.284-4.843-13.464V369.15c20.133,3.553,29.535,35.53,29.535,72.742
			c0,37.213-9.402,69.19-29.535,72.744V503.79z"/>
		<path style="fill:#272525;" d="M298.765,514.932c-7.502,0-13.295-0.19-19.848-7.459c-8.547-9.563-9.687-16.83-9.687-26.393
			v-90.653c0-7.076,0.095-8.224-3.229-10.327c-1.234-0.765-2.089-2.487-2.089-5.165c0-5.546,3.134-5.928,3.514-5.928h26.875
			c0.38,0,3.514,0.382,3.514,5.928c0,2.677-0.854,4.399-2.089,5.165c-3.324,2.103-3.229,3.251-3.229,10.327v91.991
			c0,1.913-0.855,17.022,6.268,21.229V514.932z M315.764,399.225c-1.519-23.906-7.597-16.448-7.597-24.671
			c0-5.929,3.894-5.546,4.938-5.546h10.826c1.045,0,4.938-0.383,4.938,5.546c0,8.223-6.078,0.765-7.597,24.671v72.103
			c-0.76,31.556-12.061,43.03-18.233,43.222v-11.283c8.736-5.356,12.156-15.301,12.725-32.322V399.225z"/>
		<path style="fill:#272525;" d="M340.268,390.855c0-7.217,0.095-8.388-3.229-10.534c-1.234-0.781-2.089-2.537-2.089-5.267
			c0-5.657,3.134-6.047,3.514-6.047h25.071v124.063c0,7.217-0.095,8.388,3.229,10.534c1.234,0.78,2.089,2.536,2.089,5.267
			c0,5.658-3.134,6.047-3.514,6.047h-26.875c-0.38,0-3.514-0.39-3.514-6.047c0-2.73,0.854-4.487,2.089-5.267
			c3.324-2.146,3.229-3.316,3.229-10.534V390.855z M367.808,369.008c9.022,0,14.34,1.951,18.804,7.217
			c7.028,8.583,9.782,21.457,9.782,37.843c0,16.385-2.754,29.26-9.782,37.843c-4.463,5.267-9.781,7.218-18.804,7.218v-11.314
			c5.604-2.146,5.888-10.143,5.888-19.701v-29.456c0-8.778-0.854-16.776-5.888-18.336V369.008z"/>
		<path style="fill:#272525;" d="M426.097,514.918h-25.071c-0.38,0-3.514-0.39-3.514-6.047c0-2.73,0.854-4.487,2.09-5.267
			c3.323-2.146,3.229-3.316,3.229-10.534V390.855c0-7.217,0.095-8.388-3.229-10.534c-1.235-0.781-2.09-2.537-2.09-5.267
			c0-5.657,3.134-6.047,3.514-6.047h26.876c0.38,0,3.514,0.39,3.514,6.047c0,2.73-0.855,4.486-2.089,5.267
			c-3.324,2.146-3.229,3.316-3.229,10.534V514.918z M430.37,503.604c7.692-2.146,12.062-15.8,14.056-33.942
			c0.475-4.292,1.614-5.462,3.608-5.462c2.184,0,2.374,3.706,2.374,7.413v43.305H430.37V503.604z"/>
		<path style="fill:#272525;" d="M479.872,418.359l-8.927,66.713c-1.52,11.899-0.189,15.216,3.039,18.142
			c1.519,1.365,2.849,2.535,2.849,6.437c0,5.461-3.039,5.267-4.938,5.267h-10.921c-1.899,0-5.318-0.195-5.318-5.853
			c0-4.682,1.614-4.487,3.704-6.632c1.994-2.146,4.559-6.632,6.362-20.483l11.396-85.634h0.285L479.872,418.359z M490.033,477.075
			h-13.865l1.33-11.313h11.586l-9.592-86.221l1.234-10.533h20.987l14.245,123.282c0.57,5.462,0.665,9.169,3.324,11.509
			c1.329,1.17,2.374,2.536,2.374,6.048c0,5.266-3.418,5.072-5.223,5.072h-23.647c-1.898,0-4.653-0.39-4.653-5.462
			c0-3.122,0.57-4.097,1.805-5.462c2.469-2.925,2.849-4.292,1.994-11.899L490.033,477.075z"/>
		<path style="fill:#272525;" d="M533.34,405.68h0.19l5.318,19.507v58.91c1.52,24.384,7.597,16.776,7.597,25.165
			c0,6.047-3.893,5.657-4.938,5.657h-10.826c-1.045,0-4.938,0.39-4.938-5.657c0-8.388,6.078-0.78,7.597-25.165V405.68z
			 M582.818,467.712v47.206h-14.15L533.91,391.831c-1.52-5.462-1.994-8.388-5.128-10.534c-1.614-1.171-2.849-1.951-2.849-6.242
			c0-5.853,2.849-5.853,4.843-6.047h24.406L582.818,467.712z M577.311,404.315c0-27.895-7.788-20.482-7.788-29.456
			c0-5.461,3.134-5.852,4.084-5.852h12.916c0.949,0,4.083,0.39,4.083,5.852c0,8.974-7.787,1.561-7.787,29.456v47.401h-0.19
			l-5.317-19.702V404.315z"/>
		<path style="fill:#272525;" d="M624.985,514.918h-24.122c-2.089,0-4.463-0.39-4.463-6.047c0-2.73,0.854-4.487,2.09-5.267
			c3.323-2.146,3.229-3.316,3.229-10.534V390.855c0-2.926,0.189-8.193-1.614-9.363c-1.899-1.366-3.704-1.951-3.704-6.828
			c0-5.071,2.374-5.656,4.273-5.656h24.312V514.918z M629.259,369.008c16.145-0.391,29.63,22.627,30.77,72.955
			c1.045,45.841-15.005,72.956-30.77,72.956v-11.314c5.793-1.561,6.078-12.679,6.078-20.092v-83.099
			c0-7.413-0.285-18.532-6.078-20.092V369.008z"/>
	</g>
	<g>
		<path style="fill:#272525;" d="M180.246,680.32h-16.594l-24.821-137.099c-0.697-4.001-0.976-5.475-3.486-7.16
			c-2.091-1.475-3.346-2.527-3.346-6.318c0-6.95,5.717-6.95,8.924-6.95h32.351c3.067,0,7.948-0.632,7.948,6.107
			c0,7.16-6.275,5.265-6.275,13.057c0,1.895,0.279,3.159,0.697,5.265l13.805,77.288L180.246,680.32z M212.458,522.794
			l18.268,105.086l-8.785,52.439h-16.594l-18.127-101.507l9.482-56.019H212.458z M229.609,587.027l5.299-32.853
			c0.418-2.949,0.976-5.477,0.976-8.635c0-10.952-8.785-9.266-8.785-17.059c0-4.844,2.929-5.686,5.438-5.686h17.988
			c2.649,0,5.717,0.421,5.717,5.897c0,3.159-1.116,4.001-2.929,5.265c-6.972,4.632-8.785,12.003-10.597,22.534l-8.925,53.492
			l-0.279-0.211L229.609,587.027z"/>
		<path style="fill:#272525;" d="M300.589,534.911c-6.553,3.438-7.111,9.505-7.111,14.561V654.23c0,5.057,0.558,11.121,7.111,14.561
			v11.73c-29.562-3.842-43.367-38.427-43.367-78.67c0-40.245,13.805-74.828,43.367-78.67V534.911z M306.865,668.791
			c6.554-3.439,7.111-9.504,7.111-14.561V549.472c0-5.056-0.557-11.123-7.111-14.561v-11.73
			c29.562,3.843,43.367,38.426,43.367,78.67c0,40.244-13.805,74.829-43.367,78.67V668.791z"/>
		<path style="fill:#272525;" d="M368.084,546.381c0-7.792,0.14-9.056-4.741-11.373c-1.813-0.842-3.068-2.738-3.068-5.686
			c0-6.108,4.602-6.529,5.16-6.529h36.813v133.94c0,7.791-0.139,9.055,4.742,11.373c1.812,0.841,3.067,2.736,3.067,5.685
			c0,6.107-4.603,6.528-5.159,6.528h-39.463c-0.558,0-5.16-0.421-5.16-6.528c0-2.948,1.255-4.844,3.068-5.685
			c4.88-2.318,4.741-3.582,4.741-11.373V546.381z M408.523,522.794h0.697c9.063,0,18.546-0.421,26.913,5.686
			c9.342,6.95,14.084,18.533,14.223,34.539c0.278,24.218-10.319,34.747-24.542,39.802v0.421
			c12.411,2.737,24.263,8.213,24.542,30.537v18.532c0,1.895-0.419,6.107,1.395,6.107c2.231,0,2.649-6.107,5.996-6.107
			c1.812,0,4.044,3.158,4.044,6.107c0,6.106-4.603,13.898-7.67,17.48c-4.741,5.896-9.761,7.58-15.757,7.58
			s-11.434-2.317-15.757-8.845c-4.881-7.581-5.578-16.849-5.578-26.746v-14.321c0-9.688-0.139-21.48-8.506-22.744v-12.425
			c7.529-1.053,8.506-8.003,8.506-18.321v-25.482c0-10.53-1.533-15.585-8.506-19.375V522.794z"/>
		<path style="fill:#272525;" d="M512.413,656.734c0,7.791-0.14,9.055,4.741,11.373c1.812,0.841,3.067,2.736,3.067,5.685
			c0,6.107-4.601,6.528-5.159,6.528H475.6c-0.558,0-5.159-0.421-5.159-6.528c0-2.948,1.256-4.844,3.067-5.685
			c4.881-2.318,4.741-3.582,4.741-11.373V546.381c0-7.792,0.14-9.056-4.741-11.373c-1.812-0.842-3.067-2.738-3.067-5.686
			c0-6.108,4.602-6.529,5.159-6.529h39.463c0.559,0,5.159,0.421,5.159,6.529c0,2.948-1.255,4.844-3.067,5.686
			c-4.881,2.317-4.741,3.58-4.741,11.373V656.734z M564.983,657.365c1.255,4.634,1.674,8.213,4.881,10.53
			c2.092,1.474,3.347,2.738,3.347,6.739c0,6.107-4.603,5.686-7.392,5.686h-35c-3.207,0-7.39,0-7.39-6.528
			c0-6.949,5.717-5.685,5.717-10.32c0-1.683-0.697-4.843-1.116-6.316l-8.645-39.172c-0.837-3.999-1.813-8.424-1.813-12.846
			s1.533-7.16,3.208-10.74l16.175-34.749c1.952-4.001,3.626-8.214,3.626-13.268c0-5.686-1.952-8.634-5.3-10.741
			c-2.23-1.474-4.322-2.316-4.322-6.529c0-6.528,3.905-6.317,6.833-6.317h23.845c3.347,0,7.391,0.21,7.391,6.95
			c0,4.843-2.649,6.318-5.159,7.792c-9.622,5.476-12.829,13.477-18.686,25.483l-2.649,5.474L564.983,657.365z"/>
		<path style="fill:#272525;" d="M618.952,534.471c-5.299,2.641-9.9,8.331-9.9,16.662c0,9.956,3.765,16.052,20.358,25.398
			c24.683,13.817,30.26,32.917,30.26,51.609c0,31.496-17.988,52.018-38.626,52.627v-11.786c6.692-3.045,12.411-7.517,12.689-18.691
			c0.278-12.8-10.04-18.085-16.733-22.351c-17.57-10.77-33.885-22.352-33.885-54.253c0-30.884,15.339-49.984,35.837-51V534.471z
			 M583.115,632.205c0-4.266,0.558-9.955,4.462-9.955c2.789,0,4.741,3.25,5.159,6.706c1.953,16.253,9.762,36.37,22.032,40.025
			v11.786c-12.132-0.407-14.781-7.518-19.801-7.518c-4.462,0-4.044,6.706-7.529,6.706c-4.323,0-4.323-7.518-4.323-8.534V632.205z
			 M655.904,566.575c0,4.674-0.558,9.753-4.601,9.753c-3.348,0-4.603-3.86-5.021-7.924c-1.534-15.037-10.18-30.479-21.056-33.933
			v-11.785c8.784,0.203,18.128,7.924,19.661,7.924c3.626,0,3.347-7.314,6.973-7.314c4.322,0,4.043,6.908,4.043,8.533V566.575z"/>
	</g>
	<g>
		<path style="fill:#272525;" d="M167.977,817.749c0,7.502-0.12,8.72,4.064,10.951c1.554,0.811,2.629,2.635,2.629,5.474
			c0,5.881-3.944,6.286-4.422,6.286h-33.827c-0.478,0-4.422-0.405-4.422-6.286c0-2.839,1.076-4.663,2.629-5.474
			c4.184-2.231,4.064-3.449,4.064-10.951V711.49c0-7.502,0.12-8.718-4.064-10.95c-1.554-0.81-2.629-2.634-2.629-5.475
			c0-5.88,3.944-6.285,4.422-6.285h33.827c0.478,0,4.422,0.405,4.422,6.285c0,2.841-1.075,4.665-2.629,5.475
			c-4.184,2.232-4.064,3.448-4.064,10.95V817.749z M183.875,769.284h-10.519v-11.762h10.519V711.49c0-7.502,0.12-8.718-4.064-10.95
			c-1.554-0.81-2.629-2.634-2.629-5.475c0-5.88,3.945-6.285,4.423-6.285h33.827c0.479,0,4.423,0.405,4.423,6.285
			c0,2.841-1.076,4.665-2.629,5.475c-4.184,2.232-4.064,3.448-4.064,10.95v106.259c0,7.502-0.12,8.72,4.064,10.951
			c1.554,0.811,2.629,2.635,2.629,5.474c0,5.881-3.944,6.286-4.423,6.286h-33.827c-0.478,0-4.423-0.405-4.423-6.286
			c0-2.839,1.076-4.663,2.629-5.474c4.184-2.231,4.064-3.449,4.064-10.951V769.284z"/>
		<path style="fill:#272525;" d="M256.073,740.083l-11.236,69.353c-1.913,12.369-0.239,15.815,3.825,18.857
			c1.913,1.421,3.585,2.637,3.585,6.693c0,5.678-3.825,5.474-6.215,5.474h-13.746c-2.391,0-6.693-0.203-6.693-6.083
			c0-4.866,2.032-4.663,4.662-6.894c2.51-2.232,5.737-6.896,8.008-21.293l14.344-89.021h0.358L256.073,740.083z M268.863,801.121
			h-17.451l1.673-11.762h14.583l-12.073-89.629l1.554-10.95h26.416l17.93,128.157c0.717,5.679,0.836,9.531,4.183,11.964
			c1.674,1.218,2.988,2.637,2.988,6.288c0,5.475-4.303,5.271-6.574,5.271H272.33c-2.391,0-5.857-0.405-5.857-5.678
			c0-3.244,0.717-4.258,2.271-5.678c3.108-3.042,3.586-4.46,2.51-12.368L268.863,801.121z"/>
		<path style="fill:#272525;" d="M322.296,711.49c0-7.502,0.119-8.718-4.064-10.95c-1.554-0.81-2.629-2.634-2.629-5.475
			c0-5.88,3.945-6.285,4.422-6.285h31.556v128.969c0,7.502-0.12,8.72,4.064,10.951c1.555,0.811,2.63,2.635,2.63,5.474
			c0,5.881-3.944,6.286-4.423,6.286h-33.827c-0.478,0-4.422-0.405-4.422-6.286c0-2.839,1.076-4.663,2.629-5.474
			c4.184-2.231,4.064-3.449,4.064-10.951V711.49z M356.959,688.78h0.598c7.77,0,15.897-0.405,23.07,5.476
			c8.008,6.691,12.072,17.844,12.191,33.256c0.24,23.32-8.845,33.459-21.037,38.325v0.406c10.639,2.635,20.799,7.908,21.037,29.403
			v17.845c0,1.824-0.358,5.879,1.195,5.879c1.913,0,2.271-5.879,5.14-5.879c1.555,0,3.466,3.042,3.466,5.879
			c0,5.881-3.943,13.385-6.573,16.833c-4.064,5.678-8.367,7.299-13.507,7.299c-5.141,0-9.802-2.23-13.507-8.516
			c-4.184-7.3-4.781-16.224-4.781-25.753v-13.79c0-9.328-0.12-20.684-7.292-21.9v-11.964c6.455-1.015,7.292-7.707,7.292-17.643
			v-24.535c0-10.14-1.315-15.007-7.292-18.657V688.78z"/>
		<path style="fill:#272525;" d="M440.276,840.46h-30.36c-2.631,0-5.619-0.405-5.619-6.286c0-2.839,1.077-4.663,2.631-5.474
			c4.184-2.231,4.063-3.449,4.063-10.951V711.49c0-3.042,0.24-8.516-2.031-9.731c-2.391-1.42-4.663-2.028-4.663-7.098
			c0-5.272,2.988-5.881,5.38-5.881h30.6V840.46z M445.655,688.78c20.321-0.405,37.294,23.522,38.728,75.84
			c1.315,47.653-18.886,75.84-38.728,75.84V828.7c7.292-1.623,7.649-13.182,7.649-20.888v-86.385c0-7.705-0.357-19.264-7.649-20.888
			V688.78z"/>
		<path style="fill:#272525;" d="M496.938,688.78h31.555v151.68h-31.555c-0.479,0-4.424-0.405-4.424-6.286
			c0-2.839,1.075-4.663,2.63-5.474c4.185-2.231,4.064-3.449,4.064-10.951V711.49c0-7.502,0.12-8.718-4.064-10.95
			c-1.555-0.81-2.63-2.634-2.63-5.475C492.514,689.186,496.459,688.78,496.938,688.78z M533.871,688.78h26.656v41.164
			c0,1.014-0.12,4.867-3.706,4.867c-2.032,0-2.63-2.027-3.228-5.069c-3.107-16.425-9.204-26.361-19.723-29.202V688.78z
			 M533.871,756.509c5.02-2.23,7.292-10.14,8.368-17.844c0.598-3.448,1.313-6.693,3.824-6.693c3.706,0,3.108,7.302,3.108,8.923
			v43.802c0,1.62,0.598,8.922-3.108,8.922c-2.511,0-3.227-3.245-3.824-6.692c-1.076-7.705-3.349-15.613-8.368-17.845V756.509z
			 M533.871,828.7c9.682-2.028,17.094-13.182,20.32-29.404c0.837-3.041,1.555-6.286,3.705-6.286c3.826,0,3.467,6.084,3.467,6.894
			v40.557h-27.492V828.7z"/>
		<path style="fill:#272525;" d="M579.415,711.49c0-7.502,0.119-8.718-4.064-10.95c-1.555-0.81-2.63-2.634-2.63-5.475
			c0-5.88,3.943-6.285,4.423-6.285h31.556v128.969c0,7.502-0.12,8.72,4.064,10.951c1.553,0.811,2.63,2.635,2.63,5.474
			c0,5.881-3.945,6.286-4.423,6.286h-33.827c-0.479,0-4.423-0.405-4.423-6.286c0-2.839,1.075-4.663,2.63-5.474
			c4.184-2.231,4.064-3.449,4.064-10.951V711.49z M614.078,688.78h0.598c7.771,0,15.897-0.405,23.07,5.476
			c8.008,6.691,12.071,17.844,12.191,33.256c0.238,23.32-8.846,33.459-21.037,38.325v0.406c10.639,2.635,20.797,7.908,21.037,29.403
			v17.845c0,1.824-0.359,5.879,1.195,5.879c1.913,0,2.271-5.879,5.14-5.879c1.553,0,3.466,3.042,3.466,5.879
			c0,5.881-3.944,13.385-6.574,16.833c-4.064,5.678-8.366,7.299-13.507,7.299c-5.14,0-9.801-2.23-13.507-8.516
			c-4.184-7.3-4.781-16.224-4.781-25.753v-13.79c0-9.328-0.118-20.684-7.291-21.9v-11.964c6.455-1.015,7.291-7.707,7.291-17.643
			v-24.535c0-10.14-1.313-15.007-7.291-18.657V688.78z"/>
	</g>
	<g>
		<path style="fill:#272525;" d="M131.8,849.022h14.196v12.902c-5.126,8.231-6.506,22.915-7.394,34.707
			c-0.296,4.895-0.788,10.678-3.549,10.678c-2.958,0-3.253-5.56-3.253-6.451V849.022z M150.433,849.022h24.154v141.493
			c0,8.231-0.099,9.566,3.352,12.015c1.282,0.889,2.169,2.891,2.169,6.006c0,6.452-3.253,6.896-3.647,6.896h-27.9
			c-0.395,0-3.648-0.444-3.648-6.896c0-3.115,0.888-5.117,2.169-6.006c3.451-2.448,3.352-3.783,3.352-12.015V849.022z
			 M193.219,900.858c0,0.892-0.296,6.451-3.253,6.451c-2.76,0-3.253-5.783-3.549-10.678c-0.887-11.792-2.267-26.476-7.394-34.707
			v-12.902h14.197V900.858z"/>
		<path style="fill:#272525;" d="M230.486,990.516c0,8.231-0.099,9.566,3.352,12.015c1.282,0.889,2.169,2.891,2.169,6.006
			c0,6.452-3.253,6.896-3.647,6.896h-27.9c-0.394,0-3.647-0.444-3.647-6.896c0-3.115,0.887-5.117,2.169-6.006
			c3.45-2.448,3.352-3.783,3.352-12.015V873.938c0-8.231,0.098-9.565-3.352-12.014c-1.282-0.889-2.169-2.891-2.169-6.006
			c0-6.452,3.253-6.896,3.647-6.896h27.9c0.394,0,3.647,0.444,3.647,6.896c0,3.115-0.887,5.117-2.169,6.006
			c-3.451,2.448-3.352,3.782-3.352,12.014V990.516z M243.598,937.345h-8.676V924.44h8.676v-50.502c0-8.231,0.098-9.565-3.353-12.014
			c-1.281-0.889-2.168-2.891-2.168-6.006c0-6.452,3.253-6.896,3.647-6.896h27.9c0.395,0,3.648,0.444,3.648,6.896
			c0,3.115-0.887,5.117-2.169,6.006c-3.451,2.448-3.352,3.782-3.352,12.014v116.577c0,8.231-0.099,9.566,3.352,12.015
			c1.282,0.889,2.169,2.891,2.169,6.006c0,6.452-3.253,6.896-3.648,6.896h-27.9c-0.394,0-3.647-0.444-3.647-6.896
			c0-3.115,0.887-5.117,2.168-6.006c3.451-2.448,3.353-3.783,3.353-12.015V937.345z"/>
		<path style="fill:#272525;" d="M303.146,905.309l-9.267,76.086c-1.577,13.57-0.197,17.353,3.155,20.689
			c1.577,1.559,2.958,2.893,2.958,7.342c0,6.23-3.155,6.007-5.126,6.007h-11.337c-1.972,0-5.521-0.222-5.521-6.675
			c0-5.339,1.676-5.115,3.845-7.563c2.07-2.447,4.732-7.563,6.605-23.359l11.831-97.666h0.296L303.146,905.309z M313.695,972.273
			h-14.394l1.38-12.904h12.028l-9.957-98.333l1.281-12.014h21.788l14.788,140.604c0.591,6.23,0.69,10.456,3.451,13.126
			c1.38,1.335,2.464,2.893,2.464,6.897c0,6.007-3.549,5.783-5.422,5.783h-24.548c-1.972,0-4.831-0.444-4.831-6.23
			c0-3.558,0.591-4.67,1.873-6.228c2.563-3.337,2.958-4.895,2.07-13.57L313.695,972.273z"/>
		<path style="fill:#272525;" d="M358.651,890.846h0.197l5.521,22.249v67.187c1.577,27.81,7.886,19.134,7.886,28.7
			c0,6.896-4.042,6.451-5.126,6.451h-11.238c-1.085,0-5.126,0.445-5.126-6.451c0-9.566,6.31-0.891,7.886-28.7V890.846z
			 M410.016,961.594v53.839h-14.69l-36.083-140.382c-1.578-6.229-2.07-9.566-5.323-12.014c-1.676-1.333-2.958-2.225-2.958-7.118
			c0-6.676,2.958-6.676,5.028-6.896h25.337L410.016,961.594z M404.297,889.289c0-31.813-8.083-23.358-8.083-33.592
			c0-6.23,3.253-6.675,4.239-6.675h13.408c0.985,0,4.238,0.444,4.238,6.675c0,10.233-8.083,1.778-8.083,33.592v54.062h-0.198
			l-5.521-22.471V889.289z"/>
		<path style="fill:#272525;" d="M475.479,950.916l-14.887-79.647c-0.69-4.003-1.184-6.896-2.859-9.344
			c-1.282-1.557-2.268-2.67-2.268-6.451c0-6.896,3.154-6.451,5.226-6.451h24.351c2.169,0,5.422-0.445,5.422,6.675
			c0,3.337-1.084,5.115-2.169,6.672c-1.084,1.336-1.873,2.226-1.873,5.341c0,2.891,0.493,5.784,0.986,8.453l12.225,62.96v51.393
			c0,8.231-0.099,9.566,3.352,12.015c1.281,0.889,2.169,2.891,2.169,6.006c0,6.452-3.253,6.896-3.647,6.896h-27.899
			c-0.396,0-3.648-0.444-3.648-6.896c0-3.115,0.888-5.117,2.169-6.006c3.45-2.448,3.353-3.783,3.353-12.015V950.916z
			 M498.548,911.093l5.127-25.807c0.788-3.782,1.479-7.342,1.479-11.792c0-13.348-6.704-8.454-6.704-17.575
			c0-8.009,4.043-6.896,6.408-6.896h10.943c2.268,0,5.027,0.444,5.027,7.119c0,3.781-1.084,5.339-2.464,6.675
			c-4.042,3.781-5.127,7.118-7,16.24l-9.661,47.833L498.548,911.093z"/>
		<path style="fill:#272525;" d="M551.097,861.357c-4.634,3.646-5.028,10.079-5.028,15.438v111.067
			c0,5.359,0.395,11.791,5.028,15.438v12.435c-20.9-4.073-30.661-40.738-30.661-83.405c0-42.668,9.761-79.333,30.661-83.406V861.357
			z M555.532,1003.301c4.634-3.646,5.028-10.078,5.028-15.438V876.796c0-5.359-0.395-11.793-5.028-15.438v-12.434
			c20.9,4.073,30.66,40.738,30.66,83.406c0,42.667-9.76,79.332-30.66,83.405V1003.301z"/>
		<path style="fill:#272525;" d="M628.883,1015.754c-7.788,0-13.802-0.219-20.604-8.521c-8.873-10.927-10.056-19.231-10.056-30.156
			V873.496c0-8.086,0.099-9.396-3.352-11.801c-1.282-0.873-2.169-2.84-2.169-5.899c0-6.337,3.253-6.773,3.647-6.773h27.899
			c0.395,0,3.648,0.437,3.648,6.773c0,3.06-0.888,5.026-2.169,5.899c-3.451,2.405-3.352,3.715-3.352,11.801v105.109
			c0,2.187-0.888,19.449,6.506,24.257V1015.754z M646.529,883.549c-1.576-27.316-7.886-18.794-7.886-28.19
			c0-6.773,4.041-6.336,5.126-6.336h11.238c1.085,0,5.127-0.438,5.127,6.336c0,9.396-6.31,0.874-7.887,28.19v82.383
			c-0.789,36.055-12.521,49.167-18.929,49.387v-12.893c9.069-6.119,12.619-17.483,13.21-36.932V883.549z"/>
	</g>
</g>
<g id="Guides">
</g>
</svg>
