<?xml version="1.0" encoding="iso-8859-1"?>
<!-- Generator: Adobe Illustrator 15.1.0, SVG Export Plug-In . SVG Version: 6.00 Build 0)  -->
<!DOCTYPE svg PUBLIC "-//W3C//DTD SVG 1.1//EN" "http://www.w3.org/Graphics/SVG/1.1/DTD/svg11.dtd">
<svg version="1.1" xmlns="http://www.w3.org/2000/svg" xmlns:xlink="http://www.w3.org/1999/xlink" x="0px" y="0px" width="792px"
	 height="1224px" viewBox="0 0 792 1224" style="enable-background:new 0 0 792 1224;" xml:space="preserve">
<g id="Layer_1">
	<g>
		<path style="fill:#272525;" d="M157.566,361.106h-25.568V207.95h25.568c11.857,0,20.677,3.635,26.458,10.907
			c5.482,6.668,8.227,16.816,8.227,30.45v70.442c0,13.634-2.745,23.785-8.227,30.449
			C178.244,357.47,169.423,361.106,157.566,361.106z M138.892,354.062h18.675c9.634,0,16.637-2.763,21.011-8.294
			c4.37-5.528,6.559-14.202,6.559-26.019v-70.442c0-11.816-2.188-20.487-6.559-26.019c-4.374-5.528-11.377-8.294-21.011-8.294
			h-18.675V354.062z"/>
		<path style="fill:#272525;" d="M240.717,361.106c-3.558,0-7.226-0.529-11.006-1.59c-3.779-1.059-7.226-3.104-10.339-6.136
			c-3.112-3.028-5.634-7.158-7.559-12.384c-1.928-5.227-2.891-12.079-2.891-20.565v-72.033c0-13.027,2.592-23.025,7.782-29.996
			c5.481-6.965,13.486-10.452,24.012-10.452c10.671,0,18.675,3.487,24.011,10.452c5.336,6.817,8.004,16.816,8.004,29.996v72.033
			c0,8.486-0.966,15.338-2.89,20.565c-1.928,5.226-4.447,9.356-7.559,12.384c-3.113,3.032-6.559,5.078-10.339,6.136
			C248.165,360.577,244.42,361.106,240.717,361.106z M240.717,214.994c-8.449,0-14.602,2.653-18.454,7.953
			c-4.3,5.607-6.448,14.089-6.448,25.451v72.033c0,11.515,2.147,20.075,6.448,25.678c4.002,5.304,10.151,7.953,18.454,7.953
			c8.149,0,14.375-2.649,18.675-7.953c4.148-5.302,6.226-13.861,6.226-25.678v-72.033c0-11.664-2.077-20.146-6.226-25.451
			C255.241,217.647,249.016,214.994,240.717,214.994z"/>
		<path style="fill:#272525;" d="M317.196,360.879c-3.411,0-6.857-0.49-10.339-1.477c-3.484-0.984-6.67-2.84-9.56-5.567
			c-2.891-2.728-5.263-6.551-7.115-11.476c-1.855-4.921-2.779-11.248-2.779-18.974V207.723h6.893v115.662
			c0,6.817,0.74,12.236,2.223,16.248c1.479,4.015,3.335,7.083,5.559,9.203c2.223,2.124,4.668,3.487,7.336,4.09
			c2.668,0.607,5.259,0.909,7.782,0.909c2.369,0,4.892-0.302,7.559-0.909c2.668-0.604,5.114-1.967,7.337-4.09
			c2.223-2.119,4.075-5.188,5.558-9.203c1.479-4.012,2.224-9.43,2.224-16.248V207.723h6.892v115.662
			c0,7.727-0.928,14.053-2.779,18.974c-1.855,4.925-4.19,8.748-7.003,11.476c-2.818,2.727-6.003,4.583-9.561,5.567
			C323.866,360.389,320.455,360.879,317.196,360.879z"/>
		<path style="fill:#272525;" d="M397.455,361.106c-10.672,0-18.752-3.483-24.234-10.453c-5.19-6.966-7.782-16.964-7.782-29.995
			v-72.487c0-13.18,2.592-23.1,7.782-29.769c5.481-6.965,13.562-10.452,24.234-10.452s18.677,3.487,24.012,10.452
			c5.336,6.669,8.005,16.588,8.005,29.769v3.636h-7.115v-3.636c0-7.42-0.816-13.33-2.445-17.725
			c-1.633-4.392-3.669-7.726-6.114-9.999c-2.445-2.272-5.114-3.75-8.004-4.43c-2.891-0.683-5.67-1.023-8.338-1.023
			s-5.485,0.341-8.448,1.023c-2.967,0.681-5.669,2.158-8.115,4.43c-2.446,2.272-4.484,5.606-6.114,9.999
			c-1.633,4.395-2.445,10.304-2.445,17.725v72.487c0,11.362,2.147,19.848,6.448,25.451c4.002,5.304,10.227,7.953,18.675,7.953
			c8.3,0,14.452-2.649,18.453-7.953c4.298-5.603,6.448-14.089,6.448-25.451v-19.996h-32.46v-7.272h39.576v27.268
			c0,13.18-2.669,23.178-8.005,29.995C416.132,357.623,408.127,361.106,397.455,361.106z"/>
		<path style="fill:#272525;" d="M442.364,361.106V207.95h7.114v146.112h50.246v7.044H442.364z"/>
		<path style="fill:#272525;" d="M516.399,361.106h-7.114l11.783-53.173v-0.681l22.678-99.302h5.559l34.238,153.156h-7.114
			l-10.227-46.81h-39.575L516.399,361.106z M546.414,227.265l-18.008,79.987h36.238L546.414,227.265z"/>
		<path style="fill:#272525;" d="M628.453,360.879c-10.671,0-18.675-3.483-24.011-10.452c-5.337-6.512-8.004-16.51-8.004-29.996
			v-3.409h6.893v3.409c0,7.577,0.812,13.559,2.444,17.952c1.631,4.395,3.67,7.726,6.114,9.999c2.446,2.272,5.149,3.75,8.116,4.431
			c2.963,0.682,5.78,1.023,8.447,1.023c8.005,0,14.191-2.84,18.565-8.521c4.37-5.681,6.559-13.596,6.559-23.747
			c0-5.454-0.928-10.034-2.779-13.747c-1.854-3.71-4.077-6.778-6.67-9.203c-2.595-2.422-5.301-4.317-8.114-5.681
			c-2.818-1.363-5.114-2.421-6.893-3.181l-3.779-1.59c-2.224-0.909-4.968-2.233-8.227-3.977c-3.263-1.74-6.414-4.166-9.449-7.272
			c-3.039-3.103-5.67-6.966-7.893-11.588c-2.224-4.62-3.335-10.262-3.335-16.929c0-11.511,2.591-20.979,7.781-28.404
			c5.926-8.18,14.007-12.271,24.233-12.271c10.523,0,18.601,3.561,24.235,10.679c5.335,6.817,8.003,16.816,8.003,29.996v3.636
			h-7.114v-3.636c0-11.511-2.149-20.071-6.447-25.678c-4.002-5.148-10.228-7.726-18.677-7.726c-8.003,0-14.156,3.107-18.452,9.317
			c-4.446,6.213-6.67,14.24-6.67,24.086c0,5.454,0.889,10.076,2.668,13.861c1.778,3.789,3.963,6.969,6.559,9.543
			c2.591,2.578,5.298,4.623,8.114,6.136c2.813,1.516,5.337,2.727,7.561,3.636l3.556,1.59c1.926,0.76,4.521,1.932,7.782,3.522
			c3.26,1.59,6.448,3.863,9.561,6.817c3.113,2.955,5.815,6.703,8.115,11.248c2.296,4.544,3.445,10.151,3.445,16.815
			c0,11.362-2.668,20.604-8.003,27.723C646.907,357.016,638.827,360.879,628.453,360.879z"/>
	</g>
	<g>
		<path style="fill:#272525;" d="M160.243,514.712c-3.247,0-6.524-0.503-9.835-1.513c-3.312-1.007-6.33-2.953-9.057-5.837
			c-2.727-2.881-4.937-6.81-6.622-11.782c-1.689-4.973-2.532-11.492-2.532-19.565v-68.532c0-7.924,0.842-14.41,2.532-19.457
			c1.686-5.044,3.895-8.972,6.622-11.783c2.727-2.81,5.745-4.719,9.057-5.729c3.311-1.007,6.588-1.514,9.835-1.514
			c3.117,0,6.33,0.507,9.641,1.514c3.311,1.01,6.33,2.919,9.057,5.729c2.726,2.811,4.932,6.739,6.621,11.783
			c1.687,5.047,2.532,11.532,2.532,19.457v3.459h-6.232v-3.459c0-11.096-1.82-19.166-5.454-24.213
			c-3.768-5.043-9.154-7.566-16.166-7.566c-7.142,0-12.596,2.523-16.359,7.566c-3.637,5.047-5.454,13.118-5.454,24.213v68.532
			c0,11.1,1.881,19.241,5.648,24.429c3.505,5.046,8.892,7.567,16.165,7.567c7.012,0,12.398-2.521,16.166-7.567
			c3.633-5.331,5.454-13.474,5.454-24.429v-3.459h6.232v3.459c0,8.073-0.846,14.592-2.532,19.565
			c-1.689,4.972-3.895,8.901-6.621,11.782c-2.727,2.884-5.746,4.83-9.057,5.837C166.573,514.209,163.36,514.712,160.243,514.712z"/>
		<path style="fill:#272525;" d="M227.437,514.712c-3.117,0-6.33-0.503-9.642-1.513c-3.311-1.007-6.33-2.953-9.057-5.837
			c-2.726-2.881-4.936-6.81-6.621-11.782c-1.689-4.973-2.532-11.492-2.532-19.565v-68.532c0-12.393,2.27-21.905,6.816-28.537
			c4.802-6.627,11.814-9.944,21.035-9.944c9.348,0,16.359,3.317,21.034,9.944c4.674,6.486,7.011,15.999,7.011,28.537v68.532
			c0,8.073-0.846,14.592-2.532,19.565c-1.689,4.972-3.895,8.901-6.622,11.782c-2.727,2.884-5.745,4.83-9.057,5.837
			C233.961,514.209,230.68,514.712,227.437,514.712z M227.437,375.703c-7.401,0-12.791,2.523-16.166,7.566
			c-3.767,5.334-5.648,13.404-5.648,24.213v68.532c0,10.955,1.881,19.099,5.648,24.429c3.506,5.046,8.893,7.567,16.166,7.567
			c7.139,0,12.592-2.521,16.359-7.567c3.634-5.044,5.454-13.188,5.454-24.429v-68.532c0-11.096-1.82-19.166-5.454-24.213
			C240.16,378.226,234.707,375.703,227.437,375.703z"/>
		<path style="fill:#272525;" d="M294.432,514.496c-2.988,0-6.007-0.467-9.057-1.405c-3.052-0.936-5.843-2.703-8.375-5.296
			c-2.532-2.595-4.61-6.232-6.232-10.918c-1.625-4.682-2.435-10.701-2.435-18.051v-110.04h6.038v110.04
			c0,6.485,0.648,11.64,1.948,15.457c1.296,3.82,2.921,6.739,4.869,8.756c1.948,2.02,4.09,3.317,6.427,3.891
			c2.337,0.578,4.607,0.865,6.816,0.865c2.076,0,4.286-0.287,6.623-0.865c2.337-0.574,4.479-1.871,6.427-3.891
			c1.948-2.017,3.569-4.936,4.869-8.756c1.296-3.817,1.948-8.972,1.948-15.457v-110.04h6.038v110.04
			c0,7.35-0.813,13.369-2.435,18.051c-1.625,4.686-3.67,8.323-6.135,10.918c-2.468,2.594-5.258,4.36-8.375,5.296
			C300.275,514.029,297.287,514.496,294.432,514.496z"/>
		<path style="fill:#272525;" d="M342.927,514.712h-6.038V369.001h23.566c10.518,0,18.242,3.172,23.177,9.513
			c4.933,6.343,7.401,15.856,7.401,28.536c0,12.685-2.468,22.197-7.401,28.538c-4.936,6.343-12.66,9.513-23.177,9.513h-17.529
			V514.712z M342.927,438.397h17.529c8.57,0,14.803-2.449,18.698-7.35c3.764-5.043,5.647-13.042,5.647-23.998
			c0-11.241-1.884-19.273-5.647-24.104c-3.768-4.827-10-7.243-18.698-7.243h-17.529V438.397z"/>
		<path style="fill:#272525;" d="M401.745,514.712V369.001h6.232v139.01h44.017v6.701H401.745z"/>
		<path style="fill:#272525;" d="M466.602,514.712h-6.232l10.322-50.588v-0.648l19.866-94.475h4.869l29.993,145.711h-6.232
			l-8.958-44.534h-34.669L466.602,514.712z M492.895,387.377l-15.775,76.098h31.745L492.895,387.377z"/>
		<path style="fill:#272525;" d="M542.755,514.712h-6.233V369.001h5.259l45.186,124.741V369.001h6.232v145.711h-5.064
			l-45.379-124.74V514.712z"/>
		<path style="fill:#272525;" d="M629.616,514.712h-22.397V369.001h22.397c10.386,0,18.113,3.459,23.178,10.377
			c4.802,6.343,7.206,15.998,7.206,28.969v67.018c0,12.972-2.404,22.629-7.206,28.969
			C647.729,511.253,640.002,514.712,629.616,514.712z M613.257,508.011h16.359c8.438,0,14.574-2.629,18.405-7.892
			c3.829-5.26,5.746-13.511,5.746-24.753v-67.018c0-11.242-1.917-19.491-5.746-24.754c-3.831-5.259-9.967-7.891-18.405-7.891
			h-16.359V508.011z"/>
	</g>
	<g>
		<path style="fill:#272525;" d="M290.49,522.446l-38.509,157.761h-6.812l-33.793-136.929l-33.794,136.929h-6.549l-39.034-157.761
			h8.383l34.056,136.929l33.794-136.929h6.549l33.794,136.929l33.27-136.929H290.49z"/>
		<path style="fill:#272525;" d="M342.619,680.207c-4.192,0-8.514-0.545-12.968-1.638c-4.453-1.09-8.514-3.197-12.182-6.319
			c-3.667-3.121-6.639-7.374-8.906-12.758c-2.272-5.383-3.406-12.441-3.406-21.182V564.11c0-13.418,3.054-23.717,9.169-30.897
			c6.459-7.175,15.891-10.767,28.293-10.767c12.574,0,22.004,3.591,28.292,10.767c6.288,7.021,9.431,17.321,9.431,30.897v74.201
			c0,8.74-1.138,15.799-3.405,21.182c-2.271,5.384-5.239,9.637-8.907,12.758c-3.668,3.122-7.728,5.229-12.182,6.319
			C351.394,679.662,346.981,680.207,342.619,680.207z M342.619,529.702c-9.956,0-17.205,2.732-21.744,8.192
			c-5.067,5.776-7.597,14.513-7.597,26.216v74.201c0,11.859,2.53,20.677,7.597,26.447c4.716,5.465,11.961,8.193,21.744,8.193
			c9.602,0,16.938-2.729,22.004-8.193c4.888-5.46,7.335-14.275,7.335-26.447V564.11c0-12.014-2.447-20.751-7.335-26.216
			C359.731,532.434,352.397,529.702,342.619,529.702z"/>
		<path style="fill:#272525;" d="M459.977,608.349c7.859,6.712,11.789,15.996,11.789,27.854v43.771h-8.383v-43.771
			c0-9.516-2.883-16.889-8.646-22.119c-5.763-5.227-13.885-7.841-24.363-7.841h-3.93h-19.647v73.731h-8.121V522.212h31.698
			c14.146,0,24.494,3.394,31.044,10.182c6.549,6.788,9.824,17.361,9.824,31.716c0,14.043-3.234,24.5-9.694,31.366
			c-2.795,2.965-6.287,5.384-10.479,7.255C454.385,604.135,457.357,606.008,459.977,608.349z M430.374,598.752
			c11.699,0,19.995-2.652,24.887-7.958c5.239-5.619,7.859-14.512,7.859-26.684c0-12.325-2.534-21.143-7.597-26.449
			c-5.068-5.303-13.45-7.959-25.149-7.959h-23.577v69.05h19.647H430.374z"/>
		<path style="fill:#272525;" d="M520.227,594.773l54.229,85.434h-9.431l-49.774-78.412l-17.814,23.642v54.771h-8.382V522.446h8.382
			v89.646l67.064-89.646h9.955L520.227,594.773z"/>
		<path style="fill:#272525;" d="M621.605,679.973c-12.573,0-22.005-3.588-28.292-10.766c-6.288-6.708-9.431-17.007-9.431-30.896
			v-3.512h8.12v3.512c0,7.803,0.958,13.966,2.882,18.49c1.921,4.527,4.323,7.957,7.204,10.299c2.883,2.34,6.066,3.863,9.563,4.565
			c3.49,0.7,6.81,1.052,9.953,1.052c9.432,0,16.721-2.925,21.875-8.777c5.148-5.852,7.728-14.004,7.728-24.46
			c0-5.617-1.093-10.335-3.274-14.16c-2.185-3.822-4.805-6.982-7.859-9.48c-3.058-2.494-6.245-4.447-9.561-5.852
			c-3.321-1.405-6.026-2.494-8.122-3.276l-4.453-1.64c-2.62-0.936-5.854-2.299-9.692-4.097c-3.845-1.792-7.558-4.289-11.134-7.489
			c-3.582-3.196-6.681-7.176-9.301-11.937c-2.619-4.759-3.929-10.57-3.929-17.438c0-11.857,3.054-21.611,9.169-29.258
			c6.982-8.427,16.504-12.64,28.554-12.64c12.399,0,21.916,3.668,28.556,11.001c6.286,7.021,9.43,17.321,9.43,30.897v3.745h-8.383
			v-3.745c0-11.857-2.532-20.675-7.597-26.449c-4.716-5.303-12.051-7.959-22.006-7.959c-9.43,0-16.681,3.2-21.742,9.598
			c-5.24,6.4-7.86,14.668-7.86,24.811c0,5.618,1.049,10.38,3.145,14.278c2.096,3.902,4.67,7.179,7.728,9.83
			c3.053,2.656,6.242,4.763,9.562,6.32c3.315,1.562,6.288,2.81,8.908,3.746l4.19,1.639c2.268,0.783,5.326,1.99,9.169,3.628
			c3.841,1.638,7.598,3.979,11.265,7.022c3.669,3.042,6.853,6.904,9.562,11.586c2.705,4.682,4.06,10.455,4.06,17.32
			c0,11.704-3.144,21.225-9.43,28.557C643.349,675.994,633.829,679.973,621.605,679.973z"/>
	</g>
	<g>
		<path style="fill:#272525;" d="M202.194,688.96v151.582h-8.382v-72.193H140.38v72.193h-8.381V688.96h8.381v72.418h53.432V688.96
			H202.194z"/>
		<path style="fill:#272525;" d="M230.479,840.542h-8.38l13.882-52.626v-0.675l26.715-98.281h6.547l40.337,151.582h-8.383
			l-12.048-46.33h-46.622L230.479,840.542z M265.838,708.076l-21.215,79.165h42.693L265.838,708.076z"/>
		<path style="fill:#272525;" d="M386.323,771.498c7.858,6.448,11.787,15.369,11.787,26.763v42.056h-8.381v-42.056
			c0-9.144-2.882-16.228-8.645-21.253c-5.76-5.022-13.882-7.535-24.358-7.535h-3.929h-19.644v70.844h-8.12V688.734h31.692
			c14.144,0,24.491,3.261,31.038,9.784c6.548,6.521,9.822,16.68,9.822,30.473c0,13.494-3.232,23.541-9.692,30.138
			c-2.794,2.849-6.285,5.172-10.476,6.971C380.732,767.449,383.704,769.25,386.323,771.498z M356.726,762.276
			c11.696,0,19.991-2.547,24.883-7.646c5.238-5.398,7.857-13.943,7.857-25.639c0-11.843-2.532-20.314-7.594-25.413
			c-5.068-5.096-13.449-7.647-25.146-7.647h-23.573v66.346h19.644H356.726z"/>
		<path style="fill:#272525;" d="M446.562,840.542h-30.121V688.96h30.121c13.969,0,24.359,3.598,31.168,10.794
			c6.459,6.601,9.691,16.644,9.691,30.138v69.719c0,13.494-3.232,23.54-9.691,30.137
			C470.922,836.943,460.531,840.542,446.562,840.542z M424.562,833.569h22.001c11.35,0,19.6-2.733,24.752-8.208
			c5.148-5.472,7.728-14.056,7.728-25.751v-69.719c0-11.694-2.579-20.276-7.728-25.751c-5.152-5.472-13.402-8.21-24.752-8.21
			h-22.001V833.569z"/>
		<path style="fill:#272525;" d="M515.185,695.931v65.222h55.265v6.972h-55.265v65.445h55.265v6.973h-63.384V688.96h63.384v6.971
			H515.185z"/>
		<path style="fill:#272525;" d="M647.979,771.498c7.856,6.448,11.785,15.369,11.785,26.763v42.056h-8.381v-42.056
			c0-9.144-2.881-16.228-8.644-21.253c-5.762-5.022-13.882-7.535-24.359-7.535h-3.929h-19.643v70.844h-8.121V688.734h31.692
			c14.146,0,24.491,3.261,31.039,9.784c6.547,6.521,9.821,16.68,9.821,30.473c0,13.494-3.231,23.541-9.691,30.138
			c-2.797,2.849-6.285,5.172-10.476,6.971C642.388,767.449,645.357,769.25,647.979,771.498z M618.38,762.276
			c11.698,0,19.992-2.547,24.884-7.646c5.238-5.398,7.857-13.943,7.857-25.639c0-11.843-2.533-20.314-7.597-25.413
			c-5.064-5.096-13.446-7.647-25.145-7.647h-23.571v66.346h19.643H618.38z"/>
	</g>
	<g>
		<path style="fill:#272525;" d="M199.963,857.146H168.86v157.66h-5.952v-157.66h-30.91v-7.857h67.964V857.146z"/>
		<path style="fill:#272525;" d="M261.397,849.535v165.518h-6.144v-78.83h-39.166v78.83h-6.144V849.535h6.144v79.074h39.166v-79.074
			H261.397z"/>
		<path style="fill:#272525;" d="M282.13,1015.053h-6.144l10.176-57.465v-0.736l19.583-107.316h4.8l29.566,165.518h-6.144
			l-8.832-50.59h-34.173L282.13,1015.053z M308.049,870.409l-15.551,86.442h31.294L308.049,870.409z"/>
		<path style="fill:#272525;" d="M357.198,1015.053h-6.143V849.535h5.183l44.542,141.697V849.535h6.143v165.518h-4.991
			l-44.734-141.697V1015.053z"/>
		<path style="fill:#272525;" d="M534.783,849.535l-35.903,83.739v81.778h-5.949v-81.778l-36.095-83.739h6.912l32.062,74.654
			l32.061-74.654H534.783z"/>
		<path style="fill:#272525;" d="M568.188,1015.053c-3.072,0-6.239-0.572-9.504-1.719c-3.266-1.144-6.24-3.354-8.928-6.63
			c-2.687-3.274-4.867-7.737-6.526-13.386c-1.665-5.646-2.498-13.052-2.498-22.224v-77.85c0-14.077,2.237-24.884,6.72-32.415
			c4.735-7.528,11.647-11.295,20.736-11.295c9.215,0,16.127,3.767,20.734,11.295c4.606,7.367,6.912,18.173,6.912,32.415v77.85
			c0,9.172-0.835,16.577-2.498,22.224c-1.665,5.648-3.84,10.111-6.526,13.386c-2.688,3.275-5.662,5.486-8.928,6.63
			C574.618,1014.48,571.386,1015.053,568.188,1015.053z M568.188,857.146c-7.297,0-12.609,2.868-15.937,8.596
			c-3.712,6.061-5.567,15.227-5.567,27.504v77.85c0,12.444,1.855,21.695,5.567,27.749c3.457,5.734,8.768,8.595,15.937,8.595
			c7.037,0,12.412-2.86,16.127-8.595c3.582-5.729,5.374-14.978,5.374-27.749v-77.85c0-12.604-1.792-21.771-5.374-27.504
			C580.73,860.014,575.354,857.146,568.188,857.146z"/>
		<path style="fill:#272525;" d="M634.23,1014.806c-2.945,0-5.923-0.528-8.928-1.595c-3.01-1.063-5.76-3.069-8.257-6.016
			c-2.495-2.947-4.545-7.081-6.143-12.403c-1.602-5.316-2.399-12.155-2.399-20.506V849.288h5.952v124.998
			c0,7.367,0.638,13.224,1.92,17.561c1.277,4.339,2.88,7.654,4.8,9.946c1.92,2.293,4.029,3.767,6.335,4.419
			c2.305,0.657,4.542,0.983,6.72,0.983c2.044,0,4.225-0.326,6.526-0.983c2.305-0.652,4.418-2.126,6.337-4.419
			c1.92-2.292,3.518-5.607,4.8-9.946c1.278-4.337,1.92-10.193,1.92-17.561V849.288h5.95v124.998c0,8.351-0.8,15.189-2.4,20.506
			c-1.6,5.322-3.617,9.456-6.047,12.403c-2.433,2.946-5.182,4.952-8.255,6.016C639.989,1014.277,637.045,1014.806,634.23,1014.806z"
			/>
	</g>
</g>
<g id="Guides">
</g>
</svg>
