<?xml version="1.0" encoding="iso-8859-1"?>
<!-- Generator: Adobe Illustrator 15.1.0, SVG Export Plug-In . SVG Version: 6.00 Build 0)  -->
<!DOCTYPE svg PUBLIC "-//W3C//DTD SVG 1.1//EN" "http://www.w3.org/Graphics/SVG/1.1/DTD/svg11.dtd">
<svg version="1.1" id="Layer_1" xmlns="http://www.w3.org/2000/svg" xmlns:xlink="http://www.w3.org/1999/xlink" x="0px" y="0px"
	 width="792px" height="1224px" viewBox="0 0 792 1224" style="enable-background:new 0 0 792 1224;" xml:space="preserve">
<g>
	<path style="fill:#272525;" d="M147.174,206.98c20.083,0,48.271,7.233,48.271,64.912c0,55.454-27.834,64.912-48.271,64.912h-13.037
		c-1.409,0-2.466-1.669-2.466-3.153V210.319c0-1.669,1.057-3.338,2.466-3.338H147.174z M149.758,309.541
		c9.513,0.557,27.482-1.854,27.482-37.649c0-27.448-11.862-38.02-27.482-37.649V309.541z"/>
	<path style="fill:#272525;" d="M287.758,271.354c0,31.808-13.624,63.974-40.401,63.974c-27.13,0-40.52-32.166-40.52-63.974
		c0-31.807,13.389-63.794,40.52-63.794C274.134,207.56,287.758,239.547,287.758,271.354z M269.789,271.714
		c0-19.408-7.634-38.816-22.432-38.816c-14.916,0-22.433,19.408-22.433,38.816c0,19.229,7.517,38.277,22.433,38.277
		C262.154,309.991,269.789,290.942,269.789,271.714z"/>
	<path style="fill:#272525;" d="M370.559,206.98c1.527,0,2.467,1.644,2.467,3.286v72.475c0,1.278-0.118,13.874-4.111,26.288
		c-5.755,17.525-16.56,27.566-30.771,27.566c-13.859,0-25.016-10.771-30.889-27.749c-3.875-12.231-4.111-24.828-4.111-26.105
		v-72.475c0-1.643,1.057-3.286,2.467-3.286H370.559z M355.174,282.558v-50.75h-34.06v50.933c0,0,0,7.12,2.466,14.604
		c3.054,8.398,7.869,12.597,14.563,12.597c6.812,0,11.51-4.016,14.446-12.597C355.056,290.226,355.174,282.741,355.174,282.558z"/>
	<path style="fill:#272525;" d="M461.933,260.548c1.409,0,2.35,1.623,2.35,3.065v68.705c0,1.623-0.94,3.245-2.35,3.245h-11.392
		c-1.292,0-2.584-1.262-2.584-3.065c-0.118-3.606-0.235-2.705-0.235-6.492c-5.402,7.574-11.979,10.819-20.201,10.819
		c-22.314,0-39.814-23.802-39.814-64.918c0-37.507,18.674-64.917,41.576-64.917c11.275,0,22.08,7.574,29.362,18.574
		c0.587,1.262,0.587,3.787-0.235,4.869l-9.16,13.885c-0.94,1.262-2.467,1.082-3.172-0.181c-4.345-6.672-10.335-10.819-16.795-10.819
		c-12.919,0-23.489,14.245-23.489,38.589c0,27.049,10.57,38.591,23.489,38.591c6.577,0,12.567-4.509,17.03-11.721v-13.525h-11.51
		c-1.527,0-2.584-1.262-2.584-3.066v-18.573c0-1.442,1.057-3.065,2.584-3.065H461.933z"/>
	<path style="fill:#272525;" d="M525.003,309.562c1.526,0,2.583,1.666,2.583,3.333v20.553c0,1.481-1.057,3.148-2.583,3.148h-42.046
		c-1.41,0-2.467-1.667-2.467-3.148V210.313c0-1.667,1.057-3.333,2.467-3.333h13.153c1.409,0,2.467,1.667,2.467,3.333v99.249H525.003
		z"/>
	<path style="fill:#272525;" d="M577.148,322.311h-23.489l-2.936,12.5v-0.181c-0.235,1.268-1.292,2.174-2.467,2.174h-13.976
		c-1.997,0-2.819-2.174-2.232-4.348c10.101-39.857,21.023-83.338,31.124-123.194c0.822-2.718,3.758-2.718,4.58,0l31.124,123.194
		c0.587,2.174-0.353,4.348-2.114,4.348h-14.211c-0.939,0-1.997-0.906-2.231-2.174v0.181L577.148,322.311z M558.357,300.389h14.094
		l-4.11-18.842c-1.175-5.978-2.114-11.232-2.819-17.573c-0.822,6.703-1.762,12.138-2.936,17.573L558.357,300.389z"/>
	<path style="fill:#272525;" d="M603.575,298.855c0-1.62,1.057-3.239,2.466-3.239h13.037c1.292,0,2.466,1.619,2.466,3.239
		c0.235,7.738,4.346,11.697,8.927,11.697c4.815,0,8.926-4.859,8.926-12.237c0-8.098-4.815-12.957-8.926-13.497
		c-0.705,0-6.577,0-12.802-4.319c-8.926-6.479-14.094-17.996-14.094-33.472c0-24.654,13.154-39.771,26.896-39.771
		c14.798,0,26.425,15.296,26.66,37.611c0,1.26-1.057,3.06-2.584,3.06h-12.802c-1.292,0-2.584-1.8-2.584-3.06
		c-0.234-7.557-4.11-11.337-8.69-11.337c-4.815,0-8.927,4.5-8.927,13.497c0,7.918,4.346,12.057,8.927,12.057
		c0.587,0,6.694,0,12.684,4.319c9.278,6.479,14.211,19.436,14.211,34.912c0,24.655-13.036,38.511-26.895,38.511
		C615.555,336.286,603.81,322.97,603.575,298.855z"/>
</g>
<g>
	<path style="fill:#272525;" d="M184.841,435.68c0.743-1.084,2.228-0.904,3.29,0.543l8.064,13.748c0.318,1.267,0.53,3.799,0,4.703
		c-6.685,10.853-16.341,18.451-26.528,18.451c-20.797,0-37.668-25.324-37.668-65.12c0-38.167,15.705-65.121,37.668-65.121
		c10.187,0,19.843,7.598,26.528,18.632c0.424,1.266,0.424,3.798-0.213,4.883l-8.276,13.929c-0.849,1.085-2.123,1.085-2.865,0
		c-4.032-6.874-9.337-11.034-15.174-11.034c-13.263,0-21.222,16.461-21.222,38.71c0,23.877,9.55,38.71,21.222,38.71
		C175.504,446.714,180.809,442.554,184.841,435.68z"/>
	<path style="fill:#272525;" d="M205.639,391.345c0-26.447,12.839-48.303,28.543-48.303c15.598,0,28.437,21.856,28.437,48.303
		c0,26.631-12.839,47.936-28.437,47.936C218.478,439.281,205.639,417.977,205.639,391.345z M259.435,469.953
		c0,1.47-0.955,3.123-2.333,3.123h-46.477c-1.379,0-2.228-1.653-2.228-3.123V449.75c0-1.653,0.849-3.306,2.228-3.306h46.477
		c1.379,0,2.333,1.653,2.333,3.306V469.953z M221.874,391.345c0,12.306,5.517,21.305,12.309,21.305c6.791,0,12.202-9,12.202-21.305
		c0-12.122-5.411-21.672-12.202-21.672C227.391,369.673,221.874,379.224,221.874,391.345z"/>
	<path style="fill:#272525;" d="M275.882,429.009v-82.596c0-1.678,0.955-3.356,2.228-3.356h11.566c1.273,0,2.229,1.678,2.229,3.356
		v82.223c0.955,11,6.26,17.526,12.202,17.526c6.049,0,12.097-5.593,12.097-17.153v-82.596c0-1.678,0.955-3.356,2.228-3.356h11.673
		c1.167,0,2.122,1.678,2.122,3.356v82.596c0,27.78-12.203,44.001-28.119,44.001C288.51,473.01,275.882,456.043,275.882,429.009z"/>
	<path style="fill:#272525;" d="M399.606,382.238c0,39.381-25.678,39.381-25.678,39.381h-9.55v48.298
		c0,1.486-0.955,3.158-2.228,3.158h-11.778c-1.379,0-2.228-1.672-2.228-3.158v-72.076c0-1.672,0.849-3.343,2.228-3.343h7.534
		c-1.91-5.016-3.608-10.031-5.518-15.047c-1.273-3.901-2.971-8.174-4.244-12.074v-20.991c0-1.672,0.849-3.344,2.228-3.344h23.557
		C373.929,343.042,399.606,343.042,399.606,382.238z M366.819,370.164l8.701,24.148c3.184-0.743,7.853-4.086,7.853-12.074
		c0-12.074-7.534-12.074-9.444-12.074H366.819z"/>
	<path style="fill:#272525;" d="M450.008,445.913c1.38,0,2.336,1.674,2.336,3.349v20.651c0,1.488-0.956,3.163-2.336,3.163h-37.986
		c-1.272,0-2.229-1.674-2.229-3.163V346.191c0-1.675,0.956-3.349,2.229-3.349h11.885c1.272,0,2.229,1.674,2.229,3.349v99.721
		H450.008z"/>
	<path style="fill:#272525;" d="M497.12,458.578h-21.222l-2.651,12.504V470.9c-0.212,1.269-1.167,2.175-2.229,2.175h-12.626
		c-1.804,0-2.547-2.175-2.017-4.349c9.126-39.867,18.994-83.358,28.119-123.225c0.742-2.718,3.395-2.718,4.138,0l28.119,123.225
		c0.531,2.174-0.318,4.349-1.909,4.349h-12.839c-0.85,0-1.805-0.906-2.017-2.175v0.182L497.12,458.578z M480.143,436.651h12.733
		l-3.713-18.846c-1.061-5.98-1.91-11.235-2.547-17.578c-0.743,6.705-1.591,12.141-2.652,17.578L480.143,436.651z"/>
	<path style="fill:#272525;" d="M586.995,469.94c0,1.476-0.849,3.135-2.229,3.135h-11.884c-0.423,0-1.379-0.369-1.803-1.292
		c-10.823-26.925-20.055-49.978-30.983-77.088v75.245c0,1.476-0.956,3.135-2.229,3.135h-11.885c-1.273,0-2.229-1.66-2.229-3.135
		V347.299c0-1.66,0.955-3.319,2.229-3.319h11.991c0.424,0,1.379,0.369,1.803,1.291c10.611,26.557,20.372,50.164,31.09,76.904
		v-74.875c0-1.66,0.849-3.319,2.229-3.319h11.671c1.38,0,2.229,1.66,2.229,3.319V469.94z"/>
	<path style="fill:#272525;" d="M616.389,343.245c18.146,0,43.611,7.233,43.611,64.915c0,55.456-25.147,64.915-43.611,64.915H604.61
		c-1.273,0-2.228-1.669-2.228-3.153V346.583c0-1.669,0.954-3.338,2.228-3.338H616.389z M618.723,445.811
		c8.596,0.556,24.829-1.855,24.829-37.651c0-27.45-10.716-38.022-24.829-37.651V445.811z"/>
</g>
<g>
	<path style="fill:#272525;" d="M238.548,606.126c-0.891,2.651-4.601,2.651-5.491,0l-28.197-87.507
		c-9.201,29.169-18.699,58.338-28.047,87.507c-0.891,2.651-5.046,2.651-5.788-0.177l0.149,0.177l-39.327-122.333
		c-0.742-1.945,0.89-4.243,2.82-4.243h17.808c1.335,0,2.671,0.884,2.819,2.121c6.53,21.214,12.169,40.837,18.699,62.228
		l19.886-62.404v0.177c0.297-1.237,1.484-2.121,2.82-2.121h16.472c1.335,0,2.671,0.884,2.968,2.121v-0.177l19.737,62.758
		l18.698-62.581c0.297-1.237,1.633-2.121,2.969-2.121h17.659c2.523,0,3.71,2.121,2.968,4.243L238.548,606.126z"/>
	<path style="fill:#272525;" d="M389.33,544.159c0,32.281-17.214,64.928-51.05,64.928c-34.281,0-51.198-32.647-51.198-64.928
		c0-32.282,16.917-64.747,51.198-64.747C372.116,479.413,389.33,511.877,389.33,544.159z M366.625,544.523
		c0-19.697-9.646-39.395-28.345-39.395c-18.847,0-28.345,19.697-28.345,39.395c0,19.515,9.498,38.848,28.345,38.848
		C356.979,583.371,366.625,564.039,366.625,544.523z"/>
	<path style="fill:#272525;" d="M463.536,608.738c-0.892,0-2.523-0.922-2.82-1.845l0.148,0.185l-24.932-49.436h-4.451v47.96
		c0,1.476-1.188,3.136-3.116,3.136h-16.473c-1.781,0-3.117-1.66-3.117-3.136v-71.571c0-1.66,1.336-3.32,3.117-3.32h10.685
		c-1.929-4.058-4.155-7.747-6.233-11.805l-7.568-15.126v-20.844c0-1.661,1.336-3.32,3.117-3.32h32.944c0,0,36.062,0,36.062,38.921
		c0,21.767-10.685,31.359-20.479,35.602l24.931,49.804v-0.185c1.336,2.398,0,4.98-2.375,4.98H463.536z M447.657,530.526
		c4.748-0.369,10.388-2.951,10.388-11.99c0-11.99-10.388-11.99-13.208-11.99h-9.35L447.657,530.526z"/>
	<path style="fill:#272525;" d="M543.231,545.516l39.772,58.367c1.78,2.401,0.296,5.172-2.375,5.172h-21.666
		c-0.594,0-2.227-0.924-2.522-1.292l-28.048-43.221l-1.337,2.032v-0.185c-1.632,2.216-2.967,4.433-4.748,6.649v32.878
		c0,1.477-1.335,3.14-3.116,3.14h-16.473c-1.93,0-3.265-1.663-3.265-3.14V483.086c0-1.663,1.335-3.325,3.265-3.325h16.473
		c1.781,0,3.116,1.662,3.116,3.325v51.348c11.575-17.917,23.3-35.648,34.875-53.379c0.296-0.37,1.929-1.293,2.522-1.293h20.628
		c2.671,0,4.154,2.771,2.374,5.172L543.231,545.516z"/>
	<path style="fill:#272525;" d="M591.615,570.379c0-1.604,1.336-3.208,3.117-3.208h16.473c1.632,0,3.116,1.604,3.116,3.208
		c0.296,7.663,5.49,11.584,11.278,11.584c6.084,0,11.278-4.812,11.278-12.119c0-8.02-6.085-12.832-11.278-13.366
		c-0.891,0-8.312,0-16.176-4.277c-11.278-6.416-17.809-17.821-17.809-33.147c0-24.415,16.621-39.385,33.984-39.385
		c18.698,0,33.39,15.148,33.687,37.246c0,1.248-1.335,3.03-3.265,3.03h-16.176c-1.632,0-3.265-1.782-3.265-3.03
		c-0.297-7.485-5.194-11.227-10.981-11.227c-6.085,0-11.278,4.455-11.278,13.366c0,7.842,5.49,11.94,11.278,11.94
		c0.742,0,8.459,0,16.026,4.277c11.725,6.416,17.957,19.247,17.957,34.573c0,24.415-16.473,38.137-33.983,38.137
		C606.752,607.447,591.913,594.26,591.615,570.379z"/>
</g>
<g>
	<path style="fill:#272525;" d="M207.69,615.488c1.887,0,3.192,1.659,3.192,3.318v122.586c0,1.475-1.306,3.134-3.192,3.134h-16.105
		c-1.741,0-3.047-1.659-3.047-3.134v-47.929h-33.953v47.929c0,1.475-1.306,3.134-3.192,3.134h-16.106
		c-1.74,0-3.046-1.659-3.046-3.134V618.807c0-1.659,1.306-3.318,3.046-3.318h16.106c1.886,0,3.192,1.659,3.192,3.318v47.559h33.953
		v-47.559c0-1.659,1.306-3.318,3.047-3.318H207.69z"/>
	<path style="fill:#272525;" d="M277.917,729.991h-29.019l-3.627,12.475v-0.181c-0.29,1.266-1.596,2.17-3.047,2.17h-17.266
		c-2.467,0-3.482-2.17-2.757-4.34c12.479-39.777,25.973-83.171,38.451-122.946c1.016-2.713,4.643-2.713,5.659,0l38.451,122.946
		c0.726,2.17-0.435,4.34-2.611,4.34h-17.557c-1.161,0-2.466-0.904-2.756-2.17v0.181L277.917,729.991z M254.701,708.113h17.412
		l-5.078-18.803c-1.451-5.969-2.612-11.21-3.482-17.539c-1.016,6.689-2.177,12.114-3.627,17.539L254.701,708.113z"/>
	<path style="fill:#272525;" d="M367.876,744.453c-0.87,0-2.466-0.924-2.756-1.848l0.145,0.186l-24.376-49.499h-4.353v48.021
		c0,1.479-1.161,3.141-3.047,3.141h-16.105c-1.742,0-3.047-1.662-3.047-3.141v-71.661c0-1.662,1.306-3.324,3.047-3.324h10.447
		c-1.886-4.063-4.063-7.758-6.094-11.82l-7.4-15.145v-20.871c0-1.663,1.306-3.324,3.047-3.324h32.211c0,0,35.259,0,35.259,38.97
		c0,21.794-10.447,31.398-20.023,35.646l24.376,49.867v-0.184c1.306,2.4,0,4.986-2.321,4.986H367.876z M352.352,666.142
		c4.643-0.368,10.157-2.954,10.157-12.005c0-12.005-10.157-12.005-12.914-12.005h-9.141L352.352,666.142z"/>
	<path style="fill:#272525;" d="M422.144,615.167c24.812,0,59.635,7.206,59.635,64.679c0,55.254-34.389,64.679-59.635,64.679
		h-16.106c-1.74,0-3.046-1.663-3.046-3.143V618.493c0-1.664,1.306-3.326,3.046-3.326H422.144z M425.336,717.359
		c11.753,0.555,33.952-1.848,33.952-37.514c0-27.35-14.655-37.884-33.952-37.514V717.359z"/>
	<path style="fill:#272525;" d="M521.243,641.607v24.778h37.145c1.741,0,2.902,1.663,2.902,3.327v19.971
		c0,1.479-1.161,3.143-2.902,3.143h-37.145v24.777h45.124c1.888,0,3.193,1.664,3.193,3.328v20.523c0,1.48-1.306,3.145-3.193,3.145
		h-64.276c-1.887,0-3.048-1.664-3.048-3.145v-122.96c0-1.665,1.161-3.328,3.048-3.328h63.116c1.741,0,3.048,1.663,3.048,3.328
		v19.784c0,1.665-1.307,3.328-3.048,3.328H521.243z"/>
	<path style="fill:#272525;" d="M638.047,744.845c-0.872,0-2.467-0.927-2.757-1.853l0.145,0.186l-24.377-49.649h-4.353v48.166
		c0,1.483-1.16,3.15-3.047,3.15h-16.105c-1.741,0-3.047-1.667-3.047-3.15v-71.879c0-1.666,1.306-3.333,3.047-3.333H598
		c-1.887-4.075-4.062-7.782-6.094-11.856l-7.4-15.19v-20.934c0-1.668,1.306-3.335,3.047-3.335h32.211c0,0,35.26,0,35.26,39.088
		c0,21.86-10.447,31.493-20.024,35.754l24.377,50.019v-0.185c1.306,2.407,0,5.002-2.322,5.002H638.047z M622.521,666.297
		c4.644-0.37,10.157-2.964,10.157-12.042c0-12.041-10.157-12.041-12.914-12.041h-9.141L622.521,666.297z"/>
</g>
<g>
	<path style="fill:#272525;" d="M228.854,773.382c0,1.478-2.013,3.141-4.92,3.141h-26.396v101.062c0,1.478-2.013,3.141-4.921,3.141
		h-24.604c-2.685,0-4.698-1.663-4.698-3.141V776.522h-26.618c-2.685,0-4.698-1.663-4.698-3.141v-18.661
		c0-1.662,2.013-3.324,4.698-3.324h87.237c2.908,0,4.92,1.662,4.92,3.324V773.382z"/>
	<path style="fill:#272525;" d="M362.171,751.123c2.908,0,4.921,1.667,4.921,3.333v123.121c0,1.481-2.014,3.148-4.921,3.148h-24.829
		c-2.685,0-4.697-1.667-4.697-3.148v-48.138h-52.343v48.138c0,1.481-2.013,3.148-4.921,3.148h-24.829
		c-2.684,0-4.697-1.667-4.697-3.148V754.456c0-1.666,2.013-3.333,4.697-3.333h24.829c2.908,0,4.921,1.667,4.921,3.333v47.767h52.343
		v-47.767c0-1.666,2.013-3.333,4.697-3.333H362.171z"/>
	<path style="fill:#272525;" d="M470.434,866.284h-44.737l-5.592,12.456v-0.181c-0.447,1.263-2.46,2.166-4.696,2.166h-26.619
		c-3.803,0-5.368-2.166-4.25-4.333c19.237-39.713,40.04-83.034,59.277-122.746c1.565-2.708,7.157-2.708,8.724,0l59.275,122.746
		c1.118,2.167-0.671,4.333-4.025,4.333h-27.066c-1.79,0-3.803-0.903-4.25-2.166v0.181L470.434,866.284z M434.645,844.443h26.843
		l-7.83-18.773c-2.237-5.956-4.025-11.191-5.369-17.51c-1.564,6.679-3.354,12.095-5.592,17.51L434.645,844.443z"/>
	<path style="fill:#272525;" d="M659.894,877.578c0,1.48-1.788,3.147-4.696,3.147h-25.054c-0.894,0-2.907-0.37-3.802-1.297
		c-22.815-27.029-42.276-50.172-65.315-77.387v75.536c0,1.48-2.014,3.147-4.698,3.147h-25.052c-2.685,0-4.698-1.667-4.698-3.147
		V754.462c0-1.666,2.014-3.332,4.698-3.332h25.275c0.896,0,2.908,0.37,3.804,1.295c22.368,26.659,42.947,50.357,65.539,77.202
		v-75.165c0-1.666,1.789-3.332,4.697-3.332h24.605c2.908,0,4.696,1.666,4.696,3.332V877.578z"/>
</g>
<g>
	<path style="fill:#272525;" d="M307.88,887.792c5.033,0,7.549,2.94,4.473,5.147h0.28l-68.783,63.409v56.978
		c0,1.471-2.236,3.125-5.872,3.125h-31.036c-3.355,0-5.872-1.654-5.872-3.125v-56.978c-12.303-11.579-25.444-23.157-37.747-34.737
		c-10.066-9.189-20.97-19.482-31.036-28.672h0.279c-3.076-2.207-0.559-5.147,4.474-5.147h37.747c1.398,0,3.915,0.368,5.033,1.287
		c14.54,13.602,27.96,25.364,42.78,38.966l42.5-38.966c1.118-0.735,3.635-1.287,4.753-1.287H307.88z"/>
	<path style="fill:#272525;" d="M326.331,935.63c0-26.153,33.832-47.766,75.214-47.766c41.102,0,74.934,21.612,74.934,47.766
		c0,26.335-33.832,47.403-74.934,47.403C360.163,983.033,326.331,961.965,326.331,935.63z M468.09,1013.362
		c0,1.454-2.517,3.089-6.15,3.089H339.472c-3.635,0-5.872-1.635-5.872-3.089v-19.978c0-1.635,2.237-3.27,5.872-3.27h122.467
		c3.634,0,6.15,1.635,6.15,3.27V1013.362z M369.11,935.63c0,12.169,14.539,21.067,32.435,21.067
		c17.895,0,32.154-8.898,32.154-21.067c0-11.986-14.26-21.431-32.154-21.431C383.649,914.199,369.11,923.644,369.11,935.63z"/>
	<path style="fill:#272525;" d="M511.424,972.476v-81.362c0-1.653,2.517-3.306,5.872-3.306h30.477c3.355,0,5.871,1.652,5.871,3.306
		v80.996c2.518,10.835,16.497,17.263,32.155,17.263c15.938,0,31.875-5.509,31.875-16.896v-81.362c0-1.653,2.516-3.306,5.871-3.306
		h30.756c3.076,0,5.593,1.652,5.593,3.306v81.362c0,27.366-32.154,43.345-74.095,43.345
		C544.697,1015.82,511.424,999.106,511.424,972.476z"/>
</g>
</svg>
