<?xml version="1.0" encoding="iso-8859-1"?>
<!-- Generator: Adobe Illustrator 15.1.0, SVG Export Plug-In . SVG Version: 6.00 Build 0)  -->
<!DOCTYPE svg PUBLIC "-//W3C//DTD SVG 1.1//EN" "http://www.w3.org/Graphics/SVG/1.1/DTD/svg11.dtd">
<svg version="1.1" xmlns="http://www.w3.org/2000/svg" xmlns:xlink="http://www.w3.org/1999/xlink" x="0px" y="0px" width="792px"
	 height="1224px" viewBox="0 0 792 1224" style="enable-background:new 0 0 792 1224;" xml:space="preserve">
<g id="Layer_1">
	<g>
		<path style="fill:#272525;" d="M206.482,239.369l-6.439,88.963c-0.696,8.891-3.888,16.495-9.571,22.813
			c-5.686,6.322-12.242,9.48-19.665,9.48h-38.808l10.268-139.59h-6.787l1.044-13.959h45.422c7.423,0,13.543,3.161,18.359,9.479
			C205.117,222.877,207.179,230.481,206.482,239.369z M183.685,235.41c0.348-3.887-0.552-7.256-2.698-10.104
			c-2.148-2.846-4.902-4.271-8.266-4.271h-7.309l-9.224,125.84h7.309c3.248,0,6.148-1.423,8.702-4.271
			c2.551-2.846,4.003-6.215,4.351-10.105L183.685,235.41z"/>
		<path style="fill:#272525;" d="M285.141,239.369l-6.613,88.963c-0.696,9.167-4.003,16.739-9.919,22.709
			c-6.265,6.39-14.156,9.583-23.668,9.583h-7.657c-9.397,0-16.767-3.194-22.102-9.583c-5.221-5.97-7.483-13.542-6.788-22.709
			l6.439-88.963c0.696-9.167,4.147-16.841,10.354-23.022c6.206-6.178,14.009-9.271,23.407-9.271h7.483
			c9.398,0,16.764,3.093,22.102,9.271C283.514,222.528,285.836,230.202,285.141,239.369z M262.169,235.41
			c0.231-3.887-0.696-7.256-2.785-10.104c-2.088-2.846-4.758-4.271-8.005-4.271c-3.25,0-6.151,1.426-8.702,4.271
			c-2.553,2.848-4.002,6.217-4.351,10.104l-7.135,97.088c-0.349,3.89,0.549,7.259,2.697,10.105c2.146,2.848,4.9,4.271,8.267,4.271
			c3.364,0,6.322-1.387,8.875-4.167c2.551-2.777,3.943-6.179,4.177-10.209L262.169,235.41z"/>
		<path style="fill:#272525;" d="M366.759,207.076l-9.397,130.215c0,0.696,0,1.39,0,2.083c0,4.863,2.437,7.292,7.309,7.292
			l-1.044,13.958h-10.268c-6.381,0-11.371-2.011-14.966-6.042c-6.15,4.031-12.821,6.042-20.013,6.042
			c-7.542,0-13.981-2.22-19.316-6.667c-6.034-5-9.049-11.876-9.049-20.626c0-0.834,0-1.595,0-2.292l8.005-110.006h-6.265
			l1.044-13.75h29.411l-8.876,122.089c0,0.834,0,1.599,0,2.292c0,9.306,3.19,13.959,9.572,13.959c3.364,0,6.148-1.804,8.354-5.417
			c1.971-3.193,3.073-6.804,3.307-10.833l8.701-122.298H366.759z"/>
		<path style="fill:#272525;" d="M453.425,207.076l-1.045,10.808h-41.419c-2.088,0-3.915,0.888-5.481,2.661
			c-1.565,1.775-2.466,4.061-2.697,6.855l-7.135,75.654c-0.465,4.302,0.521,7.581,2.958,9.839c2.202,1.831,5.047,2.637,8.527,2.419
			c3.48-0.214,6.583-1.452,9.311-3.71c2.725-2.258,4.264-5.106,4.611-8.549l4.003-41.94h23.32l-7.31,77.104
			c-0.582,6.345-4.09,11.776-10.529,16.292c-6.438,4.516-13.835,6.775-22.188,6.775h-23.493l1.044-10.808h18.969
			c3.364,0,6.265-1.185,8.701-3.549c2.437-2.366,3.829-5.271,4.177-8.711l1.566-15.808c-4.177,2.367-8.701,3.549-13.574,3.549
			c-5.337,0-9.049-0.162-11.138-0.484c-6.613-0.968-12.007-3.332-16.184-7.097c-4.642-4.195-6.673-9.301-6.091-15.324l6.787-72.911
			c0.696-7.203,4.06-12.958,10.093-17.26c5.452-3.872,12.065-5.807,19.839-5.807H453.425z"/>
		<path style="fill:#272525;" d="M511.722,346.667l-0.87,13.958h-36.546c-5.686,0-10.211-1.839-13.575-5.521
			c-3.365-3.678-4.815-9.062-4.351-16.147l8.528-117.922h-6.439l1.045-13.959h29.584l-9.396,131.881
			c-0.35,5.141,1.622,7.709,5.916,7.709H511.722z"/>
		<path style="fill:#272525;" d="M592.816,239.369l-7.311,99.588c-0.347,5,1.333,7.572,5.049,7.709l-1.045,13.958h-9.225
			c-5.801,0-10.326-1.734-13.573-5.208c-3.599-3.887-5.107-9.375-4.524-16.46l2.609-35.418h-21.058l-4.176,57.086h-23.145
			l8.876-121.256c0.809-11.111,5.277-19.513,13.398-25.21c6.496-4.721,14.038-7.083,22.623-7.083c8.586,0,15.838,2.363,21.754,7.083
			C590.38,219.993,593.627,228.398,592.816,239.369z M569.844,235.41c0.349-4.027-0.347-7.429-2.087-10.209
			c-1.74-2.776-4.237-4.167-7.484-4.167c-3.132,0-5.742,1.391-7.831,4.167c-2.088,2.78-3.307,6.182-3.653,10.209l-4.004,54.17
			h21.058L569.844,235.41z"/>
		<path style="fill:#272525;" d="M657.031,207.076l-1.044,13.959H644.85c-5.803,0-9.863,0.905-12.182,2.709
			c-4.412,3.473-6.614,8.057-6.614,13.75c0,5.417,1.74,10.833,5.221,16.25l21.406,33.335c5.222,8.057,7.832,17.432,7.832,28.126
			c0,14.307-4.587,25.766-13.75,34.376c-7.772,7.364-17.75,11.042-29.932,11.042h-17.229l1.217-13.958h14.967
			c6.844,0,12.123-1.908,15.837-5.729c3.712-3.819,5.567-8.715,5.567-14.688c0-6.251-1.912-12.501-5.741-18.751l-24.016-39.793
			c-3.367-5.554-5.048-11.944-5.048-19.168c0-12.777,4.292-23.195,12.88-31.251c7.191-6.804,16.009-10.208,26.45-10.208H657.031z"/>
	</g>
	<g>
		<path style="fill:#272525;" d="M188.548,369.395l-0.89,13.212h-22.989c-1.779,0-3.362,1.085-4.746,3.254
			c-1.385,2.169-2.175,4.964-2.373,8.381l-6.081,92.485c-0.397,5.259,0.493,9.268,2.669,12.028c1.78,2.237,4.202,3.223,7.268,2.958
			c2.966-0.262,5.611-1.775,7.935-4.536c2.322-2.761,3.634-6.243,3.93-10.451h9.937c-0.496,7.625-2.992,14.197-7.49,19.719
			c-4.5,5.521-9.666,8.282-15.499,8.282c-4.549,0-7.712-0.197-9.492-0.592c-5.636-1.183-10.234-4.073-13.793-8.676
			c-3.957-5.127-5.687-11.369-5.191-18.733l5.785-89.134c0.593-8.806,3.411-15.84,8.454-21.1c4.747-4.732,10.382-7.099,16.908-7.099
			H188.548z"/>
		<path style="fill:#272525;" d="M254.104,399.96l-5.636,84.202c-0.593,8.677-3.411,15.844-8.454,21.495
			c-5.34,6.048-12.065,9.071-20.171,9.071h-6.525c-8.009,0-14.29-3.023-18.836-9.071c-4.45-5.651-6.377-12.817-5.785-21.495
			l5.488-84.202c0.593-8.677,3.534-15.939,8.824-21.791c5.289-5.848,11.94-8.775,19.949-8.775h6.377
			c8.009,0,14.287,2.927,18.836,8.775C252.718,384.021,254.697,391.283,254.104,399.96z M234.526,396.213
			c0.197-3.679-0.593-6.868-2.373-9.564c-1.78-2.693-4.056-4.042-6.823-4.042c-2.77,0-5.242,1.349-7.416,4.042
			c-2.176,2.696-3.411,5.885-3.708,9.564l-6.081,91.894c-0.297,3.682,0.468,6.871,2.299,9.563c1.828,2.696,4.176,4.043,7.045,4.043
			c2.867,0,5.388-1.312,7.564-3.944c2.174-2.628,3.36-5.848,3.56-9.663L234.526,396.213z"/>
		<path style="fill:#272525;" d="M323.664,369.395l-8.009,123.248c0,0.659,0,1.315,0,1.972c0,4.604,2.077,6.902,6.229,6.902
			l-0.89,13.212h-8.75c-5.439,0-9.691-1.903-12.755-5.719c-5.242,3.815-10.927,5.719-17.056,5.719
			c-6.429,0-11.916-2.102-16.463-6.31c-5.143-4.732-7.712-11.24-7.712-19.522c0-0.789,0-1.51,0-2.169l6.822-104.12h-5.339
			l0.89-13.015h25.065l-7.564,115.557c0,0.789,0,1.513,0,2.169c0,8.809,2.719,13.212,8.157,13.212c2.867,0,5.24-1.708,7.12-5.128
			c1.68-3.022,2.619-6.439,2.818-10.253l7.416-115.754H323.664z"/>
		<path style="fill:#272525;" d="M394.558,399.96l-1.483,23.663c-0.496,8.414-3.189,15.578-8.083,21.495
			c-4.895,5.916-10.508,8.874-16.834,8.874H354.81l-3.856,60.736h-19.875l8.751-132.121h-5.785l0.891-13.212h38.71
			c6.327,0,11.518,2.991,15.573,8.972C393.272,384.351,395.052,391.548,394.558,399.96z M375.129,396.213
			c0.296-3.679-0.471-6.868-2.299-9.564c-1.832-2.693-4.179-4.042-7.045-4.042h-6.229l-3.856,58.37h6.229
			c2.767,0,5.24-1.346,7.416-4.042c2.173-2.693,3.411-5.882,3.708-9.564L375.129,396.213z"/>
		<path style="fill:#272525;" d="M446.765,501.516l-0.741,13.212h-31.146c-4.846,0-8.702-1.741-11.568-5.226
			c-2.869-3.482-4.104-8.578-3.708-15.283l7.269-111.613h-5.488l0.89-13.212h25.213l-8.009,124.825
			c-0.296,4.865,1.385,7.296,5.043,7.296H446.765z"/>
		<path style="fill:#272525;" d="M515.878,399.96l-6.229,94.259c-0.295,4.733,1.137,7.167,4.303,7.296l-0.891,13.212h-7.86
			c-4.945,0-8.802-1.642-11.569-4.93c-3.065-3.679-4.353-8.874-3.855-15.579L492,460.696h-17.946l-3.559,54.032h-19.728
			l7.565-114.768c0.689-10.517,4.498-18.469,11.42-23.861c5.535-4.468,11.963-6.704,19.281-6.704c7.316,0,13.496,2.236,18.54,6.704
			C513.802,381.621,516.57,389.576,515.878,399.96z M496.301,396.213c0.297-3.812-0.296-7.031-1.779-9.663
			c-1.483-2.627-3.611-3.943-6.378-3.943c-2.67,0-4.895,1.316-6.675,3.943c-1.779,2.632-2.817,5.852-3.114,9.663l-3.41,51.271
			h17.945L496.301,396.213z"/>
		<path style="fill:#272525;" d="M587.365,400.551l-6.08,93.668c-0.297,4.733,1.135,7.167,4.301,7.296l-0.89,13.212h-8.01
			c-4.846,0-8.652-1.642-11.42-4.93c-3.165-3.679-4.501-8.874-4.004-15.579l6.229-93.668c0.394-5.389-0.175-9.594-1.706-12.62
			c-1.534-3.022-3.485-4.535-5.859-4.535l-8.602,0.197l-8.603,131.135h-19.875l8.604-132.121h-5.934l0.891-13.212h34.409
			c7.908,0,14.335,2.563,19.28,7.69C585.635,382.738,588.057,390.562,587.365,400.551z"/>
		<path style="fill:#272525;" d="M658.705,399.96l-5.488,84.202c-0.593,8.415-3.314,15.613-8.157,21.593
			c-4.846,5.984-10.434,8.973-16.76,8.973h-33.073l8.75-132.121h-5.784l0.89-13.212h38.71c6.327,0,11.543,2.991,15.647,8.972
			C657.542,384.351,659.299,391.548,658.705,399.96z M639.275,396.213c0.296-3.679-0.47-6.868-2.299-9.564
			c-1.831-2.693-4.179-4.042-7.045-4.042h-6.229l-7.86,119.106h6.229c2.768,0,5.24-1.347,7.416-4.043
			c2.174-2.693,3.412-5.882,3.708-9.563L639.275,396.213z"/>
	</g>
	<g>
		<path style="fill:#272525;" d="M279.25,522.551l-12.435,143.333h11.363l-1.072,14.332H170.331
			c-11.293,0-20.513-2.781-27.659-8.342c-8.007-6.132-11.508-14.619-10.506-25.459l9.434-109.531h-8.148l1.287-14.333h36.878
			l-10.935,125.79c-1.001,10.983,2.714,16.473,11.149,16.473h12.437l12.435-142.262h28.731l-10.935,125.79
			c-1.001,10.983,2.714,16.473,11.149,16.473h12.436l12.437-142.262H279.25z"/>
		<path style="fill:#272525;" d="M378.094,555.71l-8.148,91.346c-0.858,9.413-4.932,17.188-12.221,23.318
			c-7.719,6.562-17.441,9.841-29.16,9.841h-9.434c-11.578,0-20.657-3.278-27.23-9.841c-6.433-6.13-9.219-13.905-8.362-23.318
			l7.934-91.346c0.858-9.413,5.109-17.292,12.757-23.64c7.645-6.344,17.26-9.52,28.838-9.52h9.219c11.579,0,20.654,3.176,27.23,9.52
			C376.09,538.418,378.951,546.297,378.094,555.71z M349.791,551.646c0.285-3.991-0.858-7.451-3.43-10.375
			c-2.573-2.922-5.863-4.386-9.863-4.386c-4.003,0-7.579,1.464-10.721,4.386c-3.146,2.924-4.932,6.384-5.36,10.375l-8.791,99.69
			c-0.429,3.995,0.676,7.454,3.323,10.376c2.644,2.925,6.038,4.384,10.185,4.384c4.145,0,7.789-1.423,10.935-4.277
			c3.143-2.851,4.857-6.345,5.146-10.482L349.791,551.646z"/>
		<path style="fill:#272525;" d="M462.142,594.218c4.573,3.422,6.861,8.557,6.861,15.402l-0.214,3.636l-3.86,44.712
			c0,0.572,0,1.143,0,1.711c0,4.139,2.358,6.205,7.076,6.205l-1.287,14.332h-12.221c-14.868,0-22.299-6.558-22.299-19.681
			c0-0.856,0.07-1.712,0.214-2.567l3.646-44.284c0-0.711,0-1.354,0-1.924c0-5.134-2.358-7.702-7.076-7.702h-15.437l-6.646,76.159
			h-28.517l12.436-143.332h-8.362l1.286-14.119h51.673c9.863,0,17.937,2.069,24.229,6.205c7.29,4.849,10.935,11.909,10.935,21.178
			C474.577,572.112,470.431,586.804,462.142,594.218z M446.061,546.939c0.142-2.851-0.717-5.241-2.572-7.167
			c-1.859-1.925-4.288-2.888-7.29-2.888h-12.65l-4.717,52.84h14.58c6.144,0,9.504-3.563,10.077-10.696L446.061,546.939z"/>
		<path style="fill:#272525;" d="M582.852,522.551l-43.954,67.173h10.077c6.432,0,11.648,1.497,15.651,4.493
			c4.573,3.283,6.861,7.845,6.861,13.69c0,1.284-0.144,2.641-0.429,4.065l-0.214,1.282h0.214l-3.859,44.712
			c-0.429,5.135,1.715,7.774,6.432,7.916l-1.285,14.332h-11.793c-7.006,0-12.579-1.889-16.724-5.668
			c-4.147-3.777-5.933-9.307-5.36-16.58l3.859-45.994c0.429-5.276-2.003-7.917-7.291-7.917h-15.222l-6.647,76.159h-28.73
			l12.649-143.332h-8.361l1.286-14.333h36.879l-5.146,60.113l39.452-60.113H582.852z"/>
		<path style="fill:#272525;" d="M657.035,522.551l-1.287,14.333h-13.722c-7.149,0-12.151,0.929-15.009,2.782
			c-5.435,3.566-8.148,8.273-8.148,14.119c0,5.562,2.145,11.124,6.433,16.686l26.373,34.229c6.433,8.272,9.648,17.9,9.648,28.88
			c0,14.69-5.649,26.456-16.939,35.297c-9.577,7.562-21.869,11.339-36.878,11.339h-21.227l1.501-14.332h18.438
			c8.433,0,14.936-1.961,19.512-5.884c4.573-3.921,6.861-8.948,6.861-15.082c0-6.417-2.358-12.836-7.076-19.254l-29.588-40.86
			c-4.148-5.702-6.219-12.263-6.219-19.681c0-13.12,5.287-23.816,15.867-32.089c8.861-6.986,19.726-10.482,32.591-10.482H657.035z"
			/>
	</g>
	<g>
		<path style="fill:#272525;" d="M223.92,688.001l-10.984,131c-0.4,5.105,1.797,7.657,6.59,7.657l-1.198,13.865h-11.383
			c-6.525,0-11.717-1.828-15.577-5.484c-3.863-3.654-5.526-9.002-4.993-16.038l3.994-47.806h-25.363l-5.792,69.328h-26.761
			l11.783-138.657h-7.589l1.198-13.865h34.15l-5.792,69.328h25.163l5.792-69.328H223.92z"/>
		<path style="fill:#272525;" d="M311.791,720.078l-8.388,98.923c-0.399,4.966,1.529,7.521,5.792,7.657l-1.198,13.865h-10.584
			c-6.659,0-11.851-1.724-15.577-5.173c-4.129-3.862-5.861-9.313-5.192-16.35l2.996-35.182h-24.165l-4.792,56.704h-26.562
			l10.185-120.445c0.93-11.036,6.057-19.383,15.378-25.042c7.455-4.688,16.107-7.035,25.962-7.035
			c9.851,0,18.173,2.347,24.963,7.035C308.995,700.833,312.72,709.182,311.791,720.078z M285.429,716.146
			c0.4-3.999-0.399-7.378-2.396-10.14c-1.997-2.759-4.861-4.14-8.587-4.14c-3.594,0-6.59,1.381-8.987,4.14
			c-2.396,2.762-3.794,6.141-4.194,10.14l-4.593,53.807h24.164L285.429,716.146z"/>
		<path style="fill:#272525;" d="M388.478,757.329c4.259,3.311,6.391,8.278,6.391,14.9l-0.2,3.518l-3.595,43.254
			c0,0.553,0,1.104,0,1.655c0,4.004,2.197,6.002,6.59,6.002l-1.199,13.865h-11.383c-13.848,0-20.77-6.345-20.77-19.04
			c0-0.827,0.065-1.656,0.199-2.482l3.396-42.84c0-0.688,0-1.31,0-1.862c0-4.966-2.197-7.45-6.59-7.45h-14.379l-6.19,73.675h-26.562
			l11.583-138.657h-7.789l1.198-13.659h48.129c9.186,0,16.707,2.002,22.567,6.002c6.79,4.692,10.185,11.522,10.185,20.488
			C400.062,735.945,396.199,750.158,388.478,757.329z M373.5,711.593c0.131-2.758-0.667-5.069-2.396-6.932
			c-1.732-1.863-3.994-2.795-6.79-2.795h-11.783l-4.393,51.117h13.58c5.723,0,8.853-3.446,9.386-10.348L373.5,711.593z"/>
		<path style="fill:#272525;" d="M496.316,720.078l-7.389,88.368c-0.799,8.83-4.462,16.385-10.984,22.66
			c-6.523,6.28-14.047,9.417-22.566,9.417h-44.534l11.782-138.657h-7.788l1.198-13.865h52.123c8.52,0,15.543,3.14,21.069,9.417
			C494.751,703.696,497.116,711.25,496.316,720.078z M470.155,716.146c0.399-3.86-0.634-7.206-3.096-10.036
			c-2.465-2.826-5.625-4.243-9.485-4.243h-8.388l-10.585,124.998h8.388c3.727,0,7.056-1.412,9.985-4.241
			c2.928-2.827,4.594-6.175,4.992-10.037L470.155,716.146z"/>
		<path style="fill:#272525;" d="M573.602,688.001l-1.199,13.865h-26.96c-3.863,0-7.258,1.417-10.185,4.243
			c-2.931,2.83-4.528,6.176-4.794,10.036l-3.395,41.184h33.351l-0.998,13.866h-33.551l-3.594,41.391
			c-0.4,3.862,0.629,7.21,3.094,10.037c2.463,2.829,5.623,4.241,9.486,4.241h26.961l-1.198,13.659h-36.346
			c-8.522,0-15.547-3.137-21.069-9.417c-5.527-6.275-7.889-13.83-7.09-22.66l7.389-88.368c0.8-8.828,4.493-16.382,11.084-22.66
			c6.591-6.277,14.145-9.417,22.667-9.417H573.602z"/>
		<path style="fill:#272525;" d="M648.49,757.329c4.259,3.311,6.391,8.278,6.391,14.9l-0.199,3.518l-3.596,43.254
			c0,0.553,0,1.104,0,1.655c0,4.004,2.197,6.002,6.591,6.002l-1.198,13.865h-11.383c-13.849,0-20.77-6.345-20.77-19.04
			c0-0.827,0.065-1.656,0.199-2.482l3.395-42.84c0-0.688,0-1.31,0-1.862c0-4.966-2.196-7.45-6.589-7.45h-14.38l-6.19,73.675h-26.562
			l11.584-138.657h-7.79l1.199-13.659h48.13c9.186,0,16.705,2.002,22.565,6.002c6.791,4.692,10.186,11.522,10.186,20.488
			C660.073,735.945,656.211,750.158,648.49,757.329z M633.512,711.593c0.132-2.758-0.667-5.069-2.396-6.932
			c-1.732-1.863-3.994-2.795-6.79-2.795h-11.783l-4.394,51.117h13.58c5.723,0,8.854-3.446,9.387-10.348L633.512,711.593z"/>
	</g>
	<g>
		<path style="fill:#272525;" d="M184.436,848.523l-0.95,14.975h-15.208l-9.188,152.013H137.86l9.347-152.013h-15.208l0.95-14.975
			H184.436z"/>
		<path style="fill:#272525;" d="M256.515,848.297l-8.713,143.619c-0.317,5.596,1.425,8.394,5.228,8.394l-0.951,15.201h-9.029
			c-5.176,0-9.295-2.003-12.357-6.012c-3.064-4.006-4.384-9.87-3.96-17.583l3.168-52.412h-20.119l-4.594,76.007h-21.229
			l9.347-152.013h-6.021l0.951-15.201h27.09l-4.594,76.007h19.96l4.595-76.007H256.515z"/>
		<path style="fill:#272525;" d="M326.22,883.464l-6.654,108.452c-0.317,5.443,1.213,8.244,4.594,8.394l-0.951,15.201h-8.396
			c-5.282,0-9.401-1.89-12.356-5.672c-3.275-4.233-4.649-10.21-4.119-17.923l2.376-38.571h-19.169l-3.802,62.166h-21.07
			l8.08-132.047c0.738-12.099,4.805-21.25,12.199-27.454c5.914-5.14,12.777-7.713,20.595-7.713c7.814,0,14.416,2.573,19.802,7.713
			C324.002,862.363,326.957,871.518,326.22,883.464z M305.308,879.152c0.317-4.385-0.317-8.089-1.901-11.117
			c-1.584-3.023-3.856-4.537-6.812-4.537c-2.851,0-5.228,1.514-7.129,4.537c-1.901,3.028-3.009,6.732-3.327,11.117l-3.643,58.99
			h19.168L305.308,879.152z"/>
		<path style="fill:#272525;" d="M402.577,884.145l-6.495,107.771c-0.317,5.443,1.212,8.244,4.593,8.394l-0.948,15.201h-8.556
			c-5.175,0-9.243-1.89-12.198-5.672c-3.382-4.233-4.808-10.21-4.277-17.923l6.653-107.771c0.421-6.201-0.186-11.04-1.822-14.521
			c-1.638-3.478-3.723-5.219-6.257-5.219l-9.189,0.228l-9.188,150.878h-21.229l9.188-152.013h-6.337l0.951-15.201h36.753
			c8.448,0,15.312,2.95,20.595,8.848C400.729,863.65,403.315,872.651,402.577,884.145z"/>
		<path style="fill:#272525;" d="M516.164,848.297l-3.327,52.184c-0.529,8.32-2.826,15.581-6.891,21.78
			c-4.066,6.203-9.426,10.287-16.08,12.252l-4.91,80.998h-21.07l4.911-80.771c-6.654-1.662-11.75-5.632-15.288-11.912
			c-3.54-6.274-5.044-13.725-4.515-22.347l2.218-36.982h-5.861l0.95-15.201h26.932l-3.485,56.722
			c-0.213,4.236,0.659,7.865,2.614,10.891c1.952,3.026,4.408,4.538,7.366,4.538c2.956,0,5.624-1.512,8.001-4.538
			c2.376-3.025,3.668-6.654,3.881-10.891l3.327-56.722H516.164z"/>
		<path style="fill:#272525;" d="M585.868,883.464l-6.021,96.879c-0.633,9.982-3.644,18.23-9.029,24.731
			c-5.703,6.959-12.887,10.437-21.546,10.437h-6.97c-8.556,0-15.264-3.478-20.119-10.437c-4.753-6.501-6.812-14.749-6.179-24.731
			l5.861-96.879c0.634-9.983,3.774-18.338,9.427-25.071c5.647-6.729,12.752-10.096,21.307-10.096h6.812
			c8.555,0,15.261,3.367,20.119,10.096C584.389,865.126,586.502,873.48,585.868,883.464z M564.957,879.152
			c0.21-4.232-0.635-7.901-2.535-11.003c-1.9-3.1-4.332-4.651-7.288-4.651c-2.958,0-5.598,1.552-7.921,4.651
			c-2.323,3.102-3.643,6.771-3.96,11.003l-6.495,105.729c-0.316,4.235,0.5,7.905,2.456,11.004c1.952,3.103,4.46,4.65,7.524,4.65
			c3.062,0,5.756-1.511,8.079-4.538c2.321-3.023,3.589-6.729,3.803-11.116L564.957,879.152z"/>
		<path style="fill:#272525;" d="M660.167,848.297l-8.555,141.804c0,0.758,0,1.514,0,2.268c0,5.296,2.218,7.941,6.653,7.941
			l-0.949,15.201h-9.348c-5.81,0-10.352-2.19-13.623-6.579c-5.6,4.389-11.672,6.579-18.219,6.579
			c-6.867,0-12.729-2.419-17.585-7.261c-5.493-5.445-8.237-12.932-8.237-22.462c0-0.906,0-1.736,0-2.495l7.286-119.795h-5.702
			l0.949-14.975h26.774l-8.08,132.954c0,0.907,0,1.74,0,2.497c0,10.135,2.903,15.2,8.713,15.2c3.062,0,5.598-1.964,7.604-5.899
			c1.795-3.477,2.797-7.408,3.01-11.798l7.921-133.181H660.167z"/>
	</g>
</g>
<g id="Guides">
</g>
</svg>
