<?xml version="1.0" encoding="iso-8859-1"?>
<!-- Generator: Adobe Illustrator 15.1.0, SVG Export Plug-In . SVG Version: 6.00 Build 0)  -->
<!DOCTYPE svg PUBLIC "-//W3C//DTD SVG 1.1//EN" "http://www.w3.org/Graphics/SVG/1.1/DTD/svg11.dtd">
<svg version="1.1" xmlns="http://www.w3.org/2000/svg" xmlns:xlink="http://www.w3.org/1999/xlink" x="0px" y="0px" width="792px"
	 height="1224px" viewBox="0 0 792 1224" style="enable-background:new 0 0 792 1224;" xml:space="preserve">
<g id="Layer_1">
	<g>
		<path style="fill:#272525;" d="M137.617,360.793c-4.212,0-6.318-1.851-6.318-5.555V213.712c0-3.7,2.105-5.554,6.318-5.554h18.725
			c11.563,0,20.945,7.258,28.145,21.773c7.197,14.518,10.798,32.809,10.798,54.877c0,22.811-4.327,41.4-12.98,55.766
			c-8.196,13.479-18.19,20.218-29.982,20.218H137.617z M143.936,218.163v133.073c0,2.076,0.535,3.113,1.608,3.113h8.73
			c9.879,0,18.533-6.304,25.962-18.916c7.887-13.352,11.832-30.039,11.832-50.066c0-20.176-3.639-37.235-10.913-51.184
			c-6.97-13.352-15.318-20.173-25.042-20.472c-5.284-0.146-9,0.298-11.143,1.337C144.28,215.347,143.936,216.386,143.936,218.163z"
			/>
		<path style="fill:#272525;" d="M209.414,287.307c0-21.455,3.808-40.008,11.43-55.666c7.619-15.654,16.981-23.483,28.087-23.483
			c11.562,0,20.752,7.322,27.57,21.962c6.815,14.643,10.224,33.56,10.224,56.751c0,21.02-3.523,38.633-10.568,52.837
			c-7.047,14.208-16.122,21.31-27.225,21.31c-11.872,0-21.424-6.774-28.662-20.329C213.032,327.135,209.414,309.34,209.414,287.307z
			 M222.509,287.307c0,21.452,2.258,38.191,6.777,50.221c4.748,12.613,11.678,18.917,20.793,18.917
			c9.265,0,17.153-6.882,23.664-20.654c6.509-13.77,9.765-29.931,9.765-48.484c0-20.292-2.949-37.542-8.846-51.747
			c-6.28-15.072-14.398-22.611-24.353-22.611c-9.419,0-16.582,7.682-21.481,23.047C224.614,249.188,222.509,266.291,222.509,287.307
			z"/>
		<path style="fill:#272525;" d="M336.464,354.64c7.733,0,13.785-6.186,18.149-18.558c4.058-11.488,6.088-26.366,6.088-44.631
			v-79.757c0-2.062,0.498-3.241,1.494-3.536c1.301-0.292,1.952,1.031,1.952,3.969v75.88c0,22.942-2.526,40.662-7.581,53.157
			c-5.362,13.239-13.136,19.854-23.32,19.854c-12.484,0-21.329-9.472-26.536-28.415c-3.141-11.45-4.71-24.592-4.71-39.424v-79.517
			c0-3.67,2.105-5.505,6.318-5.505c4.211,0,6.318,1.838,6.318,5.516v88.905c0,14.413,1.072,25.517,3.216,33.311
			C321.223,348.392,327.426,354.64,336.464,354.64z"/>
		<path style="fill:#272525;" d="M449.959,315.788c0-1.579-0.958-2.369-2.871-2.369h-27.686c-1.762,0-2.642-2.799-2.642-8.399
			c0-5.308,0.765-7.966,2.298-7.966h32.854c2.831,0,4.136,1.292,3.905,3.875c-1.608,17.517-5.782,31.871-12.521,43.067
			c-6.739,11.199-14.858,16.797-24.354,16.797c-11.794,0-21.328-6.891-28.604-20.673c-7.276-13.782-10.913-31.655-10.913-53.619
			c0-21.245,3.808-39.622,11.43-55.126c7.619-15.505,16.981-23.256,28.086-23.256c12.482,0,21.826,7.537,28.029,22.61
			c0.842,2.153,1.264,3.446,1.264,3.876c0,2.153-0.498,3.23-1.493,3.23c-0.536,0-1.227-0.861-2.068-2.585
			c-7.428-14.929-15.547-22.394-24.353-22.394c-9.42,0-16.582,7.609-21.481,22.825c-4.212,13.065-6.318,30.006-6.318,50.82
			c0,21.248,2.259,37.829,6.777,49.744c4.747,12.489,11.679,18.734,20.792,18.734c5.668,0,11.871-3.803,18.61-11.414
			C446.207,334.952,449.959,325.693,449.959,315.788z"/>
		<path style="fill:#272525;" d="M481.319,351.684c0,1.927,0.574,2.888,1.724,2.888h27.226c1.224,0,1.913,0.077,2.067,0.223
			c0.535,0.298,0.805,1.26,0.805,2.888c0,1.631-0.27,2.593-0.805,2.889c-0.229,0.148-0.919,0.222-2.067,0.222h-35.268
			c-4.212,0-6.317-1.851-6.317-5.555V213.712c0-3.7,2.105-5.554,6.317-5.554c4.211,0,6.318,1.854,6.318,5.554V351.684z"/>
		<path style="fill:#272525;" d="M578.84,355.468l-9.624-45.79c-0.153-1.027-0.536-1.541-1.148-1.541h-30.334
			c-0.537,0-0.92,0.521-1.148,1.562c-3.967,17.788-7.591,34.093-10.873,48.916c-0.233,1.452-0.701,2.178-1.401,2.178
			c-1.168,0-1.752-1.188-1.752-3.569c0-0.445,0.075-0.966,0.23-1.562c2.143-9.668,5.589-25.064,10.336-46.192
			c0.152-0.889-0.076-1.333-0.688-1.333h-5.053c-1.149,0-1.802,0-1.954,0c-0.537-0.295-0.844-1.257-0.918-2.888
			c0-1.628,0.305-2.59,0.917-2.889c0.152-0.145,0.802-0.222,1.948-0.222h6.079c0.841,0,1.414-0.597,1.721-1.792l20.12-89.523
			c0.612-2.367,1.417-3.555,2.413-3.555c0.994,0,1.683,0.889,2.067,2.666l31.936,144.414c0.229,0.889,0.344,1.705,0.344,2.444
			c0,2.815-1.992,4.146-5.977,4C581.942,360.646,579.529,358.87,578.84,355.468z M567.276,300.337
			c-4.284-20.148-8.45-39.558-12.502-58.228c-0.384-1.895-0.886-2.846-1.498-2.846c-0.464,0-0.886,0.975-1.271,2.922
			c-2.885,12.758-7.254,32.191-13.103,58.297c-0.307,1.104-0.191,1.656,0.343,1.656h27.687
			C567.39,302.139,567.505,301.539,567.276,300.337z"/>
		<path style="fill:#272525;" d="M618.134,347.24c4.136,5.249,8.883,7.873,14.245,7.873c5.207,0,9.609-2.478,13.211-7.436
			c3.979-5.393,5.973-12.83,5.973-22.31c0-7.726-1.571-14.434-4.711-20.121c-1.455-2.625-4.978-7.29-10.567-13.997
			c-7.276-8.749-11.45-14.07-12.521-15.966c-4.214-7.289-6.318-16.328-6.318-27.12c0-12.391,2.757-22.599,8.271-30.62
			c5.284-7.58,11.411-11.007,18.38-10.279c1.453,0.147,3.139,0.656,5.054,1.531c1.072,0.437,1.531,1.387,1.379,2.843
			c-0.307,2.771-1.148,3.718-2.527,2.843c-2.146-1.456-3.753-2.187-4.824-2.187c-4.673,0-8.693,2.115-12.062,6.342
			c-3.677,4.521-5.515,10.645-5.515,18.371c0,7.584,1.609,14.292,4.825,20.122c1.761,3.209,5.206,7.512,10.339,12.904
			c6.892,7.293,11.603,13.417,14.129,18.372c4.136,7.73,6.204,16.77,6.204,27.12c0,14.582-2.872,25.955-8.615,34.119
			c-5.21,7.583-11.872,11.373-19.99,11.373c-6.587,0-12.233-3.205-16.943-9.624c-4.709-6.414-7.219-14.434-7.523-24.058
			c-0.078-2.915,0.42-4.375,1.492-4.375s1.647,1.17,1.724,3.5C611.472,334.92,613.769,341.847,618.134,347.24z"/>
	</g>
	<g>
		<path style="fill:#272525;" d="M193.611,484.635c-3,9.291-6.769,16.529-11.302,21.717c-4.868,5.736-10.169,8.605-15.903,8.605
			c-10.269,0-18.571-6.556-24.905-19.668c-6.335-13.112-9.502-30.118-9.502-51.015c0-20.212,3.316-37.698,9.952-52.448
			c6.634-14.752,14.786-22.127,24.455-22.127c10.868,0,19.004,7.171,24.405,21.512c0.733,2.049,1.1,3.278,1.1,3.689
			c0,2.048-0.435,3.073-1.3,3.073c-0.467,0-1.067-0.819-1.8-2.459c-6.468-14.203-13.537-21.307-21.204-21.307
			c-8.202,0-14.437,7.241-18.704,21.717c-3.668,12.43-5.501,28.548-5.501,48.351c0,20.215,1.966,35.991,5.901,47.327
			c4.134,11.883,10.167,17.825,18.104,17.825c4.866,0,9.417-2.628,13.652-7.889c4.234-5.255,7.717-12.529,10.452-21.819
			c0.533-1.911,0.966-2.869,1.3-2.869c0.266,0,0.601,0.276,1,0.82c0.733,1.095,1.101,1.709,1.101,1.843
			C194.912,480.199,194.477,481.905,193.611,484.635z"/>
		<path style="fill:#272525;" d="M206.513,444.785c0-20.354,3.316-37.954,9.952-52.807c6.634-14.852,14.786-22.278,24.455-22.278
			c10.067,0,18.069,6.946,24.004,20.834c5.934,13.892,8.901,31.837,8.901,53.837c0,19.941-3.067,36.651-9.202,50.125
			c-6.135,13.479-14.037,20.216-23.704,20.216c-10.337,0-18.654-6.427-24.956-19.285
			C209.664,482.566,206.513,465.687,206.513,444.785z M217.916,444.785c0,20.351,1.966,36.23,5.901,47.643
			c4.134,11.965,10.168,17.946,18.104,17.946c8.067,0,14.936-6.529,20.604-19.596c5.667-13.062,8.501-28.393,8.501-45.993
			c0-19.25-2.568-35.615-7.702-49.09c-5.468-14.299-12.537-21.451-21.204-21.451c-8.201,0-14.437,7.288-18.703,21.864
			C219.749,408.621,217.916,424.848,217.916,444.785z"/>
		<path style="fill:#272525;" d="M317.135,508.647c6.733,0,12.002-5.881,15.802-17.643c3.534-10.924,5.301-25.067,5.301-42.433
			v-75.83c0-1.96,0.433-3.081,1.3-3.362c1.133-0.277,1.7,0.981,1.7,3.774v72.143c0,21.812-2.2,38.659-6.601,50.54
			c-4.668,12.585-11.438,18.875-20.304,18.875c-10.87,0-18.571-9.005-23.105-27.015c-2.735-10.886-4.101-23.381-4.101-37.482v-75.6
			c0-3.489,1.833-5.234,5.501-5.234c3.667,0,5.501,1.749,5.501,5.245v84.526c0,13.704,0.933,24.26,2.801,31.67
			C303.865,502.707,309.266,508.647,317.135,508.647z"/>
		<path style="fill:#272525;" d="M366.245,509.083c0,3.519-1.835,5.275-5.501,5.275c-3.668,0-5.501-1.757-5.501-5.275V374.657
			c0-3.515,1.833-5.276,5.501-5.276c0.932,0,1.732,0.073,2.4,0.211c4.066,0.283,6.734,0.494,8.001,0.632
			c3.734,0.565,7.102,1.478,10.103,2.744c6.201,2.532,11.535,8.441,16.003,17.727c5.267,10.835,7.901,24.058,7.901,39.673
			c0,16.882-2.935,30.531-8.802,40.94c-5.468,9.707-12.27,14.772-20.404,15.194c-2.468,0.142-4.901-0.35-7.302-1.478
			c-0.734-0.28-1.335-0.069-1.8,0.634c-0.467,0.705-0.667,1.971-0.6,3.798V509.083z M366.245,380.575v96.213
			c0.266,1.269,0.965,2.114,2.1,2.536c2.133,0.847,4.101,1.199,5.901,1.059c7.601-0.281,14.003-4.438,19.204-12.478
			c5.733-8.879,8.602-20.793,8.602-35.736c0-10.572-1.284-20.016-3.851-28.334c-2.567-8.316-6.051-14.871-10.452-19.666
			c-4.936-5.355-10.969-8.035-18.104-8.035c-2,0-3.068,0.073-3.201,0.21C366.31,376.486,366.245,377.897,366.245,380.575z"/>
		<path style="fill:#272525;" d="M428.156,505.706c0,1.83,0.5,2.743,1.5,2.743h23.705c1.065,0,1.666,0.072,1.8,0.211
			c0.466,0.283,0.7,1.197,0.7,2.743c0,1.55-0.234,2.463-0.7,2.744c-0.199,0.142-0.8,0.21-1.8,0.21h-30.706
			c-3.668,0-5.501-1.757-5.501-5.275V374.657c0-3.515,1.833-5.276,5.501-5.276c3.666,0,5.501,1.761,5.501,5.276V505.706z"/>
		<path style="fill:#272525;" d="M513.066,509.3l-8.38-43.491c-0.135-0.977-0.467-1.464-1-1.464h-26.412c-0.467,0-0.8,0.495-1,1.484
			c-3.454,16.896-6.608,32.383-9.466,46.462c-0.203,1.379-0.611,2.068-1.221,2.068c-1.017,0-1.524-1.128-1.524-3.389
			c0-0.423,0.064-0.917,0.199-1.484c1.866-9.184,4.866-23.807,9-43.875c0.133-0.844-0.067-1.266-0.6-1.266h-4.399
			c-1,0-1.567,0-1.7,0c-0.468-0.28-0.734-1.194-0.8-2.744c0-1.546,0.266-2.46,0.798-2.744c0.133-0.138,0.699-0.21,1.697-0.21h5.293
			c0.732,0,1.23-0.566,1.498-1.702l17.519-85.032c0.533-2.249,1.233-3.376,2.101-3.376c0.866,0,1.466,0.844,1.8,2.532l27.806,137.17
			c0.2,0.844,0.301,1.619,0.301,2.322c0,2.673-1.735,3.937-5.204,3.798C515.767,514.219,513.666,512.532,513.066,509.3z
			 M502.997,456.935c-3.729-19.137-7.356-37.573-10.885-55.306c-0.335-1.8-0.771-2.704-1.305-2.704
			c-0.403,0-0.771,0.926-1.105,2.776c-2.513,12.118-6.317,30.577-11.408,55.373c-0.268,1.048-0.168,1.573,0.298,1.573h24.106
			C503.097,458.646,503.197,458.076,502.997,456.935z"/>
		<path style="fill:#272525;" d="M542.178,371.28c9.335,12.101,22.938,29.475,40.809,52.125c0.826,1.127,1.303,1.688,1.431,1.688
			c0.446,0,0.669-1.477,0.669-4.432v-46.004c0-2.111,0-3.377,0-3.799c0.138-0.983,0.588-1.478,1.349-1.478
			c0.76,0,1.21,0.495,1.35,1.478c0.068,0.422,0.103,1.688,0.103,3.799v134.426c0,2.11-0.034,3.376-0.103,3.798
			c-0.14,0.986-0.59,1.477-1.35,1.477c-0.761,0-1.211-0.491-1.349-1.48c0-0.281,0-1.55,0-3.809v-53.727
			c0-2.256-0.386-3.951-1.156-5.078c-7.411-9.82-20.728-26.58-39.95-50.288c-0.667-0.84-1.234-1.263-1.702-1.263
			c-0.666,0-1,0.986-1,2.954v107.415c0,2.11-0.034,3.376-0.1,3.798c-0.135,0.986-0.567,1.477-1.301,1.477
			c-0.734,0-1.167-0.491-1.3-1.477c-0.067-0.28-0.1-1.547-0.1-3.798V374.657c0-2.111,0.032-3.377,0.1-3.799
			c0.133-0.983,0.565-1.478,1.3-1.478C540.478,369.38,541.243,370.013,542.178,371.28z"/>
		<path style="fill:#272525;" d="M609.79,514.358c-3.668,0-5.501-1.757-5.501-5.275V374.657c0-3.515,1.833-5.276,5.501-5.276h16.303
			c10.068,0,18.237,6.895,24.505,20.681c6.267,13.79,9.402,31.164,9.402,52.125c0,21.667-3.769,39.324-11.303,52.968
			c-7.135,12.804-15.837,19.204-26.105,19.204H609.79z M615.291,378.883v126.398c0,1.971,0.466,2.957,1.4,2.957h7.602
			c8.602,0,16.136-5.988,22.604-17.967c6.867-12.682,10.302-28.532,10.302-47.555c0-19.164-3.168-35.367-9.502-48.616
			c-6.068-12.682-13.337-19.162-21.805-19.444c-4.6-0.139-7.835,0.282-9.701,1.269C615.591,376.209,615.291,377.195,615.291,378.883
			z"/>
	</g>
	<g>
		<path style="fill:#272525;" d="M217.893,640.321c0.486,1.819,1.073,2.729,1.756,2.729s1.268-0.931,1.756-2.792l31.546-115.313
			c0.41-1.33,1.028-1.994,1.85-1.994c1.542,0,2.312,1.216,2.312,3.64c0,0.607-0.052,1.137-0.151,1.592
			c-10.058,38.668-23.283,88.027-39.675,148.077c-0.703,2.58-1.758,3.867-3.164,3.867c-1.306,0-2.21-0.984-2.71-2.96l-16.229-59.407
			c-0.525-2.094-1.103-2.079-1.732,0.042l-15.84,58.458c-0.705,2.58-1.76,3.867-3.168,3.867c-1.308,0-2.213-0.984-2.715-2.957
			l-40.128-147.85c-0.203-0.879-0.301-1.685-0.301-2.417c0-2.786,2.574-4.102,7.722-3.953c5.449,0.146,8.629,1.877,9.539,5.193
			c6.517,24.58,16.396,61.977,29.634,112.191c0.523,1.812,1.15,2.715,1.881,2.715c0.73,0,1.358-0.88,1.881-2.65l8.931-32.839
			c0.502-1.977,0.415-4.104-0.262-6.387c-7.969-29.25-14.425-53.198-19.369-71.843c-0.188-0.877-0.283-1.684-0.283-2.419
			c0-2.79,2.565-4.109,7.694-3.96c5.431,0.146,8.599,1.891,9.504,5.232l10.501,39.614c0.415,1.343,0.884,2.012,1.405,2.012
			c0.726,0,1.299-0.672,1.716-2.019l11.59-42.777c0.4-1.371,0.999-2.062,1.801-2.062c1.501,0,2.253,1.216,2.253,3.64
			c0,0.607-0.052,1.137-0.151,1.592c-4.325,16.833-8.9,34.119-13.728,51.861c-0.514,2.125-0.519,4.176-0.015,6.148L217.893,640.321z
			"/>
		<path style="fill:#272525;" d="M269.318,604.485c0-22.042,5.001-41.099,15.01-57.184c10.006-16.081,22.301-24.123,36.885-24.123
			c15.184,0,27.253,7.522,36.205,22.561c8.95,15.043,13.426,34.476,13.426,58.299c0,21.592-4.626,39.687-13.878,54.279
			c-9.254,14.595-21.172,21.889-35.752,21.889c-15.59,0-28.135-6.96-37.639-20.883C274.07,645.398,269.318,627.117,269.318,604.485z
			 M286.516,604.485c0,22.036,2.965,39.231,8.9,51.59c6.234,12.956,15.335,19.434,27.305,19.434
			c12.167,0,22.527-7.071,31.077-21.219c8.547-14.145,12.822-30.746,12.822-49.805c0-20.846-3.873-38.565-11.616-53.157
			c-8.247-15.483-18.908-23.227-31.981-23.227c-12.37,0-21.775,7.891-28.21,23.675C289.281,565.326,286.516,582.896,286.516,604.485
			z"/>
		<path style="fill:#272525;" d="M441.073,638.729c6.939-3.79,12.569-9.477,16.895-17.06c5.028-8.945,7.543-19.257,7.543-30.936
			c0-11.373-1.937-21.53-5.807-30.48c-3.873-8.945-9.128-15.997-15.765-21.153c-7.445-5.761-16.545-8.644-27.306-8.644
			c-3.42,0-5.129,1.518-5.129,4.55v138.751c0,3.793-2.768,5.687-8.297,5.687c-5.531,0-8.297-1.894-8.297-5.687V528.865
			c0-3.789,2.766-5.687,8.297-5.687c1.406,0,2.614,0.078,3.62,0.228c6.135,0.306,10.157,0.533,12.068,0.682
			c5.632,0.608,10.711,1.593,15.237,2.958c9.354,2.729,17.397,9.098,24.137,19.106c7.943,11.679,11.917,25.931,11.917,42.763
			c0,13.345-2.665,25.099-7.994,35.256c-4.828,9.099-11.065,15.773-18.706,20.017c-0.905,0.607-1.057,1.518-0.454,2.729
			c9.152,19.107,17.146,28.661,23.986,28.661c3.117,0,4.677,0.835,4.677,2.501c0,2.424-1.46,3.64-4.374,3.64
			c-7.24,0-14.383-5.988-21.423-17.969c-1.711-2.878-4.022-7.808-6.938-14.784c-0.605-1.516-1.41-2.123-2.414-1.82
			c-2.517,0.76-5.03,1.137-7.543,1.137c-3.319,0-6.539-1.606-9.654-4.82c-3.119-3.212-4.677-6.806-4.677-10.782
			c0-3.214,0.878-5.775,2.64-7.687c1.758-1.913,3.795-2.869,6.108-2.869c4.927,0,9.855,4.997,14.785,14.991
			C439.011,638.646,439.966,639.185,441.073,638.729z M418.896,633.27c0,2.428,1.004,4.514,3.018,6.255
			c2.011,1.746,4.123,2.616,6.337,2.616c1.909,0,3.869-0.227,5.883-0.682c0.905-0.303,1.057-1.06,0.451-2.274
			c-3.52-6.974-7.24-10.464-11.163-10.464C420.405,628.721,418.896,630.238,418.896,633.27z"/>
		<path style="fill:#272525;" d="M515.414,578.679l43.295-53.002c1.406-1.816,2.362-2.726,2.867-2.726
			c0.303,0,0.729,0.483,1.283,1.443c0.552,0.964,0.829,1.667,0.829,2.108c0,0.743-0.839,2.001-2.513,3.774l-30.939,38.463
			c-1.434,1.67-1.75,3.486-0.942,5.455l40.577,98.887c1.006,2.273,1.511,3.791,1.511,4.545c0,0.608-0.354,1.215-1.059,1.819
			c-0.707,0.604-1.212,0.909-1.513,0.909c-0.505,0-1.31-1.361-2.418-4.083l-40.75-98.928c-0.598-1.539-1.293-1.777-2.087-0.718
			l-9.072,11.104c-1.291,1.516-1.936,3.336-1.936,5.461v80.566c0,3.795-2.768,5.688-8.297,5.688c-5.531,0-8.297-1.898-8.297-5.693
			V528.645c0-3.795,2.766-5.694,8.297-5.694c5.529,0,8.297,1.905,8.297,5.708v47.276c0,2.439,0.452,3.655,1.357,3.655
			C514.307,579.589,514.812,579.288,515.414,578.679z"/>
		<path style="fill:#272525;" d="M603.623,666.287c5.432,5.347,11.666,8.021,18.706,8.021c6.838,0,12.62-2.523,17.349-7.576
			c5.229-5.495,7.845-13.072,7.845-22.729c0-7.874-2.062-14.708-6.186-20.504c-1.911-2.673-6.539-7.426-13.879-14.26
			c-9.555-8.914-15.035-14.335-16.443-16.268c-5.531-7.427-8.297-16.636-8.297-27.632c0-12.625,3.62-23.026,10.862-31.198
			c6.939-7.724,14.983-11.216,24.137-10.474c1.909,0.15,4.123,0.669,6.638,1.561c1.406,0.446,2.012,1.413,1.811,2.896
			c-0.404,2.824-1.508,3.788-3.319,2.897c-2.816-1.484-4.929-2.228-6.337-2.228c-6.134,0-11.414,2.155-15.84,6.463
			c-4.826,4.606-7.24,10.845-7.24,18.718c0,7.727,2.111,14.562,6.337,20.501c2.312,3.27,6.838,7.654,13.577,13.149
			c9.051,7.429,15.234,13.669,18.555,18.717c5.431,7.877,8.146,17.087,8.146,27.634c0,14.856-3.771,26.444-11.314,34.763
			c-6.839,7.728-15.59,11.587-26.248,11.587c-8.65,0-16.066-3.266-22.252-9.804c-6.185-6.536-9.479-14.708-9.88-24.513
			c-0.103-2.969,0.55-4.457,1.96-4.457c1.407,0,2.161,1.192,2.264,3.565C594.874,653.734,597.892,660.792,603.623,666.287z"/>
	</g>
	<g>
		<path style="fill:#272525;" d="M199.038,840.095c-1.039,0-1.651-0.512-1.839-1.535c-0.095-0.292-0.141-1.609-0.141-3.95v-82.951
			c0-1.607-0.566-2.413-1.697-2.413h-46.39c-0.943,0-1.414,0.657-1.414,1.975v83.39c0,3.658-2.594,5.485-7.779,5.485
			c-5.187,0-7.779-1.827-7.779-5.485V694.822c0-3.656,2.592-5.486,7.779-5.486c5.185,0,7.779,1.83,7.779,5.486v46.522
			c0,1.317,0.471,1.975,1.414,1.975h46.532c1.036,0,1.556-0.802,1.556-2.413v-46.084c0-2.194,0.046-3.512,0.141-3.95
			c0.188-1.022,0.8-1.536,1.839-1.536c1.036,0,1.648,0.514,1.839,1.536c0.092,0.438,0.141,1.756,0.141,3.95v139.787
			c0,2.193-0.049,3.511-0.141,3.95C200.686,839.583,200.074,840.095,199.038,840.095z"/>
		<path style="fill:#272525;" d="M289.403,834.834l-11.85-45.226c-0.19-1.015-0.661-1.521-1.415-1.521h-37.347
			c-0.661,0-1.131,0.514-1.415,1.543c-4.884,17.568-9.345,33.674-13.385,48.315c-0.288,1.434-0.864,2.149-1.726,2.149
			c-1.438,0-2.157-1.173-2.157-3.523c0-0.439,0.093-0.954,0.283-1.544c2.639-9.549,6.882-24.756,12.727-45.625
			c0.188-0.877-0.096-1.315-0.849-1.315h-6.221c-1.415,0-2.217,0-2.405,0c-0.661-0.291-1.039-1.241-1.131-2.853
			c0-1.609,0.376-2.559,1.129-2.854c0.188-0.144,0.988-0.218,2.4-0.218h7.485c1.034,0,1.739-0.59,2.117-1.77l24.773-88.424
			c0.753-2.339,1.743-3.512,2.97-3.512c1.225,0,2.073,0.879,2.546,2.635l39.318,142.641c0.283,0.877,0.424,1.683,0.424,2.412
			c0,2.782-2.453,4.095-7.359,3.95C293.221,839.951,290.251,838.194,289.403,834.834z M275.165,780.382
			c-5.273-19.901-10.402-39.071-15.392-57.512c-0.473-1.873-1.09-2.812-1.845-2.812c-0.57,0-1.09,0.963-1.562,2.888
			c-3.554,12.601-8.933,31.795-16.132,57.579c-0.378,1.091-0.237,1.637,0.422,1.637h34.087
			C275.306,782.162,275.447,781.567,275.165,780.382z"/>
		<path style="fill:#272525;" d="M368.613,800.814c6.506-3.655,11.785-9.142,15.84-16.458c4.714-8.631,7.071-18.579,7.071-29.846
			c0-10.972-1.815-20.771-5.443-29.405c-3.632-8.631-8.558-15.434-14.781-20.408c-6.979-5.559-15.511-8.339-25.599-8.339
			c-3.207,0-4.809,1.465-4.809,4.389v133.862c0,3.658-2.594,5.485-7.779,5.485c-5.187,0-7.779-1.827-7.779-5.485V694.822
			c0-3.656,2.592-5.486,7.779-5.486c1.319,0,2.451,0.076,3.395,0.219c5.75,0.295,9.522,0.514,11.314,0.659
			c5.279,0.586,10.042,1.535,14.285,2.853c8.769,2.633,16.311,8.777,22.629,18.434c7.447,11.267,11.173,25.017,11.173,41.255
			c0,12.876-2.499,24.215-7.495,34.015c-4.526,8.778-10.373,15.217-17.538,19.312c-0.849,0.585-0.99,1.464-0.424,2.633
			c8.579,18.435,16.074,27.651,22.487,27.651c2.922,0,4.384,0.805,4.384,2.413c0,2.339-1.368,3.512-4.101,3.512
			c-6.788,0-13.484-5.778-20.083-17.336c-1.604-2.777-3.772-7.533-6.506-14.264c-0.566-1.462-1.322-2.048-2.263-1.757
			c-2.357,0.733-4.716,1.098-7.071,1.098c-3.111,0-6.13-1.55-9.052-4.65c-2.924-3.099-4.385-6.565-4.385-10.402
			c0-3.1,0.825-5.571,2.475-7.416c1.649-1.846,3.558-2.768,5.729-2.768c4.619,0,9.239,4.82,13.86,14.463
			C366.68,800.734,367.575,801.253,368.613,800.814z M347.823,795.548c0,2.342,0.941,4.354,2.829,6.034
			c1.885,1.685,3.865,2.524,5.94,2.524c1.79,0,3.629-0.22,5.516-0.658c0.849-0.291,0.99-1.021,0.424-2.195
			c-3.301-6.727-6.789-10.095-10.466-10.095C349.237,791.158,347.823,792.622,347.823,795.548z"/>
		<path style="fill:#272525;" d="M422.214,840.095c-5.186,0-7.778-1.827-7.778-5.485V694.822c0-3.656,2.593-5.486,7.778-5.486
			h23.053c14.237,0,25.788,7.17,34.651,21.506c8.861,14.338,13.296,32.405,13.296,54.203c0,22.53-5.329,40.892-15.982,55.08
			c-10.091,13.315-22.396,19.97-36.915,19.97H422.214z M429.993,699.218v131.438c0,2.05,0.659,3.076,1.979,3.076h10.749
			c12.164,0,22.817-6.229,31.964-18.685c9.711-13.187,14.567-29.67,14.567-49.451c0-19.929-4.479-36.777-13.437-50.554
			c-8.579-13.189-18.859-19.927-30.831-20.221c-6.507-0.145-11.081,0.294-13.72,1.319
			C430.417,696.437,429.993,697.462,429.993,699.218z"/>
		<path style="fill:#272525;" d="M529.561,736.735h36.065c1.415,0,2.264,0.075,2.547,0.227c0.657,0.306,0.989,1.29,0.989,2.957
			c0,1.665-0.332,2.652-0.989,2.954c-0.191,0.151-1.038,0.227-2.547,0.227h-36.347c-1.414,0-2.121,0.95-2.121,2.847v85.597
			c0,1.462,0.564,2.189,1.695,2.189h34.086c1.698,0,2.709,0.218,3.04,0.656c0.33,0.44,0.496,1.317,0.496,2.635
			c0,1.612-0.332,2.56-0.991,2.852c-0.189,0.149-1.039,0.22-2.545,0.22h-43.561c-5.188,0-7.778-1.827-7.778-5.485V694.822
			c0-3.656,2.591-5.486,7.778-5.486h41.439c1.414,0,2.263,0.076,2.545,0.219c0.659,0.295,0.99,1.245,0.99,2.853
			c0,1.612-0.331,2.562-0.99,2.854c-0.19,0-1.039,0-2.545,0h-31.539c-1.414,0-2.121,1.025-2.121,3.071v35.112
			C527.158,735.639,527.957,736.735,529.561,736.735z"/>
		<path style="fill:#272525;" d="M631.532,800.814c6.506-3.655,11.786-9.142,15.841-16.458c4.715-8.631,7.072-18.579,7.072-29.846
			c0-10.972-1.816-20.771-5.445-29.405c-3.63-8.631-8.557-15.434-14.779-20.408c-6.979-5.559-15.512-8.339-25.6-8.339
			c-3.206,0-4.809,1.465-4.809,4.389v133.862c0,3.658-2.595,5.485-7.778,5.485c-5.188,0-7.778-1.827-7.778-5.485V694.822
			c0-3.656,2.591-5.486,7.778-5.486c1.318,0,2.449,0.076,3.394,0.219c5.75,0.295,9.523,0.514,11.315,0.659
			c5.279,0.586,10.042,1.535,14.284,2.853c8.769,2.633,16.312,8.777,22.63,18.434c7.447,11.267,11.173,25.017,11.173,41.255
			c0,12.876-2.499,24.215-7.497,34.015c-4.525,8.778-10.372,15.217-17.537,19.312c-0.85,0.585-0.989,1.464-0.424,2.633
			c8.578,18.435,16.075,27.651,22.487,27.651c2.921,0,4.385,0.805,4.385,2.413c0,2.339-1.368,3.512-4.102,3.512
			c-6.789,0-13.485-5.778-20.084-17.336c-1.604-2.777-3.771-7.533-6.506-14.264c-0.565-1.462-1.32-2.048-2.264-1.757
			c-2.357,0.733-4.714,1.098-7.071,1.098c-3.11,0-6.129-1.55-9.052-4.65c-2.922-3.099-4.385-6.565-4.385-10.402
			c0-3.1,0.825-5.571,2.476-7.416c1.649-1.846,3.558-2.768,5.729-2.768c4.619,0,9.239,4.82,13.86,14.463
			C629.599,800.734,630.493,801.253,631.532,800.814z M610.743,795.548c0,2.342,0.94,4.354,2.828,6.034
			c1.884,1.685,3.865,2.524,5.939,2.524c1.79,0,3.63-0.22,5.517-0.658c0.848-0.291,0.989-1.021,0.424-2.195
			c-3.302-6.727-6.788-10.095-10.466-10.095C612.157,791.158,610.743,792.622,610.743,795.548z"/>
	</g>
	<g>
		<path style="fill:#272525;" d="M181.119,855.656h-17.411v153.505c0,4.03-1.996,6.043-5.985,6.043
			c-3.991,0-5.985-2.013-5.985-6.043V855.656h-17.411c-1.088,0-1.741,0-1.959,0c-0.508-0.321-0.762-1.367-0.762-3.143
			c0-1.77,0.253-2.817,0.762-3.143c0.218-0.158,0.871-0.24,1.959-0.24h46.792c1.812,0,2.72,0.887,2.72,2.656
			C183.839,854.369,182.932,855.656,181.119,855.656z"/>
		<path style="fill:#272525;" d="M247.716,1015.204c-0.799,0-1.27-0.563-1.415-1.691c-0.073-0.321-0.109-1.771-0.109-4.352v-91.378
			c0-1.771-0.435-2.658-1.306-2.658h-35.693c-0.726,0-1.088,0.724-1.088,2.175v91.861c0,4.03-1.996,6.043-5.985,6.043
			c-3.991,0-5.985-2.013-5.985-6.043V855.174c0-4.027,1.995-6.043,5.985-6.043c3.989,0,5.985,2.016,5.985,6.043v51.248
			c0,1.451,0.362,2.175,1.088,2.175h35.802c0.797,0,1.197-0.884,1.197-2.658v-50.765c0-2.418,0.036-3.869,0.109-4.353
			c0.145-1.125,0.616-1.69,1.415-1.69c0.797,0,1.269,0.565,1.415,1.69c0.071,0.483,0.109,1.935,0.109,4.353v153.987
			c0,2.417-0.038,3.867-0.109,4.352C248.984,1014.641,248.513,1015.204,247.716,1015.204z"/>
		<path style="fill:#272525;" d="M317.244,1009.419l-9.117-49.743c-0.146-1.116-0.508-1.675-1.088-1.675h-28.735
			c-0.508,0-0.87,0.567-1.088,1.698c-3.757,19.322-7.19,37.036-10.298,53.141c-0.221,1.576-0.665,2.364-1.328,2.364
			c-1.107,0-1.659-1.288-1.659-3.876c0-0.482,0.071-1.049,0.218-1.697c2.03-10.504,5.294-27.228,9.792-50.182
			c0.145-0.966-0.074-1.448-0.653-1.448H268.5c-1.088,0-1.706,0-1.85,0c-0.508-0.32-0.799-1.364-0.87-3.137
			c0-1.77,0.289-2.813,0.869-3.139c0.145-0.158,0.76-0.241,1.846-0.241h5.759c0.795,0,1.338-0.647,1.629-1.946l19.06-97.253
			c0.58-2.573,1.341-3.862,2.285-3.862c0.942,0,1.595,0.968,1.959,2.897l30.251,156.885c0.218,0.965,0.327,1.852,0.327,2.653
			c0,3.061-1.887,4.505-5.662,4.346C320.182,1015.046,317.896,1013.114,317.244,1009.419z M306.289,949.527
			c-4.057-21.889-8.003-42.974-11.842-63.255c-0.364-2.06-0.839-3.093-1.42-3.093c-0.439,0-0.838,1.059-1.202,3.175
			c-2.734,13.86-6.873,34.972-12.412,63.332c-0.291,1.198-0.182,1.798,0.325,1.798h26.227
			C306.397,951.484,306.506,950.831,306.289,949.527z"/>
		<path style="fill:#272525;" d="M348.916,851.305c10.157,13.862,24.956,33.766,44.399,59.709c0.898,1.293,1.417,1.935,1.557,1.935
			c0.485,0,0.727-1.692,0.727-5.075v-52.699c0-2.418,0-3.869,0-4.353c0.15-1.125,0.641-1.69,1.468-1.69
			c0.826,0,1.316,0.565,1.468,1.69c0.073,0.483,0.111,1.935,0.111,4.353v153.987c0,2.417-0.038,3.867-0.111,4.352
			c-0.151,1.128-0.642,1.691-1.468,1.691c-0.828,0-1.318-0.563-1.468-1.696c0-0.321,0-1.775,0-4.362v-61.545
			c0-2.584-0.419-4.525-1.258-5.817c-8.062-11.247-22.55-30.448-43.464-57.605c-0.727-0.963-1.343-1.446-1.852-1.446
			c-0.726,0-1.088,1.13-1.088,3.385v123.045c0,2.417-0.037,3.867-0.109,4.352c-0.146,1.128-0.617,1.691-1.414,1.691
			c-0.799,0-1.271-0.563-1.416-1.691c-0.072-0.321-0.108-1.771-0.108-4.352V855.174c0-2.418,0.036-3.869,0.108-4.353
			c0.145-1.125,0.616-1.69,1.416-1.69C347.067,849.131,347.9,849.855,348.916,851.305z"/>
		<path style="fill:#272525;" d="M476.886,967.066v42.121c0,4.011-1.996,6.017-5.984,6.017c-3.99,0-5.985-2.006-5.985-6.017v-35.62
			c-0.146-1.604-0.474-4.091-0.979-7.462c-9.141-38.506-17.411-74.287-24.812-107.341c-0.072-0.48-0.399-1.446-0.979-2.888
			c-0.364-0.96-0.544-1.926-0.544-2.892c0-2.564,1.632-3.85,4.896-3.85h4.788c1.669,0.482,2.792,2.009,3.373,4.579
			c4.497,19.594,11.898,51.711,22.199,96.354c0.507,2.087,1.016,3.131,1.524,3.131c0.579,0,1.124-1.201,1.632-3.613l20.783-97.799
			c0.508-2.244,1.27-3.131,2.286-2.651c0.507,0.325,0.906,1.046,1.197,2.168c0.218,1.283,0.218,2.488,0,3.609
			c-6.458,29.365-14.002,64.182-22.634,104.452C477.14,961.777,476.886,964.341,476.886,967.066z"/>
		<path style="fill:#272525;" d="M513.666,935.065c0-23.329,3.607-43.503,10.828-60.527c7.218-17.021,16.086-25.534,26.605-25.534
			c10.954,0,19.659,7.961,26.116,23.88c6.457,15.923,9.685,36.492,9.685,61.71c0,22.854-3.337,42.007-10.01,57.452
			c-6.676,15.448-15.273,23.17-25.791,23.17c-11.246,0-20.295-7.366-27.149-22.104C517.094,978.371,513.666,959.023,513.666,935.065
			z M526.071,935.065c0,23.325,2.14,41.526,6.42,54.607c4.497,13.716,11.063,20.57,19.696,20.57c8.778,0,16.251-7.483,22.417-22.458
			c6.165-14.974,9.25-32.547,9.25-52.72c0-22.064-2.794-40.82-8.38-56.267c-5.948-16.389-13.639-24.586-23.068-24.586
			c-8.924,0-15.708,8.352-20.35,25.06C528.066,893.615,526.071,912.214,526.071,935.065z"/>
		<path style="fill:#272525;" d="M634.021,1008.501c7.325,0,13.058-6.73,17.192-20.19c3.844-12.5,5.767-28.685,5.767-48.559v-86.776
			c0-2.243,0.472-3.525,1.416-3.845c1.232-0.319,1.849,1.12,1.849,4.316v82.559c0,24.961-2.393,44.241-7.181,57.835
			c-5.08,14.402-12.443,21.601-22.091,21.601c-11.826,0-20.204-10.306-25.138-30.914c-2.976-12.458-4.461-26.758-4.461-42.894
			V855.12c0-3.994,1.994-5.989,5.985-5.989c3.988,0,5.985,2,5.985,6v96.729c0,15.681,1.015,27.763,3.046,36.242
			C619.582,1001.704,625.459,1008.501,634.021,1008.501z"/>
	</g>
</g>
<g id="Guides">
</g>
</svg>
