<?xml version="1.0" encoding="iso-8859-1"?>
<!-- Generator: Adobe Illustrator 15.1.0, SVG Export Plug-In . SVG Version: 6.00 Build 0)  -->
<!DOCTYPE svg PUBLIC "-//W3C//DTD SVG 1.1//EN" "http://www.w3.org/Graphics/SVG/1.1/DTD/svg11.dtd">
<svg version="1.1" xmlns="http://www.w3.org/2000/svg" xmlns:xlink="http://www.w3.org/1999/xlink" x="0px" y="0px" width="792px"
	 height="1224px" viewBox="0 0 792 1224" style="enable-background:new 0 0 792 1224;" xml:space="preserve">
<g id="Layer_1">
	<g>
		<path style="fill:#272525;" d="M140.096,207.978c14.413,0.128,25.647,7.154,33.705,21.082c8.833,15.326,13.25,33.736,13.25,55.23
			c0,21.558-4.417,39.968-13.25,55.23c-8.057,13.927-19.292,20.955-33.705,21.081h-8.426V207.978H140.096z M143.145,228.105v112.463
			c9.128,0,16.611-5.056,22.452-15.167c6.578-11.318,9.867-25.023,9.867-41.113c0-16.025-3.29-29.729-9.867-41.113
			C159.756,233.13,152.272,228.105,143.145,228.105z"/>
		<path style="fill:#272525;" d="M277.077,230.34c8.87,14.908,13.304,32.891,13.304,53.949c0,21.058-4.435,39.041-13.304,53.949
			c-8.87,14.908-19.569,22.362-32.098,22.362c-12.528,0-23.227-7.454-32.097-22.362c-8.87-14.908-13.304-32.891-13.304-53.949
			c0-21.058,4.435-39.041,13.304-53.949c8.87-14.908,19.569-22.362,32.097-22.362C257.508,207.978,268.207,215.432,277.077,230.34z
			 M244.979,227.452c-9.35,0-17.323,5.544-23.92,16.632c-6.597,11.088-9.895,24.492-9.895,40.206
			c0,15.716,3.307,29.134,9.923,40.252c6.615,11.12,14.58,16.678,23.893,16.678c9.35,0,17.324-5.558,23.921-16.678
			c6.597-11.118,9.895-24.536,9.895-40.252c0-15.714-3.298-29.118-9.895-40.206C262.303,232.996,254.329,227.452,244.979,227.452z"
			/>
		<path style="fill:#272525;" d="M354.465,207.978h11.531v106.638c-0.998,12.174-3.937,22.458-8.815,30.846
			c-5.913,10.094-13.026,15.139-21.342,15.139s-15.421-5.029-21.315-15.092c-5.895-10.061-8.842-22.188-8.842-36.381V207.978h11.531
			v101.149c0,8.705,1.82,16.166,5.46,22.377c3.64,6.214,8.029,9.32,13.166,9.32c5.174,0,9.57-3.089,13.194-9.273
			c3.622-6.181,5.433-13.656,5.433-22.425V207.978z"/>
		<path style="fill:#272525;" d="M457.853,338.997c-9.128,14.685-19.568,22.025-31.321,22.025c-12.528,0-23.209-7.434-32.042-22.305
			c-8.833-14.868-13.249-32.849-13.249-53.941c0-21.029,4.416-39.01,13.249-53.941c8.833-14.932,19.513-22.398,32.042-22.398
			c11.716,0,22.82,8.058,33.317,24.171l-8.593,13.159c-7.909-11.819-16.151-17.732-24.725-17.732
			c-9.276,0-17.213,5.539-23.809,16.613c-6.598,11.075-9.896,24.45-9.896,40.129c0,15.741,3.298,29.149,9.896,40.223
			c6.596,11.075,14.532,16.611,23.809,16.611c7.983,0,14.599-3.546,19.847-10.639v-45.075h11.475V338.997z"/>
		<path style="fill:#272525;" d="M475.093,360.601V207.978h11.476V340.76h31.709v19.841H475.093z"/>
		<path style="fill:#272525;" d="M564.511,207.978l32.264,152.623h-12.196l-11.42-53.99h-23.504l-11.364,53.99h-12.252
			l32.264-152.623H564.511z M569.001,286.865l-7.595-35.771l-7.539,35.771H569.001z"/>
		<path style="fill:#272525;" d="M632.582,282.824c-6.283-3.546-11.374-8.601-15.272-15.167c-3.899-6.564-5.848-14.701-5.848-24.407
			c0-9.521,2.023-17.702,6.069-24.547c4.048-6.844,8.953-10.267,14.719-10.267c5.69,0,10.568,3.392,14.635,10.173
			c2.291,3.733,4.213,9.676,5.766,17.827l-10.422,6.907c-1.257-5.724-2.403-9.457-3.438-11.2c-1.811-2.987-3.991-4.48-6.541-4.48
			c-2.587,0-4.787,1.51-6.597,4.527c-1.812,3.02-2.717,6.706-2.717,11.061c0,4.357,0.905,8.06,2.717,11.107
			c2.031,3.36,4.841,6.44,8.426,9.24c6.948,3.797,12.842,9.77,17.684,17.921c5.434,9.023,8.149,19.974,8.149,32.854
			c0,12.88-2.707,23.879-8.122,32.994c-5.414,9.116-11.927,13.674-19.54,13.674c-7.65,0-14.173-4.573-19.569-13.721
			c-4.323-7.28-7.06-17.328-8.204-30.147l11.143-6.813c0.701,11.014,2.42,18.823,5.155,23.427c3.179,5.353,7.004,8.027,11.476,8.027
			c4.471,0,8.296-2.674,11.475-8.027c3.179-5.35,4.768-11.821,4.768-19.413c0-7.528-1.589-13.968-4.768-19.32
			C640.694,289.95,636.98,285.874,632.582,282.824z"/>
	</g>
	<g>
		<path style="fill:#272525;" d="M193.971,479.448l7.542,12.459c-9.212,15.478-18.958,23.215-29.24,23.215
			c-10.995,0-20.369-7.14-28.121-21.423c-7.752-14.282-11.628-31.551-11.628-51.81c0-20.196,3.875-37.467,11.628-51.808
			c7.751-14.342,17.125-21.513,28.121-21.513c10.282,0,20.028,7.74,29.24,23.216l-7.542,12.638
			c-6.941-11.352-14.174-17.03-21.699-17.03c-8.142,0-15.106,5.319-20.896,15.955c-5.79,10.637-8.684,23.484-8.684,38.542
			c0,15.12,2.895,27.998,8.684,38.634c5.79,10.637,12.754,15.955,20.896,15.955C179.797,496.479,187.03,490.803,193.971,479.448z"/>
		<path style="fill:#272525;" d="M280.426,390.318c7.784,14.263,11.676,31.467,11.676,51.614c0,20.146-3.892,37.351-11.676,51.613
			c-7.785,14.263-17.174,21.395-28.17,21.395c-10.995,0-20.385-7.131-28.169-21.395c-7.784-14.262-11.676-31.467-11.676-51.613
			c0-20.147,3.892-37.351,11.676-51.614s17.174-21.394,28.169-21.394C263.252,368.924,272.642,376.056,280.426,390.318z
			 M252.256,387.555c-8.206,0-15.204,5.304-20.993,15.912c-5.79,10.607-8.685,23.43-8.685,38.465
			c0,15.037,2.902,27.873,8.709,38.509c5.805,10.639,12.795,15.958,20.969,15.958c8.206,0,15.204-5.318,20.994-15.958
			c5.79-10.637,8.684-23.473,8.684-38.509c0-15.035-2.895-27.857-8.684-38.465C267.46,392.859,260.462,387.555,252.256,387.555z"/>
		<path style="fill:#272525;" d="M348.345,368.924h10.12v101.865c-0.876,11.631-3.455,21.453-7.736,29.466
			c-5.189,9.642-11.433,14.462-18.73,14.462s-13.534-4.804-18.707-14.417c-5.174-9.61-7.76-21.195-7.76-34.753v-96.623h10.12v96.623
			c0,8.315,1.597,15.442,4.792,21.376c3.194,5.936,7.046,8.903,11.555,8.903c4.541,0,8.399-2.951,11.579-8.858
			c3.179-5.904,4.768-13.045,4.768-21.421V368.924z"/>
		<path style="fill:#272525;" d="M383.131,468.215v46.725H373.06V368.924h22.088c6.259,1.583,11.546,6.42,15.861,14.51
			c5.157,9.735,7.735,21.417,7.735,35.044c0,13.75-2.578,25.478-7.735,35.181c-5.157,9.705-11.385,14.556-18.683,14.556H383.131z
			 M383.131,387.907v61.326h9.195c4.476,0,8.311-2.996,11.507-8.989c3.193-5.991,4.791-13.246,4.791-21.765
			c0-8.456-1.598-15.665-4.791-21.629c-3.196-5.961-7.031-8.943-11.507-8.943H383.131z"/>
		<path style="fill:#272525;" d="M428.767,514.94V368.924h10.07v127.033h27.829v18.982H428.767z"/>
		<path style="fill:#272525;" d="M507.242,368.924l28.315,146.016h-10.703l-10.022-51.653h-20.629l-9.974,51.653h-10.752
			l28.315-146.016H507.242z M511.183,444.396l-6.665-34.222l-6.616,34.222H511.183z"/>
		<path style="fill:#272525;" d="M545.288,368.924h9.195l32.11,104.219V368.924h10.119V514.94h-8.806l-32.548-105.496V514.94
			h-10.071V368.924z"/>
		<path style="fill:#272525;" d="M618.704,368.924c12.649,0.123,22.509,6.844,29.58,20.168
			c7.752,14.664,11.628,32.276,11.628,52.839c0,20.625-3.876,38.238-11.628,52.839c-7.071,13.324-16.931,20.047-29.58,20.168h-7.396
			V368.924H618.704z M621.38,388.18v107.595c8.011,0,14.579-4.836,19.704-14.51c5.772-10.829,8.66-23.94,8.66-39.333
			c0-15.332-2.888-28.441-8.66-39.333C635.959,392.987,629.391,388.18,621.38,388.18z"/>
	</g>
	<g>
		<path style="fill:#272525;" d="M179.296,649.415V522.592h15.934v126.823c0.512,1.106,1.385,2.471,2.617,4.094
			c3.334,4.03,7.286,6.044,11.854,6.044c4.566,0,8.517-2.062,11.854-6.191c3.335-4.125,5.003-9.079,5.003-14.863V522.592h16.01
			v116.686c-0.206,10.983-3.414,20.406-9.622,28.269c-6.416,8.189-14.163,12.283-23.246,12.283c-9.032,0-16.499-4.029-22.399-12.087
			c-5.954,8.058-13.445,12.087-22.476,12.087c-9.083,0-16.807-4.094-23.168-12.283c-6.262-7.798-9.468-17.22-9.622-28.269V522.592
			h15.933v115.906c0,5.784,1.667,10.738,5.003,14.863c3.335,4.129,7.286,6.191,11.854,6.191c4.619,0,8.569-2.014,11.854-6.044
			C177.961,651.886,178.835,650.521,179.296,649.415z"/>
		<path style="fill:#272525;" d="M367.879,545.778c12.315,15.387,18.473,33.947,18.473,55.681c0,21.732-6.158,40.294-18.473,55.681
			c-12.316,15.387-27.171,23.08-44.567,23.08c-17.396,0-32.251-7.693-44.567-23.08c-12.315-15.387-18.473-33.948-18.473-55.681
			c0-21.734,6.158-40.294,18.473-55.681c12.316-15.387,27.171-23.081,44.567-23.081
			C340.708,522.697,355.563,530.391,367.879,545.778z M323.312,542.796c-12.983,0-24.054,5.722-33.213,17.166
			c-9.16,11.445-13.74,25.278-13.74,41.497c0,16.22,4.592,30.067,13.778,41.544c9.185,11.477,20.244,17.214,33.175,17.214
			c12.982,0,24.054-5.737,33.214-17.214s13.739-25.324,13.739-41.544c0-16.219-4.58-30.052-13.739-41.497
			C347.366,548.518,336.293,542.796,323.312,542.796z"/>
		<path style="fill:#272525;" d="M438.078,629.846h-14.549v50.473h-15.933V522.592h34.945c9.902,1.709,18.269,6.935,25.093,15.674
			c8.159,10.516,12.238,23.134,12.238,37.854c0,14.853-4.079,27.538-12.238,38.052c-5.646,7.229-9.957,11.303-12.931,12.224
			l27.324,53.923h-19.319L438.078,629.846z M423.529,543.096v66.245h14.549c7.081,0,13.148-3.236,18.204-9.71
			c5.054-6.472,7.58-14.309,7.58-23.51c0-9.134-2.526-16.921-7.58-23.364c-5.056-6.439-11.123-9.661-18.204-9.661H423.529z"/>
		<path style="fill:#272525;" d="M513.664,605.891v74.428H497.73V522.592h15.934v49.683l29.095-49.683h20.167l-37.793,64.865
			l47.029,92.862h-19.319l-38.102-76.104L513.664,605.891z"/>
		<path style="fill:#272525;" d="M621.887,599.532c-8.725-3.658-15.793-8.874-21.206-15.646c-5.414-6.771-8.12-15.166-8.12-25.179
			c0-9.822,2.81-18.261,8.428-25.324c5.62-7.06,12.432-10.591,20.437-10.591c7.901,0,14.675,3.5,20.32,10.495
			c3.182,3.851,5.851,9.982,8.006,18.39l-14.472,7.125c-1.744-5.904-3.336-9.756-4.771-11.554c-2.515-3.081-5.542-4.621-9.083-4.621
			c-3.592,0-6.646,1.557-9.16,4.67c-2.514,3.114-3.771,6.917-3.771,11.41c0,4.493,1.258,8.314,3.771,11.458
			c2.821,3.466,6.723,6.644,11.7,9.532c9.647,3.916,17.831,10.078,24.555,18.487c7.543,9.307,11.314,20.605,11.314,33.893
			s-3.76,24.634-11.277,34.037c-7.518,9.404-16.561,14.105-27.132,14.105c-10.622,0-19.68-4.719-27.171-14.154
			c-6.004-7.51-9.803-17.876-11.393-31.1l15.472-7.029c0.974,11.36,3.36,19.417,7.158,24.167c4.413,5.522,9.725,8.281,15.934,8.281
			c6.208,0,11.52-2.759,15.934-8.281c4.413-5.519,6.619-12.193,6.619-20.026c0-7.767-2.206-14.41-6.619-19.931
			C633.15,606.883,627.993,602.677,621.887,599.532z"/>
	</g>
	<g>
		<path style="fill:#272525;" d="M147.381,777.689v62.851h-15.346V688.635h15.346v69.401h36.622v-69.401h15.346V840.54h-15.346
			v-62.851H147.381z"/>
		<path style="fill:#272525;" d="M265.624,688.635l43.146,151.905H292.46l-15.271-53.736h-31.433l-15.197,53.736h-16.383
			l43.146-151.905H265.624z M271.628,767.151l-10.156-35.603l-10.082,35.603H271.628z"/>
		<path style="fill:#272525;" d="M352.953,791.93h-14.011v48.61h-15.346V688.635h33.656c9.538,1.647,17.594,6.679,24.167,15.096
			c7.858,10.127,11.788,22.279,11.788,36.457c0,14.305-3.93,26.521-11.788,36.647c-5.437,6.964-9.589,10.886-12.454,11.771
			l26.318,51.934h-18.608L352.953,791.93z M338.941,708.383v63.8h14.011c6.82,0,12.664-3.116,17.532-9.352
			c4.867-6.233,7.302-13.781,7.302-22.644c0-8.796-2.435-16.297-7.302-22.5c-4.869-6.203-10.712-9.305-17.532-9.305H338.941z"/>
		<path style="fill:#272525;" d="M421.675,688.635c19.274,0.129,34.298,7.121,45.072,20.982
			c11.812,15.254,17.718,33.577,17.718,54.971c0,21.456-5.905,39.779-17.718,54.97c-10.774,13.861-25.798,20.855-45.072,20.982
			h-11.269V688.635H421.675z M425.752,708.668v111.935c12.206,0,22.214-5.032,30.023-15.096
			c8.797-11.265,13.196-24.906,13.196-40.919c0-15.95-4.399-29.589-13.196-40.92C447.966,713.668,437.958,708.668,425.752,708.668z"
			/>
		<path style="fill:#272525;" d="M566.976,688.635v19.652h-48.558v46.427h48.558v19.652h-48.558v46.426h48.558v19.748h-63.903
			V688.635H566.976z"/>
		<path style="fill:#272525;" d="M616.719,791.93h-14.011v48.61h-15.346V688.635h33.656c9.537,1.647,17.595,6.679,24.167,15.096
			c7.858,10.127,11.787,22.279,11.787,36.457c0,14.305-3.929,26.521-11.787,36.647c-5.438,6.964-9.589,10.886-12.454,11.771
			l26.317,51.934h-18.607L616.719,791.93z M602.708,708.383v63.8h14.011c6.82,0,12.664-3.116,17.533-9.352
			c4.867-6.233,7.302-13.781,7.302-22.644c0-8.796-2.435-16.297-7.302-22.5c-4.869-6.203-10.713-9.305-17.533-9.305H602.708z"/>
	</g>
	<g>
		<path style="fill:#272525;" d="M162.37,870.395V1015h-10.873V870.395h-19.499v-21.489h49.871v21.489H162.37z"/>
		<path style="fill:#272525;" d="M203.146,946.278V1015h-10.821V848.905h10.821v75.885h25.824v-75.885h10.821V1015h-10.821v-68.722
			H203.146z"/>
		<path style="fill:#272525;" d="M286.525,848.905L316.949,1015h-11.5l-10.769-58.756h-22.165L261.799,1015h-11.553l30.424-166.095
			H286.525z M290.759,934.756l-7.162-38.929l-7.109,38.929H290.759z"/>
		<path style="fill:#272525;" d="M327.405,848.905h9.88l34.502,118.551V848.905h10.874V1015h-9.462l-34.973-120.003V1015h-10.821
			V848.905z"/>
		<path style="fill:#272525;" d="M455.898,948.354l-28.908-99.449h12.441l21.851,75.158l21.904-75.158h12.493l-28.96,99.449V1015
			h-10.821V948.354z"/>
		<path style="fill:#272525;" d="M575.818,873.242c8.364,16.227,12.547,35.795,12.547,58.712s-4.183,42.485-12.547,58.711
			c-8.363,16.223-18.453,24.335-30.268,24.335s-21.903-8.112-30.268-24.335c-8.364-16.226-12.546-35.794-12.546-58.711
			s4.182-42.485,12.546-58.712c8.364-16.223,18.453-24.334,30.268-24.334S567.455,857.02,575.818,873.242z M545.551,870.101
			c-8.816,0-16.336,6.031-22.557,18.101c-6.221,12.065-9.331,26.651-9.331,43.753c0,17.103,3.118,31.704,9.357,43.804
			c6.238,12.103,13.748,18.152,22.53,18.152c8.816,0,16.337-6.05,22.557-18.152c6.222-12.1,9.332-26.701,9.332-43.804
			c0-17.102-3.11-31.688-9.332-43.753C561.888,876.132,554.367,870.101,545.551,870.101z"/>
		<path style="fill:#272525;" d="M648.796,848.905h10.873v116.05c-0.941,13.249-3.712,24.44-8.312,33.569
			c-5.576,10.984-12.285,16.476-20.127,16.476c-7.841,0-14.541-5.474-20.1-16.425c-5.559-10.947-8.338-24.146-8.338-39.593V848.905
			h10.873v110.077c0,9.475,1.717,17.593,5.149,24.354c3.433,6.763,7.571,10.143,12.415,10.143c4.88,0,9.026-3.361,12.442-10.09
			c3.415-6.729,5.123-14.863,5.123-24.406V848.905z"/>
	</g>
</g>
<g id="Guides">
</g>
</svg>
