<?xml version="1.0" encoding="iso-8859-1"?>
<!-- Generator: Adobe Illustrator 15.1.0, SVG Export Plug-In . SVG Version: 6.00 Build 0)  -->
<!DOCTYPE svg PUBLIC "-//W3C//DTD SVG 1.1//EN" "http://www.w3.org/Graphics/SVG/1.1/DTD/svg11.dtd">
<svg version="1.1" xmlns="http://www.w3.org/2000/svg" xmlns:xlink="http://www.w3.org/1999/xlink" x="0px" y="0px" width="792px"
	 height="1224px" viewBox="0 0 792 1224" style="enable-background:new 0 0 792 1224;" xml:space="preserve">
<g id="Layer_1">
	<g>
		<path style="fill:#272525;" d="M146.44,239.217c0-11.305-1.888-16.957-5.666-16.957c-0.667,0-1.444,0.152-2.333,0.453
			c-1.333,0.452-2.333,0.678-3,0.678c-2.296,0-3.444-2.409-3.444-7.234c0-5.274,1.667-7.913,4.999-7.913
			c0.37,0,0.851,0.078,1.444,0.227l5.888,1.582c2.222,0.604,4.591,0.905,7.11,0.905c2.072,0,4.147-0.226,6.221-0.678l7.221-1.583
			c1.406-0.3,3.258-0.452,5.555-0.452c6.739,0,12.368,1.961,16.887,5.878c5.924,5.125,10.609,14.017,14.053,26.679
			c3.444,12.66,5.166,27.355,5.166,44.086c0,14.772-1.371,28.073-4.11,39.903c-2.741,11.834-6.481,20.539-11.22,26.113
			c-5.704,6.783-12.592,10.174-20.664,10.174c-1.63,0-3.296-0.151-5-0.452l-7.665-1.357c-2.594-0.452-5.296-0.678-8.11-0.678
			c-2.444,0-4.444,0.226-5.999,0.678l-5.333,1.583c-0.149,0-0.408,0.075-0.778,0.226c-0.371,0-0.667,0-0.888,0
			c-3.186,0-4.777-2.635-4.777-7.913c0-2.109,0.333-3.878,1-5.312c0.667-1.431,1.48-2.148,2.444-2.148c0.814,0,1.814,0.227,3,0.678
			c0.517,0.305,1.295,0.453,2.333,0.453c3.777,0,5.666-5.652,5.666-16.957V239.217z M155.772,236.906v95.28
			c0,6.91,1.667,11.113,5,12.614c1.111,0.601,4.221,0.901,9.332,0.901c8.888,0,15.331-4.878,19.33-14.643
			c4.813-11.71,7.221-27.176,7.221-46.401c0-15.016-1.463-27.745-4.388-38.179c-2.927-10.435-6.943-17.158-12.054-20.161
			c-3.26-1.95-7.185-2.929-11.776-2.929c-5.852,0-9.425,0.678-10.72,2.028C156.42,226.771,155.772,230.601,155.772,236.906z"/>
		<path style="fill:#272525;" d="M246.869,361.076c-9.851,0-17.646-6.919-23.385-20.758c-5.741-13.838-8.61-32.576-8.61-56.219
			c0-23.926,2.888-42.705,8.665-56.327s13.737-20.433,23.885-20.433c9.702,0,17.423,6.632,23.163,19.893
			c5.739,13.263,8.61,31.211,8.61,53.84c0,24.508-2.908,43.97-8.721,58.381C264.661,353.87,256.792,361.076,246.869,361.076z
			 M247.091,222.907c-7.11,0-12.628,5.334-16.553,16c-3.927,10.67-5.888,25.66-5.888,44.976c0,19.605,1.961,34.779,5.888,45.517
			c3.925,10.74,9.405,16.108,16.441,16.108c6.888,0,12.349-5.584,16.386-16.757c4.036-11.169,6.055-26.343,6.055-45.516
			c0-19.315-1.927-34.198-5.777-44.651C259.792,228.132,254.274,222.907,247.091,222.907z"/>
		<path style="fill:#272525;" d="M306.415,243.036v14.094l-0.667,17.836v33.914c0,10.278,0.573,17.766,1.722,22.462
			c1.147,4.7,3.313,8.367,6.499,11.011c2.961,2.497,6,3.744,9.11,3.744c4.073,0,7.554-1.542,10.443-4.625
			c2.888-3.083,4.758-7.229,5.61-12.442c0.851-5.209,1.314-11.854,1.389-19.929v-56.594c0-11.155-0.072-17.469-0.218-18.939
			c-0.656-7.487-2.517-11.23-5.581-11.23c-0.511,0-1.24,0.117-2.187,0.351c-1.387,0.354-2.371,0.529-2.955,0.529
			c-0.947,0-1.769-0.722-2.461-2.167c-0.694-1.445-1.039-3.11-1.039-4.992c0-5.211,1.628-7.815,4.888-7.815
			c0.517,0,1.037,0.076,1.555,0.22l6.555,1.762c1.628,0.44,3.48,0.66,5.555,0.66c1.999,0,3.666-0.203,5-0.608l4.776-1.425
			c1.333-0.406,2.222-0.609,2.667-0.609c3.111,0,4.666,2.499,4.666,7.488c0,4.992-1.519,7.486-4.555,7.486h-1.222
			c-0.222,0-0.594,0-1.111,0c-2.222,0-3.593,2.196-4.11,6.587c-0.52,4.389-0.778,15.658-0.778,33.803v38.416
			c0,9.511-0.149,16.388-0.444,20.634c-0.594,7.315-1.852,13.681-3.777,19.096c-4.443,12.731-11.962,19.097-22.552,19.097
			c-13.036,0-21.441-8.413-25.218-25.245c-1.186-5.121-1.778-13.093-1.778-23.925c0-5.268,0.111-13.061,0.333-23.377
			c0.222-10.315,0.333-18.108,0.333-23.379V253.29c0-10.68-0.038-16.681-0.111-17.998c-0.519-8.049-1.963-12.075-4.333-12.075
			c-0.149,0-0.408,0-0.778,0c-0.371,0-0.705,0-1,0c-0.297,0-0.778,0-1.445,0c-3.11,0-4.666-2.494-4.666-7.486
			c0-4.989,1.406-7.488,4.222-7.488c1.184,0,2.444,0.22,3.777,0.661c3.628,1.177,6.999,1.762,10.11,1.762
			c3.184,0,6.849-0.661,10.998-1.982c0.889-0.292,1.85-0.441,2.889-0.441c3.036,0,4.555,2.499,4.555,7.488
			c0,4.992-1.297,7.486-3.888,7.486c-0.594,0-1.482-0.181-2.667-0.551c-1.186-0.363-2.074-0.55-2.667-0.55
			c-2.371,0-3.962,2.498-4.776,7.487C306.709,231.805,306.487,236.286,306.415,243.036z"/>
		<path style="fill:#272525;" d="M399.648,206.926c7.438,0,14.166,5.431,20.191,16.294c-0.297-2.026-0.444-3.185-0.444-3.476
			c-0.149-2.895-0.222-4.488-0.222-4.779c0-4.78,1.222-7.17,3.666-7.17c2.666,0,3.999,3.117,3.999,9.343
			c0,2.029-0.042,3.55-0.121,4.562l-0.85,10.428c-0.242,3.042-0.362,6.3-0.362,9.777c0,2.753,0.147,8.619,0.444,17.598v1.955
			c0,6.518-1.371,9.776-4.11,9.776c-2.594,0-3.888-3.547-3.888-10.645v-6.518c0-9.994-1.682-17.887-5.042-23.681
			c-3.359-5.792-7.886-8.69-13.572-8.69c-7.166,0-12.781,5.431-16.843,16.293c-4.062,10.863-6.093,25.783-6.093,44.755
			c0,20.133,2.092,35.847,6.277,47.145c4.183,11.298,9.979,16.946,17.386,16.946c5.702,0,10.109-3.272,13.22-9.818
			c3.111-6.544,4.667-15.856,4.667-27.928c0-4.946-0.428-8.401-1.278-10.364c-0.853-1.962-2.353-2.947-4.5-2.947
			c-0.593,0-1.443,0.075-2.554,0.218c-1.111,0.146-1.964,0.216-2.556,0.216c-3.555,0-5.333-2.46-5.333-7.386
			c0-5.068,1.518-7.604,4.556-7.604c0.961,0,2.036,0.159,3.222,0.479c4.665,1.276,8.404,1.911,11.221,1.911
			c3.628,0,7.479-0.652,11.553-1.955c0.89-0.289,1.889-0.435,3-0.435c2.961,0,4.443,2.39,4.443,7.169
			c0,2.031-0.389,3.768-1.167,5.214c-0.777,1.45-1.685,2.172-2.722,2.172c-0.889,0-1.555,0-1.999,0c-0.149,0-0.408,0-0.778,0
			s-0.666,0-0.889,0c-3.26,0-4.888,7.051-4.888,21.149v17.266c0,3.74,0.073,7.122,0.222,10.143c0.148,3.021,0.223,5.397,0.223,7.123
			c0,5.896-1.333,8.846-3.999,8.846c-2.594,0-3.889-2.536-3.889-7.604l0.223-5.214c0.073-1.304,0.147-3.547,0.222-6.735
			c-1.705,4.491-3.038,7.604-3.999,9.342c-4.296,7.529-10.259,11.297-17.886,11.297c-9.555,0-17.258-6.952-23.108-20.857
			c-5.851-13.905-8.776-32.079-8.776-54.531c0-24.042,2.992-43.235,8.979-57.574C381.482,214.095,389.533,206.926,399.648,206.926z"
			/>
		<path style="fill:#272525;" d="M467.165,326.813c0,8.845,0.444,14.092,1.333,15.742c0.666,1.349,1.536,2.172,2.61,2.472
			c1.073,0.301,3.5,0.449,7.277,0.449h9.776c5.109,0,8.516-1.374,10.22-4.126c1.703-2.749,2.556-8.288,2.556-16.61
			c0-2.229-0.038-4.833-0.111-7.807c-0.149-5.797-0.222-9.291-0.222-10.481c0-6.539,1.294-9.81,3.888-9.81
			c3.111,0,4.666,3.017,4.666,9.044c0,1.809-0.038,3.242-0.11,4.295l-0.778,11.53c-0.223,3.317-0.333,6.782-0.333,10.399
			c0,2.113,0.092,5.239,0.277,9.383c0.185,4.146,0.278,7.273,0.278,9.382c0,6.782-1.89,10.174-5.666,10.174
			c-0.741,0-2.444-0.265-5.11-0.791c-1.777-0.263-4.519-0.527-8.221-0.792h-8.332h-17.775c-1.777,0-4.74,0.304-8.888,0.905
			c-0.594,0-1.61,0.114-3.055,0.339c-1.444,0.227-2.574,0.34-3.389,0.34c-3.11,0-4.666-2.714-4.666-8.139
			c0-4.822,1.147-7.235,3.444-7.235c0.592,0,1.48,0.226,2.666,0.679c1.185,0.452,2.073,0.678,2.666,0.678
			c3.777,0,5.666-5.652,5.666-16.957v-90.659c0-11.152-1.889-16.73-5.666-16.73c-1.038,0-1.815,0.152-2.332,0.452
			c-1.186,0.452-2.187,0.678-3,0.678c-0.963,0-1.777-0.713-2.444-2.147c-0.666-1.431-1-3.201-1-5.313
			c0-5.274,1.593-7.913,4.777-7.913c0.444,0,1,0.078,1.667,0.227l5.888,1.356c3.258,0.756,5.665,1.13,7.221,1.13
			c1.925,0,4.295-0.375,7.11-1.13l5.11-1.356c0.592-0.148,1.072-0.227,1.443-0.227c3.333,0,4.999,2.639,4.999,7.913
			c0,2.112-0.332,3.882-0.999,5.313c-0.667,1.435-1.482,2.147-2.444,2.147c-0.741,0-1.74-0.226-2.999-0.678
			c-0.52-0.3-1.297-0.452-2.333-0.452c-3.777,0-5.666,5.546-5.666,16.638V326.813z"/>
		<path style="fill:#272525;" d="M572.923,334.397l-3.999-22.156c-0.444-2.409-0.908-3.917-1.389-4.521
			c-0.482-0.601-1.464-0.905-2.944-0.905h-19.774c-1.482,0-2.5,0.53-3.055,1.583c-0.556,1.057-1.277,3.921-2.166,8.591
			l-3.223,17.408c-0.297,1.66-0.444,3.243-0.444,4.749c0,4.825,1.444,7.234,4.333,7.234c0.739,0,1.795-0.148,3.166-0.451
			c1.37-0.301,2.389-0.453,3.055-0.453c3.037,0,4.556,2.639,4.556,7.913c0,4.975-1.667,7.461-4.999,7.461
			c-0.594,0-1.408-0.152-2.445-0.453l-5.555-1.406c-1.037-0.269-2.74-0.403-5.109-0.403c-2.594,0-4.407,0.127-5.444,0.377
			l-4.665,1.131c-2.075,0.502-3.594,0.753-4.555,0.753c-2.889,0-4.333-2.487-4.333-7.461c0-5.274,1.405-7.913,4.222-7.913
			c0.592,0,1.036,0.303,1.333,0.904h1.444c2,0,3.517-1.586,4.555-4.761c0.444-1.209,1.184-4.763,2.222-10.662l20.663-114.091
			c1.185-6.352,3.518-9.528,6.999-9.528c3.406,0,5.666,3.165,6.777,9.496l19.885,112.138c1.259,7.085,2.406,11.756,3.444,14.017
			c1.036,2.261,2.518,3.391,4.444,3.391c0.591,0,1.035-0.098,1.333-0.3l3.11-0.604c2.813,0,4.221,2.487,4.221,7.453
			c0,5.281-1.407,7.921-4.221,7.921c-0.815,0-1.89-0.17-3.222-0.502c-4.666-1.172-8.148-1.759-10.443-1.759
			c-2.74,0-7.185,0.604-13.331,1.809c-1.556,0.3-2.741,0.453-3.555,0.453c-2.963,0-4.443-2.562-4.443-7.688
			c0-5.122,1.628-7.687,4.888-7.687c0.667,0,1.647,0.152,2.943,0.453c1.296,0.303,2.277,0.451,2.944,0.451
			c2.444,0,3.667-2.034,3.667-6.104C573.812,339.676,573.515,337.715,572.923,334.397z M564.925,288.277l-9.999-62.4l-10.221,62.4
			c-0.149,0.904-0.222,1.434-0.222,1.583c0,1.356,0.555,2.035,1.666,2.035h17.664c0.889,0,1.333-0.6,1.333-1.809
			C565.146,289.785,565.072,289.181,564.925,288.277z"/>
		<path style="fill:#272525;" d="M631.801,206.926c7.258,0,13.183,4.551,17.775,13.654v-3.035c0-5.634,1.147-8.452,3.444-8.452
			c2.517,0,3.776,3.109,3.776,9.32v1.3c0,0.291-0.11,2.458-0.333,6.501c-0.223,4.047-0.333,8.886-0.333,14.521
			c0,0.726,0.072,3.034,0.222,6.936l0.334,8.669c0.072,0.724,0.11,1.733,0.11,3.035c0,6.935-1.371,10.402-4.11,10.402
			c-2.889,0-4.332-2.888-4.332-8.669v-1.083l0.222-5.852c0.073-2.022,0.111-3.61,0.111-4.769c0-8.669-1.5-15.459-4.499-20.373
			c-3-4.91-7.129-7.369-12.388-7.369c-4.814,0-8.647,2.312-11.497,6.935c-2.853,4.625-4.277,10.836-4.277,18.639
			c0,9.104,2.11,15.822,6.332,20.156c2.369,2.312,6.517,4.41,12.442,6.286c8.812,2.747,14.849,6.502,18.108,11.27
			c4.888,7.082,7.332,17.123,7.332,30.126c0,13.583-2.494,24.636-7.481,33.16c-4.989,8.523-11.436,12.787-19.341,12.787
			c-8.424,0-15.407-5.201-20.948-15.604c0,0.569,0,1.212,0,1.924c0,0.714,0,1.141,0,1.284c0.296,2.282,0.444,3.775,0.444,4.487
			c0,5.272-1.367,7.91-4.102,7.91c-2.968,0-4.452-3.034-4.452-9.103c0-0.721,0.111-1.3,0.333-1.734l0.509-11.27
			c0.253-5.635,0.381-9.245,0.381-10.837c0-2.888-0.206-7.222-0.611-13.003c-0.408-5.777-0.611-10.112-0.611-13.004
			c0-6.503,1.406-9.753,4.222-9.753c2.888,0,4.332,3.265,4.332,9.794v3.914c0,1.163,0,2.831,0,5.006
			c0,10.88,1.772,19.511,5.317,25.896c3.544,6.383,8.344,9.574,14.4,9.574c5.611,0,10.08-2.601,13.402-7.803
			c3.322-5.201,4.985-12.279,4.985-21.24c0-13.725-4.444-22.106-13.331-25.141l-6.332-2.167c-6.297-2.167-11.185-4.694-14.664-7.586
			c-3.186-2.743-5.723-7.044-7.61-12.896c-1.889-5.852-2.833-12.461-2.833-19.831c0-12.712,2.369-23.045,7.11-30.994
			C618.099,210.901,624.246,206.926,631.801,206.926z"/>
	</g>
	<g>
		<path style="fill:#272525;" d="M160.956,369.328c7.143,0,12.966,5.798,17.471,17.387v-2.304c0-0.696,0-1.467,0-2.304
			c-0.129-0.838-0.193-1.326-0.193-1.468c-0.13-3.071-0.193-4.468-0.193-4.189c0-4.746,0.999-7.122,2.996-7.122
			c2.121,0,3.182,2.864,3.182,8.592c0,1.093-0.065,4.366-0.193,9.818c-0.386,6.82-0.579,11.525-0.579,14.115
			c0,3.682,0.11,7.434,0.33,11.25l0.442,7.773v2.045c0,6.136-1.158,9.205-3.475,9.205c-2.51,0-3.733-2.906-3.668-8.723V416.1
			c0.128-9.735-1.315-17.648-4.332-23.734c-3.016-6.086-6.964-9.128-11.842-9.128c-6.354,0-11.328,5.184-14.922,15.546
			c-3.594,10.365-5.391,24.684-5.391,42.956c0,18.685,1.849,33.24,5.55,43.672c3.7,10.432,8.864,15.648,15.492,15.648
			c3.603,0,6.837-1.842,9.701-5.523c2.862-3.682,4.874-8.521,6.033-14.523c0.772-3.954,1.158-9.272,1.158-15.955
			c0-6.271,1.222-9.41,3.668-9.41c2.638,0,3.958,3.138,3.958,9.41c0,14.594-2.381,26.524-7.143,35.796
			c-4.763,9.275-10.907,13.91-18.436,13.91c-8.687,0-15.622-6.475-20.801-19.433c-5.181-12.954-7.77-30.204-7.77-51.751
			c0-22.227,2.654-40.16,7.963-53.798C145.271,376.148,152.269,369.328,160.956,369.328z"/>
		<path style="fill:#272525;" d="M221.283,514.765c-8.559,0-15.333-6.57-20.318-19.711c-4.988-13.14-7.481-30.932-7.481-53.382
			c0-22.72,2.51-40.551,7.529-53.486c5.02-12.936,11.936-19.403,20.753-19.403c8.429,0,15.138,6.298,20.125,18.89
			c4.986,12.595,7.48,29.637,7.48,51.124c0,23.272-2.526,41.751-7.577,55.437C236.742,507.922,229.906,514.765,221.283,514.765z
			 M221.476,383.566c-6.177,0-10.972,5.065-14.382,15.193c-3.412,10.131-5.116,24.366-5.116,42.707
			c0,18.616,1.704,33.024,5.116,43.22c3.41,10.199,8.171,15.296,14.285,15.296c5.985,0,10.729-5.302,14.237-15.912
			c3.507-10.606,5.261-25.014,5.261-43.22c0-18.34-1.674-32.473-5.02-42.398C232.512,388.528,227.717,383.566,221.476,383.566z"/>
		<path style="fill:#272525;" d="M273.021,403.061v13.363l-0.579,16.912v32.154c0,9.746,0.498,16.844,1.496,21.297
			c0.997,4.456,2.879,7.934,5.646,10.44c2.573,2.368,5.212,3.549,7.915,3.549c3.538,0,6.564-1.461,9.073-4.385
			c2.51-2.923,4.134-6.854,4.874-11.797c0.739-4.939,1.143-11.239,1.207-18.896v-53.66c0-10.577-0.063-16.563-0.189-17.956
			c-0.569-7.099-2.187-10.648-4.849-10.648c-0.443,0-1.077,0.111-1.9,0.332c-1.205,0.337-2.061,0.502-2.567,0.502
			c-0.823,0-1.537-0.685-2.139-2.056c-0.604-1.37-0.903-2.949-0.903-4.733c0-4.939,1.415-7.409,4.247-7.409
			c0.449,0,0.9,0.071,1.351,0.209l5.695,1.67c1.416,0.417,3.024,0.626,4.827,0.626c1.737,0,3.185-0.192,4.343-0.577l4.15-1.351
			c1.159-0.385,1.93-0.577,2.317-0.577c2.702,0,4.053,2.369,4.053,7.099c0,4.733-1.32,7.099-3.958,7.099h-1.061
			c-0.193,0-0.517,0-0.965,0c-1.93,0-3.122,2.082-3.572,6.245c-0.451,4.162-0.676,14.847-0.676,32.049v36.425
			c0,9.017-0.129,15.538-0.386,19.563c-0.515,6.936-1.609,12.972-3.282,18.106c-3.861,12.071-10.393,18.106-19.594,18.106
			c-11.327,0-18.629-7.976-21.911-23.936c-1.03-4.855-1.544-12.414-1.544-22.684c0-4.994,0.096-12.383,0.29-22.164
			c0.193-9.781,0.29-17.169,0.29-22.168v-11.03c0-10.126-0.033-15.815-0.097-17.064c-0.451-7.631-1.706-11.448-3.764-11.448
			c-0.13,0-0.354,0-0.676,0c-0.323,0-0.612,0-0.869,0c-0.258,0-0.676,0-1.255,0c-2.703,0-4.054-2.365-4.054-7.099
			c0-4.73,1.222-7.099,3.668-7.099c1.029,0,2.124,0.209,3.282,0.626c3.152,1.116,6.081,1.67,8.784,1.67
			c2.766,0,5.951-0.627,9.556-1.879c0.772-0.277,1.608-0.417,2.51-0.417c2.638,0,3.958,2.369,3.958,7.099
			c0,4.733-1.127,7.099-3.378,7.099c-0.516,0-1.288-0.173-2.316-0.522c-1.03-0.345-1.802-0.521-2.317-0.521
			c-2.06,0-3.443,2.369-4.15,7.099C273.277,392.413,273.084,396.661,273.021,403.061z"/>
		<path style="fill:#272525;" d="M335.953,484.867v-85.387c0-10.502-1.628-15.754-4.884-15.754c-0.512,0-1.183,0.113-2.012,0.339
			c-1.214,0.344-2.077,0.513-2.587,0.513c-2.043,0-3.064-2.346-3.064-7.04c0-4.976,1.413-7.466,4.24-7.466
			c0.449,0,0.932,0.073,1.446,0.213l4.723,1.28c1.542,0.427,3.467,0.64,5.781,0.64c1.606,0,3.534-0.213,5.783-0.64
			c5.266-0.993,9.25-1.493,11.95-1.493c4.111,0,7.643,0.713,10.599,2.133c4.239,1.993,7.564,6.399,9.974,13.226
			c2.409,6.826,3.614,15.076,3.614,24.744c0,13.369-2.076,23.609-6.227,30.717c-4.15,7.113-10.151,10.667-18.001,10.667h-6.854
			c-2.124,0-3.378,0-3.764,0h-0.193c-1.03,0-1.689,0.39-1.979,1.17s-0.434,2.583-0.434,5.413v4.25
			c0,17.986,0.241,28.888,0.724,32.71c0.483,3.823,1.882,5.733,4.199,5.733c0.708,0,1.383-0.213,2.027-0.64
			c1.415-0.283,2.283-0.427,2.606-0.427c1.994,0,2.992,2.277,2.992,6.827c0,5.12-1.417,7.679-4.247,7.679l-1.351-0.426l-4.827-1.494
			c-1.351-0.426-3.378-0.64-6.081-0.64c-2.253,0-4.087,0.213-5.501,0.64l-5.599,1.707c-0.13,0-0.323,0.07-0.579,0.213
			c-0.258,0-0.482,0-0.676,0c-2.896,0-4.344-2.487-4.344-7.466c0-1.99,0.29-3.659,0.869-5.013c0.579-1.35,1.286-2.027,2.123-2.027
			c0.708,0,1.576,0.214,2.606,0.64c0.449,0.287,1.125,0.426,2.027,0.426C334.312,500.834,335.953,495.512,335.953,484.867z
			 M344.737,388.205c-0.451,1.422-0.675,5.333-0.675,11.732v31.57c0,3.84,1.222,6.047,3.668,6.613c-0.194,0,1.672,0,5.598,0
			c4.569,0,8.365-0.781,11.39-2.347c5.727-2.986,8.591-11.305,8.591-24.958c0-18.058-5.213-27.09-15.638-27.09
			C349.95,383.725,345.638,385.218,344.737,388.205z"/>
		<path style="fill:#272525;" d="M405.644,481.946c0,8.346,0.387,13.296,1.159,14.853c0.578,1.273,1.334,2.05,2.268,2.333
			c0.932,0.283,3.041,0.423,6.322,0.423h8.494c4.44,0,7.399-1.296,8.881-3.893c1.479-2.594,2.22-7.819,2.22-15.672
			c0-2.103-0.033-4.559-0.097-7.366c-0.129-5.469-0.193-8.766-0.193-9.889c0-6.169,1.125-9.256,3.379-9.256
			c2.703,0,4.054,2.846,4.054,8.532c0,1.707-0.033,3.06-0.096,4.053l-0.677,10.879c-0.192,3.129-0.289,6.399-0.289,9.812
			c0,1.994,0.08,4.943,0.241,8.853c0.16,3.913,0.241,6.862,0.241,8.852c0,6.4-1.641,9.6-4.923,9.6c-0.644,0-2.123-0.25-4.44-0.747
			c-1.544-0.247-3.926-0.497-7.143-0.747h-7.239h-15.443c-1.545,0-4.119,0.287-7.722,0.854c-0.516,0-1.4,0.107-2.655,0.32
			c-1.255,0.213-2.236,0.32-2.944,0.32c-2.703,0-4.054-2.56-4.054-7.679c0-4.549,0.997-6.827,2.993-6.827
			c0.514,0,1.287,0.213,2.316,0.64c1.029,0.426,1.801,0.64,2.316,0.64c3.282,0,4.923-5.333,4.923-15.999v-85.54
			c0-10.522-1.641-15.785-4.923-15.785c-0.902,0-1.578,0.144-2.027,0.427c-1.03,0.426-1.899,0.64-2.606,0.64
			c-0.837,0-1.544-0.673-2.124-2.026c-0.579-1.35-0.869-3.02-0.869-5.013c0-4.976,1.383-7.466,4.151-7.466
			c0.386,0,0.869,0.073,1.448,0.213l5.116,1.28c2.83,0.713,4.922,1.066,6.274,1.066c1.672,0,3.73-0.354,6.177-1.066l4.44-1.28
			c0.514-0.141,0.932-0.213,1.254-0.213c2.896,0,4.344,2.49,4.344,7.466c0,1.994-0.289,3.664-0.868,5.013
			c-0.579,1.354-1.288,2.026-2.123,2.026c-0.645,0-1.513-0.213-2.606-0.64c-0.451-0.283-1.127-0.427-2.027-0.427
			c-3.281,0-4.923,5.233-4.923,15.698V481.946z"/>
		<path style="fill:#272525;" d="M497.533,489.102l-3.476-20.904c-0.386-2.273-0.788-3.696-1.206-4.267
			c-0.419-0.566-1.271-0.853-2.558-0.853h-17.182c-1.288,0-2.172,0.5-2.654,1.493c-0.482,0.998-1.11,3.7-1.882,8.106l-2.8,16.425
			c-0.258,1.566-0.386,3.06-0.386,4.48c0,4.552,1.255,6.826,3.764,6.826c0.643,0,1.56-0.141,2.751-0.426
			c1.19-0.283,2.075-0.427,2.655-0.427c2.638,0,3.957,2.49,3.957,7.466c0,4.693-1.447,7.04-4.344,7.04
			c-0.516,0-1.223-0.144-2.124-0.427l-4.826-1.327c-0.901-0.253-2.381-0.379-4.439-0.379c-2.254,0-3.829,0.12-4.73,0.356L454,513.35
			c-1.802,0.474-3.122,0.71-3.957,0.71c-2.51,0-3.765-2.346-3.765-7.04c0-4.976,1.222-7.466,3.668-7.466
			c0.514,0,0.9,0.287,1.158,0.854h1.255c1.737,0,3.056-1.496,3.958-4.492c0.386-1.141,1.028-4.494,1.931-10.06l17.953-107.647
			c1.028-5.993,3.056-8.99,6.081-8.99c2.959,0,4.923,2.987,5.888,8.959l17.278,105.806c1.093,6.685,2.09,11.092,2.992,13.225
			c0.9,2.133,2.188,3.2,3.861,3.2c0.514,0,0.899-0.093,1.158-0.283l2.702-0.57c2.445,0,3.668,2.346,3.668,7.033
			c0,4.983-1.223,7.473-3.668,7.473c-0.708,0-1.641-0.16-2.799-0.473c-4.055-1.106-7.079-1.66-9.073-1.66
			c-2.382,0-6.243,0.57-11.583,1.706c-1.352,0.283-2.382,0.427-3.089,0.427c-2.574,0-3.861-2.417-3.861-7.253
			c0-4.833,1.415-7.253,4.247-7.253c0.58,0,1.432,0.144,2.558,0.427c1.126,0.286,1.979,0.426,2.559,0.426
			c2.123,0,3.186-1.92,3.186-5.759C498.306,494.083,498.047,492.233,497.533,489.102z M490.584,445.586l-8.688-58.875l-8.881,58.875
			c-0.13,0.853-0.193,1.353-0.193,1.493c0,1.28,0.482,1.92,1.448,1.92h15.348c0.771,0,1.158-0.567,1.158-1.707
			C490.776,447.009,490.712,446.439,490.584,445.586z"/>
		<path style="fill:#272525;" d="M547.675,379.671l25.919,119.244v-85.966c0-11.092-0.033-17.206-0.097-18.345
			c-0.579-7.393-2.188-11.092-4.826-11.092c-0.516,0-1.288,0.18-2.316,0.533c-1.03,0.357-1.803,0.534-2.316,0.534
			c-0.837,0-1.562-0.673-2.172-2.026c-0.613-1.35-0.918-2.95-0.918-4.8c0-5.12,1.448-7.679,4.344-7.679
			c0.579,0,0.997,0.073,1.255,0.213l4.344,1.28c1.931,0.57,3.731,0.853,5.406,0.853c1.672,0,3.892-0.39,6.659-1.173
			c0.966-0.259,2.091-0.583,3.379-0.976c0.128,0,0.353-0.063,0.675-0.197c0.257,0,0.483,0,0.677,0c2.766,0,4.15,2.454,4.15,7.359
			c0,4.766-1.311,7.146-3.931,7.146c-0.459,0-0.818,0-1.081,0h-0.981c-1.968,0-3.245,0.923-3.834,2.77
			c-0.59,1.847-0.95,5.894-1.08,12.14v12.138v21.722v56.865c0,9.799-0.503,16.686-1.504,20.658
			c-1.003,3.973-2.732,5.963-5.188,5.963c-3.169,0-5.852-4.977-8.05-14.933l-25.412-116.257v99.192
			c0,10.666,1.641,15.999,4.923,15.999c0.514,0,1.286-0.106,2.316-0.319c1.028-0.214,1.801-0.32,2.316-0.32
			c2.059,0,3.089,2.28,3.089,6.833c0,4.833-1.447,7.246-4.344,7.246c-0.13,0-0.322,0-0.579,0c-0.323-0.143-0.547-0.213-0.676-0.213
			l-3.958-1.279c-2.188-0.711-4.246-1.067-6.177-1.067c-1.674,0-3.83,0.356-6.467,1.067l-4.73,1.279c-0.13,0-0.354,0.07-0.676,0.213
			c-0.322,0-0.579,0-0.772,0c-2.768,0-4.15-2.487-4.15-7.466c0-4.406,1.029-6.613,3.09-6.613c0.32,0,1.189,0.144,2.605,0.426
			c0.707,0.427,1.383,0.64,2.027,0.64c3.281,0,4.923-5.333,4.923-15.998v-14.933v-18.771v-18.345v-33.705
			c0-10.666-1.661-15.998-4.981-15.998c-0.447,0-1.086,0.144-1.916,0.427c-1.214,0.426-2.108,0.64-2.684,0.64
			c-2.043,0-3.064-2.346-3.064-7.04c0-4.976,1.38-7.466,4.144-7.466c0.385,0,0.899,0.073,1.541,0.213
			c3.212,0.713,5.685,1.066,7.419,1.066c0.963,0,2.407-0.213,4.335-0.64c1.927-0.426,3.372-0.64,4.338-0.64
			c1.99,0,3.307,1.493,3.949,4.479L547.675,379.671z"/>
		<path style="fill:#272525;" d="M607.279,399.296c0-10.666-1.641-15.999-4.923-15.999c-0.578,0-1.254,0.144-2.026,0.427
			c-1.158,0.426-2.027,0.639-2.605,0.639c-1.996,0-2.993-2.272-2.993-6.826c0-4.976,1.448-7.466,4.344-7.466
			c0.321,0,0.739,0.073,1.255,0.213l5.116,1.493c1.931,0.57,3.989,0.854,6.177,0.854c1.802,0,3.604-0.213,5.406-0.64l6.273-1.494
			c1.223-0.283,2.831-0.426,4.826-0.426c5.854,0,10.746,1.85,14.672,5.546c5.147,4.837,9.219,13.226,12.211,25.172
			c2.992,11.945,4.488,25.811,4.488,41.596c0,13.939-1.191,26.488-3.572,37.65c-2.381,11.166-5.631,19.379-9.748,24.638
			c-4.957,6.4-10.941,9.6-17.954,9.6c-1.416,0-2.863-0.143-4.344-0.426l-6.66-1.281c-2.253-0.426-4.602-0.639-7.046-0.639
			c-2.124,0-3.861,0.213-5.212,0.639l-4.634,1.494c-0.13,0-0.354,0.07-0.676,0.213c-0.322,0-0.579,0-0.771,0
			c-2.768,0-4.151-2.487-4.151-7.466c0-1.99,0.29-3.659,0.868-5.013c0.58-1.35,1.287-2.027,2.125-2.027
			c0.707,0,1.575,0.214,2.605,0.64c0.449,0.287,1.125,0.426,2.026,0.426c3.282,0,4.923-5.333,4.923-15.999V399.296z
			 M615.388,397.117v89.899c0,6.519,1.448,10.485,4.344,11.902c0.965,0.567,3.668,0.85,8.108,0.85
			c7.722,0,13.32-4.603,16.795-13.816c4.182-11.049,6.274-25.641,6.274-43.779c0-14.168-1.271-26.178-3.812-36.024
			c-2.543-9.845-6.033-16.189-10.474-19.021c-2.832-1.84-6.242-2.763-10.231-2.763c-5.084,0-8.189,0.641-9.314,1.913
			C615.951,387.555,615.388,391.167,615.388,397.117z"/>
	</g>
	<g>
		<path style="fill:#272525;" d="M163.495,560.657l11.911,97.015l14.961-119.262c1.257-10.396,4.503-15.596,9.732-15.596
			c5.52,0,8.811,4.587,9.877,13.761l14.525,122.701l12.347-95.179c0.872-6.726,1.307-11.847,1.307-15.366
			c0-6.268-2.034-9.403-6.101-9.403c-0.871,0-2.131,0.154-3.776,0.458c-1.648,0.308-2.905,0.459-3.777,0.459
			c-4.165,0-6.246-2.677-6.246-8.031c0-5.196,2.034-7.794,6.1-7.794c1.548,0,3.146,0.154,4.794,0.458
			c7.939,1.53,13.168,2.293,15.687,2.293c1.937,0,4.816-0.458,8.643-1.376c3.824-0.917,6.704-1.376,8.643-1.376
			c3.582,0,5.375,2.756,5.375,8.267c0,5.039-1.743,7.558-5.229,7.558c-0.581,0-1.453-0.19-2.614-0.573
			c-1.162-0.38-2.034-0.573-2.615-0.573c-2.034,0-3.511,1.225-4.43,3.669c-0.921,2.447-2.011,7.952-3.268,16.513l-16.269,109.4
			c-1.259,8.411-4.262,12.615-9.005,12.615c-5.036,0-8.185-5.196-9.441-15.597l-14.671-121.326l-16.124,124.536
			c-1.067,8.258-3.826,12.387-8.279,12.387c-4.553,0-7.458-4.204-8.715-12.615l-17.285-114.216
			c-0.872-5.809-1.961-9.747-3.269-11.812c-1.307-2.064-3.366-3.096-6.173-3.096h-1.017l-3.196,0.688c-3.1,0-4.648-2.559-4.648-7.68
			c0-5.429,1.693-8.146,5.084-8.146c1.355,0,2.905,0.229,4.648,0.688c5.229,1.376,10.313,2.064,15.251,2.064
			c2.325,0,7.649-0.763,15.978-2.293c1.453-0.305,2.855-0.458,4.213-0.458c3.486,0,5.229,2.523,5.229,7.568
			c0,5.504-2.131,8.257-6.391,8.257c-0.872,0-2.204-0.151-3.994-0.459c-1.793-0.305-3.123-0.458-3.995-0.458
			c-3.391,0-5.084,2.523-5.084,7.568c0,1.835,0.145,3.978,0.436,6.422L163.495,560.657z"/>
		<path style="fill:#272525;" d="M310.493,680.224c-12.88,0-23.073-7.084-30.576-21.253c-7.506-14.17-11.257-33.354-11.257-57.562
			c0-24.499,3.777-43.726,11.33-57.673c7.554-13.948,17.962-20.922,31.23-20.922c12.685,0,22.78,6.791,30.286,20.369
			c7.503,13.58,11.257,31.956,11.257,55.126c0,25.095-3.801,45.02-11.402,59.775C333.756,672.845,323.468,680.224,310.493,680.224z
			 M310.784,538.755c-9.296,0-16.511,5.462-21.643,16.382c-5.134,10.925-7.699,26.273-7.699,46.05
			c0,20.075,2.564,35.61,7.699,46.603c5.132,10.996,12.296,16.493,21.498,16.493c9.006,0,16.146-5.717,21.425-17.157
			c5.277-11.437,7.917-26.971,7.917-46.604c0-19.777-2.519-35.014-7.553-45.717C327.39,544.105,320.175,538.755,310.784,538.755z"/>
		<path style="fill:#272525;" d="M436.283,593.684c-2.809,2.135-6.392,3.963-10.749,5.486c5.659,1.677,9.566,5.032,11.725,10.059
			c2.156,5.031,3.238,13.334,3.238,24.917v10.518c0,0.608,0,1.522,0,2.741c0,10.974,2.201,16.459,6.608,16.459
			c4.503,0,6.754-6.512,6.754-19.538v-6.815v-5.68v-3.179c0-4.394,0.192-7.422,0.58-9.089c0.775-2.573,2.275-3.862,4.504-3.862
			c3.485,0,5.229,3.212,5.229,9.632c0,0.155-0.05,1.835-0.146,5.047v4.815c0,3.212,0,5.275,0,6.191v5.734
			c-0.096,0.919-0.146,2.294-0.146,4.129c0,8.869-1.573,15.79-4.721,20.756c-3.146,4.971-7.529,7.455-13.145,7.455
			c-11.428,0-17.14-9.096-17.14-27.293v-6.881v-7.798v-5.046c0-10.242-1.23-17.007-3.691-20.298
			c-2.459-3.285-7.547-4.931-15.264-4.931h-13.455c-3.086,0-4.63,2.982-4.63,8.944v17.661c0,11.316,0.095,17.738,0.29,19.265
			c0.872,7.648,3.291,11.468,7.263,11.468c1.355,0,2.371-0.09,3.051-0.276c1.646-0.272,2.905-0.412,3.776-0.412
			c3.099,0,4.647,2.526,4.647,7.576c0,5.348-2.082,8.021-6.245,8.021l-2.179-0.459l-7.844-1.605
			c-3.003-0.608-5.666-0.918-7.989-0.918c-2.905,0-6.296,0.384-10.168,1.146l-6.972,1.377c-1.55,0.305-2.276,0.459-2.179,0.459
			c-4.165,0-6.246-2.753-6.246-8.258c0-4.892,1.5-7.339,4.503-7.339c0.483,0,1.791,0.153,3.922,0.458
			c1.064,0.461,2.081,0.688,3.051,0.688c4.938,0,7.408-5.734,7.408-17.201v-91.969c0-11.468-2.47-17.202-7.408-17.202
			c-0.777,0-1.939,0.193-3.486,0.574c-1.55,0.384-2.712,0.573-3.486,0.573c-1.26,0-2.324-0.724-3.195-2.179
			c-0.872-1.451-1.308-3.171-1.308-5.16c0-5.351,2.129-8.027,6.392-8.027c0.386,0,1.064,0.078,2.033,0.229l7.408,1.146
			c1.936,0.308,4.357,0.458,7.263,0.458c3,0,6.341-0.15,10.022-0.458l11.039-0.917c3.679-0.305,7.068-0.458,10.168-0.458
			c21.303,0,31.956,12.804,31.956,38.405C447.322,577.912,443.642,588.201,436.283,593.684z M396.048,591.849h13.654
			c8.135,0,14.234-1.835,18.303-5.505c4.938-4.432,7.408-11.847,7.408-22.247c0-17.431-7.579-26.146-22.736-26.146
			c-8.066,0-13.53,0.957-16.397,2.867c-2.866,1.914-4.348,5.698-4.443,11.353v7.339v26.375c0,2.603,0.29,4.244,0.87,4.932
			C393.289,591.504,394.401,591.849,396.048,591.849z"/>
		<path style="fill:#272525;" d="M497.871,600.334l40.962-55.044c1.064-1.376,1.599-2.673,1.599-3.898
			c0-1.681-0.923-2.523-2.761-2.523c-0.776,0-1.307,0.079-1.598,0.23c-3.486,0.612-6.053,0.917-7.698,0.917
			c-3.486,0-5.229-2.673-5.229-8.027c0-5.045,2.081-7.568,6.246-7.568c2.226,0,4.212,0.154,5.956,0.458l7.697,1.376
			c3.39,0.613,5.956,0.917,7.699,0.917c3.486,0,7.794-0.609,12.928-1.834c2.614-0.609,4.551-0.917,5.811-0.917
			c3.679,0,5.519,2.602,5.519,7.798c0,5.2-1.694,7.798-5.084,7.798c-0.29,0-0.775,0-1.452,0c-0.679,0-1.212,0-1.598,0
			c-0.486,0-1.212,0-2.179,0c-3.682,0-6.973,1.906-9.878,5.712l-27.452,36.104c-1.162,1.526-1.744,2.896-1.744,4.114
			c0,0.763,0.484,2.057,1.453,3.885l2.179,5.256l23.24,49.812c6.196,13.257,10.845,19.884,13.945,19.884
			c0.192,0,0.483-0.077,0.872-0.23c0.386,0,0.628,0,0.726,0c2.614-0.458,4.212-0.688,4.793-0.688c3.486,0,5.229,2.603,5.229,7.799
			c0,5.199-1.889,7.798-5.665,7.798l-7.263-1.377c-3.584-0.609-7.651-0.917-12.201-0.917c-5.229,0-10.701,0.458-16.414,1.377
			c-3.776,0.608-5.908,0.917-6.391,0.917c-3.585,0-5.375-2.484-5.375-7.458c0-5.426,1.889-8.139,5.665-8.139
			c1.064,0,2.564,0.13,4.503,0.383c3.776,0.51,5.955,0.764,6.536,0.764c2.324,0,3.486-0.764,3.486-2.293
			c0-1.068-0.436-2.522-1.307-4.357l-27.019-58.026c-0.58-1.221-1.113-1.835-1.597-1.835c-0.389,0-1.018,0.614-1.889,1.835
			l-15.252,21.1c-0.098,2.751-0.146,5.888-0.146,9.403c0,13.303,0.048,20.412,0.146,21.33c0.773,8.715,3.195,13.073,7.263,13.073
			c0.581,0,1.646-0.23,3.195-0.688c1.549-0.458,2.855-0.688,3.922-0.688c1.258,0,2.324,0.728,3.195,2.179
			c0.872,1.455,1.309,3.25,1.309,5.39c0,5.355-2.132,8.028-6.393,8.028c-0.194,0-0.533,0-1.017,0
			c-0.388-0.154-0.726-0.23-1.017-0.23l-8.134-1.834c-2.033-0.459-5.182-0.688-9.442-0.688c-3.1,0-5.664,0.229-7.697,0.688
			l-7.989,1.834c-0.195,0-0.486,0.076-0.872,0.23c-0.388,0-0.679,0-0.872,0c-4.357,0-6.536-2.714-6.536-8.146
			c0-4.968,1.501-7.45,4.503-7.45c0.872,0,2.18,0.275,3.922,0.824c1.162,0.369,2.179,0.553,3.051,0.553
			c4.841,0,7.263-5.734,7.263-17.201c0,0.307,0.048-5.046,0.145-16.055v-20.183v-19.265v-20.413l-0.145-16.055
			c0-11.468-2.403-17.201-7.206-17.201c-0.962,0-1.97,0.194-3.027,0.574c-1.73,0.383-3.027,0.573-3.893,0.573
			c-3.075,0-4.612-2.523-4.612-7.568c0-5.351,2.173-8.027,6.519-8.027c0.481,0,1.11,0.086,1.882,0.251l6.952,1.501
			c3.088,0.667,5.696,1,7.82,1c2.606,0,6.517-0.458,11.731-1.376c5.214-0.917,8.207-1.376,8.981-1.376
			c4.053,0,6.083,2.676,6.083,8.027c0,2.143-0.435,3.938-1.299,5.39c-0.864,1.455-1.923,2.179-3.171,2.179
			c-0.962,0-2.258-0.229-3.893-0.688c-0.671-0.304-1.681-0.459-3.025-0.459c-3.363,0-5.479,1.875-6.343,5.62
			c-0.867,3.749-1.251,12.883-1.153,27.407V600.334z"/>
		<path style="fill:#272525;" d="M622.353,521.784c9.489,0,17.235,4.68,23.241,14.039v-3.12c0-5.793,1.5-8.69,4.503-8.69
			c3.291,0,4.938,3.197,4.938,9.582v1.337c0,0.299-0.145,2.528-0.437,6.685c-0.29,4.161-0.435,9.136-0.435,14.93
			c0,0.745,0.095,3.12,0.29,7.131l0.437,8.913c0.094,0.746,0.145,1.783,0.145,3.121c0,7.13-1.793,10.696-5.375,10.696
			c-3.776,0-5.664-2.971-5.664-8.914v-1.114l0.29-6.018c0.096-2.078,0.145-3.711,0.145-4.902c0-8.914-1.96-15.895-5.882-20.947
			c-3.923-5.048-9.321-7.577-16.196-7.577c-6.295,0-11.308,2.378-15.033,7.13c-3.729,4.757-5.593,11.143-5.593,19.165
			c0,9.359,2.76,16.268,8.279,20.724c3.098,2.378,8.521,4.534,16.269,6.462c11.522,2.825,19.414,6.685,23.677,11.589
			c6.392,7.28,9.587,17.604,9.587,30.974c0,13.967-3.262,25.331-9.782,34.096c-6.523,8.765-14.952,13.146-25.288,13.146
			c-11.014,0-20.145-5.347-27.39-16.044c0,0.586,0,1.246,0,1.978c0,0.735,0,1.174,0,1.319c0.387,2.348,0.581,3.883,0.581,4.614
			c0,5.422-1.788,8.133-5.363,8.133c-3.881,0-5.821-3.119-5.821-9.358c0-0.741,0.146-1.338,0.437-1.783l0.664-11.588
			c0.331-5.794,0.498-9.505,0.498-11.142c0-2.97-0.269-7.427-0.8-13.371c-0.533-5.938-0.799-10.396-0.799-13.369
			c0-6.686,1.839-10.029,5.521-10.029c3.775,0,5.664,3.357,5.664,10.071v4.023c0,1.194,0,2.913,0,5.146
			c0,11.188,2.317,20.062,6.952,26.627c4.634,6.562,10.91,9.843,18.829,9.843c7.337,0,13.18-2.674,17.522-8.022
			c4.345-5.348,6.519-12.625,6.519-21.838c0-14.113-5.81-22.73-17.431-25.85l-8.279-2.229c-8.231-2.229-14.622-4.825-19.173-7.799
			c-4.165-2.82-7.481-7.243-9.95-13.259c-2.47-6.016-3.704-12.813-3.704-20.39c0-13.071,3.098-23.694,9.297-31.867
			C604.437,525.872,612.475,521.784,622.353,521.784z"/>
	</g>
	<g>
		<path style="fill:#272525;" d="M157.503,753.86h38.771v-32.948c0-11.207-2.06-16.811-6.179-16.811
			c-0.484,0-1.354,0.15-2.605,0.448c-1.253,0.3-2.322,0.448-3.21,0.448c-2.586,0-3.877-2.428-3.877-7.288
			c0-5.303,1.736-7.954,5.21-7.954c1.13,0,3.19,0.487,6.179,1.457c2.987,0.974,5.734,1.457,8.239,1.457
			c4.039,0,8.076-0.616,12.116-1.852c2.342-0.708,3.877-1.062,4.604-1.062c3.554,0,5.331,2.656,5.331,7.962
			c0,4.853-1.253,7.28-3.756,7.28c-0.647,0-1.617-0.148-2.908-0.448c-1.293-0.298-2.262-0.448-2.908-0.448
			c-4.12,0-6.179,5.604-6.179,16.811v89.433c0,11.207,2.018,16.811,6.058,16.811c0.646,0,1.635-0.186,2.968-0.561
			c1.333-0.371,2.321-0.561,2.968-0.561c2.502,0,3.756,2.392,3.756,7.173c0,5.38-1.777,8.069-5.331,8.069
			c-0.727,0-2.302-0.448-4.725-1.346c-2.828-1.043-5.897-1.568-9.208-1.568c-4.443,0-8.199,0.448-11.268,1.345
			c-3.555,1.044-5.494,1.569-5.815,1.569c-3.556,0-5.331-2.651-5.331-7.953c0-4.858,1.291-7.289,3.877-7.289
			c0.646,0,1.615,0.15,2.908,0.448c1.292,0.302,2.26,0.449,2.908,0.449c3.393,0,5.411-4.109,6.058-12.328
			c0.08-1.044,0.121-7.769,0.121-20.172v-25.328h-38.771v25.551c0,12.405,0.04,19.129,0.121,20.173
			c0.646,8.22,2.666,12.328,6.058,12.328c0.646,0,1.636-0.186,2.969-0.561c1.333-0.371,2.321-0.561,2.968-0.561
			c2.503,0,3.756,2.392,3.756,7.173c0,5.38-1.777,8.069-5.331,8.069c-0.566,0-2.302-0.448-5.21-1.346
			c-3.877-1.193-7.27-1.792-10.178-1.792c-3.392,0-7.027,0.599-10.904,1.792l-2.908,0.897c-0.969,0.298-1.496,0.448-1.575,0.448
			c-3.716,0-5.573-2.651-5.573-7.953c0-1.913,0.382-3.607,1.151-5.078c0.767-1.472,1.675-2.211,2.726-2.211
			c0.727,0,1.817,0.189,3.271,0.561c0.888,0.375,1.736,0.561,2.544,0.561c4.119,0,6.179-5.604,6.179-16.811v-89.881
			c0-11.207-2.06-16.811-6.179-16.811c-0.566,0-1.454,0.224-2.666,0.672c-1.212,0.449-2.263,0.673-3.15,0.673
			c-1.051,0-1.959-0.746-2.726-2.242c-0.769-1.491-1.151-3.212-1.151-5.155c0-5.229,1.857-7.845,5.573-7.845
			c0.727,0,2.221,0.375,4.483,1.121c3.069,1.047,6.825,1.569,11.268,1.569c1.696,0,4.22-0.449,7.572-1.346
			c3.351-0.896,5.834-1.345,7.452-1.345c3.553,0,5.331,2.651,5.331,7.954c0,2.062-0.363,3.793-1.09,5.19
			c-0.728,1.401-1.617,2.098-2.666,2.098c-0.89,0-1.98-0.186-3.271-0.561c-1.293-0.371-2.181-0.561-2.666-0.561
			c-3.958,0-5.978,5.604-6.058,16.811L157.503,753.86z"/>
		<path style="fill:#272525;" d="M287.749,814.827l-4.362-21.967c-0.484-2.387-0.99-3.883-1.515-4.482
			c-0.526-0.595-1.596-0.896-3.21-0.896h-21.566c-1.617,0-2.726,0.525-3.332,1.568c-0.606,1.048-1.394,3.888-2.362,8.518
			l-3.514,17.259c-0.324,1.646-0.484,3.215-0.484,4.708c0,4.783,1.575,7.172,4.725,7.172c0.807,0,1.958-0.147,3.453-0.448
			c1.494-0.298,2.605-0.448,3.332-0.448c3.311,0,4.967,2.615,4.967,7.846c0,4.931-1.817,7.396-5.452,7.396
			c-0.647,0-1.536-0.15-2.666-0.448l-6.058-1.394c-1.132-0.267-2.989-0.399-5.573-0.399c-2.829,0-4.807,0.127-5.937,0.375
			l-5.089,1.12c-2.262,0.497-3.918,0.746-4.967,0.746c-3.15,0-4.725-2.465-4.725-7.396c0-5.23,1.533-7.846,4.604-7.846
			c0.646,0,1.13,0.301,1.454,0.896h1.575c2.181,0,3.836-1.573,4.968-4.721c0.485-1.198,1.291-4.721,2.423-10.569l22.536-113.112
			c1.291-6.296,3.835-9.445,7.633-9.445c3.714,0,6.179,3.138,7.391,9.414l21.688,111.175c1.373,7.025,2.624,11.655,3.756,13.896
			c1.13,2.241,2.745,3.362,4.847,3.362c0.646,0,1.13-0.099,1.454-0.298l3.392-0.599c3.069,0,4.604,2.465,4.604,7.39
			c0,5.236-1.536,7.852-4.604,7.852c-0.89,0-2.06-0.168-3.514-0.496c-5.088-1.164-8.886-1.745-11.389-1.745
			c-2.99,0-7.836,0.599-14.539,1.793c-1.697,0.298-2.99,0.448-3.877,0.448c-3.231,0-4.847-2.539-4.847-7.62
			c0-5.079,1.776-7.621,5.331-7.621c0.727,0,1.797,0.15,3.211,0.448c1.413,0.301,2.483,0.448,3.211,0.448
			c2.666,0,3.998-2.017,3.998-6.052C288.718,820.06,288.394,818.116,287.749,814.827z M279.025,769.104l-10.904-61.864
			l-11.146,61.864c-0.163,0.895-0.243,1.421-0.243,1.568c0,1.346,0.606,2.016,1.817,2.016h19.265c0.969,0,1.454-0.595,1.454-1.791
			C279.268,770.599,279.186,769.998,279.025,769.104z"/>
		<path style="fill:#272525;" d="M379.829,757.448c-2.344,2.086-5.331,3.872-8.966,5.361c4.719,1.638,7.979,4.917,9.78,9.83
			c1.798,4.917,2.7,13.032,2.7,24.352v10.278c0,0.596,0,1.488,0,2.679c0,10.725,1.836,16.086,5.512,16.086
			c3.756,0,5.635-6.364,5.635-19.095v-6.66v-5.551v-3.106c0-4.295,0.161-7.254,0.484-8.882c0.646-2.515,1.897-3.776,3.756-3.776
			c2.908,0,4.361,3.14,4.361,9.414c0,0.152-0.041,1.793-0.12,4.933v4.706c0,3.139,0,5.155,0,6.052v5.604
			c-0.082,0.897-0.122,2.241-0.122,4.035c0,8.668-1.313,15.431-3.938,20.284c-2.626,4.858-6.281,7.285-10.965,7.285
			c-9.532,0-14.296-8.889-14.296-26.673v-6.724v-7.622v-4.931c0-10.009-1.026-16.621-3.079-19.838
			c-2.051-3.21-6.294-4.817-12.731-4.817h-11.224c-2.575,0-3.862,2.914-3.862,8.74v17.261c0,11.06,0.08,17.335,0.243,18.827
			c0.727,7.474,2.745,11.207,6.058,11.207c1.13,0,1.978-0.087,2.544-0.27c1.373-0.266,2.423-0.403,3.15-0.403
			c2.584,0,3.877,2.469,3.877,7.404c0,5.226-1.738,7.838-5.21,7.838l-1.817-0.448l-6.542-1.568
			c-2.504-0.596-4.726-0.897-6.664-0.897c-2.423,0-5.251,0.375-8.481,1.12l-5.816,1.346c-1.293,0.298-1.898,0.448-1.817,0.448
			c-3.474,0-5.209-2.689-5.209-8.069c0-4.781,1.251-7.173,3.756-7.173c0.403,0,1.494,0.15,3.271,0.448
			c0.888,0.449,1.736,0.673,2.545,0.673c4.119,0,6.179-5.604,6.179-16.811v-89.881c0-11.207-2.06-16.811-6.179-16.811
			c-0.648,0-1.617,0.188-2.908,0.561c-1.293,0.374-2.262,0.561-2.908,0.561c-1.051,0-1.938-0.708-2.666-2.131
			c-0.727-1.418-1.09-3.1-1.09-5.043c0-5.229,1.775-7.845,5.331-7.845c0.322,0,0.888,0.077,1.696,0.225l6.18,1.12
			c1.614,0.301,3.635,0.448,6.058,0.448c2.503,0,5.29-0.147,8.36-0.448l9.208-0.896c3.068-0.298,5.895-0.449,8.481-0.449
			c17.769,0,26.655,12.514,26.655,37.533C389.037,742.033,385.966,752.09,379.829,757.448z M346.267,755.653h11.389
			c6.786,0,11.874-1.793,15.267-5.38c4.119-4.33,6.18-11.577,6.18-21.741c0-17.034-6.322-25.552-18.964-25.552
			c-6.729,0-11.287,0.936-13.678,2.802c-2.391,1.869-3.627,5.568-3.707,11.095v7.173v25.776c0,2.543,0.243,4.146,0.727,4.82
			C343.965,755.317,344.893,755.653,346.267,755.653z"/>
		<path style="fill:#272525;" d="M421.144,720.464c0-11.207-2.06-16.811-6.18-16.811c-0.727,0-1.574,0.15-2.544,0.448
			c-1.453,0.448-2.545,0.673-3.271,0.673c-2.506,0-3.757-2.39-3.757-7.174c0-5.229,1.817-7.845,5.452-7.845
			c0.403,0,0.928,0.077,1.575,0.225l6.422,1.568c2.423,0.6,5.008,0.897,7.754,0.897c2.261,0,4.523-0.225,6.785-0.673l7.876-1.568
			c1.533-0.298,3.553-0.449,6.058-0.449c7.349,0,13.488,1.943,18.416,5.828c6.461,5.081,11.571,13.896,15.326,26.448
			c3.757,12.552,5.635,27.121,5.635,43.709c0,14.646-1.495,27.832-4.483,39.561c-2.989,11.731-7.068,20.361-12.236,25.888
			c-6.222,6.725-13.733,10.087-22.536,10.087c-1.777,0-3.595-0.15-5.453-0.448l-8.359-1.346c-2.828-0.447-5.776-0.672-8.845-0.672
			c-2.665,0-4.847,0.225-6.542,0.672l-5.816,1.569c-0.163,0-0.444,0.074-0.848,0.225c-0.405,0-0.728,0-0.97,0
			c-3.474,0-5.21-2.612-5.21-7.845c0-2.092,0.363-3.846,1.09-5.268c0.728-1.419,1.616-2.13,2.667-2.13
			c0.887,0,1.978,0.225,3.271,0.673c0.564,0.301,1.412,0.448,2.544,0.448c4.12,0,6.18-5.604,6.18-16.811V720.464z M431.32,718.173
			v94.462c0,6.851,1.817,11.019,5.452,12.506c1.212,0.596,4.604,0.894,10.179,0.894c9.692,0,16.72-4.836,21.081-14.517
			c5.25-11.61,7.876-26.942,7.876-46.002c0-14.888-1.596-27.506-4.786-37.852c-3.191-10.346-7.572-17.01-13.146-19.987
			c-3.555-1.934-7.835-2.902-12.842-2.902c-6.383,0-10.28,0.671-11.692,2.009C432.027,708.125,431.32,711.922,431.32,718.173z"/>
		<path style="fill:#272525;" d="M509.348,720.464c0-11.057-2.06-16.587-6.18-16.587c-1.132,0-1.979,0.15-2.544,0.448
			c-1.293,0.449-2.384,0.673-3.271,0.673c-1.05,0-1.938-0.708-2.666-2.13c-0.727-1.418-1.09-3.172-1.09-5.268
			c0-5.229,1.69-7.845,5.072-7.845c0.078,0,0.683,0.077,1.81,0.225c12.074,1.495,17.708,2.241,16.905,2.241h1.206l29.099-1.568
			c0.564,0,2.656-0.225,6.28-0.673c1.287-0.147,2.453-0.225,3.5-0.225c4.186,0,6.279,3.439,6.279,10.311
			c0,1.198-0.115,5.008-0.347,11.432c-0.174,4.783-0.259,9.189-0.259,13.224c0,5.233,0.066,8.894,0.202,10.983
			c0.27,4.337,0.403,7.547,0.403,9.638c0,5.682-1.435,8.518-4.301,8.518c-2.868,0-4.301-3.957-4.301-11.88v-11.655
			c0-12.552-1.415-19.947-4.241-22.189c-2.101-1.643-7.512-2.466-16.235-2.466c-5.736,0-9.128,0.225-10.178,0.673
			c-3.474,1.646-5.21,6.129-5.21,13.448v10.087c0,1.198,0,2.84,0,4.931c0,2.094,0,3.588,0,4.482v2.914
			c0,5.979,0.716,9.414,2.151,10.311c0.556,0.302,1.512,0.449,2.868,0.449h4.899c5.018,0,7.529-3.212,7.529-9.639
			c0-1.794-0.104-4.107-0.304-6.949c-0.202-2.837-0.303-5.379-0.303-7.62c0-5.976,1.433-8.966,4.301-8.966
			c2.866,0,4.302,3.216,4.302,9.64c0,1.195-0.262,5.826-0.784,13.896c-0.447,6.874-0.67,12.926-0.67,18.154
			c0,2.992,0.161,8.295,0.484,15.916c0.079,1.197,0.282,3.809,0.605,7.845c0.243,3.289,0.364,5.904,0.364,7.845
			c0,5.379-1.454,8.069-4.361,8.069c-2.829,0-4.241-3.139-4.241-9.415c0-1.642,0.101-4.033,0.303-7.173
			c0.2-3.137,0.304-5.525,0.304-7.171c0-6.424-2.303-9.64-6.907-9.64h-5.452c-2.344,0-3.777,0.751-4.301,2.241
			c-0.526,1.497-0.788,4.709-0.788,9.64v13.896c0,2.393,0.04,5.604,0.122,9.639c0.079,4.932,0.12,8.22,0.12,9.862
			c0.08,5.979,0.728,9.715,1.939,11.207c0.888,1.047,2.987,1.569,6.3,1.569h16.479c4.765,0,8.036-1.307,9.813-3.922
			c1.776-2.613,2.666-7.51,2.666-14.682c0-2.241-0.061-5.565-0.183-9.975c-0.12-4.406-0.182-7.734-0.182-9.976
			c0-6.724,1.434-10.086,4.304-10.086c3.027,0,4.542,3.439,4.542,10.312c0,2.688-0.062,6.801-0.183,12.328
			c-0.121,5.53-0.182,9.638-0.182,12.327c0,2.094,0.061,5.193,0.182,9.302c0.121,4.111,0.183,7.211,0.183,9.303
			c0,7.024-1.859,10.534-5.574,10.534c-0.89,0-2.302-0.15-4.24-0.448c-0.97-0.15-2.747-0.225-5.331-0.225
			c0.563,0-2.587-0.15-9.45-0.448c-6.867-0.298-12.804-0.448-17.811-0.448c-7.594,0-15.024,0.448-22.294,1.345
			c-0.323,0-0.688,0.074-1.091,0.225c-0.405,0-0.647,0-0.727,0c-3.393,0-5.089-2.689-5.089-8.069c0-4.781,1.251-7.173,3.756-7.173
			c0.403,0,1.493,0.15,3.271,0.448c0.888,0.449,1.736,0.673,2.544,0.673c4.12,0,6.18-5.604,6.18-16.811V720.464z"/>
		<path style="fill:#272525;" d="M637.775,757.448c-2.344,2.086-5.33,3.872-8.965,5.361c4.719,1.638,7.979,4.917,9.779,9.83
			c1.798,4.917,2.7,13.032,2.7,24.352v10.278c0,0.596,0,1.488,0,2.679c0,10.725,1.836,16.086,5.512,16.086
			c3.757,0,5.635-6.364,5.635-19.095v-6.66v-5.551v-3.106c0-4.295,0.161-7.254,0.484-8.882c0.646-2.515,1.896-3.776,3.756-3.776
			c2.907,0,4.361,3.14,4.361,9.414c0,0.152-0.041,1.793-0.12,4.933v4.706c0,3.139,0,5.155,0,6.052v5.604
			c-0.082,0.897-0.122,2.241-0.122,4.035c0,8.668-1.313,15.431-3.938,20.284c-2.626,4.858-6.281,7.285-10.965,7.285
			c-9.532,0-14.297-8.889-14.297-26.673v-6.724v-7.622v-4.931c0-10.009-1.026-16.621-3.078-19.838
			c-2.052-3.21-6.295-4.817-12.731-4.817h-11.224c-2.575,0-3.862,2.914-3.862,8.74v17.261c0,11.06,0.079,17.335,0.242,18.827
			c0.727,7.474,2.745,11.207,6.058,11.207c1.131,0,1.979-0.087,2.544-0.27c1.373-0.266,2.424-0.403,3.15-0.403
			c2.584,0,3.877,2.469,3.877,7.404c0,5.226-1.737,7.838-5.21,7.838l-1.817-0.448l-6.542-1.568
			c-2.505-0.596-4.725-0.897-6.664-0.897c-2.423,0-5.252,0.375-8.481,1.12l-5.815,1.346c-1.293,0.298-1.898,0.448-1.817,0.448
			c-3.474,0-5.21-2.689-5.21-8.069c0-4.781,1.252-7.173,3.756-7.173c0.403,0,1.494,0.15,3.271,0.448
			c0.888,0.449,1.736,0.673,2.545,0.673c4.119,0,6.179-5.604,6.179-16.811v-89.881c0-11.207-2.06-16.811-6.179-16.811
			c-0.647,0-1.617,0.188-2.908,0.561c-1.293,0.374-2.263,0.561-2.908,0.561c-1.051,0-1.938-0.708-2.665-2.131
			c-0.728-1.418-1.091-3.1-1.091-5.043c0-5.229,1.776-7.845,5.331-7.845c0.322,0,0.888,0.077,1.696,0.225l6.18,1.12
			c1.614,0.301,3.635,0.448,6.058,0.448c2.503,0,5.289-0.147,8.36-0.448l9.208-0.896c3.068-0.298,5.895-0.449,8.481-0.449
			c17.769,0,26.655,12.514,26.655,37.533C646.984,742.033,643.913,752.09,637.775,757.448z M604.215,755.653h11.389
			c6.785,0,11.873-1.793,15.267-5.38c4.118-4.33,6.179-11.577,6.179-21.741c0-17.034-6.321-25.552-18.963-25.552
			c-6.729,0-11.287,0.936-13.678,2.802c-2.392,1.869-3.628,5.568-3.707,11.095v7.173v25.776c0,2.543,0.242,4.146,0.727,4.82
			C601.913,755.317,602.84,755.653,604.215,755.653z"/>
	</g>
	<g>
		<path style="fill:#272525;" d="M164.326,980.86c0,12.169,1.725,18.253,5.174,18.253c0.541,0,1.352-0.201,2.435-0.608
			c1.082-0.403,1.893-0.608,2.435-0.608c0.878,0,1.639,0.771,2.283,2.312c0.642,1.544,0.964,3.369,0.964,5.477
			c0,5.683-1.521,8.519-4.565,8.519c-0.136,0-0.339,0-0.609,0c-0.339-0.163-0.575-0.244-0.71-0.244l-4.971-1.703
			c-1.895-0.646-4.025-0.974-6.392-0.974c-2.571,0-4.836,0.327-6.797,0.974l-5.073,1.703c-0.203,0-0.44,0.081-0.71,0.244
			c-0.339,0-0.576,0-0.71,0c-2.977,0-4.463-2.836-4.463-8.519c0-5.19,1.081-7.788,3.246-7.788c0.541,0,1.352,0.205,2.435,0.608
			c1.081,0.407,1.893,0.608,2.435,0.608c3.381,0,5.072-6.084,5.072-18.253v-17.037v-21.418v-20.688v-39.671
			c0-11.518-2.47-17.278-7.406-17.278h-3.145c-4.87,0-7.305,5.681-7.305,17.036c0,4.057,0.034,6.813,0.102,8.274l0.405,9.005
			c0.067,1.461,0.102,3.49,0.102,6.084c0,10.222-1.319,15.334-3.957,15.334c-2.503,0-3.754-3.73-3.754-11.197
			c0-2.104,0.067-5.755,0.203-10.951c0.203-7.788,0.304-12.734,0.304-14.845c0-4.056-0.057-8.276-0.169-12.656
			c-0.225-8.599-0.338-12.25-0.338-10.952c0-6.814,1.283-10.223,3.849-10.223c0.945,0,3.139,0.244,6.583,0.73
			c0.336,0,3.105,0.328,8.305,0.975h11.545c1.351,0,4.963-0.141,10.838-0.427c1.283,0,3.477-0.213,6.582-0.638
			c2.768-0.428,4.928-0.641,6.482-0.641c3.376,0,5.064,3.327,5.064,9.979v0.487c0,1.623-0.085,4.625-0.253,9.005
			c-0.169,4.381-0.355,9.088-0.558,14.116v2.677c0,2.434,0.101,6.248,0.304,11.439c0.27,6.814,0.406,11.035,0.406,12.655
			c0,6.654-1.319,9.979-3.957,9.979c-2.571,0-3.855-4.073-3.855-12.223c0-2.931,0.102-7.29,0.304-13.076
			c0.203-5.786,0.305-10.144,0.305-13.079c0-11.244-2.673-16.868-8.015-16.868h-2.841c-2.503,0-4.296,1.258-5.376,3.771
			c-1.083,2.519-1.692,6.693-1.827,12.535l-0.406,17.037V980.86z"/>
		<path style="fill:#272525;" d="M216.168,919.285h32.465v-35.776c0-12.169-1.725-18.255-5.174-18.255
			c-0.406,0-1.133,0.164-2.181,0.487c-1.049,0.326-1.945,0.486-2.689,0.486c-2.165,0-3.246-2.635-3.246-7.913
			c0-5.758,1.454-8.637,4.362-8.637c0.946,0,2.671,0.529,5.174,1.583c2.501,1.057,4.801,1.581,6.898,1.581
			c3.381,0,6.763-0.668,10.146-2.011c1.961-0.769,3.247-1.153,3.855-1.153c2.976,0,4.464,2.884,4.464,8.645
			c0,5.271-1.049,7.905-3.145,7.905c-0.542,0-1.354-0.16-2.435-0.486c-1.083-0.323-1.894-0.487-2.435-0.487
			c-3.449,0-5.174,6.086-5.174,18.255v97.107c0,12.169,1.69,18.253,5.073,18.253c0.541,0,1.37-0.201,2.485-0.608
			c1.116-0.402,1.943-0.608,2.486-0.608c2.096,0,3.145,2.598,3.145,7.788c0,5.842-1.488,8.763-4.464,8.763
			c-0.609,0-1.928-0.487-3.957-1.461c-2.368-1.133-4.938-1.703-7.71-1.703c-3.72,0-6.865,0.485-9.435,1.461
			c-2.977,1.133-4.6,1.703-4.87,1.703c-2.977,0-4.464-2.88-4.464-8.637c0-5.273,1.081-7.914,3.246-7.914
			c0.541,0,1.353,0.163,2.435,0.487c1.082,0.327,1.893,0.487,2.435,0.487c2.841,0,4.53-4.462,5.073-13.386
			c0.066-1.135,0.101-8.437,0.101-21.904v-27.502h-32.465v27.744c0,13.47,0.033,20.771,0.102,21.904
			c0.541,8.926,2.232,13.386,5.073,13.386c0.541,0,1.37-0.201,2.485-0.608c1.116-0.402,1.944-0.608,2.486-0.608
			c2.096,0,3.145,2.598,3.145,7.788c0,5.842-1.489,8.763-4.464,8.763c-0.474,0-1.928-0.487-4.363-1.461
			c-3.246-1.297-6.087-1.945-8.522-1.945c-2.84,0-5.884,0.648-9.131,1.945l-2.435,0.974c-0.811,0.324-1.252,0.487-1.318,0.487
			c-3.112,0-4.667-2.88-4.667-8.637c0-2.077,0.32-3.916,0.964-5.514c0.642-1.597,1.403-2.4,2.283-2.4
			c0.608,0,1.521,0.206,2.739,0.608c0.744,0.407,1.454,0.608,2.131,0.608c3.449,0,5.174-6.084,5.174-18.253v-97.595
			c0-12.169-1.725-18.253-5.174-18.253c-0.474,0-1.217,0.242-2.232,0.729c-1.015,0.488-1.895,0.73-2.638,0.73
			c-0.88,0-1.641-0.81-2.283-2.434c-0.644-1.62-0.964-3.488-0.964-5.598c0-5.678,1.555-8.519,4.667-8.519
			c0.608,0,1.859,0.407,3.753,1.216c2.57,1.139,5.715,1.706,9.436,1.706c1.42,0,3.533-0.488,6.341-1.462
			c2.806-0.972,4.885-1.46,6.239-1.46c2.975,0,4.464,2.879,4.464,8.637c0,2.239-0.304,4.118-0.913,5.637
			c-0.609,1.521-1.354,2.276-2.232,2.276c-0.745,0-1.658-0.201-2.739-0.608c-1.083-0.402-1.826-0.608-2.232-0.608
			c-3.314,0-5.006,6.085-5.073,18.254L216.168,919.285z"/>
		<path style="fill:#272525;" d="M325.229,985.483l-3.652-23.852c-0.406-2.592-0.829-4.216-1.268-4.867
			c-0.441-0.646-1.336-0.973-2.688-0.973h-18.059c-1.354,0-2.283,0.569-2.79,1.703c-0.507,1.138-1.167,4.222-1.979,9.249
			l-2.942,18.739c-0.271,1.787-0.406,3.491-0.406,5.111c0,5.194,1.319,7.788,3.957,7.788c0.675,0,1.639-0.16,2.891-0.486
			c1.251-0.323,2.182-0.486,2.79-0.486c2.772,0,4.16,2.84,4.16,8.519c0,5.354-1.522,8.03-4.566,8.03
			c-0.542,0-1.286-0.163-2.232-0.487l-5.073-1.513c-0.948-0.289-2.503-0.435-4.667-0.435c-2.369,0-4.025,0.139-4.971,0.407
			l-4.261,1.218c-1.895,0.54-3.282,0.81-4.16,0.81c-2.638,0-3.957-2.677-3.957-8.03c0-5.679,1.284-8.519,3.855-8.519
			c0.541,0,0.947,0.326,1.217,0.973h1.319c1.826,0,3.211-1.707,4.159-5.125c0.406-1.302,1.082-5.127,2.029-11.478l18.87-122.819
			c1.081-6.837,3.212-10.257,6.392-10.257c3.11,0,5.175,3.407,6.189,10.222l18.16,120.717c1.149,7.628,2.197,12.656,3.146,15.09
			c0.946,2.434,2.299,3.65,4.058,3.65c0.541,0,0.946-0.106,1.217-0.323l2.841-0.649c2.569,0,3.855,2.677,3.855,8.023
			c0,5.686-1.286,8.525-3.855,8.525c-0.745,0-1.725-0.183-2.942-0.539c-4.261-1.263-7.44-1.896-9.536-1.896
			c-2.503,0-6.562,0.651-12.175,1.947c-1.42,0.324-2.503,0.487-3.246,0.487c-2.706,0-4.058-2.757-4.058-8.274
			c0-5.515,1.487-8.274,4.463-8.274c0.609,0,1.505,0.163,2.688,0.486c1.183,0.326,2.08,0.486,2.689,0.486
			c2.232,0,3.348-2.189,3.348-6.57C326.041,991.166,325.77,989.055,325.229,985.483z M317.925,935.835l-9.131-67.174l-9.334,67.174
			c-0.136,0.973-0.203,1.543-0.203,1.703c0,1.461,0.507,2.19,1.522,2.19h16.131c0.811,0,1.217-0.646,1.217-1.946
			C318.127,937.459,318.06,936.808,317.925,935.835z"/>
		<path style="fill:#272525;" d="M377.931,860.63l27.242,136.05v-98.082c0-12.656-0.035-19.631-0.102-20.932
			c-0.608-8.435-2.3-12.655-5.072-12.655c-0.542,0-1.354,0.206-2.435,0.608c-1.083,0.407-1.895,0.608-2.435,0.608
			c-0.88,0-1.641-0.769-2.283-2.312c-0.644-1.54-0.964-3.365-0.964-5.476c0-5.841,1.522-8.763,4.565-8.763
			c0.609,0,1.048,0.084,1.319,0.244l4.565,1.461c2.029,0.649,3.922,0.973,5.682,0.973c1.758,0,4.091-0.445,7-1.339
			c1.015-0.296,2.197-0.665,3.551-1.114c0.135,0,0.371-0.072,0.71-0.225c0.27,0,0.508,0,0.711,0c2.907,0,4.362,2.8,4.362,8.397
			c0,5.438-1.378,8.152-4.131,8.152c-0.482,0-0.861,0-1.137,0h-1.032c-2.067,0-3.41,1.054-4.029,3.161
			c-0.62,2.105-0.999,6.723-1.135,13.849v13.851v24.782v64.88c0,11.18-0.528,19.037-1.581,23.57
			c-1.054,4.532-2.872,6.803-5.453,6.803c-3.33,0-6.15-5.678-8.461-17.036l-26.71-132.643v113.172
			c0,12.169,1.725,18.253,5.175,18.253c0.54,0,1.352-0.121,2.435-0.364c1.081-0.244,1.893-0.365,2.435-0.365
			c2.164,0,3.247,2.601,3.247,7.796c0,5.513-1.522,8.268-4.565,8.268c-0.137,0-0.34,0-0.609,0c-0.339-0.163-0.575-0.244-0.71-0.244
			l-4.16-1.459c-2.3-0.811-4.464-1.218-6.493-1.218c-1.76,0-4.025,0.407-6.797,1.218l-4.972,1.459c-0.136,0-0.373,0.081-0.71,0.244
			c-0.339,0-0.609,0-0.812,0c-2.909,0-4.363-2.836-4.363-8.519c0-5.027,1.081-7.545,3.247-7.545c0.337,0,1.25,0.164,2.739,0.487
			c0.743,0.486,1.454,0.729,2.13,0.729c3.45,0,5.174-6.084,5.174-18.253v-17.037v-21.416v-20.932v-38.453
			c0-12.169-1.745-18.254-5.236-18.254c-0.47,0-1.141,0.163-2.013,0.486c-1.276,0.488-2.216,0.73-2.82,0.73
			c-2.148,0-3.221-2.677-3.221-8.031c0-5.678,1.45-8.519,4.354-8.519c0.404,0,0.945,0.084,1.621,0.244
			c3.375,0.814,5.975,1.216,7.798,1.216c1.011,0,2.53-0.244,4.555-0.729c2.026-0.486,3.545-0.73,4.56-0.73
			c2.092,0,3.476,1.705,4.151,5.111L377.931,860.63z"/>
		<path style="fill:#272525;" d="M483.696,964.428c0-0.649,0-2.198,0-4.643c-0.067-2.603-0.102-4.801-0.102-6.596l-19.682-74.991
			c-1.285-4.882-2.097-7.733-2.435-8.548c-1.015-2.442-2.267-3.665-3.754-3.665c-0.812,0-1.42,0.327-1.826,0.973
			c-0.203,0-0.507,0-0.913,0c-0.474,0-0.812,0-1.015,0c-3.111,0-4.666-2.837-4.666-8.518c0-5.841,1.354-8.763,4.058-8.763
			c1.081,0,2.435,0.327,4.059,0.975c3.246,1.3,6.29,1.947,9.131,1.947c2.095,0,5.24-0.73,9.435-2.191
			c1.42-0.486,2.638-0.73,3.652-0.73c2.772,0,4.16,2.757,4.16,8.271c0,5.358-1.659,8.037-4.972,8.037h-1.015h-2.536h-2.029
			c-0.812-0.16-1.218,0.486-1.218,1.945c0,0.651,0.033,1.097,0.102,1.339c0.066,0.244,0.236,0.938,0.508,2.07l15.521,63.278
			l15.726-63.278c0.338-1.299,0.507-2.595,0.507-3.896c0-1.459-0.44-2.19-1.318-2.19h-0.203l-1.825,0.731l-2.639,0.585
			c-1.15,0.258-2.029,0.388-2.638,0.388c-2.774,0-4.159-2.879-4.159-8.641c0-5.756,1.352-8.64,4.058-8.64
			c1.015,0,2.232,0.244,3.652,0.73c3.787,1.301,7.067,1.947,9.842,1.947c2.906,0,6.12-0.646,9.638-1.947
			c1.352-0.486,2.501-0.73,3.449-0.73c2.569,0,3.855,2.841,3.855,8.519c0,5.195-1.253,7.789-3.754,7.789
			c-1.015,0-1.793-0.16-2.333-0.488c-1.083-0.323-1.827-0.486-2.232-0.486c-1.76,0-3.181,1.947-4.262,5.842l-1.521,5.597
			l-19.986,75.205v10.222c0,16.55,0.287,26.856,0.862,30.909c0.574,4.059,2.012,6.084,4.312,6.084c0.54,0,1.369-0.201,2.485-0.608
			c1.116-0.402,1.943-0.608,2.485-0.608c2.096,0,3.146,2.598,3.146,7.788c0,5.842-1.522,8.763-4.565,8.763c-0.068,0-0.271,0-0.609,0
			c-0.271-0.163-0.507-0.244-0.71-0.244l-5.58-1.703c-2.097-0.646-4.159-0.974-6.188-0.974c-2.165,0-4.228,0.327-6.188,0.974
			l-5.174,1.703c-0.137,0-0.34,0.081-0.608,0.244c-0.34,0-0.576,0-0.711,0c-3.044,0-4.565-2.836-4.565-8.519
			c0-5.354,1.081-8.032,3.247-8.032c0.54,0,1.334,0.206,2.384,0.608c1.048,0.407,1.842,0.608,2.384,0.608
			c2.841,0,4.565-4.311,5.174-12.943C483.662,984.457,483.696,977.293,483.696,964.428z"/>
		<path style="fill:#272525;" d="M555.628,1015.49c-8.996,0-16.115-7.494-21.355-22.484c-5.243-14.992-7.863-35.288-7.863-60.898
			c0-25.92,2.638-46.261,7.914-61.017c5.275-14.758,12.545-22.135,21.812-22.135c8.858,0,15.91,7.184,21.152,21.548
			c5.241,14.368,7.862,33.81,7.862,58.322c0,26.549-2.655,47.629-7.964,63.242C571.876,1007.685,564.69,1015.49,555.628,1015.49z
			 M555.831,865.82c-6.493,0-11.532,5.777-15.117,17.332c-3.585,11.558-5.376,27.796-5.376,48.72
			c0,21.237,1.791,37.675,5.376,49.305c3.585,11.634,8.589,17.449,15.016,17.449c6.29,0,11.277-6.049,14.964-18.151
			c3.686-12.1,5.529-28.536,5.529-49.307c0-20.922-1.76-37.043-5.275-48.366C567.43,871.481,562.391,865.82,555.831,865.82z"/>
		<path style="fill:#272525;" d="M610.007,887.482v15.313l-0.608,19.38v36.849c0,11.166,0.522,19.302,1.571,24.405
			c1.049,5.105,3.026,9.092,5.936,11.963c2.704,2.714,5.479,4.068,8.319,4.068c3.719,0,6.898-1.675,9.537-5.026
			c2.637-3.349,4.345-7.854,5.123-13.518c0.776-5.661,1.199-12.879,1.268-21.654v-61.492c0-12.12-0.066-18.98-0.199-20.578
			c-0.6-8.134-2.299-12.201-5.097-12.201c-0.466,0-1.132,0.127-1.997,0.382c-1.267,0.385-2.165,0.575-2.698,0.575
			c-0.865,0-1.615-0.786-2.248-2.355c-0.634-1.57-0.949-3.379-0.949-5.424c0-5.661,1.487-8.491,4.464-8.491
			c0.473,0,0.946,0.082,1.42,0.24l5.986,1.914c1.487,0.478,3.179,0.718,5.073,0.718c1.825,0,3.347-0.221,4.565-0.662l4.361-1.548
			c1.218-0.441,2.029-0.662,2.436-0.662c2.841,0,4.261,2.716,4.261,8.135c0,5.425-1.387,8.136-4.16,8.136h-1.115
			c-0.203,0-0.542,0-1.015,0c-2.029,0-3.281,2.385-3.754,7.155c-0.474,4.771-0.71,17.014-0.71,36.728v41.741
			c0,10.334-0.137,17.809-0.406,22.421c-0.542,7.948-1.691,14.865-3.449,20.748c-4.058,13.833-10.924,20.749-20.595,20.749
			c-11.905,0-19.58-9.141-23.029-27.43c-1.084-5.562-1.624-14.226-1.624-25.993c0-5.725,0.102-14.191,0.305-25.399
			c0.203-11.209,0.305-19.678,0.305-25.404v-12.641c0-11.604-0.035-18.124-0.102-19.556c-0.475-8.745-1.793-13.119-3.957-13.119
			c-0.137,0-0.372,0-0.711,0s-0.643,0-0.912,0c-0.271,0-0.71,0-1.319,0c-2.841,0-4.261-2.711-4.261-8.136
			c0-5.419,1.284-8.135,3.855-8.135c1.081,0,2.231,0.24,3.449,0.718c3.312,1.278,6.392,1.914,9.232,1.914
			c2.906,0,6.255-0.717,10.043-2.152c0.812-0.318,1.69-0.479,2.639-0.479c2.771,0,4.159,2.716,4.159,8.135
			c0,5.425-1.184,8.136-3.551,8.136c-0.542,0-1.354-0.198-2.435-0.599c-1.083-0.396-1.895-0.598-2.435-0.598
			c-2.166,0-3.62,2.715-4.363,8.136C610.276,875.28,610.073,880.147,610.007,887.482z"/>
	</g>
</g>
<g id="Guides">
</g>
</svg>
