<?xml version="1.0" encoding="iso-8859-1"?>
<!-- Generator: Adobe Illustrator 15.1.0, SVG Export Plug-In . SVG Version: 6.00 Build 0)  -->
<!DOCTYPE svg PUBLIC "-//W3C//DTD SVG 1.1//EN" "http://www.w3.org/Graphics/SVG/1.1/DTD/svg11.dtd">
<svg version="1.1" xmlns="http://www.w3.org/2000/svg" xmlns:xlink="http://www.w3.org/1999/xlink" x="0px" y="0px" width="792px"
	 height="1224px" viewBox="0 0 792 1224" style="enable-background:new 0 0 792 1224;" xml:space="preserve">
<g id="Layer_1">
	<g>
		<path style="fill:#272525;" d="M131.583,348.986V219.763c0-6.79,2.639-12.046,6.046-12.046h12.973
			c21.218,0,38.368,34.386,38.368,76.438c0,42.491-17.15,76.876-38.368,76.876h-12.973
			C134.222,361.032,131.583,355.557,131.583,348.986z M143.786,336.721h6.816c14.512-0.219,26.166-23.435,26.166-52.565
			c0-28.692-11.653-52.127-26.166-52.127h-6.816V336.721z"/>
		<path style="fill:#272525;" d="M269.667,230.502c6.816,14.053,11.104,32.792,11.104,53.873c0,21.081-4.288,40.033-11.104,53.874
			c-6.486,13.841-16.161,22.784-26.275,22.784c-10.554,0-20.229-8.943-26.935-22.784c-6.815-13.841-10.883-32.792-10.883-53.874
			c0-21.081,4.068-39.819,10.883-53.873c6.707-14.054,16.381-22.785,26.935-22.785C253.506,207.717,263.181,216.448,269.667,230.502
			z M268.238,284.375c0-14.479-2.968-27.895-7.476-37.264c-4.617-9.582-10.774-15.119-17.37-15.119
			c-7.036,0-13.192,5.537-17.81,15.119c-4.617,9.369-7.476,22.785-7.476,37.264c0,14.48,2.858,27.895,7.476,37.051
			c4.618,9.583,10.774,15.332,17.81,15.332c6.596,0,12.753-5.75,17.37-15.332C265.27,312.27,268.238,298.854,268.238,284.375z"/>
		<path style="fill:#272525;" d="M329.366,361.032c-17.7,0-31.772-28.473-31.772-63.297v-77.972c0-6.79,2.639-12.046,6.046-12.046
			c3.298,0,6.157,5.256,6.157,12.046v77.972c0,21.464,8.795,38.985,19.569,38.985c10.884,0,19.569-17.521,19.569-38.985v-77.972
			c0-6.79,2.748-12.046,6.156-12.046c3.408,0,6.047,5.256,6.047,12.046v77.972C361.139,332.56,346.957,361.032,329.366,361.032z"/>
		<path style="fill:#272525;" d="M383.568,284.581c0-42.804,18.25-76.878,40.567-76.878c9.345,0,18.25,6.175,25.066,16.61
			c2.858,4.046,3.298,11.926,1.209,17.25c-2.089,5.111-6.156,6.175-8.905,1.916c-4.727-7.027-10.773-11.5-17.37-11.5
			c-7.915,0-14.842,5.75-19.788,15.546c-5.167,9.583-8.246,22.574-8.246,37.055c0,14.055,3.079,27.045,8.246,36.629
			c4.946,9.796,11.873,15.546,19.788,15.546c5.497,0,10.664-3.195,15.062-8.092v-29.175h-15.722c-3.408,0-6.267-5.537-6.267-12.139
			c0-6.815,2.858-11.926,6.267-11.926h21.658c0.109,0,0.109,0,0.109,0c0.11,0,0.11,0,0.11,0c3.518,0,6.376,5.11,6.376,11.926v47.064
			c0,1.491-0.22,2.342-0.329,3.62c-0.11,0.426-0.11,0.639-0.221,1.065v0.212c-0.329,1.917-0.989,3.62-2.089,5.111
			c-6.926,10.435-15.611,16.61-24.956,16.61C401.818,361.032,383.568,327.172,383.568,284.581z"/>
		<path style="fill:#272525;" d="M470.974,348.986V219.763c0-6.571,2.638-12.046,6.046-12.046s6.157,5.475,6.157,12.046v116.958
			h29.793c3.188,0,6.046,5.476,6.046,12.266c0,6.57-2.857,12.046-6.046,12.046h-35.62c-0.22,0-0.22,0-0.22,0c-0.11,0-0.11,0-0.11,0
			C473.611,361.032,470.974,355.557,470.974,348.986z"/>
		<path style="fill:#272525;" d="M572.117,324.894h-26.715l-5.388,28.473c-0.989,4.819-3.297,7.666-5.717,7.666
			c-0.77,0-1.429-0.219-2.088-0.657c-3.188-2.409-4.728-9.418-3.628-15.769l24.296-129.004c0.989-4.819,3.408-7.885,5.826-7.666
			c2.529-0.219,4.838,2.847,5.827,7.666l24.297,129.004c1.099,6.351-0.44,13.36-3.629,15.769c-0.55,0.438-1.319,0.657-2.089,0.657
			c-2.418,0-4.727-2.847-5.606-7.666L572.117,324.894z M567.609,300.801l-8.905-47.09l-8.904,47.09H567.609z"/>
		<path style="fill:#272525;" d="M599.604,324.009c1.979-4.68,5.606-5.318,8.025-1.489c4.837,7.658,13.192,16.594,20.997,16.38
			c5.497,0,10.445-3.19,13.743-7.871s4.727-9.999,4.727-15.317c0-2.766-0.33-4.68-0.989-6.808c-0.659-2.126-1.648-4.254-3.298-6.382
			c-3.188-4.042-8.575-7.658-15.062-9.998h-0.221c-5.166-1.916-10.004-4.468-14.181-8.297c-4.179-3.829-7.806-9.148-10.225-16.593
			c-1.649-5.107-2.528-11.063-2.528-17.446c0-12.764,3.737-23.827,8.795-31.06c5.167-7.233,11.873-11.275,19.019-11.275
			c10.555,0,18.359,9.999,23.967,17.019c2.528,3.404,3.298,10.211,1.539,15.104c-1.649,5.106-5.167,6.595-7.806,3.191
			c-5.606-7.232-10.994-13.615-17.7-13.615c-4.946,0-9.344,2.979-12.312,7.232c-2.968,4.255-4.178,8.936-4.178,13.403
			c0,2.554,0.22,4.255,0.77,5.958c0.55,1.702,1.539,3.616,2.968,5.531c2.859,3.83,7.807,7.233,13.743,9.361h0.22
			c5.606,2.127,10.773,4.893,15.172,8.935c4.507,4.254,8.464,9.786,10.993,17.658c1.649,5.105,2.638,11.487,2.638,18.083
			c0,13.616-3.957,25.316-9.454,32.975c-5.387,7.659-12.532,12.126-20.339,12.126c-11.873-0.212-21.877-11.7-28.144-21.274
			C598.064,335.71,597.735,328.69,599.604,324.009z"/>
	</g>
	<g>
		<path style="fill:#272525;" d="M131.999,441.921c0.097-40.027,16.22-72.573,35.646-72.775c8.547,0,16.317,5.862,22.437,15.769
			c2.331,4.042,2.719,11.118,0.971,16.172c-1.942,5.053-5.536,5.862-7.77,2.224c-4.274-7.278-9.616-11.119-15.638-11.119
			c-6.702,0-12.918,5.661-17.483,14.556c-4.371,9.299-7.09,21.428-7.09,35.174s2.72,26.28,7.09,35.174
			c4.565,8.895,10.781,14.556,17.483,14.556c6.022,0,11.267-3.841,15.638-11.119c2.234-3.437,5.828-2.627,7.77,2.223
			c1.748,5.055,1.36,12.332-0.971,16.172c-6.119,9.906-13.889,15.768-22.437,15.768
			C148.219,514.695,132.096,482.149,131.999,441.921z"/>
		<path style="fill:#272525;" d="M261.57,389.922c6.022,13.433,9.81,31.346,9.81,51.497c0,20.15-3.788,38.267-9.81,51.497
			c-5.73,13.23-14.278,21.779-23.213,21.779c-9.324,0-17.871-8.549-23.796-21.779c-6.022-13.23-9.616-31.346-9.616-51.497
			c0-20.151,3.594-38.064,9.616-51.497c5.925-13.434,14.472-21.78,23.796-21.78C247.292,368.142,255.839,376.488,261.57,389.922z
			 M260.308,441.419c0-13.841-2.623-26.665-6.605-35.621c-4.079-9.16-9.519-14.453-15.346-14.453
			c-6.216,0-11.655,5.292-15.734,14.453c-4.079,8.956-6.604,21.779-6.604,35.621c0,13.84,2.525,26.664,6.604,35.416
			c4.08,9.16,9.519,14.656,15.734,14.656c5.828,0,11.267-5.496,15.346-14.656C257.685,468.083,260.308,455.26,260.308,441.419z"/>
		<path style="fill:#272525;" d="M314.312,514.695c-15.638,0-28.069-27.015-28.069-60.056V380.66c0-6.442,2.331-11.429,5.342-11.429
			c2.914,0,5.439,4.987,5.439,11.429v73.979c0,20.365,7.771,36.989,17.289,36.989c9.616,0,17.289-16.625,17.289-36.989V380.66
			c0-6.442,2.428-11.429,5.439-11.429c3.011,0,5.342,4.987,5.342,11.429v73.979C342.383,487.681,329.853,514.695,314.312,514.695z"
			/>
		<path style="fill:#272525;" d="M387.938,458.172h-11.946v45.095c0,6.234-2.428,11.429-5.44,11.429
			c-2.913,0-5.341-5.195-5.341-11.429V380.66c0-6.442,2.428-11.429,5.341-11.429h0.098h17.289c11.558,0,20.882,19.95,20.882,44.678
			C408.82,438.223,399.496,458.172,387.938,458.172z M375.992,435.105h11.946c5.633,0,10.004-9.559,10.101-21.196
			c-0.097-12.053-4.468-21.611-10.101-21.611h-11.946V435.105z"/>
		<path style="fill:#272525;" d="M421.837,503.267V380.66c0-6.234,2.331-11.429,5.342-11.429c3.012,0,5.439,5.195,5.439,11.429
			v110.969h26.321c2.817,0,5.342,5.195,5.342,11.638c0,6.234-2.524,11.429-5.342,11.429h-31.469c-0.194,0-0.194,0-0.194,0
			c-0.098,0-0.098,0-0.098,0C424.168,514.695,421.837,509.5,421.837,503.267z"/>
		<path style="fill:#272525;" d="M511.195,480.407h-23.603l-4.759,27.015c-0.874,4.572-2.913,7.273-5.051,7.273
			c-0.68,0-1.263-0.208-1.846-0.624c-2.816-2.286-4.176-8.936-3.204-14.961l21.465-122.398c0.874-4.572,3.011-7.481,5.147-7.273
			c2.234-0.208,4.273,2.701,5.147,7.273l21.466,122.398c0.971,6.026-0.389,12.676-3.206,14.961
			c-0.485,0.416-1.165,0.624-1.845,0.624c-2.137,0-4.177-2.701-4.954-7.273L511.195,480.407z M507.213,457.548l-7.867-44.678
			l-7.867,44.678H507.213z"/>
		<path style="fill:#272525;" d="M549.951,503.267c0,6.234-2.429,11.429-5.245,11.429c-3.011,0-5.342-5.195-5.342-11.429V382.531
			c0,0,0,0,0-0.208c-0.097-3.533,0.68-7.274,2.137-9.56c2.428-3.533,5.73-2.494,7.382,2.494l31.372,92.89v-85.616
			c0-6.027,2.331-11.222,5.244-11.222c2.914,0,5.343,5.195,5.343,11.222v120.736c0,6.234-2.429,11.429-5.343,11.429
			c-1.554,0-3.011-1.662-3.981-4.156c-0.194-0.416-0.389-0.832-0.486-1.247l-31.08-92.266V503.267z"/>
		<path style="fill:#272525;" d="M609.3,503.267V380.66c0-6.442,2.331-11.429,5.342-11.429h11.461
			c18.745,0,33.897,32.625,33.897,72.524c0,40.315-15.152,72.94-33.897,72.94h-11.461C611.631,514.695,609.3,509.5,609.3,503.267z
			 M620.081,491.629h6.021c12.821-0.208,23.116-22.235,23.116-49.874c0-27.222-10.295-49.458-23.116-49.458h-6.021V491.629z"/>
	</g>
	<g>
		<path style="fill:#272525;" d="M266.241,539.735L232.17,672.477c-0.139,0.683-0.417,1.593-0.695,2.047l-0.139,0.229
			c-0.139,0.455-0.417,0.911-0.695,1.365c0,0.455-0.139,0.455-0.139,0.684c-0.278,0.229-0.695,0.684-0.973,1.138h-0.139
			c-0.417,0.456-0.695,1.139-1.251,1.367h-0.139c0,0-0.139,0-0.139,0.227c-0.279,0-0.695,0.229-1.113,0.457
			c-0.139,0-0.278,0-0.278,0c-0.417,0.227-0.834,0.227-1.391,0.227c-0.417,0-0.834,0-1.251-0.227c-0.278,0-0.417,0-0.417,0
			c-0.417-0.229-0.695-0.457-0.974-0.457c-0.139-0.227-0.139-0.227-0.278-0.227c-0.556-0.229-0.973-0.911-1.251-1.367
			c-0.139,0-0.139,0-0.139,0c-0.417-0.454-0.695-0.909-0.973-1.138c-0.139-0.229-0.139-0.229-0.278-0.684
			c-0.139-0.454-0.417-0.91-0.556-1.365c-0.278,0-0.278-0.229-0.278-0.229c-0.278-0.454-0.417-1.364-0.557-2.047l-18.217-70.583
			l-18.218,70.583c-0.139,0.683-0.417,1.593-0.556,2.047c-0.139,0-0.139,0.229-0.139,0.229c-0.278,0.455-0.556,0.911-0.834,1.365
			c0,0.455-0.139,0.455-0.139,0.684c-0.278,0.229-0.556,0.684-0.834,1.138c-0.278,0-0.278,0-0.278,0
			c-0.417,0.456-0.834,1.139-1.112,1.367c-0.139,0-0.139,0-0.139,0s-0.139,0-0.139,0.227c-0.556,0-0.834,0.229-1.113,0.457
			c-0.139,0-0.278,0-0.417,0c-0.417,0.227-0.834,0.227-1.252,0.227s-0.973,0-1.391-0.227c-0.139,0-0.278,0-0.417,0
			c-0.417-0.229-0.695-0.457-0.974-0.457c-0.139-0.227-0.139-0.227-0.278-0.227c-0.417-0.229-0.973-0.911-1.251-1.367
			c-0.139,0-0.139,0-0.139,0c-0.417-0.454-0.556-0.909-0.973-1.138c-0.14-0.229-0.14-0.229-0.278-0.684
			c-0.278-0.454-0.417-0.91-0.695-1.365v-0.229c-0.278-0.454-0.417-1.364-0.695-2.047l-34.21-132.742
			c-1.53-6.147,0.139-13.661,4.172-16.166c3.755-2.732,8.344,0.228,9.874,6.603l27.257,105.417l17.939-69.898
			c1.251-5.009,4.172-7.742,7.231-7.742c2.92,0,5.841,2.733,7.231,7.742l17.939,69.898l27.118-105.417
			c1.669-6.375,6.119-9.335,10.152-6.603C266.102,526.074,267.91,533.588,266.241,539.735z"/>
		<path style="fill:#272525;" d="M363.175,546.103c8.622,14.439,14.045,33.692,14.045,55.352s-5.423,41.13-14.045,55.35
			c-8.205,14.223-20.443,23.411-33.237,23.411c-13.35,0-25.587-9.188-34.071-23.411c-8.622-14.22-13.767-33.69-13.767-55.35
			s5.146-40.912,13.767-55.352c8.483-14.438,20.721-23.409,34.071-23.409C342.732,522.694,354.971,531.665,363.175,546.103z
			 M361.368,601.455c0-14.876-3.755-28.66-9.457-38.286c-5.841-9.845-13.629-15.534-21.973-15.534
			c-8.9,0-16.688,5.688-22.528,15.534c-5.84,9.626-9.456,23.41-9.456,38.286c0,14.877,3.616,28.661,9.456,38.069
			c5.841,9.844,13.628,15.751,22.528,15.751c8.344,0,16.132-5.907,21.973-15.751C357.613,630.115,361.368,616.332,361.368,601.455z"
			/>
		<path style="fill:#272525;" d="M469.008,661.654c1.391,6.485-0.835,13.418-4.867,15.654c-0.558,0.224-1.669,0.671-3.06,0.671
			c0,0,0,0-0.14,0c-1.391,0-3.477-0.447-5.424-2.459c-1.808-1.789-3.337-4.697-4.449-7.828c-1.947-6.484-2.92-14.537-2.92-26.835
			c-0.14-4.251-0.695-7.159-1.67-9.618c-0.834-2.461-2.503-4.695-4.171-6.485c-2.921-3.133-6.536-4.92-7.789-5.368h-16.409v48.529
			c0,6.71-3.476,12.301-7.787,12.301c-4.311,0-7.649-5.591-7.649-12.301V535.968c0-6.933,3.339-12.3,7.649-12.3c0,0,0,0,0.139,0
			h24.753c16.55,0,29.761,21.469,29.761,48.082c0,14.76-4.172,27.732-10.848,36.677c1.809,2.236,3.478,4.919,4.868,8.274
			c2.781,6.487,4.588,14.762,4.588,24.156c-0.138,6.706,0.279,10.957,0.558,13.193C466.365,655.17,468.173,657.853,469.008,661.654z
			 M449.539,571.75c0-12.971-6.397-23.258-14.325-23.258h-17.104v46.07h17.104C443.142,594.562,449.539,584.274,449.539,571.75z"/>
		<path style="fill:#272525;" d="M491.54,667.771V535.405c0-6.562,3.337-12.444,7.647-12.444c4.312,0,7.648,5.883,7.648,12.444
			v64.938l45.057-73.536c3.061-4.978,7.789-4.978,10.848,0c2.92,4.751,2.92,12.67,0,17.649l-30.594,49.552l30.872,65.844
			c2.781,5.203,2.225,13.123-1.112,17.422c-1.391,2.037-3.06,2.941-4.868,2.941c-2.085,0-4.171-1.583-5.701-4.525L521.3,611.657
			l-14.464,23.985v32.129c0,6.788-3.337,12.445-7.648,12.445C494.877,680.216,491.54,674.559,491.54,667.771z"/>
		<path style="fill:#272525;" d="M586.524,642.145c2.503-4.812,7.093-5.469,10.151-1.53c6.119,7.874,16.688,17.063,26.562,16.845
			c6.953,0,13.212-3.281,17.384-8.096c4.171-4.812,5.979-10.282,5.979-15.75c0-2.845-0.418-4.814-1.252-7.001
			c-0.834-2.188-2.086-4.375-4.172-6.563c-4.032-4.158-10.847-7.877-19.052-10.282h-0.278c-6.535-1.97-12.655-4.596-17.938-8.532
			c-5.285-3.938-9.874-9.409-12.934-17.065c-2.086-5.25-3.198-11.375-3.198-17.939c0-13.127,4.728-24.503,11.125-31.941
			c6.535-7.438,15.02-11.595,24.058-11.595c13.351,0,23.224,10.283,30.316,17.502c3.198,3.5,4.172,10.501,1.947,15.532
			c-2.086,5.25-6.536,6.782-9.874,3.282c-7.092-7.438-13.906-14.001-22.39-14.001c-6.257,0-11.819,3.062-15.574,7.438
			c-3.755,4.376-5.285,9.188-5.285,13.783c0,2.626,0.278,4.375,0.974,6.126c0.695,1.75,1.947,3.719,3.755,5.688
			c3.615,3.936,9.874,7.438,17.383,9.625h0.278c7.092,2.188,13.628,5.031,19.191,9.188c5.701,4.376,10.707,10.063,13.906,18.158
			c2.086,5.25,3.337,11.814,3.337,18.597c0,14.001-5.006,26.033-11.959,33.909c-6.814,7.876-15.854,12.47-25.728,12.47
			c-15.019-0.219-27.674-12.032-35.601-21.877C584.577,654.178,584.161,646.958,586.524,642.145z"/>
	</g>
	<g>
		<path style="fill:#272525;" d="M131.998,828.656V701.052c0-6.705,3.459-11.896,7.927-11.896c4.468,0,8.071,5.191,8.071,11.896
			v51.907h37.328v-51.907c0-6.705,3.459-11.896,7.927-11.896c4.468,0,8.071,5.191,8.071,11.896v127.604
			c0,6.706-3.603,11.896-8.071,11.896c-4.468,0-7.927-5.19-7.927-11.896V776.75h-37.328v51.906c0,6.706-3.603,11.896-8.071,11.896
			C135.457,840.553,131.998,835.362,131.998,828.656z"/>
		<path style="fill:#272525;" d="M276.272,804.867H241.25l-7.062,28.115c-1.297,4.759-4.324,7.57-7.495,7.57
			c-1.009,0-1.874-0.217-2.739-0.649c-4.179-2.378-6.197-9.3-4.756-15.571l31.852-127.39c1.296-4.758,4.467-7.787,7.639-7.57
			c3.314-0.217,6.341,2.812,7.638,7.57l31.852,127.39c1.441,6.271-0.577,13.193-4.756,15.571c-0.721,0.433-1.73,0.649-2.739,0.649
			c-3.17,0-6.197-2.812-7.35-7.57L276.272,804.867z M270.364,781.076l-11.674-46.501l-11.675,46.501H270.364z"/>
		<path style="fill:#272525;" d="M384.658,822.603c1.441,6.271-0.865,12.976-5.045,15.139c-0.576,0.217-1.729,0.649-3.17,0.649
			c0,0,0,0-0.145,0c-1.441,0-3.604-0.433-5.621-2.379c-1.874-1.73-3.459-4.543-4.612-7.57c-2.018-6.271-3.026-14.059-3.026-25.953
			c-0.144-4.11-0.721-6.923-1.729-9.301c-0.865-2.38-2.594-4.541-4.324-6.272c-3.026-3.028-6.773-4.758-8.07-5.191h-17.007v46.933
			c0,6.49-3.604,11.896-8.071,11.896s-7.927-5.406-7.927-11.896V701.052c0-6.705,3.459-11.896,7.927-11.896c0,0,0,0,0.144,0h25.654
			c17.151,0,30.842,20.763,30.842,46.501c0,14.274-4.323,26.819-11.241,35.47c1.874,2.162,3.603,4.759,5.044,8.003
			c2.883,6.273,4.756,14.274,4.756,23.359c-0.145,6.487,0.288,10.598,0.576,12.761C381.919,816.33,383.793,818.926,384.658,822.603z
			 M364.48,735.656c0-12.543-6.63-22.494-14.845-22.494h-17.727v44.556h17.727C357.85,757.718,364.48,747.768,364.48,735.656z"/>
		<path style="fill:#272525;" d="M408.01,828.656V701.052c0-6.705,3.459-11.896,7.926-11.896h17.007
			c27.816,0,50.301,33.958,50.301,75.483c0,41.958-22.484,75.914-50.301,75.914h-17.007
			C411.469,840.553,408.01,835.146,408.01,828.656z M424.008,816.545h8.935c19.025-0.215,34.303-23.142,34.303-51.906
			c0-28.333-15.277-51.477-34.303-51.477h-8.935V816.545z"/>
		<path style="fill:#272525;" d="M504.435,828.656V701.052c0-6.705,3.459-11.896,7.926-11.896h0.145c0,0,0,0,0.288,0h46.697
			c4.18,0,7.926,5.191,7.926,11.896c0,6.703-3.746,12.11-7.926,12.11h-39.058v39.581h33.58c4.324,0,7.928,5.622,7.928,11.896
			c0,6.704-3.604,12.111-7.928,12.111h-33.58v39.795h39.058c4.18,0,7.926,5.408,7.926,12.111c0,6.49-3.746,11.896-7.926,11.896
			h-46.697c-0.288,0-0.288-0.217-0.288-0.217l-0.145,0.217C507.894,840.553,504.435,835.146,504.435,828.656z"/>
		<path style="fill:#272525;" d="M659.513,822.603c1.441,6.271-0.865,12.976-5.045,15.139c-0.577,0.217-1.729,0.649-3.17,0.649
			c0,0,0,0-0.145,0c-1.441,0-3.604-0.433-5.621-2.379c-1.874-1.73-3.459-4.543-4.612-7.57c-2.018-6.271-3.025-14.059-3.025-25.953
			c-0.145-4.11-0.721-6.923-1.73-9.301c-0.864-2.38-2.594-4.541-4.323-6.272c-3.027-3.028-6.774-4.758-8.071-5.191h-17.007v46.933
			c0,6.49-3.603,11.896-8.071,11.896c-4.467,0-7.927-5.406-7.927-11.896V701.052c0-6.705,3.46-11.896,7.927-11.896c0,0,0,0,0.145,0
			h25.654c17.15,0,30.842,20.763,30.842,46.501c0,14.274-4.322,26.819-11.241,35.47c1.874,2.162,3.604,4.759,5.045,8.003
			c2.882,6.273,4.755,14.274,4.755,23.359c-0.144,6.487,0.289,10.598,0.577,12.761C656.773,816.33,658.647,818.926,659.513,822.603z
			 M639.335,735.656c0-12.543-6.63-22.494-14.845-22.494h-17.728v44.556h17.728C632.705,757.718,639.335,747.768,639.335,735.656z"
			/>
	</g>
	<g>
		<path style="fill:#272525;" d="M182.983,875.979h-16.819v126.47c0,7.343-2.539,13.026-5.817,13.026
			c-3.173,0-5.818-5.684-5.818-13.026v-126.47h-16.712c-3.279,0-5.818-6.158-5.818-13.264c0-7.341,2.539-13.025,5.818-13.025h45.167
			c3.173,0,5.817,5.685,5.817,13.025C188.8,869.82,186.156,875.979,182.983,875.979z"/>
		<path style="fill:#272525;" d="M206.255,1002.448V862.715c0-7.341,2.539-13.025,5.818-13.025c3.279,0,5.923,5.685,5.923,13.025
			v56.842h27.396v-56.842c0-7.341,2.538-13.025,5.817-13.025c3.279,0,5.924,5.685,5.924,13.025v139.733
			c0,7.343-2.645,13.026-5.924,13.026c-3.279,0-5.817-5.684-5.817-13.026v-56.84h-27.396v56.84c0,7.343-2.644,13.026-5.923,13.026
			C208.794,1015.475,206.255,1009.791,206.255,1002.448z"/>
		<path style="fill:#272525;" d="M312.142,976.396h-25.704l-5.183,30.788c-0.952,5.21-3.173,8.29-5.5,8.29
			c-0.74,0-1.375-0.238-2.01-0.711c-3.067-2.604-4.548-10.184-3.491-17.053l23.377-139.495c0.952-5.21,3.278-8.526,5.606-8.289
			c2.433-0.237,4.654,3.079,5.605,8.289l23.376,139.495c1.058,6.869-0.423,14.448-3.49,17.053c-0.529,0.473-1.269,0.711-2.01,0.711
			c-2.327,0-4.548-3.08-5.395-8.29L312.142,976.396z M307.805,950.346l-8.568-50.921l-8.568,50.921H307.805z"/>
		<path style="fill:#272525;" d="M354.349,1002.321c0,7.175-2.645,13.153-5.712,13.153c-3.279,0-5.818-5.979-5.818-13.153V863.388
			c0,0,0,0,0-0.238c-0.105-4.066,0.74-8.371,2.327-11.002c2.645-4.064,6.241-2.868,8.039,2.871l34.165,106.891v-98.521
			c0-6.935,2.54-12.914,5.712-12.914c3.173,0,5.817,5.979,5.817,12.914v138.934c0,7.175-2.644,13.153-5.817,13.153
			c-1.692,0-3.279-1.914-4.337-4.784c-0.211-0.477-0.422-0.954-0.529-1.434l-33.848-106.173V1002.321z"/>
		<path style="fill:#272525;" d="M507.516,870.562l-21.685,67.195v64.564c0,7.415-2.538,13.153-5.817,13.153
			c-3.068,0-5.818-5.738-5.818-13.153v-64.564l-21.473-67.195c-2.009-5.739-1.48-13.87,1.164-18.174
			c2.645-4.306,6.241-3.108,8.038,2.868l18.089,55.957l18.087-55.957c2.01-5.977,5.606-7.174,8.146-2.868
			C508.784,856.691,509.312,864.822,507.516,870.562z"/>
		<path style="fill:#272525;" d="M571.934,874.326c6.559,15.197,10.684,35.459,10.684,58.255s-4.125,43.288-10.684,58.255
			c-6.241,14.968-15.549,24.639-25.28,24.639c-10.154,0-19.463-9.671-25.916-24.639c-6.558-14.967-10.472-35.459-10.472-58.255
			s3.914-43.058,10.472-58.255c6.453-15.197,15.762-24.637,25.916-24.637C556.385,849.689,565.692,859.129,571.934,874.326z
			 M570.56,932.581c0-15.657-2.856-30.164-7.194-40.295c-4.442-10.361-10.365-16.349-16.712-16.349
			c-6.77,0-12.693,5.987-17.136,16.349c-4.443,10.131-7.193,24.638-7.193,40.295c0,15.658,2.75,30.163,7.193,40.066
			c4.442,10.36,10.366,16.576,17.136,16.576c6.347,0,12.27-6.216,16.712-16.576C567.703,962.744,570.56,948.239,570.56,932.581z"/>
		<path style="fill:#272525;" d="M629.374,1015.475c-17.031,0-30.57-30.789-30.57-68.446v-84.313c0-7.341,2.539-13.025,5.818-13.025
			c3.174,0,5.923,5.685,5.923,13.025v84.313c0,23.211,8.463,42.156,18.829,42.156c10.472,0,18.828-18.945,18.828-42.156v-84.313
			c0-7.341,2.644-13.025,5.923-13.025c3.278,0,5.818,5.685,5.818,13.025v84.313C659.943,984.686,646.297,1015.475,629.374,1015.475z
			"/>
	</g>
</g>
<g id="Guides">
</g>
</svg>
