<?xml version="1.0" encoding="iso-8859-1"?>
<!-- Generator: Adobe Illustrator 15.1.0, SVG Export Plug-In . SVG Version: 6.00 Build 0)  -->
<!DOCTYPE svg PUBLIC "-//W3C//DTD SVG 1.1//EN" "http://www.w3.org/Graphics/SVG/1.1/DTD/svg11.dtd">
<svg version="1.1" xmlns="http://www.w3.org/2000/svg" xmlns:xlink="http://www.w3.org/1999/xlink" x="0px" y="0px" width="792px"
	 height="1224px" viewBox="0 0 792 1224" style="enable-background:new 0 0 792 1224;" xml:space="preserve">
<g id="Layer_1">
	<g>
		<path style="fill:#272525;" d="M131.999,207.851c35.918,2.261,59.564,30.135,59.564,76.75c0,46.616-23.646,74.49-59.564,76.75
			V207.851z M175.771,284.6c0-35.125-14.564-51.323-28.555-56.408v112.816C161.208,335.923,175.771,319.727,175.771,284.6z"/>
		<path style="fill:#272525;" d="M206.208,284.356c0-62.135,19.964-76.611,35.509-76.611s35.509,14.476,35.509,76.611
			c0,62.135-19.964,76.612-35.509,76.612S206.208,346.492,206.208,284.356z M261.435,284.356c0-45.59-10.555-59.315-19.718-59.315
			s-19.718,13.725-19.718,59.315c0,45.591,10.555,59.315,19.718,59.315S261.435,329.947,261.435,284.356z"/>
		<path style="fill:#272525;" d="M298.417,207.746h15.218v107.277c0,21.037,5.646,28.652,15.463,28.652
			c9.818,0,15.464-7.615,15.464-28.652V207.746h15.218v109.466c0,30.65-11.455,43.977-30.682,43.977
			c-19.227,0-30.682-13.327-30.682-43.977V207.746z"/>
		<path style="fill:#272525;" d="M425.234,288.906h15.219v72.413c-32.563,1.608-59.563-26.28-59.563-79.786
			c0-47.362,21.191-74.21,44.755-74.21c5.073,0,9.899,1.229,15.463,3.876l-6.873,15.22c-2.208-1.04-5.891-1.607-8.262-1.607
			c-14.319,0-29.292,19.757-29.292,56.91c0,33.086,11.863,53.223,28.554,58.895V288.906z"/>
		<path style="fill:#272525;" d="M464.835,207.746h15.218v136.608h33.628v16.751h-48.846V207.746z"/>
		<path style="fill:#272525;" d="M556.226,207.862l37.882,153.242h-16.363l-5.728-24.732h-31.663l-5.646,24.732h-16.364
			L556.226,207.862z M568.253,319.947l-8.754-38.357l-3.354-17.732l-3.191,17.732l-8.836,38.357H568.253z"/>
		<path style="fill:#272525;" d="M609.98,336.878c5.318,3.581,11.046,7.067,18,7.067c8.591,0,16.118-5.371,16.118-17.715
			c0-8.292-3.354-17.056-13.582-31.944l-10.555-15.359c-10.554-15.359-14.399-27.42-14.399-38.634
			c0-18.846,10.882-32.697,28.964-32.697c7.199,0,14.646,2.167,21.6,6.878l-6.546,14.606c-3.845-2.639-8.182-4.901-13.5-4.901
			c-8.918,0-14.727,6.22-14.727,16.773c0,5.843,1.8,11.967,9.082,22.992l15.3,23.18c7.937,12.061,14.154,22.238,14.154,37.692
			c0,22.521-13.337,36.372-31.909,36.372c-9.572,0-18.736-3.675-25.036-8.669L609.98,336.878z"/>
	</g>
	<g>
		<path style="fill:#272525;" d="M131.523,441.814c0-53.17,15.238-72.465,33.039-72.465c5.056,0,9.143,1.156,13.645,3.646
			l-5.749,14.314c-1.663-0.978-3.74-1.511-6.165-1.511c-10.251,0-21.402,15.026-21.402,56.016c0,40.988,11.151,56.015,21.402,56.015
			c2.424,0,4.502-0.534,6.165-1.512l5.749,14.315c-4.502,2.49-8.588,3.646-13.645,3.646
			C146.761,514.278,131.523,494.984,131.523,441.814z"/>
		<path style="fill:#272525;" d="M189.981,441.682c0-58.878,16.9-72.596,30.06-72.596c13.16,0,30.061,13.718,30.061,72.596
			c0,58.878-16.9,72.596-30.061,72.596C206.881,514.278,189.981,500.56,189.981,441.682z M236.733,441.682
			c0-43.202-8.935-56.207-16.692-56.207c-7.757,0-16.692,13.005-16.692,56.207s8.935,56.206,16.692,56.206
			C227.799,497.888,236.733,484.884,236.733,441.682z"/>
		<path style="fill:#272525;" d="M268.041,369.086h12.883v101.508c0,19.906,4.779,27.111,13.091,27.111s13.091-7.206,13.091-27.111
			V369.086h12.883v103.58c0,29.003-9.697,41.612-25.974,41.612s-25.974-12.609-25.974-41.612V369.086z"/>
		<path style="fill:#272525;" d="M343.468,369.167c31.653-1.795,46.614,19.664,46.614,51.359c0,27.026-10.805,46.69-33.731,50.731
			v42.739h-12.883V369.167z M376.714,420.525c0-21.459-8.588-32.414-20.363-33.76v67.521
			C368.126,452.939,376.714,441.985,376.714,420.525z"/>
		<path style="fill:#272525;" d="M408.159,369.086h12.883v129.081h28.468v15.828h-41.351V369.086z"/>
		<path style="fill:#272525;" d="M485.526,368.825l32.068,145.17h-13.853l-4.849-23.429h-26.805l-4.779,23.429h-13.853
			L485.526,368.825z M495.708,475.006l-7.411-36.337l-2.84-16.797l-2.701,16.797l-7.48,36.337H495.708z"/>
		<path style="fill:#272525;" d="M531.31,368.289l34.7,71.951l7.619,16.717l-0.347-16.458v-71.673h12.814v144.917l-34.771-71.521
			l-7.55-14.994l0.416,14.994v72.477H531.31V368.289z"/>
		<path style="fill:#272525;" d="M609.576,368.813C639.982,370.956,660,397.385,660,441.581c0,44.197-20.018,70.625-50.424,72.768
			V368.813z M646.632,441.581c0-33.303-12.328-48.66-24.173-53.482v106.965C634.304,490.242,646.632,474.885,646.632,441.581z"/>
	</g>
	<g>
		<path style="fill:#272525;" d="M131.999,522.682h21.199l16.217,76.613l4.134,24.608l9.54-24.608l11.871-29.415l11.871,29.415
			l9.434,24.608l4.24-24.608l16.217-76.613h21.199l-36.356,157.838l-18.231-44.89l-8.374-21.438l-8.374,21.438l-18.231,44.89
			L131.999,522.682z"/>
		<path style="fill:#272525;" d="M270.427,601.607c0-64.003,25.862-78.915,46.001-78.915c20.139,0,46.001,14.911,46.001,78.915
			c0,64.001-25.863,78.914-46.001,78.914C296.289,680.521,270.427,665.608,270.427,601.607z M341.973,601.607
			c0-46.961-13.673-61.098-25.544-61.098c-11.872,0-25.545,14.137-25.545,61.098c0,46.96,13.673,61.096,25.545,61.096
			C328.299,662.703,341.973,648.567,341.973,601.607z"/>
		<path style="fill:#272525;" d="M390.094,522.78c48.439-1.956,71.334,20.626,71.334,53.96c0,19.259-7.632,34.899-23.318,44.38
			l29.36,59.34h-22.259l-24.167-52.497c-3.498,0.881-7.207,1.564-11.235,2.054v50.443h-19.715V522.78z M440.971,576.74
			c0-22.191-13.143-33.334-31.162-34.801v69.601C427.828,610.075,440.971,598.931,440.971,576.74z"/>
		<path style="fill:#272525;" d="M489.729,522.682h19.715v77.552l40.701-77.552h21.198l-43.774,82.799l47.485,74.979h-22.79
			l-42.82-68.045v68.045h-19.715V522.682z"/>
		<path style="fill:#272525;" d="M595.934,655.35c6.89,3.688,14.309,7.281,23.318,7.281c11.13,0,20.881-5.534,20.881-18.248
			c0-8.539-4.346-17.567-17.595-32.901l-13.673-15.818c-13.674-15.82-18.655-28.244-18.655-39.793
			c0-19.41,14.097-33.677,37.521-33.677c9.328,0,18.974,2.232,27.982,7.085l-8.479,15.043c-4.981-2.718-10.6-5.047-17.488-5.047
			c-11.554,0-19.079,6.406-19.079,17.276c0,6.017,2.331,12.326,11.765,23.681l19.821,23.874
			c10.281,12.423,18.337,22.904,18.337,38.822c0,23.196-17.277,37.462-41.338,37.462c-12.401,0-24.272-3.784-32.434-8.928
			L595.934,655.35z"/>
	</g>
	<g>
		<path style="fill:#272525;" d="M131.999,688.275h17.741v84.259h33.479v-84.259h17.74v151.84h-17.74v-50.804h-33.479v50.804
			h-17.741V688.275z"/>
		<path style="fill:#272525;" d="M263.909,688.275l44.161,151.84h-19.076l-6.676-24.504h-36.912l-6.581,24.504h-19.076
			L263.909,688.275z M277.93,799.334l-10.206-38.006l-3.911-17.57l-3.72,17.57l-10.301,38.006H277.93z"/>
		<path style="fill:#272525;" d="M326.955,689.164c43.588-1.872,64.19,19.745,64.19,51.659c0,18.437-6.867,33.409-20.983,42.487
			l26.42,56.805h-20.03l-21.747-50.254c-3.147,0.841-6.485,1.497-10.11,1.965v48.289h-17.741V689.164z M372.737,740.823
			c0-21.245-11.827-31.914-28.042-33.317v66.632C360.91,772.734,372.737,762.066,372.737,740.823z"/>
		<path style="fill:#272525;" d="M416.612,688.707c41.871,2.238,69.436,29.853,69.436,76.033c0,46.18-27.564,73.794-69.436,76.034
			V688.707z M467.641,764.74c0-34.797-16.978-50.845-33.288-55.883v111.767C450.663,815.585,467.641,799.539,467.641,764.74z"/>
		<path style="fill:#272525;" d="M510.753,688.275h51.123v16.774h-33.383v58.335h28.614v16.774h-28.614v43.181h33.383v16.775
			h-51.123V688.275z"/>
		<path style="fill:#272525;" d="M589.441,688.515c43.588-1.879,64.19,19.832,64.19,51.881c0,18.517-6.867,33.554-20.983,42.671
			l26.42,57.049h-20.029l-21.747-50.471c-3.147,0.847-6.485,1.503-10.11,1.974v48.497h-17.74V688.515z M635.224,740.396
			c0-21.335-11.827-32.049-28.042-33.459v66.918C623.396,772.444,635.224,761.731,635.224,740.396z"/>
	</g>
	<g>
		<path style="fill:#272525;" d="M150.447,867.501h-18.449v-18.388h50.623v18.388h-18.449v148.04h-13.726V867.501z"/>
		<path style="fill:#272525;" d="M200.259,849.113h13.726v92.356h25.902v-92.356h13.726v166.428h-13.726v-55.685h-25.902v55.685
			h-13.726V849.113z"/>
		<path style="fill:#272525;" d="M302.317,848.504l34.167,167.037h-14.759l-5.166-26.959H288l-5.092,26.959H268.15L302.317,848.504z
			 M313.165,970.679l-7.896-41.81l-3.026-19.33l-2.878,19.33l-7.97,41.81H313.165z"/>
		<path style="fill:#272525;" d="M351.095,849.267l36.971,82.521l8.118,19.173l-0.369-18.877L396,849.009h13.651l-0.186,167.078
			l-37.044-82.026l-8.044-17.196l0.443,17.196v81.399h-13.726V849.267z"/>
		<path style="fill:#272525;" d="M474.553,958.812l-24.352-109.803h14.759l16.529,82.117l16.53-82.117h14.759l-24.5,110.534v55.998
			h-13.726V958.812z"/>
		<path style="fill:#272525;" d="M521.486,932.193c0-67.535,18.006-83.269,32.027-83.269c14.021,0,32.026,15.733,32.026,83.269
			c0,67.531-18.006,83.267-32.026,83.267C539.492,1015.46,521.486,999.725,521.486,932.193z M571.299,932.193
			c0-49.554-9.521-64.47-17.785-64.47c-8.266,0-17.784,14.916-17.784,64.47c0,49.551,9.519,64.467,17.784,64.467
			C561.778,996.66,571.299,981.744,571.299,932.193z"/>
		<path style="fill:#272525;" d="M604.654,849.113h13.726v116.737c0,22.891,5.091,31.177,13.946,31.177s13.948-8.286,13.948-31.177
			V849.113H660v119.119c0,33.354-10.331,47.854-27.674,47.854c-17.341,0-27.672-14.5-27.672-47.854V849.113z"/>
	</g>
</g>
<g id="Guides">
</g>
</svg>
