<?xml version="1.0" encoding="iso-8859-1"?>
<!-- Generator: Adobe Illustrator 15.1.0, SVG Export Plug-In . SVG Version: 6.00 Build 0)  -->
<!DOCTYPE svg PUBLIC "-//W3C//DTD SVG 1.1//EN" "http://www.w3.org/Graphics/SVG/1.1/DTD/svg11.dtd">
<svg version="1.1" xmlns="http://www.w3.org/2000/svg" xmlns:xlink="http://www.w3.org/1999/xlink" x="0px" y="0px" width="792px"
	 height="1224px" viewBox="0 0 792 1224" style="enable-background:new 0 0 792 1224;" xml:space="preserve">
<g id="Layer_1">
	<g>
		<path style="fill:#272525;" d="M211.23,285.054c0,42.222-13.899,76.469-31.036,76.469h-47.696v-3.753h6.95V212.338h-6.95v-3.753
			h47.696C197.331,208.585,211.23,242.832,211.23,285.054z M168.674,357.769h5.712c2.666,0,4.76-4.691,4.76-10.556v-124.32
			c0-5.865-2.094-10.555-4.76-10.555h-5.712V357.769z"/>
		<path style="fill:#272525;" d="M252.646,208.116c20.278,0,36.748,34.332,36.748,76.704c0,42.373-16.47,76.703-36.748,76.703
			c-20.278,0-36.748-34.331-36.748-76.703C215.898,242.448,232.368,208.116,252.646,208.116z M257.882,225.065
			c0-8.692-2.379-11.952-5.236-11.952c-2.856,0-5.236,3.26-5.236,11.952v119.509c0,8.691,2.38,11.951,5.236,11.951
			c2.856,0,5.236-3.26,5.236-11.951V225.065z"/>
		<path style="fill:#272525;" d="M338.235,352.047c2.856,0,5.998-2.706,8.664-7.895c3.237-6.315,5.712-16.466,5.712-29.774v-50.077
			c0-14.662-6.568-52.106-15.994-52.106v-3.609h26.371v3.609c-7.045,0-8.188,37.445-8.188,50.302v48.948
			c0,37.219-10.472,50.078-27.894,50.078c-19.992,0-27.323-23.911-27.323-44.664V212.194h-6.95v-3.609h40.461v3.609h-4.284v114.815
			C328.811,342.574,332.143,352.047,338.235,352.047z"/>
		<path style="fill:#272525;" d="M408.021,294.638h-6.379v-4.354h37.986v4.354h-4.094v63.126h-3.998
			c-0.623-7.724-1.929-14.326-3.618-19.155c-7.045,13.278-14.566,22.42-25.038,22.42c-23.231,0-36.844-33.74-36.844-76.187
			c0-42.446,12.186-76.839,32.465-76.839c10.376,0,12.661,10.449,21.134,10.449c3.428,0,7.235-6.531,7.235-11.754h1.619v70.962
			h-1.333c-0.856-22.42-6.95-40.706-13.328-52.025c-4.38-7.835-9.044-12.189-12.281-12.189c-2.189,0-3.998,2.829-3.998,11.537
			v119.721c0,8.708,2.379,11.972,5.235,11.972s5.236-3.265,5.236-11.972V294.638z"/>
		<path style="fill:#272525;" d="M482.853,357.769c8.663,0,24.467-41.518,24.467-72.95h1.713v76.703h-66.45v-3.753h6.949V212.338
			h-6.949v-3.753h49.22v3.753h-13.043v145.431H482.853z"/>
		<path style="fill:#272525;" d="M591.005,357.769v3.753h-40.651v-3.753h4.353l-6.709-51.604h-18.489
			c-0.113,2.119-0.289,5.816-0.289,8.209c0,22.988,5.521,43.395,14.565,43.395v3.753h-30.655v-3.753
			c4.761,0,8.378-16.419,10.567-31.666l17.423-117.519h24.562l19.9,149.184H591.005z M547.448,301.942l-8.233-63.332l-9.239,63.332
			H547.448z"/>
		<path style="fill:#272525;" d="M597.481,361.901v-63.232h2.095c0,11.12,2.229,20.128,5.807,29.878
			c5.772,15.729,15.167,28.774,24.277,28.774c3.998,0,7.806-5.451,7.806-14.609c0-20.127-13.663-23.043-25.418-33.976
			c-8.875-8.253-16.661-21.074-16.661-49.315c0-30.961,10.187-51.676,26.276-51.676c13.519,0,17.04,12.865,24.276,12.865
			c3.618,0,6.664-6.541,7.33-12.646h1.333v56.689h-1.618c0-20.713-14.471-52.111-28.751-52.111c-3.903,0-7.901,5.234-7.901,14.173
			c0,15.557,9.975,20.95,20.373,29.146c11.316,8.92,23.134,21.239,23.134,55.67c0,32.052-13.519,50.368-27.895,50.368
			c-11.52,0-19.611-12.211-24.276-12.211c-3.903,0-8.568,5.016-8.568,12.211H597.481z"/>
	</g>
	<g>
		<path style="fill:#272525;" d="M131.999,442.909c0-40.081,10.693-72.556,28.488-72.556c9.106,0,9.774,9.866,16.374,9.866
			c3.008,0,6.35-6.372,6.35-11.099h1.42v67.006h-1.17c-1.336-35.764-15.873-60.635-20.301-60.635c-2.506,0-3.509,2.672-3.509,10.894
			v100.098c0.083,17.472,4.762,19.732,7.268,19.732c7.686,0,15.372-17.676,16.876-37.204h1.838
			c-1.17,17.677-7.853,45.836-24.061,45.836C143.778,514.849,131.999,482.99,131.999,442.909z"/>
		<path style="fill:#272525;" d="M222.561,368.872c17.794,0,32.248,32.639,32.248,72.92c0,40.282-14.453,72.92-32.248,72.92
			c-17.795,0-32.248-32.638-32.248-72.92C190.313,401.511,204.766,368.872,222.561,368.872z M227.155,384.986
			c0-8.264-2.088-11.363-4.595-11.363s-4.595,3.099-4.595,11.363v113.613c0,8.263,2.088,11.362,4.595,11.362
			s4.595-3.099,4.595-11.362V384.986z"/>
		<path style="fill:#272525;" d="M297.668,505.905c2.506,0,5.263-2.577,7.603-7.517c2.84-6.013,5.013-15.677,5.013-28.347v-47.677
			c0-13.96-5.765-49.609-14.035-49.609v-3.437h23.141v3.437c-6.182,0-7.185,35.649-7.185,47.891v46.602
			c0,35.435-9.19,47.677-24.479,47.677c-17.544,0-23.977-22.765-23.977-42.522v-99.647h-6.099v-3.437h35.506v3.437h-3.76v109.311
			C289.397,496.885,292.321,505.905,297.668,505.905z"/>
		<path style="fill:#272525;" d="M352.808,459.409v51.735h12.03v3.568h-43.777v-3.568h6.099V372.887h-6.099v-3.568h49.625
			c10.944,0,18.128,20.96,18.128,45.045c0,24.084-7.185,45.044-18.128,45.044H352.808z M357.82,454.949
			c2.34,0,4.178-4.459,4.178-10.035v-61.993c0-5.575-1.838-10.034-4.178-10.034h-5.012v82.062H357.82z"/>
		<path style="fill:#272525;" d="M426.579,511.144c7.603,0,21.471-39.47,21.471-69.352h1.503v72.92H391.24v-3.568h6.099V372.887
			h-6.099v-3.568h43.191v3.568h-11.444v138.256H426.579z"/>
		<path style="fill:#272525;" d="M521.486,511.144v3.568h-35.673v-3.568h3.819l-5.887-49.059h-16.226
			c-0.099,2.014-0.253,5.529-0.253,7.805c0,21.854,4.845,41.254,12.782,41.254v3.568h-26.901v-3.568
			c4.177,0,7.352-15.609,9.273-30.104l15.288-111.721h21.554l17.463,141.825H521.486z M483.264,458.071l-7.225-60.208l-8.107,60.208
			H483.264z"/>
		<path style="fill:#272525;" d="M523.494,369.319h31.579l26.483,117.519v-56.641c0-19.847-4.762-43.707-10.693-53.519
			c-1.922-3.122-4.261-3.791-6.35-3.791v-3.568h24.562v3.568c-3.342,0-5.347,13.825-5.347,40.584v101.24h-25.48l-26.483-117.964
			v52.18c0,14.94,4.261,46.829,11.028,58.202c2.088,3.567,4.428,4.014,6.851,4.014v3.568h-25.23v-3.568
			c4.01,0,5.18-6.021,5.18-30.55V372.887h-6.099V369.319z"/>
		<path style="fill:#272525;" d="M659.839,442.015c0,40.14-12.197,72.697-27.235,72.697h-41.854v-3.568h6.098V372.887h-6.098v-3.568
			h41.854C647.642,369.319,659.839,401.875,659.839,442.015z M622.495,511.144h5.013c2.339,0,4.177-4.46,4.177-10.035V382.921
			c0-5.575-1.838-10.034-4.177-10.034h-5.013V511.144z"/>
	</g>
	<g>
		<path style="fill:#272525;" d="M232.834,522.817v3.862h-6.083l19.854,123.58l9.984-60.583c0.804-5.068,1.263-12.551,1.263-20.516
			c0-14.964-5.394-31.86-10.099-38.619c-2.181-3.138-4.82-3.862-7.23-3.862v-3.862h37.758v3.862
			c-7.116,0-12.395,25.827-15.149,42.239l-18.937,111.271h-30.068l-10.443-64.446l-11.018,64.446h-30.068l-24.904-153.511h-6.197
			v-3.862H232.834z M175.222,526.679l19.854,123.58l7.115-43.445l-12.969-80.135H175.222z"/>
		<path style="fill:#272525;" d="M326.488,522.333c24.444,0,44.299,35.332,44.299,78.938c0,43.604-19.855,78.935-44.299,78.935
			c-24.445,0-44.299-35.331-44.299-78.935C282.189,557.665,302.043,522.333,326.488,522.333z M332.8,539.776
			c0-8.945-2.869-12.299-6.312-12.299c-3.443,0-6.312,3.354-6.312,12.299v122.989c0,8.945,2.869,12.3,6.312,12.3
			c3.443,0,6.312-3.354,6.312-12.3V539.776z"/>
		<path style="fill:#272525;" d="M468.11,676.326h7.346v3.863h-44.529v-57.446c0-6.034-2.524-10.861-5.738-10.861h-6.885v64.444
			h7.345v3.863h-50.956v-3.863h8.377V526.679h-8.377v-3.862h69.318c16.296,0,25.019,18.102,25.019,44.654
			c0,24.865-10.215,37.412-18.937,41.033c12.395,3.621,18.018,15.447,18.018,39.1V676.326z M425.188,607.054
			c3.214,0,5.738-4.828,5.738-10.862V537.54c0-6.035-2.524-10.861-5.738-10.861h-6.885v80.375H425.188z"/>
		<path style="fill:#272525;" d="M556.024,522.413c9.525,0,17.444,15.269,17.444,34.008c0,19.664-7.689,35.857-17.444,35.857
			c-7.935,0-11.515-8.706-14.001-16.641c-2.081-6.64-3.395-12.739-5.854-12.739c-6.495,0-10.815,22.896-13.33,35.626h5.411
			c26.626,0,41.66,11.105,41.66,50.434v27.529h7.345v3.702H533.99v-66.627c0-5.784-2.525-10.411-5.739-10.411h-6.885v73.336h7.345
			v3.702h-50.956v-3.702h8.378V533.056h-8.378v-3.702h51.53v3.702h-7.919v59.816C528.109,559.781,538.908,522.413,556.024,522.413z"
			/>
		<path style="fill:#272525;" d="M584.604,680.455V615.43h2.524c0,11.437,2.688,20.699,7.001,30.727
			c6.958,16.177,18.284,29.592,29.266,29.592c4.819,0,9.41-5.606,9.41-15.025c0-20.699-16.472-23.696-30.643-34.939
			c-10.697-8.487-20.084-21.671-20.084-50.715c0-31.84,12.28-53.142,31.676-53.142c16.296,0,20.542,13.229,29.265,13.229
			c4.361,0,8.034-6.726,8.837-13.005h1.606v58.301h-1.951c0-21.303-17.443-53.592-34.658-53.592c-4.705,0-9.525,5.381-9.525,14.575
			c0,15.999,12.024,21.546,24.56,29.975c13.643,9.172,27.888,21.843,27.888,57.25c0,32.963-16.296,51.797-33.626,51.797
			c-13.887,0-23.642-12.556-29.265-12.556c-4.706,0-10.329,5.156-10.329,12.556H584.604z"/>
	</g>
	<g>
		<path style="fill:#272525;" d="M182.438,836.801v-70.687h-11.756v70.687h3.815v3.733h-43.001v-3.733h7.528V692.159h-7.528v-3.732
			h43.001v3.732h-3.815v68.823h11.756v-68.823h-3.815v-3.732h43.001v3.732h-7.528v144.642h7.528v3.733h-43.001v-3.733H182.438z"/>
		<path style="fill:#272525;" d="M308.455,836.801v3.733h-44.032v-3.733h4.714l-7.267-51.324h-20.027
			c-0.123,2.107-0.313,5.785-0.313,8.166c0,22.862,5.981,43.158,15.777,43.158v3.733h-33.205v-3.733
			c5.156,0,9.075-16.33,11.446-31.494l18.871-116.88h26.605l21.555,148.374H308.455z M261.275,781.277l-8.918-62.988l-10.007,62.988
			H261.275z"/>
		<path style="fill:#272525;" d="M394.872,836.801h6.6v3.733h-40.011v-55.522c0-5.833-2.269-10.5-5.156-10.5h-6.187v62.289h6.6
			v3.733h-45.786v-3.733h7.528V692.159h-7.528v-3.732h62.285c14.643,0,22.48,17.496,22.48,43.16c0,24.033-9.178,36.16-17.015,39.659
			c11.137,3.5,16.19,14.932,16.19,37.793V836.801z M356.305,769.847c2.887,0,5.156-4.667,5.156-10.499v-56.69
			c0-5.833-2.269-10.498-5.156-10.498h-6.187v77.688H356.305z"/>
		<path style="fill:#272525;" d="M488.817,764.479c0,41.993-15.056,76.055-33.617,76.055h-51.663v-3.733h7.528V692.159h-7.528
			v-3.732H455.2C473.762,688.427,488.817,722.488,488.817,764.479z M442.724,836.801h6.187c2.888,0,5.156-4.664,5.156-10.497
			V702.657c0-5.833-2.269-10.498-5.156-10.498h-6.187V836.801z"/>
		<path style="fill:#272525;" d="M492.431,840.534v-3.733h7.527V692.159h-7.527v-3.732h72.185v60.423h-1.856
			c0-33.361-17.737-56.69-24.749-56.69h-6.394v67.188h3.506c4.229,0,14.438-22.629,14.438-37.328v-4.197h1.856v87.718h-1.856v-4.2
			c0-14.695-10.209-37.326-14.438-37.326h-3.506v72.787h6.188c7.012,0,24.955-37.094,24.955-62.756h1.856v66.489H492.431z"/>
		<path style="fill:#272525;" d="M652.888,836.801h6.6v3.733h-40.011v-55.522c0-5.833-2.269-10.5-5.156-10.5h-6.187v62.289h6.6
			v3.733h-45.785v-3.733h7.527V692.159h-7.527v-3.732h62.284c14.644,0,22.48,17.496,22.48,43.16c0,24.033-9.178,36.16-17.015,39.659
			c11.137,3.5,16.189,14.932,16.189,37.793V836.801z M614.32,769.847c2.888,0,5.156-4.667,5.156-10.499v-56.69
			c0-5.833-2.269-10.498-5.156-10.498h-6.187v77.688H614.32z"/>
	</g>
	<g>
		<path style="fill:#272525;" d="M195.348,849.069v88.255h-1.568c-0.262-28.058-8.885-84.175-16.987-84.175v158.149h11.412v4.08
			h-49.479v-4.08h11.325V853.149c-8.102,0-16.726,56.117-16.987,84.175h-1.568v-88.255H195.348z"/>
		<path style="fill:#272525;" d="M240.822,1011.299v-77.288h-9.931v77.288h3.223v4.08h-36.325v-4.08h6.359V853.149h-6.359v-4.08
			h36.325v4.08h-3.223v75.249h9.931v-75.249h-3.223v-4.08h36.325v4.08h-6.359v158.149h6.359v4.08h-36.325v-4.08H240.822z"/>
		<path style="fill:#272525;" d="M347.274,1011.299v4.08h-37.196v-4.08h3.983l-6.139-56.118h-16.918
			c-0.104,2.305-0.265,6.324-0.265,8.929c0,24.997,5.052,47.189,13.328,47.189v4.08h-28.05v-4.08c4.355,0,7.666-17.856,9.669-34.437
			l15.941-127.793h22.475l18.208,162.229H347.274z M307.419,950.589l-7.534-68.87l-8.454,68.87H307.419z"/>
		<path style="fill:#272525;" d="M349.367,849.069h32.928l27.614,134.426v-64.79c0-22.702-4.965-49.995-11.149-61.22
			c-2.004-3.571-4.443-4.336-6.621-4.336v-4.08h25.61v4.08c-3.484,0-5.575,15.814-5.575,46.424v115.806h-26.568l-27.614-134.936
			v59.688c0,17.091,4.442,53.567,11.498,66.575c2.178,4.08,4.617,4.592,7.144,4.592v4.08h-26.308v-4.08
			c4.182,0,5.401-6.889,5.401-34.946V853.149h-6.359V849.069z"/>
		<path style="fill:#272525;" d="M503.992,904.675c1.045-5.355,1.741-11.478,1.741-19.13c0-12.499-2.787-24.743-6.271-30.099
			c-1.394-2.041-2.875-2.297-4.355-2.297v-4.08h27.004v4.08c-1.307,0-2.526,0.256-3.658,2.297
			c-2.353,4.08-4.617,13.009-7.666,27.803l-10.976,54.075v73.975h11.673v4.08h-49.827v-4.08h11.149v-54.076l-19.077-104.073h-4.704
			v-4.08h39.636v4.08h-4.617l14.548,78.055L503.992,904.675z"/>
		<path style="fill:#272525;" d="M558.786,848.559c18.555,0,33.625,37.334,33.625,83.411c0,46.075-15.07,83.409-33.625,83.409
			s-33.625-37.334-33.625-83.409C525.161,885.893,540.231,848.559,558.786,848.559z M563.577,866.988
			c0-9.449-2.178-12.995-4.791-12.995s-4.791,3.546-4.791,12.995V996.95c0,9.45,2.178,12.996,4.791,12.996s4.791-3.546,4.791-12.996
			V866.988z"/>
		<path style="fill:#272525;" d="M637.101,1005.14c2.613,0,5.488-2.945,7.928-8.589c2.962-6.871,5.227-17.914,5.227-32.393v-54.476
			c0-15.952-6.011-56.688-14.635-56.688v-3.925h24.13v3.925c-6.446,0-7.491,40.736-7.491,54.724v53.251
			c0,40.49-9.583,54.477-25.523,54.477c-18.294,0-25.001-26.011-25.001-48.588V852.994h-6.359v-3.925h37.021v3.925h-3.919V977.9
			C628.478,994.834,631.525,1005.14,637.101,1005.14z"/>
	</g>
</g>
<g id="Guides">
</g>
</svg>
