<?xml version="1.0" encoding="iso-8859-1"?>
<!-- Generator: Adobe Illustrator 15.1.0, SVG Export Plug-In . SVG Version: 6.00 Build 0)  -->
<!DOCTYPE svg PUBLIC "-//W3C//DTD SVG 1.1//EN" "http://www.w3.org/Graphics/SVG/1.1/DTD/svg11.dtd">
<svg version="1.1" xmlns="http://www.w3.org/2000/svg" xmlns:xlink="http://www.w3.org/1999/xlink" x="0px" y="0px" width="792px"
	 height="1224px" viewBox="0 0 792 1224" style="enable-background:new 0 0 792 1224;" xml:space="preserve">
<g id="Layer_1">
	<g>
		<path style="fill:#272525;" d="M135.713,360.359c-2.026,0-3.714-3.098-3.714-6.814v-138.14c0-3.716,1.688-6.813,3.714-6.813
			h22.513c24.426,0,41.423,32.212,41.423,75.78c0,43.775-16.997,75.987-41.423,75.987h-7.542c-2.026,0-3.715-3.098-3.715-6.814
			c0-3.924,1.689-7.021,3.715-7.021h7.542c20.148,0,33.881-26.017,33.881-62.152c0-35.929-13.733-61.946-33.881-61.946h-18.686
			v131.119C139.541,357.262,137.852,360.359,135.713,360.359z M150.796,332.896c-2.026,0-3.714-3.097-3.714-7.02
			c0-3.718,1.688-6.815,3.714-6.815h7.43c11.144,0,18.235-15.073,18.235-34.689c0-19.41-7.091-34.483-18.235-34.483h-3.715v48.317
			c0,3.923-1.576,7.021-3.715,7.021c-2.026,0-3.714-3.097-3.714-7.021v-55.132c0-3.922,1.688-7.021,3.714-7.021h7.43
			c15.421,0,25.664,21.268,25.664,48.318c0,27.256-10.243,48.524-25.664,48.524H150.796z"/>
		<path style="fill:#272525;" d="M293.866,269.879c-2.026,1.205-4.278-0.804-4.84-4.417c-2.364-12.849-6.867-23.889-13.058-31.919
			c-5.854-7.427-13.17-12.044-21.162-12.044c-46.939,0-46.939,125.667,0,125.667c7.992,0,15.308-4.417,21.162-12.045
			c6.191-7.829,10.694-18.87,13.058-31.919c0.562-3.613,2.814-5.42,4.84-4.417c2.026,1.004,3.039,5.019,2.476,8.632
			c-2.814,15.659-8.442,29.31-15.759,38.744c-7.317,9.234-16.097,14.855-25.777,14.855c-57.069,0-57.069-153.169,0-153.169
			c9.68,0,18.46,5.42,25.777,14.655c7.316,9.636,12.945,23.085,15.759,38.944C296.905,265.061,295.892,268.875,293.866,269.879z
			 M232.969,299.389c1.914-1.808,4.165-0.804,5.178,2.609c1.801,5.219,4.277,9.836,7.204,12.647
			c2.702,3.011,5.966,4.818,9.456,4.818c5.403,0,10.243-3.814,13.62-10.238c3.602-6.224,5.741-15.056,5.741-24.892
			c0-9.636-2.139-18.469-5.741-24.692c-3.376-6.223-8.217-10.238-13.62-10.238c-3.49,0-6.641,1.606-9.456,4.616
			c-2.927,3.011-5.403,7.428-7.204,12.648c-1.013,3.412-3.264,4.616-5.178,2.81c-1.801-1.806-2.477-6.022-1.351-9.435
			c2.364-7.428,5.741-13.651,9.793-17.866c4.053-4.216,8.668-6.424,13.396-6.424c7.542,0,14.295,5.42,19.248,14.253
			c4.728,8.833,7.767,20.876,7.767,34.328c0,13.449-3.039,25.494-7.767,34.328c-4.953,9.033-11.707,14.453-19.248,14.453
			c-4.728,0-9.343-2.409-13.396-6.424c-4.052-4.417-7.429-10.64-9.793-18.068C230.493,305.209,231.168,301.396,232.969,299.389z"/>
		<path style="fill:#272525;" d="M311.204,304.205v-89.08c0-3.882,1.688-6.946,3.714-6.946c2.139,0,3.828,3.064,3.828,6.946v89.08
			c0,57.207,48.289,57.207,48.289,0v-89.08c0-3.882,1.576-6.946,3.715-6.946c2.026,0,3.714,3.064,3.714,6.946v89.08
			C374.464,379.187,311.204,378.982,311.204,304.205z M326.625,215.125c0-3.882,1.688-6.946,3.715-6.946
			c2.139,0,3.827,3.064,3.827,6.946v87.445c0,21.656,17.447,21.656,17.447,0v-87.445c0-3.882,1.576-6.946,3.827-6.946
			c2.027,0,3.715,3.064,3.715,6.946v87.445c0,39.84-32.531,39.84-32.531,0V215.125z"/>
		<path style="fill:#272525;" d="M452.247,350.632c-28.14,28.329-63.036-2.875-63.599-65.278
			c-0.562-58.503,29.268-91.963,60.785-73.488c5.402,3.079,3.038,16.217-2.252,12.933c-26.451-15.602-51.441,11.29-50.991,60.351
			c0.45,51.729,28.816,74.925,50.542,55.424v-56.656c0-9.031,7.541-9.031,7.541,0v60.762
			C454.273,347.142,453.484,349.4,452.247,350.632z M445.268,252.92c-4.051-3.284-8.779-4.722-14.183-4.516
			c-25.664,1.848-24.876,71.025,0.227,70.615v-35.103c0-9.031,7.653-9.031,7.653,0v41.466c0,7.39-5.178,7.595-7.992,7.595
			c-34.219,0-35.794-95.864-0.113-98.121c6.642-0.411,12.383,1.436,17.448,5.337C452.811,244.094,449.771,256.411,445.268,252.92z"
			/>
		<path style="fill:#272525;" d="M523.276,353.545c0,3.716-1.575,6.814-3.714,6.814h-43.787c-2.139,0-3.827-3.098-3.827-6.814
			v-138.14c0-3.716,1.688-6.813,3.827-6.813c2.025,0,3.714,3.097,3.714,6.813v131.119h40.073
			C521.701,346.524,523.276,349.622,523.276,353.545z M490.746,208.592c2.139,0,3.827,3.097,3.827,6.813v103.45h24.989
			c2.139,0,3.714,3.098,3.714,7.021c0,3.716-1.575,6.813-3.714,6.813h-28.816c-2.025,0-3.714-3.097-3.714-6.813V215.405
			C487.032,211.689,488.721,208.592,490.746,208.592z"/>
		<path style="fill:#272525;" d="M532.285,358.717c-1.802-1.615-2.814-5.451-2.139-8.882l30.729-137.671
			c0.789-3.634,3.04-5.249,4.84-3.835c1.126,0.605,1.802,2.22,2.141,3.835l30.615,137.671c0.789,3.432-0.112,7.268-2.025,8.882
			c-1.914,1.211-4.165-0.404-4.952-3.835l-27.128-122.532l-27.128,122.532C536.336,358.313,534.197,359.928,532.285,358.717z
			 M548.493,358.717c-1.913-1.615-2.813-5.451-2.026-8.882l2.702-12.313c0.676-2.423,2.138-4.239,3.489-4.239h23.301
			c1.688,0,3.151,2.221,3.602,4.845l2.703,11.708c0.674,3.432-0.113,7.268-2.027,8.882c-1.913,1.211-4.164-0.202-4.953-3.835
			l-1.801-7.872h-18.235l-1.913,7.872C552.658,358.313,550.52,359.928,548.493,358.717z M555.134,313.095
			c0-3.836,1.688-6.662,3.716-6.662h5.402l-3.377-14.938c-0.676-3.432,0.227-7.468,2.026-8.68c2.026-1.413,4.165,0.201,4.954,3.432
			l5.516,24.225c0.224,0.807,0.337,1.614,0.337,2.624c0,3.836-1.802,6.863-3.94,6.863H558.85
			C556.822,319.958,555.134,316.931,555.134,313.095z"/>
		<path style="fill:#272525;" d="M611.982,338.265c17.334,16.932,40.859,12.595,40.859-25.604c0-28.289-20.262-33.451-26.002-41.917
			c-9.005-13.008-4.278-49.556,23.751-28.701c4.39,3.304,1.688,16.106-2.927,12.596c-16.997-12.596-19.924,0.207-16.21,5.575
			c4.166,5.782,28.816,14.041,28.816,52.448c0,37.787-18.235,55.544-39.284,46.253c-3.827-1.446-8.217-4.13-12.606-8.466
			C604.103,346.317,607.591,334.135,611.982,338.265z M649.689,226.969c-10.13-6.607-22.286-10.118-29.716,4.956
			c-6.079,11.77-7.654,33.451,0.45,46.252c9.794,16.106,23.75,12.596,24.539,34.484c0.337,11.563-5.179,20.029-11.257,20.855
			c-7.315,0.826-16.434-2.478-23.864-12.389c-3.938-5.162,0.452-16.313,4.391-11.151c8.668,11.563,23.863,13.628,23.189,3.304
			c-0.452-9.706-11.595-8.053-22.064-24.778c-16.32-26.224-6.415-78.465,16.772-80.53c6.754-0.62,12.27,1.032,20.149,5.988
			C656.894,216.852,654.418,230.067,649.689,226.969z"/>
	</g>
	<g>
		<path style="fill:#272525;" d="M180.058,385.615c-3.86-3.308-7.913-4.863-12.063-4.863c-17.371,0-29.723,26.457-29.723,60.696
			c0.096,30.543,10.229,60.308,30.012,60.308c4.15,0,8.01-1.75,11.773-4.669c3.957-3.307,6.369,8.754,2.509,11.867
			c-4.536,3.697-9.36,5.643-14.282,5.643c-24.029,0-36.188-36.38-36.285-72.759c-0.096-36.962,11.966-73.925,36.285-73.925
			c4.922,0,9.747,1.945,14.282,5.642C186.427,376.861,184.014,388.728,180.058,385.615z M181.119,481.33
			c-4.15,4.863-8.685,7.003-13.125,6.809c-11.773-0.389-22.195-17.897-22.195-46.69c0-40.075,19.687-57.778,35.32-40.075
			c3.764,3.891,0.676,15.369-2.992,11.089c-11.194-12.451-25.959-1.363-25.959,28.986c0,21.4,7.431,33.072,15.73,33.656
			c3.377,0.194,6.948-1.362,10.229-5.059C181.795,466.155,184.883,477.244,181.119,481.33z"/>
		<path style="fill:#272525;" d="M263.438,427.858c-1.737,1.146-3.667-0.765-4.15-4.204c-2.026-12.227-5.887-22.735-11.194-30.377
			c-5.018-7.069-11.291-11.463-18.143-11.463c-40.241,0-40.241,119.6,0,119.6c6.852,0,13.125-4.204,18.143-11.463
			c5.308-7.451,9.168-17.959,11.194-30.377c0.482-3.439,2.413-5.159,4.15-4.203c1.737,0.955,2.605,4.776,2.123,8.215
			c-2.413,14.903-7.238,27.894-13.511,36.874c-6.272,8.788-13.8,14.138-22.099,14.138c-48.927,0-48.927-145.774,0-145.774
			c8.299,0,15.827,5.158,22.099,13.947c6.273,9.171,11.098,21.971,13.511,37.064C266.044,423.272,265.175,426.903,263.438,427.858z
			 M211.23,455.943c1.641-1.72,3.571-0.765,4.439,2.483c1.544,4.968,3.667,9.361,6.176,12.037c2.316,2.866,5.114,4.585,8.106,4.585
			c4.632,0,8.782-3.629,11.677-9.744c3.088-5.922,4.922-14.329,4.922-23.69c0-9.17-1.833-17.577-4.922-23.5
			c-2.895-5.922-7.044-9.744-11.677-9.744c-2.992,0-5.693,1.529-8.106,4.394c-2.509,2.866-4.632,7.069-6.176,12.036
			c-0.869,3.248-2.798,4.395-4.439,2.675c-1.544-1.72-2.123-5.732-1.158-8.98c2.026-7.068,4.922-12.991,8.396-17.003
			c3.474-4.012,7.431-6.114,11.484-6.114c6.466,0,12.256,5.158,16.502,13.565c4.053,8.407,6.659,19.87,6.659,32.67
			c0,12.801-2.605,24.264-6.659,32.67c-4.246,8.597-10.036,13.755-16.502,13.755c-4.053,0-8.01-2.292-11.484-6.114
			c-3.474-4.203-6.369-10.126-8.396-17.195C209.107,461.484,209.686,457.854,211.23,455.943z"/>
		<path style="fill:#272525;" d="M278.302,460.727v-85.681c0-3.734,1.448-6.682,3.185-6.682c1.833,0,3.281,2.948,3.281,6.682v85.681
			c0,55.024,41.399,55.024,41.399,0v-85.681c0-3.734,1.351-6.682,3.185-6.682c1.738,0,3.185,2.948,3.185,6.682v85.681
			C332.537,532.848,278.302,532.65,278.302,460.727z M291.523,375.046c0-3.734,1.447-6.682,3.185-6.682
			c1.833,0,3.281,2.948,3.281,6.682v84.108c0,20.831,14.958,20.831,14.958,0v-84.108c0-3.734,1.351-6.682,3.281-6.682
			c1.736,0,3.184,2.948,3.184,6.682v84.108c0,38.321-27.889,38.321-27.889,0V375.046z"/>
		<path style="fill:#272525;" d="M347.786,508.512V375.741c0-3.987,1.448-6.779,3.184-6.779h25.478c29.24,0,29.143,93.1,0,93.1
			h-9.265v46.45c0,8.772-6.562,8.772-6.562,0v-53.229c0-3.588,1.544-6.579,3.281-6.579h12.546c20.748,0,20.748-66.585,0-66.585
			h-22.196v126.392C354.251,517.284,347.786,517.284,347.786,508.512z M368.438,428.77c0-8.174,4.341-6.58,6.851-6.58
			c4.44,0,4.44-13.356,0-13.356h-11.387c-4.246,0-4.246-13.357,0-13.357h11.387c12.932,0,12.932,39.872,0,39.872
			C372.78,435.348,368.438,436.743,368.438,428.77z"/>
		<path style="fill:#272525;" d="M453.265,508.711c0,3.588-1.351,6.579-3.184,6.579h-37.54c-1.833,0-3.281-2.991-3.281-6.579
			v-133.37c0-3.588,1.448-6.579,3.281-6.579c1.736,0,3.185,2.991,3.185,6.579v126.592h34.355
			C451.914,501.933,453.265,504.923,453.265,508.711z M425.376,368.763c1.833,0,3.281,2.991,3.281,6.579v99.878h21.424
			c1.833,0,3.184,2.991,3.184,6.778c0,3.588-1.351,6.579-3.184,6.579h-24.705c-1.736,0-3.185-2.99-3.185-6.579V375.341
			C422.191,371.753,423.64,368.763,425.376,368.763z"/>
		<path style="fill:#272525;" d="M460.988,513.707c-1.545-1.551-2.413-5.234-1.834-8.529l26.345-132.199
			c0.676-3.489,2.606-5.04,4.149-3.683c0.965,0.581,1.544,2.132,1.835,3.683l26.247,132.199c0.677,3.295-0.097,6.979-1.736,8.529
			c-1.641,1.163-3.571-0.388-4.246-3.683l-23.257-117.662l-23.257,117.662C464.461,513.319,462.628,514.87,460.988,513.707z
			 M474.884,513.707c-1.641-1.551-2.412-5.234-1.737-8.529l2.316-11.824c0.579-2.327,1.833-4.071,2.992-4.071h19.976
			c1.447,0,2.702,2.133,3.088,4.652l2.316,11.243c0.578,3.295-0.097,6.979-1.737,8.529c-1.64,1.163-3.57-0.194-4.246-3.683
			l-1.545-7.561h-15.633l-1.64,7.561C478.455,513.319,476.621,514.87,474.884,513.707z M480.577,469.899
			c0-3.684,1.447-6.397,3.186-6.397h4.632l-2.896-14.345c-0.579-3.295,0.193-7.172,1.736-8.335c1.738-1.356,3.571,0.194,4.248,3.295
			l4.729,23.261c0.192,0.775,0.289,1.551,0.289,2.521c0,3.683-1.545,6.59-3.378,6.59h-9.36
			C482.024,476.489,480.577,473.582,480.577,469.899z"/>
		<path style="fill:#272525;" d="M530.857,515.489c-1.737,0-3.185-3.189-3.185-6.778v-133.37c0-3.588,1.447-6.379,3.185-6.379
			c1.833,0,3.186,2.792,3.186,6.379v133.37C534.043,512.3,532.69,515.489,530.857,515.489z M540.701,370.158
			c1.447-2.393,3.474-1.396,4.438,1.595l22.196,65.588v-62c0-3.588,1.543-6.379,3.281-6.379c1.736,0,3.185,2.792,3.185,6.379v82.933
			c0,2.193-0.483,4.386-1.448,5.582c-1.447,2.193-3.377,1.396-4.439-1.595l-27.985-82.933
			C538.867,376.139,539.254,372.152,540.701,370.158z M573.705,514.293c-1.545,1.994-3.475,1.196-4.535-1.794l-22.197-65.588v61.801
			c0,3.588-1.447,6.579-3.28,6.579c-1.737,0-3.088-2.991-3.088-6.579v-82.933c0-2.192,0.386-4.186,1.351-5.382
			c1.352-2.393,3.475-1.595,4.439,1.595l28.082,82.932C575.441,507.914,575.056,511.901,573.705,514.293z M583.452,515.489
			c-1.738,0-3.186-3.189-3.186-6.778v-133.37c0-3.588,1.447-6.379,3.186-6.379c1.833,0,3.281,2.792,3.281,6.379v133.37
			C586.733,512.3,585.285,515.489,583.452,515.489z"/>
		<path style="fill:#272525;" d="M605.456,515.291c-1.736,0-3.184-2.991-3.184-6.579v-133.37c0-3.588,1.447-6.579,3.184-6.579
			h19.302c20.941,0,35.513,31.1,35.513,73.165c0,42.263-14.571,73.363-35.513,73.363h-6.467c-1.736,0-3.184-2.991-3.184-6.579
			c0-3.788,1.447-6.778,3.184-6.778h6.467c17.273,0,29.047-25.119,29.047-60.006c0-34.688-11.773-59.808-29.047-59.808h-16.021
			v126.592C608.737,512.3,607.29,515.291,605.456,515.291z M618.388,488.776c-1.736,0-3.184-2.991-3.184-6.778
			c0-3.589,1.447-6.579,3.184-6.579h6.37c9.554,0,15.633-14.553,15.633-33.492c0-18.74-6.079-33.293-15.633-33.293h-3.186v46.649
			c0,3.789-1.351,6.779-3.185,6.779c-1.736,0-3.184-2.99-3.184-6.779v-53.228c0-3.787,1.447-6.778,3.184-6.778h6.37
			c13.221,0,22.002,20.534,22.002,46.65c0,26.315-8.781,46.849-22.002,46.849H618.388z"/>
	</g>
	<g>
		<path style="fill:#272525;" d="M263.842,522.329c2.391,1.453,3.735,5.398,2.54,8.927l-42.437,144.919
			c-1.793,5.813-7.472,5.605-9.265,0l-15.391-52.528l-15.391,52.528c-1.644,5.813-7.471,5.813-9.115-0.209l-42.587-144.71
			c-0.896-3.529,0.448-7.474,2.839-8.927c2.54-1.454,5.529,0.208,6.425,3.736l37.955,129.349l15.242-52.114
			c1.942-6.021,7.471-6.436,9.414,0l15.391,52.114l37.805-129.349C258.313,522.537,261.302,520.875,263.842,522.329z
			 M157.599,522.329c2.541-1.454,5.379,0.208,6.425,3.736l15.391,52.528l15.391-52.528c0.896-3.528,3.885-5.19,6.425-3.736
			c1.345,0.623,2.242,2.284,2.839,3.736l15.391,52.528l15.391-52.528c0.896-3.528,3.885-5.19,6.425-3.736
			c2.391,1.453,3.736,5.398,2.69,8.927l-20.023,68.099c-0.449,1.662-1.345,3.323-2.69,3.944c-2.541,1.246-5.379-0.207-6.575-3.944
			l-15.391-52.32l-15.391,52.32c-0.448,1.662-1.345,3.323-2.541,3.944c-2.54,1.246-5.529-0.207-6.575-3.944l-20.023-68.099
			C153.714,527.728,155.059,523.782,157.599,522.329z"/>
		<path style="fill:#272525;" d="M384.882,586.605c-2.69,1.243-5.678-0.827-6.425-4.55c-3.138-13.238-9.116-24.613-17.334-32.887
			c-7.771-7.653-17.483-12.41-28.092-12.41c-62.311,0-62.311,129.48,0,129.48c10.609,0,20.322-4.552,28.092-12.411
			c8.218-8.066,14.196-19.442,17.334-32.887c0.747-3.723,3.735-5.584,6.425-4.55c2.689,1.035,4.034,5.17,3.287,8.893
			c-3.736,16.133-11.207,30.199-20.919,39.921c-9.713,9.514-21.369,15.307-34.219,15.307c-75.76,0-75.76-157.818,0-157.818
			c12.851,0,24.506,5.585,34.219,15.099c9.712,9.928,17.184,23.786,20.919,40.126C388.917,581.642,387.572,585.571,384.882,586.605z
			 M304.042,617.009c2.541-1.86,5.529-0.825,6.874,2.69c2.391,5.377,5.678,10.134,9.563,13.03c3.586,3.103,7.919,4.965,12.552,4.965
			c7.172,0,13.598-3.932,18.081-10.551c4.782-6.41,7.621-15.511,7.621-25.646c0-9.929-2.839-19.029-7.621-25.44
			c-4.482-6.413-10.908-10.549-18.081-10.549c-4.632,0-8.816,1.654-12.552,4.757c-3.885,3.103-7.173,7.653-9.563,13.031
			c-1.345,3.516-4.333,4.756-6.874,2.895c-2.391-1.86-3.287-6.205-1.793-9.721c3.138-7.653,7.621-14.065,13-18.409
			c5.379-4.343,11.506-6.618,17.782-6.618c10.011,0,18.978,5.584,25.552,14.685c6.276,9.102,10.311,21.511,10.311,35.37
			c0,13.858-4.035,26.268-10.311,35.368c-6.575,9.308-15.541,14.892-25.552,14.892c-6.276,0-12.403-2.481-17.782-6.617
			c-5.379-4.552-9.862-10.962-13-18.615C300.754,623.01,301.651,619.079,304.042,617.009z"/>
		<path style="fill:#272525;" d="M408.496,673.305V529.647c0-3.865,2.39-7.085,5.08-7.085h39.3
			c30.633,0,46.023,53.899,24.505,85.678c-4.333,6.228-9.712,10.953-15.689,13.1l23.161,47.67c3.736,7.731-4.482,16.105-8.068,8.376
			L449.14,620.48c-2.988-5.583,0-11.81,3.736-11.81c21.965,0,32.725-39.082,17.333-61.414c-4.482-6.442-10.609-10.308-17.333-10.308
			h-34.369v136.356C418.507,682.753,408.496,682.753,408.496,673.305z M452.277,677.386l-13.747-28.56v24.479
			c0,9.448-10.012,9.448-10.012,0v-46.812c0-7.729,6.276-9.878,9.115-4.51l22.862,47.026
			C464.231,676.741,456.163,685.115,452.277,677.386z M446.301,594.283c-7.771-0.644-8.069-14.172,0-14.172
			c4.632,0,10.161,1.074,10.161-7.301c0-4.295-2.391-7.301-5.23-7.301H433.45c-6.575,0-6.575-14.388,0-14.388h17.781
			c9.116,0,15.092,10.952,15.092,21.903c0,12.024-6.873,21.259-15.092,21.259C449.887,594.283,447.944,594.497,446.301,594.283z"/>
		<path style="fill:#272525;" d="M506.672,680.392c-2.69,0-4.932-3.221-4.932-7.087V529.647c0-3.865,2.241-7.085,4.932-7.085
			c2.839,0,5.08,3.221,5.08,7.085v143.657C511.752,677.171,509.511,680.392,506.672,680.392z M552.396,523.85
			c2.391,2.362,2.839,6.657,1.345,9.878l-23.012,47.241c-1.494,3.221-4.633,4.08-6.874,1.719c-1.494-1.503-2.092-3.651-2.092-6.227
			v-46.813c0-3.865,2.242-7.085,4.932-7.085c2.839,0,4.931,3.221,4.931,7.085v24.48l13.896-28.56
			C547.167,522.347,550.155,521.488,552.396,523.85z M552.396,679.104c-2.241,2.146-5.229,1.503-6.874-1.718l-13.896-28.56v24.479
			c0,3.866-2.092,7.087-4.931,7.087c-2.689,0-4.932-3.221-4.932-7.087v-47.026c0-7.302,6.276-10.093,8.966-4.295l23.012,47.026
			C555.235,672.446,554.787,676.741,552.396,679.104z M576.754,523.85c2.391,2.362,2.839,6.657,1.345,9.878l-32.875,67.64
			l32.875,67.642c1.494,3.437,1.046,7.731-1.345,10.094c-2.242,2.146-5.23,1.503-6.875-1.718l-34.815-71.723
			c-1.196-2.361-1.196-5.797,0-8.375l34.815-71.721C571.523,522.347,574.512,521.488,576.754,523.85z"/>
		<path style="fill:#272525;" d="M595.584,656.44c23.012,17.483,54.241,13.007,54.241-26.434c0-29.209-26.896-34.538-34.518-43.279
			c-11.954-13.431-5.679-51.166,31.529-29.634c5.827,3.411,2.241,16.629-3.885,13.006c-22.563-13.006-26.448,0.212-21.519,5.755
			c5.529,5.97,38.254,14.497,38.254,54.152c0,39.013-24.207,57.349-52.15,47.754c-5.08-1.491-10.907-4.262-16.735-8.741
			C585.123,664.758,589.755,652.18,595.584,656.44z M645.643,541.53c-13.449-6.822-29.588-10.446-39.449,5.117
			c-8.069,12.152-10.162,34.538,0.597,47.756c13.001,16.629,31.529,13.005,32.576,35.604c0.447,11.938-6.874,20.678-14.943,21.532
			c-9.712,0.852-21.817-2.558-31.679-12.792c-5.229-5.33,0.598-16.844,5.827-11.513c11.507,11.938,31.679,14.07,30.783,3.411
			c-0.599-10.021-15.392-8.315-29.289-25.584c-21.667-27.074-8.517-81.013,22.266-83.145c8.965-0.641,16.288,1.065,26.747,6.183
			C655.205,531.084,651.917,544.729,645.643,541.53z"/>
	</g>
	<g>
		<path style="fill:#272525;" d="M136.745,840.524c-2.652,0-4.747-3.111-4.747-6.846V694.905c0-3.733,2.094-6.845,4.747-6.845
			c2.513,0,4.607,3.111,4.607,6.845v138.773C141.352,837.413,139.258,840.524,136.745,840.524z M155.313,688.061
			c2.652,0,4.747,3.111,4.747,6.845v48.54h18.568v-48.54c0-3.733,2.094-6.845,4.747-6.845c2.513,0,4.607,3.111,4.607,6.845v55.593
			c0,3.734-2.094,6.846-4.607,6.846h-28.062c-2.513,0-4.607-3.111-4.607-6.846v-55.593
			C150.706,691.172,152.8,688.061,155.313,688.061z M183.375,840.524c-2.653,0-4.747-3.111-4.747-6.846v-48.54H160.06v48.54
			c0,3.734-2.094,6.846-4.747,6.846c-2.513,0-4.607-3.111-4.607-6.846v-55.593c0-3.732,2.094-6.844,4.607-6.844h28.062
			c2.513,0,4.607,3.111,4.607,6.844v55.593C187.981,837.413,185.887,840.524,183.375,840.524z M201.942,688.061
			c2.653,0,4.747,3.111,4.747,6.845v138.773c0,3.734-2.094,6.846-4.747,6.846c-2.513,0-4.607-3.111-4.607-6.846V694.905
			C197.335,691.172,199.43,688.061,201.942,688.061z"/>
		<path style="fill:#272525;" d="M223.167,838.875c-2.233-1.62-3.49-5.466-2.652-8.908l38.114-138.072
			c0.977-3.645,3.769-5.264,6.003-3.847c1.396,0.607,2.234,2.227,2.652,3.847l37.974,138.072c0.977,3.442-0.14,7.288-2.513,8.908
			c-2.374,1.216-5.166-0.404-6.143-3.847l-33.646-122.888L229.31,835.028C228.193,838.471,225.541,840.091,223.167,838.875z
			 M243.271,838.875c-2.373-1.62-3.49-5.466-2.513-8.908l3.35-12.349c0.838-2.43,2.653-4.252,4.328-4.252h28.899
			c2.094,0,3.909,2.228,4.468,4.86l3.35,11.74c0.838,3.442-0.14,7.288-2.513,8.908c-2.374,1.216-5.166-0.201-6.143-3.847
			l-2.234-7.895h-22.617l-2.373,7.895C248.437,838.471,245.784,840.091,243.271,838.875z M251.508,793.122
			c0-3.847,2.094-6.683,4.607-6.683h6.701l-4.188-14.982c-0.838-3.44,0.279-7.488,2.513-8.703c2.513-1.417,5.166,0.203,6.143,3.441
			l6.841,24.294c0.28,0.811,0.419,1.62,0.419,2.633c0,3.846-2.233,6.882-4.886,6.882h-13.542
			C253.602,800.004,251.508,796.968,251.508,793.122z"/>
		<path style="fill:#272525;" d="M319.641,833.679V694.905c0-3.733,2.234-6.845,4.747-6.845h36.718c28.62,0,43,52.066,22.896,82.766
			c-4.048,6.017-9.074,10.58-14.659,12.654l21.64,46.05c3.49,7.468-4.188,15.558-7.539,8.091l-25.828-54.972
			c-2.792-5.392,0-11.407,3.491-11.407c20.522,0,30.574-37.753,16.195-59.326c-4.188-6.224-9.913-9.958-16.195-9.958h-32.11v131.721
			C328.995,842.806,319.641,842.806,319.641,833.679z M354.962,757.344c-7.26-0.622-7.539-13.69,0-13.69
			c4.328,0,9.493,1.037,9.493-7.054c0-4.147-2.233-7.053-4.886-7.053h-16.614c-6.143,0-6.143-13.898,0-13.898h16.614
			c8.516,0,14.1,10.58,14.1,21.159c0,11.616-6.422,20.536-14.1,20.536C358.312,757.344,356.498,757.55,354.962,757.344z
			 M360.546,837.621l-12.844-27.589v23.646c0,9.127-9.354,9.127-9.354,0v-45.221c0-7.466,5.864-9.541,8.517-4.356l21.36,45.429
			C371.715,836.998,364.176,845.088,360.546,837.621z"/>
		<path style="fill:#272525;" d="M411.366,840.524c-2.513,0-4.607-3.111-4.607-6.846V694.905c0-3.733,2.095-6.845,4.607-6.845
			h27.923c30.295,0,51.376,32.359,51.376,76.127c0,43.977-21.081,76.337-51.376,76.337h-9.354c-2.514,0-4.607-3.111-4.607-6.846
			c0-3.94,2.094-7.053,4.607-7.053h9.354c24.989,0,42.022-26.137,42.022-62.438c0-36.092-17.033-62.229-42.022-62.229h-23.176
			v131.721C416.113,837.413,414.019,840.524,411.366,840.524z M430.074,812.936c-2.513,0-4.607-3.111-4.607-7.053
			c0-3.734,2.095-6.846,4.607-6.846h9.215c13.821,0,22.616-15.142,22.616-34.85c0-19.497-8.795-34.641-22.616-34.641h-4.607v48.539
			c0,3.941-1.955,7.053-4.607,7.053c-2.513,0-4.607-3.111-4.607-7.053v-55.384c0-3.941,2.095-7.054,4.607-7.054h9.215
			c19.126,0,31.83,21.367,31.83,48.539c0,27.383-12.704,48.748-31.83,48.748H430.074z"/>
		<path style="fill:#272525;" d="M567.034,833.679c0,3.734-2.095,6.846-4.747,6.846h-48.305c-2.514,0-4.607-3.111-4.607-6.846
			V694.905c0-3.733,2.094-6.845,4.607-6.845h48.305c2.652,0,4.747,3.111,4.747,6.845c0,3.941-2.095,7.053-4.747,7.053h-43.559
			v124.668h43.559C564.939,826.626,567.034,829.738,567.034,833.679z M567.034,722.702c0,3.733-2.095,6.845-4.747,6.845h-24.99
			v13.898h16.335c2.652,0,4.746,3.111,4.746,7.053c0,3.734-2.094,6.846-4.746,6.846H532.69c-2.653,0-4.748-3.111-4.748-6.846
			v-27.796c0-3.941,2.095-6.846,4.748-6.846h29.597C564.939,715.856,567.034,718.761,567.034,722.702z M558.378,778.086
			c0,3.941-2.094,7.053-4.746,7.053h-16.335v13.692h24.99c2.652,0,4.747,3.112,4.747,7.052c0,3.733-2.095,6.845-4.747,6.845H532.69
			c-2.653,0-4.748-3.111-4.748-6.845v-27.797c0-3.732,2.095-6.844,4.748-6.844h20.941
			C556.284,771.242,558.378,774.354,558.378,778.086z"/>
		<path style="fill:#272525;" d="M585.745,833.679V694.905c0-3.733,2.233-6.845,4.746-6.845h36.718c28.62,0,43,52.066,22.896,82.766
			c-4.049,6.017-9.074,10.58-14.659,12.654l21.64,46.05c3.491,7.468-4.188,15.558-7.538,8.091l-25.828-54.972
			c-2.793-5.392,0-11.407,3.49-11.407c20.522,0,30.574-37.753,16.194-59.326c-4.188-6.224-9.912-9.958-16.194-9.958h-32.111v131.721
			C595.098,842.806,585.745,842.806,585.745,833.679z M626.65,837.621l-12.844-27.589v23.646c0,9.127-9.354,9.127-9.354,0v-45.221
			c0-7.466,5.864-9.541,8.517-4.356l21.36,45.429C637.819,836.998,630.28,845.088,626.65,837.621z M621.066,757.344
			c-7.26-0.622-7.539-13.69,0-13.69c4.327,0,9.493,1.037,9.493-7.054c0-4.147-2.233-7.053-4.887-7.053H609.06
			c-6.143,0-6.143-13.898,0-13.898h16.613c8.517,0,14.101,10.58,14.101,21.159c0,11.616-6.422,20.536-14.101,20.536
			C624.416,757.344,622.602,757.55,621.066,757.344z"/>
	</g>
	<g>
		<path style="fill:#272525;" d="M131.998,856.2c0-4.289,1.551-7.449,3.516-7.449h48.3c1.862,0,3.31,3.16,3.31,7.449
			c0,4.062-1.448,7.449-3.31,7.449h-48.3C133.549,863.649,131.998,860.263,131.998,856.2z M131.998,886.447
			c0-4.288,1.551-7.674,3.516-7.674h17.169c1.965,0,3.517,3.386,3.517,7.674v120.314c0,4.289-1.551,7.675-3.517,7.675
			c-1.862,0-3.517-3.386-3.517-7.675V893.671h-13.652C133.549,893.671,131.998,890.511,131.998,886.447z M187.124,886.447
			c0,4.063-1.448,7.224-3.31,7.224h-13.859v113.091c0,4.289-1.551,7.675-3.517,7.675c-1.861,0-3.413-3.386-3.413-7.675V886.447
			c0-4.288,1.552-7.674,3.413-7.674h17.375C185.676,878.773,187.124,882.159,187.124,886.447z"/>
		<path style="fill:#272525;" d="M201.812,1014.437c-1.965,0-3.516-3.386-3.516-7.449V855.975c0-4.063,1.551-7.448,3.516-7.448
			c1.862,0,3.414,3.385,3.414,7.448v151.013C205.225,1011.051,203.673,1014.437,201.812,1014.437z M215.567,848.526
			c1.965,0,3.517,3.385,3.517,7.448v52.821h13.755v-52.821c0-4.063,1.551-7.448,3.517-7.448c1.861,0,3.413,3.385,3.413,7.448v60.495
			c0,4.063-1.552,7.45-3.413,7.45h-20.789c-1.862,0-3.413-3.387-3.413-7.45v-60.495
			C212.154,851.911,213.706,848.526,215.567,848.526z M236.356,1014.437c-1.965,0-3.517-3.386-3.517-7.449v-52.821h-13.755v52.821
			c0,4.063-1.551,7.449-3.517,7.449c-1.862,0-3.413-3.386-3.413-7.449v-60.496c0-4.062,1.551-7.447,3.413-7.447h20.789
			c1.861,0,3.413,3.386,3.413,7.447v60.496C239.769,1011.051,238.217,1014.437,236.356,1014.437z M250.111,848.526
			c1.965,0,3.517,3.385,3.517,7.448v151.013c0,4.063-1.551,7.449-3.517,7.449c-1.861,0-3.413-3.386-3.413-7.449V855.975
			C246.698,851.911,248.25,848.526,250.111,848.526z"/>
		<path style="fill:#272525;" d="M265.835,1014.54c-1.655-1.777-2.586-5.997-1.965-9.772l28.235-151.465
			c0.724-3.998,2.792-5.773,4.447-4.219c1.034,0.666,1.655,2.442,1.965,4.219l28.132,151.465c0.724,3.775-0.104,7.995-1.862,9.772
			c-1.758,1.333-3.827-0.444-4.551-4.22l-24.925-134.809l-24.925,134.809C269.559,1014.096,267.593,1015.873,265.835,1014.54z
			 M280.728,1014.54c-1.758-1.777-2.585-5.997-1.861-9.772l2.482-13.547c0.621-2.665,1.965-4.664,3.207-4.664h21.409
			c1.551,0,2.896,2.442,3.31,5.331l2.482,12.88c0.621,3.775-0.104,7.995-1.862,9.772c-1.758,1.333-3.827-0.222-4.55-4.22
			l-1.655-8.661h-16.755l-1.758,8.661C284.555,1014.096,282.59,1015.873,280.728,1014.54z M286.83,964.348
			c0-4.22,1.552-7.329,3.413-7.329h4.964l-3.103-16.435c-0.621-3.776,0.207-8.218,1.862-9.55c1.861-1.554,3.827,0.223,4.55,3.776
			l5.068,26.649c0.207,0.89,0.311,1.777,0.311,2.888c0,4.219-1.655,7.551-3.62,7.551h-10.032
			C288.382,971.898,286.83,968.566,286.83,964.348z"/>
		<path style="fill:#272525;" d="M340.717,1014.663c-1.862,0-3.413-3.612-3.413-7.676V855.975c0-4.063,1.551-7.224,3.413-7.224
			c1.965,0,3.414,3.16,3.414,7.224v151.013C344.13,1011.051,342.682,1014.663,340.717,1014.663z M351.267,850.106
			c1.552-2.708,3.723-1.58,4.757,1.805l23.788,74.266v-70.202c0-4.063,1.655-7.224,3.517-7.224c1.861,0,3.413,3.16,3.413,7.224
			v93.903c0,2.483-0.517,4.966-1.551,6.32c-1.551,2.482-3.62,1.58-4.757-1.807l-29.994-93.902
			C349.301,856.877,349.715,852.363,351.267,850.106z M386.638,1013.308c-1.655,2.257-3.724,1.355-4.861-2.03l-23.789-74.267v69.977
			c0,4.063-1.551,7.449-3.516,7.449c-1.862,0-3.31-3.386-3.31-7.449v-93.903c0-2.483,0.414-4.74,1.448-6.095
			c1.448-2.709,3.724-1.806,4.758,1.807l30.096,93.902C388.5,1006.084,388.086,1010.599,386.638,1013.308z M397.084,1014.663
			c-1.862,0-3.413-3.612-3.413-7.676V855.975c0-4.063,1.551-7.224,3.413-7.224c1.965,0,3.517,3.16,3.517,7.224v151.013
			C400.601,1011.051,399.049,1014.663,397.084,1014.663z"/>
		<path style="fill:#272525;" d="M466.59,1015.71c-1.966,0-3.517-3.306-3.517-7.496V940.31l-23.581-80.469
			c-0.932-3.528-0.517-7.938,1.138-10.141c1.551-2.206,3.723-1.323,4.757,2.425l23.995,81.792c0.413,1.543,0.621,2.866,0.621,4.408
			v69.889C470.003,1012.404,468.451,1015.71,466.59,1015.71z M456.351,859.841c-1.035-3.747-0.518-8.157,1.24-10.141
			c1.552-2.206,3.724-1.103,4.654,2.425l11.17,40.346l11.17-40.346c1.034-3.527,3.207-4.631,4.758-2.425
			c1.655,1.983,2.172,6.394,1.241,10.141l-14.065,50.267c-1.552,5.73-4.654,5.289-6.206-0.221L456.351,859.841z M506.305,849.7
			c1.552,2.203,2.068,6.612,1.034,10.141l-23.478,80.469v67.904c0,4.19-1.654,7.496-3.517,7.496c-1.861,0-3.516-3.306-3.516-7.496
			v-69.667c0-1.321,0.206-2.864,0.517-4.19l24.201-82.231C502.582,848.377,504.65,847.494,506.305,849.7z"/>
		<path style="fill:#272525;" d="M585.945,916.123c-1.862,1.312-3.931-0.875-4.448-4.813c-2.172-14.001-6.309-26.032-11.997-34.781
			c-5.378-8.094-12.101-13.127-19.443-13.127c-43.129,0-43.129,136.943,0,136.943c7.343,0,14.065-4.812,19.443-13.126
			c5.688-8.531,9.825-20.562,11.997-34.781c0.518-3.938,2.586-5.906,4.448-4.813c1.861,1.094,2.792,5.468,2.274,9.406
			c-2.585,17.063-7.757,31.939-14.479,42.222c-6.723,10.062-14.789,16.188-23.684,16.188c-52.438,0-52.438-166.913,0-166.913
			c8.895,0,16.961,5.907,23.684,15.97c6.723,10.499,11.895,25.156,14.479,42.438C588.737,910.873,587.807,915.028,585.945,916.123z
			 M529.992,948.28c1.758-1.969,3.826-0.875,4.757,2.843c1.654,5.689,3.931,10.721,6.619,13.783c2.482,3.279,5.481,5.25,8.688,5.25
			c4.964,0,9.411-4.157,12.515-11.158c3.31-6.779,5.274-16.405,5.274-27.125c0-10.501-1.965-20.126-5.274-26.907
			c-3.104-6.781-7.551-11.156-12.515-11.156c-3.207,0-6.103,1.748-8.688,5.03c-2.688,3.281-4.965,8.095-6.619,13.783
			c-0.931,3.719-2.999,5.03-4.757,3.061c-1.655-1.967-2.275-6.562-1.241-10.279c2.172-8.096,5.274-14.876,8.997-19.471
			c3.724-4.594,7.964-7,12.309-7c6.93,0,13.135,5.906,17.685,15.531c4.345,9.625,7.137,22.752,7.137,37.408
			c0,14.658-2.792,27.783-7.137,37.407c-4.55,9.845-10.755,15.751-17.685,15.751c-4.345,0-8.585-2.625-12.309-7
			c-3.723-4.812-6.825-11.594-8.997-19.688C527.717,954.625,528.337,950.467,529.992,948.28z"/>
		<path style="fill:#272525;" d="M601.875,953.683v-97.968c0-4.271,1.551-7.642,3.413-7.642c1.965,0,3.517,3.371,3.517,7.642v97.968
			c0,62.916,44.369,62.916,44.369,0v-97.968c0-4.271,1.448-7.642,3.413-7.642c1.861,0,3.413,3.371,3.413,7.642v97.968
			C660,1036.146,601.875,1035.922,601.875,953.683z M616.044,855.715c0-4.271,1.552-7.642,3.413-7.642
			c1.965,0,3.517,3.371,3.517,7.642v96.17c0,23.818,16.03,23.818,16.03,0v-96.17c0-4.271,1.449-7.642,3.517-7.642
			c1.862,0,3.413,3.371,3.413,7.642v96.17c0,43.815-29.89,43.815-29.89,0V855.715z"/>
	</g>
</g>
<g id="Guides">
</g>
</svg>
