<?xml version="1.0" encoding="iso-8859-1"?>
<!-- Generator: Adobe Illustrator 15.1.0, SVG Export Plug-In . SVG Version: 6.00 Build 0)  -->
<!DOCTYPE svg PUBLIC "-//W3C//DTD SVG 1.1//EN" "http://www.w3.org/Graphics/SVG/1.1/DTD/svg11.dtd">
<svg version="1.1" xmlns="http://www.w3.org/2000/svg" xmlns:xlink="http://www.w3.org/1999/xlink" x="0px" y="0px" width="792px"
	 height="1224px" viewBox="0 0 792 1224" style="enable-background:new 0 0 792 1224;" xml:space="preserve">
<g id="Layer_1">
	<g>
		<path style="fill:#272525;" d="M202.981,246.128c3.274,11.061,4.911,22.923,4.911,35.589c0,15.433-2.316,31.05-6.95,46.855
			c-2.492,7.996-5.658,14.375-9.499,19.14c-3.84,4.763-8.093,8.118-12.757,10.06c-4.665,1.943-9.643,2.915-14.935,2.915
			c-5.395,0-12.273-1.14-20.633-3.419c-1.133,0-2.672,0.495-4.618,1.484c-1.946,0.991-3.393,1.486-4.34,1.486
			c-0.7,0-1.421-0.224-2.162-0.672c0.453-1.868,1.163-3.241,2.131-4.119c0.968-0.878,2.301-1.766,4-2.663
			c1.699-0.897,2.955-1.821,3.768-2.774c0.813-0.953,1.221-2.363,1.221-4.231V217.656c-0.104-3.063-1.494-4.596-4.17-4.596
			c-0.453,0-1.236,0.038-2.348,0.112c-1.112,0.075-2.06,0.111-2.842,0.111c-0.33-0.411-0.494-0.933-0.494-1.569
			c0-1.233,0.381-1.85,1.143-1.85c10.213-1.532,17.596-2.298,22.147-2.298c8.792,0,17.143,2.149,25.051,6.445
			c5.23,2.99,9.457,6.922,12.68,11.797C197.508,230.688,200.406,237.46,202.981,246.128z M194.888,247.978
			c-3.007-11.807-7.799-20.653-14.379-26.539c-6.579-5.884-13.73-8.827-21.452-8.827c-2.698,0-5.478,0.392-8.34,1.177
			l-0.124,135.633l1.019,2.746c4.757,1.233,9.267,1.85,13.529,1.85c5.807,0,11.017-1.654,15.63-4.96
			c4.613-3.307,8.474-9.07,11.583-17.291c1.524-4.296,2.816-8.948,3.877-13.956c1.06-5.007,1.858-10.228,2.394-15.666
			c0.536-5.436,0.803-10.863,0.803-16.281C199.429,272.339,197.915,259.71,194.888,247.978z"/>
		<path style="fill:#272525;" d="M281.036,246.801c2.183,11.358,3.275,22.774,3.275,34.245c0,8.482-0.618,16.795-1.854,24.94
			c-1.236,8.146-3.095,15.769-5.577,22.867c-2.482,7.1-5.524,13.358-9.129,18.776c-2.822,4.259-6.03,7.501-9.624,9.724
			c-3.594,2.224-7.265,3.335-11.014,3.335c-3.563,0-7.106-1.065-10.628-3.195c-6.504-4.147-11.527-11.909-15.068-23.287
			c-3.541-11.377-5.723-23.828-6.546-37.355c-0.083-1.382-0.124-3.363-0.124-5.941c0-10.873,1.019-21.559,3.056-32.059
			c2.038-10.5,5.039-19.905,9.001-28.22c3.963-8.313,8.62-14.619,13.972-18.916c3.192-2.915,6.57-4.372,10.134-4.372
			c6.694,0,13.398,4.896,20.113,14.684c2.678,3.887,4.752,7.613,6.226,11.181C278.724,236.778,279.986,241.308,281.036,246.801z
			 M275.943,321.903c3.046-11.134,4.569-21.783,4.569-31.947c0-13.078-2.409-26.921-7.224-41.53
			c-4.796-14.946-10.487-24.119-17.073-27.519c-2.614-1.382-5.27-2.074-7.965-2.074c-7.245,0-13.523,4.82-18.833,14.46
			c-5.99,10.873-8.984,25.707-8.984,44.501c0,13.04,1.472,25.894,4.415,38.56c2.264,9.304,5.681,16.786,10.25,22.446
			c4.569,5.662,9.632,8.753,15.189,9.276C262.327,348.077,270.879,339.353,275.943,321.903z"/>
		<path style="fill:#272525;" d="M369.842,211.715c-2.12,1.383-3.772,2.7-4.957,3.952c-1.185,1.252-2.013,3.222-2.486,5.912
			c-1.174,9.341-1.807,24.138-1.901,44.39c-0.092,20.252-0.344,35.319-0.756,45.202c-0.412,9.883-2.095,19.569-5.05,29.06
			c-2.955,9.492-7.892,15.769-14.811,18.832c-4.16,1.83-8.216,2.746-12.17,2.746c-11.059,0-19.316-7.715-24.773-23.147
			c-1.174-3.175-2.085-8.407-2.734-15.693c-0.648-7.286-1.076-15.608-1.282-24.969c-0.206-9.359-0.309-19.999-0.309-31.918v-23.596
			c0-4.446-0.077-9.331-0.231-14.656c-0.155-5.324-0.283-9.332-0.386-12.021c-0.021-1.084-0.283-1.774-0.787-2.074
			c-0.505-0.299-1.297-0.523-2.379-0.672c-1.081-0.148-1.899-0.429-2.456-0.841c-0.556-0.411-0.834-1.27-0.834-2.578l1.514-1.85
			l20.232-0.224c1.03,0,1.544,0.616,1.544,1.85c0,0.448-0.134,0.897-0.401,1.345c-0.577,0.972-1.725,1.542-3.444,1.709
			c-1.72,0.169-2.925,0.431-3.615,0.784c-0.689,0.356-1.034,1.523-1.034,3.504c-0.062,11.173-0.14,27.248-0.231,48.228
			c-0.093,20.98-0.14,38.569-0.14,52.768c0.062,8.743,1.586,16.245,4.572,22.502c2.985,6.259,6.898,10.621,11.738,13.087
			c3.81,1.981,7.104,2.97,9.884,2.97c5.024,0,9.699-3.063,14.023-9.191c4.263-5.829,7.114-12.367,8.557-19.617
			c1.44-7.248,2.305-16.776,2.595-28.583c0.081-3.662,0.124-9.789,0.124-18.383c0-10.797-0.078-21.466-0.232-32.002
			c-0.155-10.537-0.283-18.234-0.385-23.092c0-2.502-0.501-4.959-1.499-7.37c-0.999-2.409-2.147-4.007-3.444-4.792
			c-2.451,0-3.934-0.84-4.448-2.522c0.103-1.83,0.865-2.746,2.286-2.746c1.317,0,3.232-0.037,5.746-0.112
			c2.511-0.075,4.396-0.112,5.653-0.112c3.707,0,6.527,0.224,8.463,0.673L369.842,211.715z"/>
		<path style="fill:#272525;" d="M446.014,299.877c0,1.196-0.525,2.317-1.574,3.362c-1.051,1.046-1.669,2.206-1.854,3.475
			c-0.947,23.988-5.839,39.756-14.672,47.303c-5.931,4.896-11.667,7.342-17.205,7.342c-7.271,0-13.727-4.054-19.367-12.162
			c-9.433-13.375-14.148-32.283-14.148-56.719c0-6.053,0.247-12.386,0.742-19c0.967-14.572,3.912-27.275,8.835-38.112
			c4.92-10.835,10.965-18.962,18.131-24.38c2.842-2.278,6.125-3.419,9.854-3.419c3.912,0,9.308,1.606,16.186,4.82
			c0.844,0,1.679-0.308,2.502-0.925c0.824-0.616,1.472-0.925,1.946-0.925c0.576,0,0.864,0.692,0.864,2.074
			c0,2.129,0.189,5.67,0.572,10.62c0.38,4.951,0.571,8.903,0.571,11.854c0,2.99-0.206,5.53-0.617,7.623
			c-0.681-0.748-1.17-1.69-1.469-2.83c-0.298-1.14-0.637-2.793-1.02-4.96c-0.38-2.167-0.777-3.942-1.188-5.325
			c-3.46-11.321-9.36-16.981-17.699-16.981c-0.311,0-0.742,0.037-1.299,0.112c-0.555,0.076-0.967,0.112-1.235,0.112
			c-13.281,1.42-22.23,18.719-26.841,51.899c-1.092,7.884-1.637,15.992-1.637,24.324c0.061,12.33,1.41,23.707,4.046,34.132
			c2.636,10.424,6.6,19.411,11.893,26.958c3.377,4.26,7.217,6.389,11.521,6.389c2.903,0,6.105-0.989,9.606-2.97
			c3.727-2.092,6.733-5.707,9.02-10.846c2.285-5.137,3.583-11.312,3.892-18.522c0.041-1.233,0.154-3.055,0.341-5.465
			c0.185-2.409,0.276-4.194,0.276-5.352c0-4.596-0.967-7.585-2.902-8.968c-0.412-0.299-1.175-0.569-2.287-0.813
			c-1.111-0.242-1.955-0.645-2.532-1.205c-0.576-0.561-0.864-1.569-0.864-3.027c6.403,0,11.675-0.148,15.814-0.448
			c0.577,0,1.297-0.149,2.162-0.448C445.263,298.476,445.809,298.943,446.014,299.877z"/>
		<path style="fill:#272525;" d="M511.159,330.142v30.546h-58.071c-0.679-1.158-1.02-2.466-1.02-3.923
			c0-0.597,0.082-1.045,0.247-1.345c2.41-0.859,4.026-3.185,4.85-6.979c0.824-3.792,1.236-8.976,1.236-15.553
			c0-1.605-0.021-4.091-0.062-7.454c-0.043-3.363-0.062-5.848-0.062-7.455c0-15.581,0.015-33.292,0.046-53.132
			c0.031-19.841,0.057-34.805,0.078-44.894c0-1.793-0.175-3.063-0.526-3.812c-0.349-0.747-0.782-1.223-1.296-1.429
			c-0.516-0.205-1.093-0.438-1.729-0.7h-3.028c-1.008,0-1.513-0.617-1.513-1.85c0.124-2.429,1.009-3.811,2.656-4.147
			c1.708,0,4.2-0.075,7.476-0.224c3.273-0.148,5.755-0.224,7.443-0.224c2.78,0,5.354,0.299,7.723,0.897
			c-0.082,0.412-0.237,0.99-0.463,1.737c-0.228,0.748-0.494,1.327-0.804,1.737c-0.679,0.934-1.957,1.606-3.83,2.018
			c-1.875,0.412-3.203,0.868-3.985,1.374c-0.782,0.504-1.173,1.747-1.173,3.727v134.736h17.329c9.039,0,15.701-0.765,19.984-2.298
			c1.379-0.485,2.239-1.999,2.578-4.54c0.341-2.541,0.705-5.521,1.097-8.94c0.391-3.418,1.153-5.801,2.287-7.146
			c0.844-1.233,1.471-1.85,1.883-1.85L511.159,330.142z"/>
		<path style="fill:#272525;" d="M595.424,360.015c-0.475,0.336-1.921,0.551-4.34,0.644c-2.42,0.094-4.011,0.177-4.772,0.253
			c-5.993,0-9.535-0.149-10.626-0.449c0-1.681,0.258-2.802,0.771-3.362c0.516-0.561,1.276-1,2.286-1.317
			c1.009-0.317,1.721-0.757,2.132-1.317c1.091-1.345,1.636-3.326,1.636-5.941c0-1.269-0.118-2.559-0.354-3.867
			c-0.237-1.308-0.572-2.895-1.005-4.764c-0.432-1.868-0.741-3.363-0.926-4.483c-1.277-7.137-2.246-12.339-2.904-15.609
			c-0.659-3.27-1.544-6.698-2.656-10.285c-3.068,2.43-6.353,3.643-9.853,3.643c-4.882,0-9.226-2.446-13.036-7.342
			c-3.273-3.96-5.221-7.174-5.839-9.64c-0.349,1.495-1.286,5.689-2.81,12.583c-1.524,6.895-2.646,11.649-3.368,14.264
			c-0.061,0.261-0.478,1.989-1.25,5.185c-0.772,3.194-1.345,5.848-1.715,7.959c-0.371,2.111-0.565,4.156-0.587,6.136
			c0,3.363,0.463,6.502,1.391,9.417c0.267,0.784,0.649,1.336,1.144,1.652c0.494,0.318,1.173,0.626,2.038,0.926
			c0.864,0.299,1.499,0.653,1.899,1.064c0.401,0.412,0.603,1.121,0.603,2.129c0,0.71-0.123,1.551-0.371,2.522
			c-0.123,0.3-3.541,0.598-10.255,0.897c-7.495,0-11.377-0.449-11.646-1.345c0-1.606,0.232-2.634,0.695-3.083
			c0.463-0.449,1.221-0.821,2.271-1.121c1.051-0.299,1.751-0.748,2.101-1.345c2.224-4.035,4.135-8.453,5.729-13.254
			c1.597-4.802,2.854-9.21,3.77-13.228c0.915-4.017,2.166-9.948,3.752-17.795c1.585-7.847,2.862-13.75,3.831-17.71
			c-1.958-5.717-3.738-10.145-5.345-13.283c-1.606-3.138-3.706-4.988-6.301-5.549c-3.191,0-5.468,1.158-6.827,3.475
			c-1.338,2.43-2.007,6.707-2.007,12.834c0.062,0.785,0.309,2.159,0.741,4.119c0.432,1.962,0.647,3.355,0.647,4.176
			c0,0.822-0.298,1.345-0.895,1.569c-0.763,0-1.545-0.905-2.348-2.719c-0.804-1.812-1.37-3.727-1.7-5.744
			c-0.247-1.83-0.37-3.755-0.37-5.772c0.145-6.09,1.359-10.836,3.646-14.236c2.779-4.259,5.776-6.389,8.988-6.389
			c1.565,0,3.007,0.524,4.324,1.569c5.046,4.147,8.412,7.978,10.101,11.489c0.228-0.784,0.53-1.84,0.912-3.166
			c0.381-1.327,0.623-2.401,0.726-3.223c1.812-9.042,3.3-16.421,4.464-22.138c1.163-5.717,2.559-12.573,4.185-20.569
			c1.628-7.995,2.883-14.272,3.77-18.832c0.35-1.532,0.812-2.298,1.389-2.298c0.639,0,1.298,0.775,1.977,2.325
			c0.681,1.552,1.165,2.999,1.453,4.344c1.441,7.547,3.366,17.982,5.776,31.302c2.408,13.321,4.715,26.054,6.919,38.196
			c2.202,12.143,4.31,23.446,6.315,33.908c2.009,10.462,4.187,21.373,6.534,32.731c0.247,1.046,0.654,1.803,1.221,2.271
			c0.564,0.467,1.343,0.915,2.331,1.345c0.988,0.43,1.72,0.822,2.192,1.176c0.475,0.356,0.712,0.889,0.712,1.598
			C596.69,357.324,596.267,358.483,595.424,360.015z M573.028,301.894c-1.461-8.967-2.965-17.795-4.509-26.481
			c-1.545-8.688-3.142-17.59-4.789-26.707c-1.647-9.116-2.811-15.487-3.489-19.112c-2.41,9.268-5.993,26.566-10.749,51.899
			c2.408,6.053,4.55,10.761,6.425,14.124c1.873,3.363,4.201,5.997,6.98,7.902c1.317,0.934,2.708,1.401,4.169,1.401
			C569.455,304.921,571.444,303.912,573.028,301.894z"/>
		<path style="fill:#272525;" d="M659.95,311.814c0.081,1.046,0.124,2.728,0.124,5.044c0,14.312-3.583,25.632-10.749,33.964
			c-5.479,6.875-11.77,10.313-18.875,10.313c-6.773,0-12.716-3.288-17.821-9.864c-6.075-7.547-9.113-16.646-9.113-27.295
			c0-1.083,0.082-2.858,0.247-5.324c1.257-14.423,4.675-22.531,10.255-24.324c0.681-0.149,1.688-0.224,3.028-0.224
			c3.19,0,5.519,1.606,6.979,4.82c-0.555,0.636-1.512,0.99-2.871,1.065c-1.359,0.076-2.348,0.336-2.965,0.785
			c-5.397,4.111-8.094,12.835-8.094,26.174c0.349,12.106,3.973,20.513,10.872,25.221c3.954,2.915,7.753,4.372,11.398,4.372
			c4.509,0,8.638-2.522,12.387-7.566c5.909-8.107,8.865-16.758,8.865-25.95c0-1.045-0.083-2.653-0.247-4.82
			c-0.805-8.556-2.554-15.412-5.252-20.569c-2.697-5.156-6.271-9.556-10.718-13.199c-4.448-3.642-8.618-7.042-12.511-10.2
			c-3.892-3.157-7.053-6.716-9.482-10.677c-3.171-6.24-4.818-13.264-4.942-21.074c0-3.139,0.257-6.277,0.772-9.416
			c0.885-6.09,2.496-10.882,4.834-14.376s5.492-6.586,9.468-9.276c1.626-1.083,3.355-1.625,5.188-1.625
			c1.338,0,2.692,0.215,4.062,0.644c1.369,0.431,3.223,1.169,5.561,2.214c2.336,1.046,3.891,1.709,4.664,1.99
			c0.772,0.279,1.703,0.42,2.795,0.42c1.626,0,2.883-0.448,3.768-1.345c1.359,0,2.04,0.448,2.04,1.345
			c0.041,2.503,0.133,6.389,0.278,11.658c0.144,5.268,0.216,9.117,0.216,11.545c0,2.13-0.083,4.876-0.247,8.239
			c0,0.486-0.165,0.729-0.494,0.729c-0.865,0-1.463-1.083-1.793-3.251c-0.637-5.903-2.13-11.442-4.478-16.618
			c-2.348-5.174-5.065-8.659-8.154-10.453c-2.966-1.381-5.376-2.073-7.229-2.073c-3.852,0-7.177,2.223-9.978,6.669
			c-3.893,6.763-5.838,12.966-5.838,18.607c0,2.878,0.463,5.4,1.391,7.566c2.573,6.241,6.485,11.686,11.737,16.337
			c5.251,4.652,10.023,8.752,14.316,12.302c4.295,3.55,7.965,8.174,11.013,13.872C657.407,293.889,659.271,301.763,659.95,311.814z"
			/>
	</g>
	<g>
		<path style="fill:#272525;" d="M188.258,481.866c-1.198,5.562-3.02,10.779-5.467,15.651c-2.448,4.872-5.248,8.786-8.399,11.744
			c-3.152,2.959-6.322,4.562-9.509,4.81c-6.375,0-11.939-2.771-16.693-8.317c-4.754-5.543-8.673-13.648-11.754-24.312
			c-2.958-10.417-4.438-20.797-4.438-31.142c0-10.735,1.585-22.852,4.754-36.349c2.042-8.823,4.446-16.324,7.211-22.506
			c2.764-6.182,5.978-11.089,9.641-14.721c3.662-3.63,7.862-6.031,12.599-7.201c2.095,0,4.525,0.869,7.29,2.604
			c2.764,1.736,4.692,2.604,5.784,2.604c1.004,0,2.192-0.566,3.566-1.701c0.458-0.283,0.713-0.425,0.766-0.425
			c0.51,0,0.907,0.488,1.188,1.461c0.281,0.975,0.422,2.082,0.422,3.322c0,11.444,0.22,19.928,0.661,25.455
			c-0.106,1.028-0.326,1.541-0.661,1.541c-0.845,0-1.382-1.169-1.611-3.507c-0.317-3.721-1.026-7.414-2.126-11.081
			c-1.101-3.667-2.492-6.81-4.173-9.433c-1.682-2.622-3.438-4.339-5.27-5.155c-1.708-0.885-3.443-1.328-5.203-1.328
			c-7.079,0-13.603,7.546-19.572,22.639c-2.782,7.015-4.922,14.862-6.418,23.542c-1.497,8.681-2.245,17.449-2.245,26.306
			c0,16.971,2.456,31.549,7.369,43.737c4.613,11.763,10.847,17.643,18.7,17.643c1.743,0,3.689-0.353,5.837-1.062
			c3.416-1.488,6.59-4.571,9.521-9.247c2.933-4.676,5.279-10.168,7.04-16.474L188.258,481.866z"/>
		<path style="fill:#272525;" d="M250.592,406.297c1.867,10.771,2.801,21.594,2.801,32.47c0,8.043-0.529,15.925-1.585,23.648
			c-1.057,7.724-2.646,14.952-4.769,21.682c-2.122,6.731-4.724,12.667-7.806,17.803c-2.413,4.039-5.156,7.113-8.229,9.221
			c-3.073,2.108-6.212,3.162-9.417,3.162c-3.047,0-6.077-1.01-9.088-3.029c-5.562-3.933-9.857-11.293-12.885-22.082
			c-3.028-10.787-4.894-22.593-5.598-35.419c-0.07-1.31-0.105-3.188-0.105-5.633c0-10.309,0.871-20.441,2.614-30.397
			c1.742-9.955,4.308-18.875,7.696-26.757c3.389-7.882,7.371-13.861,11.947-17.936c2.73-2.764,5.619-4.145,8.666-4.145
			c5.724,0,11.457,4.642,17.199,13.923c2.29,3.686,4.064,7.219,5.324,10.603C248.615,396.793,249.694,401.089,250.592,406.297z
			 M246.236,477.508c2.605-10.557,3.907-20.654,3.907-30.292c0-12.4-2.06-25.526-6.177-39.379
			c-4.101-14.17-8.967-22.869-14.599-26.093c-2.235-1.31-4.506-1.966-6.811-1.966c-6.195,0-11.563,4.57-16.104,13.711
			c-5.122,10.31-7.682,24.375-7.682,42.195c0,12.364,1.258,24.552,3.775,36.562c1.936,8.821,4.858,15.916,8.765,21.283
			c3.907,5.368,8.237,8.299,12.989,8.795C234.594,502.326,241.907,494.054,246.236,477.508z"/>
		<path style="fill:#272525;" d="M326.53,373.03c-1.814,1.311-3.227,2.56-4.24,3.747c-1.012,1.187-1.721,3.055-2.125,5.606
			c-1.004,8.857-1.545,22.887-1.625,42.089c-0.079,19.203-0.295,33.489-0.647,42.86c-0.353,9.37-1.792,18.555-4.319,27.554
			c-2.527,9-6.748,14.952-12.665,17.856c-3.557,1.735-7.025,2.604-10.406,2.604c-9.456,0-16.518-7.315-21.184-21.948
			c-1.003-3.011-1.783-7.972-2.338-14.88c-0.554-6.909-0.92-14.8-1.096-23.676c-0.176-8.874-0.264-18.962-0.264-30.264v-22.373
			c0-4.216-0.066-8.848-0.198-13.897c-0.133-5.047-0.242-8.848-0.331-11.398c-0.018-1.028-0.242-1.682-0.673-1.966
			c-0.432-0.283-1.109-0.496-2.034-0.638c-0.924-0.141-1.624-0.406-2.1-0.797c-0.476-0.39-0.713-1.204-0.713-2.445l1.294-1.753
			l17.301-0.212c0.88,0,1.32,0.584,1.32,1.753c0,0.425-0.115,0.851-0.343,1.276c-0.493,0.921-1.475,1.461-2.945,1.62
			c-1.471,0.161-2.501,0.408-3.091,0.745s-0.885,1.443-0.885,3.322c-0.053,10.594-0.119,25.836-0.198,45.729
			c-0.08,19.893-0.119,36.571-0.119,50.033c0.053,8.291,1.356,15.402,3.909,21.337s5.899,10.07,10.037,12.409
			c3.258,1.878,6.075,2.816,8.452,2.816c4.296,0,8.293-2.904,11.992-8.715c3.645-5.526,6.083-11.726,7.316-18.6
			c1.232-6.873,1.972-15.908,2.219-27.103c0.07-3.472,0.105-9.281,0.105-17.431c0-10.237-0.066-20.353-0.198-30.344
			c-0.132-9.991-0.242-17.29-0.33-21.895c0-2.373-0.427-4.703-1.281-6.989c-0.854-2.284-1.836-3.799-2.945-4.543
			c-2.096,0-3.364-0.797-3.803-2.391c0.088-1.735,0.739-2.604,1.954-2.604c1.127,0,2.765-0.034,4.913-0.106
			c2.148-0.071,3.759-0.106,4.833-0.106c3.169,0,5.583,0.212,7.238,0.638L326.53,373.03z"/>
		<path style="fill:#272525;" d="M384.956,397.847c1.214,5.705,1.822,11.727,1.822,18.069c0,9.282-1.436,17.466-4.306,24.552
			c-2.271,5.917-4.904,10.522-7.897,13.817c-2.993,3.294-6.137,4.942-9.43,4.942c-2.113,0-4.384-0.797-6.814-2.392
			c-1.901-1.38-3.364-2.824-4.385-4.329c-1.021-1.504-1.761-3.761-2.219-6.772c-0.282-1.557-0.422-3.08-0.422-4.567
			c0-1.841,0.432-4.603,1.294-8.285c0.616-2.16,1.734-3.241,3.354-3.241c0.141,0.851,0.211,1.505,0.211,1.965
			c0,1.169-0.321,2.869-0.963,5.1c-0.643,2.23-0.964,4.071-0.964,5.522c0,1.169,0.07,2.036,0.211,2.603
			c1.074,6.268,3.777,9.4,8.109,9.4c1.197,0,2.676-0.371,4.438-1.115c3.521-1.558,6.387-4.673,8.597-9.347
			c2.209-4.673,3.526-10.41,3.949-17.208c0.211-3.222,0.317-6.409,0.317-9.56c0-14.551-2.553-25.58-7.66-33.086
			c-5.318-7.399-11.419-11.24-18.304-11.524c-1.11,0-3.126,0.301-6.049,0.902l0.106,128.823c0,2.302,0.383,3.631,1.148,3.984
			c0.767,0.354,2.241,0.779,4.424,1.275c2.184,0.497,3.355,1.417,3.513,2.762c0,2.763-0.616,4.144-1.849,4.144
			c-0.247,0-0.705-0.035-1.374-0.107c-0.669-0.07-1.215-0.106-1.638-0.106c-4.543,0.284-10.636,0.425-18.278,0.425
			c-0.159-0.284-0.238-0.709-0.238-1.274c0-0.992,0.221-2.045,0.661-3.161c0.44-1.115,0.836-1.673,1.189-1.673
			c1.549,0,2.984-0.602,4.305-1.806c1.321-1.205,1.98-3.206,1.98-6.004c0-5.843,0.014-21.798,0.04-47.863
			c0.026-26.066,0.044-39.329,0.053-39.789c0.008-0.459,0.013-10.837,0.013-31.131c0-2.337-0.282-3.939-0.846-4.807
			c-0.563-0.867-1.329-1.443-2.297-1.727c-2.095-0.822-3.368-1.474-3.817-1.957c-0.449-0.482-0.947-1.743-1.492-3.781
			c1.584-0.141,4.165-0.212,7.739-0.212c3.574,0,6.409-0.071,8.505-0.212c1.215-0.141,2.976-0.212,5.283-0.212
			c4.825,0,9.178,0.815,13.061,2.445s7.294,4.579,10.235,8.849C381.214,384.447,383.441,390.336,384.956,397.847z"/>
		<path style="fill:#272525;" d="M441.876,485.32v28.963h-49.657c-0.581-1.098-0.871-2.338-0.871-3.72
			c0-0.566,0.07-0.992,0.211-1.276c2.06-0.815,3.442-3.02,4.146-6.617c0.704-3.595,1.056-8.511,1.056-14.747
			c0-1.523-0.018-3.879-0.052-7.068c-0.036-3.188-0.053-5.544-0.053-7.067c0-14.774,0.013-31.567,0.04-50.379
			c0.026-18.812,0.048-33.002,0.065-42.567c0-1.7-0.149-2.905-0.449-3.614c-0.299-0.708-0.669-1.16-1.109-1.355
			c-0.44-0.194-0.933-0.416-1.479-0.665h-2.588c-0.863,0-1.294-0.584-1.294-1.753c0.105-2.303,0.862-3.614,2.271-3.933
			c1.461,0,3.592-0.071,6.392-0.212c2.8-0.141,4.922-0.212,6.365-0.212c2.378,0,4.579,0.284,6.604,0.85
			c-0.07,0.39-0.203,0.939-0.396,1.647c-0.194,0.709-0.423,1.257-0.688,1.647c-0.58,0.886-1.673,1.523-3.275,1.914
			s-2.737,0.823-3.407,1.302c-0.669,0.478-1.003,1.656-1.003,3.534v127.755h14.817c7.729,0,13.427-0.725,17.089-2.179
			c1.18-0.459,1.915-1.895,2.206-4.304c0.29-2.409,0.603-5.234,0.938-8.477c0.334-3.241,0.985-5.5,1.955-6.775
			c0.721-1.169,1.259-1.754,1.61-1.754L441.876,485.32z"/>
		<path style="fill:#272525;" d="M513.932,513.646c-0.406,0.319-1.643,0.522-3.712,0.61c-2.069,0.089-3.429,0.168-4.081,0.24
			c-5.124,0-8.152-0.142-9.086-0.425c0-1.595,0.22-2.657,0.66-3.188s1.092-0.947,1.955-1.249c0.862-0.301,1.471-0.718,1.822-1.25
			c0.934-1.275,1.399-3.153,1.399-5.632c0-1.205-0.102-2.427-0.304-3.667c-0.202-1.24-0.487-2.745-0.858-4.517
			c-0.369-1.771-0.634-3.188-0.791-4.251c-1.093-6.767-1.921-11.7-2.484-14.8c-0.563-3.1-1.319-6.351-2.271-9.752
			c-2.624,2.303-5.433,3.454-8.426,3.454c-4.174,0-7.889-2.32-11.146-6.961c-2.8-3.755-4.464-6.803-4.992-9.141
			c-0.3,1.417-1.101,5.394-2.403,11.93c-1.304,6.537-2.264,11.046-2.88,13.525c-0.052,0.248-0.409,1.887-1.069,4.917
			c-0.66,3.028-1.149,5.544-1.466,7.546c-0.317,2.001-0.484,3.941-0.502,5.819c0,3.188,0.396,6.164,1.189,8.928
			c0.228,0.744,0.554,1.267,0.977,1.567c0.423,0.302,1.004,0.594,1.743,0.877c0.74,0.284,1.281,0.62,1.624,1.01
			c0.344,0.39,0.516,1.062,0.516,2.019c0,0.673-0.105,1.471-0.316,2.392c-0.105,0.284-3.029,0.566-8.77,0.85
			c-6.41,0-9.729-0.425-9.958-1.275c0-1.523,0.198-2.498,0.595-2.923c0.396-0.425,1.043-0.779,1.941-1.062
			c0.897-0.284,1.496-0.709,1.796-1.276c1.901-3.826,3.535-8.015,4.899-12.568c1.364-4.552,2.439-8.733,3.223-12.542
			c0.783-3.808,1.853-9.433,3.209-16.873c1.355-7.44,2.447-13.038,3.275-16.793c-1.674-5.421-3.196-9.619-4.569-12.595
			c-1.374-2.976-3.17-4.73-5.389-5.261c-2.729,0-4.676,1.099-5.838,3.295c-1.145,2.304-1.716,6.36-1.716,12.17
			c0.053,0.744,0.264,2.046,0.634,3.905c0.37,1.861,0.554,3.181,0.554,3.96c0,0.779-0.255,1.275-0.766,1.487
			c-0.651,0-1.32-0.858-2.007-2.578c-0.687-1.717-1.172-3.534-1.453-5.447c-0.211-1.735-0.317-3.561-0.317-5.474
			c0.124-5.774,1.162-10.274,3.118-13.499c2.376-4.038,4.938-6.058,7.686-6.058c1.338,0,2.571,0.497,3.698,1.488
			c4.313,3.933,7.192,7.564,8.637,10.895c0.193-0.744,0.453-1.745,0.779-3.003c0.325-1.257,0.532-2.276,0.62-3.056
			c1.55-8.574,2.822-15.571,3.817-20.991c0.994-5.421,2.188-11.922,3.578-19.503c1.392-7.581,2.466-13.533,3.223-17.856
			c0.3-1.452,0.695-2.178,1.188-2.178c0.546,0,1.11,0.735,1.69,2.205c0.582,1.471,0.995,2.843,1.242,4.118
			c1.232,7.157,2.878,17.051,4.939,29.68c2.06,12.631,4.031,24.704,5.916,36.217c1.884,11.515,3.685,22.232,5.401,32.152
			s3.579,20.265,5.587,31.035c0.211,0.992,0.559,1.709,1.043,2.153c0.483,0.442,1.148,0.867,1.994,1.275
			c0.845,0.408,1.47,0.78,1.875,1.115c0.404,0.337,0.607,0.843,0.607,1.515C515.014,511.094,514.652,512.192,513.932,513.646z
			 M494.781,458.537c-1.25-8.503-2.535-16.874-3.856-25.11c-1.32-8.237-2.686-16.678-4.094-25.322
			c-1.409-8.644-2.403-14.685-2.984-18.122c-2.061,8.787-5.124,25.19-9.192,49.21c2.061,5.739,3.892,10.204,5.494,13.392
			s3.593,5.686,5.97,7.493c1.127,0.886,2.315,1.329,3.565,1.329C491.726,461.406,493.426,460.449,494.781,458.537z"/>
		<path style="fill:#272525;" d="M589.233,372.817c0,3.189-0.36,5.137-1.082,5.846c-0.739,0.673-1.585,1.249-2.536,1.728
			c-0.95,0.478-1.655,0.975-2.112,1.488c-0.458,0.514-0.854,1.408-1.188,2.683c-1.938,7.334-3.254,14.792-3.949,22.374
			c-0.696,7.581-1.043,16.084-1.043,25.508c0,2.657,0.035,7.652,0.105,14.986c0.07,7.333,0.105,13.729,0.105,19.185
			c0,6.13,0.062,11.939,0.185,17.431c0.123,5.492,0.309,11.842,0.555,19.051c0.247,7.21,0.396,11.666,0.449,13.366
			c0,1.31-0.432,1.966-1.294,1.966c-0.723,0-1.26-0.514-1.611-1.541c-2.554-9.141-5.771-19.92-9.654-32.337
			c-3.882-12.418-7.88-24.898-11.991-37.439c-4.111-12.542-7.832-23.729-11.159-33.56c-3.329-9.832-6.102-17.9-8.32-24.206
			c0.141,12.471,0.211,22.054,0.211,28.75c0,7.121-0.062,18.29-0.186,33.507c-0.123,15.216-0.201,27.041-0.237,35.473
			c0,0.921-0.018,2.374-0.053,4.357c-0.035,1.984-0.053,3.437-0.053,4.357c0,6.625,1.048,10.541,3.144,11.745
			c0.369,0.212,1.008,0.47,1.915,0.77c0.907,0.302,1.571,0.611,1.994,0.931c0.423,0.318,0.634,0.832,0.634,1.541
			c0,0.532-0.105,1.116-0.316,1.754c-0.617,1.736-2.176,2.604-4.676,2.604c-0.476,0-1.479-0.071-3.011-0.212
			c-1.532-0.142-2.905-0.212-4.121-0.212c-0.334,0-0.871,0.15-1.61,0.452c-0.74,0.301-1.321,0.451-1.744,0.451
			c-1.18,0-1.901-0.797-2.165-2.391c0-1.453,0.488-2.888,1.466-4.305c0.977-1.417,1.536-2.32,1.677-2.71
			c1.304-3.721,2.245-7.246,2.826-10.576c0.582-3.329,0.96-6.616,1.136-9.858c0.176-3.241,0.335-7.962,0.476-14.163
			c0.423-17.855,0.634-33.674,0.634-47.456c0-13.995-0.246-27.988-0.739-41.983c-0.247-2.445-1.03-3.888-2.352-4.331
			c-1.319-0.442-2.765-0.842-4.331-1.196c-1.567-0.354-2.482-1.417-2.747-3.188c0-1.948,0.757-3.26,2.272-3.933
			c0.527-0.177,1.319-0.504,2.376-0.983c1.057-0.477,1.915-0.832,2.576-1.062c0.659-0.23,1.324-0.345,1.993-0.345
			c1.885,0,3.47,1.382,4.755,4.145c3.769,9.035,7.298,17.971,10.592,26.81c3.292,8.841,6.383,17.636,9.271,26.386
			c2.888,8.751,5.824,18.148,8.809,28.192c2.985,10.044,6.194,21.23,9.628,33.56v-9.141c0-43.399,0.862-74.028,2.589-91.884
			c0.827-8.68,2.958-14.188,6.392-16.527c0.687-0.46,1.338-0.691,1.954-0.691C587.957,368.335,589.146,369.947,589.233,372.817z"/>
		<path style="fill:#272525;" d="M655.875,405.66c2.799,10.487,4.199,21.735,4.199,33.745c0,14.632-1.98,29.441-5.943,44.428
			c-2.131,7.582-4.837,13.63-8.122,18.148c-3.284,4.516-6.92,7.697-10.908,9.539c-3.988,1.842-8.245,2.764-12.771,2.764
			c-4.614,0-10.495-1.081-17.645-3.242c-0.969,0-2.284,0.47-3.948,1.408c-1.664,0.939-2.901,1.408-3.711,1.408
			c-0.599,0-1.216-0.212-1.85-0.637c0.388-1.772,0.995-3.073,1.823-3.906c0.827-0.833,1.968-1.674,3.42-2.525
			c1.453-0.85,2.526-1.727,3.223-2.63c0.696-0.903,1.043-2.24,1.043-4.013V378.663c-0.088-2.904-1.276-4.357-3.565-4.357
			c-0.387,0-1.057,0.036-2.007,0.106c-0.951,0.072-1.761,0.106-2.431,0.106c-0.281-0.389-0.422-0.885-0.422-1.488
			c0-1.169,0.325-1.754,0.978-1.754c8.732-1.453,15.046-2.179,18.938-2.179c7.519,0,14.659,2.038,21.421,6.111
			c4.473,2.836,8.086,6.564,10.843,11.187C651.195,391.019,653.673,397.44,655.875,405.66z M648.954,407.413
			c-2.571-11.194-6.669-19.583-12.295-25.163c-5.626-5.579-11.74-8.37-18.345-8.37c-2.307,0-4.684,0.372-7.131,1.116l-0.105,128.605
			l0.871,2.604c4.068,1.168,7.925,1.753,11.569,1.753c4.966,0,9.421-1.568,13.365-4.703c3.944-3.137,7.245-8.601,9.905-16.395
			c1.302-4.073,2.407-8.484,3.314-13.232c0.906-4.749,1.589-9.699,2.047-14.854c0.458-5.154,0.687-10.301,0.687-15.438
			C652.837,430.512,651.543,418.539,648.954,407.413z"/>
	</g>
	<g>
		<path style="fill:#272525;" d="M275.395,525.899c-5.832,2.023-9.818,6.558-11.956,13.602c-3.028,10.605-6.208,24.86-9.541,36.871
			c-3.333,12.009-6.708,24.301-10.123,36.873c-3.416,12.572-6.583,24.141-9.499,34.708c-2.916,10.566-5.596,20.143-8.04,28.722
			c-0.5,1.838-1.236,2.755-2.208,2.755c-0.445,0-0.736-0.3-0.875-0.899c-3.111-9.742-5.777-18.342-7.998-25.799
			c-1-3.486-2.326-8.544-3.979-15.177s-3.118-12.301-4.395-17.003c-1.278-4.701-2.639-9.171-4.083-13.406
			c-0.583,2.061-1.528,5.331-2.834,9.808c-1.307,4.479-3.099,10.644-5.378,18.493c-2.278,7.851-4.468,15.364-6.566,22.539
			c-2.098,7.176-4.008,13.781-5.731,19.812c-0.222,0.938-0.903,1.556-2.042,1.856c-0.5,0-0.834-0.226-1-0.676
			c-3.251-10.754-6.524-22.07-9.817-33.949c-3.294-11.879-6.482-23.823-9.568-35.832c-3.084-12.009-6.523-25.557-10.317-40.64
			c-3.793-15.082-6.538-28.888-8.233-35.52c-0.279-1.574-0.848-2.699-1.709-3.373c-0.862-0.674-1.994-1.255-3.397-1.743
			c-1.404-0.485-2.439-1.077-3.106-1.771c-0.667-0.692-1-1.845-1-3.456h29.379c0.194,0.262,0.382,0.506,0.563,0.73
			c0.18,0.225,0.326,0.477,0.437,0.759c0.111,0.28,0.167,0.702,0.167,1.264c-0.723,0.711-2.098,1.292-4.126,1.742
			c-2.028,0.45-3.521,0.947-4.479,1.49c-0.959,0.544-1.438,1.695-1.438,3.457c1.779,9.369,3.83,21.806,6.15,31.418
			c2.321,9.61,5.212,20.918,8.673,33.921c3.46,13.003,6.365,23.964,8.715,32.882c2.349,8.918,4.58,17.911,6.691,26.979
			c1.946-5.207,3.635-10.295,5.066-15.261c1.431-4.964,3.488-12.429,6.171-22.397c2.683-9.967,4.733-17.293,6.151-21.978
			c-1.027-4.234-2.692-9.873-4.995-16.918c-2.303-7.045-4.065-13.209-5.286-18.493s-1.942-11.279-2.164-17.987
			c0-6.595,1.886-12.197,5.66-16.806c2.886-3.521,6.229-5.284,10.031-5.284c2.664,0,5.965,1.068,9.905,3.204
			c3.191,1.799,5.23,4.628,6.118,8.487c0.693,2.774,1.041,5.621,1.041,8.543c0,4.534-0.611,9.274-1.832,14.221
			c-1.221,4.946-3.177,11.391-5.868,19.335c-2.692,7.943-4.162,12.328-4.412,13.152c5.666,21.772,11.873,43.58,18.622,65.427
			c3.221-11.467,5.991-21.265,8.31-29.398c2.319-8.129,4.784-16.955,7.395-26.473c2.61-9.518,5.083-19.027,7.416-28.526
			c2.332-9.5,4.401-21.769,6.207-30.912c0-6.745-1.25-10.118-3.75-10.118c-1.833-0.149-4-0.843-6.501-2.08
			c-0.556-0.486-0.833-1.255-0.833-2.305c0-1.199,0.569-1.892,1.709-2.079h26.795c1.806,0,2.708,0.693,2.708,2.079
			C276.395,525.524,276.062,525.899,275.395,525.899z M212.229,557.176c1.47-7.457,2.206-12.141,2.206-14.052
			c0-3.859-1.068-7.231-3.205-10.117c-2.053-2.773-4.273-4.16-6.659-4.16c-0.888,0-1.748,0.244-2.58,0.731
			c-3.274,1.424-4.911,5.096-4.911,11.016c0,1.05,0.111,2.511,0.333,4.384c2.441,15.663,5.229,27.487,8.366,35.467
			C208.885,570.778,211.036,563.021,212.229,557.176z"/>
		<path style="fill:#272525;" d="M373.866,562.415c2.945,11.647,4.418,23.353,4.418,35.113c0,8.699-0.834,17.223-2.501,25.576
			s-4.175,16.167-7.523,23.447c-3.349,7.28-7.454,13.698-12.316,19.252c-3.807,4.367-8.135,7.693-12.983,9.973
			c-4.849,2.278-9.802,3.418-14.859,3.418c-4.808,0-9.587-1.09-14.338-3.276c-8.776-4.251-15.552-12.211-20.329-23.878
			c-4.777-11.665-7.721-24.434-8.831-38.303c-0.111-1.417-0.167-3.448-0.167-6.093c0-11.147,1.375-22.105,4.124-32.873
			c2.75-10.765,6.797-20.41,12.144-28.936c5.346-8.523,11.628-14.989,18.849-19.395c4.307-2.989,8.864-4.483,13.672-4.483
			c9.031,0,18.076,5.02,27.135,15.057c3.612,3.986,6.412,7.807,8.399,11.465C370.747,552.138,372.449,556.783,373.866,562.415z
			 M366.995,639.425c4.11-11.418,6.165-22.336,6.165-32.758c0-13.41-3.25-27.604-9.747-42.586
			c-6.47-15.325-14.148-24.731-23.034-28.217c-3.526-1.417-7.108-2.126-10.746-2.126c-9.774,0-18.244,4.942-25.408,14.827
			c-8.081,11.149-12.12,26.361-12.12,45.632c0,13.372,1.985,26.55,5.956,39.539c3.054,9.54,7.664,17.212,13.828,23.016
			c6.164,5.805,12.996,8.978,20.492,9.512C348.626,666.263,360.164,657.317,366.995,639.425z"/>
		<path style="fill:#272525;" d="M477.133,667.871c-1.362,6.896-4.029,10.825-8.001,11.783c-2.057,0.306-3.599,0.459-4.626,0.459
			c-4.501,0-7.974-1.878-10.418-5.632c-3.668-5.518-6.896-12.575-9.689-21.179c-2.792-8.6-5.383-16.723-7.771-24.367
			c-2.39-7.643-5.369-14.252-8.938-19.826c-3.571-5.575-8.481-9.684-14.732-12.328c0.277-1.877,1.251-2.815,2.918-2.815
			c0.36,0,1,0.077,1.917,0.229c0.916,0.153,1.583,0.23,2,0.23c6.528,0,11.883-0.68,16.064-2.041
			c4.182-1.36,7.813-4.433,10.897-9.223c3.751-5.403,5.626-11.915,5.626-19.541c0-3.065-0.402-6.589-1.208-10.574
			c-1.251-6.474-3.751-11.713-7.502-15.719c-3.75-4.002-8.071-6.694-12.96-8.074c-2.39-0.805-6.544-1.207-12.462-1.207
			c-2.779,0-5.051,0.067-6.814,0.201c-1.765,0.134-3.078,0.239-3.939,0.316c0,62.605,0.335,108.658,1.004,138.158
			c0,1.688,0.306,3.325,0.917,4.914s1.334,2.614,2.167,3.074c0.5,0.153,1.285,0.327,2.355,0.518
			c1.068,0.192,1.917,0.499,2.541,0.919c0.626,0.422,1.049,1.131,1.271,2.126c-3.589,0.768-8.152,1.149-13.688,1.149
			c-1.419,0-3.909-0.038-7.47-0.114s-6.649-0.115-9.264-0.115c0.361-1.341,1.264-2.202,2.709-2.587
			c1.444-0.381,2.819-0.746,4.125-1.091c1.306-0.345,2.098-1.244,2.375-2.7c1.361-6.628,2.042-15.479,2.042-26.552v-15.114v-96.263
			c0-1.686-0.41-3.026-1.229-4.023c-0.82-0.996-2.008-2.011-3.563-3.046c-0.75-0.344-1.771-0.555-3.063-0.632
			c-1.291-0.076-2.146-0.172-2.562-0.287c-0.333,0-0.5-0.307-0.5-0.919c0-0.728,0.333-1.207,1-1.438
			c3.085,0,7.88-0.202,14.385-0.603c6.505-0.403,11.731-0.604,15.679-0.604c6.42,0,12.159,0.67,17.22,2.012
			c5.06,1.342,9.722,3.908,13.988,7.701c4.268,3.793,7.819,9.118,10.654,15.977c1.14,3.181,1.71,6.705,1.71,10.575
			c0,6.015-1.196,12.931-3.585,20.746c-5.724,10.689-15.738,17.586-30.046,20.689c5.89,5.517,9.752,9.367,11.585,11.553
			c3.167,3.716,5.646,8.016,7.439,12.901c1.791,4.886,3.556,11.033,5.292,18.447c1.735,7.413,3.396,13.391,4.98,17.933
			c1.582,4.539,3.931,8.743,7.042,12.613c0.917,0.957,1.778,1.436,2.584,1.436c2.723,0,5.167-2.355,7.334-7.068
			c0.556-1.378,0.834-2.95,0.834-4.712c0-3.908-1.195-7.834-3.584-11.781c0.194-0.229,0.513-0.364,0.959-0.402
			c0.443-0.038,0.749-0.133,0.915-0.287c2.278,3.832,3.419,7.835,3.419,12.012C477.467,665.555,477.354,666.952,477.133,667.871z"/>
		<path style="fill:#272525;" d="M575.314,669.998c-0.167,4.943-2.334,8.314-6.501,10.115c-0.918,0.498-2.404,0.748-4.46,0.748
			c-4.417-0.27-8.112-2.241-11.085-5.92c-6.862-8.659-12.488-18.218-16.878-28.678c-1.667-3.869-3.438-8.466-5.312-13.794
			c-1.875-5.324-3.653-10.669-5.334-16.033c-1.682-5.364-3.883-12.375-6.604-21.034l-12.961,22.125
			c0.056,11.265,0.09,20.786,0.104,28.564c0.013,7.777,0.09,15.038,0.229,21.779c0.25,1.688,0.91,2.788,1.979,3.307
			c1.069,0.516,2.743,1.149,5.021,1.896c2.278,0.747,3.417,1.523,3.417,2.327c0,1.034-0.972,2.452-2.917,4.254
			c-1.472-0.307-3.57-0.461-6.293-0.461c-1.582,0-3.89,0.115-6.916,0.346c-3.029,0.229-5.392,0.345-7.086,0.345
			c-1,0-3-0.153-6.001-0.461c-0.777-1.072-1.167-3.026-1.167-5.861c0.861-0.574,2.244-0.949,4.147-1.12
			c1.902-0.173,3.307-0.527,4.209-1.063c0.902-0.537,1.354-1.781,1.354-3.736l-0.334-130.858c0-4.253-1.083-6.379-3.25-6.379h-1.875
			c-1.029,0-1.828-0.374-2.396-1.121c-0.569-0.747-1.042-1.369-1.417-1.867c-0.375-0.498-0.716-1.102-1.021-1.811
			c-0.307-0.708-0.459-1.465-0.459-2.27c4.89-0.307,14.737-0.459,29.546-0.459c0.139,0.383,0.312,1.035,0.521,1.954
			c0.209,0.92,0.312,1.917,0.312,2.989c-1.028,1.877-3.014,2.816-5.959,2.816c-1.389,0-2.417,0.335-3.083,1.006
			c-0.667,0.67-1.001,2.232-1.001,4.683c0,7.97-0.006,19.205-0.021,33.707c-0.015,14.502-0.077,26.887-0.187,37.154l43.881-70.86
			c0.917-1.072,1.374-2.26,1.374-3.562c0-1.149-0.507-1.963-1.52-2.443c-1.015-0.478-2.528-0.861-4.543-1.149
			c-2.015-0.287-3.501-0.555-4.459-0.805c-0.959-0.248-1.66-0.737-2.104-1.465c0-1.111,0.215-2.136,0.646-3.074
			c0.432-0.938,0.896-1.485,1.396-1.638c1.194,0,3.598-0.038,7.209-0.115c3.612-0.077,6.391-0.115,8.335-0.115
			c8.64,0,12.961,0.555,12.961,1.667c0,1.647-0.383,2.749-1.147,3.305c-0.764,0.555-2.083,1.216-3.958,1.982
			c-1.876,0.767-3.188,1.667-3.938,2.701c-3.528,4.061-6.479,7.988-8.855,11.781c-2.375,3.793-6.278,10.287-11.71,19.482
			c-5.432,9.194-9.676,15.881-12.73,20.058c3.527,12.682,6.82,23.38,9.876,32.096c3.056,8.717,6.986,18.019,11.794,27.902
			c1.055,2.146,2.589,5.65,4.604,10.517c2.015,4.866,3.827,8.603,5.438,11.206c1.611,2.606,3.792,4.867,6.542,6.783
			c0.444,0.306,0.833,0.459,1.167,0.459c0.777,0,1.952-0.709,3.521-2.127c1.569-1.417,2.73-2.127,3.479-2.127
			C573.814,667.642,574.618,668.428,575.314,669.998z"/>
		<path style="fill:#272525;" d="M659.784,629.08c0.11,1.073,0.167,2.797,0.167,5.172c0,14.675-4.834,26.282-14.502,34.827
			c-7.392,7.05-15.878,10.575-25.463,10.575c-9.141,0-17.156-3.372-24.045-10.115c-8.196-7.739-12.294-17.07-12.294-27.987
			c0-1.111,0.111-2.932,0.334-5.46c1.694-14.789,6.306-23.104,13.835-24.942c0.917-0.153,2.278-0.23,4.084-0.23
			c4.307,0,7.445,1.647,9.418,4.942c-0.75,0.652-2.041,1.017-3.875,1.093c-1.834,0.077-3.167,0.345-4.001,0.804
			c-7.279,4.217-10.919,13.161-10.919,26.839c0.473,12.413,5.362,21.035,14.669,25.862c5.334,2.988,10.46,4.482,15.378,4.482
			c6.084,0,11.653-2.586,16.711-7.76c7.973-8.312,11.96-17.183,11.96-26.607c0-1.072-0.111-2.72-0.334-4.942
			c-1.083-8.774-3.444-15.805-7.084-21.093c-3.64-5.287-8.46-9.797-14.461-13.534c-6.001-3.734-11.626-7.221-16.877-10.459
			c-5.251-3.237-9.516-6.886-12.794-10.948c-4.278-6.396-6.501-13.6-6.668-21.608c0-3.218,0.348-6.437,1.043-9.654
			c1.194-6.245,3.368-11.158,6.521-14.741c3.152-3.583,7.41-6.753,12.771-9.512c2.195-1.111,4.529-1.667,7.002-1.667
			c1.806,0,3.633,0.22,5.48,0.66c1.847,0.441,4.348,1.198,7.501,2.271c3.152,1.073,5.251,1.752,6.292,2.041
			c1.042,0.286,2.299,0.43,3.771,0.43c2.195,0,3.89-0.459,5.084-1.379c1.834,0,2.751,0.459,2.751,1.379
			c0.056,2.567,0.18,6.552,0.375,11.954c0.193,5.402,0.292,9.348,0.292,11.839c0,2.183-0.111,5-0.334,8.448
			c0,0.498-0.222,0.747-0.667,0.747c-1.167,0-1.972-1.111-2.417-3.333c-0.861-6.053-2.875-11.733-6.042-17.04
			c-3.167-5.306-6.834-8.879-11.001-10.718c-4.001-1.417-7.253-2.127-9.753-2.127c-5.195,0-9.682,2.28-13.46,6.839
			c-5.25,6.935-7.877,13.295-7.877,19.08c0,2.951,0.626,5.537,1.876,7.758c3.473,6.4,8.752,11.983,15.836,16.752
			c7.085,4.771,13.523,8.976,19.315,12.615c5.793,3.641,10.744,8.383,14.856,14.225C656.353,610.699,658.866,618.773,659.784,629.08
			z"/>
	</g>
	<g>
		<path style="fill:#272525;" d="M219.225,693.062c-0.329,0.445-1.511,0.836-3.548,1.169c-2.038,0.336-3.63,0.808-4.778,1.422
			c-1.147,0.612-1.721,1.811-1.721,3.594v130.323c0,1.226,0.322,2.116,0.966,2.674s1.604,1.068,2.881,1.532
			c1.276,0.466,2.201,0.883,2.776,1.254c0.573,0.371,0.86,1.06,0.86,2.061c0,1.042-0.246,2.025-0.738,2.954h-24.45
			c-0.492,0-0.737-0.371-0.737-1.114s0.199-1.43,0.597-2.062c0.257-0.11,1.481-0.446,3.671-1.001c2.189-0.56,3.799-1.291,4.83-2.202
			c1.031-0.909,1.546-2.368,1.546-4.374l0.176-75.72h-51.114v74.828c0,1.302,0.234,2.211,0.703,2.73s1.259,0.985,2.371,1.394
			c1.113,0.408,2.084,0.909,2.917,1.504c0.831,0.595,1.527,1.616,2.09,3.063c0,0.559-0.182,1.097-0.544,1.617
			c-0.363,0.52-0.662,0.892-0.896,1.114h-24.484c-0.399-0.595-0.598-1.281-0.598-2.062c0-0.965,0.246-1.801,0.738-2.507
			c0.562-1.114,1.879-1.866,3.952-2.257c2.072-0.389,3.466-0.761,4.18-1.114c0.714-0.352,1.072-1.512,1.072-3.482l0.423-128.483
			c0-1.412-0.334-2.472-1.002-3.177s-1.646-1.448-2.934-2.229c-1.288-0.779-2.271-1.644-2.952-2.592
			c-0.679-0.946-1.019-2.312-1.019-4.094h24.765c0.68,1.337,1.021,2.562,1.021,3.677c-0.515,1.412-1.195,2.341-2.038,2.786
			c-0.844,0.446-2.027,0.854-3.549,1.226c-1.523,0.372-2.629,0.846-3.32,1.42c-0.69,0.577-1.036,1.645-1.036,3.205l-0.141,47.249
			h51.536v-48.866c0-1.634-0.369-2.665-1.106-3.091c-0.737-0.427-2.084-1.003-4.04-1.729c-1.956-0.724-2.934-1.549-2.934-2.478
			c0-0.669,0.433-1.729,1.3-3.177h23.186c0.352,0.111,0.679,0.539,0.984,1.28c0.304,0.745,0.457,1.543,0.457,2.397
			C219.541,692.318,219.436,692.764,219.225,693.062z"/>
		<path style="fill:#272525;" d="M314.356,839.375c-0.54,0.335-2.185,0.549-4.936,0.642c-2.752,0.092-4.562,0.176-5.428,0.25
			c-6.815,0-10.843-0.148-12.084-0.445c0-1.672,0.292-2.786,0.878-3.344c0.585-0.557,1.452-0.993,2.6-1.309
			c1.147-0.314,1.955-0.754,2.424-1.309c1.241-1.338,1.862-3.306,1.862-5.907c0-1.262-0.135-2.544-0.404-3.845
			c-0.269-1.3-0.649-2.878-1.141-4.735c-0.492-1.857-0.844-3.343-1.054-4.457c-1.453-7.095-2.553-12.267-3.302-15.518
			c-0.75-3.251-1.756-6.659-3.021-10.225c-3.49,2.416-7.225,3.621-11.207,3.621c-5.55,0-10.492-2.432-14.825-7.298
			c-3.723-3.938-5.937-7.132-6.639-9.583c-0.399,1.485-1.464,5.655-3.197,12.507c-1.733,6.854-3.01,11.581-3.829,14.181
			c-0.07,0.26-0.545,1.978-1.423,5.154c-0.878,3.175-1.528,5.814-1.95,7.912c-0.422,2.099-0.645,4.132-0.667,6.101
			c0,3.344,0.527,6.464,1.581,9.36c0.304,0.78,0.738,1.329,1.299,1.644c0.562,0.316,1.335,0.622,2.319,0.919
			c0.984,0.298,1.704,0.651,2.16,1.06c0.457,0.409,0.685,1.115,0.685,2.116c0,0.707-0.141,1.542-0.421,2.508
			c-0.141,0.298-4.028,0.595-11.663,0.892c-8.525,0-12.94-0.445-13.244-1.337c0-1.598,0.263-2.618,0.791-3.063
			c0.526-0.446,1.388-0.817,2.582-1.115c1.194-0.297,1.99-0.742,2.389-1.337c2.529-4.011,4.701-8.405,6.516-13.177
			c1.815-4.772,3.244-9.157,4.286-13.15c1.042-3.992,2.465-9.891,4.269-17.69c1.803-7.801,3.255-13.669,4.355-17.606
			c-2.225-5.683-4.25-10.085-6.077-13.205s-4.215-4.958-7.167-5.517c-3.63,0-6.218,1.152-7.763,3.455
			c-1.523,2.415-2.284,6.668-2.284,12.76c0.07,0.78,0.351,2.145,0.843,4.095c0.492,1.95,0.737,3.334,0.737,4.15
			c0,0.817-0.339,1.338-1.019,1.561c-0.866,0-1.757-0.9-2.67-2.702c-0.914-1.801-1.558-3.706-1.932-5.712
			c-0.281-1.818-0.421-3.732-0.421-5.738c0.164-6.055,1.546-10.772,4.146-14.151c3.162-4.235,6.569-6.353,10.223-6.353
			c1.779,0,3.419,0.521,4.918,1.561c5.738,4.123,9.567,7.931,11.487,11.422c0.258-0.781,0.603-1.83,1.037-3.147
			c0.433-1.318,0.708-2.386,0.825-3.205c2.061-8.988,3.752-16.324,5.077-22.008c1.323-5.684,2.909-12.499,4.76-20.447
			c1.85-7.949,3.279-14.189,4.286-18.722c0.398-1.522,0.925-2.285,1.581-2.285c0.726,0,1.475,0.771,2.248,2.312
			c0.773,1.543,1.323,2.981,1.651,4.318c1.64,7.505,3.829,17.877,6.569,31.119s5.363,25.9,7.869,37.971
			c2.506,12.073,4.901,23.31,7.184,33.709c2.284,10.401,4.761,21.247,7.43,32.54c0.281,1.04,0.744,1.792,1.388,2.257
			c0.643,0.465,1.528,0.911,2.652,1.337c1.124,0.427,1.955,0.817,2.495,1.17c0.538,0.354,0.808,0.882,0.808,1.588
			C315.796,836.701,315.315,837.853,314.356,839.375z M288.887,781.596c-1.664-8.915-3.373-17.689-5.129-26.325
			c-1.757-8.638-3.572-17.487-5.445-26.55c-1.874-9.064-3.197-15.396-3.97-18.999c-2.74,9.211-6.815,26.408-12.225,51.593
			c2.74,6.018,5.176,10.698,7.307,14.04c2.131,3.344,4.777,5.963,7.939,7.857c1.499,0.929,3.079,1.394,4.742,1.394
			C284.823,784.605,287.083,783.602,288.887,781.596z"/>
		<path style="fill:#272525;" d="M400.107,829.067c-1.149,6.686-3.397,10.493-6.746,11.423c-1.733,0.297-3.033,0.445-3.898,0.445
			c-3.794,0-6.723-1.82-8.783-5.461c-3.091-5.348-5.814-12.192-8.168-20.531c-2.353-8.339-4.537-16.213-6.551-23.625
			c-2.015-7.41-4.526-13.817-7.535-19.222c-3.01-5.405-7.149-9.389-12.418-11.952c0.233-1.82,1.054-2.729,2.459-2.729
			c0.304,0,0.843,0.074,1.616,0.223c0.772,0.149,1.334,0.224,1.686,0.224c5.503,0,10.018-0.659,13.542-1.979
			c3.524-1.318,6.586-4.299,9.186-8.941c3.162-5.24,4.743-11.553,4.743-18.944c0-2.972-0.339-6.39-1.019-10.253
			c-1.054-6.276-3.162-11.357-6.324-15.239c-3.161-3.881-6.803-6.491-10.925-7.828c-2.015-0.779-5.517-1.17-10.506-1.17
			c-2.342,0-4.257,0.065-5.744,0.194c-1.488,0.131-2.595,0.234-3.321,0.307c0,60.696,0.282,105.345,0.846,133.945
			c0,1.636,0.258,3.224,0.773,4.765c0.515,1.541,1.125,2.534,1.827,2.979c0.422,0.149,1.083,0.317,1.985,0.501
			c0.901,0.188,1.616,0.484,2.143,0.892c0.527,0.41,0.884,1.097,1.071,2.062c-3.025,0.743-6.872,1.114-11.538,1.114
			c-1.196,0-3.295-0.037-6.297-0.111c-3.002-0.074-5.605-0.111-7.809-0.111c0.304-1.3,1.065-2.135,2.283-2.508
			c1.217-0.37,2.377-0.724,3.478-1.059c1.101-0.334,1.769-1.206,2.002-2.617c1.147-6.426,1.722-15.007,1.722-25.743v-14.653v-93.326
			c0-1.635-0.346-2.935-1.036-3.901c-0.691-0.965-1.692-1.949-3.004-2.952c-0.632-0.334-1.493-0.538-2.582-0.613
			c-1.089-0.073-1.809-0.167-2.161-0.278c-0.281,0-0.421-0.297-0.421-0.892c0-0.706,0.281-1.169,0.844-1.392
			c2.601,0,6.643-0.197,12.126-0.586c5.483-0.392,9.889-0.585,13.216-0.585c5.412,0,10.251,0.65,14.516,1.949
			c4.265,1.302,8.196,3.789,11.793,7.467c3.596,3.676,6.59,8.841,8.98,15.489c0.961,3.083,1.441,6.501,1.441,10.251
			c0,5.834-1.008,12.537-3.022,20.115c-4.824,10.362-13.267,17.05-25.328,20.059c4.965,5.349,8.22,9.081,9.766,11.199
			c2.67,3.604,4.76,7.772,6.271,12.508c1.51,4.736,2.997,10.698,4.461,17.886s2.863,12.982,4.198,17.384
			c1.334,4.401,3.314,8.478,5.938,12.229c0.772,0.929,1.499,1.393,2.177,1.393c2.295,0,4.355-2.284,6.182-6.852
			c0.469-1.338,0.703-2.86,0.703-4.569c0-3.789-1.006-7.596-3.021-11.422c0.163-0.223,0.433-0.354,0.808-0.391
			c0.375-0.037,0.632-0.13,0.771-0.278c1.921,3.715,2.883,7.596,2.883,11.646C400.389,826.82,400.294,828.176,400.107,829.067z"/>
		<path style="fill:#272525;" d="M489.055,726.157c3.724,10.994,5.585,22.79,5.585,35.38c0,15.342-2.634,30.869-7.904,46.58
			c-2.833,7.95-6.434,14.291-10.802,19.028c-4.368,4.735-9.204,8.069-14.508,10.001c-5.306,1.932-10.968,2.897-16.986,2.897
			c-6.136,0-13.958-1.132-23.467-3.399c-1.287,0-3.038,0.493-5.251,1.478c-2.214,0.984-3.859,1.477-4.935,1.477
			c-0.799,0-1.618-0.224-2.461-0.669c0.516-1.857,1.324-3.223,2.424-4.095c1.102-0.872,2.618-1.757,4.55-2.647
			c1.933-0.892,3.36-1.81,4.285-2.758c0.927-0.946,1.388-2.349,1.388-4.206V697.853c-0.116-3.045-1.697-4.568-4.742-4.568
			c-0.515,0-1.404,0.037-2.67,0.111c-1.265,0.074-2.341,0.111-3.231,0.111c-0.375-0.408-0.562-0.929-0.562-1.56
			c0-1.227,0.434-1.838,1.301-1.838c11.615-1.523,20.012-2.285,25.188-2.285c10,0,19.497,2.136,28.49,6.406
			c5.948,2.973,10.755,6.883,14.42,11.729C482.831,710.808,486.126,717.539,489.055,726.157z M479.851,727.997
			c-3.42-11.738-8.87-20.533-16.353-26.384c-7.483-5.85-15.615-8.774-24.398-8.774c-3.068,0-6.23,0.391-9.484,1.169l-0.141,134.837
			l1.159,2.729c5.41,1.227,10.539,1.84,15.387,1.84c6.604,0,12.529-1.645,17.776-4.931c5.246-3.289,9.637-9.018,13.173-17.189
			c1.733-4.271,3.202-8.896,4.409-13.875c1.205-4.976,2.113-10.167,2.722-15.572c0.609-5.403,0.913-10.799,0.913-16.185
			C485.014,752.216,483.294,739.66,479.851,727.997z"/>
		<path style="fill:#272525;" d="M575.508,808.786c0.305,4.198,0.457,9.213,0.457,15.045c0,7.02-0.294,12.35-0.879,15.99
			c-7.564,0-13.706-0.018-18.425-0.057c-4.72-0.035-9.445-0.072-14.175-0.109c-4.731-0.038-10.844-0.057-18.337-0.057
			c-4.334,0-10.997,0.148-19.99,0.445c-0.491-0.371-0.738-0.983-0.738-1.84c0-0.593,0.095-1.038,0.281-1.337
			c0.398-0.481,1.465-0.724,3.197-0.724c1.522,0,2.576-0.446,3.162-1.337c0.796-1.115,1.305-1.997,1.528-2.646
			c0.223-0.649,0.333-1.902,0.333-3.762l0.142-130.101c0-2.153-0.457-3.574-1.371-4.262c-0.913-0.687-2.271-1.066-4.075-1.143
			c-1.803-0.073-3.009-0.241-3.618-0.501c-0.867,0-1.3-0.837-1.3-2.507c0-1.3,0.433-2.062,1.3-2.285
			c3.56-0.148,9.075-0.223,16.546-0.223c8.829,0,21.112,0.148,36.851,0.446h8.924c0.047,2.525,0.129,6.008,0.246,10.446
			c0.116,4.439,0.176,7.736,0.176,9.891c0,1.969-0.095,4.922-0.281,8.858c-0.68-1.598-1.136-3.612-1.371-6.046
			c-0.233-2.433-0.644-4.132-1.229-5.098c-0.491-0.929-1.018-2.608-1.58-5.043c-0.562-2.432-1.142-4.225-1.738-5.376
			c-0.598-1.15-1.6-1.727-3.004-1.727l-36.711-0.446v53.211l38.15,0.223c1.406,0,2.523-0.809,3.354-2.425
			c0.832-1.614,1.658-4.113,2.478-7.495c0.82-3.378,1.265-5.18,1.335-5.403l1.02,2.73v17.606c0,4.979-0.281,8.934-0.844,11.868
			c-0.727-0.854-1.511-2.526-2.354-5.015c-0.844-2.489-1.58-4.327-2.214-5.517c-0.632-1.187-1.558-1.783-2.775-1.783l-38.29-0.223
			v83.967l42.893-0.446c3.067,0,5.41-1.56,7.025-4.68c1.617-3.12,2.869-7.429,3.76-12.927v-4.791
			C573.365,809.92,574.078,808.786,575.508,808.786z"/>
		<path style="fill:#272525;" d="M659.994,829.067c-1.148,6.686-3.396,10.493-6.744,11.423c-1.734,0.297-3.034,0.445-3.9,0.445
			c-3.794,0-6.722-1.82-8.782-5.461c-3.092-5.348-5.814-12.192-8.168-20.531c-2.353-8.339-4.538-16.213-6.552-23.625
			c-2.015-7.41-4.525-13.817-7.535-19.222c-3.01-5.405-7.148-9.389-12.417-11.952c0.232-1.82,1.052-2.729,2.458-2.729
			c0.304,0,0.843,0.074,1.616,0.223c0.772,0.149,1.334,0.224,1.687,0.224c5.503,0,10.018-0.659,13.542-1.979
			c3.523-1.318,6.587-4.299,9.187-8.941c3.161-5.24,4.741-11.553,4.741-18.944c0-2.972-0.339-6.39-1.018-10.253
			c-1.055-6.276-3.162-11.357-6.323-15.239c-3.162-3.881-6.805-6.491-10.926-7.828c-2.015-0.779-5.517-1.17-10.505-1.17
			c-2.343,0-4.258,0.065-5.745,0.194c-1.487,0.131-2.595,0.234-3.321,0.307c0,60.696,0.284,105.345,0.848,133.945
			c0,1.636,0.258,3.224,0.772,4.765s1.124,2.534,1.827,2.979c0.422,0.149,1.082,0.317,1.985,0.501
			c0.9,0.188,1.616,0.484,2.142,0.892c0.527,0.41,0.885,1.097,1.072,2.062c-3.026,0.743-6.872,1.114-11.538,1.114
			c-1.196,0-3.295-0.037-6.298-0.111c-3.001-0.074-5.604-0.111-7.809-0.111c0.304-1.3,1.064-2.135,2.282-2.508
			c1.218-0.37,2.378-0.724,3.479-1.059c1.102-0.334,1.768-1.206,2.002-2.617c1.147-6.426,1.722-15.007,1.722-25.743v-14.653v-93.326
			c0-1.635-0.345-2.935-1.036-3.901c-0.691-0.965-1.692-1.949-3.003-2.952c-0.633-0.334-1.493-0.538-2.583-0.613
			c-1.089-0.073-1.81-0.167-2.16-0.278c-0.281,0-0.422-0.297-0.422-0.892c0-0.706,0.281-1.169,0.844-1.392
			c2.602,0,6.644-0.197,12.127-0.586c5.483-0.392,9.888-0.585,13.216-0.585c5.413,0,10.251,0.65,14.517,1.949
			c4.265,1.302,8.195,3.789,11.792,7.467c3.598,3.676,6.592,8.841,8.981,15.489c0.961,3.083,1.441,6.501,1.441,10.251
			c0,5.834-1.008,12.537-3.021,20.115c-4.825,10.362-13.268,17.05-25.328,20.059c4.965,5.349,8.22,9.081,9.766,11.199
			c2.67,3.604,4.76,7.772,6.271,12.508c1.509,4.736,2.997,10.698,4.461,17.886c1.463,7.188,2.862,12.982,4.198,17.384
			c1.333,4.401,3.312,8.478,5.937,12.229c0.772,0.929,1.499,1.393,2.178,1.393c2.295,0,4.355-2.284,6.183-6.852
			c0.469-1.338,0.702-2.86,0.702-4.569c0-3.789-1.006-7.596-3.021-11.422c0.164-0.223,0.433-0.354,0.809-0.391
			c0.374-0.037,0.632-0.13,0.771-0.278c1.921,3.715,2.882,7.596,2.882,11.646C660.275,826.82,660.181,828.176,659.994,829.067z"/>
	</g>
	<g>
		<path style="fill:#272525;" d="M194.149,879.132c-0.125-0.763-0.503-3.418-1.132-7.969c-0.629-4.549-1.28-7.734-1.954-9.559
			c-0.674-1.824-1.784-3.219-3.329-4.18c-3.019-1.643-7.025-2.465-12.021-2.465c-1.617,0-3.387,0.052-5.31,0.15
			c-1.923,0.101-3.503,0.148-4.743,0.148v143.046c0.09,2.004,0.314,3.397,0.674,4.178c0.359,0.782,0.894,1.374,1.604,1.774
			c0.709,0.402,1.244,0.883,1.604,1.443c0.485,0.802,1.24,1.213,2.264,1.232c1.024,0.021,1.792,0.311,2.304,0.871
			c0.512,0.562,0.822,2.086,0.93,4.571c-2.12,0.48-4.357,0.721-6.711,0.721h-16.252c-0.215-0.48-0.323-0.961-0.323-1.443
			c0-0.883,0.404-2.445,1.213-4.69c0.467-1.242,1.478-1.942,3.032-2.105c1.554-0.158,2.628-0.438,3.221-0.84
			c0.593-0.4,0.898-1.884,0.917-4.45V855.259c-0.449,0-1.46-0.048-3.032-0.148c-1.573-0.099-3.167-0.15-4.784-0.15
			c-9.577,0-15.138,2.465-16.683,7.396c-0.18,0.641-0.643,3.888-1.388,9.739c-0.746,5.854-1.496,9.102-2.25,9.742
			c0.108-3.047,0.171-8.568,0.188-16.566c0.018-7.996,0.063-13.559,0.135-16.685c26.646,0,47.148,0.08,61.504,0.24
			c0.431,5.411,0.647,10.822,0.647,16.234c0,1.683-0.045,4.109-0.135,7.274C194.248,875.504,194.186,877.768,194.149,879.132z"/>
		<path style="fill:#272525;" d="M267,854.238c-0.252,0.48-1.159,0.903-2.722,1.261c-1.563,0.363-2.785,0.873-3.665,1.536
			c-0.881,0.66-1.321,1.953-1.321,3.879v140.637c0,1.323,0.247,2.285,0.741,2.887s1.231,1.152,2.21,1.652
			c0.979,0.502,1.689,0.952,2.129,1.354c0.44,0.401,0.66,1.144,0.66,2.225c0,1.124-0.188,2.186-0.566,3.188h-18.759
			c-0.377,0-0.566-0.401-0.566-1.203c0-0.801,0.152-1.542,0.458-2.225c0.198-0.119,1.137-0.482,2.817-1.081
			c1.68-0.604,2.915-1.394,3.706-2.377c0.791-0.981,1.186-2.556,1.186-4.72l0.135-81.714h-39.215v80.751
			c0,1.405,0.179,2.387,0.539,2.947c0.359,0.561,0.965,1.063,1.819,1.504c0.854,0.441,1.599,0.981,2.237,1.623
			c0.638,0.642,1.172,1.744,1.604,3.307c0,0.603-0.14,1.184-0.417,1.744c-0.279,0.562-0.508,0.963-0.688,1.203h-18.785
			c-0.306-0.642-0.459-1.383-0.459-2.226c0-1.041,0.188-1.944,0.566-2.706c0.431-1.202,1.442-2.014,3.032-2.435
			c1.59-0.421,2.659-0.821,3.207-1.202s0.822-1.633,0.822-3.76l0.325-138.652c0-1.523-0.256-2.666-0.769-3.428
			s-1.263-1.563-2.251-2.405s-1.743-1.773-2.265-2.797c-0.521-1.021-0.781-2.495-0.781-4.418h19
			c0.522,1.442,0.783,2.766,0.783,3.967c-0.396,1.524-0.917,2.526-1.564,3.007c-0.646,0.481-1.554,0.922-2.722,1.324
			c-1.168,0.399-2.018,0.912-2.547,1.532c-0.53,0.622-0.795,1.775-0.795,3.459l-0.107,50.987h39.539v-52.731
			c0-1.765-0.283-2.878-0.849-3.338c-0.566-0.46-1.599-1.082-3.099-1.864c-1.501-0.782-2.251-1.673-2.251-2.676
			c0-0.721,0.333-1.863,0.998-3.427h17.788c0.27,0.121,0.521,0.582,0.754,1.382c0.233,0.803,0.351,1.664,0.351,2.587
			C267.243,853.438,267.162,853.918,267,854.238z"/>
		<path style="fill:#272525;" d="M339.986,1012.135c-0.414,0.359-1.676,0.59-3.786,0.689c-2.111,0.1-3.5,0.19-4.164,0.271
			c-5.229,0-8.32-0.16-9.271-0.48c0-1.805,0.224-3.007,0.672-3.608c0.45-0.602,1.114-1.073,1.996-1.412
			c0.879-0.34,1.5-0.813,1.86-1.413c0.952-1.443,1.427-3.567,1.427-6.375c0-1.361-0.104-2.746-0.309-4.147
			c-0.207-1.404-0.499-3.106-0.877-5.111c-0.376-2.004-0.646-3.607-0.808-4.81c-1.114-7.656-1.959-13.237-2.534-16.745
			c-0.575-3.509-1.347-7.188-2.317-11.036c-2.677,2.607-5.543,3.91-8.598,3.91c-4.258,0-8.049-2.625-11.374-7.877
			c-2.857-4.249-4.555-7.695-5.094-10.341c-0.306,1.603-1.123,6.102-2.453,13.497c-1.33,7.396-2.309,12.497-2.938,15.303
			c-0.054,0.28-0.418,2.133-1.091,5.562c-0.674,3.426-1.172,6.274-1.496,8.539c-0.323,2.264-0.494,4.458-0.512,6.583
			c0,3.606,0.404,6.975,1.213,10.101c0.233,0.842,0.566,1.434,0.998,1.773c0.431,0.342,1.024,0.672,1.779,0.993
			c0.754,0.32,1.307,0.702,1.657,1.144c0.351,0.439,0.526,1.202,0.526,2.283c0,0.762-0.108,1.664-0.324,2.707
			c-0.107,0.319-3.09,0.64-8.948,0.961c-6.541,0-9.928-0.48-10.161-1.443c0-1.724,0.202-2.825,0.607-3.306
			c0.404-0.481,1.064-0.883,1.98-1.202c0.917-0.321,1.527-0.803,1.833-1.444c1.94-4.329,3.607-9.07,4.999-14.22
			c1.393-5.15,2.489-9.883,3.289-14.19c0.799-4.309,1.891-10.674,3.275-19.092c1.383-8.418,2.497-14.75,3.342-19
			c-1.708-6.132-3.261-10.883-4.663-14.249c-1.402-3.368-3.234-5.352-5.499-5.955c-2.785,0-4.77,1.245-5.956,3.729
			c-1.168,2.606-1.752,7.195-1.752,13.769c0.054,0.842,0.27,2.316,0.647,4.42c0.377,2.105,0.566,3.598,0.566,4.48
			c0,0.881-0.261,1.442-0.782,1.683c-0.665,0-1.348-0.972-2.048-2.916c-0.701-1.943-1.195-3.999-1.482-6.164
			c-0.215-1.963-0.323-4.027-0.323-6.192c0.125-6.534,1.186-11.624,3.18-15.272c2.426-4.569,5.04-6.854,7.843-6.854
			c1.365,0,2.623,0.56,3.773,1.683c4.402,4.449,7.34,8.56,8.813,12.327c0.198-0.843,0.462-1.976,0.795-3.397
			c0.332-1.423,0.543-2.576,0.633-3.458c1.581-9.7,2.879-17.617,3.895-23.75c1.015-6.133,2.232-13.487,3.652-22.066
			c1.419-8.577,2.516-15.312,3.288-20.203c0.305-1.643,0.709-2.466,1.213-2.466c0.557,0,1.132,0.832,1.725,2.496
			c0.593,1.664,1.015,3.215,1.267,4.657c1.257,8.1,2.938,19.294,5.04,33.583c2.101,14.291,4.114,27.95,6.037,40.977
			c1.922,13.029,3.76,25.154,5.511,36.379c1.752,11.223,3.652,22.928,5.701,35.113c0.215,1.123,0.571,1.934,1.065,2.437
			c0.493,0.502,1.172,0.982,2.034,1.442s1.5,0.882,1.913,1.263c0.414,0.381,0.621,0.952,0.621,1.713
			C341.092,1009.247,340.722,1010.49,339.986,1012.135z M320.446,949.78c-1.276-9.62-2.587-19.09-3.935-28.409
			c-1.348-9.32-2.74-18.871-4.177-28.651c-1.438-9.78-2.453-16.613-3.046-20.503c-2.102,9.941-5.229,28.5-9.379,55.678
			c2.102,6.493,3.971,11.544,5.605,15.151c1.635,3.608,3.666,6.435,6.091,8.479c1.15,1.002,2.362,1.505,3.639,1.505
			C317.329,953.029,319.062,951.945,320.446,949.78z"/>
		<path style="fill:#272525;" d="M416.826,854.516c0,3.568-0.368,5.75-1.104,6.543c-0.755,0.754-1.617,1.398-2.588,1.936
			c-0.97,0.534-1.688,1.091-2.156,1.665c-0.467,0.575-0.872,1.575-1.212,3.004c-1.978,8.213-3.32,16.561-4.03,25.052
			c-0.71,8.487-1.064,18.007-1.064,28.56c0,2.974,0.036,8.567,0.108,16.777c0.071,8.212,0.107,15.373,0.107,21.48
			c0,6.863,0.062,13.368,0.188,19.515c0.126,6.15,0.314,13.261,0.566,21.332c0.251,8.073,0.403,13.062,0.458,14.966
			c0,1.466-0.44,2.2-1.32,2.2c-0.737,0-1.285-0.576-1.645-1.725c-2.605-10.234-5.889-22.305-9.851-36.206
			c-3.961-13.902-8.041-27.876-12.236-41.919c-4.195-14.042-7.991-26.568-11.387-37.574c-3.396-11.007-6.226-20.041-8.49-27.102
			c0.144,13.963,0.216,24.691,0.216,32.188c0,7.974-0.063,20.479-0.189,37.516c-0.126,17.038-0.207,30.275-0.242,39.716
			c0,1.031-0.018,2.658-0.054,4.879c-0.036,2.221-0.054,3.849-0.054,4.88c0,7.417,1.069,11.801,3.208,13.149
			c0.377,0.238,1.028,0.525,1.954,0.862c0.926,0.338,1.604,0.684,2.036,1.043c0.431,0.354,0.646,0.931,0.646,1.724
			c0,0.597-0.107,1.249-0.323,1.963c-0.63,1.945-2.22,2.917-4.771,2.917c-0.485,0-1.509-0.079-3.072-0.237
			c-1.563-0.161-2.965-0.239-4.205-0.239c-0.341,0-0.889,0.168-1.644,0.506c-0.755,0.337-1.349,0.507-1.78,0.507
			c-1.204,0-1.94-0.894-2.209-2.68c0-1.625,0.498-3.23,1.496-4.819c0.997-1.585,1.568-2.598,1.711-3.033
			c1.33-4.165,2.292-8.111,2.884-11.84c0.593-3.729,0.979-7.409,1.159-11.038s0.341-8.914,0.485-15.856
			c0.431-19.992,0.647-37.704,0.647-53.134c0-15.669-0.251-31.337-0.755-47.006c-0.251-2.736-1.051-4.353-2.399-4.849
			c-1.347-0.498-2.821-0.943-4.42-1.339c-1.599-0.397-2.533-1.587-2.803-3.57c0-2.182,0.772-3.65,2.319-4.403
			c0.539-0.198,1.347-0.564,2.425-1.101c1.078-0.535,1.954-0.932,2.628-1.19c0.673-0.257,1.352-0.387,2.035-0.387
			c1.922,0,3.54,1.547,4.851,4.642c3.845,10.113,7.448,20.121,10.808,30.017c3.359,9.897,6.513,19.746,9.46,29.543
			s5.943,20.319,8.988,31.564c3.046,11.245,6.321,23.771,9.824,37.575v-10.234c0-48.593,0.881-82.885,2.642-102.877
			c0.845-9.717,3.019-15.885,6.522-18.504c0.701-0.516,1.365-0.775,1.994-0.775C415.523,849.498,416.736,851.302,416.826,854.516z"
			/>
		<path style="fill:#272525;" d="M518.058,856.223c0,2.285-0.287,3.827-0.862,4.63c-0.574,0.802-1.438,1.474-2.587,2.014
			c-1.15,0.542-1.913,1.192-2.292,1.954c-5.318,8.819-9.733,19.241-13.246,31.267c-3.514,12.025-6.101,24.983-7.763,38.873
			c-1.661,13.889-2.493,28.371-2.493,43.441c0,7.937,0.216,15.975,0.647,24.111c0.216,2.445,0.943,3.929,2.184,4.449
			c1.239,0.521,2.466,1.021,3.679,1.503c1.213,0.48,1.873,1.865,1.98,4.15c-1.186,0.32-2.92,0.48-5.201,0.48
			c-0.827,0-2.318-0.081-4.475-0.24c-2.156-0.161-4.007-0.24-5.552-0.24c-0.898,0-2.371,0.159-4.42,0.48
			c-2.462,0-3.792-1.062-3.988-3.188c0.232-1.481,1.41-2.225,3.53-2.225c1.545,0,2.775-0.331,3.692-0.991
			c0.916-0.661,1.491-2.216,1.725-4.66c0.593-8.258,0.89-16.234,0.89-23.931c0-10.103-0.449-20.213-1.348-30.335
			c-0.898-10.12-2.206-19.962-3.922-29.521c-1.716-9.562-3.769-18.771-6.158-27.631c-2.39-8.857-5.059-17.295-8.004-25.312
			c-1.025-2.767-2.346-4.147-3.963-4.147c-0.952,0-1.842,0.58-2.669,1.743c-0.557,0.681-0.97,1.613-1.238,2.796
			c-0.271,1.182-0.599,3.046-0.984,5.591c-0.387,2.546-0.714,4.319-0.983,5.321s-0.629,1.503-1.078,1.503
			c-0.09,0-0.352-0.159-0.782-0.48c0.071-5.292,0.359-9.911,0.862-13.858c0.503-3.948,1.501-7.366,2.992-10.253
			c2.03-3.929,3.943-5.893,5.74-5.893c1.061,0,1.986,0.642,2.776,1.925c4.438,6.895,7.856,14.932,10.256,24.111
			c2.397,9.181,5.412,22.988,9.042,41.427c0.359,1.925,0.853,4.941,1.482,9.05c0.628,4.109,1.275,7.487,1.94,10.132
			c1.581-8.3,3.216-16.724,4.904-25.283c1.689-8.56,3.454-16.396,5.297-23.512c1.842-7.114,4.064-13.808,6.67-20.082
			c2.605-6.272,5.598-11.474,8.976-15.603c0.432-0.32,0.764-0.48,0.998-0.48c0.808,0,1.594,0.69,2.357,2.074
			C517.434,852.765,517.896,854.38,518.058,856.223z"/>
		<path style="fill:#272525;" d="M582.418,890.676c1.906,12.186,2.858,24.433,2.858,36.737c0,9.101-0.539,18.019-1.617,26.758
			c-1.078,8.738-2.7,16.915-4.866,24.531c-2.165,7.617-4.82,14.331-7.965,20.143c-2.462,4.569-5.262,8.049-8.397,10.434
			c-3.136,2.384-6.34,3.577-9.609,3.577c-3.109,0-6.201-1.143-9.273-3.428c-5.676-4.449-10.059-12.776-13.147-24.983
			c-3.09-12.204-4.993-25.562-5.712-40.074c-0.072-1.482-0.108-3.607-0.108-6.375c0-11.663,0.89-23.127,2.668-34.393
			c1.777-11.263,4.396-21.354,7.853-30.273c3.458-8.919,7.521-15.683,12.191-20.293c2.785-3.126,5.732-4.69,8.842-4.69
			c5.842,0,11.691,5.251,17.55,15.754c2.337,4.168,4.147,8.168,5.433,11.994C580.401,879.923,581.502,884.783,582.418,890.676z
			 M577.975,971.246c2.658-11.944,3.986-23.368,3.986-34.272c0-14.029-2.102-28.88-6.303-44.553
			c-4.186-16.034-9.15-25.877-14.896-29.523c-2.281-1.484-4.599-2.224-6.951-2.224c-6.321,0-11.799,5.169-16.432,15.511
			c-5.227,11.666-7.84,27.579-7.84,47.743c0,13.989,1.285,27.777,3.853,41.367c1.976,9.979,4.957,18.008,8.944,24.08
			c3.986,6.073,8.404,9.391,13.253,9.95C566.095,999.325,573.557,989.966,577.975,971.246z"/>
		<path style="fill:#272525;" d="M659.906,853.036c-1.851,1.482-3.293,2.896-4.326,4.239s-1.756,3.456-2.169,6.344
			c-1.024,10.021-1.577,25.895-1.658,47.62c-0.08,21.726-0.301,37.89-0.66,48.493c-0.359,10.603-1.828,20.995-4.406,31.176
			c-2.578,10.183-6.887,16.917-12.924,20.202c-3.629,1.965-7.169,2.947-10.619,2.947c-9.648,0-16.854-8.276-21.615-24.834
			c-1.024-3.405-1.819-9.018-2.386-16.836c-0.565-7.814-0.938-16.744-1.118-26.786c-0.18-10.04-0.27-21.455-0.27-34.242v-25.314
			c0-4.769-0.067-10.009-0.202-15.723c-0.135-5.712-0.247-10.012-0.337-12.897c-0.018-1.162-0.247-1.903-0.687-2.225
			c-0.44-0.32-1.132-0.561-2.076-0.722c-0.942-0.16-1.657-0.46-2.143-0.902c-0.484-0.439-0.728-1.361-0.728-2.765l1.321-1.984
			l17.652-0.24c0.898,0,1.349,0.66,1.349,1.984c0,0.481-0.117,0.962-0.351,1.442c-0.503,1.043-1.505,1.653-3.005,1.834
			c-1.501,0.181-2.552,0.462-3.154,0.842c-0.602,0.382-0.902,1.633-0.902,3.758c-0.054,11.986-0.121,29.231-0.202,51.74
			s-0.121,41.377-0.121,56.61c0.054,9.38,1.383,17.427,3.988,24.141s6.02,11.396,10.242,14.04c3.324,2.125,6.199,3.187,8.625,3.187
			c4.384,0,8.463-3.286,12.235-9.86c3.72-6.254,6.208-13.269,7.467-21.045c1.257-7.777,2.012-17.999,2.264-30.665
			c0.071-3.928,0.107-10.503,0.107-19.722c0-11.585-0.067-23.03-0.202-34.334c-0.135-11.305-0.247-19.561-0.337-24.773
			c0-2.684-0.436-5.319-1.307-7.906c-0.872-2.584-1.874-4.299-3.005-5.141c-2.14,0-3.434-0.902-3.882-2.705
			c0.089-1.964,0.755-2.946,1.994-2.946c1.149,0,2.821-0.04,5.014-0.119c2.191-0.081,3.836-0.121,4.932-0.121
			c3.234,0,5.696,0.24,7.385,0.722L659.906,853.036z"/>
	</g>
</g>
<g id="Guides">
</g>
</svg>
