<?xml version="1.0" encoding="iso-8859-1"?>
<!-- Generator: Adobe Illustrator 15.1.0, SVG Export Plug-In . SVG Version: 6.00 Build 0)  -->
<!DOCTYPE svg PUBLIC "-//W3C//DTD SVG 1.1//EN" "http://www.w3.org/Graphics/SVG/1.1/DTD/svg11.dtd">
<svg version="1.1" xmlns="http://www.w3.org/2000/svg" xmlns:xlink="http://www.w3.org/1999/xlink" x="0px" y="0px" width="792px"
	 height="1224px" viewBox="0 0 792 1224" style="enable-background:new 0 0 792 1224;" xml:space="preserve">
<g id="Layer_1">
	<g>
		<path style="fill:#272525;" d="M131.999,361.111v-153.5h23.344c10.741,0,18.723,2.917,23.947,8.753
			c5.222,5.835,9.144,14.655,11.767,26.457c2.622,11.804,3.933,25.782,3.933,41.936c0,15.298-1.386,28.731-4.155,40.304
			c-2.771,11.572-6.692,20.473-11.767,26.704c-5.075,6.23-12.983,9.347-23.725,9.347H131.999z M144.812,344.198h8.549
			c8.654,0,14.829-2.408,18.523-7.226c3.694-4.817,6.332-11.498,7.916-20.044c1.583-8.546,2.375-20.342,2.375-35.388
			c0-14.716-0.929-26.034-2.786-33.952c-1.857-7.919-4.518-14.006-7.98-18.262c-3.462-4.255-9.141-6.385-17.034-6.385h-9.562
			V344.198z"/>
		<path style="fill:#272525;" d="M239.076,361.037c-11.165,0-19.696-6.916-25.596-20.752c-5.899-13.833-8.85-32.504-8.85-56.007
			c0-23.441,2.95-42.08,8.85-55.914c5.899-13.835,14.431-20.753,25.596-20.753c11.206,0,19.749,6.918,25.627,20.753
			c5.877,13.834,8.817,32.472,8.817,55.914c0,23.503-2.94,42.174-8.817,56.007C258.825,354.121,250.282,361.037,239.076,361.037z
			 M239.076,346.59c6.174,0,11.323-5.151,15.446-15.45c4.123-10.301,6.185-25.904,6.185-46.816c0-20.91-2.062-36.515-6.185-46.816
			c-4.124-10.298-9.272-15.449-15.446-15.449c-6.175,0-11.323,5.15-15.446,15.449c-4.124,10.301-6.185,25.906-6.185,46.816
			c0,20.912,2.062,36.516,6.185,46.816C227.753,341.439,232.901,346.59,239.076,346.59z"/>
		<path style="fill:#272525;" d="M286.081,207.611h12.814v97.774c0,12.858,0.707,21.637,2.121,26.338
			c1.414,4.702,3.589,8.285,6.523,10.747c2.934,2.463,6.196,3.694,9.784,3.694c3.8,0,7.188-1.327,10.164-3.982
			c2.976-2.653,5.171-6.812,6.585-12.474c1.415-5.662,2.122-16.295,2.122-31.904v-90.194h11.799v97.199
			c0,13.881-1.363,24.74-4.088,32.576c-2.726,7.836-6.285,13.737-10.678,17.702c-4.394,3.966-9.928,5.949-16.603,5.949
			c-6.168,0-11.597-1.728-16.286-5.181c-4.689-3.455-8.237-8.636-10.646-15.545c-2.409-6.908-3.612-19.382-3.612-37.421V207.611z"/>
		<path style="fill:#272525;" d="M425.066,356.864c-6.937,2.969-13.3,4.454-19.094,4.454c-8.205,0-15.509-2.97-21.917-8.909
			c-6.406-5.94-11.428-14.895-15.065-26.866c-3.638-11.971-5.455-25.504-5.455-40.601c0-14.909,1.776-28.304,5.329-40.183
			c3.552-11.878,8.563-20.88,15.034-27.004s13.575-9.188,21.314-9.188c5.836,0,12.433,1.998,19.791,5.993v17.075
			c-6.81-5.789-13.575-8.684-20.299-8.684c-5.075,0-9.716,2.539-13.924,7.616c-4.208,5.078-7.591,12.522-10.149,22.335
			c-2.559,9.814-3.837,20.541-3.837,32.179c0,15.603,2.432,29.812,7.295,42.628c4.862,12.816,12.538,19.224,23.026,19.224
			c1.354,0,3.066-0.153,5.139-0.464v-46.4h-9.832v-14.384h22.646V356.864z"/>
		<path style="fill:#272525;" d="M500.998,344.198v16.913h-53.095v-153.5h12.813v136.587H500.998z"/>
		<path style="fill:#272525;" d="M526.371,361.111h-12.306l30.344-153.5H557.4l30.503,153.5h-13.512l-6.721-33.727h-34.616
			L526.371,361.111z M536.087,312.054h28.723l-11.869-58.25l-2.751-15.585l-2.492,15.586L536.087,312.054z"/>
		<path style="fill:#272525;" d="M599.893,353.743v-17.708c10.121,7.146,19.316,10.719,27.583,10.719c3.458,0,6.769-0.98,9.932-2.94
			c3.163-1.961,5.557-4.775,7.181-8.447c1.623-3.672,2.437-7.655,2.437-11.949c0-5.04-1.117-9.754-3.35-14.142
			c-2.233-4.386-6.425-9.227-12.576-14.515l-6.425-5.464l-6.529-5.552c-11.534-10.003-17.301-22.441-17.301-37.316
			c0-10.89,2.569-20.055,7.707-27.491c5.139-7.436,13.163-11.156,24.073-11.156c7.02,0,13.808,1.46,20.363,4.381v16.125
			c-7.22-4.039-14.25-6.058-21.09-6.058c-5.447,0-9.849,2.118-13.205,6.351c-3.356,4.234-5.035,9.341-5.035,15.317
			c0,5.916,1.284,10.834,3.853,14.756c2.567,3.924,5.852,7.533,9.852,10.833l4.996,4.413l6.172,5.453l5.08,4.491
			c10.818,9.706,16.229,21.888,16.229,36.548c0,11.183-2.768,20.779-8.301,28.792c-5.535,8.013-14.405,12.02-26.615,12.02
			c-3.888,0-7.595-0.483-11.12-1.445C610.273,358.791,605.637,356.789,599.893,353.743z"/>
	</g>
	<g>
		<path style="fill:#272525;" d="M185.462,508.963c-6.354,3.833-12.051,5.751-17.091,5.751c-6.647,0-12.763-2.875-18.35-8.626
			c-5.587-5.751-9.934-14.302-13.037-25.658c-3.104-11.354-4.656-24.199-4.656-38.531c0-14.215,1.534-26.986,4.601-38.311
			c3.068-11.326,7.395-19.908,12.982-25.747c5.587-5.839,11.74-8.76,18.46-8.76c5.04,0,10.736,1.906,17.091,5.714v16.279
			c-5.88-5.519-11.723-8.28-17.529-8.28c-4.382,0-8.391,2.422-12.024,7.261c-3.634,4.842-6.565,11.939-8.792,21.295
			c-2.228,9.357-3.342,19.523-3.342,30.502c0,11.157,1.15,21.457,3.451,30.902s5.24,16.513,8.819,21.206
			c3.578,4.693,7.54,7.039,11.887,7.039c5.77,0,11.613-2.743,17.529-8.229V508.963z"/>
		<path style="fill:#272525;" d="M226.819,514.715c-9.641,0-17.009-6.573-22.103-19.721s-7.641-30.892-7.641-53.229
			c0-22.277,2.547-39.991,7.641-53.138c5.094-13.147,12.462-19.723,22.103-19.723c9.676,0,17.054,6.576,22.13,19.723
			c5.075,13.147,7.614,30.861,7.614,53.138c0,22.337-2.539,40.081-7.614,53.229C243.873,508.142,236.496,514.715,226.819,514.715z
			 M226.819,500.985c5.331,0,9.778-4.895,13.338-14.683c3.561-9.79,5.34-24.618,5.34-44.491c0-19.873-1.78-34.704-5.34-44.493
			c-3.561-9.788-8.007-14.684-13.338-14.684c-5.333,0-9.778,4.896-13.338,14.684c-3.561,9.789-5.341,24.62-5.341,44.493
			c0,19.874,1.78,34.702,5.341,44.491C217.042,496.09,221.487,500.985,226.819,500.985z"/>
		<path style="fill:#272525;" d="M267.409,368.917h11.065v92.913c0,12.218,0.61,20.562,1.832,25.03
			c1.221,4.467,3.099,7.873,5.632,10.211c2.533,2.341,5.351,3.511,8.449,3.511c3.282,0,6.207-1.26,8.777-3.784
			c2.569-2.521,4.465-6.474,5.687-11.854c1.221-5.379,1.833-15.484,1.833-30.317v-85.709h10.188v92.366
			c0,13.191-1.177,23.511-3.53,30.956c-2.354,7.447-5.427,13.055-9.221,16.823c-3.794,3.768-8.573,5.652-14.337,5.652
			c-5.326,0-10.014-1.641-14.063-4.924c-4.049-3.283-7.113-8.207-9.193-14.771c-2.08-6.564-3.119-18.418-3.119-35.56V368.917z"/>
		<path style="fill:#272525;" d="M348.535,461.424v53.102H337.47V368.917h21.144c8.69,0,15.027,1.674,19.007,5.019
			c3.98,3.347,7.03,8.243,9.148,14.683c2.117,6.443,3.177,13.637,3.177,21.579c0,9.321-1.424,18.014-4.273,26.082
			c-2.848,8.069-6.82,14.277-11.914,18.624c-5.095,4.348-12.006,6.521-20.733,6.521H348.535z M348.535,446.882h4.765
			c6.829,0,11.905-1.519,15.228-4.556c3.323-3.038,5.879-7.407,7.669-13.107c1.79-5.699,2.685-11.871,2.685-18.512
			c0-8.393-1.598-15.032-4.792-19.918c-3.196-4.886-9.505-7.33-18.927-7.33h-6.627V446.882z"/>
		<path style="fill:#272525;" d="M452.995,498.483v16.043h-45.848V368.917h11.064v129.566H452.995z"/>
		<path style="fill:#272525;" d="M474.906,514.526h-10.627l26.203-145.609H501.7l26.34,145.609h-11.667l-5.803-31.992h-29.893
			L474.906,514.526z M483.297,467.992h24.802l-10.249-55.256l-2.376-14.785l-2.152,14.786L483.297,467.992z"/>
		<path style="fill:#272525;" d="M546.884,514.526h-10.188V368.917h9.97l30.018,96.916l3.287,14.449h0.274l-0.274-14.449v-96.916
			h10.188v145.609H579.97l-29.203-95.269l-4.102-15.293l0.219,15.105V514.526z"/>
		<path style="fill:#272525;" d="M605.605,514.526V368.917h20.158c9.275,0,16.168,2.768,20.68,8.303
			c4.509,5.535,7.895,13.902,10.16,25.097c2.265,11.197,3.396,24.457,3.396,39.78c0,14.512-1.196,27.255-3.588,38.232
			c-2.393,10.977-5.78,19.421-10.162,25.332c-4.382,5.91-11.211,8.865-20.486,8.865H605.605z M616.67,498.483h7.383
			c7.473,0,12.805-2.285,15.995-6.854s5.469-10.907,6.836-19.014c1.367-8.107,2.051-19.296,2.051-33.568
			c0-13.959-0.802-24.695-2.405-32.208c-1.604-7.511-3.902-13.286-6.892-17.323s-7.893-6.057-14.71-6.057h-8.258V498.483z"/>
	</g>
	<g>
		<path style="fill:#272525;" d="M147.856,680.304l-15.858-157.553h16.224l9.304,95.935l1.241,15.937h0.443l1.773-15.938
			l14.424-95.933h16.159l16.375,99.791l1.674,15.227h0.44l1.058-15.33l10.3-99.688h13.927l-16.563,157.553H201.95l-17.62-106.794
			l-1.85-16.04h-0.44l-1.674,16.04l-15.858,106.794H147.856z"/>
		<path style="fill:#272525;" d="M291.9,680.304c-15.505,0-27.355-7.113-35.548-21.343c-8.193-14.229-12.29-33.429-12.29-57.602
			c0-24.108,4.097-43.277,12.29-57.505c8.193-14.228,20.043-21.343,35.548-21.343c15.563,0,27.428,7.115,35.593,21.343
			c8.163,14.229,12.246,33.397,12.246,57.505c0,24.173-4.083,43.374-12.246,57.602C319.329,673.19,307.464,680.304,291.9,680.304z
			 M291.9,665.443c8.575,0,15.726-5.296,21.453-15.888c5.727-10.594,8.59-26.642,8.59-48.149c0-21.504-2.863-37.554-8.59-48.147
			c-5.727-10.593-12.878-15.89-21.453-15.89c-8.576,0-15.726,5.297-21.452,15.89c-5.727,10.594-8.59,26.644-8.59,48.147
			c0,21.508,2.863,37.556,8.59,48.149C276.175,660.147,283.324,665.443,291.9,665.443z"/>
		<path style="fill:#272525;" d="M377.005,613.304v67h-17.796V522.751h36.522c11.91,0,20.68,1.403,26.313,4.208
			c5.632,2.807,9.987,7.049,13.067,12.728c3.081,5.679,4.621,11.797,4.621,18.354c0,6.084-1.025,12.204-3.076,18.355
			c-2.051,6.153-4.879,11.646-8.482,16.478c-3.604,4.835-8.805,9.414-15.603,13.741l39.538,73.688h-21.191l-36.208-67H377.005z
			 M377.005,597.568h24.849c5.587-3.524,9.744-7.118,12.473-10.779c2.727-3.662,4.794-7.558,6.203-11.693
			c1.406-4.135,2.111-8.271,2.111-12.407c0-7.388-2.331-13.27-6.991-17.643c-4.66-4.372-13.116-6.559-25.368-6.559h-13.277V597.568z
			"/>
		<path style="fill:#272525;" d="M468.189,680.304V522.751h17.797v77.254l50.736-77.254h18.906l-49.015,74.793l55.887,82.76h-22.28
			l-54.234-80.349v80.349H468.189z"/>
		<path style="fill:#272525;" d="M576.465,672.81v-18.214c14.058,7.35,26.828,11.023,38.309,11.023c4.803,0,9.4-1.008,13.794-3.022
			c4.394-2.017,7.718-4.912,9.973-8.688s3.384-7.873,3.384-12.289c0-5.185-1.552-10.034-4.652-14.547
			c-3.101-4.511-8.923-9.488-17.466-14.929l-8.923-5.619l-9.068-5.711c-16.02-10.288-24.028-23.082-24.028-38.379
			c0-11.201,3.569-20.627,10.704-28.276c7.137-7.647,18.281-11.474,33.435-11.474c9.749,0,19.175,1.502,28.28,4.505v16.585
			c-10.027-4.154-19.791-6.231-29.291-6.231c-7.564,0-13.678,2.178-18.339,6.533c-4.662,4.354-6.992,9.606-6.992,15.752
			c0,6.085,1.783,11.143,5.35,15.177c3.565,4.035,8.127,7.748,13.683,11.143l6.938,4.539l8.571,5.608l7.057,4.618
			c15.025,9.983,22.538,22.514,22.538,37.591c0,11.501-3.844,21.37-11.528,29.612c-7.687,8.24-20.007,12.362-36.965,12.362
			c-5.398,0-10.547-0.496-15.444-1.487C590.883,678.003,584.443,675.942,576.465,672.81z"/>
	</g>
	<g>
		<path style="fill:#272525;" d="M132.004,840.546V688.894h14.795v65.273h41.895v-65.273h14.795v151.652h-14.795v-71.233h-41.895
			v71.233H132.004z"/>
		<path style="fill:#272525;" d="M229.417,840.546h-14.209l35.035-151.652h15l35.219,151.652h-15.601l-7.76-33.32h-39.967
			L229.417,840.546z M240.634,792.08h33.164l-13.704-57.549l-3.177-15.398l-2.877,15.399L240.634,792.08z"/>
		<path style="fill:#272525;" d="M328.513,776.055v64.491h-14.795V688.894h30.362c9.901,0,17.192,1.351,21.875,4.05
			c4.682,2.701,8.303,6.786,10.864,12.251c2.561,5.466,3.842,11.354,3.842,17.667c0,5.856-0.853,11.747-2.558,17.668
			c-1.705,5.924-4.056,11.211-7.052,15.861c-2.996,4.653-7.32,9.062-12.971,13.227l32.87,70.929h-17.618l-30.102-64.491H328.513z
			 M328.513,760.908h20.659c4.644-3.393,8.1-6.851,10.369-10.375c2.267-3.524,3.986-7.275,5.157-11.256
			c1.169-3.979,1.755-7.961,1.755-11.943c0-7.111-1.938-12.772-5.812-16.981c-3.875-4.208-10.905-6.313-21.09-6.313h-11.038V760.908
			z"/>
		<path style="fill:#272525;" d="M404.173,840.546V688.894h26.953c12.402,0,21.618,2.881,27.649,8.648
			c6.029,5.764,10.558,14.477,13.586,26.138c3.027,11.661,4.541,25.471,4.541,41.431c0,15.113-1.6,28.387-4.797,39.818
			c-3.199,11.434-7.728,20.229-13.587,26.383c-5.859,6.157-14.99,9.234-27.393,9.234H404.173z M418.968,823.837h9.87
			c9.993,0,17.122-2.379,21.387-7.139c4.266-4.759,7.312-11.359,9.141-19.803c1.828-8.442,2.742-20.097,2.742-34.963
			c0-14.537-1.072-25.72-3.217-33.543c-2.145-7.822-5.217-13.836-9.214-18.043c-3.997-4.203-10.554-6.308-19.668-6.308h-11.041
			V823.837z"/>
		<path style="fill:#272525;" d="M559.08,823.837v16.709h-61.377V688.894h60.278v15.243h-45.483v51.496h40.942v15.145h-40.942v53.06
			H559.08z"/>
		<path style="fill:#272525;" d="M598.558,776.055v64.491h-14.795V688.894h30.362c9.901,0,17.192,1.351,21.875,4.05
			c4.683,2.701,8.303,6.786,10.864,12.251c2.562,5.466,3.842,11.354,3.842,17.667c0,5.856-0.853,11.747-2.558,17.668
			c-1.705,5.924-4.056,11.211-7.052,15.861c-2.996,4.653-7.32,9.062-12.971,13.227l32.87,70.929h-17.619l-30.102-64.491H598.558z
			 M598.558,760.908h20.659c4.644-3.393,8.1-6.851,10.368-10.375c2.267-3.524,3.986-7.275,5.156-11.256
			c1.17-3.979,1.756-7.961,1.756-11.943c0-7.111-1.938-12.772-5.812-16.981c-3.875-4.208-10.905-6.313-21.09-6.313h-11.038V760.908z
			"/>
	</g>
	<g>
		<path style="fill:#272525;" d="M157.428,1015.585V867.421h-25.424v-18.346h61.892v18.346h-25.424v148.164H157.428z"/>
		<path style="fill:#272525;" d="M203.464,1015.585v-166.51h11.044v71.668h31.274v-71.668h11.045v166.51h-11.045v-78.213h-31.274
			v78.213H203.464z"/>
		<path style="fill:#272525;" d="M276.182,1015.585h-10.607l26.154-166.51h11.197l26.291,166.51h-11.646l-5.793-36.584h-29.835
			L276.182,1015.585z M284.556,962.371h24.757l-10.23-63.187l-2.372-16.907l-2.147,16.908L284.556,962.371z"/>
		<path style="fill:#272525;" d="M348.024,1015.585h-10.169v-166.51h9.95l29.962,110.829l3.281,16.521h0.273l-0.273-16.521V849.075
			h10.169v166.51h-10.169L351.9,906.641l-4.094-17.487l0.219,17.274V1015.585z"/>
		<path style="fill:#272525;" d="M493.515,1015.585v-77.032l-25.287-89.478h12.479l18.938,66.118l18.873-66.118h11.329
			l-25.287,89.478v77.032H493.515z"/>
		<path style="fill:#272525;" d="M566.123,1015.458c-9.623,0-16.977-7.507-22.061-22.523c-5.086-15.02-7.628-35.283-7.628-60.796
			c0-25.443,2.542-45.672,7.628-60.69c5.084-15.017,12.438-22.525,22.061-22.525c9.659,0,17.021,7.509,22.089,22.525
			c5.065,15.019,7.6,35.247,7.6,60.69c0,25.513-2.534,45.776-7.6,60.796C583.145,1007.951,575.782,1015.458,566.123,1015.458z
			 M566.123,999.775c5.321,0,9.76-5.591,13.313-16.77c3.555-11.182,5.33-28.117,5.33-50.815c0-22.696-1.775-39.634-5.33-50.815
			c-3.554-11.179-7.992-16.77-13.313-16.77c-5.322,0-9.76,5.591-13.313,16.77c-3.554,11.182-5.331,28.119-5.331,50.815
			c0,22.698,1.777,39.634,5.331,50.815C556.363,994.185,560.801,999.775,566.123,999.775z"/>
		<path style="fill:#272525;" d="M606.637,849.075h11.045v106.112c0,13.954,0.609,23.482,1.828,28.584
			c1.219,5.104,3.093,8.991,5.622,11.663c2.528,2.674,5.34,4.01,8.434,4.01c3.274,0,6.194-1.44,8.76-4.321
			c2.564-2.881,4.458-7.396,5.676-13.537c1.22-6.145,1.83-17.688,1.83-34.626v-97.885H660v105.488
			c0,15.063-1.175,26.85-3.523,35.353c-2.349,8.505-5.417,14.908-9.202,19.213c-3.788,4.304-8.559,6.456-14.312,6.456
			c-5.316,0-9.994-1.874-14.037-5.623c-4.042-3.749-7.1-9.372-9.176-16.87c-2.075-7.497-3.113-21.034-3.113-40.612V849.075z"/>
	</g>
</g>
<g id="Guides">
</g>
</svg>
